%TF.GenerationSoftware,KiCad,Pcbnew,10.0.6*%
%TF.CreationDate,2026-09-21T08:27:50+02:00*%
%TF.ProjectId,wherewatch-carrier,77686572-6577-4617-9463-682d63617272,rev?*%
%TF.SameCoordinates,Original*%
%TF.FileFunction,Copper,L1,Top*%
%TF.FilePolarity,Positive*%
%FSLAX46Y46*%
G04 Gerber Fmt 4.6, Leading zero omitted, Abs format (unit mm)*
G04 Created by KiCad (PCBNEW 10.0.6) date 2026-09-21 08:27:50*
%MOMM*%
%LPD*%
G01*
G04 APERTURE LIST*
G04 Aperture macros list*
%AMRoundRect*
0 Rectangle with rounded corners*
0 $1 Rounding radius*
0 $2 $3 $4 $5 $6 $7 $8 $9 X,Y pos of 4 corners*
0 Add a 4 corners polygon primitive as box body*
4,1,4,$2,$3,$4,$5,$6,$7,$8,$9,$2,$3,0*
0 Add four circle primitives for the rounded corners*
1,1,$1+$1,$2,$3*
1,1,$1+$1,$4,$5*
1,1,$1+$1,$6,$7*
1,1,$1+$1,$8,$9*
0 Add four rect primitives between the rounded corners*
20,1,$1+$1,$2,$3,$4,$5,0*
20,1,$1+$1,$4,$5,$6,$7,0*
20,1,$1+$1,$6,$7,$8,$9,0*
20,1,$1+$1,$8,$9,$2,$3,0*%
G04 Aperture macros list end*
%TA.AperFunction,SMDPad,CuDef*%
%ADD10RoundRect,0.500000X-0.875000X-0.500000X0.875000X-0.500000X0.875000X0.500000X-0.875000X0.500000X0*%
%TD*%
%TA.AperFunction,SMDPad,CuDef*%
%ADD11C,1.700000*%
%TD*%
%TA.AperFunction,SMDPad,CuDef*%
%ADD12RoundRect,0.275000X0.975000X0.275000X-0.975000X0.275000X-0.975000X-0.275000X0.975000X-0.275000X0*%
%TD*%
%TA.AperFunction,SMDPad,CuDef*%
%ADD13RoundRect,0.625000X-0.750000X-0.625000X0.750000X-0.625000X0.750000X0.625000X-0.750000X0.625000X0*%
%TD*%
%TA.AperFunction,SMDPad,CuDef*%
%ADD14O,1.773000X0.700000*%
%TD*%
%TA.AperFunction,SMDPad,CuDef*%
%ADD15RoundRect,0.147500X-0.147500X-0.172500X0.147500X-0.172500X0.147500X0.172500X-0.147500X0.172500X0*%
%TD*%
%TA.AperFunction,ViaPad*%
%ADD16C,0.600000*%
%TD*%
%TA.AperFunction,Conductor*%
%ADD17C,0.150000*%
%TD*%
%TA.AperFunction,Conductor*%
%ADD18C,0.350000*%
%TD*%
G04 APERTURE END LIST*
D10*
%TO.P,U1,1*%
%TO.N,VBAT_SENSE*%
X16404500Y6939800D03*
%TO.P,U1,2*%
%TO.N,BTN*%
X16404500Y4399800D03*
%TO.P,U1,3*%
%TO.N,GNSS_EN*%
X16404500Y1859800D03*
%TO.P,U1,4*%
%TO.N,VIB_IN*%
X16404500Y-680200D03*
%TO.P,U1,5*%
%TO.N,SDA*%
X16404500Y-3220200D03*
%TO.P,U1,6*%
%TO.N,SCL*%
X16404500Y-5760200D03*
%TO.P,U1,7*%
%TO.N,GNSS_RX*%
X16404500Y-8300200D03*
%TO.P,U1,8*%
%TO.N,GNSS_TX*%
X32569500Y-8300200D03*
%TO.P,U1,9*%
%TO.N,I2S_BCLK*%
X32569500Y-5760200D03*
%TO.P,U1,10*%
%TO.N,I2S_LRCLK*%
X32569500Y-3220200D03*
%TO.P,U1,11*%
%TO.N,I2S_DIN*%
X32569500Y-680200D03*
%TO.P,U1,12*%
%TO.N,+3V3*%
X32569500Y1859800D03*
%TO.P,U1,13*%
%TO.N,GND*%
X32569500Y4399800D03*
%TO.P,U1,14*%
%TO.N,VBUS*%
X32569500Y6939800D03*
D11*
%TO.P,U1,15*%
%TO.N,unconnected-(U1-MTDI-Pad15)*%
X23189500Y7951800D03*
%TO.P,U1,16*%
%TO.N,unconnected-(U1-MTDO-Pad16)*%
X25729500Y7951800D03*
%TO.P,U1,17*%
%TO.N,unconnected-(U1-EN-Pad17)*%
X23189500Y5411800D03*
%TO.P,U1,18*%
%TO.N,GND*%
X25729500Y5411800D03*
%TO.P,U1,19*%
%TO.N,unconnected-(U1-MTMS-Pad19)*%
X23189500Y2871800D03*
%TO.P,U1,20*%
%TO.N,unconnected-(U1-MTCK-Pad20)*%
X25729500Y2871800D03*
%TO.P,U1,21*%
%TO.N,unconnected-(U1-USB_DN-Pad21)*%
X23189500Y331800D03*
%TO.P,U1,22*%
%TO.N,unconnected-(U1-USB_DP-Pad22)*%
X25729500Y331800D03*
D12*
%TO.P,U1,23*%
%TO.N,VBAT*%
X20014500Y-298200D03*
%TO.P,U1,24*%
%TO.N,GND*%
X20014500Y1606800D03*
D13*
%TO.P,U1,25*%
%TO.N,unconnected-(U1-PAD-Pad25)*%
X25579500Y-2680200D03*
%TD*%
D14*
%TO.P,U3,1*%
%TO.N,GND*%
X37179300Y4400000D03*
%TO.P,U3,2*%
%TO.N,GNSS_TX*%
X37179300Y3300000D03*
%TO.P,U3,3*%
%TO.N,GNSS_RX*%
X37179300Y2200000D03*
%TO.P,U3,4*%
%TO.N,unconnected-(U3-1PPS-Pad4)*%
X37179300Y1100000D03*
%TO.P,U3,5*%
%TO.N,GNSS_EN*%
X37179300Y0D03*
%TO.P,U3,6*%
%TO.N,+3V3*%
X37179300Y-1100000D03*
%TO.P,U3,7*%
%TO.N,unconnected-(U3-NC-Pad7)*%
X37179300Y-2200000D03*
%TO.P,U3,8*%
%TO.N,+3V3*%
X37179300Y-3300000D03*
%TO.P,U3,9*%
%TO.N,unconnected-(U3-nRESET-Pad9)*%
X37179300Y-4400000D03*
%TO.P,U3,10*%
%TO.N,GND*%
X46799300Y-4400000D03*
%TO.P,U3,11*%
%TO.N,GNSS_RF*%
X46799300Y-3300000D03*
%TO.P,U3,12*%
%TO.N,GND*%
X46799300Y-2200000D03*
%TO.P,U3,13*%
%TO.N,unconnected-(U3-NC-Pad13)*%
X46799300Y-1100000D03*
%TO.P,U3,14*%
%TO.N,VCC_RF*%
X46799300Y0D03*
%TO.P,U3,15*%
%TO.N,unconnected-(U3-RSVD1-Pad15)*%
X46799300Y1100000D03*
%TO.P,U3,16*%
%TO.N,unconnected-(U3-SDA-Pad16)*%
X46799300Y2200000D03*
%TO.P,U3,17*%
%TO.N,unconnected-(U3-SCL-Pad17)*%
X46799300Y3300000D03*
%TO.P,U3,18*%
%TO.N,unconnected-(U3-RSVD2-Pad18)*%
X46799300Y4400000D03*
%TD*%
D15*
%TO.P,L1,1*%
%TO.N,VCC_RF*%
X48915000Y0D03*
%TO.P,L1,2*%
%TO.N,GNSS_RF*%
X49885000Y0D03*
%TD*%
D16*
%TO.N,VBAT_SENSE*%
X21802500Y2760000D03*
%TO.N,BTN*%
X23143800Y-9581900D03*
X18577400Y3436600D03*
%TO.N,GNSS_EN*%
X21674800Y-2399300D03*
X38545100Y-2817500D03*
%TO.N,VIB_IN*%
X18367800Y-1664000D03*
%TO.N,SDA*%
X35822000Y-9204000D03*
X18883400Y-4840400D03*
%TO.N,SCL*%
X29024800Y-205700D03*
X38315900Y-5641300D03*
X40575200Y-1961100D03*
%TO.N,GNSS_RX*%
X28193200Y-7045400D03*
X35074800Y858700D03*
%TO.N,I2S_BCLK*%
X23832800Y-5989000D03*
%TO.N,I2S_LRCLK*%
X27987600Y-4683100D03*
%TO.N,I2S_DIN*%
X21802500Y438700D03*
%TO.N,+3V3*%
X38960300Y1962100D03*
X35733200Y-3488100D03*
X30345400Y2450300D03*
X41840400Y-1784200D03*
%TO.N,GND*%
X44999999Y-1000000D03*
X18400000Y-10800000D03*
X46399999Y-6600000D03*
X49199999Y-3800000D03*
X49475000Y-1475000D03*
X37999999Y5999999D03*
X28380000Y-3692500D03*
X40799999Y7399999D03*
X49199999Y3199999D03*
X40377500Y1725000D03*
X48185800Y-4400000D03*
X40527500Y250000D03*
X49199999Y-5200000D03*
X21764500Y1606800D03*
X35199999Y7399999D03*
X42199999Y7399999D03*
X39399999Y7399999D03*
X15600000Y-10800000D03*
X25399999Y10200000D03*
X42199999Y-5200000D03*
X43599999Y-6600000D03*
X28199999Y-8000000D03*
X28199999Y8799999D03*
X44999999Y399999D03*
X43599999Y-2400000D03*
X47799999Y-6600000D03*
X36700000Y-8675000D03*
X40799999Y3199999D03*
X49199999Y4599999D03*
X44999999Y5999999D03*
X40799999Y-6600000D03*
X44999999Y-6600000D03*
X28199999Y7399999D03*
X30602800Y-6416600D03*
X49475000Y1475000D03*
X26799999Y10200000D03*
X27079500Y5411800D03*
X40799999Y-8000000D03*
X45412800Y-2200000D03*
X26900000Y-5900000D03*
X29599999Y-6600000D03*
X34588900Y2843300D03*
X41967100Y2537600D03*
X19799999Y-10800000D03*
X42199999Y-6600000D03*
X19799999Y7399999D03*
X26692500Y-4600000D03*
X44999999Y-3800000D03*
X46399999Y5999999D03*
X42199999Y-3800000D03*
X19799999Y10200000D03*
X20830000Y-2750000D03*
X43599999Y-3800000D03*
X18656300Y-3676300D03*
X40799999Y-5200000D03*
X43599999Y-8000000D03*
X43599999Y-1000000D03*
X43599999Y399999D03*
X23999999Y10200000D03*
X30401900Y99200D03*
X46399999Y-5200000D03*
X36599999Y7399999D03*
X15600000Y10200000D03*
X29599999Y-8000000D03*
X44999999Y-5200000D03*
X39215000Y-1562500D03*
X15600000Y8799999D03*
X44999999Y3199999D03*
X41452000Y1487000D03*
X22599999Y-3800000D03*
X44999999Y1799999D03*
X47799999Y-5200000D03*
X20429549Y2653232D03*
X42199999Y-8000000D03*
X18400000Y7399999D03*
X30837200Y3682200D03*
X23510000Y-3570000D03*
X19799999Y-3800000D03*
X35792800Y4400000D03*
X43599999Y7399999D03*
X22573800Y-1507600D03*
X22599999Y10200000D03*
X20975000Y5000000D03*
X17000000Y-10800000D03*
X37999999Y8799999D03*
X43599999Y-5200000D03*
X47799999Y5999999D03*
X19799999Y8799999D03*
%TO.N,VBUS*%
X35399300Y2829200D03*
%TO.N,VBAT*%
X24504700Y-777000D03*
X34449500Y5374200D03*
%TO.N,GNSS_RF*%
X48424700Y-3091300D03*
%TO.N,SPK_P*%
X26161900Y-7693300D03*
X29687100Y-2002900D03*
%TO.N,BAT_RAW*%
X42472900Y1027800D03*
X29249100Y5989900D03*
X36104300Y6444300D03*
%TD*%
%TO.N,VBAT_SENSE*%
D17*
X17622700Y6939800D02*
X21802500Y2760000D01*
X16404500Y6939800D02*
X17622700Y6939800D01*
%TO.N,BTN*%
X17367700Y3436600D02*
X18577400Y3436600D01*
X16404500Y4399800D02*
X17367700Y3436600D01*
%TO.N,GNSS_EN*%
X21674800Y-2399300D02*
X21144000Y-1868500D01*
X18272400Y-621700D02*
X18272400Y-8100D01*
X18272400Y-8100D02*
X16404500Y1859800D01*
X37179300Y0D02*
X38342500Y0D01*
X38545100Y-2817500D02*
X38545100Y-202600D01*
X21144000Y-1868500D02*
X19519200Y-1868500D01*
X38545100Y-202600D02*
X38342500Y0D01*
X19519200Y-1868500D02*
X18272400Y-621700D01*
%TO.N,VIB_IN*%
X17388300Y-1664000D02*
X16404500Y-680200D01*
X18367800Y-1664000D02*
X17388300Y-1664000D01*
%TO.N,SDA*%
X16404500Y-3220200D02*
X18024700Y-4840400D01*
X18024700Y-4840400D02*
X18883400Y-4840400D01*
%TO.N,SCL*%
X21611300Y-5221800D02*
X26947900Y-5221800D01*
X27356300Y-1874200D02*
X29024800Y-205700D01*
X27356300Y-4813400D02*
X27356300Y-1874200D01*
X16404500Y-5760200D02*
X21072900Y-5760200D01*
X26947900Y-5221800D02*
X27356300Y-4813400D01*
X21072900Y-5760200D02*
X21611300Y-5221800D01*
%TO.N,GNSS_RX*%
X37179300Y2200000D02*
X36016100Y2200000D01*
X16404500Y-8300200D02*
X17659300Y-7045400D01*
X35074800Y858700D02*
X36016100Y1800000D01*
X17659300Y-7045400D02*
X28193200Y-7045400D01*
X36016100Y1800000D02*
X36016100Y2200000D01*
%TO.N,GNSS_TX*%
X38342500Y1359700D02*
X38342500Y3300000D01*
X34702000Y-8300200D02*
X39792700Y-3209500D01*
X37179300Y3300000D02*
X38342500Y3300000D01*
X39792700Y-3209500D02*
X39792700Y-90500D01*
X39792700Y-90500D02*
X38342500Y1359700D01*
X32569500Y-8300200D02*
X34702000Y-8300200D01*
%TO.N,I2S_BCLK*%
X32569500Y-5760200D02*
X28662900Y-5760200D01*
X27931600Y-6491500D02*
X24335300Y-6491500D01*
X24335300Y-6491500D02*
X23832800Y-5989000D01*
X28662900Y-5760200D02*
X27931600Y-6491500D01*
%TO.N,I2S_LRCLK*%
X31106600Y-4683100D02*
X27987600Y-4683100D01*
X32569500Y-3220200D02*
X31106600Y-4683100D01*
%TO.N,I2S_DIN*%
X21802500Y633900D02*
X21802500Y438700D01*
X30402000Y1487300D02*
X22655900Y1487300D01*
X32569500Y-680200D02*
X30402000Y1487300D01*
X22655900Y1487300D02*
X21802500Y633900D01*
%TO.N,+3V3*%
X30935900Y1859800D02*
X30345400Y2450300D01*
X35921300Y-3300000D02*
X35733200Y-3488100D01*
X37179300Y-3300000D02*
X36016100Y-3300000D01*
X36016100Y-3300000D02*
X36016100Y-1100000D01*
X36016100Y-1100000D02*
X35529300Y-1100000D01*
X36016100Y-3300000D02*
X35921300Y-3300000D01*
X36016100Y-1100000D02*
X37179300Y-1100000D01*
X32569500Y1859800D02*
X30935900Y1859800D01*
X35529300Y-1100000D02*
X32569500Y1859800D01*
%TO.N,VBUS*%
X35399300Y2829200D02*
X35399300Y3835600D01*
X33699500Y6939800D02*
X32569500Y6939800D01*
X35026200Y5613100D02*
X33699500Y6939800D01*
X35399300Y3835600D02*
X35026200Y4208700D01*
X35026200Y4208700D02*
X35026200Y5613100D01*
%TO.N,VBAT*%
X24418800Y-862900D02*
X20579200Y-862900D01*
X24504700Y-777000D02*
X24418800Y-862900D01*
X20579200Y-862900D02*
X20014500Y-298200D01*
%TO.N,GNSS_RF*%
D18*
X48425000Y-3091000D02*
X48689000Y-3091000D01*
X48216000Y-3300000D02*
X46799000Y-3300000D01*
X49086000Y-2897000D02*
X50386000Y-1697000D01*
X50386000Y-213000D02*
X49885000Y0D01*
X50386000Y-1697000D02*
X50386000Y-213000D01*
X48425000Y-3091000D02*
X48216000Y-3300000D01*
X48689000Y-3091000D02*
X49086000Y-2897000D01*
%TO.N,VCC_RF*%
D17*
X48915000Y0D02*
X46799300Y0D01*
%TD*%
%TA.AperFunction,Conductor*%
%TO.N,GND*%
G36*
X14734024Y12513420D02*
G01*
X15149998Y12463321D01*
X15149999Y12463321D01*
X15649999Y12403101D01*
X16149999Y12342880D01*
X16649999Y12282660D01*
X17150000Y12222440D01*
X18150000Y12102000D01*
X18650000Y12041779D01*
X20150000Y11861119D01*
X20650000Y11800898D01*
X22150000Y11620238D01*
X22650000Y11560017D01*
X24650000Y11319137D01*
X25150000Y11258916D01*
X26650000Y11078256D01*
X27150000Y11018035D01*
X29150000Y10777155D01*
X29650000Y10716934D01*
X31150000Y10536274D01*
X31650000Y10476053D01*
X33650000Y10235173D01*
X34150000Y10174952D01*
X35650000Y9994292D01*
X36150000Y9934071D01*
X37650000Y9753411D01*
X38150000Y9693190D01*
X40150000Y9452310D01*
X40650000Y9392089D01*
X41150000Y9331869D01*
X41642087Y9272602D01*
X41657530Y9269031D01*
X41785916Y9224408D01*
X41999996Y9150001D01*
X41999997Y9150000D01*
X42000000Y9150000D01*
X42412230Y9132001D01*
X42794251Y9115321D01*
X42800682Y9114758D01*
X43585678Y9011411D01*
X43592035Y9010290D01*
X44365040Y8838920D01*
X44371276Y8837249D01*
X45126400Y8599159D01*
X45132467Y8596951D01*
X45863973Y8293951D01*
X45869823Y8291223D01*
X46572134Y7925623D01*
X46577725Y7922395D01*
X47245501Y7496975D01*
X47250789Y7493272D01*
X47878934Y7011279D01*
X47883880Y7007130D01*
X48467644Y6472209D01*
X48472209Y6467644D01*
X49007130Y5883880D01*
X49011279Y5878934D01*
X49493272Y5250789D01*
X49496975Y5245501D01*
X49922395Y4577724D01*
X49925623Y4572133D01*
X50291223Y3869823D01*
X50293951Y3863973D01*
X50596951Y3132467D01*
X50599159Y3126400D01*
X50837249Y2371276D01*
X50838920Y2365040D01*
X51010290Y1592035D01*
X51011411Y1585678D01*
X51114758Y800682D01*
X51115321Y794251D01*
X51149859Y3228D01*
X51149859Y-3228D01*
X51115321Y-794251D01*
X51114758Y-800682D01*
X51011411Y-1585678D01*
X51010430Y-1587375D01*
X51010844Y-1589291D01*
X51010290Y-1592035D01*
X50838920Y-2365040D01*
X50837249Y-2371276D01*
X50599159Y-3126400D01*
X50596951Y-3132467D01*
X50293951Y-3863973D01*
X50291223Y-3869823D01*
X49925623Y-4572133D01*
X49922395Y-4577724D01*
X49496975Y-5245501D01*
X49493272Y-5250789D01*
X49011279Y-5878934D01*
X49007130Y-5883880D01*
X48472209Y-6467644D01*
X48467644Y-6472209D01*
X47883880Y-7007130D01*
X47878934Y-7011279D01*
X47250789Y-7493272D01*
X47245501Y-7496975D01*
X46577725Y-7922395D01*
X46572134Y-7925623D01*
X45869823Y-8291223D01*
X45863973Y-8293951D01*
X45132467Y-8596951D01*
X45126400Y-8599159D01*
X44371276Y-8837249D01*
X44365040Y-8838920D01*
X43592035Y-9010290D01*
X43585678Y-9011411D01*
X42800682Y-9114758D01*
X42794251Y-9115321D01*
X42000003Y-9149999D01*
X42000000Y-9150000D01*
X41505448Y-9288192D01*
X41494382Y-9290391D01*
X41000000Y-9349935D01*
X40500000Y-9410155D01*
X40000000Y-9470376D01*
X38500000Y-9651036D01*
X38000000Y-9711257D01*
X36000000Y-9952137D01*
X35500000Y-10012358D01*
X34000000Y-10193018D01*
X33500000Y-10253239D01*
X31500000Y-10494119D01*
X31000000Y-10554340D01*
X29500000Y-10735000D01*
X29000000Y-10795221D01*
X27500000Y-10975881D01*
X27000000Y-11036102D01*
X25000000Y-11276982D01*
X24500000Y-11337203D01*
X23000000Y-11517863D01*
X22500000Y-11578084D01*
X20500000Y-11818964D01*
X20000000Y-11879185D01*
X18500000Y-12059845D01*
X18000000Y-12120066D01*
X16500000Y-12300726D01*
X16000000Y-12360947D01*
X15500000Y-12421167D01*
X15081690Y-12471548D01*
X15027147Y-12456286D01*
X14999372Y-12406928D01*
X14998848Y-12399115D01*
X14994942Y-12120066D01*
X14958493Y-9516005D01*
X22643300Y-9516005D01*
X22643300Y-9647794D01*
X22677406Y-9775081D01*
X22677407Y-9775084D01*
X22677408Y-9775086D01*
X22743300Y-9889214D01*
X22836486Y-9982400D01*
X22950614Y-10048292D01*
X23077905Y-10082399D01*
X23077906Y-10082400D01*
X23077908Y-10082400D01*
X23209694Y-10082400D01*
X23209694Y-10082399D01*
X23336986Y-10048292D01*
X23451114Y-9982400D01*
X23544300Y-9889214D01*
X23610192Y-9775086D01*
X23644299Y-9647794D01*
X23644300Y-9647794D01*
X23644300Y-9516006D01*
X23644299Y-9516005D01*
X23638479Y-9494286D01*
X23610192Y-9388714D01*
X23544300Y-9274586D01*
X23451114Y-9181400D01*
X23396726Y-9149999D01*
X23336990Y-9115510D01*
X23336981Y-9115506D01*
X23209694Y-9081400D01*
X23209692Y-9081400D01*
X23077908Y-9081400D01*
X23077906Y-9081400D01*
X22950618Y-9115506D01*
X22950609Y-9115510D01*
X22836485Y-9181400D01*
X22743300Y-9274585D01*
X22677410Y-9388709D01*
X22677406Y-9388718D01*
X22643300Y-9516005D01*
X14958493Y-9516005D01*
X14956839Y-9397873D01*
X14977778Y-9345252D01*
X15029795Y-9322847D01*
X15082419Y-9343787D01*
X15083157Y-9344514D01*
X15094315Y-9355672D01*
X15239894Y-9443678D01*
X15402304Y-9494286D01*
X15472884Y-9500700D01*
X15472886Y-9500700D01*
X17336114Y-9500700D01*
X17336116Y-9500700D01*
X17406696Y-9494286D01*
X17569106Y-9443678D01*
X17714685Y-9355672D01*
X17834972Y-9235385D01*
X17922978Y-9089806D01*
X17973586Y-8927396D01*
X17980000Y-8856816D01*
X17980000Y-7743584D01*
X17973586Y-7673004D01*
X17922978Y-7510594D01*
X17876180Y-7433182D01*
X17867659Y-7377191D01*
X17901226Y-7331572D01*
X17939509Y-7320900D01*
X25670805Y-7320900D01*
X25723131Y-7342574D01*
X25744805Y-7394900D01*
X25734891Y-7431900D01*
X25695510Y-7500109D01*
X25695506Y-7500118D01*
X25661400Y-7627405D01*
X25661400Y-7759194D01*
X25695506Y-7886481D01*
X25695507Y-7886484D01*
X25695508Y-7886486D01*
X25761400Y-8000614D01*
X25854586Y-8093800D01*
X25968714Y-8159692D01*
X26096005Y-8193799D01*
X26096006Y-8193800D01*
X26096008Y-8193800D01*
X26227794Y-8193800D01*
X26227794Y-8193799D01*
X26355086Y-8159692D01*
X26469214Y-8093800D01*
X26562400Y-8000614D01*
X26628292Y-7886486D01*
X26662399Y-7759194D01*
X26662400Y-7759194D01*
X26662400Y-7627406D01*
X26662399Y-7627405D01*
X26659735Y-7617464D01*
X26628292Y-7500114D01*
X26620668Y-7486910D01*
X26588909Y-7431900D01*
X26581517Y-7375747D01*
X26615995Y-7330814D01*
X26652995Y-7320900D01*
X27731795Y-7320900D01*
X27784121Y-7342574D01*
X27790498Y-7349845D01*
X27792696Y-7352709D01*
X27792698Y-7352711D01*
X27792700Y-7352714D01*
X27885886Y-7445900D01*
X28000014Y-7511792D01*
X28127305Y-7545899D01*
X28127306Y-7545900D01*
X28127308Y-7545900D01*
X28259094Y-7545900D01*
X28259094Y-7545899D01*
X28386386Y-7511792D01*
X28500514Y-7445900D01*
X28593700Y-7352714D01*
X28659592Y-7238586D01*
X28693699Y-7111294D01*
X28693700Y-7111294D01*
X28693700Y-6979506D01*
X28693699Y-6979505D01*
X28673381Y-6903678D01*
X28659592Y-6852214D01*
X28593700Y-6738086D01*
X28500514Y-6644900D01*
X28498217Y-6643574D01*
X28386387Y-6579008D01*
X28381907Y-6577153D01*
X28382932Y-6574677D01*
X28344822Y-6545403D01*
X28337460Y-6489246D01*
X28356600Y-6456114D01*
X28755342Y-6057374D01*
X28807668Y-6035700D01*
X30920000Y-6035700D01*
X30972326Y-6057374D01*
X30994000Y-6109700D01*
X30994000Y-6316823D01*
X31000413Y-6387390D01*
X31000413Y-6387391D01*
X31000413Y-6387393D01*
X31000414Y-6387396D01*
X31051022Y-6549806D01*
X31139028Y-6695385D01*
X31259315Y-6815672D01*
X31404894Y-6903678D01*
X31567304Y-6954286D01*
X31580877Y-6955519D01*
X31591707Y-6956504D01*
X31641857Y-6982825D01*
X31658706Y-7036897D01*
X31632385Y-7087047D01*
X31591707Y-7103896D01*
X31567309Y-7106113D01*
X31567308Y-7106113D01*
X31567305Y-7106113D01*
X31567304Y-7106114D01*
X31404894Y-7156722D01*
X31404892Y-7156722D01*
X31404892Y-7156723D01*
X31259314Y-7244728D01*
X31139028Y-7365014D01*
X31059255Y-7496975D01*
X31051022Y-7510594D01*
X31022444Y-7602306D01*
X31000413Y-7673008D01*
X31000413Y-7673009D01*
X30994000Y-7743576D01*
X30994000Y-8856823D01*
X31000413Y-8927390D01*
X31000413Y-8927391D01*
X31000413Y-8927393D01*
X31000414Y-8927396D01*
X31051022Y-9089806D01*
X31139028Y-9235385D01*
X31259315Y-9355672D01*
X31404894Y-9443678D01*
X31567304Y-9494286D01*
X31637884Y-9500700D01*
X31637886Y-9500700D01*
X33501114Y-9500700D01*
X33501116Y-9500700D01*
X33571696Y-9494286D01*
X33734106Y-9443678D01*
X33879685Y-9355672D01*
X33999972Y-9235385D01*
X34058780Y-9138105D01*
X35321500Y-9138105D01*
X35321500Y-9269894D01*
X35355606Y-9397181D01*
X35355610Y-9397190D01*
X35382449Y-9443676D01*
X35421500Y-9511314D01*
X35514686Y-9604500D01*
X35628814Y-9670392D01*
X35756105Y-9704499D01*
X35756106Y-9704500D01*
X35756108Y-9704500D01*
X35887894Y-9704500D01*
X35887894Y-9704499D01*
X36015186Y-9670392D01*
X36129314Y-9604500D01*
X36222500Y-9511314D01*
X36288392Y-9397186D01*
X36322499Y-9269894D01*
X36322500Y-9269894D01*
X36322500Y-9138106D01*
X36322499Y-9138105D01*
X36309557Y-9089806D01*
X36288392Y-9010814D01*
X36222500Y-8896686D01*
X36129314Y-8803500D01*
X36016565Y-8738404D01*
X36015190Y-8737610D01*
X36015181Y-8737606D01*
X35887894Y-8703500D01*
X35887892Y-8703500D01*
X35756108Y-8703500D01*
X35756106Y-8703500D01*
X35628818Y-8737606D01*
X35628809Y-8737610D01*
X35514685Y-8803500D01*
X35421500Y-8896685D01*
X35355610Y-9010809D01*
X35355606Y-9010818D01*
X35321500Y-9138105D01*
X34058780Y-9138105D01*
X34087978Y-9089806D01*
X34138586Y-8927396D01*
X34145000Y-8856816D01*
X34145000Y-8649700D01*
X34166674Y-8597374D01*
X34219000Y-8575700D01*
X34756798Y-8575700D01*
X34756800Y-8575700D01*
X34858058Y-8533757D01*
X34935557Y-8456258D01*
X37697133Y-5694681D01*
X37749458Y-5673008D01*
X37801784Y-5694682D01*
X37820936Y-5727855D01*
X37849506Y-5834481D01*
X37849510Y-5834490D01*
X37876534Y-5881297D01*
X37915400Y-5948614D01*
X38008586Y-6041800D01*
X38122714Y-6107692D01*
X38250005Y-6141799D01*
X38250006Y-6141800D01*
X38250008Y-6141800D01*
X38381794Y-6141800D01*
X38381794Y-6141799D01*
X38509086Y-6107692D01*
X38623214Y-6041800D01*
X38716400Y-5948614D01*
X38782292Y-5834486D01*
X38816399Y-5707194D01*
X38816400Y-5707194D01*
X38816400Y-5575406D01*
X38816399Y-5575405D01*
X38803333Y-5526643D01*
X38782292Y-5448114D01*
X38716400Y-5333986D01*
X38623214Y-5240800D01*
X38558754Y-5203584D01*
X38509090Y-5174910D01*
X38509081Y-5174906D01*
X38402455Y-5146336D01*
X38357522Y-5111858D01*
X38350130Y-5055705D01*
X38369280Y-5022534D01*
X40026257Y-3365558D01*
X40040140Y-3332042D01*
X40068200Y-3264300D01*
X40068200Y-2340566D01*
X40089874Y-2288240D01*
X40142200Y-2266566D01*
X40194526Y-2288240D01*
X40267886Y-2361600D01*
X40382014Y-2427492D01*
X40509305Y-2461599D01*
X40509306Y-2461600D01*
X40509308Y-2461600D01*
X40641094Y-2461600D01*
X40641094Y-2461599D01*
X40768386Y-2427492D01*
X40882514Y-2361600D01*
X40975700Y-2268414D01*
X41041592Y-2154286D01*
X41075699Y-2026994D01*
X41075700Y-2026994D01*
X41075700Y-1895206D01*
X41075699Y-1895205D01*
X41074301Y-1889989D01*
X41041592Y-1767914D01*
X41028633Y-1745469D01*
X41012950Y-1718305D01*
X41339900Y-1718305D01*
X41339900Y-1850094D01*
X41374006Y-1977381D01*
X41374010Y-1977390D01*
X41402141Y-2026114D01*
X41439900Y-2091514D01*
X41533086Y-2184700D01*
X41647214Y-2250592D01*
X41774505Y-2284699D01*
X41774506Y-2284700D01*
X41774508Y-2284700D01*
X41906294Y-2284700D01*
X41906294Y-2284699D01*
X42033586Y-2250592D01*
X42147714Y-2184700D01*
X42240900Y-2091514D01*
X42306792Y-1977386D01*
X42340899Y-1850094D01*
X42340900Y-1850094D01*
X42340900Y-1718306D01*
X42340899Y-1718305D01*
X42340855Y-1718142D01*
X42306792Y-1591014D01*
X42240900Y-1476886D01*
X42147714Y-1383700D01*
X42133511Y-1375500D01*
X42033590Y-1317810D01*
X42033581Y-1317806D01*
X41906294Y-1283700D01*
X41906292Y-1283700D01*
X41774508Y-1283700D01*
X41774506Y-1283700D01*
X41647218Y-1317806D01*
X41647209Y-1317810D01*
X41533085Y-1383700D01*
X41439900Y-1476885D01*
X41374010Y-1591009D01*
X41374006Y-1591018D01*
X41339900Y-1718305D01*
X41012950Y-1718305D01*
X40985833Y-1671337D01*
X40975700Y-1653786D01*
X40882514Y-1560600D01*
X40868519Y-1552520D01*
X40768390Y-1494710D01*
X40768381Y-1494706D01*
X40641094Y-1460600D01*
X40641092Y-1460600D01*
X40509308Y-1460600D01*
X40509306Y-1460600D01*
X40382018Y-1494706D01*
X40382009Y-1494710D01*
X40267885Y-1560600D01*
X40194526Y-1633960D01*
X40142200Y-1655634D01*
X40089874Y-1633960D01*
X40068200Y-1581634D01*
X40068200Y-35700D01*
X40068199Y-35698D01*
X40051954Y3522D01*
X40026259Y65555D01*
X40026258Y65558D01*
X38998120Y1093694D01*
X41972400Y1093694D01*
X41972400Y961905D01*
X42006506Y834618D01*
X42006510Y834609D01*
X42072400Y720485D01*
X42165585Y627300D01*
X42279709Y561410D01*
X42279718Y561406D01*
X42407005Y527300D01*
X42407008Y527300D01*
X42538794Y527300D01*
X42666081Y561406D01*
X42666084Y561407D01*
X42666086Y561408D01*
X42666087Y561408D01*
X42666090Y561410D01*
X42780214Y627300D01*
X42873399Y720485D01*
X42888139Y746014D01*
X42939292Y834614D01*
X42973399Y961905D01*
X42973400Y961906D01*
X42973400Y1093694D01*
X42939293Y1220981D01*
X42939292Y1220986D01*
X42873400Y1335114D01*
X42780214Y1428300D01*
X42666086Y1494192D01*
X42616695Y1507426D01*
X42538794Y1528300D01*
X42538792Y1528300D01*
X42407008Y1528300D01*
X42407006Y1528300D01*
X42294754Y1498222D01*
X42279714Y1494192D01*
X42165586Y1428300D01*
X42165585Y1428299D01*
X42072400Y1335114D01*
X42006510Y1220990D01*
X42006506Y1220981D01*
X41972400Y1093694D01*
X38998120Y1093694D01*
X38728795Y1363019D01*
X38707122Y1415344D01*
X38728796Y1467670D01*
X38781122Y1489344D01*
X38800273Y1486823D01*
X38894408Y1461600D01*
X39026194Y1461600D01*
X39153481Y1495706D01*
X39153484Y1495707D01*
X39153486Y1495708D01*
X39153487Y1495708D01*
X39153490Y1495710D01*
X39267614Y1561600D01*
X39360799Y1654785D01*
X39371662Y1673599D01*
X39426692Y1768914D01*
X39460799Y1896205D01*
X39460800Y1896206D01*
X39460800Y2027994D01*
X39429988Y2142985D01*
X39426692Y2155286D01*
X39360800Y2269414D01*
X39267614Y2362600D01*
X39153486Y2428492D01*
X39104095Y2441726D01*
X39026194Y2462600D01*
X39026192Y2462600D01*
X38894408Y2462600D01*
X38894406Y2462600D01*
X38786069Y2433571D01*
X38767114Y2428492D01*
X38729000Y2406486D01*
X38672849Y2399093D01*
X38627915Y2433571D01*
X38618000Y2470572D01*
X38618000Y3354799D01*
X38611953Y3369398D01*
X38576057Y3456058D01*
X38498558Y3533557D01*
X38397300Y3575500D01*
X38397299Y3575500D01*
X38235126Y3575500D01*
X38182800Y3597174D01*
X38171040Y3612500D01*
X38156309Y3638015D01*
X38053815Y3740509D01*
X37928285Y3812984D01*
X37911737Y3817417D01*
X37788277Y3850500D01*
X37788275Y3850500D01*
X36570325Y3850500D01*
X36570323Y3850500D01*
X36430318Y3812985D01*
X36430316Y3812984D01*
X36430315Y3812984D01*
X36304785Y3740509D01*
X36304784Y3740508D01*
X36202291Y3638015D01*
X36129816Y3512486D01*
X36129814Y3512481D01*
X36092300Y3372477D01*
X36092300Y3227522D01*
X36129814Y3087518D01*
X36129816Y3087513D01*
X36202291Y2961984D01*
X36304784Y2859491D01*
X36383428Y2814086D01*
X36417907Y2769152D01*
X36410514Y2713000D01*
X36383428Y2685914D01*
X36371231Y2678872D01*
X36304785Y2640509D01*
X36304784Y2640508D01*
X36202291Y2538015D01*
X36187560Y2512500D01*
X36142627Y2478021D01*
X36123474Y2475500D01*
X36070900Y2475500D01*
X35961300Y2475500D01*
X35915242Y2456422D01*
X35858606Y2456422D01*
X35818557Y2496470D01*
X35818557Y2553107D01*
X35822838Y2561789D01*
X35825739Y2566814D01*
X35865692Y2636014D01*
X35899799Y2763305D01*
X35899800Y2763306D01*
X35899800Y2895094D01*
X35870812Y3003278D01*
X35865692Y3022386D01*
X35799800Y3136514D01*
X35706614Y3229700D01*
X35706611Y3229701D01*
X35703756Y3231893D01*
X35675434Y3280940D01*
X35674800Y3290604D01*
X35674800Y3890399D01*
X35669584Y3902992D01*
X35632857Y3991658D01*
X35632857Y3991659D01*
X35323373Y4301141D01*
X35301700Y4353467D01*
X35301700Y4472477D01*
X45712300Y4472477D01*
X45712300Y4327522D01*
X45749814Y4187518D01*
X45749816Y4187513D01*
X45822291Y4061984D01*
X45924784Y3959491D01*
X46003428Y3914086D01*
X46037907Y3869152D01*
X46030514Y3813000D01*
X46003428Y3785914D01*
X45980375Y3772604D01*
X45924785Y3740509D01*
X45924784Y3740508D01*
X45822291Y3638015D01*
X45749816Y3512486D01*
X45749814Y3512481D01*
X45712300Y3372477D01*
X45712300Y3227522D01*
X45749814Y3087518D01*
X45749816Y3087513D01*
X45822291Y2961984D01*
X45924784Y2859491D01*
X46003428Y2814086D01*
X46037907Y2769152D01*
X46030514Y2713000D01*
X46003428Y2685914D01*
X45991231Y2678872D01*
X45924785Y2640509D01*
X45924784Y2640508D01*
X45822291Y2538015D01*
X45749816Y2412486D01*
X45749814Y2412481D01*
X45712300Y2272477D01*
X45712300Y2127522D01*
X45749814Y1987518D01*
X45749816Y1987513D01*
X45822291Y1861984D01*
X45924784Y1759491D01*
X46003428Y1714086D01*
X46037907Y1669152D01*
X46030514Y1613000D01*
X46003428Y1585914D01*
X46000633Y1584300D01*
X45924785Y1540509D01*
X45924784Y1540508D01*
X45822291Y1438015D01*
X45749816Y1312486D01*
X45749814Y1312481D01*
X45712300Y1172477D01*
X45712300Y1027522D01*
X45749814Y887518D01*
X45749816Y887513D01*
X45822291Y761984D01*
X45924784Y659491D01*
X46003428Y614086D01*
X46037907Y569152D01*
X46030514Y513000D01*
X46003428Y485914D01*
X45970494Y466899D01*
X45924785Y440509D01*
X45924784Y440508D01*
X45822291Y338015D01*
X45749816Y212486D01*
X45749814Y212481D01*
X45712300Y72477D01*
X45712300Y-72477D01*
X45749814Y-212481D01*
X45749816Y-212486D01*
X45806469Y-310610D01*
X45822291Y-338015D01*
X45924785Y-440509D01*
X45957914Y-459636D01*
X46003428Y-485914D01*
X46037907Y-530848D01*
X46030514Y-587000D01*
X46003428Y-614086D01*
X45924784Y-659491D01*
X45822291Y-761984D01*
X45749816Y-887513D01*
X45749814Y-887518D01*
X45712300Y-1027522D01*
X45712300Y-1172477D01*
X45749814Y-1312481D01*
X45749816Y-1312486D01*
X45786198Y-1375500D01*
X45822291Y-1438015D01*
X45924785Y-1540509D01*
X46050315Y-1612984D01*
X46050316Y-1612984D01*
X46050318Y-1612985D01*
X46120320Y-1631742D01*
X46190322Y-1650499D01*
X46190323Y-1650500D01*
X46190325Y-1650500D01*
X47408277Y-1650500D01*
X47408277Y-1650499D01*
X47548285Y-1612984D01*
X47673815Y-1540509D01*
X47776309Y-1438015D01*
X47848784Y-1312485D01*
X47886299Y-1172477D01*
X47886300Y-1172477D01*
X47886300Y-1027523D01*
X47886299Y-1027522D01*
X47848785Y-887518D01*
X47848783Y-887513D01*
X47811863Y-823567D01*
X47776309Y-761985D01*
X47673815Y-659491D01*
X47595170Y-614085D01*
X47560692Y-569153D01*
X47568085Y-513000D01*
X47595171Y-485914D01*
X47598180Y-484177D01*
X47673815Y-440509D01*
X47776309Y-338015D01*
X47791040Y-312499D01*
X47835973Y-278021D01*
X47855126Y-275500D01*
X48384301Y-275500D01*
X48436627Y-297174D01*
X48450782Y-317000D01*
X48480363Y-377510D01*
X48480364Y-377511D01*
X48562489Y-459636D01*
X48666830Y-510645D01*
X48734472Y-520500D01*
X48734478Y-520500D01*
X49095522Y-520500D01*
X49095528Y-520500D01*
X49163170Y-510645D01*
X49267511Y-459636D01*
X49347674Y-379473D01*
X49400000Y-357799D01*
X49452326Y-379473D01*
X49532489Y-459636D01*
X49636830Y-510645D01*
X49704472Y-520500D01*
X49936500Y-520500D01*
X49988826Y-542174D01*
X50010500Y-594500D01*
X50010500Y-1500194D01*
X49988826Y-1552520D01*
X49986693Y-1554569D01*
X48879685Y-2576422D01*
X48861982Y-2588533D01*
X48731042Y-2652519D01*
X48674513Y-2656020D01*
X48661556Y-2650121D01*
X48617886Y-2624908D01*
X48617881Y-2624906D01*
X48490594Y-2590800D01*
X48490592Y-2590800D01*
X48358808Y-2590800D01*
X48358806Y-2590800D01*
X48231518Y-2624906D01*
X48231509Y-2624910D01*
X48117385Y-2690800D01*
X48024200Y-2783985D01*
X47964436Y-2887500D01*
X47919502Y-2921979D01*
X47900350Y-2924500D01*
X47769476Y-2924500D01*
X47717150Y-2902826D01*
X47673815Y-2859491D01*
X47548286Y-2787016D01*
X47548281Y-2787014D01*
X47408277Y-2749500D01*
X47408275Y-2749500D01*
X46190325Y-2749500D01*
X46190323Y-2749500D01*
X46050318Y-2787014D01*
X46050313Y-2787016D01*
X45924784Y-2859491D01*
X45822291Y-2961984D01*
X45749816Y-3087513D01*
X45749814Y-3087518D01*
X45712300Y-3227522D01*
X45712300Y-3372477D01*
X45749814Y-3512481D01*
X45749816Y-3512486D01*
X45822291Y-3638015D01*
X45924785Y-3740509D01*
X46050315Y-3812984D01*
X46050316Y-3812984D01*
X46050318Y-3812985D01*
X46094289Y-3824767D01*
X46190322Y-3850499D01*
X46190323Y-3850500D01*
X46190325Y-3850500D01*
X47408277Y-3850500D01*
X47408277Y-3850499D01*
X47548285Y-3812984D01*
X47673815Y-3740509D01*
X47717150Y-3697174D01*
X47769476Y-3675500D01*
X48265436Y-3675500D01*
X48313186Y-3662705D01*
X48360938Y-3649910D01*
X48444416Y-3601714D01*
X48481416Y-3591800D01*
X48490594Y-3591800D01*
X48490594Y-3591799D01*
X48617886Y-3557692D01*
X48732014Y-3491800D01*
X48749099Y-3474714D01*
X48787253Y-3454408D01*
X48809447Y-3450077D01*
X48814822Y-3447449D01*
X48828160Y-3442457D01*
X48833938Y-3440910D01*
X48863326Y-3423941D01*
X48867789Y-3421566D01*
X49203659Y-3257438D01*
X49212385Y-3254373D01*
X49212284Y-3254099D01*
X49216829Y-3252425D01*
X49216836Y-3252424D01*
X49254812Y-3232477D01*
X49256694Y-3231522D01*
X49295278Y-3212669D01*
X49295279Y-3212667D01*
X49299316Y-3209992D01*
X49299477Y-3210236D01*
X49300576Y-3209484D01*
X49300407Y-3209244D01*
X49304360Y-3206453D01*
X49304369Y-3206449D01*
X49335889Y-3177351D01*
X49337445Y-3175956D01*
X49369848Y-3147747D01*
X49369850Y-3147743D01*
X49369852Y-3147742D01*
X49373062Y-3144109D01*
X49373280Y-3144302D01*
X49379298Y-3137281D01*
X50603910Y-2006871D01*
X50613791Y-1999599D01*
X50616556Y-1997478D01*
X50616562Y-1997475D01*
X50645191Y-1968844D01*
X50647272Y-1966845D01*
X50677019Y-1939388D01*
X50677025Y-1939378D01*
X50679307Y-1936639D01*
X50684309Y-1930384D01*
X50686477Y-1927559D01*
X50706702Y-1892526D01*
X50708235Y-1889989D01*
X50729837Y-1855808D01*
X50731318Y-1852601D01*
X50734553Y-1845211D01*
X50735904Y-1841948D01*
X50735910Y-1841938D01*
X50746389Y-1802826D01*
X50747181Y-1800086D01*
X50759224Y-1761404D01*
X50759224Y-1761399D01*
X50759827Y-1757901D01*
X50761037Y-1749945D01*
X50761498Y-1746438D01*
X50761500Y-1746435D01*
X50761500Y-1705991D01*
X50761559Y-1703033D01*
X50763176Y-1662610D01*
X50762863Y-1659181D01*
X50761500Y-1646939D01*
X50761500Y-244562D01*
X50762226Y-234220D01*
X50764724Y-216521D01*
X50762046Y-194605D01*
X50761500Y-185630D01*
X50761500Y-163563D01*
X50757275Y-147800D01*
X50756874Y-146303D01*
X50754898Y-136121D01*
X50753366Y-123584D01*
X50752731Y-118381D01*
X50744471Y-97905D01*
X50741624Y-89385D01*
X50735911Y-68065D01*
X50735907Y-68056D01*
X50726974Y-52585D01*
X50722431Y-43267D01*
X50715745Y-26688D01*
X50702459Y-9036D01*
X50697508Y-1549D01*
X50697273Y-1142D01*
X50686475Y17562D01*
X50673827Y30208D01*
X50667042Y38018D01*
X50656289Y52307D01*
X50638892Y65914D01*
X50632176Y71859D01*
X50616562Y87475D01*
X50601074Y96416D01*
X50592492Y102208D01*
X50578411Y113224D01*
X50558086Y121864D01*
X50550062Y125868D01*
X50530938Y136910D01*
X50513668Y141536D01*
X50503889Y144905D01*
X50420042Y180553D01*
X50380370Y220972D01*
X50375771Y237984D01*
X50370645Y273170D01*
X50319636Y377511D01*
X50237511Y459636D01*
X50133170Y510645D01*
X50065528Y520500D01*
X49704472Y520500D01*
X49636830Y510645D01*
X49636828Y510644D01*
X49532489Y459636D01*
X49452326Y379473D01*
X49400000Y357799D01*
X49347674Y379473D01*
X49322159Y404988D01*
X49267511Y459636D01*
X49163170Y510645D01*
X49095528Y520500D01*
X48734472Y520500D01*
X48666830Y510645D01*
X48666828Y510644D01*
X48562489Y459636D01*
X48480363Y377510D01*
X48450782Y317000D01*
X48408329Y279510D01*
X48384301Y275500D01*
X47855126Y275500D01*
X47802800Y297174D01*
X47791040Y312500D01*
X47788442Y317000D01*
X47776309Y338015D01*
X47673815Y440509D01*
X47595170Y485914D01*
X47560692Y530847D01*
X47568085Y587000D01*
X47595171Y614086D01*
X47618059Y627300D01*
X47673815Y659491D01*
X47776309Y761985D01*
X47848784Y887515D01*
X47852661Y901982D01*
X47886299Y1027522D01*
X47886300Y1027523D01*
X47886300Y1172477D01*
X47848785Y1312481D01*
X47848784Y1312485D01*
X47776309Y1438015D01*
X47673815Y1540509D01*
X47595170Y1585914D01*
X47560692Y1630847D01*
X47568085Y1687000D01*
X47595171Y1714086D01*
X47604130Y1719258D01*
X47673815Y1759491D01*
X47776309Y1861985D01*
X47846700Y1983906D01*
X47848783Y1987513D01*
X47848785Y1987518D01*
X47886299Y2127522D01*
X47886300Y2127523D01*
X47886300Y2272477D01*
X47848785Y2412481D01*
X47848784Y2412485D01*
X47776309Y2538015D01*
X47673815Y2640509D01*
X47595170Y2685914D01*
X47560692Y2730847D01*
X47568085Y2787000D01*
X47595171Y2814086D01*
X47615629Y2825897D01*
X47673815Y2859491D01*
X47776309Y2961985D01*
X47848784Y3087515D01*
X47853583Y3105423D01*
X47881462Y3209469D01*
X47886299Y3227522D01*
X47886300Y3227523D01*
X47886300Y3372477D01*
X47848785Y3512481D01*
X47848784Y3512485D01*
X47776309Y3638015D01*
X47673815Y3740509D01*
X47595170Y3785914D01*
X47560692Y3830847D01*
X47568085Y3887000D01*
X47595171Y3914086D01*
X47622753Y3930010D01*
X47673815Y3959491D01*
X47776309Y4061985D01*
X47848784Y4187515D01*
X47886299Y4327522D01*
X47886300Y4327523D01*
X47886300Y4472477D01*
X47848785Y4612481D01*
X47848784Y4612485D01*
X47776309Y4738015D01*
X47673815Y4840509D01*
X47548285Y4912984D01*
X47491906Y4928091D01*
X47408277Y4950500D01*
X47408275Y4950500D01*
X46190325Y4950500D01*
X46190323Y4950500D01*
X46050318Y4912985D01*
X46050316Y4912984D01*
X46050315Y4912984D01*
X45924785Y4840509D01*
X45924784Y4840508D01*
X45822291Y4738015D01*
X45749816Y4612486D01*
X45749814Y4612481D01*
X45712300Y4472477D01*
X35301700Y4472477D01*
X35301700Y5667899D01*
X35297162Y5678854D01*
X35259757Y5769158D01*
X35259757Y5769159D01*
X34518721Y6510194D01*
X35603800Y6510194D01*
X35603800Y6378405D01*
X35637906Y6251118D01*
X35637910Y6251109D01*
X35703800Y6136985D01*
X35796985Y6043800D01*
X35911109Y5977910D01*
X35911118Y5977906D01*
X36038405Y5943800D01*
X36038408Y5943800D01*
X36170194Y5943800D01*
X36297481Y5977906D01*
X36297484Y5977907D01*
X36297486Y5977908D01*
X36297487Y5977908D01*
X36297490Y5977910D01*
X36366177Y6017567D01*
X39549500Y6017567D01*
X39549500Y5889432D01*
X39574497Y5763760D01*
X39574498Y5763757D01*
X39623533Y5645376D01*
X39694723Y5538831D01*
X39694725Y5538830D01*
X39785330Y5448225D01*
X39785331Y5448223D01*
X39891876Y5377033D01*
X40010257Y5327998D01*
X40010260Y5327997D01*
X40104726Y5309207D01*
X40135931Y5303000D01*
X40135933Y5303000D01*
X40264067Y5303000D01*
X40264069Y5303000D01*
X40299696Y5310086D01*
X40389739Y5327997D01*
X40389742Y5327998D01*
X40508123Y5377033D01*
X40508124Y5377033D01*
X40508127Y5377035D01*
X40614669Y5448224D01*
X40705276Y5538831D01*
X40776465Y5645373D01*
X40825501Y5763756D01*
X40850500Y5889431D01*
X40850500Y6017567D01*
X42549500Y6017567D01*
X42549500Y5889432D01*
X42574497Y5763760D01*
X42574498Y5763757D01*
X42623533Y5645376D01*
X42694723Y5538831D01*
X42694725Y5538830D01*
X42785330Y5448225D01*
X42785331Y5448223D01*
X42891876Y5377033D01*
X43010257Y5327998D01*
X43010260Y5327997D01*
X43104726Y5309207D01*
X43135931Y5303000D01*
X43135933Y5303000D01*
X43264067Y5303000D01*
X43264069Y5303000D01*
X43299696Y5310086D01*
X43389739Y5327997D01*
X43389742Y5327998D01*
X43508123Y5377033D01*
X43508124Y5377033D01*
X43508127Y5377035D01*
X43614669Y5448224D01*
X43705276Y5538831D01*
X43776465Y5645373D01*
X43825501Y5763756D01*
X43850500Y5889431D01*
X43850500Y6017569D01*
X43825501Y6143244D01*
X43776465Y6261627D01*
X43705276Y6368169D01*
X43614669Y6458776D01*
X43508127Y6529965D01*
X43389744Y6579001D01*
X43264069Y6604000D01*
X43135931Y6604000D01*
X43052903Y6587484D01*
X43010260Y6579002D01*
X43010258Y6579001D01*
X43010256Y6579001D01*
X42891873Y6529965D01*
X42832660Y6490400D01*
X42785331Y6458776D01*
X42694723Y6368168D01*
X42677733Y6342740D01*
X42623535Y6261627D01*
X42623533Y6261624D01*
X42623533Y6261623D01*
X42574498Y6143242D01*
X42574497Y6143239D01*
X42549500Y6017567D01*
X40850500Y6017567D01*
X40850500Y6017569D01*
X40825501Y6143244D01*
X40776465Y6261627D01*
X40705276Y6368169D01*
X40614669Y6458776D01*
X40508127Y6529965D01*
X40389744Y6579001D01*
X40264069Y6604000D01*
X40135931Y6604000D01*
X40052903Y6587484D01*
X40010260Y6579002D01*
X40010258Y6579001D01*
X40010256Y6579001D01*
X39891873Y6529965D01*
X39832660Y6490400D01*
X39785331Y6458776D01*
X39694723Y6368168D01*
X39677733Y6342740D01*
X39623535Y6261627D01*
X39623533Y6261624D01*
X39623533Y6261623D01*
X39574498Y6143242D01*
X39574497Y6143239D01*
X39549500Y6017567D01*
X36366177Y6017567D01*
X36411614Y6043800D01*
X36504799Y6136985D01*
X36509744Y6145549D01*
X36570692Y6251114D01*
X36604799Y6378405D01*
X36604800Y6378406D01*
X36604800Y6510194D01*
X36570693Y6637481D01*
X36570692Y6637486D01*
X36504800Y6751614D01*
X36411614Y6844800D01*
X36297486Y6910692D01*
X36248095Y6923926D01*
X36170194Y6944800D01*
X36170192Y6944800D01*
X36038408Y6944800D01*
X36038406Y6944800D01*
X35926154Y6914722D01*
X35911114Y6910692D01*
X35796986Y6844800D01*
X35796985Y6844799D01*
X35703800Y6751614D01*
X35637910Y6637490D01*
X35637906Y6637481D01*
X35603800Y6510194D01*
X34518721Y6510194D01*
X34166673Y6862241D01*
X34145000Y6914567D01*
X34145000Y7496414D01*
X34144999Y7496423D01*
X34144949Y7496975D01*
X34138586Y7566996D01*
X34087978Y7729406D01*
X33999972Y7874985D01*
X33879685Y7995272D01*
X33734106Y8083278D01*
X33571696Y8133886D01*
X33501116Y8140300D01*
X31637884Y8140300D01*
X31567304Y8133886D01*
X31404894Y8083278D01*
X31259315Y7995272D01*
X31139028Y7874985D01*
X31051022Y7729406D01*
X31000414Y7566996D01*
X31000413Y7566993D01*
X31000413Y7566991D01*
X31000413Y7566990D01*
X30994000Y7496423D01*
X30994000Y6383176D01*
X31000413Y6312609D01*
X31000413Y6312608D01*
X31000413Y6312605D01*
X31000414Y6312604D01*
X31049086Y6156406D01*
X31051023Y6150192D01*
X31139028Y6004614D01*
X31259314Y5884328D01*
X31404892Y5796323D01*
X31404894Y5796322D01*
X31567304Y5745714D01*
X31567305Y5745713D01*
X31567308Y5745713D01*
X31637876Y5739300D01*
X31637884Y5739300D01*
X33501123Y5739300D01*
X33571690Y5745713D01*
X33571691Y5745713D01*
X33571693Y5745713D01*
X33571696Y5745714D01*
X33734106Y5796322D01*
X33879685Y5884328D01*
X33999972Y6004615D01*
X34043450Y6076537D01*
X34089067Y6110103D01*
X34145060Y6101581D01*
X34159103Y6090579D01*
X34286174Y5963508D01*
X34307848Y5911182D01*
X34286174Y5858856D01*
X34260203Y5843866D01*
X34260792Y5842446D01*
X34256320Y5840593D01*
X34256314Y5840592D01*
X34142186Y5774700D01*
X34142185Y5774699D01*
X34049000Y5681514D01*
X33983110Y5567390D01*
X33983106Y5567381D01*
X33949000Y5440094D01*
X33949000Y5308305D01*
X33983106Y5181018D01*
X33983110Y5181009D01*
X34049000Y5066885D01*
X34142185Y4973700D01*
X34256309Y4907810D01*
X34256318Y4907806D01*
X34383605Y4873700D01*
X34383608Y4873700D01*
X34515394Y4873700D01*
X34642681Y4907806D01*
X34647171Y4909666D01*
X34648187Y4907211D01*
X34695893Y4913465D01*
X34740807Y4878961D01*
X34750700Y4841997D01*
X34750700Y4153900D01*
X34768429Y4111100D01*
X34792642Y4052642D01*
X35102126Y3743158D01*
X35123800Y3690832D01*
X35123800Y3290604D01*
X35102126Y3238278D01*
X35094844Y3231893D01*
X35091987Y3229701D01*
X34998800Y3136514D01*
X34932910Y3022390D01*
X34932906Y3022381D01*
X34898800Y2895094D01*
X34898800Y2763305D01*
X34932906Y2636018D01*
X34932910Y2636009D01*
X34998800Y2521885D01*
X35091985Y2428700D01*
X35206109Y2362810D01*
X35206118Y2362806D01*
X35333405Y2328700D01*
X35333408Y2328700D01*
X35465194Y2328700D01*
X35592481Y2362806D01*
X35592493Y2362811D01*
X35657165Y2400149D01*
X35713317Y2407541D01*
X35758250Y2373062D01*
X35765642Y2316910D01*
X35762533Y2307751D01*
X35740600Y2254800D01*
X35740600Y2254799D01*
X35740600Y1944767D01*
X35718926Y1892441D01*
X35206254Y1379770D01*
X35153928Y1358096D01*
X35144269Y1358729D01*
X35140692Y1359199D01*
X35140692Y1359200D01*
X35008908Y1359200D01*
X35008906Y1359200D01*
X34919017Y1335114D01*
X34881614Y1325092D01*
X34767486Y1259200D01*
X34767485Y1259199D01*
X34674300Y1166014D01*
X34608410Y1051890D01*
X34608406Y1051881D01*
X34574300Y924594D01*
X34574300Y792805D01*
X34608406Y665518D01*
X34608410Y665509D01*
X34674300Y551385D01*
X34767485Y458200D01*
X34881609Y392310D01*
X34881618Y392306D01*
X35008905Y358200D01*
X35008908Y358200D01*
X35140694Y358200D01*
X35267981Y392306D01*
X35267984Y392307D01*
X35267986Y392308D01*
X35267987Y392308D01*
X35267990Y392310D01*
X35382114Y458200D01*
X35475299Y551385D01*
X35495862Y587000D01*
X35541192Y665514D01*
X35575299Y792805D01*
X35575300Y792806D01*
X35575300Y924591D01*
X35574829Y928169D01*
X35589488Y982877D01*
X35595870Y990154D01*
X36021431Y1415715D01*
X36073757Y1437389D01*
X36126083Y1415715D01*
X36147757Y1363389D01*
X36137843Y1326390D01*
X36129818Y1312490D01*
X36129814Y1312481D01*
X36092300Y1172477D01*
X36092300Y1027522D01*
X36129814Y887518D01*
X36129816Y887513D01*
X36202291Y761984D01*
X36304784Y659491D01*
X36383428Y614086D01*
X36417907Y569152D01*
X36410514Y513000D01*
X36383428Y485914D01*
X36350494Y466899D01*
X36304785Y440509D01*
X36304784Y440508D01*
X36202291Y338015D01*
X36129816Y212486D01*
X36129814Y212481D01*
X36092300Y72477D01*
X36092300Y-72477D01*
X36129814Y-212481D01*
X36129816Y-212486D01*
X36186469Y-310610D01*
X36202291Y-338015D01*
X36304785Y-440509D01*
X36337914Y-459636D01*
X36383428Y-485914D01*
X36417907Y-530848D01*
X36410514Y-587000D01*
X36383428Y-614086D01*
X36304784Y-659491D01*
X36202291Y-761984D01*
X36187560Y-787500D01*
X36142627Y-821979D01*
X36123474Y-824500D01*
X35674068Y-824500D01*
X35621742Y-802826D01*
X34815394Y3522D01*
X33999461Y819453D01*
X33977788Y871779D01*
X33997968Y920498D01*
X33997212Y921091D01*
X33999337Y923803D01*
X33999462Y924105D01*
X33999971Y924614D01*
X33999972Y924615D01*
X34087978Y1070194D01*
X34138586Y1232604D01*
X34145000Y1303184D01*
X34145000Y2416416D01*
X34138586Y2486996D01*
X34087978Y2649406D01*
X33999972Y2794985D01*
X33879685Y2915272D01*
X33734106Y3003278D01*
X33571696Y3053886D01*
X33501116Y3060300D01*
X31637884Y3060300D01*
X31567304Y3053886D01*
X31404894Y3003278D01*
X31259315Y2915272D01*
X31139028Y2794985D01*
X31051022Y2649406D01*
X31000414Y2486996D01*
X31000413Y2486993D01*
X31000413Y2486991D01*
X31000413Y2486990D01*
X30994000Y2416423D01*
X30994000Y2369967D01*
X30972326Y2317641D01*
X30920000Y2295967D01*
X30867696Y2317619D01*
X30867674Y2317641D01*
X30866490Y2318824D01*
X30844795Y2371140D01*
X30845429Y2380837D01*
X30845900Y2384411D01*
X30845900Y2516194D01*
X30823417Y2600100D01*
X30811792Y2643486D01*
X30745900Y2757614D01*
X30652714Y2850800D01*
X30538586Y2916692D01*
X30466154Y2936100D01*
X30411294Y2950800D01*
X30411292Y2950800D01*
X30279508Y2950800D01*
X30279506Y2950800D01*
X30167254Y2920722D01*
X30152214Y2916692D01*
X30038086Y2850800D01*
X30038085Y2850799D01*
X29944900Y2757614D01*
X29879010Y2643490D01*
X29879006Y2643481D01*
X29844900Y2516194D01*
X29844900Y2384405D01*
X29879006Y2257118D01*
X29879010Y2257109D01*
X29944900Y2142985D01*
X30038085Y2049800D01*
X30152209Y1983910D01*
X30152218Y1983906D01*
X30279505Y1949800D01*
X30279508Y1949800D01*
X30411295Y1949800D01*
X30414876Y1950271D01*
X30469582Y1935606D01*
X30476852Y1929230D01*
X30517091Y1888992D01*
X30538766Y1836666D01*
X30517093Y1784340D01*
X30464767Y1762665D01*
X30463398Y1762800D01*
X30456800Y1762800D01*
X26169249Y1762800D01*
X26116923Y1784474D01*
X26095249Y1836800D01*
X26116923Y1889126D01*
X26140930Y1905167D01*
X26162533Y1914115D01*
X26227098Y1940859D01*
X26399155Y2055823D01*
X26545477Y2202145D01*
X26660441Y2374202D01*
X26739630Y2565380D01*
X26780000Y2768335D01*
X26780000Y2975265D01*
X26739630Y3178220D01*
X26660441Y3369398D01*
X26545477Y3541455D01*
X26399155Y3687777D01*
X26227098Y3802741D01*
X26035920Y3881930D01*
X25832965Y3922300D01*
X25626035Y3922300D01*
X25423080Y3881930D01*
X25231902Y3802741D01*
X25097193Y3712732D01*
X25059845Y3687777D01*
X24913522Y3541454D01*
X24798559Y3369398D01*
X24719370Y3178220D01*
X24719368Y3178213D01*
X24679000Y2975264D01*
X24679000Y2768335D01*
X24719368Y2565386D01*
X24719370Y2565379D01*
X24798559Y2374201D01*
X24913522Y2202145D01*
X24913524Y2202144D01*
X25059844Y2055824D01*
X25059845Y2055822D01*
X25231901Y1940859D01*
X25318070Y1905167D01*
X25358118Y1865118D01*
X25358118Y1808481D01*
X25318069Y1768433D01*
X25289751Y1762800D01*
X23629249Y1762800D01*
X23576923Y1784474D01*
X23555249Y1836800D01*
X23576923Y1889126D01*
X23600930Y1905167D01*
X23622533Y1914115D01*
X23687098Y1940859D01*
X23859155Y2055823D01*
X24005477Y2202145D01*
X24120441Y2374202D01*
X24199630Y2565380D01*
X24240000Y2768335D01*
X24240000Y2975265D01*
X24199630Y3178220D01*
X24120441Y3369398D01*
X24005477Y3541455D01*
X23859155Y3687777D01*
X23687098Y3802741D01*
X23495920Y3881930D01*
X23292965Y3922300D01*
X23086035Y3922300D01*
X22883080Y3881930D01*
X22691902Y3802741D01*
X22557193Y3712732D01*
X22519845Y3687777D01*
X22373522Y3541454D01*
X22294159Y3422678D01*
X22258559Y3369398D01*
X22199323Y3226389D01*
X22192314Y3209469D01*
X22152265Y3169421D01*
X22095628Y3169421D01*
X22086950Y3173700D01*
X21995686Y3226392D01*
X21932177Y3243409D01*
X21868394Y3260500D01*
X21868392Y3260500D01*
X21736608Y3260500D01*
X21736604Y3260500D01*
X21733025Y3260029D01*
X21678319Y3274689D01*
X21671051Y3281062D01*
X19436850Y5515264D01*
X22139000Y5515264D01*
X22139000Y5308335D01*
X22179368Y5105386D01*
X22179370Y5105379D01*
X22258559Y4914201D01*
X22373522Y4742145D01*
X22373524Y4742144D01*
X22519844Y4595824D01*
X22519845Y4595822D01*
X22691901Y4480859D01*
X22883079Y4401670D01*
X22883086Y4401668D01*
X23045885Y4369286D01*
X23086035Y4361300D01*
X23086036Y4361300D01*
X23292964Y4361300D01*
X23292965Y4361300D01*
X23343016Y4371255D01*
X23495913Y4401668D01*
X23495920Y4401670D01*
X23687098Y4480859D01*
X23859154Y4595822D01*
X24005477Y4742145D01*
X24120441Y4914202D01*
X24199630Y5105380D01*
X24240000Y5308335D01*
X24240000Y5515265D01*
X24199630Y5718220D01*
X24120441Y5909398D01*
X24056820Y6004614D01*
X24046854Y6019530D01*
X24022623Y6055794D01*
X28748600Y6055794D01*
X28748600Y5924005D01*
X28782706Y5796718D01*
X28782710Y5796709D01*
X28848600Y5682585D01*
X28941785Y5589400D01*
X29055909Y5523510D01*
X29055918Y5523506D01*
X29183205Y5489400D01*
X29183208Y5489400D01*
X29314994Y5489400D01*
X29442281Y5523506D01*
X29442284Y5523507D01*
X29442286Y5523508D01*
X29442287Y5523508D01*
X29442290Y5523510D01*
X29556414Y5589400D01*
X29649599Y5682585D01*
X29660323Y5701158D01*
X29715492Y5796714D01*
X29749599Y5924005D01*
X29749600Y5924006D01*
X29749600Y6055794D01*
X29726168Y6143242D01*
X29715492Y6183086D01*
X29649600Y6297214D01*
X29556414Y6390400D01*
X29442286Y6456292D01*
X29392895Y6469526D01*
X29314994Y6490400D01*
X29314992Y6490400D01*
X29183208Y6490400D01*
X29183206Y6490400D01*
X29079889Y6462716D01*
X29055914Y6456292D01*
X28941786Y6390400D01*
X28941785Y6390399D01*
X28848600Y6297214D01*
X28782710Y6183090D01*
X28782706Y6183081D01*
X28748600Y6055794D01*
X24022623Y6055794D01*
X24005477Y6081455D01*
X23859155Y6227777D01*
X23687098Y6342741D01*
X23495920Y6421930D01*
X23292965Y6462300D01*
X23086035Y6462300D01*
X22883080Y6421930D01*
X22691902Y6342741D01*
X22554778Y6251118D01*
X22519845Y6227777D01*
X22373522Y6081454D01*
X22258559Y5909398D01*
X22179370Y5718220D01*
X22179368Y5718213D01*
X22139000Y5515264D01*
X19436850Y5515264D01*
X18001673Y6950441D01*
X17980000Y7002766D01*
X17980000Y7496414D01*
X17979999Y7496423D01*
X17979949Y7496975D01*
X17973586Y7566996D01*
X17922978Y7729406D01*
X17834972Y7874985D01*
X17714685Y7995272D01*
X17714366Y7995464D01*
X17714186Y7995574D01*
X17685594Y8012858D01*
X17615446Y8055264D01*
X22139000Y8055264D01*
X22139000Y7848335D01*
X22179368Y7645386D01*
X22179370Y7645379D01*
X22258559Y7454201D01*
X22373522Y7282145D01*
X22373524Y7282144D01*
X22519844Y7135824D01*
X22519845Y7135822D01*
X22691901Y7020859D01*
X22883079Y6941670D01*
X22883086Y6941668D01*
X23038813Y6910693D01*
X23086035Y6901300D01*
X23086036Y6901300D01*
X23292964Y6901300D01*
X23292965Y6901300D01*
X23359663Y6914567D01*
X23495913Y6941668D01*
X23495920Y6941670D01*
X23687098Y7020859D01*
X23859154Y7135822D01*
X24005477Y7282145D01*
X24120440Y7454201D01*
X24120441Y7454202D01*
X24199630Y7645380D01*
X24240000Y7848335D01*
X24240000Y8055264D01*
X24679000Y8055264D01*
X24679000Y7848335D01*
X24719368Y7645386D01*
X24719370Y7645379D01*
X24798559Y7454201D01*
X24913522Y7282145D01*
X24913524Y7282144D01*
X25059844Y7135824D01*
X25059845Y7135822D01*
X25231901Y7020859D01*
X25423079Y6941670D01*
X25423086Y6941668D01*
X25578813Y6910693D01*
X25626035Y6901300D01*
X25626036Y6901300D01*
X25832964Y6901300D01*
X25832965Y6901300D01*
X25899663Y6914567D01*
X26035913Y6941668D01*
X26035920Y6941670D01*
X26227098Y7020859D01*
X26399154Y7135822D01*
X26545477Y7282145D01*
X26660440Y7454201D01*
X26660441Y7454202D01*
X26739630Y7645380D01*
X26780000Y7848335D01*
X26780000Y8055265D01*
X26739630Y8258220D01*
X26660441Y8449398D01*
X26545477Y8621455D01*
X26399155Y8767777D01*
X26227098Y8882741D01*
X26035920Y8961930D01*
X25832965Y9002300D01*
X25626035Y9002300D01*
X25423080Y8961930D01*
X25231902Y8882741D01*
X25231901Y8882740D01*
X25059845Y8767777D01*
X24913522Y8621454D01*
X24798559Y8449398D01*
X24719370Y8258220D01*
X24719368Y8258213D01*
X24679000Y8055264D01*
X24240000Y8055264D01*
X24240000Y8055265D01*
X24199630Y8258220D01*
X24120441Y8449398D01*
X24005477Y8621455D01*
X23859155Y8767777D01*
X23687098Y8882741D01*
X23495920Y8961930D01*
X23292965Y9002300D01*
X23086035Y9002300D01*
X22883080Y8961930D01*
X22691902Y8882741D01*
X22691901Y8882740D01*
X22519845Y8767777D01*
X22373522Y8621454D01*
X22258559Y8449398D01*
X22179370Y8258220D01*
X22179368Y8258213D01*
X22139000Y8055264D01*
X17615446Y8055264D01*
X17569106Y8083278D01*
X17406696Y8133886D01*
X17336116Y8140300D01*
X15472884Y8140300D01*
X15402304Y8133886D01*
X15239894Y8083278D01*
X15094315Y7995272D01*
X15094314Y7995271D01*
X14974028Y7874985D01*
X14886022Y7729407D01*
X14886020Y7729401D01*
X14862508Y7653947D01*
X14826249Y7610438D01*
X14769844Y7605313D01*
X14726335Y7641572D01*
X14717866Y7674926D01*
X14651183Y12438916D01*
X14672123Y12491539D01*
X14724140Y12513944D01*
X14734024Y12513420D01*
G37*
%TD.AperFunction*%
%TA.AperFunction,Conductor*%
G36*
X31006517Y-4980274D02*
G01*
X31028191Y-5032600D01*
X31024841Y-5054611D01*
X31005744Y-5115900D01*
X31000413Y-5133008D01*
X31000413Y-5133009D01*
X30994000Y-5203576D01*
X30994000Y-5410700D01*
X30972326Y-5463026D01*
X30920000Y-5484700D01*
X28608100Y-5484700D01*
X28536498Y-5514358D01*
X28506845Y-5526640D01*
X28506842Y-5526642D01*
X27839159Y-6194326D01*
X27786833Y-6216000D01*
X24480068Y-6216000D01*
X24427742Y-6194326D01*
X24353870Y-6120454D01*
X24332196Y-6068128D01*
X24332829Y-6058469D01*
X24333300Y-6054891D01*
X24333300Y-5923106D01*
X24333299Y-5923105D01*
X24331464Y-5916258D01*
X24299192Y-5795814D01*
X24233300Y-5681686D01*
X24175240Y-5623626D01*
X24153566Y-5571300D01*
X24175240Y-5518974D01*
X24227566Y-5497300D01*
X27002698Y-5497300D01*
X27002700Y-5497300D01*
X27103958Y-5455357D01*
X27181457Y-5377858D01*
X27525674Y-5033639D01*
X27578000Y-5011966D01*
X27630326Y-5033640D01*
X27680286Y-5083600D01*
X27794414Y-5149492D01*
X27921705Y-5183599D01*
X27921706Y-5183600D01*
X27921708Y-5183600D01*
X28053494Y-5183600D01*
X28053494Y-5183599D01*
X28180786Y-5149492D01*
X28294914Y-5083600D01*
X28388100Y-4990414D01*
X28388103Y-4990409D01*
X28390302Y-4987545D01*
X28439355Y-4959232D01*
X28449005Y-4958600D01*
X30954191Y-4958600D01*
X31006517Y-4980274D01*
G37*
%TD.AperFunction*%
%TA.AperFunction,Conductor*%
G36*
X20397057Y-1070373D02*
G01*
X20423141Y-1096457D01*
X20440418Y-1103613D01*
X20440419Y-1103614D01*
X20440420Y-1103614D01*
X20524400Y-1138400D01*
X24127634Y-1138400D01*
X24179960Y-1160074D01*
X24197386Y-1177500D01*
X24311514Y-1243392D01*
X24328327Y-1247897D01*
X24373260Y-1282375D01*
X24380653Y-1338527D01*
X24355536Y-1377051D01*
X24242343Y-1468038D01*
X24129846Y-1607991D01*
X24059189Y-1750458D01*
X24050067Y-1768851D01*
X24007095Y-1941650D01*
X24006733Y-1943106D01*
X24004000Y-1983411D01*
X24004000Y-3376988D01*
X24006733Y-3417293D01*
X24006733Y-3417295D01*
X24006734Y-3417300D01*
X24050067Y-3591549D01*
X24129847Y-3752410D01*
X24242341Y-3892359D01*
X24382290Y-4004853D01*
X24543151Y-4084633D01*
X24717400Y-4127966D01*
X24739390Y-4129457D01*
X24757711Y-4130700D01*
X24757716Y-4130700D01*
X26401289Y-4130700D01*
X26418082Y-4129560D01*
X26441600Y-4127966D01*
X26615849Y-4084633D01*
X26776710Y-4004853D01*
X26916659Y-3892359D01*
X26949123Y-3851972D01*
X26998799Y-3824767D01*
X27053161Y-3840656D01*
X27080366Y-3890332D01*
X27080800Y-3898333D01*
X27080800Y-4668633D01*
X27059126Y-4720959D01*
X26855459Y-4924626D01*
X26803133Y-4946300D01*
X21556500Y-4946300D01*
X21455244Y-4988240D01*
X21455241Y-4988242D01*
X20980459Y-5463026D01*
X20928133Y-5484700D01*
X18974710Y-5484700D01*
X18922384Y-5463026D01*
X18900710Y-5410700D01*
X18922384Y-5358374D01*
X18955557Y-5339222D01*
X19036485Y-5317536D01*
X19076586Y-5306792D01*
X19190714Y-5240900D01*
X19283900Y-5147714D01*
X19349792Y-5033586D01*
X19383899Y-4906294D01*
X19383900Y-4906294D01*
X19383900Y-4774506D01*
X19383899Y-4774505D01*
X19371956Y-4729934D01*
X19349792Y-4647214D01*
X19283900Y-4533086D01*
X19190714Y-4439900D01*
X19150191Y-4416504D01*
X19076590Y-4374010D01*
X19076581Y-4374006D01*
X18949294Y-4339900D01*
X18949292Y-4339900D01*
X18817508Y-4339900D01*
X18817506Y-4339900D01*
X18690218Y-4374006D01*
X18690209Y-4374010D01*
X18576085Y-4439900D01*
X18482896Y-4533090D01*
X18480698Y-4535955D01*
X18431645Y-4564268D01*
X18421995Y-4564900D01*
X18169468Y-4564900D01*
X18117142Y-4543226D01*
X17834462Y-4260546D01*
X17812788Y-4208220D01*
X17832967Y-4159501D01*
X17832212Y-4158909D01*
X17834336Y-4156197D01*
X17834461Y-4155895D01*
X17834972Y-4155385D01*
X17922978Y-4009806D01*
X17973586Y-3847396D01*
X17980000Y-3776816D01*
X17980000Y-2663584D01*
X17973586Y-2593004D01*
X17922978Y-2430594D01*
X17834972Y-2285015D01*
X17714685Y-2164728D01*
X17569280Y-2076827D01*
X17535714Y-2031209D01*
X17544236Y-1975217D01*
X17589855Y-1941650D01*
X17607564Y-1939500D01*
X17906395Y-1939500D01*
X17958721Y-1961174D01*
X17965098Y-1968445D01*
X17967296Y-1971309D01*
X17967298Y-1971311D01*
X17967300Y-1971314D01*
X18060486Y-2064500D01*
X18174614Y-2130392D01*
X18301905Y-2164499D01*
X18301906Y-2164500D01*
X18301908Y-2164500D01*
X18433694Y-2164500D01*
X18433694Y-2164499D01*
X18560986Y-2130392D01*
X18675114Y-2064500D01*
X18768300Y-1971314D01*
X18834192Y-1857186D01*
X18861051Y-1756942D01*
X18895529Y-1712011D01*
X18951681Y-1704618D01*
X18984855Y-1723771D01*
X19116890Y-1855806D01*
X19363141Y-2102057D01*
X19384281Y-2110813D01*
X19384282Y-2110814D01*
X19384283Y-2110814D01*
X19464400Y-2144000D01*
X20999233Y-2144000D01*
X21051558Y-2165673D01*
X21153730Y-2267846D01*
X21175404Y-2320171D01*
X21174771Y-2329828D01*
X21174300Y-2333406D01*
X21174300Y-2465194D01*
X21208406Y-2592481D01*
X21208410Y-2592490D01*
X21249458Y-2663586D01*
X21274300Y-2706614D01*
X21367486Y-2799800D01*
X21481614Y-2865692D01*
X21608905Y-2899799D01*
X21608906Y-2899800D01*
X21608908Y-2899800D01*
X21740694Y-2899800D01*
X21740694Y-2899799D01*
X21867986Y-2865692D01*
X21982114Y-2799800D01*
X22075300Y-2706614D01*
X22141192Y-2592486D01*
X22175299Y-2465194D01*
X22175300Y-2465194D01*
X22175300Y-2333406D01*
X22175299Y-2333405D01*
X22165801Y-2297959D01*
X22141192Y-2206114D01*
X22075300Y-2091986D01*
X21982114Y-1998800D01*
X21979817Y-1997474D01*
X21867990Y-1932910D01*
X21867981Y-1932906D01*
X21740694Y-1898800D01*
X21740692Y-1898800D01*
X21608908Y-1898800D01*
X21608906Y-1898800D01*
X21605328Y-1899271D01*
X21550621Y-1884611D01*
X21543352Y-1878236D01*
X21300058Y-1634943D01*
X21300055Y-1634941D01*
X21300054Y-1634941D01*
X21298948Y-1634483D01*
X21298948Y-1634482D01*
X21221493Y-1602400D01*
X21198800Y-1593000D01*
X21198799Y-1593000D01*
X19663968Y-1593000D01*
X19611642Y-1571326D01*
X19215341Y-1175025D01*
X19193667Y-1122699D01*
X19215341Y-1070373D01*
X19267667Y-1048699D01*
X20344731Y-1048699D01*
X20397057Y-1070373D01*
G37*
%TD.AperFunction*%
%TA.AperFunction,Conductor*%
G36*
X30309559Y1190126D02*
G01*
X31139538Y360147D01*
X31161212Y307821D01*
X31141031Y259101D01*
X31141788Y258509D01*
X31139662Y255796D01*
X31139538Y255495D01*
X31139028Y254985D01*
X31051022Y109406D01*
X31008301Y-27693D01*
X31000413Y-53008D01*
X31000413Y-53009D01*
X30994000Y-123576D01*
X30994000Y-1236823D01*
X31000413Y-1307390D01*
X31000413Y-1307391D01*
X31000413Y-1307393D01*
X31000414Y-1307396D01*
X31051022Y-1469806D01*
X31139028Y-1615385D01*
X31259315Y-1735672D01*
X31404894Y-1823678D01*
X31567304Y-1874286D01*
X31580877Y-1875519D01*
X31591707Y-1876504D01*
X31641857Y-1902825D01*
X31658706Y-1956897D01*
X31632385Y-2007047D01*
X31591707Y-2023896D01*
X31567309Y-2026113D01*
X31567308Y-2026113D01*
X31567305Y-2026113D01*
X31567304Y-2026114D01*
X31404894Y-2076722D01*
X31404892Y-2076722D01*
X31404892Y-2076723D01*
X31259314Y-2164728D01*
X31139028Y-2285014D01*
X31051023Y-2430592D01*
X31051022Y-2430594D01*
X31000574Y-2592490D01*
X31000413Y-2593008D01*
X31000413Y-2593009D01*
X30994000Y-2663576D01*
X30994000Y-3776823D01*
X31000413Y-3847390D01*
X31000413Y-3847391D01*
X31000413Y-3847393D01*
X31000414Y-3847396D01*
X31051022Y-4009806D01*
X31096256Y-4084631D01*
X31139028Y-4155385D01*
X31139538Y-4155895D01*
X31139662Y-4156196D01*
X31141788Y-4158909D01*
X31141031Y-4159501D01*
X31161212Y-4208221D01*
X31139538Y-4260547D01*
X31014159Y-4385926D01*
X30961833Y-4407600D01*
X28449005Y-4407600D01*
X28396679Y-4385926D01*
X28390302Y-4378655D01*
X28388103Y-4375790D01*
X28388101Y-4375788D01*
X28388100Y-4375786D01*
X28294914Y-4282600D01*
X28256717Y-4260547D01*
X28180790Y-4216710D01*
X28180781Y-4216706D01*
X28053494Y-4182600D01*
X28053492Y-4182600D01*
X27921708Y-4182600D01*
X27921706Y-4182600D01*
X27794418Y-4216706D01*
X27794409Y-4216710D01*
X27742800Y-4246507D01*
X27686647Y-4253899D01*
X27641714Y-4219421D01*
X27631800Y-4182421D01*
X27631800Y-2018967D01*
X27653474Y-1966641D01*
X27683110Y-1937005D01*
X29186600Y-1937005D01*
X29186600Y-2068794D01*
X29220706Y-2196081D01*
X29220710Y-2196090D01*
X29252175Y-2250589D01*
X29286600Y-2310214D01*
X29379786Y-2403400D01*
X29493914Y-2469292D01*
X29621205Y-2503399D01*
X29621206Y-2503400D01*
X29621208Y-2503400D01*
X29752994Y-2503400D01*
X29752994Y-2503399D01*
X29880286Y-2469292D01*
X29994414Y-2403400D01*
X30087600Y-2310214D01*
X30153492Y-2196086D01*
X30187599Y-2068794D01*
X30187600Y-2068794D01*
X30187600Y-1937006D01*
X30187599Y-1937005D01*
X30179909Y-1908307D01*
X30153492Y-1809714D01*
X30087600Y-1695586D01*
X29994414Y-1602400D01*
X29968390Y-1587375D01*
X29880290Y-1536510D01*
X29880281Y-1536506D01*
X29752994Y-1502400D01*
X29752992Y-1502400D01*
X29621208Y-1502400D01*
X29621206Y-1502400D01*
X29493918Y-1536506D01*
X29493909Y-1536510D01*
X29379785Y-1602400D01*
X29286600Y-1695585D01*
X29220710Y-1809709D01*
X29220706Y-1809718D01*
X29186600Y-1937005D01*
X27683110Y-1937005D01*
X27740283Y-1879832D01*
X28312725Y-1307390D01*
X28893346Y-726768D01*
X28945671Y-705095D01*
X28955337Y-705729D01*
X28958904Y-706198D01*
X28958908Y-706200D01*
X28958912Y-706200D01*
X29090694Y-706200D01*
X29090694Y-706199D01*
X29217986Y-672092D01*
X29332114Y-606200D01*
X29425300Y-513014D01*
X29491192Y-398886D01*
X29525299Y-271594D01*
X29525300Y-271594D01*
X29525300Y-139806D01*
X29525299Y-139805D01*
X29507276Y-72543D01*
X29491192Y-12514D01*
X29425300Y101614D01*
X29332114Y194800D01*
X29217986Y260692D01*
X29147756Y279510D01*
X29090694Y294800D01*
X29090692Y294800D01*
X28958908Y294800D01*
X28958906Y294800D01*
X28855749Y267159D01*
X28831614Y260692D01*
X28717486Y194800D01*
X28717485Y194799D01*
X28624300Y101614D01*
X28558410Y-12509D01*
X28558406Y-12518D01*
X28524300Y-139805D01*
X28524300Y-271595D01*
X28524771Y-275176D01*
X28510106Y-329882D01*
X28503729Y-337153D01*
X27200242Y-1640643D01*
X27200241Y-1640644D01*
X27169545Y-1671339D01*
X27117219Y-1693012D01*
X27064893Y-1671337D01*
X27050927Y-1651894D01*
X27029153Y-1607990D01*
X26916659Y-1468041D01*
X26776710Y-1355547D01*
X26615849Y-1275767D01*
X26441600Y-1232434D01*
X26441595Y-1232433D01*
X26441593Y-1232433D01*
X26401289Y-1229700D01*
X26401284Y-1229700D01*
X24938466Y-1229700D01*
X24886140Y-1208026D01*
X24864466Y-1155700D01*
X24886140Y-1103374D01*
X24893057Y-1096457D01*
X24905200Y-1084314D01*
X24971092Y-970186D01*
X25005199Y-842894D01*
X25005200Y-842894D01*
X25005200Y-711106D01*
X25005199Y-711105D01*
X25003885Y-706200D01*
X24971092Y-583814D01*
X24971091Y-583812D01*
X24970103Y-580125D01*
X24977495Y-523972D01*
X25022428Y-489494D01*
X25078581Y-496886D01*
X25082683Y-499437D01*
X25231902Y-599141D01*
X25423080Y-678330D01*
X25626035Y-718700D01*
X25626036Y-718700D01*
X25832964Y-718700D01*
X25832965Y-718700D01*
X26035920Y-678330D01*
X26227098Y-599141D01*
X26399155Y-484177D01*
X26545477Y-337855D01*
X26660441Y-165798D01*
X26739630Y25380D01*
X26780000Y228335D01*
X26780000Y435265D01*
X26739630Y638220D01*
X26660441Y829398D01*
X26545477Y1001455D01*
X26461458Y1085474D01*
X26439784Y1137800D01*
X26461458Y1190126D01*
X26513784Y1211800D01*
X30257233Y1211800D01*
X30309559Y1190126D01*
G37*
%TD.AperFunction*%
%TA.AperFunction,Conductor*%
G36*
X38360895Y951688D02*
G01*
X39495526Y-182941D01*
X39517200Y-235267D01*
X39517200Y-3064733D01*
X39495526Y-3117059D01*
X38360895Y-4251689D01*
X38308569Y-4273363D01*
X38256243Y-4251689D01*
X38237091Y-4218518D01*
X38228784Y-4187515D01*
X38156309Y-4061985D01*
X38053815Y-3959491D01*
X37975170Y-3914085D01*
X37940692Y-3869153D01*
X37948085Y-3813000D01*
X37975171Y-3785914D01*
X37990917Y-3776823D01*
X38053815Y-3740509D01*
X38156309Y-3638015D01*
X38228784Y-3512485D01*
X38266299Y-3372477D01*
X38266300Y-3372477D01*
X38266300Y-3357390D01*
X38287974Y-3305064D01*
X38340300Y-3283390D01*
X38359452Y-3285911D01*
X38479205Y-3317999D01*
X38479206Y-3318000D01*
X38479208Y-3318000D01*
X38610994Y-3318000D01*
X38610994Y-3317999D01*
X38738286Y-3283892D01*
X38852414Y-3218000D01*
X38945600Y-3124814D01*
X39011492Y-3010686D01*
X39045599Y-2883394D01*
X39045600Y-2883394D01*
X39045600Y-2751606D01*
X39045599Y-2751605D01*
X39023682Y-2669810D01*
X39011492Y-2624314D01*
X38945600Y-2510186D01*
X38852414Y-2417000D01*
X38852411Y-2416998D01*
X38852409Y-2416996D01*
X38849539Y-2414793D01*
X38821231Y-2365738D01*
X38820600Y-2356094D01*
X38820600Y-147800D01*
X38820599Y-147798D01*
X38812437Y-128092D01*
X38778659Y-46544D01*
X38778657Y-46541D01*
X38709831Y22285D01*
X38498558Y233557D01*
X38397300Y275500D01*
X38397299Y275500D01*
X38235126Y275500D01*
X38182800Y297174D01*
X38171040Y312500D01*
X38168442Y317000D01*
X38156309Y338015D01*
X38053815Y440509D01*
X37975170Y485914D01*
X37940692Y530847D01*
X37948085Y587000D01*
X37975171Y614086D01*
X37998059Y627300D01*
X38053815Y659491D01*
X38156309Y761985D01*
X38228784Y887515D01*
X38229270Y889327D01*
X38237091Y918515D01*
X38271569Y963448D01*
X38327722Y970840D01*
X38360895Y951688D01*
G37*
%TD.AperFunction*%
%TA.AperFunction,Conductor*%
G36*
X18013291Y6156551D02*
G01*
X18027334Y6145549D01*
X21281429Y2891454D01*
X21303103Y2839128D01*
X21302471Y2829478D01*
X21302000Y2825897D01*
X21302000Y2694105D01*
X21336106Y2566818D01*
X21336110Y2566809D01*
X21402000Y2452685D01*
X21495185Y2359500D01*
X21609309Y2293610D01*
X21609318Y2293606D01*
X21736605Y2259500D01*
X21736608Y2259500D01*
X21868394Y2259500D01*
X21995681Y2293606D01*
X21995684Y2293607D01*
X21995686Y2293608D01*
X21995687Y2293608D01*
X21995690Y2293610D01*
X22109814Y2359500D01*
X22141314Y2391000D01*
X22193640Y2412674D01*
X22245966Y2391000D01*
X22256304Y2377066D01*
X22256540Y2377224D01*
X22258558Y2374202D01*
X22258559Y2374202D01*
X22270682Y2356058D01*
X22373522Y2202145D01*
X22373524Y2202144D01*
X22519844Y2055824D01*
X22519845Y2055822D01*
X22691901Y1940859D01*
X22778070Y1905167D01*
X22818118Y1865118D01*
X22818118Y1808481D01*
X22778069Y1768433D01*
X22749751Y1762800D01*
X22710700Y1762800D01*
X22601100Y1762800D01*
X22499842Y1720857D01*
X22105375Y1326390D01*
X21725462Y946477D01*
X21692288Y927324D01*
X21609314Y905092D01*
X21495186Y839200D01*
X21495185Y839199D01*
X21402000Y746014D01*
X21336110Y631890D01*
X21336106Y631881D01*
X21302000Y504594D01*
X21302000Y474322D01*
X21280326Y421996D01*
X21228000Y400322D01*
X21202139Y404988D01*
X21177106Y414324D01*
X21091614Y446212D01*
X21034985Y452300D01*
X18994016Y452299D01*
X18994015Y452299D01*
X18987928Y451644D01*
X18937386Y446212D01*
X18809274Y398428D01*
X18699813Y316487D01*
X18653772Y254983D01*
X18617871Y207025D01*
X18611662Y190378D01*
X18573068Y148926D01*
X18516467Y146905D01*
X18490004Y163911D01*
X17834461Y819453D01*
X17812788Y871779D01*
X17832968Y920498D01*
X17832212Y921091D01*
X17834337Y923803D01*
X17834462Y924105D01*
X17834971Y924614D01*
X17834972Y924615D01*
X17922978Y1070194D01*
X17973586Y1232604D01*
X17980000Y1303184D01*
X17980000Y2416416D01*
X17973586Y2486996D01*
X17922978Y2649406D01*
X17834972Y2794985D01*
X17714685Y2915272D01*
X17569106Y3003278D01*
X17545965Y3010488D01*
X17526833Y3016451D01*
X17483324Y3052710D01*
X17478199Y3109115D01*
X17514458Y3152624D01*
X17548848Y3161100D01*
X18115995Y3161100D01*
X18168321Y3139426D01*
X18174698Y3132155D01*
X18176896Y3129290D01*
X18270085Y3036100D01*
X18384209Y2970210D01*
X18384218Y2970206D01*
X18511505Y2936100D01*
X18511508Y2936100D01*
X18643294Y2936100D01*
X18770581Y2970206D01*
X18770584Y2970207D01*
X18770586Y2970208D01*
X18770587Y2970208D01*
X18770590Y2970210D01*
X18884714Y3036100D01*
X18977899Y3129285D01*
X18979737Y3132467D01*
X19043792Y3243414D01*
X19077899Y3370705D01*
X19077900Y3370706D01*
X19077900Y3502494D01*
X19051548Y3600840D01*
X19043792Y3629786D01*
X18977900Y3743914D01*
X18884714Y3837100D01*
X18770586Y3902992D01*
X18698527Y3922300D01*
X18643294Y3937100D01*
X18643292Y3937100D01*
X18511508Y3937100D01*
X18511506Y3937100D01*
X18399254Y3907022D01*
X18384214Y3902992D01*
X18270086Y3837100D01*
X18176900Y3743914D01*
X18176898Y3743911D01*
X18176896Y3743909D01*
X18174698Y3741045D01*
X18125645Y3712732D01*
X18115995Y3712100D01*
X18049117Y3712100D01*
X17996791Y3733774D01*
X17975117Y3786100D01*
X17975421Y3792798D01*
X17980000Y3843184D01*
X17980000Y4956416D01*
X17973586Y5026996D01*
X17922978Y5189406D01*
X17834972Y5334985D01*
X17714685Y5455272D01*
X17569106Y5543278D01*
X17406696Y5593886D01*
X17391424Y5595273D01*
X17382292Y5596104D01*
X17332142Y5622424D01*
X17315293Y5676497D01*
X17341613Y5726647D01*
X17382292Y5743496D01*
X17406690Y5745713D01*
X17406691Y5745713D01*
X17406693Y5745713D01*
X17406696Y5745714D01*
X17569106Y5796322D01*
X17714685Y5884328D01*
X17834972Y6004615D01*
X17911681Y6131506D01*
X17957299Y6165073D01*
X18013291Y6156551D01*
G37*
%TD.AperFunction*%
%TD*%
M02*
