M48
; DRILL file KiCad 10.0.6 date 2026-09-21T08:27:50
; FORMAT={-:-/ absolute / metric / decimal}
; #@! TF.CreationDate,2026-09-21T08:27:50+02:00
; #@! TF.GenerationSoftware,Kicad,Pcbnew,10.0.6
; #@! TF.FileFunction,MixedPlating,1,4
FMAT,2
METRIC
; #@! TA.AperFunction,Plated,PTH,ViaDrill
T1C0.300
; #@! TA.AperFunction,NonPlated,NPTH,ComponentDrill
T2C0.900
%
G90
G05
T1
X15.6Y10.2
X15.6Y8.8
X15.6Y-10.8
X17.0Y-10.8
X18.368Y-1.664
X18.4Y7.4
X18.4Y-10.8
X18.577Y3.437
X18.656Y-3.676
X18.883Y-4.84
X19.8Y10.2
X19.8Y8.8
X19.8Y7.4
X19.8Y-3.8
X19.8Y-10.8
X20.43Y2.653
X20.83Y-2.75
X20.975Y5.0
X21.675Y-2.399
X21.764Y1.607
X21.802Y2.76
X21.802Y0.439
X22.574Y-1.508
X22.6Y10.2
X22.6Y-3.8
X23.144Y-9.582
X23.51Y-3.57
X23.833Y-5.989
X24.0Y10.2
X24.505Y-0.777
X25.4Y10.2
X26.162Y-7.693
X26.692Y-4.6
X26.8Y10.2
X26.9Y-5.9
X27.079Y5.412
X27.988Y-4.683
X28.193Y-7.045
X28.2Y8.8
X28.2Y7.4
X28.2Y-8.0
X28.38Y-3.692
X29.025Y-0.206
X29.249Y5.99
X29.6Y-6.6
X29.6Y-8.0
X29.687Y-2.003
X30.345Y2.45
X30.402Y0.099
X30.603Y-6.417
X30.837Y3.682
X34.45Y5.374
X34.589Y2.843
X35.075Y0.859
X35.2Y7.4
X35.399Y2.829
X35.733Y-3.488
X35.793Y4.4
X35.822Y-9.204
X36.104Y6.444
X36.6Y7.4
X36.7Y-8.675
X38.0Y8.8
X38.0Y6.0
X38.316Y-5.641
X38.545Y-2.817
X38.96Y1.962
X39.215Y-1.562
X39.4Y7.4
X40.377Y1.725
X40.527Y0.25
X40.575Y-1.961
X40.8Y7.4
X40.8Y3.2
X40.8Y-5.2
X40.8Y-6.6
X40.8Y-8.0
X41.452Y1.487
X41.84Y-1.784
X41.967Y2.538
X42.2Y7.4
X42.2Y-3.8
X42.2Y-5.2
X42.2Y-6.6
X42.2Y-8.0
X42.473Y1.028
X43.6Y7.4
X43.6Y0.4
X43.6Y-1.0
X43.6Y-2.4
X43.6Y-3.8
X43.6Y-5.2
X43.6Y-6.6
X43.6Y-8.0
X45.0Y6.0
X45.0Y3.2
X45.0Y1.8
X45.0Y0.4
X45.0Y-1.0
X45.0Y-3.8
X45.0Y-5.2
X45.0Y-6.6
X45.413Y-2.2
X46.4Y6.0
X46.4Y-5.2
X46.4Y-6.6
X47.8Y6.0
X47.8Y-5.2
X47.8Y-6.6
X48.186Y-4.4
X48.425Y-3.091
X49.2Y4.6
X49.2Y3.2
X49.2Y-3.8
X49.2Y-5.2
X49.475Y1.475
X49.475Y-1.475
T2
X40.2Y5.954
X43.2Y5.954
M30
