%TF.GenerationSoftware,KiCad,Pcbnew,10.0.6*%
%TF.CreationDate,2026-09-21T08:27:50+02:00*%
%TF.ProjectId,wherewatch-carrier,77686572-6577-4617-9463-682d63617272,rev?*%
%TF.SameCoordinates,Original*%
%TF.FileFunction,Copper,L3,Inr*%
%TF.FilePolarity,Positive*%
%FSLAX46Y46*%
G04 Gerber Fmt 4.6, Leading zero omitted, Abs format (unit mm)*
G04 Created by KiCad (PCBNEW 10.0.6) date 2026-09-21 08:27:50*
%MOMM*%
%LPD*%
G01*
G04 APERTURE LIST*
%TA.AperFunction,ViaPad*%
%ADD10C,0.600000*%
%TD*%
%TA.AperFunction,Conductor*%
%ADD11C,0.150000*%
%TD*%
G04 APERTURE END LIST*
D10*
%TO.N,VBAT_SENSE*%
X21802500Y2760000D03*
%TO.N,BTN*%
X23143800Y-9581900D03*
X18577400Y3436600D03*
%TO.N,GNSS_EN*%
X21674800Y-2399300D03*
X38545100Y-2817500D03*
%TO.N,VIB_IN*%
X18367800Y-1664000D03*
%TO.N,SDA*%
X35822000Y-9204000D03*
X18883400Y-4840400D03*
%TO.N,SCL*%
X29024800Y-205700D03*
X38315900Y-5641300D03*
X40575200Y-1961100D03*
%TO.N,GNSS_RX*%
X28193200Y-7045400D03*
X35074800Y858700D03*
%TO.N,I2S_BCLK*%
X23832800Y-5989000D03*
%TO.N,I2S_LRCLK*%
X27987600Y-4683100D03*
%TO.N,I2S_DIN*%
X21802500Y438700D03*
%TO.N,+3V3*%
X38960300Y1962100D03*
X35733200Y-3488100D03*
X30345400Y2450300D03*
X41840400Y-1784200D03*
%TO.N,GND*%
X44999999Y-1000000D03*
X18400000Y-10800000D03*
X46399999Y-6600000D03*
X49199999Y-3800000D03*
X49475000Y-1475000D03*
X37999999Y5999999D03*
X28380000Y-3692500D03*
X40799999Y7399999D03*
X49199999Y3199999D03*
X40377500Y1725000D03*
X48185800Y-4400000D03*
X40527500Y250000D03*
X49199999Y-5200000D03*
X21764500Y1606800D03*
X35199999Y7399999D03*
X42199999Y7399999D03*
X39399999Y7399999D03*
X15600000Y-10800000D03*
X25399999Y10200000D03*
X42199999Y-5200000D03*
X43599999Y-6600000D03*
X28199999Y-8000000D03*
X28199999Y8799999D03*
X44999999Y399999D03*
X43599999Y-2400000D03*
X47799999Y-6600000D03*
X36700000Y-8675000D03*
X40799999Y3199999D03*
X49199999Y4599999D03*
X44999999Y5999999D03*
X40799999Y-6600000D03*
X44999999Y-6600000D03*
X28199999Y7399999D03*
X30602800Y-6416600D03*
X49475000Y1475000D03*
X26799999Y10200000D03*
X27079500Y5411800D03*
X40799999Y-8000000D03*
X45412800Y-2200000D03*
X26900000Y-5900000D03*
X29599999Y-6600000D03*
X34588900Y2843300D03*
X41967100Y2537600D03*
X19799999Y-10800000D03*
X42199999Y-6600000D03*
X19799999Y7399999D03*
X26692500Y-4600000D03*
X44999999Y-3800000D03*
X46399999Y5999999D03*
X42199999Y-3800000D03*
X19799999Y10200000D03*
X20830000Y-2750000D03*
X43599999Y-3800000D03*
X18656300Y-3676300D03*
X40799999Y-5200000D03*
X43599999Y-8000000D03*
X43599999Y-1000000D03*
X43599999Y399999D03*
X23999999Y10200000D03*
X30401900Y99200D03*
X46399999Y-5200000D03*
X36599999Y7399999D03*
X15600000Y10200000D03*
X29599999Y-8000000D03*
X44999999Y-5200000D03*
X39215000Y-1562500D03*
X15600000Y8799999D03*
X44999999Y3199999D03*
X41452000Y1487000D03*
X22599999Y-3800000D03*
X44999999Y1799999D03*
X47799999Y-5200000D03*
X20429549Y2653232D03*
X42199999Y-8000000D03*
X18400000Y7399999D03*
X30837200Y3682200D03*
X23510000Y-3570000D03*
X19799999Y-3800000D03*
X35792800Y4400000D03*
X43599999Y7399999D03*
X22573800Y-1507600D03*
X22599999Y10200000D03*
X20975000Y5000000D03*
X17000000Y-10800000D03*
X37999999Y8799999D03*
X43599999Y-5200000D03*
X47799999Y5999999D03*
X19799999Y8799999D03*
%TO.N,VBUS*%
X35399300Y2829200D03*
%TO.N,VBAT*%
X24504700Y-777000D03*
X34449500Y5374200D03*
%TO.N,GNSS_RF*%
X48424700Y-3091300D03*
%TO.N,SPK_P*%
X26161900Y-7693300D03*
X29687100Y-2002900D03*
%TO.N,BAT_RAW*%
X42472900Y1027800D03*
X29249100Y5989900D03*
X36104300Y6444300D03*
%TD*%
%TO.N,GNSS_EN*%
D11*
X22093000Y-2817500D02*
X38545100Y-2817500D01*
X21674800Y-2399300D02*
X22093000Y-2817500D01*
%TO.N,SDA*%
X35822000Y-9204000D02*
X35623200Y-9005200D01*
X35623200Y-9005200D02*
X23048200Y-9005200D01*
X23048200Y-9005200D02*
X18883400Y-4840400D01*
%TO.N,+3V3*%
X40136500Y-3488100D02*
X35733200Y-3488100D01*
X41840400Y-1784200D02*
X40136500Y-3488100D01*
%TD*%
%TA.AperFunction,Conductor*%
%TO.N,GND*%
G36*
X14734024Y12513420D02*
G01*
X15149998Y12463321D01*
X15149999Y12463321D01*
X15649999Y12403101D01*
X16149999Y12342880D01*
X16649999Y12282660D01*
X17150000Y12222440D01*
X18150000Y12102000D01*
X18650000Y12041779D01*
X20150000Y11861119D01*
X20650000Y11800898D01*
X22150000Y11620238D01*
X22650000Y11560017D01*
X24650000Y11319137D01*
X25150000Y11258916D01*
X26650000Y11078256D01*
X27150000Y11018035D01*
X29150000Y10777155D01*
X29650000Y10716934D01*
X31150000Y10536274D01*
X31650000Y10476053D01*
X33650000Y10235173D01*
X34150000Y10174952D01*
X35650000Y9994292D01*
X36150000Y9934071D01*
X37650000Y9753411D01*
X38150000Y9693190D01*
X40150000Y9452310D01*
X40650000Y9392089D01*
X41150000Y9331869D01*
X41642087Y9272602D01*
X41657530Y9269031D01*
X41785916Y9224408D01*
X41999996Y9150001D01*
X41999997Y9150000D01*
X42000000Y9150000D01*
X42412230Y9132001D01*
X42794251Y9115321D01*
X42800682Y9114758D01*
X43585678Y9011411D01*
X43592035Y9010290D01*
X44365040Y8838920D01*
X44371276Y8837249D01*
X45126400Y8599159D01*
X45132467Y8596951D01*
X45863973Y8293951D01*
X45869823Y8291223D01*
X46572134Y7925623D01*
X46577725Y7922395D01*
X47245501Y7496975D01*
X47250789Y7493272D01*
X47878934Y7011279D01*
X47883880Y7007130D01*
X48467644Y6472209D01*
X48472209Y6467644D01*
X49007130Y5883880D01*
X49011279Y5878934D01*
X49493272Y5250789D01*
X49496975Y5245501D01*
X49922395Y4577724D01*
X49925623Y4572133D01*
X50291223Y3869823D01*
X50293951Y3863973D01*
X50596951Y3132467D01*
X50599159Y3126400D01*
X50837249Y2371276D01*
X50838920Y2365040D01*
X51010290Y1592035D01*
X51011411Y1585678D01*
X51114758Y800682D01*
X51115321Y794251D01*
X51149859Y3228D01*
X51149859Y-3228D01*
X51115321Y-794251D01*
X51114758Y-800682D01*
X51011411Y-1585678D01*
X51010290Y-1592035D01*
X50838920Y-2365040D01*
X50837249Y-2371276D01*
X50599159Y-3126400D01*
X50596951Y-3132467D01*
X50293951Y-3863973D01*
X50291223Y-3869823D01*
X49925623Y-4572133D01*
X49922395Y-4577724D01*
X49496975Y-5245501D01*
X49493272Y-5250789D01*
X49011279Y-5878934D01*
X49007130Y-5883880D01*
X48472209Y-6467644D01*
X48467644Y-6472209D01*
X47883880Y-7007130D01*
X47878934Y-7011279D01*
X47250789Y-7493272D01*
X47245501Y-7496975D01*
X46577725Y-7922395D01*
X46572134Y-7925623D01*
X45869823Y-8291223D01*
X45863973Y-8293951D01*
X45132467Y-8596951D01*
X45126400Y-8599159D01*
X44371276Y-8837249D01*
X44365040Y-8838920D01*
X43592035Y-9010290D01*
X43585678Y-9011411D01*
X42800682Y-9114758D01*
X42794251Y-9115321D01*
X42000003Y-9149999D01*
X42000000Y-9150000D01*
X41505448Y-9288192D01*
X41494382Y-9290391D01*
X41000000Y-9349935D01*
X40500000Y-9410155D01*
X40000000Y-9470376D01*
X38500000Y-9651036D01*
X38000000Y-9711257D01*
X36000000Y-9952137D01*
X35500000Y-10012358D01*
X34000000Y-10193018D01*
X33500000Y-10253239D01*
X31500000Y-10494119D01*
X31000000Y-10554340D01*
X29500000Y-10735000D01*
X29000000Y-10795221D01*
X27500000Y-10975881D01*
X27000000Y-11036102D01*
X25000000Y-11276982D01*
X24500000Y-11337203D01*
X23000000Y-11517863D01*
X22500000Y-11578084D01*
X20500000Y-11818964D01*
X20000000Y-11879185D01*
X18500000Y-12059845D01*
X18000000Y-12120066D01*
X16500000Y-12300726D01*
X16000000Y-12360947D01*
X15500000Y-12421167D01*
X15081690Y-12471548D01*
X15027147Y-12456286D01*
X14999372Y-12406928D01*
X14998848Y-12399115D01*
X14994099Y-12059845D01*
X14892124Y-4774505D01*
X18382900Y-4774505D01*
X18382900Y-4906294D01*
X18417006Y-5033581D01*
X18417010Y-5033590D01*
X18478908Y-5140800D01*
X18482900Y-5147714D01*
X18576086Y-5240900D01*
X18690214Y-5306792D01*
X18817505Y-5340899D01*
X18817506Y-5340900D01*
X18817508Y-5340900D01*
X18949292Y-5340900D01*
X18952870Y-5340429D01*
X19007578Y-5355088D01*
X19014855Y-5361470D01*
X22783309Y-9129924D01*
X22804983Y-9182250D01*
X22783310Y-9234575D01*
X22743300Y-9274585D01*
X22677410Y-9388709D01*
X22677406Y-9388718D01*
X22643300Y-9516005D01*
X22643300Y-9647794D01*
X22677406Y-9775081D01*
X22677407Y-9775084D01*
X22677408Y-9775086D01*
X22743300Y-9889214D01*
X22836486Y-9982400D01*
X22950614Y-10048292D01*
X23077905Y-10082399D01*
X23077906Y-10082400D01*
X23077908Y-10082400D01*
X23209694Y-10082400D01*
X23209694Y-10082399D01*
X23336986Y-10048292D01*
X23451114Y-9982400D01*
X23544300Y-9889214D01*
X23610192Y-9775086D01*
X23644299Y-9647794D01*
X23644300Y-9647794D01*
X23644300Y-9516006D01*
X23644299Y-9516005D01*
X23610193Y-9388718D01*
X23610192Y-9388714D01*
X23610189Y-9388709D01*
X23608334Y-9384229D01*
X23610798Y-9383208D01*
X23604522Y-9335552D01*
X23638998Y-9290616D01*
X23676002Y-9280700D01*
X35267614Y-9280700D01*
X35319940Y-9302374D01*
X35339091Y-9335545D01*
X35351863Y-9383208D01*
X35355608Y-9397186D01*
X35355610Y-9397190D01*
X35382704Y-9444117D01*
X35421500Y-9511314D01*
X35514686Y-9604500D01*
X35628814Y-9670392D01*
X35756105Y-9704499D01*
X35756106Y-9704500D01*
X35756108Y-9704500D01*
X35887894Y-9704500D01*
X35887894Y-9704499D01*
X36015186Y-9670392D01*
X36129314Y-9604500D01*
X36222500Y-9511314D01*
X36288392Y-9397186D01*
X36322499Y-9269894D01*
X36322500Y-9269894D01*
X36322500Y-9138106D01*
X36322499Y-9138105D01*
X36288393Y-9010818D01*
X36288392Y-9010814D01*
X36222500Y-8896686D01*
X36129314Y-8803500D01*
X36016565Y-8738404D01*
X36015190Y-8737610D01*
X36015181Y-8737606D01*
X35887894Y-8703500D01*
X35887892Y-8703500D01*
X35756108Y-8703500D01*
X35739217Y-8708026D01*
X35667736Y-8727179D01*
X35648584Y-8729700D01*
X23192968Y-8729700D01*
X23140642Y-8708026D01*
X22060021Y-7627405D01*
X25661400Y-7627405D01*
X25661400Y-7759194D01*
X25695506Y-7886481D01*
X25695507Y-7886484D01*
X25695508Y-7886486D01*
X25761400Y-8000614D01*
X25854586Y-8093800D01*
X25968714Y-8159692D01*
X26096005Y-8193799D01*
X26096006Y-8193800D01*
X26096008Y-8193800D01*
X26227794Y-8193800D01*
X26227794Y-8193799D01*
X26355086Y-8159692D01*
X26469214Y-8093800D01*
X26562400Y-8000614D01*
X26628292Y-7886486D01*
X26662399Y-7759194D01*
X26662400Y-7759194D01*
X26662400Y-7627406D01*
X26662399Y-7627405D01*
X26659735Y-7617464D01*
X26628292Y-7500114D01*
X26562400Y-7385986D01*
X26469214Y-7292800D01*
X26375313Y-7238586D01*
X26355090Y-7226910D01*
X26355081Y-7226906D01*
X26227794Y-7192800D01*
X26227792Y-7192800D01*
X26096008Y-7192800D01*
X26096006Y-7192800D01*
X25968718Y-7226906D01*
X25968709Y-7226910D01*
X25854585Y-7292800D01*
X25761400Y-7385985D01*
X25695510Y-7500109D01*
X25695506Y-7500118D01*
X25661400Y-7627405D01*
X22060021Y-7627405D01*
X21459600Y-7026984D01*
X21412121Y-6979505D01*
X27692700Y-6979505D01*
X27692700Y-7111294D01*
X27726806Y-7238581D01*
X27726810Y-7238590D01*
X27792700Y-7352714D01*
X27885886Y-7445900D01*
X28000014Y-7511792D01*
X28127305Y-7545899D01*
X28127306Y-7545900D01*
X28127308Y-7545900D01*
X28259094Y-7545900D01*
X28259094Y-7545899D01*
X28386386Y-7511792D01*
X28500514Y-7445900D01*
X28593700Y-7352714D01*
X28659592Y-7238586D01*
X28693699Y-7111294D01*
X28693700Y-7111294D01*
X28693700Y-6979506D01*
X28693699Y-6979505D01*
X28659593Y-6852218D01*
X28659592Y-6852214D01*
X28593700Y-6738086D01*
X28500514Y-6644900D01*
X28386390Y-6579010D01*
X28386381Y-6579006D01*
X28259094Y-6544900D01*
X28259092Y-6544900D01*
X28127308Y-6544900D01*
X28127306Y-6544900D01*
X28000018Y-6579006D01*
X28000009Y-6579010D01*
X27885885Y-6644900D01*
X27792700Y-6738085D01*
X27726810Y-6852209D01*
X27726806Y-6852218D01*
X27692700Y-6979505D01*
X21412121Y-6979505D01*
X20403199Y-5970584D01*
X20355720Y-5923105D01*
X23332300Y-5923105D01*
X23332300Y-6054894D01*
X23366406Y-6182181D01*
X23366407Y-6182184D01*
X23366408Y-6182186D01*
X23432300Y-6296314D01*
X23525486Y-6389500D01*
X23639614Y-6455392D01*
X23766905Y-6489499D01*
X23766906Y-6489500D01*
X23766908Y-6489500D01*
X23898694Y-6489500D01*
X23898694Y-6489499D01*
X24025986Y-6455392D01*
X24140114Y-6389500D01*
X24233300Y-6296314D01*
X24299192Y-6182186D01*
X24333299Y-6054894D01*
X24333300Y-6054894D01*
X24333300Y-5923106D01*
X24333299Y-5923105D01*
X24299193Y-5795818D01*
X24299192Y-5795814D01*
X24233300Y-5681686D01*
X24140114Y-5588500D01*
X24117433Y-5575405D01*
X37815400Y-5575405D01*
X37815400Y-5707194D01*
X37849506Y-5834481D01*
X37849507Y-5834484D01*
X37849508Y-5834486D01*
X37915400Y-5948614D01*
X38008586Y-6041800D01*
X38122714Y-6107692D01*
X38250005Y-6141799D01*
X38250006Y-6141800D01*
X38250008Y-6141800D01*
X38381794Y-6141800D01*
X38381794Y-6141799D01*
X38509086Y-6107692D01*
X38623214Y-6041800D01*
X38716400Y-5948614D01*
X38782292Y-5834486D01*
X38816399Y-5707194D01*
X38816400Y-5707194D01*
X38816400Y-5575406D01*
X38816399Y-5575405D01*
X38782293Y-5448118D01*
X38782292Y-5448114D01*
X38716400Y-5333986D01*
X38623214Y-5240800D01*
X38524141Y-5183600D01*
X38509090Y-5174910D01*
X38509081Y-5174906D01*
X38381794Y-5140800D01*
X38381792Y-5140800D01*
X38250008Y-5140800D01*
X38250006Y-5140800D01*
X38122718Y-5174906D01*
X38122709Y-5174910D01*
X38008585Y-5240800D01*
X37915400Y-5333985D01*
X37849510Y-5448109D01*
X37849506Y-5448118D01*
X37815400Y-5575405D01*
X24117433Y-5575405D01*
X24025990Y-5522610D01*
X24025981Y-5522606D01*
X23898694Y-5488500D01*
X23898692Y-5488500D01*
X23766908Y-5488500D01*
X23766906Y-5488500D01*
X23639618Y-5522606D01*
X23639609Y-5522610D01*
X23525485Y-5588500D01*
X23432300Y-5681685D01*
X23366410Y-5795809D01*
X23366406Y-5795818D01*
X23332300Y-5923105D01*
X20355720Y-5923105D01*
X19404470Y-4971855D01*
X19382796Y-4919529D01*
X19383429Y-4909870D01*
X19383900Y-4906292D01*
X19383900Y-4774506D01*
X19383899Y-4774505D01*
X19377063Y-4748994D01*
X19349792Y-4647214D01*
X19332466Y-4617205D01*
X27487100Y-4617205D01*
X27487100Y-4748994D01*
X27521206Y-4876281D01*
X27521207Y-4876284D01*
X27521208Y-4876286D01*
X27587100Y-4990414D01*
X27680286Y-5083600D01*
X27794414Y-5149492D01*
X27921705Y-5183599D01*
X27921706Y-5183600D01*
X27921708Y-5183600D01*
X28053494Y-5183600D01*
X28053494Y-5183599D01*
X28180786Y-5149492D01*
X28294914Y-5083600D01*
X28388100Y-4990414D01*
X28453992Y-4876286D01*
X28488099Y-4748994D01*
X28488100Y-4748994D01*
X28488100Y-4617206D01*
X28488099Y-4617205D01*
X28465559Y-4533085D01*
X28453992Y-4489914D01*
X28388100Y-4375786D01*
X28294914Y-4282600D01*
X28180790Y-4216710D01*
X28180781Y-4216706D01*
X28053494Y-4182600D01*
X28053492Y-4182600D01*
X27921708Y-4182600D01*
X27921706Y-4182600D01*
X27794418Y-4216706D01*
X27794409Y-4216710D01*
X27680285Y-4282600D01*
X27587100Y-4375785D01*
X27521210Y-4489909D01*
X27521206Y-4489918D01*
X27487100Y-4617205D01*
X19332466Y-4617205D01*
X19283900Y-4533086D01*
X19190714Y-4439900D01*
X19079664Y-4375785D01*
X19076590Y-4374010D01*
X19076581Y-4374006D01*
X18949294Y-4339900D01*
X18949292Y-4339900D01*
X18817508Y-4339900D01*
X18817506Y-4339900D01*
X18690218Y-4374006D01*
X18690209Y-4374010D01*
X18576085Y-4439900D01*
X18482900Y-4533085D01*
X18417010Y-4647209D01*
X18417006Y-4647218D01*
X18382900Y-4774505D01*
X14892124Y-4774505D01*
X14857955Y-2333405D01*
X21174300Y-2333405D01*
X21174300Y-2465194D01*
X21208406Y-2592481D01*
X21208407Y-2592484D01*
X21208408Y-2592486D01*
X21274300Y-2706614D01*
X21367486Y-2799800D01*
X21481614Y-2865692D01*
X21608905Y-2899799D01*
X21608906Y-2899800D01*
X21608908Y-2899800D01*
X21740691Y-2899800D01*
X21740692Y-2899800D01*
X21740692Y-2899799D01*
X21744269Y-2899329D01*
X21798977Y-2913988D01*
X21806254Y-2920370D01*
X21936941Y-3051057D01*
X21936940Y-3051057D01*
X21966599Y-3063341D01*
X22038200Y-3093000D01*
X35255211Y-3093000D01*
X35307537Y-3114674D01*
X35329211Y-3167000D01*
X35319297Y-3204000D01*
X35266810Y-3294909D01*
X35266806Y-3294918D01*
X35232700Y-3422205D01*
X35232700Y-3553994D01*
X35266806Y-3681281D01*
X35266807Y-3681284D01*
X35266808Y-3681286D01*
X35332700Y-3795414D01*
X35425886Y-3888600D01*
X35540014Y-3954492D01*
X35667305Y-3988599D01*
X35667306Y-3988600D01*
X35667308Y-3988600D01*
X35799094Y-3988600D01*
X35799094Y-3988599D01*
X35926386Y-3954492D01*
X36040514Y-3888600D01*
X36133700Y-3795414D01*
X36133703Y-3795409D01*
X36135902Y-3792545D01*
X36184955Y-3764232D01*
X36194605Y-3763600D01*
X40191298Y-3763600D01*
X40191300Y-3763600D01*
X40292558Y-3721657D01*
X40370057Y-3644158D01*
X40370056Y-3644158D01*
X40405017Y-3609197D01*
X40405016Y-3609197D01*
X40988808Y-3025405D01*
X47924200Y-3025405D01*
X47924200Y-3157194D01*
X47958306Y-3284481D01*
X47958310Y-3284490D01*
X47964331Y-3294918D01*
X48024200Y-3398614D01*
X48117386Y-3491800D01*
X48231514Y-3557692D01*
X48358805Y-3591799D01*
X48358806Y-3591800D01*
X48358808Y-3591800D01*
X48490594Y-3591800D01*
X48490594Y-3591799D01*
X48617886Y-3557692D01*
X48732014Y-3491800D01*
X48825200Y-3398614D01*
X48891092Y-3284486D01*
X48925199Y-3157194D01*
X48925200Y-3157194D01*
X48925200Y-3025406D01*
X48925199Y-3025405D01*
X48891417Y-2899329D01*
X48891092Y-2898114D01*
X48825200Y-2783986D01*
X48732014Y-2690800D01*
X48617890Y-2624910D01*
X48617881Y-2624906D01*
X48490594Y-2590800D01*
X48490592Y-2590800D01*
X48358808Y-2590800D01*
X48358806Y-2590800D01*
X48231518Y-2624906D01*
X48231509Y-2624910D01*
X48117385Y-2690800D01*
X48024200Y-2783985D01*
X47958310Y-2898109D01*
X47958306Y-2898118D01*
X47924200Y-3025405D01*
X40988808Y-3025405D01*
X41708946Y-2305268D01*
X41761271Y-2283595D01*
X41770937Y-2284229D01*
X41774504Y-2284698D01*
X41774508Y-2284700D01*
X41774512Y-2284700D01*
X41906294Y-2284700D01*
X41906294Y-2284699D01*
X42033586Y-2250592D01*
X42147714Y-2184700D01*
X42240900Y-2091514D01*
X42306792Y-1977386D01*
X42340899Y-1850094D01*
X42340900Y-1850094D01*
X42340900Y-1718306D01*
X42340899Y-1718305D01*
X42323611Y-1653786D01*
X42306792Y-1591014D01*
X42240900Y-1476886D01*
X42147714Y-1383700D01*
X42033590Y-1317810D01*
X42033581Y-1317806D01*
X41906294Y-1283700D01*
X41906292Y-1283700D01*
X41774508Y-1283700D01*
X41774506Y-1283700D01*
X41647218Y-1317806D01*
X41647209Y-1317810D01*
X41533085Y-1383700D01*
X41439900Y-1476885D01*
X41374010Y-1591009D01*
X41374006Y-1591018D01*
X41339900Y-1718305D01*
X41339900Y-1850095D01*
X41340371Y-1853676D01*
X41325706Y-1908382D01*
X41319329Y-1915653D01*
X41202026Y-2032957D01*
X41149700Y-2054631D01*
X41097374Y-2032957D01*
X41075700Y-1980631D01*
X41075700Y-1895206D01*
X41075699Y-1895205D01*
X41064571Y-1853676D01*
X41041592Y-1767914D01*
X40975700Y-1653786D01*
X40882514Y-1560600D01*
X40781709Y-1502400D01*
X40768390Y-1494710D01*
X40768381Y-1494706D01*
X40641094Y-1460600D01*
X40641092Y-1460600D01*
X40509308Y-1460600D01*
X40509306Y-1460600D01*
X40382018Y-1494706D01*
X40382009Y-1494710D01*
X40267885Y-1560600D01*
X40174700Y-1653785D01*
X40108810Y-1767909D01*
X40108806Y-1767918D01*
X40074700Y-1895205D01*
X40074700Y-2026994D01*
X40108806Y-2154281D01*
X40108810Y-2154290D01*
X40138728Y-2206109D01*
X40174700Y-2268414D01*
X40267886Y-2361600D01*
X40382014Y-2427492D01*
X40509305Y-2461599D01*
X40509306Y-2461600D01*
X40594732Y-2461600D01*
X40647058Y-2483274D01*
X40668732Y-2535600D01*
X40647058Y-2587926D01*
X40044059Y-3190926D01*
X39991733Y-3212600D01*
X39023089Y-3212600D01*
X38970763Y-3190926D01*
X38949089Y-3138600D01*
X38959003Y-3101600D01*
X38981091Y-3063342D01*
X39011492Y-3010686D01*
X39045599Y-2883394D01*
X39045600Y-2883394D01*
X39045600Y-2751606D01*
X39045599Y-2751605D01*
X39011493Y-2624318D01*
X39011492Y-2624314D01*
X38945600Y-2510186D01*
X38852414Y-2417000D01*
X38756457Y-2361599D01*
X38738290Y-2351110D01*
X38738281Y-2351106D01*
X38610994Y-2317000D01*
X38610992Y-2317000D01*
X38479208Y-2317000D01*
X38479206Y-2317000D01*
X38351918Y-2351106D01*
X38351909Y-2351110D01*
X38237785Y-2417000D01*
X38144596Y-2510190D01*
X38142398Y-2513055D01*
X38093345Y-2541368D01*
X38083695Y-2542000D01*
X30030524Y-2542000D01*
X29978198Y-2520326D01*
X29956524Y-2468000D01*
X29978198Y-2415674D01*
X29993521Y-2403916D01*
X29993899Y-2403697D01*
X29994414Y-2403400D01*
X30087600Y-2310214D01*
X30153492Y-2196086D01*
X30187599Y-2068794D01*
X30187600Y-2068794D01*
X30187600Y-1937006D01*
X30187599Y-1937005D01*
X30153493Y-1809718D01*
X30153492Y-1809714D01*
X30087600Y-1695586D01*
X29994414Y-1602400D01*
X29965451Y-1585678D01*
X29880290Y-1536510D01*
X29880281Y-1536506D01*
X29752994Y-1502400D01*
X29752992Y-1502400D01*
X29621208Y-1502400D01*
X29621206Y-1502400D01*
X29493918Y-1536506D01*
X29493909Y-1536510D01*
X29379785Y-1602400D01*
X29286600Y-1695585D01*
X29220710Y-1809709D01*
X29220706Y-1809718D01*
X29186600Y-1937005D01*
X29186600Y-2068794D01*
X29220706Y-2196081D01*
X29220710Y-2196090D01*
X29286600Y-2310214D01*
X29379786Y-2403400D01*
X29380679Y-2403916D01*
X29380995Y-2404327D01*
X29383633Y-2406352D01*
X29383090Y-2407059D01*
X29415155Y-2448850D01*
X29407760Y-2505003D01*
X29362826Y-2539479D01*
X29343676Y-2542000D01*
X22249300Y-2542000D01*
X22196974Y-2520326D01*
X22175300Y-2468000D01*
X22175300Y-2333406D01*
X22175299Y-2333405D01*
X22170903Y-2317000D01*
X22141192Y-2206114D01*
X22075300Y-2091986D01*
X21982114Y-1998800D01*
X21867990Y-1932910D01*
X21867981Y-1932906D01*
X21740694Y-1898800D01*
X21740692Y-1898800D01*
X21608908Y-1898800D01*
X21608906Y-1898800D01*
X21481618Y-1932906D01*
X21481609Y-1932910D01*
X21367485Y-1998800D01*
X21274300Y-2091985D01*
X21208410Y-2206109D01*
X21208406Y-2206118D01*
X21174300Y-2333405D01*
X14857955Y-2333405D01*
X14847663Y-1598105D01*
X17867300Y-1598105D01*
X17867300Y-1729894D01*
X17901406Y-1857181D01*
X17901407Y-1857184D01*
X17901408Y-1857186D01*
X17967300Y-1971314D01*
X18060486Y-2064500D01*
X18174614Y-2130392D01*
X18301905Y-2164499D01*
X18301906Y-2164500D01*
X18301908Y-2164500D01*
X18433694Y-2164500D01*
X18433694Y-2164499D01*
X18560986Y-2130392D01*
X18675114Y-2064500D01*
X18768300Y-1971314D01*
X18834192Y-1857186D01*
X18868299Y-1729894D01*
X18868300Y-1729894D01*
X18868300Y-1598106D01*
X18868299Y-1598105D01*
X18834193Y-1470818D01*
X18834192Y-1470814D01*
X18768300Y-1356686D01*
X18675114Y-1263500D01*
X18640281Y-1243389D01*
X18560990Y-1197610D01*
X18560981Y-1197606D01*
X18433694Y-1163500D01*
X18433692Y-1163500D01*
X18301908Y-1163500D01*
X18301906Y-1163500D01*
X18174618Y-1197606D01*
X18174609Y-1197610D01*
X18060485Y-1263500D01*
X17967300Y-1356685D01*
X17901410Y-1470809D01*
X17901406Y-1470818D01*
X17867300Y-1598105D01*
X14847663Y-1598105D01*
X14835247Y-711105D01*
X24004200Y-711105D01*
X24004200Y-842894D01*
X24038306Y-970181D01*
X24038307Y-970184D01*
X24038308Y-970186D01*
X24104200Y-1084314D01*
X24197386Y-1177500D01*
X24311514Y-1243392D01*
X24438805Y-1277499D01*
X24438806Y-1277500D01*
X24438808Y-1277500D01*
X24570594Y-1277500D01*
X24570594Y-1277499D01*
X24697886Y-1243392D01*
X24812014Y-1177500D01*
X24905200Y-1084314D01*
X24971092Y-970186D01*
X25005199Y-842894D01*
X25005200Y-842894D01*
X25005200Y-711106D01*
X25005199Y-711105D01*
X25003884Y-706199D01*
X24971092Y-583814D01*
X24905200Y-469686D01*
X24812014Y-376500D01*
X24697890Y-310610D01*
X24697881Y-310606D01*
X24570594Y-276500D01*
X24570592Y-276500D01*
X24438808Y-276500D01*
X24438806Y-276500D01*
X24311518Y-310606D01*
X24311509Y-310610D01*
X24197385Y-376500D01*
X24104200Y-469685D01*
X24038310Y-583809D01*
X24038306Y-583818D01*
X24004200Y-711105D01*
X14835247Y-711105D01*
X14827251Y-139805D01*
X28524300Y-139805D01*
X28524300Y-271594D01*
X28558406Y-398881D01*
X28558410Y-398890D01*
X28624300Y-513014D01*
X28717486Y-606200D01*
X28831614Y-672092D01*
X28958905Y-706199D01*
X28958906Y-706200D01*
X28958908Y-706200D01*
X29090694Y-706200D01*
X29090694Y-706199D01*
X29217986Y-672092D01*
X29332114Y-606200D01*
X29425300Y-513014D01*
X29491192Y-398886D01*
X29525299Y-271594D01*
X29525300Y-271594D01*
X29525300Y-139806D01*
X29525299Y-139805D01*
X29491193Y-12518D01*
X29491192Y-12514D01*
X29425300Y101614D01*
X29332114Y194800D01*
X29217986Y260692D01*
X29168595Y273926D01*
X29090694Y294800D01*
X29090692Y294800D01*
X28958908Y294800D01*
X28958906Y294800D01*
X28846654Y264722D01*
X28831614Y260692D01*
X28717486Y194800D01*
X28717485Y194799D01*
X28624300Y101614D01*
X28558410Y-12509D01*
X28558406Y-12518D01*
X28524300Y-139805D01*
X14827251Y-139805D01*
X14818231Y504594D01*
X21302000Y504594D01*
X21302000Y372805D01*
X21336106Y245518D01*
X21336110Y245509D01*
X21402000Y131385D01*
X21495185Y38200D01*
X21555759Y3228D01*
X21609314Y-27692D01*
X21736605Y-61799D01*
X21736606Y-61800D01*
X21736608Y-61800D01*
X21868394Y-61800D01*
X21868394Y-61799D01*
X21995686Y-27692D01*
X22109814Y38200D01*
X22203000Y131386D01*
X22268892Y245514D01*
X22302999Y372805D01*
X22303000Y372806D01*
X22303000Y504594D01*
X22282126Y582495D01*
X22268892Y631886D01*
X22203000Y746014D01*
X22109814Y839200D01*
X21995686Y905092D01*
X21946295Y918326D01*
X21922903Y924594D01*
X34574300Y924594D01*
X34574300Y792805D01*
X34608406Y665518D01*
X34608410Y665509D01*
X34674300Y551385D01*
X34767485Y458200D01*
X34881609Y392310D01*
X34881618Y392306D01*
X35008905Y358200D01*
X35008908Y358200D01*
X35140694Y358200D01*
X35267981Y392306D01*
X35267984Y392307D01*
X35267986Y392308D01*
X35267987Y392308D01*
X35267990Y392310D01*
X35382114Y458200D01*
X35475299Y551385D01*
X35541189Y665509D01*
X35541192Y665514D01*
X35575299Y792805D01*
X35575300Y792806D01*
X35575300Y924594D01*
X35541193Y1051881D01*
X35541192Y1051886D01*
X35517054Y1093694D01*
X41972400Y1093694D01*
X41972400Y961905D01*
X42006506Y834618D01*
X42006510Y834609D01*
X42072400Y720485D01*
X42165585Y627300D01*
X42279709Y561410D01*
X42279718Y561406D01*
X42407005Y527300D01*
X42407008Y527300D01*
X42538794Y527300D01*
X42666081Y561406D01*
X42666084Y561407D01*
X42666086Y561408D01*
X42666087Y561408D01*
X42666090Y561410D01*
X42780214Y627300D01*
X42873399Y720485D01*
X42888139Y746014D01*
X42939292Y834614D01*
X42973399Y961905D01*
X42973400Y961906D01*
X42973400Y1093694D01*
X42939293Y1220981D01*
X42939292Y1220986D01*
X42873400Y1335114D01*
X42780214Y1428300D01*
X42666086Y1494192D01*
X42616695Y1507426D01*
X42538794Y1528300D01*
X42538792Y1528300D01*
X42407008Y1528300D01*
X42407006Y1528300D01*
X42294754Y1498222D01*
X42279714Y1494192D01*
X42165586Y1428300D01*
X42165585Y1428299D01*
X42072400Y1335114D01*
X42006510Y1220990D01*
X42006506Y1220981D01*
X41972400Y1093694D01*
X35517054Y1093694D01*
X35475300Y1166014D01*
X35382114Y1259200D01*
X35267986Y1325092D01*
X35218595Y1338326D01*
X35140694Y1359200D01*
X35140692Y1359200D01*
X35008908Y1359200D01*
X35008906Y1359200D01*
X34919017Y1335114D01*
X34881614Y1325092D01*
X34767486Y1259200D01*
X34767485Y1259199D01*
X34674300Y1166014D01*
X34608410Y1051890D01*
X34608406Y1051881D01*
X34574300Y924594D01*
X21922903Y924594D01*
X21868394Y939200D01*
X21868392Y939200D01*
X21736608Y939200D01*
X21736606Y939200D01*
X21624354Y909122D01*
X21609314Y905092D01*
X21495186Y839200D01*
X21495185Y839199D01*
X21402000Y746014D01*
X21336110Y631890D01*
X21336106Y631881D01*
X21302000Y504594D01*
X14818231Y504594D01*
X14785739Y2825894D01*
X21302000Y2825894D01*
X21302000Y2694105D01*
X21336106Y2566818D01*
X21336110Y2566809D01*
X21402000Y2452685D01*
X21495185Y2359500D01*
X21609309Y2293610D01*
X21609318Y2293606D01*
X21736605Y2259500D01*
X21736608Y2259500D01*
X21868394Y2259500D01*
X21995681Y2293606D01*
X21995684Y2293607D01*
X21995686Y2293608D01*
X21995687Y2293608D01*
X21995690Y2293610D01*
X22109814Y2359500D01*
X22202999Y2452685D01*
X22239667Y2516194D01*
X29844900Y2516194D01*
X29844900Y2384405D01*
X29879006Y2257118D01*
X29879010Y2257109D01*
X29944900Y2142985D01*
X30038085Y2049800D01*
X30152209Y1983910D01*
X30152218Y1983906D01*
X30279505Y1949800D01*
X30279508Y1949800D01*
X30411294Y1949800D01*
X30538581Y1983906D01*
X30538584Y1983907D01*
X30538586Y1983908D01*
X30538587Y1983908D01*
X30538590Y1983910D01*
X30614945Y2027994D01*
X38459800Y2027994D01*
X38459800Y1896205D01*
X38493906Y1768918D01*
X38493910Y1768909D01*
X38559800Y1654785D01*
X38652985Y1561600D01*
X38767109Y1495710D01*
X38767118Y1495706D01*
X38894405Y1461600D01*
X38894408Y1461600D01*
X39026194Y1461600D01*
X39153481Y1495706D01*
X39153484Y1495707D01*
X39153486Y1495708D01*
X39153487Y1495708D01*
X39153490Y1495710D01*
X39267614Y1561600D01*
X39360799Y1654785D01*
X39375460Y1680177D01*
X39426692Y1768914D01*
X39460799Y1896205D01*
X39460800Y1896206D01*
X39460800Y2027994D01*
X39429988Y2142985D01*
X39426692Y2155286D01*
X39360800Y2269414D01*
X39267614Y2362600D01*
X39153486Y2428492D01*
X39104095Y2441726D01*
X39026194Y2462600D01*
X39026192Y2462600D01*
X38894408Y2462600D01*
X38894406Y2462600D01*
X38782154Y2432522D01*
X38767114Y2428492D01*
X38652986Y2362600D01*
X38652985Y2362599D01*
X38559800Y2269414D01*
X38493910Y2155290D01*
X38493906Y2155281D01*
X38459800Y2027994D01*
X30614945Y2027994D01*
X30652714Y2049800D01*
X30745899Y2142985D01*
X30752999Y2155281D01*
X30811792Y2257114D01*
X30845899Y2384405D01*
X30845900Y2384406D01*
X30845900Y2516194D01*
X30811793Y2643481D01*
X30811792Y2643486D01*
X30745900Y2757614D01*
X30652714Y2850800D01*
X30575995Y2895094D01*
X34898800Y2895094D01*
X34898800Y2763305D01*
X34932906Y2636018D01*
X34932910Y2636009D01*
X34998800Y2521885D01*
X35091985Y2428700D01*
X35206109Y2362810D01*
X35206118Y2362806D01*
X35333405Y2328700D01*
X35333408Y2328700D01*
X35465194Y2328700D01*
X35592481Y2362806D01*
X35592484Y2362807D01*
X35592486Y2362808D01*
X35592487Y2362808D01*
X35592490Y2362810D01*
X35706614Y2428700D01*
X35799799Y2521885D01*
X35801042Y2524037D01*
X35865692Y2636014D01*
X35899799Y2763305D01*
X35899800Y2763306D01*
X35899800Y2895094D01*
X35865693Y3022381D01*
X35865692Y3022386D01*
X35799800Y3136514D01*
X35706614Y3229700D01*
X35592486Y3295592D01*
X35543095Y3308826D01*
X35465194Y3329700D01*
X35465192Y3329700D01*
X35333408Y3329700D01*
X35333406Y3329700D01*
X35221154Y3299622D01*
X35206114Y3295592D01*
X35091986Y3229700D01*
X35091985Y3229699D01*
X34998800Y3136514D01*
X34932910Y3022390D01*
X34932906Y3022381D01*
X34898800Y2895094D01*
X30575995Y2895094D01*
X30538586Y2916692D01*
X30466154Y2936100D01*
X30411294Y2950800D01*
X30411292Y2950800D01*
X30279508Y2950800D01*
X30279506Y2950800D01*
X30167254Y2920722D01*
X30152214Y2916692D01*
X30038086Y2850800D01*
X30038085Y2850799D01*
X29944900Y2757614D01*
X29879010Y2643490D01*
X29879006Y2643481D01*
X29844900Y2516194D01*
X22239667Y2516194D01*
X22263828Y2558042D01*
X22268890Y2566811D01*
X22268892Y2566814D01*
X22302999Y2694105D01*
X22303000Y2694106D01*
X22303000Y2825894D01*
X22268893Y2953181D01*
X22268892Y2953186D01*
X22203000Y3067314D01*
X22109814Y3160500D01*
X21995686Y3226392D01*
X21932177Y3243409D01*
X21868394Y3260500D01*
X21868392Y3260500D01*
X21736608Y3260500D01*
X21736606Y3260500D01*
X21624354Y3230422D01*
X21609314Y3226392D01*
X21495186Y3160500D01*
X21495185Y3160499D01*
X21402000Y3067314D01*
X21336110Y2953190D01*
X21336106Y2953181D01*
X21302000Y2825894D01*
X14785739Y2825894D01*
X14776269Y3502494D01*
X18076900Y3502494D01*
X18076900Y3370705D01*
X18111006Y3243418D01*
X18111010Y3243409D01*
X18176900Y3129285D01*
X18270085Y3036100D01*
X18384209Y2970210D01*
X18384218Y2970206D01*
X18511505Y2936100D01*
X18511508Y2936100D01*
X18643294Y2936100D01*
X18770581Y2970206D01*
X18770584Y2970207D01*
X18770586Y2970208D01*
X18770587Y2970208D01*
X18770590Y2970210D01*
X18884714Y3036100D01*
X18977899Y3129285D01*
X18979737Y3132467D01*
X19043792Y3243414D01*
X19077899Y3370705D01*
X19077900Y3370706D01*
X19077900Y3502494D01*
X19043793Y3629781D01*
X19043792Y3629786D01*
X18977900Y3743914D01*
X18884714Y3837100D01*
X18770586Y3902992D01*
X18721195Y3916226D01*
X18643294Y3937100D01*
X18643292Y3937100D01*
X18511508Y3937100D01*
X18511506Y3937100D01*
X18399254Y3907022D01*
X18384214Y3902992D01*
X18270086Y3837100D01*
X18270085Y3837099D01*
X18176900Y3743914D01*
X18111010Y3629790D01*
X18111006Y3629781D01*
X18076900Y3502494D01*
X14776269Y3502494D01*
X14749148Y5440094D01*
X33949000Y5440094D01*
X33949000Y5308305D01*
X33983106Y5181018D01*
X33983110Y5181009D01*
X34049000Y5066885D01*
X34142185Y4973700D01*
X34256309Y4907810D01*
X34256318Y4907806D01*
X34383605Y4873700D01*
X34383608Y4873700D01*
X34515394Y4873700D01*
X34642681Y4907806D01*
X34642684Y4907807D01*
X34642686Y4907808D01*
X34642687Y4907808D01*
X34642690Y4907810D01*
X34756814Y4973700D01*
X34849999Y5066885D01*
X34915889Y5181009D01*
X34915892Y5181014D01*
X34949999Y5308305D01*
X34950000Y5308306D01*
X34950000Y5440094D01*
X34915893Y5567381D01*
X34915892Y5567386D01*
X34850000Y5681514D01*
X34756814Y5774700D01*
X34642686Y5840592D01*
X34593295Y5853826D01*
X34515394Y5874700D01*
X34515392Y5874700D01*
X34383608Y5874700D01*
X34383606Y5874700D01*
X34271354Y5844622D01*
X34256314Y5840592D01*
X34142186Y5774700D01*
X34142185Y5774699D01*
X34049000Y5681514D01*
X33983110Y5567390D01*
X33983106Y5567381D01*
X33949000Y5440094D01*
X14749148Y5440094D01*
X14740530Y6055794D01*
X28748600Y6055794D01*
X28748600Y5924005D01*
X28782706Y5796718D01*
X28782710Y5796709D01*
X28848600Y5682585D01*
X28941785Y5589400D01*
X29055909Y5523510D01*
X29055918Y5523506D01*
X29183205Y5489400D01*
X29183208Y5489400D01*
X29314994Y5489400D01*
X29415834Y5516420D01*
X29442281Y5523506D01*
X29442284Y5523507D01*
X29442286Y5523508D01*
X29442287Y5523508D01*
X29442290Y5523510D01*
X29556414Y5589400D01*
X29649599Y5682585D01*
X29660323Y5701158D01*
X29715492Y5796714D01*
X29749599Y5924005D01*
X29749600Y5924006D01*
X29749600Y6055794D01*
X29726168Y6143242D01*
X29715492Y6183086D01*
X29649600Y6297214D01*
X29556414Y6390400D01*
X29451527Y6450956D01*
X29451527Y6450957D01*
X29448160Y6452900D01*
X29442286Y6456292D01*
X29392895Y6469526D01*
X29314994Y6490400D01*
X29314992Y6490400D01*
X29183208Y6490400D01*
X29183206Y6490400D01*
X29070954Y6460322D01*
X29055914Y6456292D01*
X28941786Y6390400D01*
X28941785Y6390399D01*
X28848600Y6297214D01*
X28782710Y6183090D01*
X28782706Y6183081D01*
X28748600Y6055794D01*
X14740530Y6055794D01*
X14734170Y6510194D01*
X35603800Y6510194D01*
X35603800Y6378405D01*
X35637906Y6251118D01*
X35637910Y6251109D01*
X35703800Y6136985D01*
X35796985Y6043800D01*
X35911109Y5977910D01*
X35911118Y5977906D01*
X36038405Y5943800D01*
X36038408Y5943800D01*
X36170194Y5943800D01*
X36297481Y5977906D01*
X36297484Y5977907D01*
X36297486Y5977908D01*
X36297487Y5977908D01*
X36297490Y5977910D01*
X36366177Y6017567D01*
X39549500Y6017567D01*
X39549500Y5889432D01*
X39574497Y5763760D01*
X39574498Y5763757D01*
X39623533Y5645376D01*
X39694723Y5538831D01*
X39694725Y5538830D01*
X39785330Y5448225D01*
X39785331Y5448223D01*
X39891876Y5377033D01*
X40010257Y5327998D01*
X40010260Y5327997D01*
X40104726Y5309207D01*
X40135931Y5303000D01*
X40135933Y5303000D01*
X40264067Y5303000D01*
X40264069Y5303000D01*
X40299696Y5310086D01*
X40389739Y5327997D01*
X40389742Y5327998D01*
X40508123Y5377033D01*
X40508124Y5377033D01*
X40508127Y5377035D01*
X40614669Y5448224D01*
X40705276Y5538831D01*
X40776465Y5645373D01*
X40825501Y5763756D01*
X40850500Y5889431D01*
X40850500Y6017567D01*
X42549500Y6017567D01*
X42549500Y5889432D01*
X42574497Y5763760D01*
X42574498Y5763757D01*
X42623533Y5645376D01*
X42694723Y5538831D01*
X42694725Y5538830D01*
X42785330Y5448225D01*
X42785331Y5448223D01*
X42891876Y5377033D01*
X43010257Y5327998D01*
X43010260Y5327997D01*
X43104726Y5309207D01*
X43135931Y5303000D01*
X43135933Y5303000D01*
X43264067Y5303000D01*
X43264069Y5303000D01*
X43299696Y5310086D01*
X43389739Y5327997D01*
X43389742Y5327998D01*
X43508123Y5377033D01*
X43508124Y5377033D01*
X43508127Y5377035D01*
X43614669Y5448224D01*
X43705276Y5538831D01*
X43776465Y5645373D01*
X43825501Y5763756D01*
X43850500Y5889431D01*
X43850500Y6017569D01*
X43825501Y6143244D01*
X43776465Y6261627D01*
X43705276Y6368169D01*
X43614669Y6458776D01*
X43508127Y6529965D01*
X43389744Y6579001D01*
X43264069Y6604000D01*
X43135931Y6604000D01*
X43052903Y6587484D01*
X43010260Y6579002D01*
X43010258Y6579001D01*
X43010256Y6579001D01*
X42891873Y6529965D01*
X42785331Y6458776D01*
X42694724Y6368169D01*
X42623535Y6261627D01*
X42623533Y6261624D01*
X42623533Y6261623D01*
X42574498Y6143242D01*
X42574497Y6143239D01*
X42549500Y6017567D01*
X40850500Y6017567D01*
X40850500Y6017569D01*
X40825501Y6143244D01*
X40776465Y6261627D01*
X40705276Y6368169D01*
X40614669Y6458776D01*
X40508127Y6529965D01*
X40389744Y6579001D01*
X40264069Y6604000D01*
X40135931Y6604000D01*
X40052903Y6587484D01*
X40010260Y6579002D01*
X40010258Y6579001D01*
X40010256Y6579001D01*
X39891873Y6529965D01*
X39785331Y6458776D01*
X39694724Y6368169D01*
X39623535Y6261627D01*
X39623533Y6261624D01*
X39623533Y6261623D01*
X39574498Y6143242D01*
X39574497Y6143239D01*
X39549500Y6017567D01*
X36366177Y6017567D01*
X36411614Y6043800D01*
X36504799Y6136985D01*
X36570689Y6251109D01*
X36570692Y6251114D01*
X36604799Y6378405D01*
X36604800Y6378406D01*
X36604800Y6510194D01*
X36570693Y6637481D01*
X36570692Y6637486D01*
X36504800Y6751614D01*
X36411614Y6844800D01*
X36297486Y6910692D01*
X36248095Y6923926D01*
X36170194Y6944800D01*
X36170192Y6944800D01*
X36038408Y6944800D01*
X36038406Y6944800D01*
X35926154Y6914722D01*
X35911114Y6910692D01*
X35796986Y6844800D01*
X35796985Y6844799D01*
X35703800Y6751614D01*
X35637910Y6637490D01*
X35637906Y6637481D01*
X35603800Y6510194D01*
X14734170Y6510194D01*
X14651183Y12438916D01*
X14672123Y12491539D01*
X14724140Y12513944D01*
X14734024Y12513420D01*
G37*
%TD.AperFunction*%
%TD*%
M02*
