%TF.GenerationSoftware,KiCad,Pcbnew,10.0.6*%
%TF.CreationDate,2026-09-21T08:27:50+02:00*%
%TF.ProjectId,wherewatch-carrier,77686572-6577-4617-9463-682d63617272,rev?*%
%TF.SameCoordinates,Original*%
%TF.FileFunction,Legend,Bot*%
%TF.FilePolarity,Positive*%
%FSLAX46Y46*%
G04 Gerber Fmt 4.6, Leading zero omitted, Abs format (unit mm)*
G04 Created by KiCad (PCBNEW 10.0.6) date 2026-09-21 08:27:50*
%MOMM*%
%LPD*%
G01*
G04 APERTURE LIST*
%ADD10C,0.150000*%
%ADD11C,0.120000*%
%ADD12C,0.250000*%
%ADD13C,0.060000*%
G04 APERTURE END LIST*
D10*
X25224819Y-133333D02*
X24748628Y199999D01*
X25224819Y438094D02*
X24224819Y438094D01*
X24224819Y438094D02*
X24224819Y57142D01*
X24224819Y57142D02*
X24272438Y-38095D01*
X24272438Y-38095D02*
X24320057Y-85714D01*
X24320057Y-85714D02*
X24415295Y-133333D01*
X24415295Y-133333D02*
X24558152Y-133333D01*
X24558152Y-133333D02*
X24653390Y-85714D01*
X24653390Y-85714D02*
X24701009Y-38095D01*
X24701009Y-38095D02*
X24748628Y57142D01*
X24748628Y57142D02*
X24748628Y438094D01*
X24224819Y-990476D02*
X24224819Y-800000D01*
X24224819Y-800000D02*
X24272438Y-704762D01*
X24272438Y-704762D02*
X24320057Y-657143D01*
X24320057Y-657143D02*
X24462914Y-561905D01*
X24462914Y-561905D02*
X24653390Y-514286D01*
X24653390Y-514286D02*
X25034342Y-514286D01*
X25034342Y-514286D02*
X25129580Y-561905D01*
X25129580Y-561905D02*
X25177200Y-609524D01*
X25177200Y-609524D02*
X25224819Y-704762D01*
X25224819Y-704762D02*
X25224819Y-895238D01*
X25224819Y-895238D02*
X25177200Y-990476D01*
X25177200Y-990476D02*
X25129580Y-1038095D01*
X25129580Y-1038095D02*
X25034342Y-1085714D01*
X25034342Y-1085714D02*
X24796247Y-1085714D01*
X24796247Y-1085714D02*
X24701009Y-1038095D01*
X24701009Y-1038095D02*
X24653390Y-990476D01*
X24653390Y-990476D02*
X24605771Y-895238D01*
X24605771Y-895238D02*
X24605771Y-704762D01*
X24605771Y-704762D02*
X24653390Y-609524D01*
X24653390Y-609524D02*
X24701009Y-561905D01*
X24701009Y-561905D02*
X24796247Y-514286D01*
X34416666Y-11124819D02*
X34749999Y-10648628D01*
X34988094Y-11124819D02*
X34988094Y-10124819D01*
X34988094Y-10124819D02*
X34607142Y-10124819D01*
X34607142Y-10124819D02*
X34511904Y-10172438D01*
X34511904Y-10172438D02*
X34464285Y-10220057D01*
X34464285Y-10220057D02*
X34416666Y-10315295D01*
X34416666Y-10315295D02*
X34416666Y-10458152D01*
X34416666Y-10458152D02*
X34464285Y-10553390D01*
X34464285Y-10553390D02*
X34511904Y-10601009D01*
X34511904Y-10601009D02*
X34607142Y-10648628D01*
X34607142Y-10648628D02*
X34988094Y-10648628D01*
X33559523Y-10458152D02*
X33559523Y-11124819D01*
X33797618Y-10077200D02*
X34035713Y-10791485D01*
X34035713Y-10791485D02*
X33416666Y-10791485D01*
X19533333Y-10434819D02*
X19533333Y-11149104D01*
X19533333Y-11149104D02*
X19580952Y-11291961D01*
X19580952Y-11291961D02*
X19676190Y-11387200D01*
X19676190Y-11387200D02*
X19819047Y-11434819D01*
X19819047Y-11434819D02*
X19914285Y-11434819D01*
X18580952Y-10434819D02*
X19057142Y-10434819D01*
X19057142Y-10434819D02*
X19104761Y-10911009D01*
X19104761Y-10911009D02*
X19057142Y-10863390D01*
X19057142Y-10863390D02*
X18961904Y-10815771D01*
X18961904Y-10815771D02*
X18723809Y-10815771D01*
X18723809Y-10815771D02*
X18628571Y-10863390D01*
X18628571Y-10863390D02*
X18580952Y-10911009D01*
X18580952Y-10911009D02*
X18533333Y-11006247D01*
X18533333Y-11006247D02*
X18533333Y-11244342D01*
X18533333Y-11244342D02*
X18580952Y-11339580D01*
X18580952Y-11339580D02*
X18628571Y-11387200D01*
X18628571Y-11387200D02*
X18723809Y-11434819D01*
X18723809Y-11434819D02*
X18961904Y-11434819D01*
X18961904Y-11434819D02*
X19057142Y-11387200D01*
X19057142Y-11387200D02*
X19104761Y-11339580D01*
X24666666Y1230419D02*
X24714285Y1182800D01*
X24714285Y1182800D02*
X24857142Y1135180D01*
X24857142Y1135180D02*
X24952380Y1135180D01*
X24952380Y1135180D02*
X25095237Y1182800D01*
X25095237Y1182800D02*
X25190475Y1278038D01*
X25190475Y1278038D02*
X25238094Y1373276D01*
X25238094Y1373276D02*
X25285713Y1563752D01*
X25285713Y1563752D02*
X25285713Y1706609D01*
X25285713Y1706609D02*
X25238094Y1897085D01*
X25238094Y1897085D02*
X25190475Y1992323D01*
X25190475Y1992323D02*
X25095237Y2087561D01*
X25095237Y2087561D02*
X24952380Y2135180D01*
X24952380Y2135180D02*
X24857142Y2135180D01*
X24857142Y2135180D02*
X24714285Y2087561D01*
X24714285Y2087561D02*
X24666666Y2039942D01*
X23761904Y2135180D02*
X24238094Y2135180D01*
X24238094Y2135180D02*
X24285713Y1658990D01*
X24285713Y1658990D02*
X24238094Y1706609D01*
X24238094Y1706609D02*
X24142856Y1754228D01*
X24142856Y1754228D02*
X23904761Y1754228D01*
X23904761Y1754228D02*
X23809523Y1706609D01*
X23809523Y1706609D02*
X23761904Y1658990D01*
X23761904Y1658990D02*
X23714285Y1563752D01*
X23714285Y1563752D02*
X23714285Y1325657D01*
X23714285Y1325657D02*
X23761904Y1230419D01*
X23761904Y1230419D02*
X23809523Y1182800D01*
X23809523Y1182800D02*
X23904761Y1135180D01*
X23904761Y1135180D02*
X24142856Y1135180D01*
X24142856Y1135180D02*
X24238094Y1182800D01*
X24238094Y1182800D02*
X24285713Y1230419D01*
X43666666Y375180D02*
X43999999Y851371D01*
X44238094Y375180D02*
X44238094Y1375180D01*
X44238094Y1375180D02*
X43857142Y1375180D01*
X43857142Y1375180D02*
X43761904Y1327561D01*
X43761904Y1327561D02*
X43714285Y1279942D01*
X43714285Y1279942D02*
X43666666Y1184704D01*
X43666666Y1184704D02*
X43666666Y1041847D01*
X43666666Y1041847D02*
X43714285Y946609D01*
X43714285Y946609D02*
X43761904Y898990D01*
X43761904Y898990D02*
X43857142Y851371D01*
X43857142Y851371D02*
X44238094Y851371D01*
X42714285Y375180D02*
X43285713Y375180D01*
X42999999Y375180D02*
X42999999Y1375180D01*
X42999999Y1375180D02*
X43095237Y1232323D01*
X43095237Y1232323D02*
X43190475Y1137085D01*
X43190475Y1137085D02*
X43285713Y1089466D01*
X31166666Y-2789580D02*
X31214285Y-2837200D01*
X31214285Y-2837200D02*
X31357142Y-2884819D01*
X31357142Y-2884819D02*
X31452380Y-2884819D01*
X31452380Y-2884819D02*
X31595237Y-2837200D01*
X31595237Y-2837200D02*
X31690475Y-2741961D01*
X31690475Y-2741961D02*
X31738094Y-2646723D01*
X31738094Y-2646723D02*
X31785713Y-2456247D01*
X31785713Y-2456247D02*
X31785713Y-2313390D01*
X31785713Y-2313390D02*
X31738094Y-2122914D01*
X31738094Y-2122914D02*
X31690475Y-2027676D01*
X31690475Y-2027676D02*
X31595237Y-1932438D01*
X31595237Y-1932438D02*
X31452380Y-1884819D01*
X31452380Y-1884819D02*
X31357142Y-1884819D01*
X31357142Y-1884819D02*
X31214285Y-1932438D01*
X31214285Y-1932438D02*
X31166666Y-1980057D01*
X30785713Y-1980057D02*
X30738094Y-1932438D01*
X30738094Y-1932438D02*
X30642856Y-1884819D01*
X30642856Y-1884819D02*
X30404761Y-1884819D01*
X30404761Y-1884819D02*
X30309523Y-1932438D01*
X30309523Y-1932438D02*
X30261904Y-1980057D01*
X30261904Y-1980057D02*
X30214285Y-2075295D01*
X30214285Y-2075295D02*
X30214285Y-2170533D01*
X30214285Y-2170533D02*
X30261904Y-2313390D01*
X30261904Y-2313390D02*
X30833332Y-2884819D01*
X30833332Y-2884819D02*
X30214285Y-2884819D01*
X19666666Y-4374819D02*
X19999999Y-3898628D01*
X20238094Y-4374819D02*
X20238094Y-3374819D01*
X20238094Y-3374819D02*
X19857142Y-3374819D01*
X19857142Y-3374819D02*
X19761904Y-3422438D01*
X19761904Y-3422438D02*
X19714285Y-3470057D01*
X19714285Y-3470057D02*
X19666666Y-3565295D01*
X19666666Y-3565295D02*
X19666666Y-3708152D01*
X19666666Y-3708152D02*
X19714285Y-3803390D01*
X19714285Y-3803390D02*
X19761904Y-3851009D01*
X19761904Y-3851009D02*
X19857142Y-3898628D01*
X19857142Y-3898628D02*
X20238094Y-3898628D01*
X19333332Y-3374819D02*
X18666666Y-3374819D01*
X18666666Y-3374819D02*
X19095237Y-4374819D01*
X32916666Y-1124819D02*
X33249999Y-648628D01*
X33488094Y-1124819D02*
X33488094Y-124819D01*
X33488094Y-124819D02*
X33107142Y-124819D01*
X33107142Y-124819D02*
X33011904Y-172438D01*
X33011904Y-172438D02*
X32964285Y-220057D01*
X32964285Y-220057D02*
X32916666Y-315295D01*
X32916666Y-315295D02*
X32916666Y-458152D01*
X32916666Y-458152D02*
X32964285Y-553390D01*
X32964285Y-553390D02*
X33011904Y-601009D01*
X33011904Y-601009D02*
X33107142Y-648628D01*
X33107142Y-648628D02*
X33488094Y-648628D01*
X32535713Y-220057D02*
X32488094Y-172438D01*
X32488094Y-172438D02*
X32392856Y-124819D01*
X32392856Y-124819D02*
X32154761Y-124819D01*
X32154761Y-124819D02*
X32059523Y-172438D01*
X32059523Y-172438D02*
X32011904Y-220057D01*
X32011904Y-220057D02*
X31964285Y-315295D01*
X31964285Y-315295D02*
X31964285Y-410533D01*
X31964285Y-410533D02*
X32011904Y-553390D01*
X32011904Y-553390D02*
X32583332Y-1124819D01*
X32583332Y-1124819D02*
X31964285Y-1124819D01*
X36095238Y-2200057D02*
X36190476Y-2152438D01*
X36190476Y-2152438D02*
X36285714Y-2057200D01*
X36285714Y-2057200D02*
X36428571Y-1914342D01*
X36428571Y-1914342D02*
X36523809Y-1866723D01*
X36523809Y-1866723D02*
X36619047Y-1866723D01*
X36571428Y-2104819D02*
X36666666Y-2057200D01*
X36666666Y-2057200D02*
X36761904Y-1961961D01*
X36761904Y-1961961D02*
X36809523Y-1771485D01*
X36809523Y-1771485D02*
X36809523Y-1438152D01*
X36809523Y-1438152D02*
X36761904Y-1247676D01*
X36761904Y-1247676D02*
X36666666Y-1152438D01*
X36666666Y-1152438D02*
X36571428Y-1104819D01*
X36571428Y-1104819D02*
X36380952Y-1104819D01*
X36380952Y-1104819D02*
X36285714Y-1152438D01*
X36285714Y-1152438D02*
X36190476Y-1247676D01*
X36190476Y-1247676D02*
X36142857Y-1438152D01*
X36142857Y-1438152D02*
X36142857Y-1771485D01*
X36142857Y-1771485D02*
X36190476Y-1961961D01*
X36190476Y-1961961D02*
X36285714Y-2057200D01*
X36285714Y-2057200D02*
X36380952Y-2104819D01*
X36380952Y-2104819D02*
X36571428Y-2104819D01*
X35761904Y-1200057D02*
X35714285Y-1152438D01*
X35714285Y-1152438D02*
X35619047Y-1104819D01*
X35619047Y-1104819D02*
X35380952Y-1104819D01*
X35380952Y-1104819D02*
X35285714Y-1152438D01*
X35285714Y-1152438D02*
X35238095Y-1200057D01*
X35238095Y-1200057D02*
X35190476Y-1295295D01*
X35190476Y-1295295D02*
X35190476Y-1390533D01*
X35190476Y-1390533D02*
X35238095Y-1533390D01*
X35238095Y-1533390D02*
X35809523Y-2104819D01*
X35809523Y-2104819D02*
X35190476Y-2104819D01*
X31166666Y-4789580D02*
X31214285Y-4837200D01*
X31214285Y-4837200D02*
X31357142Y-4884819D01*
X31357142Y-4884819D02*
X31452380Y-4884819D01*
X31452380Y-4884819D02*
X31595237Y-4837200D01*
X31595237Y-4837200D02*
X31690475Y-4741961D01*
X31690475Y-4741961D02*
X31738094Y-4646723D01*
X31738094Y-4646723D02*
X31785713Y-4456247D01*
X31785713Y-4456247D02*
X31785713Y-4313390D01*
X31785713Y-4313390D02*
X31738094Y-4122914D01*
X31738094Y-4122914D02*
X31690475Y-4027676D01*
X31690475Y-4027676D02*
X31595237Y-3932438D01*
X31595237Y-3932438D02*
X31452380Y-3884819D01*
X31452380Y-3884819D02*
X31357142Y-3884819D01*
X31357142Y-3884819D02*
X31214285Y-3932438D01*
X31214285Y-3932438D02*
X31166666Y-3980057D01*
X30309523Y-3884819D02*
X30499999Y-3884819D01*
X30499999Y-3884819D02*
X30595237Y-3932438D01*
X30595237Y-3932438D02*
X30642856Y-3980057D01*
X30642856Y-3980057D02*
X30738094Y-4122914D01*
X30738094Y-4122914D02*
X30785713Y-4313390D01*
X30785713Y-4313390D02*
X30785713Y-4694342D01*
X30785713Y-4694342D02*
X30738094Y-4789580D01*
X30738094Y-4789580D02*
X30690475Y-4837200D01*
X30690475Y-4837200D02*
X30595237Y-4884819D01*
X30595237Y-4884819D02*
X30404761Y-4884819D01*
X30404761Y-4884819D02*
X30309523Y-4837200D01*
X30309523Y-4837200D02*
X30261904Y-4789580D01*
X30261904Y-4789580D02*
X30214285Y-4694342D01*
X30214285Y-4694342D02*
X30214285Y-4456247D01*
X30214285Y-4456247D02*
X30261904Y-4361009D01*
X30261904Y-4361009D02*
X30309523Y-4313390D01*
X30309523Y-4313390D02*
X30404761Y-4265771D01*
X30404761Y-4265771D02*
X30595237Y-4265771D01*
X30595237Y-4265771D02*
X30690475Y-4313390D01*
X30690475Y-4313390D02*
X30738094Y-4361009D01*
X30738094Y-4361009D02*
X30785713Y-4456247D01*
X27704404Y-4504819D02*
X27704404Y-5314342D01*
X27704404Y-5314342D02*
X27656785Y-5409580D01*
X27656785Y-5409580D02*
X27609166Y-5457200D01*
X27609166Y-5457200D02*
X27513928Y-5504819D01*
X27513928Y-5504819D02*
X27323452Y-5504819D01*
X27323452Y-5504819D02*
X27228214Y-5457200D01*
X27228214Y-5457200D02*
X27180595Y-5409580D01*
X27180595Y-5409580D02*
X27132976Y-5314342D01*
X27132976Y-5314342D02*
X27132976Y-4504819D01*
X26228214Y-4838152D02*
X26228214Y-5504819D01*
X26466309Y-4457200D02*
X26704404Y-5171485D01*
X26704404Y-5171485D02*
X26085357Y-5171485D01*
X21916666Y-2374819D02*
X22249999Y-1898628D01*
X22488094Y-2374819D02*
X22488094Y-1374819D01*
X22488094Y-1374819D02*
X22107142Y-1374819D01*
X22107142Y-1374819D02*
X22011904Y-1422438D01*
X22011904Y-1422438D02*
X21964285Y-1470057D01*
X21964285Y-1470057D02*
X21916666Y-1565295D01*
X21916666Y-1565295D02*
X21916666Y-1708152D01*
X21916666Y-1708152D02*
X21964285Y-1803390D01*
X21964285Y-1803390D02*
X22011904Y-1851009D01*
X22011904Y-1851009D02*
X22107142Y-1898628D01*
X22107142Y-1898628D02*
X22488094Y-1898628D01*
X21345237Y-1803390D02*
X21440475Y-1755771D01*
X21440475Y-1755771D02*
X21488094Y-1708152D01*
X21488094Y-1708152D02*
X21535713Y-1612914D01*
X21535713Y-1612914D02*
X21535713Y-1565295D01*
X21535713Y-1565295D02*
X21488094Y-1470057D01*
X21488094Y-1470057D02*
X21440475Y-1422438D01*
X21440475Y-1422438D02*
X21345237Y-1374819D01*
X21345237Y-1374819D02*
X21154761Y-1374819D01*
X21154761Y-1374819D02*
X21059523Y-1422438D01*
X21059523Y-1422438D02*
X21011904Y-1470057D01*
X21011904Y-1470057D02*
X20964285Y-1565295D01*
X20964285Y-1565295D02*
X20964285Y-1612914D01*
X20964285Y-1612914D02*
X21011904Y-1708152D01*
X21011904Y-1708152D02*
X21059523Y-1755771D01*
X21059523Y-1755771D02*
X21154761Y-1803390D01*
X21154761Y-1803390D02*
X21345237Y-1803390D01*
X21345237Y-1803390D02*
X21440475Y-1851009D01*
X21440475Y-1851009D02*
X21488094Y-1898628D01*
X21488094Y-1898628D02*
X21535713Y-1993866D01*
X21535713Y-1993866D02*
X21535713Y-2184342D01*
X21535713Y-2184342D02*
X21488094Y-2279580D01*
X21488094Y-2279580D02*
X21440475Y-2327200D01*
X21440475Y-2327200D02*
X21345237Y-2374819D01*
X21345237Y-2374819D02*
X21154761Y-2374819D01*
X21154761Y-2374819D02*
X21059523Y-2327200D01*
X21059523Y-2327200D02*
X21011904Y-2279580D01*
X21011904Y-2279580D02*
X20964285Y-2184342D01*
X20964285Y-2184342D02*
X20964285Y-1993866D01*
X20964285Y-1993866D02*
X21011904Y-1898628D01*
X21011904Y-1898628D02*
X21059523Y-1851009D01*
X21059523Y-1851009D02*
X21154761Y-1803390D01*
X29033333Y2365180D02*
X29033333Y1650895D01*
X29033333Y1650895D02*
X29080952Y1508038D01*
X29080952Y1508038D02*
X29176190Y1412800D01*
X29176190Y1412800D02*
X29319047Y1365180D01*
X29319047Y1365180D02*
X29414285Y1365180D01*
X28128571Y2031847D02*
X28128571Y1365180D01*
X28366666Y2412800D02*
X28604761Y1698514D01*
X28604761Y1698514D02*
X27985714Y1698514D01*
X41139404Y-1654819D02*
X41139404Y-2464342D01*
X41139404Y-2464342D02*
X41091785Y-2559580D01*
X41091785Y-2559580D02*
X41044166Y-2607200D01*
X41044166Y-2607200D02*
X40948928Y-2654819D01*
X40948928Y-2654819D02*
X40758452Y-2654819D01*
X40758452Y-2654819D02*
X40663214Y-2607200D01*
X40663214Y-2607200D02*
X40615595Y-2559580D01*
X40615595Y-2559580D02*
X40567976Y-2464342D01*
X40567976Y-2464342D02*
X40567976Y-1654819D01*
X40139404Y-1750057D02*
X40091785Y-1702438D01*
X40091785Y-1702438D02*
X39996547Y-1654819D01*
X39996547Y-1654819D02*
X39758452Y-1654819D01*
X39758452Y-1654819D02*
X39663214Y-1702438D01*
X39663214Y-1702438D02*
X39615595Y-1750057D01*
X39615595Y-1750057D02*
X39567976Y-1845295D01*
X39567976Y-1845295D02*
X39567976Y-1940533D01*
X39567976Y-1940533D02*
X39615595Y-2083390D01*
X39615595Y-2083390D02*
X40187023Y-2654819D01*
X40187023Y-2654819D02*
X39567976Y-2654819D01*
X35345238Y2549942D02*
X35440476Y2597561D01*
X35440476Y2597561D02*
X35535714Y2692800D01*
X35535714Y2692800D02*
X35678571Y2835657D01*
X35678571Y2835657D02*
X35773809Y2883276D01*
X35773809Y2883276D02*
X35869047Y2883276D01*
X35821428Y2645180D02*
X35916666Y2692800D01*
X35916666Y2692800D02*
X36011904Y2788038D01*
X36011904Y2788038D02*
X36059523Y2978514D01*
X36059523Y2978514D02*
X36059523Y3311847D01*
X36059523Y3311847D02*
X36011904Y3502323D01*
X36011904Y3502323D02*
X35916666Y3597561D01*
X35916666Y3597561D02*
X35821428Y3645180D01*
X35821428Y3645180D02*
X35630952Y3645180D01*
X35630952Y3645180D02*
X35535714Y3597561D01*
X35535714Y3597561D02*
X35440476Y3502323D01*
X35440476Y3502323D02*
X35392857Y3311847D01*
X35392857Y3311847D02*
X35392857Y2978514D01*
X35392857Y2978514D02*
X35440476Y2788038D01*
X35440476Y2788038D02*
X35535714Y2692800D01*
X35535714Y2692800D02*
X35630952Y2645180D01*
X35630952Y2645180D02*
X35821428Y2645180D01*
X34440476Y2645180D02*
X35011904Y2645180D01*
X34726190Y2645180D02*
X34726190Y3645180D01*
X34726190Y3645180D02*
X34821428Y3502323D01*
X34821428Y3502323D02*
X34916666Y3407085D01*
X34916666Y3407085D02*
X35011904Y3359466D01*
X48208333Y-2654819D02*
X48208333Y-3369104D01*
X48208333Y-3369104D02*
X48255952Y-3511961D01*
X48255952Y-3511961D02*
X48351190Y-3607200D01*
X48351190Y-3607200D02*
X48494047Y-3654819D01*
X48494047Y-3654819D02*
X48589285Y-3654819D01*
X47827380Y-2654819D02*
X47208333Y-2654819D01*
X47208333Y-2654819D02*
X47541666Y-3035771D01*
X47541666Y-3035771D02*
X47398809Y-3035771D01*
X47398809Y-3035771D02*
X47303571Y-3083390D01*
X47303571Y-3083390D02*
X47255952Y-3131009D01*
X47255952Y-3131009D02*
X47208333Y-3226247D01*
X47208333Y-3226247D02*
X47208333Y-3464342D01*
X47208333Y-3464342D02*
X47255952Y-3559580D01*
X47255952Y-3559580D02*
X47303571Y-3607200D01*
X47303571Y-3607200D02*
X47398809Y-3654819D01*
X47398809Y-3654819D02*
X47684523Y-3654819D01*
X47684523Y-3654819D02*
X47779761Y-3607200D01*
X47779761Y-3607200D02*
X47827380Y-3559580D01*
X23166666Y-4374819D02*
X23499999Y-3898628D01*
X23738094Y-4374819D02*
X23738094Y-3374819D01*
X23738094Y-3374819D02*
X23357142Y-3374819D01*
X23357142Y-3374819D02*
X23261904Y-3422438D01*
X23261904Y-3422438D02*
X23214285Y-3470057D01*
X23214285Y-3470057D02*
X23166666Y-3565295D01*
X23166666Y-3565295D02*
X23166666Y-3708152D01*
X23166666Y-3708152D02*
X23214285Y-3803390D01*
X23214285Y-3803390D02*
X23261904Y-3851009D01*
X23261904Y-3851009D02*
X23357142Y-3898628D01*
X23357142Y-3898628D02*
X23738094Y-3898628D01*
X22690475Y-4374819D02*
X22499999Y-4374819D01*
X22499999Y-4374819D02*
X22404761Y-4327200D01*
X22404761Y-4327200D02*
X22357142Y-4279580D01*
X22357142Y-4279580D02*
X22261904Y-4136723D01*
X22261904Y-4136723D02*
X22214285Y-3946247D01*
X22214285Y-3946247D02*
X22214285Y-3565295D01*
X22214285Y-3565295D02*
X22261904Y-3470057D01*
X22261904Y-3470057D02*
X22309523Y-3422438D01*
X22309523Y-3422438D02*
X22404761Y-3374819D01*
X22404761Y-3374819D02*
X22595237Y-3374819D01*
X22595237Y-3374819D02*
X22690475Y-3422438D01*
X22690475Y-3422438D02*
X22738094Y-3470057D01*
X22738094Y-3470057D02*
X22785713Y-3565295D01*
X22785713Y-3565295D02*
X22785713Y-3803390D01*
X22785713Y-3803390D02*
X22738094Y-3898628D01*
X22738094Y-3898628D02*
X22690475Y-3946247D01*
X22690475Y-3946247D02*
X22595237Y-3993866D01*
X22595237Y-3993866D02*
X22404761Y-3993866D01*
X22404761Y-3993866D02*
X22309523Y-3946247D01*
X22309523Y-3946247D02*
X22261904Y-3898628D01*
X22261904Y-3898628D02*
X22214285Y-3803390D01*
X17345238Y-1450057D02*
X17440476Y-1402438D01*
X17440476Y-1402438D02*
X17535714Y-1307200D01*
X17535714Y-1307200D02*
X17678571Y-1164342D01*
X17678571Y-1164342D02*
X17773809Y-1116723D01*
X17773809Y-1116723D02*
X17869047Y-1116723D01*
X17821428Y-1354819D02*
X17916666Y-1307200D01*
X17916666Y-1307200D02*
X18011904Y-1211961D01*
X18011904Y-1211961D02*
X18059523Y-1021485D01*
X18059523Y-1021485D02*
X18059523Y-688152D01*
X18059523Y-688152D02*
X18011904Y-497676D01*
X18011904Y-497676D02*
X17916666Y-402438D01*
X17916666Y-402438D02*
X17821428Y-354819D01*
X17821428Y-354819D02*
X17630952Y-354819D01*
X17630952Y-354819D02*
X17535714Y-402438D01*
X17535714Y-402438D02*
X17440476Y-497676D01*
X17440476Y-497676D02*
X17392857Y-688152D01*
X17392857Y-688152D02*
X17392857Y-1021485D01*
X17392857Y-1021485D02*
X17440476Y-1211961D01*
X17440476Y-1211961D02*
X17535714Y-1307200D01*
X17535714Y-1307200D02*
X17630952Y-1354819D01*
X17630952Y-1354819D02*
X17821428Y-1354819D01*
X17059523Y-354819D02*
X16440476Y-354819D01*
X16440476Y-354819D02*
X16773809Y-735771D01*
X16773809Y-735771D02*
X16630952Y-735771D01*
X16630952Y-735771D02*
X16535714Y-783390D01*
X16535714Y-783390D02*
X16488095Y-831009D01*
X16488095Y-831009D02*
X16440476Y-926247D01*
X16440476Y-926247D02*
X16440476Y-1164342D01*
X16440476Y-1164342D02*
X16488095Y-1259580D01*
X16488095Y-1259580D02*
X16535714Y-1307200D01*
X16535714Y-1307200D02*
X16630952Y-1354819D01*
X16630952Y-1354819D02*
X16916666Y-1354819D01*
X16916666Y-1354819D02*
X17011904Y-1307200D01*
X17011904Y-1307200D02*
X17059523Y-1259580D01*
X27416666Y-874819D02*
X27749999Y-398628D01*
X27988094Y-874819D02*
X27988094Y125180D01*
X27988094Y125180D02*
X27607142Y125180D01*
X27607142Y125180D02*
X27511904Y77561D01*
X27511904Y77561D02*
X27464285Y29942D01*
X27464285Y29942D02*
X27416666Y-65295D01*
X27416666Y-65295D02*
X27416666Y-208152D01*
X27416666Y-208152D02*
X27464285Y-303390D01*
X27464285Y-303390D02*
X27511904Y-351009D01*
X27511904Y-351009D02*
X27607142Y-398628D01*
X27607142Y-398628D02*
X27988094Y-398628D01*
X26511904Y125180D02*
X26988094Y125180D01*
X26988094Y125180D02*
X27035713Y-351009D01*
X27035713Y-351009D02*
X26988094Y-303390D01*
X26988094Y-303390D02*
X26892856Y-255771D01*
X26892856Y-255771D02*
X26654761Y-255771D01*
X26654761Y-255771D02*
X26559523Y-303390D01*
X26559523Y-303390D02*
X26511904Y-351009D01*
X26511904Y-351009D02*
X26464285Y-446247D01*
X26464285Y-446247D02*
X26464285Y-684342D01*
X26464285Y-684342D02*
X26511904Y-779580D01*
X26511904Y-779580D02*
X26559523Y-827200D01*
X26559523Y-827200D02*
X26654761Y-874819D01*
X26654761Y-874819D02*
X26892856Y-874819D01*
X26892856Y-874819D02*
X26988094Y-827200D01*
X26988094Y-827200D02*
X27035713Y-779580D01*
X22392857Y-12874819D02*
X22726190Y-12398628D01*
X22964285Y-12874819D02*
X22964285Y-11874819D01*
X22964285Y-11874819D02*
X22583333Y-11874819D01*
X22583333Y-11874819D02*
X22488095Y-11922438D01*
X22488095Y-11922438D02*
X22440476Y-11970057D01*
X22440476Y-11970057D02*
X22392857Y-12065295D01*
X22392857Y-12065295D02*
X22392857Y-12208152D01*
X22392857Y-12208152D02*
X22440476Y-12303390D01*
X22440476Y-12303390D02*
X22488095Y-12351009D01*
X22488095Y-12351009D02*
X22583333Y-12398628D01*
X22583333Y-12398628D02*
X22964285Y-12398628D01*
X21440476Y-12874819D02*
X22011904Y-12874819D01*
X21726190Y-12874819D02*
X21726190Y-11874819D01*
X21726190Y-11874819D02*
X21821428Y-12017676D01*
X21821428Y-12017676D02*
X21916666Y-12112914D01*
X21916666Y-12112914D02*
X22011904Y-12160533D01*
X20488095Y-12874819D02*
X21059523Y-12874819D01*
X20773809Y-12874819D02*
X20773809Y-11874819D01*
X20773809Y-11874819D02*
X20869047Y-12017676D01*
X20869047Y-12017676D02*
X20964285Y-12112914D01*
X20964285Y-12112914D02*
X21059523Y-12160533D01*
X30166666Y-789580D02*
X30214285Y-837200D01*
X30214285Y-837200D02*
X30357142Y-884819D01*
X30357142Y-884819D02*
X30452380Y-884819D01*
X30452380Y-884819D02*
X30595237Y-837200D01*
X30595237Y-837200D02*
X30690475Y-741961D01*
X30690475Y-741961D02*
X30738094Y-646723D01*
X30738094Y-646723D02*
X30785713Y-456247D01*
X30785713Y-456247D02*
X30785713Y-313390D01*
X30785713Y-313390D02*
X30738094Y-122914D01*
X30738094Y-122914D02*
X30690475Y-27676D01*
X30690475Y-27676D02*
X30595237Y67561D01*
X30595237Y67561D02*
X30452380Y115180D01*
X30452380Y115180D02*
X30357142Y115180D01*
X30357142Y115180D02*
X30214285Y67561D01*
X30214285Y67561D02*
X30166666Y19942D01*
X29214285Y-884819D02*
X29785713Y-884819D01*
X29499999Y-884819D02*
X29499999Y115180D01*
X29499999Y115180D02*
X29595237Y-27676D01*
X29595237Y-27676D02*
X29690475Y-122914D01*
X29690475Y-122914D02*
X29785713Y-170533D01*
X17416666Y-4269580D02*
X17464285Y-4317200D01*
X17464285Y-4317200D02*
X17607142Y-4364819D01*
X17607142Y-4364819D02*
X17702380Y-4364819D01*
X17702380Y-4364819D02*
X17845237Y-4317200D01*
X17845237Y-4317200D02*
X17940475Y-4221961D01*
X17940475Y-4221961D02*
X17988094Y-4126723D01*
X17988094Y-4126723D02*
X18035713Y-3936247D01*
X18035713Y-3936247D02*
X18035713Y-3793390D01*
X18035713Y-3793390D02*
X17988094Y-3602914D01*
X17988094Y-3602914D02*
X17940475Y-3507676D01*
X17940475Y-3507676D02*
X17845237Y-3412438D01*
X17845237Y-3412438D02*
X17702380Y-3364819D01*
X17702380Y-3364819D02*
X17607142Y-3364819D01*
X17607142Y-3364819D02*
X17464285Y-3412438D01*
X17464285Y-3412438D02*
X17416666Y-3460057D01*
X16559523Y-3698152D02*
X16559523Y-4364819D01*
X16797618Y-3317200D02*
X17035713Y-4031485D01*
X17035713Y-4031485D02*
X16416666Y-4031485D01*
X33392857Y125180D02*
X33726190Y601371D01*
X33964285Y125180D02*
X33964285Y1125180D01*
X33964285Y1125180D02*
X33583333Y1125180D01*
X33583333Y1125180D02*
X33488095Y1077561D01*
X33488095Y1077561D02*
X33440476Y1029942D01*
X33440476Y1029942D02*
X33392857Y934704D01*
X33392857Y934704D02*
X33392857Y791847D01*
X33392857Y791847D02*
X33440476Y696609D01*
X33440476Y696609D02*
X33488095Y648990D01*
X33488095Y648990D02*
X33583333Y601371D01*
X33583333Y601371D02*
X33964285Y601371D01*
X32440476Y125180D02*
X33011904Y125180D01*
X32726190Y125180D02*
X32726190Y1125180D01*
X32726190Y1125180D02*
X32821428Y982323D01*
X32821428Y982323D02*
X32916666Y887085D01*
X32916666Y887085D02*
X33011904Y839466D01*
X31821428Y1125180D02*
X31726190Y1125180D01*
X31726190Y1125180D02*
X31630952Y1077561D01*
X31630952Y1077561D02*
X31583333Y1029942D01*
X31583333Y1029942D02*
X31535714Y934704D01*
X31535714Y934704D02*
X31488095Y744228D01*
X31488095Y744228D02*
X31488095Y506133D01*
X31488095Y506133D02*
X31535714Y315657D01*
X31535714Y315657D02*
X31583333Y220419D01*
X31583333Y220419D02*
X31630952Y172800D01*
X31630952Y172800D02*
X31726190Y125180D01*
X31726190Y125180D02*
X31821428Y125180D01*
X31821428Y125180D02*
X31916666Y172800D01*
X31916666Y172800D02*
X31964285Y220419D01*
X31964285Y220419D02*
X32011904Y315657D01*
X32011904Y315657D02*
X32059523Y506133D01*
X32059523Y506133D02*
X32059523Y744228D01*
X32059523Y744228D02*
X32011904Y934704D01*
X32011904Y934704D02*
X31964285Y1029942D01*
X31964285Y1029942D02*
X31916666Y1077561D01*
X31916666Y1077561D02*
X31821428Y1125180D01*
X35260594Y6295180D02*
X35260594Y7295180D01*
X35260594Y7295180D02*
X35022499Y7295180D01*
X35022499Y7295180D02*
X34879642Y7247561D01*
X34879642Y7247561D02*
X34784404Y7152323D01*
X34784404Y7152323D02*
X34736785Y7057085D01*
X34736785Y7057085D02*
X34689166Y6866609D01*
X34689166Y6866609D02*
X34689166Y6723752D01*
X34689166Y6723752D02*
X34736785Y6533276D01*
X34736785Y6533276D02*
X34784404Y6438038D01*
X34784404Y6438038D02*
X34879642Y6342800D01*
X34879642Y6342800D02*
X35022499Y6295180D01*
X35022499Y6295180D02*
X35260594Y6295180D01*
X33736785Y6295180D02*
X34308213Y6295180D01*
X34022499Y6295180D02*
X34022499Y7295180D01*
X34022499Y7295180D02*
X34117737Y7152323D01*
X34117737Y7152323D02*
X34212975Y7057085D01*
X34212975Y7057085D02*
X34308213Y7009466D01*
X19533333Y3565180D02*
X19533333Y2850895D01*
X19533333Y2850895D02*
X19580952Y2708038D01*
X19580952Y2708038D02*
X19676190Y2612800D01*
X19676190Y2612800D02*
X19819047Y2565180D01*
X19819047Y2565180D02*
X19914285Y2565180D01*
X18533333Y2565180D02*
X19104761Y2565180D01*
X18819047Y2565180D02*
X18819047Y3565180D01*
X18819047Y3565180D02*
X18914285Y3422323D01*
X18914285Y3422323D02*
X19009523Y3327085D01*
X19009523Y3327085D02*
X19104761Y3279466D01*
X30033332Y-11957200D02*
X29890475Y-12004819D01*
X29890475Y-12004819D02*
X29652380Y-12004819D01*
X29652380Y-12004819D02*
X29557142Y-11957200D01*
X29557142Y-11957200D02*
X29509523Y-11909580D01*
X29509523Y-11909580D02*
X29461904Y-11814342D01*
X29461904Y-11814342D02*
X29461904Y-11719104D01*
X29461904Y-11719104D02*
X29509523Y-11623866D01*
X29509523Y-11623866D02*
X29557142Y-11576247D01*
X29557142Y-11576247D02*
X29652380Y-11528628D01*
X29652380Y-11528628D02*
X29842856Y-11481009D01*
X29842856Y-11481009D02*
X29938094Y-11433390D01*
X29938094Y-11433390D02*
X29985713Y-11385771D01*
X29985713Y-11385771D02*
X30033332Y-11290533D01*
X30033332Y-11290533D02*
X30033332Y-11195295D01*
X30033332Y-11195295D02*
X29985713Y-11100057D01*
X29985713Y-11100057D02*
X29938094Y-11052438D01*
X29938094Y-11052438D02*
X29842856Y-11004819D01*
X29842856Y-11004819D02*
X29604761Y-11004819D01*
X29604761Y-11004819D02*
X29461904Y-11052438D01*
X29128570Y-11004819D02*
X28890475Y-12004819D01*
X28890475Y-12004819D02*
X28699999Y-11290533D01*
X28699999Y-11290533D02*
X28509523Y-12004819D01*
X28509523Y-12004819D02*
X28271428Y-11004819D01*
X27938094Y-11100057D02*
X27890475Y-11052438D01*
X27890475Y-11052438D02*
X27795237Y-11004819D01*
X27795237Y-11004819D02*
X27557142Y-11004819D01*
X27557142Y-11004819D02*
X27461904Y-11052438D01*
X27461904Y-11052438D02*
X27414285Y-11100057D01*
X27414285Y-11100057D02*
X27366666Y-11195295D01*
X27366666Y-11195295D02*
X27366666Y-11290533D01*
X27366666Y-11290533D02*
X27414285Y-11433390D01*
X27414285Y-11433390D02*
X27985713Y-12004819D01*
X27985713Y-12004819D02*
X27366666Y-12004819D01*
X37533333Y-8834819D02*
X37533333Y-9549104D01*
X37533333Y-9549104D02*
X37580952Y-9691961D01*
X37580952Y-9691961D02*
X37676190Y-9787200D01*
X37676190Y-9787200D02*
X37819047Y-9834819D01*
X37819047Y-9834819D02*
X37914285Y-9834819D01*
X36628571Y-8834819D02*
X36819047Y-8834819D01*
X36819047Y-8834819D02*
X36914285Y-8882438D01*
X36914285Y-8882438D02*
X36961904Y-8930057D01*
X36961904Y-8930057D02*
X37057142Y-9072914D01*
X37057142Y-9072914D02*
X37104761Y-9263390D01*
X37104761Y-9263390D02*
X37104761Y-9644342D01*
X37104761Y-9644342D02*
X37057142Y-9739580D01*
X37057142Y-9739580D02*
X37009523Y-9787200D01*
X37009523Y-9787200D02*
X36914285Y-9834819D01*
X36914285Y-9834819D02*
X36723809Y-9834819D01*
X36723809Y-9834819D02*
X36628571Y-9787200D01*
X36628571Y-9787200D02*
X36580952Y-9739580D01*
X36580952Y-9739580D02*
X36533333Y-9644342D01*
X36533333Y-9644342D02*
X36533333Y-9406247D01*
X36533333Y-9406247D02*
X36580952Y-9311009D01*
X36580952Y-9311009D02*
X36628571Y-9263390D01*
X36628571Y-9263390D02*
X36723809Y-9215771D01*
X36723809Y-9215771D02*
X36914285Y-9215771D01*
X36914285Y-9215771D02*
X37009523Y-9263390D01*
X37009523Y-9263390D02*
X37057142Y-9311009D01*
X37057142Y-9311009D02*
X37104761Y-9406247D01*
X25166666Y-19580D02*
X25214285Y-67200D01*
X25214285Y-67200D02*
X25357142Y-114819D01*
X25357142Y-114819D02*
X25452380Y-114819D01*
X25452380Y-114819D02*
X25595237Y-67200D01*
X25595237Y-67200D02*
X25690475Y28038D01*
X25690475Y28038D02*
X25738094Y123276D01*
X25738094Y123276D02*
X25785713Y313752D01*
X25785713Y313752D02*
X25785713Y456609D01*
X25785713Y456609D02*
X25738094Y647085D01*
X25738094Y647085D02*
X25690475Y742323D01*
X25690475Y742323D02*
X25595237Y837561D01*
X25595237Y837561D02*
X25452380Y885180D01*
X25452380Y885180D02*
X25357142Y885180D01*
X25357142Y885180D02*
X25214285Y837561D01*
X25214285Y837561D02*
X25166666Y789942D01*
X24833332Y885180D02*
X24214285Y885180D01*
X24214285Y885180D02*
X24547618Y504228D01*
X24547618Y504228D02*
X24404761Y504228D01*
X24404761Y504228D02*
X24309523Y456609D01*
X24309523Y456609D02*
X24261904Y408990D01*
X24261904Y408990D02*
X24214285Y313752D01*
X24214285Y313752D02*
X24214285Y75657D01*
X24214285Y75657D02*
X24261904Y-19580D01*
X24261904Y-19580D02*
X24309523Y-67200D01*
X24309523Y-67200D02*
X24404761Y-114819D01*
X24404761Y-114819D02*
X24690475Y-114819D01*
X24690475Y-114819D02*
X24785713Y-67200D01*
X24785713Y-67200D02*
X24833332Y-19580D01*
X21624819Y-533333D02*
X21148628Y-200000D01*
X21624819Y38094D02*
X20624819Y38094D01*
X20624819Y38094D02*
X20624819Y-342857D01*
X20624819Y-342857D02*
X20672438Y-438095D01*
X20672438Y-438095D02*
X20720057Y-485714D01*
X20720057Y-485714D02*
X20815295Y-533333D01*
X20815295Y-533333D02*
X20958152Y-533333D01*
X20958152Y-533333D02*
X21053390Y-485714D01*
X21053390Y-485714D02*
X21101009Y-438095D01*
X21101009Y-438095D02*
X21148628Y-342857D01*
X21148628Y-342857D02*
X21148628Y38094D01*
X20624819Y-866667D02*
X20624819Y-1485714D01*
X20624819Y-1485714D02*
X21005771Y-1152381D01*
X21005771Y-1152381D02*
X21005771Y-1295238D01*
X21005771Y-1295238D02*
X21053390Y-1390476D01*
X21053390Y-1390476D02*
X21101009Y-1438095D01*
X21101009Y-1438095D02*
X21196247Y-1485714D01*
X21196247Y-1485714D02*
X21434342Y-1485714D01*
X21434342Y-1485714D02*
X21529580Y-1438095D01*
X21529580Y-1438095D02*
X21577200Y-1390476D01*
X21577200Y-1390476D02*
X21624819Y-1295238D01*
X21624819Y-1295238D02*
X21624819Y-1009524D01*
X21624819Y-1009524D02*
X21577200Y-914286D01*
X21577200Y-914286D02*
X21529580Y-866667D01*
X43033332Y-703700D02*
X42890475Y-751319D01*
X42890475Y-751319D02*
X42652380Y-751319D01*
X42652380Y-751319D02*
X42557142Y-703700D01*
X42557142Y-703700D02*
X42509523Y-656080D01*
X42509523Y-656080D02*
X42461904Y-560842D01*
X42461904Y-560842D02*
X42461904Y-465604D01*
X42461904Y-465604D02*
X42509523Y-370366D01*
X42509523Y-370366D02*
X42557142Y-322747D01*
X42557142Y-322747D02*
X42652380Y-275128D01*
X42652380Y-275128D02*
X42842856Y-227509D01*
X42842856Y-227509D02*
X42938094Y-179890D01*
X42938094Y-179890D02*
X42985713Y-132271D01*
X42985713Y-132271D02*
X43033332Y-37033D01*
X43033332Y-37033D02*
X43033332Y58204D01*
X43033332Y58204D02*
X42985713Y153442D01*
X42985713Y153442D02*
X42938094Y201061D01*
X42938094Y201061D02*
X42842856Y248680D01*
X42842856Y248680D02*
X42604761Y248680D01*
X42604761Y248680D02*
X42461904Y201061D01*
X42128570Y248680D02*
X41890475Y-751319D01*
X41890475Y-751319D02*
X41699999Y-37033D01*
X41699999Y-37033D02*
X41509523Y-751319D01*
X41509523Y-751319D02*
X41271428Y248680D01*
X40366666Y-751319D02*
X40938094Y-751319D01*
X40652380Y-751319D02*
X40652380Y248680D01*
X40652380Y248680D02*
X40747618Y105823D01*
X40747618Y105823D02*
X40842856Y10585D01*
X40842856Y10585D02*
X40938094Y-37033D01*
%TO.C,R6*%
D11*
X23220000Y-453641D02*
X23220000Y-146359D01*
X23980000Y-453641D02*
X23980000Y-146359D01*
%TO.C,R4*%
X34096359Y-9120000D02*
X34403641Y-9120000D01*
X34096359Y-9880000D02*
X34403641Y-9880000D01*
%TO.C,J5*%
X17090000Y-6285000D02*
X17090000Y-8785000D01*
X17090000Y-8785000D02*
X18140000Y-8785000D01*
X18140000Y-8785000D02*
X18140000Y-9775000D01*
X18260000Y-4315000D02*
X20140000Y-4315000D01*
X21310000Y-6285000D02*
X21310000Y-8785000D01*
X21310000Y-8785000D02*
X20260000Y-8785000D01*
%TO.C,C5*%
X24392164Y3110000D02*
X24607836Y3110000D01*
X24392164Y2390000D02*
X24607836Y2390000D01*
%TO.C,R1*%
X43346359Y2380000D02*
X43653641Y2380000D01*
X43346359Y1620000D02*
X43653641Y1620000D01*
%TO.C,C2*%
X30859420Y-490000D02*
X31140580Y-490000D01*
X30859420Y-1510000D02*
X31140580Y-1510000D01*
%TO.C,R7*%
X19346359Y-2370000D02*
X19653641Y-2370000D01*
X19346359Y-3130000D02*
X19653641Y-3130000D01*
%TO.C,R2*%
X32596359Y880000D02*
X32903641Y880000D01*
X32596359Y120000D02*
X32903641Y120000D01*
%TO.C,Q2*%
X35240000Y2310000D02*
X35240000Y2260000D01*
X35240000Y1140000D02*
X35240000Y360000D01*
X35240000Y-760000D02*
X35240000Y-810000D01*
X35240000Y-810000D02*
X36760000Y-810000D01*
X36760000Y2310000D02*
X35240000Y2310000D01*
X36760000Y1310000D02*
X36760000Y2310000D01*
X36760000Y-810000D02*
X36760000Y190000D01*
X34700000Y370000D02*
X34940000Y700000D01*
X34460000Y700000D01*
X34700000Y370000D01*
G36*
X34700000Y370000D02*
G01*
X34460000Y700000D01*
X34940000Y700000D01*
X34700000Y370000D01*
G37*
%TO.C,C6*%
X30859420Y-2490000D02*
X31140580Y-2490000D01*
X30859420Y-3510000D02*
X31140580Y-3510000D01*
%TO.C,U4*%
X25332500Y-640000D02*
X25332500Y-1115000D01*
X25332500Y-3385000D02*
X25332500Y-3860000D01*
X25332500Y-3860000D02*
X25807500Y-3860000D01*
X25807500Y-640000D02*
X25332500Y-640000D01*
X28077500Y-3860000D02*
X28552500Y-3860000D01*
X28552500Y-640000D02*
X28077500Y-640000D01*
X28552500Y-1115000D02*
X28552500Y-640000D01*
X28552500Y-3860000D02*
X28552500Y-3385000D01*
X24822500Y-3000000D02*
X24492500Y-2760000D01*
X24492500Y-3240000D01*
X24822500Y-3000000D01*
G36*
X24822500Y-3000000D02*
G01*
X24492500Y-3240000D01*
X24492500Y-2760000D01*
X24822500Y-3000000D01*
G37*
%TO.C,R8*%
X21596359Y-370000D02*
X21903641Y-370000D01*
X21596359Y-1130000D02*
X21903641Y-1130000D01*
%TO.C,J4*%
X26590000Y6515000D02*
X26590000Y4015000D01*
X26590000Y4015000D02*
X27640000Y4015000D01*
X27640000Y4015000D02*
X27640000Y3025000D01*
X27760000Y8485000D02*
X29640000Y8485000D01*
X30810000Y6515000D02*
X30810000Y4015000D01*
X30810000Y4015000D02*
X29760000Y4015000D01*
%TO.C,U2*%
X38767500Y1360000D02*
X38767500Y1185000D01*
X38767500Y-1185000D02*
X38767500Y-1360000D01*
X38767500Y-1360000D02*
X39442500Y-1360000D01*
X39442500Y1360000D02*
X38767500Y1360000D01*
X41312500Y-1360000D02*
X41987500Y-1360000D01*
X41987500Y1360000D02*
X41312500Y1360000D01*
X41987500Y1185000D02*
X41987500Y1360000D01*
X41987500Y-1360000D02*
X41987500Y-1185000D01*
X38637500Y-750000D02*
X38307500Y-510000D01*
X38307500Y-990000D01*
X38637500Y-750000D01*
G36*
X38637500Y-750000D02*
G01*
X38307500Y-990000D01*
X38307500Y-510000D01*
X38637500Y-750000D01*
G37*
%TO.C,Q1*%
X34490000Y7060000D02*
X34490000Y7010000D01*
X34490000Y5890000D02*
X34490000Y5110000D01*
X34490000Y3990000D02*
X34490000Y3940000D01*
X34490000Y3940000D02*
X36010000Y3940000D01*
X36010000Y7060000D02*
X34490000Y7060000D01*
X36010000Y6060000D02*
X36010000Y7060000D01*
X36010000Y3940000D02*
X36010000Y4940000D01*
X33950000Y5120000D02*
X34190000Y5450000D01*
X33710000Y5450000D01*
X33950000Y5120000D01*
G36*
X33950000Y5120000D02*
G01*
X33710000Y5450000D01*
X34190000Y5450000D01*
X33950000Y5120000D01*
G37*
%TO.C,J3*%
X46515000Y1400000D02*
X46515000Y760000D01*
X46515000Y-760000D02*
X45885000Y-760000D01*
X46515000Y-1400000D02*
X46515000Y-760000D01*
X49235000Y-1350000D02*
X49235000Y1350000D01*
%TO.C,R9*%
X22846359Y-2370000D02*
X23153641Y-2370000D01*
X22846359Y-3130000D02*
X23153641Y-3130000D01*
%TO.C,Q3*%
X16490000Y3060000D02*
X16490000Y3010000D01*
X16490000Y1890000D02*
X16490000Y1110000D01*
X16490000Y-10000D02*
X16490000Y-60000D01*
X16490000Y-60000D02*
X18010000Y-60000D01*
X18010000Y3060000D02*
X16490000Y3060000D01*
X18010000Y2060000D02*
X18010000Y3060000D01*
X18010000Y-60000D02*
X18010000Y940000D01*
X15950000Y1120000D02*
X16190000Y1450000D01*
X15710000Y1450000D01*
X15950000Y1120000D01*
G36*
X15950000Y1120000D02*
G01*
X15710000Y1450000D01*
X16190000Y1450000D01*
X15950000Y1120000D01*
G37*
%TO.C,R5*%
X27096359Y1130000D02*
X27403641Y1130000D01*
X27096359Y370000D02*
X27403641Y370000D01*
%TO.C,R11*%
X21596359Y-10870000D02*
X21903641Y-10870000D01*
X21596359Y-11630000D02*
X21903641Y-11630000D01*
%TO.C,C1*%
X29859420Y1510000D02*
X30140580Y1510000D01*
X29859420Y490000D02*
X30140580Y490000D01*
%TO.C,C4*%
X17142164Y-2390000D02*
X17357836Y-2390000D01*
X17142164Y-3110000D02*
X17357836Y-3110000D01*
%TO.C,R10*%
X32596359Y2130000D02*
X32903641Y2130000D01*
X32596359Y1370000D02*
X32903641Y1370000D01*
%TO.C,D1*%
X32162500Y9750000D02*
X36172500Y9750000D01*
X32162500Y7750000D02*
X32162500Y9750000D01*
X32162500Y7750000D02*
X36172500Y7750000D01*
%TO.C,J1*%
X17090000Y7715000D02*
X17090000Y5215000D01*
X17090000Y5215000D02*
X18140000Y5215000D01*
X18140000Y5215000D02*
X18140000Y4225000D01*
X18260000Y9685000D02*
X20140000Y9685000D01*
X21310000Y7715000D02*
X21310000Y5215000D01*
X21310000Y5215000D02*
X20260000Y5215000D01*
%TO.C,SW2*%
X25950000Y-8800000D02*
X25950000Y-6800000D01*
X27000000Y-5500000D02*
X27450000Y-5050000D01*
X27000000Y-10100000D02*
X27450000Y-10550000D01*
X27450000Y-5050000D02*
X29950000Y-5050000D01*
X27450000Y-10550000D02*
X29950000Y-10550000D01*
X30400000Y-5500000D02*
X29950000Y-5050000D01*
X30400000Y-10100000D02*
X29950000Y-10550000D01*
X31450000Y-8800000D02*
X31450000Y-6800000D01*
%TO.C,J6*%
X34090000Y-4685000D02*
X34090000Y-7185000D01*
X34090000Y-7185000D02*
X35140000Y-7185000D01*
X35140000Y-7185000D02*
X35140000Y-8175000D01*
X35260000Y-2715000D02*
X39140000Y-2715000D01*
X40310000Y-4685000D02*
X40310000Y-7185000D01*
X40310000Y-7185000D02*
X39260000Y-7185000D01*
%TO.C,C3*%
X24892164Y1860000D02*
X25107836Y1860000D01*
X24892164Y1140000D02*
X25107836Y1140000D01*
%TO.C,R3*%
X19620000Y-853641D02*
X19620000Y-546359D01*
X20380000Y-853641D02*
X20380000Y-546359D01*
%TO.C,SW1*%
D12*
X38300000Y5343500D02*
X38300000Y6543500D01*
X38950000Y7353500D02*
X44450000Y7353500D01*
X40200000Y4453500D02*
X41700000Y4453500D01*
X41850000Y8933500D02*
X43130000Y8933500D01*
X41850000Y7333500D02*
X41850000Y8933500D01*
X43130000Y8933500D02*
X43130000Y7333500D01*
X44470000Y4453500D02*
X44460000Y4453500D01*
X45100000Y5343500D02*
X45100000Y6543500D01*
D13*
X37730000Y3543500D02*
G75*
G02*
X37670000Y3543500I-30000J0D01*
G01*
X37670000Y3543500D02*
G75*
G02*
X37730000Y3543500I30000J0D01*
G01*
%TD*%
M02*
