%TF.GenerationSoftware,KiCad,Pcbnew,10.0.6*%
%TF.CreationDate,2026-09-21T08:27:50+02:00*%
%TF.ProjectId,wherewatch-carrier,77686572-6577-4617-9463-682d63617272,rev?*%
%TF.SameCoordinates,Original*%
%TF.FileFunction,Copper,L4,Bot*%
%TF.FilePolarity,Positive*%
%FSLAX46Y46*%
G04 Gerber Fmt 4.6, Leading zero omitted, Abs format (unit mm)*
G04 Created by KiCad (PCBNEW 10.0.6) date 2026-09-21 08:27:50*
%MOMM*%
%LPD*%
G01*
G04 APERTURE LIST*
G04 Aperture macros list*
%AMRoundRect*
0 Rectangle with rounded corners*
0 $1 Rounding radius*
0 $2 $3 $4 $5 $6 $7 $8 $9 X,Y pos of 4 corners*
0 Add a 4 corners polygon primitive as box body*
4,1,4,$2,$3,$4,$5,$6,$7,$8,$9,$2,$3,0*
0 Add four circle primitives for the rounded corners*
1,1,$1+$1,$2,$3*
1,1,$1+$1,$4,$5*
1,1,$1+$1,$6,$7*
1,1,$1+$1,$8,$9*
0 Add four rect primitives between the rounded corners*
20,1,$1+$1,$2,$3,$4,$5,0*
20,1,$1+$1,$4,$5,$6,$7,0*
20,1,$1+$1,$6,$7,$8,$9,0*
20,1,$1+$1,$8,$9,$2,$3,0*%
G04 Aperture macros list end*
%TA.AperFunction,SMDPad,CuDef*%
%ADD10RoundRect,0.135000X0.185000X-0.135000X0.185000X0.135000X-0.185000X0.135000X-0.185000X-0.135000X0*%
%TD*%
%TA.AperFunction,SMDPad,CuDef*%
%ADD11RoundRect,0.135000X-0.135000X-0.185000X0.135000X-0.185000X0.135000X0.185000X-0.135000X0.185000X0*%
%TD*%
%TA.AperFunction,SMDPad,CuDef*%
%ADD12RoundRect,0.150000X-0.150000X-0.625000X0.150000X-0.625000X0.150000X0.625000X-0.150000X0.625000X0*%
%TD*%
%TA.AperFunction,SMDPad,CuDef*%
%ADD13RoundRect,0.250000X-0.350000X-0.650000X0.350000X-0.650000X0.350000X0.650000X-0.350000X0.650000X0*%
%TD*%
%TA.AperFunction,SMDPad,CuDef*%
%ADD14RoundRect,0.140000X-0.140000X-0.170000X0.140000X-0.170000X0.140000X0.170000X-0.140000X0.170000X0*%
%TD*%
%TA.AperFunction,SMDPad,CuDef*%
%ADD15RoundRect,0.225000X-0.225000X-0.250000X0.225000X-0.250000X0.225000X0.250000X-0.225000X0.250000X0*%
%TD*%
%TA.AperFunction,SMDPad,CuDef*%
%ADD16RoundRect,0.150000X-0.587500X-0.150000X0.587500X-0.150000X0.587500X0.150000X-0.587500X0.150000X0*%
%TD*%
%TA.AperFunction,SMDPad,CuDef*%
%ADD17RoundRect,0.062500X-0.350000X-0.062500X0.350000X-0.062500X0.350000X0.062500X-0.350000X0.062500X0*%
%TD*%
%TA.AperFunction,SMDPad,CuDef*%
%ADD18RoundRect,0.062500X-0.062500X-0.350000X0.062500X-0.350000X0.062500X0.350000X-0.062500X0.350000X0*%
%TD*%
%TA.AperFunction,HeatsinkPad*%
%ADD19R,1.230000X1.230000*%
%TD*%
%TA.AperFunction,SMDPad,CuDef*%
%ADD20RoundRect,0.087500X-0.225000X-0.087500X0.225000X-0.087500X0.225000X0.087500X-0.225000X0.087500X0*%
%TD*%
%TA.AperFunction,SMDPad,CuDef*%
%ADD21RoundRect,0.087500X-0.087500X-0.225000X0.087500X-0.225000X0.087500X0.225000X-0.087500X0.225000X0*%
%TD*%
%TA.AperFunction,SMDPad,CuDef*%
%ADD22RoundRect,0.250000X-0.275000X-0.250000X0.275000X-0.250000X0.275000X0.250000X-0.275000X0.250000X0*%
%TD*%
%TA.AperFunction,SMDPad,CuDef*%
%ADD23RoundRect,0.250000X-0.850000X-0.275000X0.850000X-0.275000X0.850000X0.275000X-0.850000X0.275000X0*%
%TD*%
%TA.AperFunction,SMDPad,CuDef*%
%ADD24RoundRect,0.225000X-0.225000X-0.375000X0.225000X-0.375000X0.225000X0.375000X-0.225000X0.375000X0*%
%TD*%
%TA.AperFunction,SMDPad,CuDef*%
%ADD25R,1.700000X1.000000*%
%TD*%
%TA.AperFunction,SMDPad,CuDef*%
%ADD26R,0.600000X1.524000*%
%TD*%
%TA.AperFunction,SMDPad,CuDef*%
%ADD27R,1.200000X0.700000*%
%TD*%
%TA.AperFunction,ViaPad*%
%ADD28C,0.600000*%
%TD*%
%TA.AperFunction,Conductor*%
%ADD29C,0.150000*%
%TD*%
%TA.AperFunction,Conductor*%
%ADD30C,0.350000*%
%TD*%
G04 APERTURE END LIST*
D10*
%TO.P,R6,1*%
%TO.N,VBAT*%
X23600000Y-810000D03*
%TO.P,R6,2*%
%TO.N,VBAT_SENSE*%
X23600000Y210000D03*
%TD*%
D11*
%TO.P,R4,1*%
%TO.N,+3V3*%
X33740000Y-9500000D03*
%TO.P,R4,2*%
%TO.N,SDA*%
X34760000Y-9500000D03*
%TD*%
D12*
%TO.P,J5,1*%
%TO.N,SPK_P*%
X18700000Y-9000000D03*
%TO.P,J5,2*%
%TO.N,SPK_N*%
X19700000Y-9000000D03*
D13*
%TO.P,J5,MP*%
%TO.N,N/C*%
X17400000Y-5125000D03*
X21000000Y-5125000D03*
%TD*%
D14*
%TO.P,C5,1*%
%TO.N,+3V3*%
X24020000Y2750000D03*
%TO.P,C5,2*%
%TO.N,GND*%
X24980000Y2750000D03*
%TD*%
D11*
%TO.P,R1,1*%
%TO.N,BAT_RAW*%
X42990000Y2000000D03*
%TO.P,R1,2*%
%TO.N,SW_G*%
X44010000Y2000000D03*
%TD*%
D15*
%TO.P,C2,1*%
%TO.N,VBAT*%
X30225000Y-1000000D03*
%TO.P,C2,2*%
%TO.N,GND*%
X31775000Y-1000000D03*
%TD*%
D11*
%TO.P,R7,1*%
%TO.N,VBAT_SENSE*%
X18990000Y-2750000D03*
%TO.P,R7,2*%
%TO.N,GND*%
X20010000Y-2750000D03*
%TD*%
%TO.P,R2,1*%
%TO.N,VBUS*%
X32240000Y500000D03*
%TO.P,R2,2*%
%TO.N,VBUS_DET*%
X33260000Y500000D03*
%TD*%
D16*
%TO.P,Q2,1*%
%TO.N,VBUS_DET*%
X35062500Y-200000D03*
%TO.P,Q2,2*%
%TO.N,GND*%
X35062500Y1700000D03*
%TO.P,Q2,3*%
%TO.N,SW_G*%
X36937500Y750000D03*
%TD*%
D15*
%TO.P,C6,1*%
%TO.N,+3V3*%
X30225000Y-3000000D03*
%TO.P,C6,2*%
%TO.N,GND*%
X31775000Y-3000000D03*
%TD*%
D17*
%TO.P,U4,1*%
%TO.N,I2S_DIN*%
X25505000Y-3000000D03*
%TO.P,U4,2*%
%TO.N,unconnected-(U4-GAIN_SLOT-Pad2)*%
X25505000Y-2500000D03*
%TO.P,U4,3*%
%TO.N,GND*%
X25505000Y-2000000D03*
%TO.P,U4,4*%
%TO.N,VBAT*%
X25505000Y-1500000D03*
D18*
%TO.P,U4,5*%
%TO.N,unconnected-(U4-NC-Pad5)*%
X26192500Y-812500D03*
%TO.P,U4,6*%
%TO.N,unconnected-(U4-NC-Pad6)*%
X26692500Y-812500D03*
%TO.P,U4,7*%
%TO.N,VBAT*%
X27192500Y-812500D03*
%TO.P,U4,8*%
X27692500Y-812500D03*
D17*
%TO.P,U4,9*%
%TO.N,SPK_P*%
X28380000Y-1500000D03*
%TO.P,U4,10*%
%TO.N,SPK_N*%
X28380000Y-2000000D03*
%TO.P,U4,11*%
%TO.N,GND*%
X28380000Y-2500000D03*
%TO.P,U4,12*%
%TO.N,unconnected-(U4-NC-Pad12)*%
X28380000Y-3000000D03*
D18*
%TO.P,U4,13*%
%TO.N,unconnected-(U4-NC-Pad13)*%
X27692500Y-3687500D03*
%TO.P,U4,14*%
%TO.N,I2S_LRCLK*%
X27192500Y-3687500D03*
%TO.P,U4,15*%
%TO.N,GND*%
X26692500Y-3687500D03*
%TO.P,U4,16*%
%TO.N,I2S_BCLK*%
X26192500Y-3687500D03*
D19*
%TO.P,U4,17*%
%TO.N,GND*%
X26942500Y-2250000D03*
%TD*%
D11*
%TO.P,R8,1*%
%TO.N,VIB_IN_R*%
X21240000Y-750000D03*
%TO.P,R8,2*%
%TO.N,GND*%
X22260000Y-750000D03*
%TD*%
D12*
%TO.P,J4,1*%
%TO.N,+3V3*%
X28200000Y3800000D03*
%TO.P,J4,2*%
%TO.N,VIB_N*%
X29200000Y3800000D03*
D13*
%TO.P,J4,MP*%
%TO.N,N/C*%
X26900000Y7675000D03*
X30500000Y7675000D03*
%TD*%
D20*
%TO.P,U2,1*%
%TO.N,GND*%
X39215000Y-750000D03*
%TO.P,U2,2*%
X39215000Y-250000D03*
%TO.P,U2,3*%
X39215000Y250000D03*
%TO.P,U2,4*%
%TO.N,BTN*%
X39215000Y750000D03*
D21*
%TO.P,U2,5*%
%TO.N,+3V3*%
X39877500Y912500D03*
%TO.P,U2,6*%
%TO.N,GND*%
X40377500Y912500D03*
%TO.P,U2,7*%
X40877500Y912500D03*
D20*
%TO.P,U2,8*%
%TO.N,+3V3*%
X41540000Y750000D03*
%TO.P,U2,9*%
%TO.N,unconnected-(U2-INT2-Pad9)*%
X41540000Y250000D03*
%TO.P,U2,10*%
%TO.N,unconnected-(U2-NC-Pad10)*%
X41540000Y-250000D03*
%TO.P,U2,11*%
%TO.N,unconnected-(U2-NC-Pad11)*%
X41540000Y-750000D03*
D21*
%TO.P,U2,12*%
%TO.N,+3V3*%
X40877500Y-912500D03*
%TO.P,U2,13*%
%TO.N,SCL*%
X40377500Y-912500D03*
%TO.P,U2,14*%
%TO.N,SDA*%
X39877500Y-912500D03*
%TD*%
D16*
%TO.P,Q1,1*%
%TO.N,SW_G*%
X34312500Y4550000D03*
%TO.P,Q1,2*%
%TO.N,BAT_RAW*%
X34312500Y6450000D03*
%TO.P,Q1,3*%
%TO.N,VBAT*%
X36187500Y5500000D03*
%TD*%
D22*
%TO.P,J3,1*%
%TO.N,GNSS_RF*%
X46350000Y0D03*
D23*
%TO.P,J3,2*%
%TO.N,GND*%
X47875000Y1475000D03*
X47875000Y-1475000D03*
%TD*%
D11*
%TO.P,R9,1*%
%TO.N,GNSS_EN*%
X22490000Y-2750000D03*
%TO.P,R9,2*%
%TO.N,GND*%
X23510000Y-2750000D03*
%TD*%
D16*
%TO.P,Q3,1*%
%TO.N,VIB_IN_R*%
X16312500Y550000D03*
%TO.P,Q3,2*%
%TO.N,GND*%
X16312500Y2450000D03*
%TO.P,Q3,3*%
%TO.N,VIB_N*%
X18187500Y1500000D03*
%TD*%
D11*
%TO.P,R5,1*%
%TO.N,+3V3*%
X26740000Y750000D03*
%TO.P,R5,2*%
%TO.N,SCL*%
X27760000Y750000D03*
%TD*%
%TO.P,R11,1*%
%TO.N,+3V3*%
X21240000Y-11250000D03*
%TO.P,R11,2*%
%TO.N,BTN*%
X22260000Y-11250000D03*
%TD*%
D15*
%TO.P,C1,1*%
%TO.N,+3V3*%
X29225000Y1000000D03*
%TO.P,C1,2*%
%TO.N,GND*%
X30775000Y1000000D03*
%TD*%
D14*
%TO.P,C4,1*%
%TO.N,VBAT_SENSE*%
X16770000Y-2750000D03*
%TO.P,C4,2*%
%TO.N,GND*%
X17730000Y-2750000D03*
%TD*%
D11*
%TO.P,R10,1*%
%TO.N,VBUS_DET*%
X32240000Y1750000D03*
%TO.P,R10,2*%
%TO.N,GND*%
X33260000Y1750000D03*
%TD*%
D24*
%TO.P,D1,1*%
%TO.N,+3V3*%
X32872500Y8750000D03*
%TO.P,D1,2*%
%TO.N,VIB_N*%
X36172500Y8750000D03*
%TD*%
D12*
%TO.P,J1,1*%
%TO.N,BAT_RAW*%
X18700000Y5000000D03*
%TO.P,J1,2*%
%TO.N,GND*%
X19700000Y5000000D03*
D13*
%TO.P,J1,MP*%
%TO.N,N/C*%
X17400000Y8875000D03*
X21000000Y8875000D03*
%TD*%
D25*
%TO.P,SW2,1*%
%TO.N,BTN*%
X25550000Y-9700000D03*
X31850000Y-9700000D03*
%TO.P,SW2,2*%
%TO.N,GND*%
X25550000Y-5900000D03*
X31850000Y-5900000D03*
%TD*%
D12*
%TO.P,J6,1*%
%TO.N,+3V3*%
X35700000Y-7400000D03*
%TO.P,J6,2*%
%TO.N,GND*%
X36700000Y-7400000D03*
%TO.P,J6,3*%
%TO.N,SCL*%
X37700000Y-7400000D03*
%TO.P,J6,4*%
%TO.N,SDA*%
X38700000Y-7400000D03*
D13*
%TO.P,J6,MP*%
%TO.N,N/C*%
X34400000Y-3525000D03*
X40000000Y-3525000D03*
%TD*%
D14*
%TO.P,C3,1*%
%TO.N,VBAT*%
X24520000Y1500000D03*
%TO.P,C3,2*%
%TO.N,GND*%
X25480000Y1500000D03*
%TD*%
D10*
%TO.P,R3,1*%
%TO.N,VIB_IN*%
X20000000Y-1210000D03*
%TO.P,R3,2*%
%TO.N,VIB_IN_R*%
X20000000Y-190000D03*
%TD*%
D26*
%TO.P,SW1,1*%
%TO.N,SW_G*%
X39450000Y3703500D03*
%TO.P,SW1,2*%
%TO.N,GND*%
X42450000Y3703500D03*
%TO.P,SW1,3*%
%TO.N,unconnected-(SW1-C-Pad3)*%
X43950000Y3703500D03*
D27*
%TO.P,SW1,4*%
%TO.N,N/C*%
X38100000Y7103500D03*
X38100000Y4803500D03*
X45300000Y7103500D03*
X45300000Y4803500D03*
%TD*%
D28*
%TO.N,VBAT_SENSE*%
X21802500Y2760000D03*
%TO.N,BTN*%
X23143800Y-9581900D03*
X18577400Y3436600D03*
%TO.N,GNSS_EN*%
X21674800Y-2399300D03*
X38545100Y-2817500D03*
%TO.N,VIB_IN*%
X18367800Y-1664000D03*
%TO.N,SDA*%
X35822000Y-9204000D03*
X18883400Y-4840400D03*
%TO.N,SCL*%
X29024800Y-205700D03*
X38315900Y-5641300D03*
X40575200Y-1961100D03*
%TO.N,GNSS_RX*%
X28193200Y-7045400D03*
X35074800Y858700D03*
%TO.N,I2S_BCLK*%
X23832800Y-5989000D03*
%TO.N,I2S_LRCLK*%
X27987600Y-4683100D03*
%TO.N,I2S_DIN*%
X21802500Y438700D03*
%TO.N,+3V3*%
X38960300Y1962100D03*
X35733200Y-3488100D03*
X30345400Y2450300D03*
X41840400Y-1784200D03*
%TO.N,GND*%
X44999999Y-1000000D03*
X18400000Y-10800000D03*
X46399999Y-6600000D03*
X49199999Y-3800000D03*
X49475000Y-1475000D03*
X37999999Y5999999D03*
X28380000Y-3692500D03*
X40799999Y7399999D03*
X49199999Y3199999D03*
X40377500Y1725000D03*
X48185800Y-4400000D03*
X40527500Y250000D03*
X49199999Y-5200000D03*
X21764500Y1606800D03*
X35199999Y7399999D03*
X42199999Y7399999D03*
X39399999Y7399999D03*
X15600000Y-10800000D03*
X25399999Y10200000D03*
X42199999Y-5200000D03*
X43599999Y-6600000D03*
X28199999Y-8000000D03*
X28199999Y8799999D03*
X44999999Y399999D03*
X43599999Y-2400000D03*
X47799999Y-6600000D03*
X36700000Y-8675000D03*
X40799999Y3199999D03*
X49199999Y4599999D03*
X44999999Y5999999D03*
X40799999Y-6600000D03*
X44999999Y-6600000D03*
X28199999Y7399999D03*
X30602800Y-6416600D03*
X49475000Y1475000D03*
X26799999Y10200000D03*
X27079500Y5411800D03*
X40799999Y-8000000D03*
X45412800Y-2200000D03*
X26900000Y-5900000D03*
X29599999Y-6600000D03*
X34588900Y2843300D03*
X41967100Y2537600D03*
X19799999Y-10800000D03*
X42199999Y-6600000D03*
X19799999Y7399999D03*
X26692500Y-4600000D03*
X44999999Y-3800000D03*
X46399999Y5999999D03*
X42199999Y-3800000D03*
X19799999Y10200000D03*
X20830000Y-2750000D03*
X43599999Y-3800000D03*
X18656300Y-3676300D03*
X40799999Y-5200000D03*
X43599999Y-8000000D03*
X43599999Y-1000000D03*
X43599999Y399999D03*
X23999999Y10200000D03*
X30401900Y99200D03*
X46399999Y-5200000D03*
X36599999Y7399999D03*
X15600000Y10200000D03*
X29599999Y-8000000D03*
X44999999Y-5200000D03*
X39215000Y-1562500D03*
X15600000Y8799999D03*
X44999999Y3199999D03*
X41452000Y1487000D03*
X22599999Y-3800000D03*
X44999999Y1799999D03*
X47799999Y-5200000D03*
X20429549Y2653232D03*
X42199999Y-8000000D03*
X18400000Y7399999D03*
X30837200Y3682200D03*
X23510000Y-3570000D03*
X19799999Y-3800000D03*
X35792800Y4400000D03*
X43599999Y7399999D03*
X22573800Y-1507600D03*
X22599999Y10200000D03*
X20975000Y5000000D03*
X17000000Y-10800000D03*
X37999999Y8799999D03*
X43599999Y-5200000D03*
X47799999Y5999999D03*
X19799999Y8799999D03*
%TO.N,VBUS*%
X35399300Y2829200D03*
%TO.N,VBAT*%
X24504700Y-777000D03*
X34449500Y5374200D03*
%TO.N,GNSS_RF*%
X48424700Y-3091300D03*
%TO.N,SPK_P*%
X26161900Y-7693300D03*
X29687100Y-2002900D03*
%TO.N,BAT_RAW*%
X42472900Y1027800D03*
X29249100Y5989900D03*
X36104300Y6444300D03*
%TD*%
%TO.N,VBAT_SENSE*%
D29*
X17198200Y1147400D02*
X17433400Y912200D01*
X15292200Y928800D02*
X15510800Y1147400D01*
X15292200Y-1272200D02*
X15292200Y928800D01*
X15510800Y1147400D02*
X17198200Y1147400D01*
X23600000Y680100D02*
X21661500Y2618600D01*
X17374200Y-3354200D02*
X16770000Y-2750000D01*
X18162800Y-3354200D02*
X17374200Y-3354200D01*
X21802500Y2759600D02*
X21802500Y2760000D01*
X18767000Y-2750000D02*
X18162800Y-3354200D01*
X21661500Y2618600D02*
X21802500Y2759600D01*
X16770000Y-2750000D02*
X15292200Y-1272200D01*
X19955100Y912200D02*
X21661500Y2618600D01*
X17433400Y912200D02*
X19955100Y912200D01*
X18990000Y-2750000D02*
X18767000Y-2750000D01*
X23600000Y210000D02*
X23600000Y680100D01*
%TO.N,BTN*%
X38782800Y750000D02*
X39215000Y750000D01*
X23143800Y-10366200D02*
X23143800Y-9700000D01*
X25550000Y-9700000D02*
X24423300Y-9700000D01*
X25550000Y-9700000D02*
X31850000Y-9700000D01*
X22260000Y-11250000D02*
X23143800Y-10366200D01*
X31850000Y-9700000D02*
X32976700Y-9700000D01*
X23143800Y-9700000D02*
X23143800Y-9581900D01*
X32976700Y-3175900D02*
X34706000Y-1446600D01*
X36586200Y-1446600D02*
X38782800Y750000D01*
X34706000Y-1446600D02*
X36586200Y-1446600D01*
X23143800Y-9700000D02*
X24423300Y-9700000D01*
X32976700Y-9700000D02*
X32976700Y-3175900D01*
%TO.N,GNSS_EN*%
X22025500Y-2750000D02*
X21674800Y-2399300D01*
X22490000Y-2750000D02*
X22025500Y-2750000D01*
%TO.N,VIB_IN*%
X20000000Y-1210000D02*
X18821800Y-1210000D01*
X18821800Y-1210000D02*
X18367800Y-1664000D01*
%TO.N,SDA*%
X37230700Y-9278000D02*
X38700000Y-7808700D01*
X35600000Y-9500000D02*
X35822000Y-9278000D01*
X38700000Y-7808700D02*
X38700000Y-7400000D01*
X35822000Y-9278000D02*
X37230700Y-9278000D01*
X39121800Y-2632200D02*
X39877500Y-1876500D01*
X38700000Y-7400000D02*
X39121800Y-6978200D01*
X35822000Y-9278000D02*
X35822000Y-9204000D01*
X39121800Y-6978200D02*
X39121800Y-2632200D01*
X39877500Y-1876500D02*
X39877500Y-912500D01*
X34760000Y-9500000D02*
X35600000Y-9500000D01*
%TO.N,SCL*%
X40377500Y-1763400D02*
X40377500Y-912500D01*
X37700000Y-7400000D02*
X37700000Y-6257200D01*
X29024800Y-205600D02*
X29024800Y-205700D01*
X28715600Y-205600D02*
X29024800Y-205600D01*
X37700000Y-6257200D02*
X38315900Y-5641300D01*
X27760000Y750000D02*
X28715600Y-205600D01*
X40575200Y-1961100D02*
X40377500Y-1763400D01*
%TO.N,I2S_BCLK*%
X23832800Y-5838200D02*
X23832800Y-5989000D01*
X26192500Y-3687500D02*
X25983500Y-3687500D01*
X25983500Y-3687500D02*
X23832800Y-5838200D01*
%TO.N,I2S_LRCLK*%
X27790200Y-4683100D02*
X27192500Y-4085400D01*
X27987600Y-4683100D02*
X27790200Y-4683100D01*
X27192500Y-4085400D02*
X27192500Y-3687500D01*
%TO.N,I2S_DIN*%
X22032500Y438700D02*
X22905100Y-433900D01*
X21802500Y438700D02*
X22032500Y438700D01*
X22905100Y-433900D02*
X22905100Y-1020600D01*
X22905100Y-1020600D02*
X24884500Y-3000000D01*
X24884500Y-3000000D02*
X25505000Y-3000000D01*
%TO.N,+3V3*%
X39877500Y1044900D02*
X39877500Y912500D01*
X28200000Y3073700D02*
X27923500Y3073700D01*
X32872500Y4811200D02*
X32872500Y8750000D01*
X42185700Y-940200D02*
X42185700Y434900D01*
X41870600Y750000D02*
X41540000Y750000D01*
X30515700Y2454400D02*
X30349500Y2454400D01*
X30515700Y2454400D02*
X31538600Y1431500D01*
X42185700Y434900D02*
X41870600Y750000D01*
X29946300Y2051200D02*
X30345400Y2450300D01*
X29225000Y2051200D02*
X29225000Y1000000D01*
X28200000Y3073700D02*
X28200000Y3800000D01*
X35733200Y-3488100D02*
X35733200Y-7366800D01*
X24020000Y2750000D02*
X24607200Y3337200D01*
X26740000Y1890200D02*
X26740000Y750000D01*
X40877500Y-912500D02*
X40877500Y-986800D01*
X30225000Y-4198100D02*
X27616500Y-6806600D01*
X30349500Y2454400D02*
X30345400Y2450300D01*
X30225000Y-3000000D02*
X30225000Y-4198100D01*
X29225000Y2051200D02*
X28202500Y3073700D01*
X27616500Y-7054300D02*
X26400800Y-8270000D01*
X24607200Y3337200D02*
X25293000Y3337200D01*
X40877500Y-986800D02*
X41099900Y-1209200D01*
X35700000Y-7400000D02*
X33740000Y-9360000D01*
X31538600Y1431500D02*
X31538600Y-38100D01*
X29225000Y2051200D02*
X29946300Y2051200D01*
X26400800Y-8270000D02*
X23640200Y-8270000D01*
X41916700Y-1209200D02*
X42185700Y-940200D01*
X30515700Y2454400D02*
X32872500Y4811200D01*
X31538600Y-38100D02*
X31000000Y-576700D01*
X23640200Y-8270000D02*
X21240000Y-10670200D01*
X28202500Y3073700D02*
X28200000Y3073700D01*
X41099900Y-1209200D02*
X41840400Y-1209200D01*
X31000000Y-2225000D02*
X30225000Y-3000000D01*
X41840400Y-1784200D02*
X41840400Y-1209200D01*
X27616500Y-6806600D02*
X27616500Y-7054300D01*
X31000000Y-576700D02*
X31000000Y-2225000D01*
X27923500Y3073700D02*
X26740000Y1890200D01*
X21240000Y-10670200D02*
X21240000Y-11250000D01*
X41840400Y-1209200D02*
X41916700Y-1209200D01*
X38960300Y1962100D02*
X39877500Y1044900D01*
X33740000Y-9360000D02*
X33740000Y-9500000D01*
X35733200Y-7366800D02*
X35700000Y-7400000D01*
X25293000Y3337200D02*
X26740000Y1890200D01*
%TO.N,VBUS*%
X36077300Y1372900D02*
X36077300Y2151200D01*
X35813200Y-802200D02*
X36089100Y-526300D01*
X32240000Y500000D02*
X33542200Y-802200D01*
X35876300Y1171900D02*
X36077300Y1372900D01*
X36089100Y210900D02*
X35876300Y423700D01*
X35876300Y423700D02*
X35876300Y1171900D01*
X36089100Y-526300D02*
X36089100Y210900D01*
X33542200Y-802200D02*
X35813200Y-802200D01*
X36077300Y2151200D02*
X35399300Y2829200D01*
%TO.N,VBAT*%
X24520000Y1407100D02*
X26001400Y-74300D01*
X26001400Y-74300D02*
X25505000Y-570700D01*
X25505000Y-570700D02*
X25505000Y-810000D01*
X26001400Y-74300D02*
X26847000Y-74300D01*
X25505000Y-810000D02*
X25505000Y-1500000D01*
X27692500Y-812500D02*
X30037500Y-812500D01*
X24504700Y-810000D02*
X23600000Y-810000D01*
X24520000Y1500000D02*
X24520000Y1407100D01*
X36187500Y5500000D02*
X34575300Y5500000D01*
X25505000Y-810000D02*
X24504700Y-810000D01*
X30037500Y-812500D02*
X30225000Y-1000000D01*
X27192500Y-419800D02*
X27192500Y-812500D01*
X24504700Y-810000D02*
X24504700Y-777000D01*
X27192500Y-812500D02*
X27692500Y-812500D01*
X34575300Y5500000D02*
X34449500Y5374200D01*
X26847000Y-74300D02*
X27192500Y-419800D01*
%TO.N,GNSS_RF*%
D30*
X46350000Y0D02*
X46350000Y-2100000D01*
X46350000Y-2100000D02*
X47300000Y-3091000D01*
X47300000Y-3091000D02*
X48425000Y-3091000D01*
%TO.N,SPK_P*%
D29*
X22564600Y-7693300D02*
X26161900Y-7693300D01*
X18700000Y-9398300D02*
X19406500Y-10104800D01*
X20153100Y-10104800D02*
X22564600Y-7693300D01*
X29184200Y-1500000D02*
X29687100Y-2002900D01*
X28380000Y-1500000D02*
X29184200Y-1500000D01*
X18700000Y-9000000D02*
X18700000Y-9398300D01*
X19406500Y-10104800D02*
X20153100Y-10104800D01*
%TO.N,SPK_N*%
X29113900Y-4505500D02*
X29113900Y-2293300D01*
X19700000Y-9000000D02*
X21717100Y-6982900D01*
X21717100Y-6982900D02*
X26636500Y-6982900D01*
X26636500Y-6982900D02*
X29113900Y-4505500D01*
X28820600Y-2000000D02*
X28380000Y-2000000D01*
X29113900Y-2293300D02*
X28820600Y-2000000D01*
%TO.N,BAT_RAW*%
X36098600Y6450000D02*
X36104300Y6444300D01*
X42472900Y1027800D02*
X42990000Y1544900D01*
X42990000Y1544900D02*
X42990000Y2000000D01*
X29180700Y6058300D02*
X29249100Y5989900D01*
X34312500Y6450000D02*
X36098600Y6450000D01*
X19366200Y6058300D02*
X29180700Y6058300D01*
X18700000Y5000000D02*
X18700000Y5392100D01*
X18700000Y5392100D02*
X19366200Y6058300D01*
%TO.N,SW_G*%
X36937500Y2160900D02*
X36937500Y750000D01*
X42908100Y4769300D02*
X43026700Y4650700D01*
X39450000Y3708600D02*
X40510700Y4769300D01*
X43026700Y4650700D02*
X43026700Y2983300D01*
X43026700Y2983300D02*
X44010000Y2000000D01*
X40510700Y4769300D02*
X42908100Y4769300D01*
X34548400Y4550000D02*
X36937500Y2160900D01*
X38485200Y3708600D02*
X39450000Y3708600D01*
X34312500Y4550000D02*
X34548400Y4550000D01*
X36937500Y2160900D02*
X38485200Y3708600D01*
X39450000Y3703500D02*
X39450000Y3708600D01*
%TO.N,VBUS_DET*%
X34362500Y500000D02*
X33260000Y500000D01*
X33260000Y500000D02*
X33260000Y730000D01*
X35062500Y-200000D02*
X34362500Y500000D01*
X33260000Y730000D02*
X32240000Y1750000D01*
%TO.N,VIB_IN_R*%
X21240000Y-750000D02*
X20680000Y-190000D01*
X19260000Y550000D02*
X20000000Y-190000D01*
X20680000Y-190000D02*
X20000000Y-190000D01*
X16312500Y550000D02*
X19260000Y550000D01*
%TO.N,VIB_N*%
X27633200Y4881200D02*
X26985300Y4233300D01*
X29200000Y3800000D02*
X29200000Y4201600D01*
X35287000Y9635500D02*
X32434400Y9635500D01*
X28520400Y4881200D02*
X27633200Y4881200D01*
X20920800Y4233300D02*
X18187500Y1500000D01*
X29200000Y4201600D02*
X29015600Y4386000D01*
X26985300Y4233300D02*
X20920800Y4233300D01*
X31945200Y9146300D02*
X31945200Y7315600D01*
X29015600Y4386000D02*
X28520400Y4881200D01*
X36172500Y8750000D02*
X35287000Y9635500D01*
X32434400Y9635500D02*
X31945200Y9146300D01*
X31945200Y7315600D02*
X29015600Y4386000D01*
%TD*%
%TA.AperFunction,Conductor*%
%TO.N,GND*%
G36*
X14734024Y12513420D02*
G01*
X15149998Y12463321D01*
X15149999Y12463321D01*
X15649999Y12403101D01*
X16149999Y12342880D01*
X16649999Y12282660D01*
X17150000Y12222440D01*
X18150000Y12102000D01*
X18650000Y12041779D01*
X20150000Y11861119D01*
X20650000Y11800898D01*
X22150000Y11620238D01*
X22650000Y11560017D01*
X24650000Y11319137D01*
X25150000Y11258916D01*
X26650000Y11078256D01*
X27150000Y11018035D01*
X29150000Y10777155D01*
X29650000Y10716934D01*
X31150000Y10536274D01*
X31650000Y10476053D01*
X33650000Y10235173D01*
X34150000Y10174952D01*
X34650000Y10114732D01*
X35117145Y10058469D01*
X35166503Y10030694D01*
X35181765Y9976151D01*
X35153990Y9926793D01*
X35108296Y9911000D01*
X32379600Y9911000D01*
X32339318Y9894314D01*
X32307999Y9881341D01*
X32278341Y9869057D01*
X31789142Y9379857D01*
X31711643Y9302358D01*
X31711642Y9302356D01*
X31709424Y9297001D01*
X31695397Y9263136D01*
X31669700Y9201099D01*
X31669700Y7460367D01*
X31648026Y7408041D01*
X31426826Y7186841D01*
X31374500Y7165167D01*
X31322174Y7186841D01*
X31300500Y7239167D01*
X31300500Y8379259D01*
X31300500Y8379266D01*
X31297646Y8409699D01*
X31252793Y8537882D01*
X31172150Y8647150D01*
X31062882Y8727793D01*
X30934699Y8772646D01*
X30904266Y8775500D01*
X30095734Y8775500D01*
X30065301Y8772646D01*
X30065295Y8772644D01*
X29937118Y8727793D01*
X29937116Y8727792D01*
X29827853Y8647153D01*
X29827846Y8647146D01*
X29747207Y8537883D01*
X29747206Y8537881D01*
X29702355Y8409704D01*
X29702354Y8409701D01*
X29702354Y8409699D01*
X29699500Y8379266D01*
X29699500Y6970734D01*
X29702329Y6940572D01*
X29702355Y6940295D01*
X29747206Y6812118D01*
X29747207Y6812116D01*
X29827846Y6702853D01*
X29827853Y6702846D01*
X29937116Y6622207D01*
X29937118Y6622206D01*
X30065295Y6577355D01*
X30065294Y6577355D01*
X30065299Y6577354D01*
X30065301Y6577354D01*
X30095734Y6574500D01*
X30635832Y6574500D01*
X30688158Y6552826D01*
X30709832Y6500500D01*
X30688158Y6448174D01*
X29067925Y4827941D01*
X29015599Y4806267D01*
X28963274Y4827940D01*
X28676458Y5114757D01*
X28672006Y5116601D01*
X28575200Y5156700D01*
X27578400Y5156700D01*
X27481594Y5116601D01*
X27481593Y5116601D01*
X27479368Y5115679D01*
X27477142Y5114757D01*
X27477141Y5114756D01*
X26892859Y4530474D01*
X26840533Y4508800D01*
X20866000Y4508800D01*
X20764742Y4466857D01*
X19541303Y3243418D01*
X18320059Y2022174D01*
X18267733Y2000500D01*
X17566740Y2000500D01*
X17498607Y1990573D01*
X17498605Y1990572D01*
X17393517Y1939198D01*
X17310801Y1856482D01*
X17259427Y1751394D01*
X17259427Y1751393D01*
X17249500Y1683264D01*
X17249500Y1496900D01*
X17227826Y1444574D01*
X17175500Y1422900D01*
X15456000Y1422900D01*
X15388588Y1394976D01*
X15384399Y1393241D01*
X15354741Y1380957D01*
X15136142Y1162357D01*
X15058643Y1084858D01*
X15058642Y1084856D01*
X15046358Y1055200D01*
X15016700Y983600D01*
X15016700Y-1327000D01*
X15040441Y-1384314D01*
X15051180Y-1410240D01*
X15058643Y-1428258D01*
X15058644Y-1428259D01*
X16267826Y-2637442D01*
X16289500Y-2689768D01*
X16289500Y-2959899D01*
X16296027Y-3009485D01*
X16296028Y-3009487D01*
X16346776Y-3118316D01*
X16431684Y-3203224D01*
X16540513Y-3253972D01*
X16590099Y-3260500D01*
X16860232Y-3260499D01*
X16912558Y-3282173D01*
X17140643Y-3510258D01*
X17218142Y-3587757D01*
X17319400Y-3629700D01*
X17319401Y-3629700D01*
X18217598Y-3629700D01*
X18217600Y-3629700D01*
X18318858Y-3587757D01*
X18396357Y-3510258D01*
X18645431Y-3261182D01*
X18697756Y-3239509D01*
X18729028Y-3246441D01*
X18766827Y-3264068D01*
X18815684Y-3270500D01*
X18815686Y-3270500D01*
X19164314Y-3270500D01*
X19164316Y-3270500D01*
X19213173Y-3264068D01*
X19320404Y-3214065D01*
X19404065Y-3130404D01*
X19454068Y-3023173D01*
X19460500Y-2974316D01*
X19460500Y-2525684D01*
X19454068Y-2476827D01*
X19404065Y-2369596D01*
X19367874Y-2333405D01*
X21174300Y-2333405D01*
X21174300Y-2465194D01*
X21208406Y-2592481D01*
X21208410Y-2592490D01*
X21255830Y-2674623D01*
X21274300Y-2706614D01*
X21367486Y-2799800D01*
X21481614Y-2865692D01*
X21608905Y-2899799D01*
X21608906Y-2899800D01*
X21608908Y-2899800D01*
X21740691Y-2899800D01*
X21740692Y-2899800D01*
X21740692Y-2899799D01*
X21744269Y-2899329D01*
X21798977Y-2913988D01*
X21806254Y-2920370D01*
X21869442Y-2983558D01*
X21970700Y-3025500D01*
X21979874Y-3025500D01*
X22032200Y-3047174D01*
X22046941Y-3068227D01*
X22075933Y-3130401D01*
X22075934Y-3130403D01*
X22075935Y-3130404D01*
X22159596Y-3214065D01*
X22266827Y-3264068D01*
X22315684Y-3270500D01*
X22315686Y-3270500D01*
X22664314Y-3270500D01*
X22664316Y-3270500D01*
X22713173Y-3264068D01*
X22820404Y-3214065D01*
X22904065Y-3130404D01*
X22954068Y-3023173D01*
X22960500Y-2974316D01*
X22960500Y-2525684D01*
X22954068Y-2476827D01*
X22904065Y-2369596D01*
X22820404Y-2285935D01*
X22713173Y-2235932D01*
X22713171Y-2235931D01*
X22677178Y-2231193D01*
X22664316Y-2229500D01*
X22315684Y-2229500D01*
X22304318Y-2230996D01*
X22266828Y-2235931D01*
X22266825Y-2235932D01*
X22241939Y-2247537D01*
X22185355Y-2250007D01*
X22143599Y-2211743D01*
X22142295Y-2208780D01*
X22141193Y-2206118D01*
X22141192Y-2206114D01*
X22075300Y-2091986D01*
X21982114Y-1998800D01*
X21896011Y-1949088D01*
X21867990Y-1932910D01*
X21867981Y-1932906D01*
X21740694Y-1898800D01*
X21740692Y-1898800D01*
X21608908Y-1898800D01*
X21608906Y-1898800D01*
X21481618Y-1932906D01*
X21481609Y-1932910D01*
X21367485Y-1998800D01*
X21274300Y-2091985D01*
X21208410Y-2206109D01*
X21208406Y-2206118D01*
X21174300Y-2333405D01*
X19367874Y-2333405D01*
X19320404Y-2285935D01*
X19213173Y-2235932D01*
X19213171Y-2235931D01*
X19177178Y-2231193D01*
X19164316Y-2229500D01*
X18815684Y-2229500D01*
X18804318Y-2230996D01*
X18766828Y-2235931D01*
X18659595Y-2285935D01*
X18575935Y-2369595D01*
X18525931Y-2476828D01*
X18519500Y-2525685D01*
X18519500Y-2577233D01*
X18497826Y-2629559D01*
X18070359Y-3057026D01*
X18018033Y-3078700D01*
X17518967Y-3078700D01*
X17466641Y-3057026D01*
X17272173Y-2862558D01*
X17250499Y-2810232D01*
X17250499Y-2540100D01*
X17246962Y-2513232D01*
X17243972Y-2490513D01*
X17193224Y-2381684D01*
X17108316Y-2296776D01*
X16999487Y-2246028D01*
X16999485Y-2246027D01*
X16962955Y-2241218D01*
X16949901Y-2239500D01*
X16949899Y-2239500D01*
X16679768Y-2239500D01*
X16627442Y-2217826D01*
X15589374Y-1179758D01*
X15567700Y-1127432D01*
X15567700Y-17990D01*
X15589374Y34336D01*
X15641700Y56010D01*
X15652359Y55237D01*
X15677579Y51563D01*
X15691737Y49500D01*
X15691740Y49500D01*
X16933264Y49500D01*
X17001393Y59427D01*
X17001394Y59427D01*
X17106482Y110801D01*
X17189198Y193517D01*
X17208500Y233000D01*
X17250953Y270490D01*
X17274981Y274500D01*
X19115233Y274500D01*
X19167559Y252826D01*
X19457826Y-37441D01*
X19479500Y-89766D01*
X19479500Y-364314D01*
X19485931Y-413171D01*
X19513597Y-472500D01*
X19535935Y-520404D01*
X19619596Y-604065D01*
X19681504Y-632933D01*
X19719767Y-674691D01*
X19717297Y-731274D01*
X19681504Y-767066D01*
X19653531Y-780110D01*
X19619595Y-795935D01*
X19535935Y-879595D01*
X19535933Y-879598D01*
X19530255Y-891775D01*
X19488497Y-930038D01*
X19463189Y-934500D01*
X18767000Y-934500D01*
X18709644Y-958258D01*
X18684778Y-968558D01*
X18665743Y-976442D01*
X18665740Y-976444D01*
X18499254Y-1142929D01*
X18446928Y-1164603D01*
X18437278Y-1163971D01*
X18433697Y-1163500D01*
X18433692Y-1163500D01*
X18301908Y-1163500D01*
X18301906Y-1163500D01*
X18174618Y-1197606D01*
X18174609Y-1197610D01*
X18060485Y-1263500D01*
X17967300Y-1356685D01*
X17901410Y-1470809D01*
X17901406Y-1470818D01*
X17867300Y-1598105D01*
X17867300Y-1729894D01*
X17901406Y-1857181D01*
X17901407Y-1857184D01*
X17901408Y-1857186D01*
X17967300Y-1971314D01*
X18060486Y-2064500D01*
X18174614Y-2130392D01*
X18301905Y-2164499D01*
X18301906Y-2164500D01*
X18301908Y-2164500D01*
X18433694Y-2164500D01*
X18433694Y-2164499D01*
X18560986Y-2130392D01*
X18675114Y-2064500D01*
X18768300Y-1971314D01*
X18834192Y-1857186D01*
X18868299Y-1729894D01*
X18868300Y-1729894D01*
X18868300Y-1598105D01*
X18867829Y-1594527D01*
X18882489Y-1539820D01*
X18888871Y-1532543D01*
X18914242Y-1507173D01*
X18966567Y-1485500D01*
X19463189Y-1485500D01*
X19515515Y-1507174D01*
X19530255Y-1528225D01*
X19535933Y-1540401D01*
X19535935Y-1540404D01*
X19619596Y-1624065D01*
X19726827Y-1674068D01*
X19775684Y-1680500D01*
X19775686Y-1680500D01*
X20224314Y-1680500D01*
X20224316Y-1680500D01*
X20273173Y-1674068D01*
X20380404Y-1624065D01*
X20464065Y-1540404D01*
X20514068Y-1433173D01*
X20520500Y-1384316D01*
X20520500Y-1035684D01*
X20514068Y-986827D01*
X20464065Y-879596D01*
X20380404Y-795935D01*
X20380402Y-795933D01*
X20334886Y-774709D01*
X20318495Y-767066D01*
X20280232Y-725310D01*
X20282702Y-668727D01*
X20318495Y-632933D01*
X20380404Y-604065D01*
X20464065Y-520404D01*
X20469241Y-509302D01*
X20510994Y-471039D01*
X20567578Y-473506D01*
X20588634Y-488249D01*
X20747826Y-647441D01*
X20769500Y-699767D01*
X20769500Y-974314D01*
X20775931Y-1023171D01*
X20800286Y-1075399D01*
X20825935Y-1130404D01*
X20909596Y-1214065D01*
X21016827Y-1264068D01*
X21065684Y-1270500D01*
X21065686Y-1270500D01*
X21414314Y-1270500D01*
X21414316Y-1270500D01*
X21463173Y-1264068D01*
X21570404Y-1214065D01*
X21654065Y-1130404D01*
X21704068Y-1023173D01*
X21710500Y-974316D01*
X21710500Y-525684D01*
X21704068Y-476827D01*
X21654065Y-369596D01*
X21570404Y-285935D01*
X21463173Y-235932D01*
X21463171Y-235931D01*
X21427178Y-231193D01*
X21414316Y-229500D01*
X21414314Y-229500D01*
X21139767Y-229500D01*
X21087441Y-207826D01*
X20966143Y-86528D01*
X20836058Y43557D01*
X20821867Y49435D01*
X20734800Y85500D01*
X20734799Y85500D01*
X20536811Y85500D01*
X20484485Y107174D01*
X20469745Y128225D01*
X20464066Y140401D01*
X20464065Y140404D01*
X20380404Y224065D01*
X20273173Y274068D01*
X20224316Y280500D01*
X20224314Y280500D01*
X19949767Y280500D01*
X19897441Y302174D01*
X19689241Y510374D01*
X19667567Y562700D01*
X19689241Y615026D01*
X19741567Y636700D01*
X20009899Y636700D01*
X20009900Y636700D01*
X20092108Y670752D01*
X20111156Y678642D01*
X20111158Y678643D01*
X20188657Y756142D01*
X21609173Y2176658D01*
X21661499Y2198332D01*
X21713825Y2176658D01*
X23190681Y699802D01*
X23212355Y647476D01*
X23190681Y595150D01*
X23135935Y540404D01*
X23085931Y433171D01*
X23081758Y401471D01*
X23079500Y384316D01*
X23079500Y35684D01*
X23080067Y31376D01*
X23085931Y-13171D01*
X23085932Y-13173D01*
X23092702Y-27692D01*
X23093753Y-29944D01*
X23096223Y-86528D01*
X23057960Y-128285D01*
X23001376Y-130755D01*
X22974360Y-113544D01*
X22636315Y224500D01*
X22297537Y563276D01*
X22278387Y596446D01*
X22268892Y631886D01*
X22203000Y746014D01*
X22109814Y839200D01*
X21995686Y905092D01*
X21934864Y921389D01*
X21868394Y939200D01*
X21868392Y939200D01*
X21736608Y939200D01*
X21736606Y939200D01*
X21641279Y913657D01*
X21609314Y905092D01*
X21495186Y839200D01*
X21495185Y839199D01*
X21402000Y746014D01*
X21336110Y631890D01*
X21336106Y631881D01*
X21302000Y504594D01*
X21302000Y372805D01*
X21336106Y245518D01*
X21336110Y245509D01*
X21402000Y131385D01*
X21495185Y38200D01*
X21548370Y7494D01*
X21609314Y-27692D01*
X21736605Y-61799D01*
X21736606Y-61800D01*
X21736608Y-61800D01*
X21868394Y-61800D01*
X21868394Y-61799D01*
X21995686Y-27692D01*
X22018523Y-14507D01*
X22074675Y-7113D01*
X22107850Y-26266D01*
X22607926Y-526341D01*
X22629600Y-578667D01*
X22629600Y-1075400D01*
X22651153Y-1127432D01*
X22662655Y-1155200D01*
X22662655Y-1155201D01*
X22671541Y-1176655D01*
X22671542Y-1176657D01*
X22671543Y-1176658D01*
X24728441Y-3233557D01*
X24751947Y-3243293D01*
X24751948Y-3243294D01*
X24751949Y-3243294D01*
X24829700Y-3275500D01*
X24977943Y-3275500D01*
X25019055Y-3287971D01*
X25052383Y-3310240D01*
X25129099Y-3325500D01*
X25777232Y-3325499D01*
X25829558Y-3347173D01*
X25851232Y-3399499D01*
X25829558Y-3451825D01*
X23814559Y-5466826D01*
X23771303Y-5484742D01*
X23771715Y-5487867D01*
X23766905Y-5488500D01*
X23639618Y-5522606D01*
X23639609Y-5522610D01*
X23525485Y-5588500D01*
X23432300Y-5681685D01*
X23366410Y-5795809D01*
X23366406Y-5795818D01*
X23332300Y-5923105D01*
X23332300Y-6054894D01*
X23366406Y-6182181D01*
X23366410Y-6182190D01*
X23391415Y-6225500D01*
X23432300Y-6296314D01*
X23525486Y-6389500D01*
X23639614Y-6455392D01*
X23766905Y-6489499D01*
X23766906Y-6489500D01*
X23766908Y-6489500D01*
X23898694Y-6489500D01*
X23898694Y-6489499D01*
X24025986Y-6455392D01*
X24140114Y-6389500D01*
X24233300Y-6296314D01*
X24299192Y-6182186D01*
X24333299Y-6054894D01*
X24333300Y-6054894D01*
X24333300Y-5923106D01*
X24333299Y-5923105D01*
X24302982Y-5809959D01*
X24310374Y-5753806D01*
X24322130Y-5738484D01*
X25834620Y-4225994D01*
X25886945Y-4204321D01*
X25933865Y-4223755D01*
X25934328Y-4223063D01*
X25937811Y-4225390D01*
X25939271Y-4225995D01*
X25940387Y-4227111D01*
X25940388Y-4227112D01*
X26027383Y-4285240D01*
X26104099Y-4300500D01*
X26280900Y-4300499D01*
X26357617Y-4285240D01*
X26444612Y-4227112D01*
X26502740Y-4140117D01*
X26518000Y-4063401D01*
X26517999Y-3311600D01*
X26502740Y-3234883D01*
X26444612Y-3147888D01*
X26439890Y-3144733D01*
X26357617Y-3089760D01*
X26346758Y-3087600D01*
X26280901Y-3074500D01*
X26280899Y-3074500D01*
X26191999Y-3074500D01*
X26139673Y-3052826D01*
X26117999Y-3000500D01*
X26117999Y-2911601D01*
X26115652Y-2899800D01*
X26102740Y-2834883D01*
X26073492Y-2791111D01*
X26062444Y-2735563D01*
X26073493Y-2708888D01*
X26102740Y-2665117D01*
X26118000Y-2588401D01*
X26117999Y-2411600D01*
X26102740Y-2334883D01*
X26044612Y-2247888D01*
X26041828Y-2246028D01*
X25957617Y-2189760D01*
X25880901Y-2174500D01*
X25880899Y-2174500D01*
X25129100Y-2174500D01*
X25052382Y-2189760D01*
X24965388Y-2247887D01*
X24965387Y-2247888D01*
X24907260Y-2334882D01*
X24892000Y-2411600D01*
X24892000Y-2439232D01*
X24870326Y-2491558D01*
X24818000Y-2513232D01*
X24765674Y-2491558D01*
X23680941Y-1406826D01*
X23659267Y-1354500D01*
X23680941Y-1302174D01*
X23733267Y-1280500D01*
X23824314Y-1280500D01*
X23824316Y-1280500D01*
X23873173Y-1274068D01*
X23980404Y-1224065D01*
X24059852Y-1144616D01*
X24112177Y-1122943D01*
X24164503Y-1144617D01*
X24197386Y-1177500D01*
X24311514Y-1243392D01*
X24438805Y-1277499D01*
X24438806Y-1277500D01*
X24438808Y-1277500D01*
X24570594Y-1277500D01*
X24570594Y-1277499D01*
X24697886Y-1243392D01*
X24812014Y-1177500D01*
X24882340Y-1107174D01*
X24934666Y-1085500D01*
X24964473Y-1085500D01*
X25016799Y-1107174D01*
X25038473Y-1159500D01*
X25016799Y-1211826D01*
X25005585Y-1221029D01*
X24965388Y-1247887D01*
X24965387Y-1247888D01*
X24907260Y-1334882D01*
X24907260Y-1334883D01*
X24892271Y-1410240D01*
X24892000Y-1411600D01*
X24892000Y-1588399D01*
X24907260Y-1665117D01*
X24963976Y-1750000D01*
X24965388Y-1752112D01*
X25052383Y-1810240D01*
X25129099Y-1825500D01*
X25880900Y-1825499D01*
X25957617Y-1810240D01*
X26044612Y-1752112D01*
X26102740Y-1665117D01*
X26118000Y-1588401D01*
X26117999Y-1499498D01*
X26139673Y-1447174D01*
X26191998Y-1425499D01*
X26280899Y-1425499D01*
X26280900Y-1425499D01*
X26357617Y-1410240D01*
X26401388Y-1380992D01*
X26456937Y-1369944D01*
X26483611Y-1380992D01*
X26527383Y-1410240D01*
X26604099Y-1425500D01*
X26780900Y-1425499D01*
X26857617Y-1410240D01*
X26901388Y-1380992D01*
X26956937Y-1369944D01*
X26983611Y-1380992D01*
X27027383Y-1410240D01*
X27104099Y-1425500D01*
X27280900Y-1425499D01*
X27357617Y-1410240D01*
X27401388Y-1380992D01*
X27456937Y-1369944D01*
X27483611Y-1380992D01*
X27527383Y-1410240D01*
X27604099Y-1425500D01*
X27693000Y-1425499D01*
X27745325Y-1447173D01*
X27767000Y-1499498D01*
X27767000Y-1588399D01*
X27782260Y-1665117D01*
X27782261Y-1665120D01*
X27811506Y-1708889D01*
X27822555Y-1764438D01*
X27811506Y-1791111D01*
X27782260Y-1834881D01*
X27767000Y-1911600D01*
X27767000Y-2088399D01*
X27782260Y-2165117D01*
X27837565Y-2247888D01*
X27840388Y-2252112D01*
X27927383Y-2310240D01*
X28004099Y-2325500D01*
X28725832Y-2325499D01*
X28778158Y-2347173D01*
X28816726Y-2385741D01*
X28838400Y-2438067D01*
X28838400Y-2600979D01*
X28816726Y-2653305D01*
X28764400Y-2674979D01*
X28757148Y-2674623D01*
X28755902Y-2674500D01*
X28755901Y-2674500D01*
X28755899Y-2674500D01*
X28004100Y-2674500D01*
X27927382Y-2689760D01*
X27840388Y-2747887D01*
X27840387Y-2747888D01*
X27782260Y-2834882D01*
X27782260Y-2834883D01*
X27769683Y-2898114D01*
X27767000Y-2911600D01*
X27767000Y-3000500D01*
X27745326Y-3052826D01*
X27693001Y-3074500D01*
X27604100Y-3074500D01*
X27527382Y-3089760D01*
X27527379Y-3089761D01*
X27483611Y-3119006D01*
X27428062Y-3130055D01*
X27401389Y-3119006D01*
X27357618Y-3089760D01*
X27332045Y-3084673D01*
X27280901Y-3074500D01*
X27280899Y-3074500D01*
X27104100Y-3074500D01*
X27027382Y-3089760D01*
X26940388Y-3147887D01*
X26940387Y-3147888D01*
X26882260Y-3234882D01*
X26876455Y-3264068D01*
X26867271Y-3310240D01*
X26867000Y-3311600D01*
X26867000Y-4063399D01*
X26871095Y-4083984D01*
X26882260Y-4140117D01*
X26940388Y-4227112D01*
X26947010Y-4231536D01*
X26958224Y-4240739D01*
X27480628Y-4763144D01*
X27499779Y-4796314D01*
X27521208Y-4876286D01*
X27587100Y-4990414D01*
X27680286Y-5083600D01*
X27794414Y-5149492D01*
X27794418Y-5149493D01*
X27896074Y-5176732D01*
X27941007Y-5211210D01*
X27948399Y-5267363D01*
X27929247Y-5300536D01*
X26544059Y-6685726D01*
X26491733Y-6707400D01*
X21662300Y-6707400D01*
X21590698Y-6737057D01*
X21590699Y-6737058D01*
X21561042Y-6749342D01*
X20192858Y-8117525D01*
X20140532Y-8139199D01*
X20088206Y-8117525D01*
X20056482Y-8085801D01*
X19951394Y-8034427D01*
X19883264Y-8024500D01*
X19883260Y-8024500D01*
X19516740Y-8024500D01*
X19516735Y-8024500D01*
X19448606Y-8034427D01*
X19448605Y-8034427D01*
X19343517Y-8085801D01*
X19260799Y-8168519D01*
X19260223Y-8169327D01*
X19259608Y-8169710D01*
X19256466Y-8172853D01*
X19255738Y-8172125D01*
X19212177Y-8199316D01*
X19156998Y-8186548D01*
X19139777Y-8169327D01*
X19139200Y-8168519D01*
X19056482Y-8085801D01*
X18951394Y-8034427D01*
X18883264Y-8024500D01*
X18883260Y-8024500D01*
X18516740Y-8024500D01*
X18516735Y-8024500D01*
X18448606Y-8034427D01*
X18448605Y-8034427D01*
X18343517Y-8085801D01*
X18260801Y-8168517D01*
X18209427Y-8273605D01*
X18209427Y-8273606D01*
X18199500Y-8341735D01*
X18199500Y-9658264D01*
X18209427Y-9726393D01*
X18209427Y-9726394D01*
X18260801Y-9831482D01*
X18260802Y-9831483D01*
X18343517Y-9914198D01*
X18448607Y-9965573D01*
X18516740Y-9975500D01*
X18516746Y-9975500D01*
X18856933Y-9975500D01*
X18909259Y-9997174D01*
X19172943Y-10260858D01*
X19250442Y-10338357D01*
X19351700Y-10380300D01*
X19351701Y-10380300D01*
X20207898Y-10380300D01*
X20207900Y-10380300D01*
X20309158Y-10338357D01*
X20386657Y-10260858D01*
X22657041Y-7990474D01*
X22709367Y-7968800D01*
X23373132Y-7968800D01*
X23425458Y-7990474D01*
X23447132Y-8042800D01*
X23425458Y-8095126D01*
X21083942Y-10436643D01*
X21006442Y-10514143D01*
X20964500Y-10615400D01*
X20964500Y-10713189D01*
X20942826Y-10765515D01*
X20921777Y-10780254D01*
X20909596Y-10785934D01*
X20825935Y-10869595D01*
X20775931Y-10976828D01*
X20769500Y-11025685D01*
X20769500Y-11474314D01*
X20775931Y-11523171D01*
X20825935Y-11630404D01*
X20851590Y-11656059D01*
X20873264Y-11708385D01*
X20851590Y-11760711D01*
X20808113Y-11781854D01*
X20500000Y-11818964D01*
X20000000Y-11879185D01*
X18500000Y-12059845D01*
X18000000Y-12120066D01*
X16500000Y-12300726D01*
X16000000Y-12360947D01*
X15500000Y-12421167D01*
X15081690Y-12471548D01*
X15027147Y-12456286D01*
X14999372Y-12406928D01*
X14998848Y-12399115D01*
X14994099Y-12059845D01*
X14887172Y-4420734D01*
X16599500Y-4420734D01*
X16599500Y-5829266D01*
X16602354Y-5859699D01*
X16602354Y-5859701D01*
X16602355Y-5859704D01*
X16647206Y-5987881D01*
X16647207Y-5987883D01*
X16727846Y-6097146D01*
X16727853Y-6097153D01*
X16837116Y-6177792D01*
X16837118Y-6177793D01*
X16965295Y-6222644D01*
X16965301Y-6222646D01*
X16995734Y-6225500D01*
X16995741Y-6225500D01*
X17804258Y-6225500D01*
X17804266Y-6225500D01*
X17834699Y-6222646D01*
X17962882Y-6177793D01*
X18072150Y-6097150D01*
X18152793Y-5987882D01*
X18197646Y-5859699D01*
X18200500Y-5829266D01*
X18200500Y-4774505D01*
X18382900Y-4774505D01*
X18382900Y-4906294D01*
X18417006Y-5033581D01*
X18417010Y-5033590D01*
X18478908Y-5140800D01*
X18482900Y-5147714D01*
X18576086Y-5240900D01*
X18690214Y-5306792D01*
X18817505Y-5340899D01*
X18817506Y-5340900D01*
X18817508Y-5340900D01*
X18949294Y-5340900D01*
X18949294Y-5340899D01*
X19076586Y-5306792D01*
X19190714Y-5240900D01*
X19283900Y-5147714D01*
X19349792Y-5033586D01*
X19383899Y-4906294D01*
X19383900Y-4906294D01*
X19383900Y-4774506D01*
X19383899Y-4774505D01*
X19355402Y-4668153D01*
X19349792Y-4647214D01*
X19283900Y-4533086D01*
X19190714Y-4439900D01*
X19157518Y-4420734D01*
X20199500Y-4420734D01*
X20199500Y-5829266D01*
X20202354Y-5859699D01*
X20202354Y-5859701D01*
X20202355Y-5859704D01*
X20247206Y-5987881D01*
X20247207Y-5987883D01*
X20327846Y-6097146D01*
X20327853Y-6097153D01*
X20437116Y-6177792D01*
X20437118Y-6177793D01*
X20565295Y-6222644D01*
X20565301Y-6222646D01*
X20595734Y-6225500D01*
X20595741Y-6225500D01*
X21404258Y-6225500D01*
X21404266Y-6225500D01*
X21434699Y-6222646D01*
X21562882Y-6177793D01*
X21672150Y-6097150D01*
X21752793Y-5987882D01*
X21797646Y-5859699D01*
X21800500Y-5829266D01*
X21800500Y-4420734D01*
X21797646Y-4390301D01*
X21752793Y-4262118D01*
X21752792Y-4262116D01*
X21672153Y-4152853D01*
X21672146Y-4152846D01*
X21562883Y-4072207D01*
X21562881Y-4072206D01*
X21434704Y-4027355D01*
X21434705Y-4027355D01*
X21434700Y-4027354D01*
X21434699Y-4027354D01*
X21404266Y-4024500D01*
X20595734Y-4024500D01*
X20565301Y-4027354D01*
X20565299Y-4027354D01*
X20565295Y-4027355D01*
X20437118Y-4072206D01*
X20437116Y-4072207D01*
X20327853Y-4152846D01*
X20327846Y-4152853D01*
X20247207Y-4262116D01*
X20247206Y-4262118D01*
X20202355Y-4390295D01*
X20202354Y-4390299D01*
X20202354Y-4390301D01*
X20199500Y-4420734D01*
X19157518Y-4420734D01*
X19076590Y-4374010D01*
X19076581Y-4374006D01*
X18949294Y-4339900D01*
X18949292Y-4339900D01*
X18817508Y-4339900D01*
X18817506Y-4339900D01*
X18690218Y-4374006D01*
X18690209Y-4374010D01*
X18576085Y-4439900D01*
X18482900Y-4533085D01*
X18417010Y-4647209D01*
X18417006Y-4647218D01*
X18382900Y-4774505D01*
X18200500Y-4774505D01*
X18200500Y-4420734D01*
X18197646Y-4390301D01*
X18152793Y-4262118D01*
X18152792Y-4262116D01*
X18072153Y-4152853D01*
X18072146Y-4152846D01*
X17962883Y-4072207D01*
X17962881Y-4072206D01*
X17834704Y-4027355D01*
X17834705Y-4027355D01*
X17834700Y-4027354D01*
X17834699Y-4027354D01*
X17804266Y-4024500D01*
X16995734Y-4024500D01*
X16965301Y-4027354D01*
X16965299Y-4027354D01*
X16965295Y-4027355D01*
X16837118Y-4072206D01*
X16837116Y-4072207D01*
X16727853Y-4152846D01*
X16727846Y-4152853D01*
X16647207Y-4262116D01*
X16647206Y-4262118D01*
X16602355Y-4390295D01*
X16602354Y-4390299D01*
X16602354Y-4390301D01*
X16599500Y-4420734D01*
X14887172Y-4420734D01*
X14857831Y-2324500D01*
X14776269Y3502494D01*
X18076900Y3502494D01*
X18076900Y3370705D01*
X18111006Y3243418D01*
X18111010Y3243409D01*
X18176900Y3129285D01*
X18270085Y3036100D01*
X18384209Y2970210D01*
X18384218Y2970206D01*
X18511505Y2936100D01*
X18511508Y2936100D01*
X18643294Y2936100D01*
X18770581Y2970206D01*
X18770584Y2970207D01*
X18770586Y2970208D01*
X18770587Y2970208D01*
X18770590Y2970210D01*
X18884714Y3036100D01*
X18977899Y3129285D01*
X18979737Y3132467D01*
X19043792Y3243414D01*
X19077899Y3370705D01*
X19077900Y3370706D01*
X19077900Y3502494D01*
X19043793Y3629781D01*
X19043792Y3629786D01*
X18977900Y3743914D01*
X18884714Y3837100D01*
X18799300Y3886414D01*
X18764821Y3931348D01*
X18772214Y3987500D01*
X18817148Y4021979D01*
X18836300Y4024500D01*
X18883264Y4024500D01*
X18951393Y4034427D01*
X18951394Y4034427D01*
X19056482Y4085801D01*
X19139198Y4168517D01*
X19190572Y4273605D01*
X19190573Y4273607D01*
X19200500Y4341740D01*
X19200500Y5472332D01*
X19222174Y5524658D01*
X19458642Y5761126D01*
X19510968Y5782800D01*
X28748017Y5782800D01*
X28800343Y5761126D01*
X28812103Y5745800D01*
X28848597Y5682589D01*
X28941785Y5589400D01*
X29055909Y5523510D01*
X29055918Y5523506D01*
X29183205Y5489400D01*
X29183208Y5489400D01*
X29314994Y5489400D01*
X29442281Y5523506D01*
X29442284Y5523507D01*
X29442286Y5523508D01*
X29442287Y5523508D01*
X29442290Y5523510D01*
X29556414Y5589400D01*
X29649599Y5682585D01*
X29649602Y5682589D01*
X29715492Y5796714D01*
X29749599Y5924005D01*
X29749600Y5924006D01*
X29749600Y6055794D01*
X29726168Y6143242D01*
X29715492Y6183086D01*
X29649600Y6297214D01*
X29556414Y6390400D01*
X29442286Y6456292D01*
X29392895Y6469526D01*
X29314994Y6490400D01*
X29314992Y6490400D01*
X29183208Y6490400D01*
X29183206Y6490400D01*
X29070954Y6460322D01*
X29055914Y6456292D01*
X28941786Y6390400D01*
X28941785Y6390399D01*
X28906860Y6355474D01*
X28854534Y6333800D01*
X19311400Y6333800D01*
X19239799Y6304141D01*
X19210141Y6291857D01*
X19055270Y6136985D01*
X18915459Y5997174D01*
X18863133Y5975500D01*
X18516740Y5975500D01*
X18448607Y5965573D01*
X18448605Y5965572D01*
X18343517Y5914198D01*
X18260801Y5831482D01*
X18209427Y5726394D01*
X18209427Y5726393D01*
X18199500Y5658264D01*
X18199500Y4341735D01*
X18209427Y4273606D01*
X18209427Y4273605D01*
X18260801Y4168517D01*
X18343516Y4085802D01*
X18421914Y4047476D01*
X18459404Y4005023D01*
X18455894Y3948494D01*
X18413441Y3911004D01*
X18408585Y3909522D01*
X18384214Y3902992D01*
X18270086Y3837100D01*
X18270085Y3837099D01*
X18176900Y3743914D01*
X18111010Y3629790D01*
X18111006Y3629781D01*
X18076900Y3502494D01*
X14776269Y3502494D01*
X14776216Y3506306D01*
X14711612Y8121780D01*
X14691211Y9579266D01*
X16599500Y9579266D01*
X16599500Y8170734D01*
X16602354Y8140301D01*
X16602355Y8140295D01*
X16647206Y8012118D01*
X16647207Y8012116D01*
X16727846Y7902853D01*
X16727853Y7902846D01*
X16837116Y7822207D01*
X16837118Y7822206D01*
X16965295Y7777355D01*
X16965294Y7777355D01*
X16965299Y7777354D01*
X16965301Y7777354D01*
X16995734Y7774500D01*
X16995740Y7774500D01*
X17804260Y7774500D01*
X17804266Y7774500D01*
X17834699Y7777354D01*
X17834701Y7777354D01*
X17834704Y7777355D01*
X17962881Y7822206D01*
X17962883Y7822207D01*
X18072146Y7902846D01*
X18072153Y7902853D01*
X18152792Y8012116D01*
X18152793Y8012118D01*
X18197644Y8140295D01*
X18197646Y8140301D01*
X18200500Y8170734D01*
X18200500Y9579266D01*
X20199500Y9579266D01*
X20199500Y8170734D01*
X20202354Y8140301D01*
X20202355Y8140295D01*
X20247206Y8012118D01*
X20247207Y8012116D01*
X20327846Y7902853D01*
X20327853Y7902846D01*
X20437116Y7822207D01*
X20437118Y7822206D01*
X20565295Y7777355D01*
X20565294Y7777355D01*
X20565299Y7777354D01*
X20565301Y7777354D01*
X20595734Y7774500D01*
X20595740Y7774500D01*
X21404260Y7774500D01*
X21404266Y7774500D01*
X21434699Y7777354D01*
X21434701Y7777354D01*
X21434704Y7777355D01*
X21562881Y7822206D01*
X21562883Y7822207D01*
X21672146Y7902846D01*
X21672153Y7902853D01*
X21752792Y8012116D01*
X21752793Y8012118D01*
X21797644Y8140295D01*
X21797646Y8140301D01*
X21800500Y8170734D01*
X21800500Y8379266D01*
X26099500Y8379266D01*
X26099500Y6970734D01*
X26102329Y6940572D01*
X26102355Y6940295D01*
X26147206Y6812118D01*
X26147207Y6812116D01*
X26227846Y6702853D01*
X26227853Y6702846D01*
X26337116Y6622207D01*
X26337118Y6622206D01*
X26465295Y6577355D01*
X26465294Y6577355D01*
X26465299Y6577354D01*
X26465301Y6577354D01*
X26495734Y6574500D01*
X26495740Y6574500D01*
X27304260Y6574500D01*
X27304266Y6574500D01*
X27334699Y6577354D01*
X27334701Y6577354D01*
X27334704Y6577355D01*
X27462881Y6622206D01*
X27462883Y6622207D01*
X27572146Y6702846D01*
X27572153Y6702853D01*
X27652792Y6812116D01*
X27652793Y6812118D01*
X27697644Y6940295D01*
X27697646Y6940301D01*
X27700500Y6970734D01*
X27700500Y8379266D01*
X27697646Y8409699D01*
X27652793Y8537882D01*
X27572150Y8647150D01*
X27462882Y8727793D01*
X27334699Y8772646D01*
X27304266Y8775500D01*
X26495734Y8775500D01*
X26465301Y8772646D01*
X26465295Y8772644D01*
X26337118Y8727793D01*
X26337116Y8727792D01*
X26227853Y8647153D01*
X26227846Y8647146D01*
X26147207Y8537883D01*
X26147206Y8537881D01*
X26102355Y8409704D01*
X26102354Y8409701D01*
X26102354Y8409699D01*
X26099500Y8379266D01*
X21800500Y8379266D01*
X21800500Y9579266D01*
X21797646Y9609699D01*
X21752793Y9737882D01*
X21672150Y9847150D01*
X21562882Y9927793D01*
X21434699Y9972646D01*
X21404266Y9975500D01*
X20595734Y9975500D01*
X20565301Y9972646D01*
X20565295Y9972644D01*
X20437118Y9927793D01*
X20437116Y9927792D01*
X20327853Y9847153D01*
X20327846Y9847146D01*
X20247207Y9737883D01*
X20247206Y9737881D01*
X20202355Y9609704D01*
X20202354Y9609701D01*
X20202354Y9609699D01*
X20199500Y9579266D01*
X18200500Y9579266D01*
X18197646Y9609699D01*
X18152793Y9737882D01*
X18072150Y9847150D01*
X17962882Y9927793D01*
X17834699Y9972646D01*
X17804266Y9975500D01*
X16995734Y9975500D01*
X16965301Y9972646D01*
X16965295Y9972644D01*
X16837118Y9927793D01*
X16837116Y9927792D01*
X16727853Y9847153D01*
X16727846Y9847146D01*
X16647207Y9737883D01*
X16647206Y9737881D01*
X16602355Y9609704D01*
X16602354Y9609701D01*
X16602354Y9609699D01*
X16599500Y9579266D01*
X14691211Y9579266D01*
X14651183Y12438916D01*
X14672123Y12491539D01*
X14724140Y12513944D01*
X14734024Y12513420D01*
G37*
%TD.AperFunction*%
%TA.AperFunction,Conductor*%
G36*
X35649999Y9994292D02*
G01*
X35650000Y9994292D01*
X36150000Y9934071D01*
X37650000Y9753411D01*
X38150000Y9693190D01*
X40150000Y9452310D01*
X40650000Y9392089D01*
X41150000Y9331869D01*
X41642087Y9272602D01*
X41657530Y9269031D01*
X41785916Y9224408D01*
X41999996Y9150001D01*
X41999997Y9150000D01*
X42000000Y9150000D01*
X42412230Y9132001D01*
X42794251Y9115321D01*
X42800682Y9114758D01*
X43585678Y9011411D01*
X43592035Y9010290D01*
X44365040Y8838920D01*
X44371276Y8837249D01*
X45126400Y8599159D01*
X45132467Y8596951D01*
X45863973Y8293951D01*
X45869823Y8291223D01*
X46572134Y7925623D01*
X46577725Y7922395D01*
X47245501Y7496975D01*
X47250789Y7493272D01*
X47878934Y7011279D01*
X47883880Y7007130D01*
X48467644Y6472209D01*
X48472209Y6467644D01*
X49007130Y5883880D01*
X49011279Y5878934D01*
X49493272Y5250789D01*
X49496975Y5245501D01*
X49922395Y4577724D01*
X49925623Y4572133D01*
X50291223Y3869823D01*
X50293951Y3863973D01*
X50596951Y3132467D01*
X50599159Y3126400D01*
X50837249Y2371276D01*
X50838920Y2365040D01*
X51010290Y1592035D01*
X51011411Y1585678D01*
X51114758Y800682D01*
X51115321Y794251D01*
X51149859Y3228D01*
X51149859Y-3228D01*
X51115321Y-794251D01*
X51114758Y-800682D01*
X51011411Y-1585678D01*
X51010290Y-1592035D01*
X50838920Y-2365040D01*
X50837249Y-2371276D01*
X50599159Y-3126400D01*
X50596951Y-3132467D01*
X50293951Y-3863973D01*
X50291223Y-3869823D01*
X49925623Y-4572133D01*
X49922395Y-4577724D01*
X49496975Y-5245501D01*
X49493272Y-5250789D01*
X49011279Y-5878934D01*
X49007130Y-5883880D01*
X48472209Y-6467644D01*
X48467644Y-6472209D01*
X47883880Y-7007130D01*
X47878934Y-7011279D01*
X47250789Y-7493272D01*
X47245501Y-7496975D01*
X46577725Y-7922395D01*
X46572134Y-7925623D01*
X45869823Y-8291223D01*
X45863973Y-8293951D01*
X45132467Y-8596951D01*
X45126400Y-8599159D01*
X44371276Y-8837249D01*
X44365040Y-8838920D01*
X43592035Y-9010290D01*
X43585678Y-9011411D01*
X42800682Y-9114758D01*
X42794251Y-9115321D01*
X42000003Y-9149999D01*
X42000000Y-9150000D01*
X41505448Y-9288192D01*
X41494382Y-9290391D01*
X41000000Y-9349935D01*
X40500000Y-9410155D01*
X40000000Y-9470376D01*
X38500000Y-9651036D01*
X38000000Y-9711257D01*
X36000000Y-9952137D01*
X35500000Y-10012358D01*
X35499999Y-10012358D01*
X35191982Y-10049455D01*
X35137440Y-10034193D01*
X35109665Y-9984834D01*
X35124927Y-9930292D01*
X35130809Y-9923660D01*
X35174063Y-9880406D01*
X35174065Y-9880404D01*
X35196878Y-9831482D01*
X35203059Y-9818227D01*
X35244816Y-9779963D01*
X35270126Y-9775500D01*
X35654798Y-9775500D01*
X35654800Y-9775500D01*
X35756058Y-9733557D01*
X35763441Y-9726173D01*
X35815766Y-9704500D01*
X35887894Y-9704500D01*
X35887894Y-9704499D01*
X36015186Y-9670392D01*
X36129314Y-9604500D01*
X36158640Y-9575174D01*
X36210966Y-9553500D01*
X37285498Y-9553500D01*
X37285500Y-9553500D01*
X37386758Y-9511557D01*
X37464257Y-9434058D01*
X38501141Y-8397174D01*
X38553467Y-8375500D01*
X38883254Y-8375500D01*
X38883260Y-8375500D01*
X38951393Y-8365573D01*
X39056483Y-8314198D01*
X39139198Y-8231483D01*
X39190573Y-8126393D01*
X39200500Y-8058260D01*
X39200500Y-7319767D01*
X39222174Y-7267441D01*
X39273158Y-7216457D01*
X39355357Y-7134259D01*
X39373050Y-7091544D01*
X39397300Y-7033000D01*
X39397300Y-4668153D01*
X39418974Y-4615827D01*
X39471300Y-4594153D01*
X39495741Y-4598306D01*
X39565301Y-4622646D01*
X39595734Y-4625500D01*
X39595741Y-4625500D01*
X40404258Y-4625500D01*
X40404266Y-4625500D01*
X40434699Y-4622646D01*
X40562882Y-4577793D01*
X40672150Y-4497150D01*
X40752793Y-4387882D01*
X40797646Y-4259699D01*
X40800500Y-4229266D01*
X40800500Y-2820734D01*
X40797646Y-2790301D01*
X40779735Y-2739115D01*
X40752794Y-2662120D01*
X40752791Y-2662116D01*
X40689767Y-2576720D01*
X40675247Y-2557046D01*
X40661615Y-2502074D01*
X40690846Y-2453563D01*
X40715630Y-2441627D01*
X40768386Y-2427492D01*
X40882514Y-2361600D01*
X40975700Y-2268414D01*
X41041592Y-2154286D01*
X41075699Y-2026994D01*
X41075700Y-2026994D01*
X41075700Y-1895206D01*
X41075699Y-1895205D01*
X41059535Y-1834881D01*
X41041592Y-1767914D01*
X40975700Y-1653786D01*
X40901038Y-1579124D01*
X40879364Y-1526798D01*
X40901038Y-1474472D01*
X40953364Y-1452798D01*
X40981682Y-1458430D01*
X41045100Y-1484700D01*
X41307296Y-1484700D01*
X41359622Y-1506374D01*
X41381296Y-1558700D01*
X41375663Y-1587019D01*
X41374009Y-1591010D01*
X41374008Y-1591014D01*
X41350123Y-1680157D01*
X41339900Y-1718309D01*
X41339900Y-1850094D01*
X41374006Y-1977381D01*
X41374007Y-1977384D01*
X41374008Y-1977386D01*
X41439900Y-2091514D01*
X41533086Y-2184700D01*
X41647214Y-2250592D01*
X41774505Y-2284699D01*
X41774506Y-2284700D01*
X41774508Y-2284700D01*
X41906294Y-2284700D01*
X41906294Y-2284699D01*
X42033586Y-2250592D01*
X42147714Y-2184700D01*
X42240900Y-2091514D01*
X42306792Y-1977386D01*
X42340899Y-1850094D01*
X42340900Y-1850094D01*
X42340900Y-1718306D01*
X42340899Y-1718305D01*
X42330677Y-1680157D01*
X42306792Y-1591014D01*
X42240900Y-1476886D01*
X42192090Y-1428076D01*
X42170416Y-1375750D01*
X42192090Y-1323424D01*
X42213340Y-1302174D01*
X42419257Y-1096259D01*
X42440051Y-1046057D01*
X42461200Y-995000D01*
X42461200Y304266D01*
X45624500Y304266D01*
X45624500Y-304266D01*
X45627354Y-334699D01*
X45627354Y-334701D01*
X45627355Y-334704D01*
X45672206Y-462881D01*
X45672207Y-462883D01*
X45752846Y-572146D01*
X45752853Y-572153D01*
X45854866Y-647441D01*
X45862118Y-652793D01*
X45924942Y-674776D01*
X45967171Y-712514D01*
X45974500Y-744622D01*
X45974500Y-2095287D01*
X45974483Y-2096851D01*
X45973539Y-2141494D01*
X45973977Y-2145469D01*
X45974499Y-2149435D01*
X45986070Y-2192619D01*
X45986458Y-2194130D01*
X45997106Y-2237512D01*
X45998569Y-2241269D01*
X46000091Y-2244940D01*
X46022449Y-2283667D01*
X46023217Y-2285029D01*
X46044721Y-2324164D01*
X46047070Y-2327362D01*
X46049522Y-2330557D01*
X46049525Y-2330562D01*
X46066136Y-2347173D01*
X46081120Y-2362157D01*
X46082212Y-2363273D01*
X46179237Y-2464485D01*
X46975304Y-3294909D01*
X46991374Y-3311672D01*
X46996662Y-3317831D01*
X46999525Y-3321562D01*
X47031139Y-3353176D01*
X47032232Y-3354293D01*
X47063145Y-3386540D01*
X47066260Y-3389037D01*
X47069433Y-3391471D01*
X47069435Y-3391472D01*
X47069438Y-3391475D01*
X47108189Y-3413847D01*
X47109468Y-3414604D01*
X47147705Y-3437771D01*
X47147706Y-3437771D01*
X47147709Y-3437773D01*
X47151337Y-3439367D01*
X47155057Y-3440907D01*
X47155062Y-3440910D01*
X47198308Y-3452497D01*
X47199665Y-3452876D01*
X47242645Y-3465372D01*
X47242651Y-3465372D01*
X47246604Y-3465977D01*
X47250561Y-3466498D01*
X47250565Y-3466500D01*
X47295288Y-3466500D01*
X47296851Y-3466516D01*
X47341495Y-3467460D01*
X47346163Y-3466946D01*
X47354271Y-3466500D01*
X48061434Y-3466500D01*
X48113760Y-3488174D01*
X48117386Y-3491800D01*
X48231514Y-3557692D01*
X48358805Y-3591799D01*
X48358806Y-3591800D01*
X48358808Y-3591800D01*
X48490594Y-3591800D01*
X48490594Y-3591799D01*
X48617886Y-3557692D01*
X48732014Y-3491800D01*
X48825200Y-3398614D01*
X48891092Y-3284486D01*
X48925199Y-3157194D01*
X48925200Y-3157194D01*
X48925200Y-3025406D01*
X48925199Y-3025405D01*
X48924600Y-3023171D01*
X48891092Y-2898114D01*
X48825200Y-2783986D01*
X48732014Y-2690800D01*
X48703995Y-2674623D01*
X48617890Y-2624910D01*
X48617881Y-2624906D01*
X48490594Y-2590800D01*
X48490592Y-2590800D01*
X48358808Y-2590800D01*
X48358806Y-2590800D01*
X48231518Y-2624906D01*
X48231509Y-2624910D01*
X48117385Y-2690800D01*
X48114360Y-2693826D01*
X48062034Y-2715500D01*
X47491774Y-2715500D01*
X47439448Y-2693826D01*
X47438355Y-2692709D01*
X46746081Y-1970557D01*
X46725500Y-1919348D01*
X46725500Y-744622D01*
X46747174Y-692296D01*
X46775056Y-674776D01*
X46786560Y-670751D01*
X46843108Y-673926D01*
X46880847Y-716157D01*
X46885000Y-740598D01*
X46885000Y-950000D01*
X48975000Y-950000D01*
X48975000Y950000D01*
X46885000Y950000D01*
X46885000Y740599D01*
X46863326Y688273D01*
X46811000Y666599D01*
X46786559Y670752D01*
X46736486Y688273D01*
X46709699Y697646D01*
X46679266Y700500D01*
X46020734Y700500D01*
X45990301Y697646D01*
X45990295Y697644D01*
X45862118Y652793D01*
X45862116Y652792D01*
X45752853Y572153D01*
X45752846Y572146D01*
X45672207Y462883D01*
X45672206Y462881D01*
X45627355Y334704D01*
X45627354Y334701D01*
X45627354Y334699D01*
X45624500Y304266D01*
X42461200Y304266D01*
X42461200Y453300D01*
X42482874Y505626D01*
X42535200Y527300D01*
X42538794Y527300D01*
X42666081Y561406D01*
X42666084Y561407D01*
X42666086Y561408D01*
X42666087Y561408D01*
X42666090Y561410D01*
X42780214Y627300D01*
X42873399Y720485D01*
X42880947Y733557D01*
X42939292Y834614D01*
X42973399Y961905D01*
X42973400Y961906D01*
X42973400Y1093692D01*
X42972929Y1097270D01*
X42987588Y1151978D01*
X42993970Y1159255D01*
X43107084Y1272369D01*
X43223557Y1388842D01*
X43264874Y1488590D01*
X43301966Y1527337D01*
X43320404Y1535935D01*
X43404064Y1619595D01*
X43404065Y1619596D01*
X43432933Y1681504D01*
X43474691Y1719767D01*
X43531274Y1717297D01*
X43567066Y1681504D01*
X43577225Y1659719D01*
X43595935Y1619595D01*
X43679595Y1535935D01*
X43786829Y1485931D01*
X43786828Y1485931D01*
X43824318Y1480996D01*
X43835684Y1479500D01*
X43835686Y1479500D01*
X44184314Y1479500D01*
X44184316Y1479500D01*
X44197178Y1481193D01*
X44233171Y1485931D01*
X44340404Y1535935D01*
X44424064Y1619595D01*
X44424065Y1619596D01*
X44474068Y1726827D01*
X44480500Y1775684D01*
X44480500Y2224316D01*
X44474068Y2273173D01*
X44424065Y2380404D01*
X44340404Y2464065D01*
X44233173Y2514068D01*
X44184316Y2520500D01*
X44184314Y2520500D01*
X43909768Y2520500D01*
X43857442Y2542174D01*
X43784942Y2614674D01*
X43763268Y2667000D01*
X43784942Y2719326D01*
X43837268Y2741000D01*
X44269746Y2741000D01*
X44269748Y2741000D01*
X44317508Y2750500D01*
X44328232Y2752633D01*
X44372343Y2782108D01*
X44394552Y2796948D01*
X44430535Y2850800D01*
X44438866Y2863267D01*
X44438867Y2863269D01*
X44449493Y2916689D01*
X44450500Y2921752D01*
X44450500Y4240628D01*
X44472174Y4292954D01*
X44524500Y4314628D01*
X44565613Y4302156D01*
X44621767Y4264633D01*
X44621766Y4264633D01*
X44656858Y4257653D01*
X44680252Y4253000D01*
X44680254Y4253000D01*
X45919746Y4253000D01*
X45919748Y4253000D01*
X45958736Y4260755D01*
X45978232Y4264633D01*
X46034387Y4302156D01*
X46044552Y4308948D01*
X46088867Y4375269D01*
X46100500Y4433752D01*
X46100500Y5173248D01*
X46088867Y5231731D01*
X46044552Y5298052D01*
X45978232Y5342366D01*
X45978231Y5342367D01*
X45919748Y5354000D01*
X44680252Y5354000D01*
X44621769Y5342367D01*
X44621767Y5342366D01*
X44608964Y5333811D01*
X44555448Y5298052D01*
X44555447Y5298050D01*
X44511133Y5231732D01*
X44511133Y5231731D01*
X44505384Y5202826D01*
X44499500Y5173246D01*
X44499500Y4678371D01*
X44477826Y4626045D01*
X44425500Y4604371D01*
X44384390Y4616841D01*
X44328231Y4654367D01*
X44269748Y4666000D01*
X43630252Y4666000D01*
X43571769Y4654367D01*
X43571767Y4654366D01*
X43549560Y4639527D01*
X43505448Y4610052D01*
X43490608Y4587843D01*
X43461133Y4543732D01*
X43448791Y4481682D01*
X43446335Y4482170D01*
X43423145Y4438785D01*
X43368947Y4422343D01*
X43318998Y4449042D01*
X43302200Y4495987D01*
X43302200Y4705499D01*
X43302200Y4705500D01*
X43294064Y4725142D01*
X43290704Y4733253D01*
X43260259Y4806755D01*
X43260258Y4806758D01*
X43064158Y5002857D01*
X42962900Y5044800D01*
X40455900Y5044800D01*
X40404961Y5023700D01*
X40354641Y5002857D01*
X40354640Y5002856D01*
X39977828Y4626044D01*
X39925502Y4604370D01*
X39884392Y4616840D01*
X39828231Y4654367D01*
X39769748Y4666000D01*
X39130252Y4666000D01*
X39071769Y4654367D01*
X39015610Y4616842D01*
X38960065Y4605792D01*
X38912972Y4637257D01*
X38900500Y4678371D01*
X38900500Y5173246D01*
X38898119Y5185216D01*
X38888867Y5231731D01*
X38844552Y5298052D01*
X38778232Y5342366D01*
X38778231Y5342367D01*
X38719748Y5354000D01*
X37480252Y5354000D01*
X37421769Y5342367D01*
X37421767Y5342366D01*
X37408964Y5333811D01*
X37355448Y5298052D01*
X37355447Y5298050D01*
X37311133Y5231732D01*
X37311133Y5231731D01*
X37305384Y5202826D01*
X37299500Y5173246D01*
X37299500Y4433753D01*
X37311133Y4375267D01*
X37355447Y4308949D01*
X37355449Y4308947D01*
X37421767Y4264633D01*
X37421766Y4264633D01*
X37456858Y4257653D01*
X37480252Y4253000D01*
X37480254Y4253000D01*
X38719746Y4253000D01*
X38719748Y4253000D01*
X38758736Y4260755D01*
X38778232Y4264633D01*
X38834387Y4302156D01*
X38889935Y4313206D01*
X38937028Y4281741D01*
X38949500Y4240628D01*
X38949500Y4058100D01*
X38927826Y4005774D01*
X38875500Y3984100D01*
X38430400Y3984100D01*
X38366907Y3957800D01*
X38329141Y3942157D01*
X38329140Y3942156D01*
X36989825Y2602841D01*
X36937499Y2581167D01*
X36885174Y2602840D01*
X35260040Y4227974D01*
X35238367Y4280299D01*
X35240263Y4292844D01*
X35239744Y4292920D01*
X35240572Y4298605D01*
X35240573Y4298607D01*
X35250500Y4366740D01*
X35250500Y4733260D01*
X35240573Y4801393D01*
X35189198Y4906483D01*
X35106483Y4989198D01*
X35001393Y5040573D01*
X34955705Y5047229D01*
X34907053Y5076221D01*
X34893149Y5131125D01*
X34902289Y5157454D01*
X34915892Y5181014D01*
X34918318Y5185216D01*
X34920258Y5184095D01*
X34955034Y5218868D01*
X34983350Y5224500D01*
X35225019Y5224500D01*
X35277345Y5202826D01*
X35291500Y5183000D01*
X35310801Y5143517D01*
X35393517Y5060801D01*
X35498605Y5009427D01*
X35566735Y4999500D01*
X35566740Y4999500D01*
X36808264Y4999500D01*
X36876393Y5009427D01*
X36876394Y5009427D01*
X36981482Y5060801D01*
X37064198Y5143517D01*
X37115572Y5248605D01*
X37115573Y5248607D01*
X37125500Y5316740D01*
X37125500Y5683260D01*
X37115573Y5751393D01*
X37064198Y5856483D01*
X36981483Y5939198D01*
X36876393Y5990573D01*
X36808260Y6000500D01*
X36808254Y6000500D01*
X36546966Y6000500D01*
X36505762Y6017567D01*
X39549500Y6017567D01*
X39549500Y5889432D01*
X39574497Y5763760D01*
X39574498Y5763757D01*
X39623533Y5645376D01*
X39694723Y5538831D01*
X39694725Y5538830D01*
X39785330Y5448225D01*
X39785331Y5448223D01*
X39891876Y5377033D01*
X40010257Y5327998D01*
X40010260Y5327997D01*
X40104726Y5309207D01*
X40135931Y5303000D01*
X40135933Y5303000D01*
X40264067Y5303000D01*
X40264069Y5303000D01*
X40299696Y5310086D01*
X40389739Y5327997D01*
X40389742Y5327998D01*
X40508123Y5377033D01*
X40508124Y5377033D01*
X40508127Y5377035D01*
X40614669Y5448224D01*
X40705276Y5538831D01*
X40776465Y5645373D01*
X40825501Y5763756D01*
X40850500Y5889431D01*
X40850500Y6017567D01*
X42549500Y6017567D01*
X42549500Y5889432D01*
X42574497Y5763760D01*
X42574498Y5763757D01*
X42623533Y5645376D01*
X42694723Y5538831D01*
X42694725Y5538830D01*
X42785330Y5448225D01*
X42785331Y5448223D01*
X42891876Y5377033D01*
X43010257Y5327998D01*
X43010260Y5327997D01*
X43104726Y5309207D01*
X43135931Y5303000D01*
X43135933Y5303000D01*
X43264067Y5303000D01*
X43264069Y5303000D01*
X43299696Y5310086D01*
X43389739Y5327997D01*
X43389742Y5327998D01*
X43508123Y5377033D01*
X43508124Y5377033D01*
X43508127Y5377035D01*
X43614669Y5448224D01*
X43705276Y5538831D01*
X43776465Y5645373D01*
X43825501Y5763756D01*
X43850500Y5889431D01*
X43850500Y6017569D01*
X43825501Y6143244D01*
X43776465Y6261627D01*
X43705276Y6368169D01*
X43614669Y6458776D01*
X43508127Y6529965D01*
X43389744Y6579001D01*
X43264069Y6604000D01*
X43135931Y6604000D01*
X43052903Y6587484D01*
X43010260Y6579002D01*
X43010258Y6579001D01*
X43010256Y6579001D01*
X42891873Y6529965D01*
X42785331Y6458776D01*
X42694724Y6368169D01*
X42623535Y6261627D01*
X42623533Y6261624D01*
X42623533Y6261623D01*
X42574498Y6143242D01*
X42574497Y6143239D01*
X42549500Y6017567D01*
X40850500Y6017567D01*
X40850500Y6017569D01*
X40825501Y6143244D01*
X40776465Y6261627D01*
X40705276Y6368169D01*
X40614669Y6458776D01*
X40508127Y6529965D01*
X40389744Y6579001D01*
X40264069Y6604000D01*
X40135931Y6604000D01*
X40052903Y6587484D01*
X40010260Y6579002D01*
X40010258Y6579001D01*
X40010256Y6579001D01*
X39891873Y6529965D01*
X39785331Y6458776D01*
X39694724Y6368169D01*
X39623535Y6261627D01*
X39623533Y6261624D01*
X39623533Y6261623D01*
X39574498Y6143242D01*
X39574497Y6143239D01*
X39549500Y6017567D01*
X36505762Y6017567D01*
X36494640Y6022174D01*
X36472966Y6074500D01*
X36494640Y6126826D01*
X36504799Y6136985D01*
X36504802Y6136989D01*
X36570692Y6251114D01*
X36604799Y6378405D01*
X36604800Y6378406D01*
X36604800Y6510194D01*
X36570693Y6637481D01*
X36570692Y6637486D01*
X36504800Y6751614D01*
X36411614Y6844800D01*
X36297486Y6910692D01*
X36248095Y6923926D01*
X36170194Y6944800D01*
X36170192Y6944800D01*
X36038408Y6944800D01*
X36038406Y6944800D01*
X35926154Y6914722D01*
X35911114Y6910692D01*
X35796986Y6844800D01*
X35703800Y6751614D01*
X35703798Y6751611D01*
X35700371Y6748184D01*
X35698449Y6750105D01*
X35656929Y6726133D01*
X35647270Y6725500D01*
X35274981Y6725500D01*
X35222655Y6747174D01*
X35208500Y6767000D01*
X35189198Y6806482D01*
X35189198Y6806483D01*
X35106483Y6889198D01*
X35001393Y6940573D01*
X34933260Y6950500D01*
X33691740Y6950500D01*
X33623607Y6940573D01*
X33623605Y6940572D01*
X33518517Y6889198D01*
X33435801Y6806482D01*
X33384427Y6701394D01*
X33384427Y6701393D01*
X33374500Y6633264D01*
X33374500Y6266735D01*
X33384427Y6198606D01*
X33384427Y6198605D01*
X33435801Y6093517D01*
X33518517Y6010801D01*
X33623605Y5959427D01*
X33691735Y5949500D01*
X34168776Y5949500D01*
X34221102Y5927826D01*
X34242776Y5875500D01*
X34221102Y5823174D01*
X34205776Y5811414D01*
X34142186Y5774700D01*
X34142185Y5774699D01*
X34049000Y5681514D01*
X33983110Y5567390D01*
X33983106Y5567381D01*
X33949000Y5440094D01*
X33949000Y5308305D01*
X33983106Y5181018D01*
X33983111Y5181005D01*
X33994374Y5161499D01*
X34001766Y5105347D01*
X33967287Y5060414D01*
X33930288Y5050500D01*
X33691740Y5050500D01*
X33623607Y5040573D01*
X33589088Y5023698D01*
X33518517Y4989198D01*
X33435801Y4906482D01*
X33384427Y4801394D01*
X33384427Y4801393D01*
X33374500Y4733264D01*
X33374500Y4366735D01*
X33384427Y4298606D01*
X33384427Y4298605D01*
X33435801Y4193517D01*
X33518517Y4110801D01*
X33623605Y4059427D01*
X33691735Y4049500D01*
X33691740Y4049500D01*
X34628633Y4049500D01*
X34680959Y4027826D01*
X35278801Y3429983D01*
X35300475Y3377657D01*
X35278801Y3325331D01*
X35245629Y3306180D01*
X35206114Y3295592D01*
X35091986Y3229700D01*
X35091985Y3229699D01*
X34998800Y3136514D01*
X34932910Y3022390D01*
X34932906Y3022381D01*
X34898800Y2895094D01*
X34898800Y2763305D01*
X34932906Y2636018D01*
X34932910Y2636009D01*
X34998800Y2521885D01*
X35091985Y2428700D01*
X35206109Y2362810D01*
X35206118Y2362806D01*
X35333405Y2328700D01*
X35333408Y2328700D01*
X35465195Y2328700D01*
X35468776Y2329171D01*
X35523482Y2314506D01*
X35530753Y2308129D01*
X35780126Y2058757D01*
X35801800Y2006431D01*
X35801800Y1517667D01*
X35780126Y1465341D01*
X35720242Y1405457D01*
X35642743Y1327958D01*
X35642742Y1327956D01*
X35638660Y1318100D01*
X35604025Y1234484D01*
X35600800Y1226699D01*
X35600800Y1219166D01*
X35579126Y1166840D01*
X35526800Y1145166D01*
X35474474Y1166840D01*
X35431940Y1209374D01*
X35382114Y1259200D01*
X35267986Y1325092D01*
X35215864Y1339058D01*
X35140694Y1359200D01*
X35140692Y1359200D01*
X35008908Y1359200D01*
X35008906Y1359200D01*
X34933736Y1339058D01*
X34881614Y1325092D01*
X34767486Y1259200D01*
X34767485Y1259199D01*
X34674300Y1166014D01*
X34608410Y1051890D01*
X34608406Y1051881D01*
X34574300Y924594D01*
X34574300Y821217D01*
X34552626Y768891D01*
X34500300Y747217D01*
X34471981Y752850D01*
X34417300Y775500D01*
X34417299Y775500D01*
X33770126Y775500D01*
X33717800Y797174D01*
X33703059Y818227D01*
X33674066Y880401D01*
X33674065Y880403D01*
X33674065Y880404D01*
X33590404Y964065D01*
X33483173Y1014068D01*
X33434316Y1020500D01*
X33434314Y1020500D01*
X33389767Y1020500D01*
X33337441Y1042174D01*
X32732174Y1647441D01*
X32710500Y1699767D01*
X32710500Y1974314D01*
X32709080Y1985105D01*
X32704068Y2023173D01*
X32654065Y2130404D01*
X32570404Y2214065D01*
X32463173Y2264068D01*
X32414316Y2270500D01*
X32065684Y2270500D01*
X32016827Y2264068D01*
X31909596Y2214065D01*
X31909595Y2214064D01*
X31825935Y2130404D01*
X31775931Y2023171D01*
X31769500Y1974314D01*
X31769500Y1768867D01*
X31747826Y1716541D01*
X31695500Y1694867D01*
X31643174Y1716541D01*
X30957641Y2402074D01*
X30935967Y2454400D01*
X30957641Y2506726D01*
X32021672Y3570756D01*
X33106058Y4655142D01*
X33110556Y4666000D01*
X33147999Y4756398D01*
X33148000Y4756400D01*
X33148000Y7473248D01*
X37299500Y7473248D01*
X37299500Y6733752D01*
X37303377Y6714257D01*
X37311133Y6675267D01*
X37355447Y6608949D01*
X37355449Y6608947D01*
X37421767Y6564633D01*
X37421766Y6564633D01*
X37456858Y6557653D01*
X37480252Y6553000D01*
X37480254Y6553000D01*
X38719746Y6553000D01*
X38719748Y6553000D01*
X38758736Y6560755D01*
X38778232Y6564633D01*
X38837147Y6604000D01*
X38844552Y6608948D01*
X38888867Y6675269D01*
X38900500Y6733752D01*
X38900500Y7473248D01*
X44499500Y7473248D01*
X44499500Y6733752D01*
X44503377Y6714257D01*
X44511133Y6675267D01*
X44555447Y6608949D01*
X44555449Y6608947D01*
X44621767Y6564633D01*
X44621766Y6564633D01*
X44656858Y6557653D01*
X44680252Y6553000D01*
X44680254Y6553000D01*
X45919746Y6553000D01*
X45919748Y6553000D01*
X45958736Y6560755D01*
X45978232Y6564633D01*
X46037147Y6604000D01*
X46044552Y6608948D01*
X46088867Y6675269D01*
X46100500Y6733752D01*
X46100500Y7473248D01*
X46088867Y7531731D01*
X46044552Y7598052D01*
X45978232Y7642366D01*
X45978231Y7642367D01*
X45919748Y7654000D01*
X44680252Y7654000D01*
X44621769Y7642367D01*
X44621767Y7642366D01*
X44599560Y7627527D01*
X44555448Y7598052D01*
X44555447Y7598050D01*
X44511133Y7531732D01*
X44511133Y7531731D01*
X44499500Y7473248D01*
X38900500Y7473248D01*
X38888867Y7531731D01*
X38844552Y7598052D01*
X38778232Y7642366D01*
X38778231Y7642367D01*
X38719748Y7654000D01*
X37480252Y7654000D01*
X37421769Y7642367D01*
X37421767Y7642366D01*
X37399560Y7627527D01*
X37355448Y7598052D01*
X37355447Y7598050D01*
X37311133Y7531732D01*
X37311133Y7531731D01*
X37299500Y7473248D01*
X33148000Y7473248D01*
X33148000Y7888992D01*
X33169674Y7941318D01*
X33210423Y7962081D01*
X33230622Y7965280D01*
X33230624Y7965280D01*
X33230626Y7965281D01*
X33230628Y7965282D01*
X33350719Y8026471D01*
X33446028Y8121780D01*
X33507218Y8241873D01*
X33507219Y8241874D01*
X33523000Y8341511D01*
X33523000Y9158488D01*
X33507219Y9258125D01*
X33507219Y9258126D01*
X33507218Y9258127D01*
X33507218Y9258129D01*
X33505592Y9263136D01*
X33510038Y9319599D01*
X33553107Y9356379D01*
X33575971Y9360000D01*
X35142233Y9360000D01*
X35194559Y9338326D01*
X35500326Y9032558D01*
X35522000Y8980232D01*
X35522000Y8341511D01*
X35537780Y8241874D01*
X35537781Y8241873D01*
X35598971Y8121780D01*
X35694280Y8026471D01*
X35814373Y7965281D01*
X35814374Y7965280D01*
X35914011Y7949500D01*
X35914012Y7949500D01*
X36430989Y7949500D01*
X36530625Y7965280D01*
X36530626Y7965281D01*
X36650719Y8026471D01*
X36746028Y8121780D01*
X36807218Y8241873D01*
X36807219Y8241874D01*
X36823000Y8341511D01*
X36823000Y9158488D01*
X36807219Y9258125D01*
X36807219Y9258126D01*
X36746028Y9378220D01*
X36650720Y9473528D01*
X36530626Y9534719D01*
X36480807Y9542609D01*
X36430989Y9550500D01*
X36430988Y9550500D01*
X35914012Y9550500D01*
X35914011Y9550500D01*
X35861157Y9542128D01*
X35819690Y9535561D01*
X35764619Y9548783D01*
X35755796Y9556317D01*
X35443058Y9869057D01*
X35429964Y9874480D01*
X35389917Y9914527D01*
X35389915Y9971164D01*
X35429963Y10011213D01*
X35467131Y10016316D01*
X35649999Y9994292D01*
G37*
%TD.AperFunction*%
%TA.AperFunction,Conductor*%
G36*
X31919371Y31376D02*
G01*
X32016827Y-14068D01*
X32065684Y-20500D01*
X32340233Y-20500D01*
X32392559Y-42173D01*
X33308643Y-958258D01*
X33386142Y-1035757D01*
X33487400Y-1077700D01*
X33487401Y-1077700D01*
X34508550Y-1077700D01*
X34560876Y-1099374D01*
X34582550Y-1151700D01*
X34560876Y-1204026D01*
X34550180Y-1212803D01*
X32820642Y-2942343D01*
X32743142Y-3019843D01*
X32701200Y-3121100D01*
X32701200Y-8925500D01*
X32679526Y-8977826D01*
X32627200Y-8999500D01*
X30980252Y-8999500D01*
X30951010Y-9005316D01*
X30921767Y-9011133D01*
X30855449Y-9055447D01*
X30855447Y-9055449D01*
X30811133Y-9121767D01*
X30799500Y-9180253D01*
X30799500Y-9350500D01*
X30777826Y-9402826D01*
X30725500Y-9424500D01*
X26674500Y-9424500D01*
X26622174Y-9402826D01*
X26600500Y-9350500D01*
X26600500Y-9180253D01*
X26590655Y-9130759D01*
X26588867Y-9121769D01*
X26584683Y-9115508D01*
X26574027Y-9099560D01*
X26544552Y-9055448D01*
X26500159Y-9025785D01*
X26478232Y-9011133D01*
X26478233Y-9011133D01*
X26448989Y-9005316D01*
X26419748Y-8999500D01*
X24680252Y-8999500D01*
X24651010Y-9005316D01*
X24621767Y-9011133D01*
X24555449Y-9055447D01*
X24555447Y-9055449D01*
X24511133Y-9121767D01*
X24499500Y-9180253D01*
X24499500Y-9350500D01*
X24477826Y-9402826D01*
X24425500Y-9424500D01*
X23673577Y-9424500D01*
X23621251Y-9402826D01*
X23609491Y-9387500D01*
X23587803Y-9349935D01*
X23544300Y-9274586D01*
X23451114Y-9181400D01*
X23449126Y-9180252D01*
X23336987Y-9115508D01*
X23332507Y-9113653D01*
X23333536Y-9111167D01*
X23295443Y-9081938D01*
X23288051Y-9025785D01*
X23307203Y-8992612D01*
X23496316Y-8803500D01*
X23732642Y-8567174D01*
X23784968Y-8545500D01*
X26455598Y-8545500D01*
X26455600Y-8545500D01*
X26556858Y-8503557D01*
X26634357Y-8426058D01*
X26634356Y-8426058D01*
X26669317Y-8391097D01*
X26669316Y-8391097D01*
X27697875Y-7362539D01*
X27750200Y-7340866D01*
X27802526Y-7362540D01*
X27885886Y-7445900D01*
X28000014Y-7511792D01*
X28127305Y-7545899D01*
X28127306Y-7545900D01*
X28127308Y-7545900D01*
X28259094Y-7545900D01*
X28259094Y-7545899D01*
X28386386Y-7511792D01*
X28500514Y-7445900D01*
X28593700Y-7352714D01*
X28659592Y-7238586D01*
X28693699Y-7111294D01*
X28693700Y-7111294D01*
X28693700Y-6979506D01*
X28693699Y-6979505D01*
X28659593Y-6852218D01*
X28659592Y-6852214D01*
X28593700Y-6738086D01*
X28500514Y-6644900D01*
X28386387Y-6579008D01*
X28381907Y-6577153D01*
X28382932Y-6574677D01*
X28344822Y-6545403D01*
X28337460Y-6489246D01*
X28356600Y-6456113D01*
X30458557Y-4354159D01*
X30480783Y-4300500D01*
X30500500Y-4252900D01*
X30500500Y-3736007D01*
X30522174Y-3683681D01*
X30562925Y-3662918D01*
X30583126Y-3659719D01*
X30703220Y-3598528D01*
X30798528Y-3503220D01*
X30859719Y-3383126D01*
X30875500Y-3283488D01*
X30875500Y-2769767D01*
X30897174Y-2717441D01*
X31052109Y-2562506D01*
X31233558Y-2381058D01*
X31275500Y-2279800D01*
X31275500Y-2170200D01*
X31275500Y-721467D01*
X31297174Y-669141D01*
X31518814Y-447501D01*
X31772157Y-194159D01*
X31780241Y-174641D01*
X31794041Y-141326D01*
X31794041Y-141325D01*
X31814100Y-92900D01*
X31814100Y-35691D01*
X31835774Y16635D01*
X31888100Y38309D01*
X31919371Y31376D01*
G37*
%TD.AperFunction*%
%TA.AperFunction,Conductor*%
G36*
X42729526Y4472126D02*
G01*
X42751200Y4419800D01*
X42751200Y2928500D01*
X42778220Y2863269D01*
X42793142Y2827243D01*
X42973559Y2646826D01*
X42995233Y2594500D01*
X42973559Y2542174D01*
X42921233Y2520500D01*
X42815684Y2520500D01*
X42766827Y2514068D01*
X42659596Y2464065D01*
X42659595Y2464064D01*
X42575935Y2380404D01*
X42525931Y2273171D01*
X42519500Y2224314D01*
X42519500Y1775685D01*
X42525931Y1726828D01*
X42569417Y1633574D01*
X42571887Y1576990D01*
X42533624Y1535233D01*
X42502350Y1528300D01*
X42407006Y1528300D01*
X42294754Y1498222D01*
X42279714Y1494192D01*
X42165586Y1428300D01*
X42165585Y1428299D01*
X42072400Y1335114D01*
X42006510Y1220990D01*
X42006506Y1220981D01*
X41972400Y1093695D01*
X41971893Y1089842D01*
X41943575Y1040792D01*
X41898526Y1025500D01*
X41893075Y1025500D01*
X41851963Y1037971D01*
X41848889Y1040025D01*
X41786175Y1052500D01*
X41293826Y1052499D01*
X41231111Y1040025D01*
X41201890Y1020500D01*
X41159994Y992506D01*
X41159993Y992505D01*
X41154016Y983559D01*
X41112475Y921389D01*
X41104323Y880404D01*
X41100000Y858673D01*
X41100000Y641326D01*
X41112475Y578610D01*
X41137531Y541112D01*
X41148580Y485563D01*
X41137531Y458888D01*
X41119234Y431504D01*
X41112475Y421389D01*
X41102173Y369595D01*
X41100000Y358673D01*
X41100000Y141326D01*
X41112475Y78610D01*
X41137531Y41112D01*
X41148580Y-14437D01*
X41137531Y-41112D01*
X41112475Y-78610D01*
X41100000Y-141325D01*
X41100000Y-358673D01*
X41106658Y-392143D01*
X41095608Y-447692D01*
X41048516Y-479157D01*
X41019644Y-479157D01*
X40991232Y-473506D01*
X40986175Y-472500D01*
X40986174Y-472500D01*
X40768826Y-472500D01*
X40706110Y-484975D01*
X40668612Y-510031D01*
X40613063Y-521080D01*
X40586388Y-510031D01*
X40548889Y-484975D01*
X40486175Y-472500D01*
X40486173Y-472500D01*
X40268826Y-472500D01*
X40206110Y-484975D01*
X40168612Y-510031D01*
X40113063Y-521080D01*
X40086388Y-510031D01*
X40048889Y-484975D01*
X39986175Y-472500D01*
X39986173Y-472500D01*
X39768826Y-472500D01*
X39706110Y-484975D01*
X39634994Y-532493D01*
X39634993Y-532494D01*
X39591014Y-598315D01*
X39587475Y-603611D01*
X39578757Y-647441D01*
X39575000Y-666326D01*
X39575000Y-1158673D01*
X39584993Y-1208914D01*
X39587475Y-1221389D01*
X39589527Y-1224460D01*
X39602000Y-1265574D01*
X39602000Y-1731732D01*
X39580326Y-1784058D01*
X38965742Y-2398643D01*
X38965740Y-2398645D01*
X38952037Y-2412347D01*
X38899710Y-2434019D01*
X38856631Y-2419394D01*
X38856614Y-2419425D01*
X38856462Y-2419337D01*
X38854664Y-2418727D01*
X38852412Y-2416998D01*
X38738290Y-2351110D01*
X38738281Y-2351106D01*
X38610994Y-2317000D01*
X38610992Y-2317000D01*
X38479208Y-2317000D01*
X38479206Y-2317000D01*
X38351918Y-2351106D01*
X38351909Y-2351110D01*
X38237785Y-2417000D01*
X38144600Y-2510185D01*
X38078710Y-2624309D01*
X38078706Y-2624318D01*
X38044600Y-2751605D01*
X38044600Y-2883394D01*
X38078706Y-3010681D01*
X38078710Y-3010690D01*
X38124362Y-3089761D01*
X38144600Y-3124814D01*
X38237786Y-3218000D01*
X38351914Y-3283892D01*
X38479205Y-3317999D01*
X38479206Y-3318000D01*
X38479208Y-3318000D01*
X38610991Y-3318000D01*
X38610992Y-3318000D01*
X38738286Y-3283892D01*
X38738290Y-3283889D01*
X38742769Y-3282035D01*
X38743789Y-3284499D01*
X38791448Y-3278222D01*
X38836384Y-3312698D01*
X38846300Y-3349702D01*
X38846300Y-5285277D01*
X38824626Y-5337603D01*
X38772300Y-5359277D01*
X38719974Y-5337603D01*
X38719663Y-5337249D01*
X38623214Y-5240800D01*
X38509090Y-5174910D01*
X38509081Y-5174906D01*
X38381794Y-5140800D01*
X38381792Y-5140800D01*
X38250008Y-5140800D01*
X38250006Y-5140800D01*
X38122718Y-5174906D01*
X38122709Y-5174910D01*
X38008585Y-5240800D01*
X37915400Y-5333985D01*
X37849510Y-5448109D01*
X37849506Y-5448118D01*
X37815400Y-5575405D01*
X37815400Y-5707195D01*
X37815871Y-5710776D01*
X37801206Y-5765482D01*
X37794829Y-5772753D01*
X37543942Y-6023643D01*
X37466442Y-6101143D01*
X37424500Y-6202400D01*
X37424500Y-6400018D01*
X37402826Y-6452344D01*
X37383001Y-6466498D01*
X37343520Y-6485799D01*
X37343517Y-6485801D01*
X37260801Y-6568517D01*
X37209427Y-6673605D01*
X37209427Y-6673606D01*
X37199500Y-6741735D01*
X37199500Y-8058264D01*
X37209427Y-8126393D01*
X37209427Y-8126394D01*
X37260801Y-8231482D01*
X37260802Y-8231483D01*
X37343517Y-8314198D01*
X37448607Y-8365573D01*
X37516740Y-8375500D01*
X37564933Y-8375500D01*
X37617259Y-8397174D01*
X37638933Y-8449500D01*
X37617259Y-8501826D01*
X37138259Y-8980826D01*
X37085933Y-9002500D01*
X36326316Y-9002500D01*
X36273990Y-8980826D01*
X36262230Y-8965500D01*
X36222501Y-8896688D01*
X36222500Y-8896686D01*
X36129314Y-8803500D01*
X36016565Y-8738404D01*
X36015190Y-8737610D01*
X36015181Y-8737606D01*
X35887894Y-8703500D01*
X35887892Y-8703500D01*
X35756108Y-8703500D01*
X35756106Y-8703500D01*
X35628818Y-8737606D01*
X35628809Y-8737610D01*
X35514685Y-8803500D01*
X35421500Y-8896685D01*
X35355610Y-9010809D01*
X35355606Y-9010818D01*
X35323468Y-9130759D01*
X35288990Y-9175692D01*
X35232837Y-9183084D01*
X35187904Y-9148606D01*
X35184923Y-9142880D01*
X35174065Y-9119597D01*
X35174065Y-9119596D01*
X35090404Y-9035935D01*
X35045275Y-9014891D01*
X34983173Y-8985932D01*
X34983171Y-8985931D01*
X34944388Y-8980826D01*
X34934316Y-8979500D01*
X34688766Y-8979500D01*
X34636440Y-8957826D01*
X34614766Y-8905500D01*
X34636440Y-8853174D01*
X34786114Y-8703500D01*
X35207143Y-8282471D01*
X35259466Y-8260799D01*
X35311792Y-8282473D01*
X35343517Y-8314198D01*
X35448607Y-8365573D01*
X35516740Y-8375500D01*
X35516746Y-8375500D01*
X35883254Y-8375500D01*
X35883260Y-8375500D01*
X35951393Y-8365573D01*
X36056483Y-8314198D01*
X36139198Y-8231483D01*
X36190573Y-8126393D01*
X36200500Y-8058260D01*
X36200500Y-6741740D01*
X36190573Y-6673607D01*
X36139198Y-6568517D01*
X36056483Y-6485802D01*
X36056482Y-6485801D01*
X36056479Y-6485799D01*
X36050196Y-6482727D01*
X36012708Y-6440272D01*
X36008700Y-6416248D01*
X36008700Y-3949504D01*
X36030374Y-3897178D01*
X36037656Y-3890793D01*
X36040512Y-3888601D01*
X36040511Y-3888601D01*
X36040514Y-3888600D01*
X36133700Y-3795414D01*
X36199592Y-3681286D01*
X36233699Y-3553994D01*
X36233700Y-3553994D01*
X36233700Y-3422206D01*
X36233699Y-3422205D01*
X36231662Y-3414604D01*
X36199592Y-3294914D01*
X36133700Y-3180786D01*
X36040514Y-3087600D01*
X36006959Y-3068227D01*
X35926390Y-3021710D01*
X35926381Y-3021706D01*
X35799094Y-2987600D01*
X35799092Y-2987600D01*
X35667308Y-2987600D01*
X35667306Y-2987600D01*
X35540018Y-3021706D01*
X35540009Y-3021710D01*
X35425885Y-3087600D01*
X35329270Y-3184216D01*
X35328117Y-3183063D01*
X35284158Y-3208442D01*
X35229451Y-3193783D01*
X35201133Y-3144733D01*
X35200500Y-3135075D01*
X35200500Y-2820740D01*
X35200500Y-2820734D01*
X35197646Y-2790301D01*
X35169158Y-2708888D01*
X35152793Y-2662118D01*
X35152792Y-2662116D01*
X35072153Y-2552853D01*
X35072146Y-2552846D01*
X34962883Y-2472207D01*
X34962881Y-2472206D01*
X34834704Y-2427355D01*
X34834705Y-2427355D01*
X34834700Y-2427354D01*
X34834699Y-2427354D01*
X34804266Y-2424500D01*
X34804260Y-2424500D01*
X34296368Y-2424500D01*
X34244042Y-2402826D01*
X34222368Y-2350500D01*
X34244042Y-2298174D01*
X34798442Y-1743774D01*
X34850768Y-1722100D01*
X36640998Y-1722100D01*
X36641000Y-1722100D01*
X36742258Y-1680157D01*
X36819757Y-1602658D01*
X36819756Y-1602658D01*
X36854717Y-1567697D01*
X36854716Y-1567697D01*
X38858357Y435941D01*
X38910683Y457615D01*
X38925119Y456193D01*
X38968825Y447500D01*
X39461173Y447500D01*
X39523887Y459974D01*
X39523888Y459974D01*
X39523889Y459975D01*
X39592595Y505883D01*
X39648142Y516932D01*
X39674817Y505884D01*
X39705231Y485563D01*
X39706111Y484975D01*
X39768825Y472500D01*
X39768826Y472500D01*
X39986173Y472500D01*
X40048889Y484975D01*
X40120005Y532493D01*
X40120006Y532494D01*
X40125764Y541112D01*
X40167525Y603611D01*
X40180000Y666325D01*
X40179999Y1158674D01*
X40167525Y1221389D01*
X40120006Y1292506D01*
X40048889Y1340025D01*
X39986175Y1352500D01*
X39986163Y1352499D01*
X39982960Y1352816D01*
X39937880Y1374133D01*
X39481368Y1830646D01*
X39459695Y1882971D01*
X39460329Y1892637D01*
X39460800Y1896211D01*
X39460800Y2027994D01*
X39426693Y2155281D01*
X39426692Y2155286D01*
X39360800Y2269414D01*
X39267614Y2362600D01*
X39153486Y2428492D01*
X39104095Y2441726D01*
X39026194Y2462600D01*
X39026192Y2462600D01*
X38894408Y2462600D01*
X38894406Y2462600D01*
X38782154Y2432522D01*
X38767114Y2428492D01*
X38652986Y2362600D01*
X38652985Y2362599D01*
X38559800Y2269414D01*
X38493910Y2155290D01*
X38493906Y2155281D01*
X38459800Y2027994D01*
X38459800Y1896205D01*
X38493906Y1768918D01*
X38493910Y1768909D01*
X38559800Y1654785D01*
X38652985Y1561600D01*
X38767109Y1495710D01*
X38767118Y1495706D01*
X38894405Y1461600D01*
X38894408Y1461600D01*
X39026195Y1461600D01*
X39029776Y1462071D01*
X39084482Y1447406D01*
X39091753Y1441029D01*
X39353957Y1178825D01*
X39375631Y1126499D01*
X39353957Y1074173D01*
X39301632Y1052499D01*
X38968826Y1052499D01*
X38906111Y1040025D01*
X38906110Y1040024D01*
X38903037Y1037971D01*
X38861925Y1025500D01*
X38728000Y1025500D01*
X38648345Y992506D01*
X38626742Y983558D01*
X37550285Y-92900D01*
X36493759Y-1149426D01*
X36441433Y-1171100D01*
X36010648Y-1171100D01*
X35958322Y-1149426D01*
X35936648Y-1097100D01*
X35958322Y-1044774D01*
X35969023Y-1035990D01*
X35969254Y-1035758D01*
X35969258Y-1035757D01*
X36046757Y-958258D01*
X36046756Y-958258D01*
X36322658Y-682358D01*
X36364600Y-581100D01*
X36364600Y-471500D01*
X36364600Y175500D01*
X36386274Y227826D01*
X36438600Y249500D01*
X37558264Y249500D01*
X37626393Y259427D01*
X37626394Y259427D01*
X37731482Y310801D01*
X37814198Y393517D01*
X37865572Y498605D01*
X37865573Y498607D01*
X37875500Y566740D01*
X37875500Y933260D01*
X37865573Y1001393D01*
X37814198Y1106483D01*
X37731483Y1189198D01*
X37626393Y1240573D01*
X37558260Y1250500D01*
X37558254Y1250500D01*
X37287000Y1250500D01*
X37234674Y1272174D01*
X37213000Y1324500D01*
X37213000Y2016132D01*
X37234674Y2068458D01*
X38577642Y3411426D01*
X38629968Y3433100D01*
X38875500Y3433100D01*
X38927826Y3411426D01*
X38949500Y3359100D01*
X38949500Y2921752D01*
X38950507Y2916689D01*
X38961133Y2863269D01*
X38961133Y2863267D01*
X39005447Y2796949D01*
X39005449Y2796947D01*
X39071767Y2752633D01*
X39071766Y2752633D01*
X39106858Y2745653D01*
X39130252Y2741000D01*
X39130254Y2741000D01*
X39769746Y2741000D01*
X39769748Y2741000D01*
X39817508Y2750500D01*
X39828232Y2752633D01*
X39872343Y2782108D01*
X39894552Y2796948D01*
X39930535Y2850800D01*
X39938866Y2863267D01*
X39938867Y2863269D01*
X39949493Y2916689D01*
X39950500Y2921752D01*
X39950500Y3788832D01*
X39972174Y3841158D01*
X40603142Y4472126D01*
X40655468Y4493800D01*
X42677200Y4493800D01*
X42729526Y4472126D01*
G37*
%TD.AperFunction*%
%TA.AperFunction,Conductor*%
G36*
X28757536Y-3325499D02*
G01*
X28759535Y-3325499D01*
X28759535Y-3326104D01*
X28811335Y-3341808D01*
X28838042Y-3391753D01*
X28838400Y-3399019D01*
X28838400Y-4360732D01*
X28816726Y-4413058D01*
X28605036Y-4624747D01*
X28552710Y-4646421D01*
X28500384Y-4624747D01*
X28481232Y-4591574D01*
X28453993Y-4489918D01*
X28453992Y-4489914D01*
X28388100Y-4375786D01*
X28294914Y-4282600D01*
X28255257Y-4259704D01*
X28180790Y-4216710D01*
X28180781Y-4216706D01*
X28064231Y-4185477D01*
X28019298Y-4150999D01*
X28010806Y-4099564D01*
X28018000Y-4063401D01*
X28017999Y-3399498D01*
X28039673Y-3347173D01*
X28091999Y-3325499D01*
X28755897Y-3325499D01*
X28755900Y-3325499D01*
X28755902Y-3325498D01*
X28757134Y-3325377D01*
X28757536Y-3325499D01*
G37*
%TD.AperFunction*%
%TA.AperFunction,Conductor*%
G36*
X30599205Y1977712D02*
G01*
X30614531Y1965952D01*
X31241426Y1339058D01*
X31263100Y1286732D01*
X31263100Y106667D01*
X31241426Y54341D01*
X30843942Y-343143D01*
X30843941Y-343143D01*
X30795630Y-391453D01*
X30743304Y-413127D01*
X30709425Y-402120D01*
X30708409Y-404116D01*
X30698152Y-398890D01*
X30583126Y-340281D01*
X30583125Y-340280D01*
X30483489Y-324500D01*
X30483488Y-324500D01*
X29966512Y-324500D01*
X29966511Y-324500D01*
X29866874Y-340280D01*
X29866873Y-340281D01*
X29746780Y-401471D01*
X29651470Y-496781D01*
X29648048Y-501492D01*
X29646851Y-500623D01*
X29608495Y-533379D01*
X29585631Y-537000D01*
X29539624Y-537000D01*
X29487298Y-515326D01*
X29465624Y-463000D01*
X29475538Y-426000D01*
X29482943Y-413173D01*
X29491192Y-398886D01*
X29525299Y-271594D01*
X29525300Y-271594D01*
X29525300Y-139806D01*
X29525299Y-139805D01*
X29521767Y-126625D01*
X29491192Y-12514D01*
X29425300Y101614D01*
X29332114Y194800D01*
X29332113Y194800D01*
X29328740Y198174D01*
X29307066Y250500D01*
X29328740Y302826D01*
X29381066Y324500D01*
X29483489Y324500D01*
X29583125Y340280D01*
X29583126Y340281D01*
X29703219Y401471D01*
X29798528Y496780D01*
X29816725Y532494D01*
X29859719Y616874D01*
X29862096Y631881D01*
X29875500Y716511D01*
X29875500Y1283488D01*
X29864570Y1352500D01*
X29859719Y1383126D01*
X29798528Y1503220D01*
X29703220Y1598528D01*
X29643079Y1629171D01*
X29630137Y1635766D01*
X29593355Y1678833D01*
X29597799Y1735296D01*
X29640866Y1772078D01*
X29663733Y1775700D01*
X30001099Y1775700D01*
X30001100Y1775700D01*
X30102358Y1817643D01*
X30179857Y1895142D01*
X30213945Y1929230D01*
X30266271Y1950904D01*
X30275928Y1950271D01*
X30279506Y1949800D01*
X30279508Y1949800D01*
X30411292Y1949800D01*
X30543053Y1985105D01*
X30599205Y1977712D01*
G37*
%TD.AperFunction*%
%TA.AperFunction,Conductor*%
G36*
X27677826Y4431559D02*
G01*
X27699500Y4379233D01*
X27699500Y3269967D01*
X27677826Y3217641D01*
X26792323Y2332139D01*
X26739999Y2310466D01*
X26687674Y2332139D01*
X25449058Y3570757D01*
X25347800Y3612700D01*
X24552400Y3612700D01*
X24486329Y3585332D01*
X24451141Y3570757D01*
X24303063Y3422678D01*
X24162558Y3282173D01*
X24110232Y3260499D01*
X23840100Y3260499D01*
X23790513Y3253972D01*
X23681684Y3203224D01*
X23681683Y3203223D01*
X23596776Y3118316D01*
X23546027Y3009485D01*
X23539500Y2959899D01*
X23539500Y2540100D01*
X23546027Y2490514D01*
X23546028Y2490512D01*
X23596776Y2381683D01*
X23681683Y2296776D01*
X23790515Y2246027D01*
X23790514Y2246027D01*
X23833572Y2240359D01*
X23840099Y2239500D01*
X23840100Y2239500D01*
X24199899Y2239500D01*
X24249485Y2246027D01*
X24249487Y2246028D01*
X24358316Y2296776D01*
X24443223Y2381683D01*
X24443224Y2381684D01*
X24493972Y2490513D01*
X24500500Y2540099D01*
X24500499Y2810231D01*
X24522173Y2862557D01*
X24699642Y3040026D01*
X24751968Y3061700D01*
X25148233Y3061700D01*
X25200559Y3040026D01*
X26442826Y1797759D01*
X26464500Y1745433D01*
X26464500Y1286810D01*
X26442826Y1234484D01*
X26421775Y1219744D01*
X26409596Y1214065D01*
X26409595Y1214064D01*
X26325935Y1130404D01*
X26275931Y1023171D01*
X26269500Y974314D01*
X26269500Y525685D01*
X26275931Y476828D01*
X26325935Y369595D01*
X26368005Y327526D01*
X26389679Y275200D01*
X26368005Y222874D01*
X26315679Y201200D01*
X26146167Y201200D01*
X26093841Y222874D01*
X25022173Y1294541D01*
X25000499Y1346867D01*
X25000499Y1709899D01*
X24997156Y1735296D01*
X24993972Y1759487D01*
X24943224Y1868316D01*
X24858316Y1953224D01*
X24749487Y2003972D01*
X24699901Y2010500D01*
X24340100Y2010499D01*
X24290513Y2003972D01*
X24181684Y1953224D01*
X24181683Y1953223D01*
X24096776Y1868316D01*
X24046027Y1759485D01*
X24039500Y1709899D01*
X24039500Y1290100D01*
X24046027Y1240514D01*
X24046028Y1240512D01*
X24096776Y1131683D01*
X24181683Y1046776D01*
X24290515Y996027D01*
X24290514Y996027D01*
X24328563Y991018D01*
X24340099Y989500D01*
X24517332Y989500D01*
X24569658Y967826D01*
X25079869Y457615D01*
X25559458Y-21973D01*
X25581132Y-74299D01*
X25559458Y-126625D01*
X25348942Y-337143D01*
X25271442Y-414643D01*
X25257832Y-447501D01*
X25240717Y-488819D01*
X25200670Y-528867D01*
X25172351Y-534500D01*
X24985344Y-534500D01*
X24933018Y-512826D01*
X24921258Y-497500D01*
X24920843Y-496781D01*
X24905200Y-469686D01*
X24812014Y-376500D01*
X24749281Y-340281D01*
X24697890Y-310610D01*
X24697881Y-310606D01*
X24570594Y-276500D01*
X24570592Y-276500D01*
X24438808Y-276500D01*
X24438806Y-276500D01*
X24311518Y-310606D01*
X24311509Y-310610D01*
X24197385Y-376500D01*
X24131503Y-442382D01*
X24079176Y-464056D01*
X24026851Y-442382D01*
X23980402Y-395933D01*
X23923918Y-369595D01*
X23918495Y-367066D01*
X23880232Y-325310D01*
X23882702Y-268727D01*
X23918495Y-232933D01*
X23980404Y-204065D01*
X24064065Y-120404D01*
X24114068Y-13173D01*
X24120500Y35684D01*
X24120500Y384316D01*
X24114068Y433173D01*
X24064065Y540404D01*
X23980404Y624065D01*
X23918226Y653058D01*
X23879963Y694815D01*
X23875500Y720125D01*
X23875500Y734899D01*
X23870398Y747217D01*
X23833557Y836158D01*
X23756058Y913657D01*
X22248284Y2421429D01*
X22226611Y2473754D01*
X22236526Y2510755D01*
X22268890Y2566809D01*
X22268890Y2566810D01*
X22268890Y2566811D01*
X22268892Y2566814D01*
X22303000Y2694108D01*
X22303000Y2825892D01*
X22303000Y2825894D01*
X22277314Y2921753D01*
X22268892Y2953186D01*
X22203000Y3067314D01*
X22109814Y3160500D01*
X21995686Y3226392D01*
X21932177Y3243409D01*
X21868394Y3260500D01*
X21868392Y3260500D01*
X21736608Y3260500D01*
X21736606Y3260500D01*
X21624354Y3230422D01*
X21609314Y3226392D01*
X21495186Y3160500D01*
X21495185Y3160499D01*
X21402000Y3067314D01*
X21336110Y2953190D01*
X21336106Y2953181D01*
X21302000Y2825894D01*
X21302000Y2694107D01*
X21302518Y2690170D01*
X21287854Y2635464D01*
X21281476Y2628191D01*
X19862659Y1209374D01*
X19810333Y1187700D01*
X19192262Y1187700D01*
X19139936Y1209374D01*
X19118262Y1261700D01*
X19119035Y1272369D01*
X19121357Y1288308D01*
X19125500Y1316740D01*
X19125500Y1683260D01*
X19115573Y1751393D01*
X19064198Y1856483D01*
X19051224Y1869457D01*
X19029550Y1921783D01*
X19051224Y1974109D01*
X21013241Y3936126D01*
X21065567Y3957800D01*
X27040099Y3957800D01*
X27040100Y3957800D01*
X27141358Y3999743D01*
X27218857Y4077242D01*
X27573174Y4431559D01*
X27625500Y4453233D01*
X27677826Y4431559D01*
G37*
%TD.AperFunction*%
%TA.AperFunction,Conductor*%
G36*
X32347026Y8073726D02*
G01*
X32394279Y8026472D01*
X32394280Y8026471D01*
X32514371Y7965282D01*
X32514377Y7965280D01*
X32534577Y7962081D01*
X32582867Y7932488D01*
X32597000Y7888992D01*
X32597000Y4955967D01*
X32575326Y4903641D01*
X30608065Y2936380D01*
X30555739Y2914706D01*
X30536586Y2917228D01*
X30411294Y2950800D01*
X30411292Y2950800D01*
X30279508Y2950800D01*
X30279506Y2950800D01*
X30196282Y2928500D01*
X30152214Y2916692D01*
X30038086Y2850800D01*
X30038085Y2850799D01*
X29944900Y2757614D01*
X29879010Y2643490D01*
X29879006Y2643481D01*
X29844900Y2516194D01*
X29844900Y2400700D01*
X29823226Y2348374D01*
X29770900Y2326700D01*
X29369768Y2326700D01*
X29317442Y2348374D01*
X29143930Y2521886D01*
X28967640Y2698174D01*
X28945967Y2750500D01*
X28967641Y2802826D01*
X29019967Y2824500D01*
X29383264Y2824500D01*
X29451393Y2834427D01*
X29451394Y2834427D01*
X29556482Y2885801D01*
X29639198Y2968517D01*
X29690572Y3073605D01*
X29690573Y3073607D01*
X29700500Y3141740D01*
X29700500Y4458260D01*
X29690573Y4526393D01*
X29666178Y4576291D01*
X29662669Y4632819D01*
X29680334Y4661118D01*
X32178756Y7159540D01*
X32178757Y7159541D01*
X32196543Y7202480D01*
X32220700Y7260800D01*
X32220700Y8021400D01*
X32242374Y8073726D01*
X32294700Y8095400D01*
X32347026Y8073726D01*
G37*
%TD.AperFunction*%
%TD*%
M02*
