G04 #@! TF.GenerationSoftware,KiCad,Pcbnew,10.0.6*
G04 #@! TF.CreationDate,2026-09-16T08:51:03+03:00*
G04 #@! TF.ProjectId,wherewatch-carrier,77686572-6577-4617-9463-682d63617272,rev?*
G04 #@! TF.SameCoordinates,Original*
G04 #@! TF.FileFunction,Copper,L2,Inr*
G04 #@! TF.FilePolarity,Positive*
%FSLAX46Y46*%
G04 Gerber Fmt 4.6, Leading zero omitted, Abs format (unit mm)*
G04 Created by KiCad (PCBNEW 10.0.6) date 2026-09-16 08:51:03*
%MOMM*%
%LPD*%
G01*
G04 APERTURE LIST*
G04 #@! TA.AperFunction,ViaPad*
%ADD10C,0.600000*%
G04 #@! TD*
G04 #@! TA.AperFunction,Conductor*
%ADD11C,0.150000*%
G04 #@! TD*
G04 APERTURE END LIST*
D10*
G04 #@! TO.N,+3V3*
X42548700Y-309000D03*
X39031200Y2190600D03*
X35693900Y-2435800D03*
G04 #@! TO.N,GND*
X46399999Y5999999D03*
X40799999Y3199999D03*
X41967100Y2537600D03*
X49199999Y-2400000D03*
X37000000Y5500000D03*
X21199999Y10200000D03*
X39215000Y-1562500D03*
X43599999Y7399999D03*
X49199999Y3199999D03*
X28199999Y7399999D03*
X42199999Y-8000000D03*
X28199999Y8799999D03*
X36040000Y7000000D03*
X36599999Y7399999D03*
X42199999Y-6600000D03*
X21199999Y4599999D03*
X47799999Y-6600000D03*
X21199999Y7399999D03*
X44999999Y-5200000D03*
X38950000Y-6800000D03*
X49199999Y-3800000D03*
X35651900Y2599200D03*
X19799999Y7399999D03*
X18400000Y8799999D03*
X46399999Y-6600000D03*
X38790000Y-5000000D03*
X43599999Y-6600000D03*
X19799999Y8799999D03*
X42199999Y7399999D03*
X28380000Y-3692500D03*
X35792800Y4400000D03*
X44999999Y-1000000D03*
X26900000Y-5900000D03*
X49199999Y-5200000D03*
X43599999Y-8000000D03*
X43599999Y-5200000D03*
X49199999Y4599999D03*
X26692500Y-4600000D03*
X19799999Y10200000D03*
X18397700Y937100D03*
X35580000Y-9250000D03*
X44999999Y3199999D03*
X23999999Y10200000D03*
X19073800Y-1757600D03*
X17000000Y-10800000D03*
X40799999Y7399999D03*
X29687500Y-1425000D03*
X36599999Y8799999D03*
X29599999Y8799999D03*
X35199999Y8799999D03*
X27079500Y5411800D03*
X18400000Y10200000D03*
X48185800Y-4400000D03*
X47799999Y5999999D03*
X30602800Y-6416600D03*
X44999999Y-6600000D03*
X37999999Y8799999D03*
X19339000Y6228700D03*
X46399999Y-5200000D03*
X40527500Y250000D03*
X40377500Y1725000D03*
X21199999Y5999999D03*
X44999999Y-3800000D03*
X41452000Y1487000D03*
X30837200Y3682200D03*
X39399999Y7399999D03*
X47799999Y-5200000D03*
X26799999Y10200000D03*
X21610000Y1000000D03*
X18400000Y7399999D03*
X29599999Y7399999D03*
X22260000Y-1070000D03*
X45412800Y-2200000D03*
X21199999Y8799999D03*
X49475000Y1475000D03*
X33799999Y8799999D03*
X15600000Y-10800000D03*
X35151900Y-4349200D03*
X42050000Y-2550000D03*
X44999999Y5999999D03*
X49475000Y-1475000D03*
G04 #@! TO.N,SCL*
X37237800Y-7971800D03*
X18713100Y-6286500D03*
X43260300Y-2167300D03*
G04 #@! TO.N,SDA*
X39012700Y-8893000D03*
X20856200Y-5540500D03*
G04 #@! TO.N,GNSS_EN*
X20048000Y-2528900D03*
X39695200Y-6312700D03*
G04 #@! TO.N,GNSS_RF*
X48424700Y-3091300D03*
G04 #@! TO.N,VCC_RF*
X44879300Y27500D03*
G04 #@! TO.N,VBAT_SENSE*
X18410200Y6494500D03*
G04 #@! TO.N,BTN*
X37785400Y-5826300D03*
X30407600Y-8259100D03*
G04 #@! TO.N,VIB_IN*
X18954200Y-3134800D03*
G04 #@! TO.N,I2S_BCLK*
X25504300Y-4563800D03*
G04 #@! TO.N,I2S_LRCLK*
X28329600Y-4545400D03*
G04 #@! TO.N,I2S_DIN*
X23699500Y-1911700D03*
G04 #@! TO.N,VBUS*
X30158600Y256400D03*
G04 #@! TO.N,VBAT*
X22165000Y-1891800D03*
X29990400Y-5810900D03*
G04 #@! TO.N,VBUS_DET*
X20963000Y-3228400D03*
X40801000Y-3427700D03*
X29147800Y-5941000D03*
G04 #@! TO.N,VIB_IN_R*
X20670700Y-1944800D03*
X30590100Y-1468500D03*
G04 #@! TO.N,SPK_P*
X24114600Y-6043400D03*
X28549500Y-715700D03*
G04 #@! TO.N,BAT_RAW*
X21743100Y3149800D03*
X42472400Y1066600D03*
X35044900Y858500D03*
G04 #@! TD*
G04 #@! TO.N,+3V3*
D11*
X39633300Y1503600D02*
X35693900Y-2435800D01*
X39806400Y1334500D02*
X39802300Y1334500D01*
X42548700Y-309000D02*
X41341300Y898400D01*
X39633300Y1503600D02*
X39031200Y2105600D01*
X39802300Y1334500D02*
X39633300Y1503600D01*
X41341300Y898400D02*
X40242500Y898400D01*
X39031200Y2105600D02*
X39031200Y2190600D01*
X40242500Y898400D02*
X39806400Y1334500D01*
G04 #@! TO.N,SCL*
X37237800Y-7971800D02*
X38856900Y-7971800D01*
X38856900Y-7971800D02*
X43260300Y-3568400D01*
X43260300Y-3568400D02*
X43260300Y-2167300D01*
G04 #@! TO.N,GNSS_EN*
X20048000Y-3206200D02*
X20048000Y-2528900D01*
X32566800Y-7003600D02*
X30719600Y-8850800D01*
X39695200Y-6312700D02*
X39550300Y-6167800D01*
X39550300Y-6167800D02*
X38361400Y-6167800D01*
X37525600Y-7003600D02*
X32566800Y-7003600D01*
X25692600Y-8850800D02*
X20048000Y-3206200D01*
X30719600Y-8850800D02*
X25692600Y-8850800D01*
X38361400Y-6167800D02*
X37525600Y-7003600D01*
G04 #@! TO.N,BTN*
X30407600Y-8259100D02*
X32840400Y-5826300D01*
X32840400Y-5826300D02*
X37785400Y-5826300D01*
G04 #@! TO.N,VBUS_DET*
X29147800Y-5828400D02*
X31548500Y-3427700D01*
X29147800Y-5941000D02*
X29147800Y-5828400D01*
X31548500Y-3427700D02*
X40801000Y-3427700D01*
G04 #@! TO.N,SPK_P*
X28549500Y-715700D02*
X28459700Y-715700D01*
X28459700Y-715700D02*
X24114600Y-5060800D01*
X24114600Y-5060800D02*
X24114600Y-6043400D01*
G04 #@! TD*
G04 #@! TA.AperFunction,Conductor*
G04 #@! TO.N,GND*
G36*
X15149999Y12463321D02*
G01*
X15649998Y12403101D01*
X15649999Y12403101D01*
X16149999Y12342880D01*
X16149998Y12342879D01*
X17150000Y12222440D01*
X17650000Y12162220D01*
X18149999Y12102000D01*
X18150000Y12102000D01*
X18650000Y12041779D01*
X18649999Y12041778D01*
X19150000Y11981559D01*
X19650000Y11921339D01*
X20149999Y11861119D01*
X20150000Y11861119D01*
X20650000Y11800898D01*
X20649999Y11800897D01*
X21150000Y11740678D01*
X21650000Y11680458D01*
X22149999Y11620238D01*
X22150000Y11620238D01*
X22650000Y11560017D01*
X22649999Y11560016D01*
X23150000Y11499797D01*
X24150000Y11379357D01*
X24649999Y11319137D01*
X24650000Y11319137D01*
X25150000Y11258916D01*
X25149999Y11258915D01*
X25650000Y11198696D01*
X26150000Y11138476D01*
X26649999Y11078256D01*
X26650000Y11078256D01*
X27150000Y11018035D01*
X27149999Y11018034D01*
X27650000Y10957815D01*
X28650000Y10837375D01*
X29149999Y10777155D01*
X29150000Y10777155D01*
X29650000Y10716934D01*
X29649999Y10716933D01*
X30150000Y10656714D01*
X30650000Y10596494D01*
X31149999Y10536274D01*
X31150000Y10536274D01*
X31650000Y10476053D01*
X31649999Y10476052D01*
X32150000Y10415833D01*
X33150000Y10295393D01*
X33649999Y10235173D01*
X33650000Y10235173D01*
X34150000Y10174952D01*
X34149999Y10174951D01*
X34650000Y10114732D01*
X35150000Y10054512D01*
X35649999Y9994292D01*
X35650000Y9994292D01*
X36150000Y9934071D01*
X36149999Y9934070D01*
X36650000Y9873851D01*
X37150000Y9813631D01*
X37649999Y9753411D01*
X37650000Y9753411D01*
X38150000Y9693190D01*
X38149999Y9693189D01*
X38650000Y9632970D01*
X39650000Y9512530D01*
X40149999Y9452310D01*
X40150000Y9452310D01*
X40650000Y9392089D01*
X40649999Y9392088D01*
X41150000Y9331869D01*
X41216808Y9323822D01*
X41636734Y9273246D01*
X41662615Y9267263D01*
X41999995Y9150000D01*
X42000000Y9149999D01*
X42792068Y9115417D01*
X42802844Y9114474D01*
X43583507Y9011697D01*
X43594160Y9009819D01*
X44362907Y8839393D01*
X44373357Y8836593D01*
X45124323Y8599814D01*
X45134488Y8596114D01*
X45861958Y8294786D01*
X45871762Y8290214D01*
X46570192Y7926634D01*
X46579560Y7921226D01*
X47243661Y7498147D01*
X47252522Y7491942D01*
X47877213Y7012599D01*
X47885500Y7005645D01*
X48466035Y6473684D01*
X48473684Y6466035D01*
X49005645Y5885500D01*
X49012599Y5877213D01*
X49491942Y5252522D01*
X49498147Y5243661D01*
X49921226Y4579559D01*
X49926634Y4570191D01*
X50290214Y3871762D01*
X50294786Y3861958D01*
X50596114Y3134488D01*
X50599814Y3124323D01*
X50836593Y2373357D01*
X50839393Y2362907D01*
X51009819Y1594160D01*
X51011697Y1583507D01*
X51114474Y802844D01*
X51115417Y792068D01*
X51149763Y5409D01*
X51149763Y-5409D01*
X51115417Y-792068D01*
X51114474Y-802844D01*
X51011697Y-1583507D01*
X51009819Y-1594160D01*
X50839393Y-2362907D01*
X50836593Y-2373357D01*
X50599814Y-3124323D01*
X50596114Y-3134488D01*
X50294786Y-3861958D01*
X50290214Y-3871762D01*
X49926634Y-4570191D01*
X49921226Y-4579559D01*
X49498147Y-5243661D01*
X49491942Y-5252522D01*
X49012599Y-5877213D01*
X49005645Y-5885500D01*
X48473684Y-6466035D01*
X48466035Y-6473684D01*
X47885500Y-7005645D01*
X47877213Y-7012599D01*
X47252522Y-7491942D01*
X47243661Y-7498147D01*
X46579560Y-7921226D01*
X46570192Y-7926634D01*
X45871762Y-8290214D01*
X45861958Y-8294786D01*
X45134488Y-8596114D01*
X45124323Y-8599814D01*
X44373357Y-8836593D01*
X44362907Y-8839393D01*
X43594160Y-9009819D01*
X43583507Y-9011697D01*
X42802844Y-9114474D01*
X42792068Y-9115417D01*
X42284168Y-9137592D01*
X42000000Y-9150000D01*
X41999999Y-9150000D01*
X41509129Y-9287163D01*
X41490586Y-9290848D01*
X41062685Y-9342385D01*
X41000000Y-9349935D01*
X40499999Y-9410154D01*
X40500000Y-9410155D01*
X40000000Y-9470376D01*
X39999999Y-9470376D01*
X39500000Y-9530596D01*
X39355206Y-9548034D01*
X39286293Y-9536507D01*
X39234553Y-9489553D01*
X39216412Y-9422079D01*
X39237629Y-9355509D01*
X39278378Y-9317538D01*
X39320014Y-9293500D01*
X39413200Y-9200314D01*
X39479092Y-9086186D01*
X39513200Y-8958892D01*
X39513200Y-8827108D01*
X39479092Y-8699814D01*
X39413200Y-8585686D01*
X39320014Y-8492500D01*
X39205886Y-8426608D01*
X39121010Y-8403865D01*
X39086688Y-8394669D01*
X39027028Y-8358303D01*
X38996499Y-8295456D01*
X39004794Y-8226081D01*
X39031096Y-8187218D01*
X39090457Y-8127858D01*
X43493857Y-3724458D01*
X43504746Y-3698170D01*
X43506146Y-3694791D01*
X43530788Y-3635299D01*
X43535800Y-3623200D01*
X43535800Y-3025408D01*
X47924200Y-3025408D01*
X47924200Y-3157192D01*
X47935855Y-3200690D01*
X47958308Y-3284487D01*
X47983423Y-3327986D01*
X48024200Y-3398614D01*
X48117386Y-3491800D01*
X48231514Y-3557692D01*
X48358808Y-3591800D01*
X48358810Y-3591800D01*
X48490590Y-3591800D01*
X48490592Y-3591800D01*
X48617886Y-3557692D01*
X48732014Y-3491800D01*
X48825200Y-3398614D01*
X48891092Y-3284486D01*
X48925200Y-3157192D01*
X48925200Y-3025408D01*
X48891092Y-2898114D01*
X48825200Y-2783986D01*
X48732014Y-2690800D01*
X48663037Y-2650976D01*
X48617887Y-2624908D01*
X48505490Y-2594792D01*
X48490592Y-2590800D01*
X48358808Y-2590800D01*
X48231512Y-2624908D01*
X48117386Y-2690800D01*
X48117383Y-2690802D01*
X48024202Y-2783983D01*
X48024200Y-2783986D01*
X47958308Y-2898112D01*
X47941375Y-2961308D01*
X47924200Y-3025408D01*
X43535800Y-3025408D01*
X43535800Y-2650976D01*
X43555485Y-2583937D01*
X43572119Y-2563295D01*
X43611377Y-2524037D01*
X43660800Y-2474614D01*
X43726692Y-2360486D01*
X43760800Y-2233192D01*
X43760800Y-2101408D01*
X43726692Y-1974114D01*
X43723739Y-1969000D01*
X43709772Y-1944808D01*
X43660800Y-1859986D01*
X43567614Y-1766800D01*
X43485269Y-1719258D01*
X43453487Y-1700908D01*
X43376116Y-1680177D01*
X43326192Y-1666800D01*
X43194408Y-1666800D01*
X43067112Y-1700908D01*
X42952986Y-1766800D01*
X42952983Y-1766802D01*
X42859802Y-1859983D01*
X42859800Y-1859986D01*
X42793908Y-1974112D01*
X42759800Y-2101408D01*
X42759800Y-2233191D01*
X42793908Y-2360487D01*
X42812275Y-2392299D01*
X42859800Y-2474614D01*
X42859802Y-2474616D01*
X42948481Y-2563295D01*
X42981966Y-2624618D01*
X42984800Y-2650976D01*
X42984800Y-3402922D01*
X42965115Y-3469961D01*
X42948481Y-3490603D01*
X40333684Y-6105399D01*
X40272361Y-6138884D01*
X40202669Y-6133900D01*
X40146736Y-6092028D01*
X40138616Y-6079718D01*
X40095702Y-6005389D01*
X40095697Y-6005383D01*
X40002516Y-5912202D01*
X40002514Y-5912200D01*
X39933951Y-5872615D01*
X39888387Y-5846308D01*
X39790605Y-5820108D01*
X39761092Y-5812200D01*
X39629308Y-5812200D01*
X39502012Y-5846308D01*
X39463074Y-5868789D01*
X39451127Y-5875687D01*
X39389128Y-5892300D01*
X38409900Y-5892300D01*
X38342861Y-5872615D01*
X38297106Y-5819811D01*
X38285900Y-5768300D01*
X38285900Y-5760410D01*
X38285900Y-5760408D01*
X38251792Y-5633114D01*
X38185900Y-5518986D01*
X38092714Y-5425800D01*
X38035650Y-5392854D01*
X37978587Y-5359908D01*
X37914939Y-5342854D01*
X37851292Y-5325800D01*
X37719508Y-5325800D01*
X37592212Y-5359908D01*
X37478086Y-5425800D01*
X37478083Y-5425802D01*
X37389405Y-5514481D01*
X37328082Y-5547966D01*
X37301724Y-5550800D01*
X32895200Y-5550800D01*
X32785600Y-5550800D01*
X32785598Y-5550800D01*
X32785596Y-5550801D01*
X32684344Y-5592739D01*
X32684342Y-5592741D01*
X30554803Y-7722281D01*
X30493480Y-7755766D01*
X30467122Y-7758600D01*
X30341708Y-7758600D01*
X30214412Y-7792708D01*
X30100286Y-7858600D01*
X30100283Y-7858602D01*
X30007102Y-7951783D01*
X30007100Y-7951786D01*
X29941208Y-8065912D01*
X29924610Y-8127858D01*
X29907100Y-8193208D01*
X29907100Y-8324992D01*
X29919775Y-8372297D01*
X29932345Y-8419207D01*
X29930682Y-8489057D01*
X29891519Y-8546919D01*
X29827291Y-8574423D01*
X29812570Y-8575300D01*
X25858077Y-8575300D01*
X25791038Y-8555615D01*
X25770396Y-8538981D01*
X23986996Y-6755581D01*
X23953511Y-6694258D01*
X23958495Y-6624566D01*
X24000367Y-6568633D01*
X24065831Y-6544216D01*
X24074677Y-6543900D01*
X24180490Y-6543900D01*
X24180492Y-6543900D01*
X24307786Y-6509792D01*
X24421914Y-6443900D01*
X24515100Y-6350714D01*
X24580992Y-6236586D01*
X24615100Y-6109292D01*
X24615100Y-5977508D01*
X24587662Y-5875108D01*
X28647300Y-5875108D01*
X28647300Y-6006891D01*
X28681408Y-6134187D01*
X28714354Y-6191250D01*
X28747300Y-6248314D01*
X28840486Y-6341500D01*
X28954614Y-6407392D01*
X29081908Y-6441500D01*
X29081910Y-6441500D01*
X29213690Y-6441500D01*
X29213692Y-6441500D01*
X29340986Y-6407392D01*
X29455114Y-6341500D01*
X29548300Y-6248314D01*
X29548302Y-6248309D01*
X29553756Y-6242856D01*
X29615079Y-6209371D01*
X29684771Y-6214355D01*
X29703431Y-6223146D01*
X29797214Y-6277292D01*
X29924508Y-6311400D01*
X29924510Y-6311400D01*
X30056290Y-6311400D01*
X30056292Y-6311400D01*
X30183586Y-6277292D01*
X30297714Y-6211400D01*
X30390900Y-6118214D01*
X30456792Y-6004086D01*
X30490900Y-5876792D01*
X30490900Y-5745008D01*
X30456792Y-5617714D01*
X30390900Y-5503586D01*
X30297714Y-5410400D01*
X30220654Y-5365909D01*
X30172438Y-5315342D01*
X30159216Y-5246735D01*
X30185184Y-5181870D01*
X30194964Y-5170850D01*
X31626297Y-3739519D01*
X31687620Y-3706034D01*
X31713978Y-3703200D01*
X40317324Y-3703200D01*
X40384363Y-3722885D01*
X40405005Y-3739519D01*
X40493686Y-3828200D01*
X40607814Y-3894092D01*
X40735108Y-3928200D01*
X40735110Y-3928200D01*
X40866890Y-3928200D01*
X40866892Y-3928200D01*
X40994186Y-3894092D01*
X41108314Y-3828200D01*
X41201500Y-3735014D01*
X41267392Y-3620886D01*
X41301500Y-3493592D01*
X41301500Y-3361808D01*
X41267392Y-3234514D01*
X41201500Y-3120386D01*
X41108314Y-3027200D01*
X41051250Y-2994254D01*
X40994187Y-2961308D01*
X40900854Y-2936300D01*
X40866892Y-2927200D01*
X40735108Y-2927200D01*
X40607812Y-2961308D01*
X40493686Y-3027200D01*
X40493683Y-3027202D01*
X40405005Y-3115881D01*
X40343682Y-3149366D01*
X40317324Y-3152200D01*
X35895916Y-3152200D01*
X35828877Y-3132515D01*
X35783122Y-3079711D01*
X35773178Y-3010553D01*
X35802203Y-2946997D01*
X35860981Y-2909223D01*
X35863782Y-2908436D01*
X35887086Y-2902192D01*
X36001214Y-2836300D01*
X36094400Y-2743114D01*
X36160292Y-2628986D01*
X36194400Y-2501692D01*
X36194400Y-2376276D01*
X36214085Y-2309237D01*
X36230719Y-2288595D01*
X39547618Y1028303D01*
X39608941Y1061788D01*
X39678633Y1056804D01*
X39722980Y1028303D01*
X40086444Y664839D01*
X40187696Y622901D01*
X40187698Y622900D01*
X40187700Y622900D01*
X40297300Y622900D01*
X41175823Y622900D01*
X41242862Y603215D01*
X41263503Y586581D01*
X42011882Y-161798D01*
X42045366Y-223119D01*
X42048200Y-249477D01*
X42048200Y-374891D01*
X42082308Y-502187D01*
X42094043Y-522512D01*
X42148200Y-616314D01*
X42241386Y-709500D01*
X42355514Y-775392D01*
X42482808Y-809500D01*
X42482810Y-809500D01*
X42614590Y-809500D01*
X42614592Y-809500D01*
X42741886Y-775392D01*
X42856014Y-709500D01*
X42949200Y-616314D01*
X43015092Y-502186D01*
X43049200Y-374892D01*
X43049200Y-243108D01*
X43015092Y-115814D01*
X42949200Y-1686D01*
X42856014Y91500D01*
X42852739Y93391D01*
X44378800Y93391D01*
X44378800Y-38391D01*
X44412908Y-165687D01*
X44438488Y-209992D01*
X44478800Y-279814D01*
X44571986Y-373000D01*
X44686114Y-438892D01*
X44813408Y-473000D01*
X44813410Y-473000D01*
X44945190Y-473000D01*
X44945192Y-473000D01*
X45072486Y-438892D01*
X45186614Y-373000D01*
X45279800Y-279814D01*
X45345692Y-165686D01*
X45379800Y-38392D01*
X45379800Y93392D01*
X45345692Y220686D01*
X45279800Y334814D01*
X45186614Y428000D01*
X45072486Y493892D01*
X44945192Y528000D01*
X44813408Y528000D01*
X44686114Y493892D01*
X44571986Y428000D01*
X44478800Y334814D01*
X44445854Y277750D01*
X44412908Y220687D01*
X44378800Y93391D01*
X42852739Y93391D01*
X42741886Y157392D01*
X42614592Y191500D01*
X42489177Y191500D01*
X42422138Y211185D01*
X42401501Y227813D01*
X42264788Y364526D01*
X42231306Y425845D01*
X42236290Y495537D01*
X42278161Y551471D01*
X42343625Y575888D01*
X42384562Y571980D01*
X42406508Y566100D01*
X42538291Y566100D01*
X42538292Y566100D01*
X42614729Y586581D01*
X42665587Y600208D01*
X42722650Y633154D01*
X42779714Y666100D01*
X42872900Y759286D01*
X42938792Y873414D01*
X42972900Y1000708D01*
X42972900Y1132492D01*
X42938792Y1259786D01*
X42872900Y1373914D01*
X42779714Y1467100D01*
X42665586Y1532992D01*
X42538292Y1567100D01*
X42406508Y1567100D01*
X42279214Y1532992D01*
X42279212Y1532991D01*
X42263921Y1524163D01*
X42165086Y1467100D01*
X42071900Y1373914D01*
X42038954Y1316850D01*
X42006008Y1259787D01*
X41992727Y1210219D01*
X41973547Y1138636D01*
X41971900Y1132491D01*
X41971900Y1000708D01*
X41977780Y978762D01*
X41976115Y908912D01*
X41936951Y851051D01*
X41872721Y823548D01*
X41803819Y835137D01*
X41770326Y858988D01*
X41497358Y1131957D01*
X41492633Y1133914D01*
X41481235Y1138636D01*
X41481235Y1138635D01*
X41396100Y1173900D01*
X41396099Y1173900D01*
X40407978Y1173900D01*
X40340939Y1193585D01*
X40320297Y1210219D01*
X39962462Y1568053D01*
X39962458Y1568057D01*
X39962452Y1568059D01*
X39960366Y1569454D01*
X39941546Y1584901D01*
X39876483Y1650002D01*
X39876332Y1650190D01*
X39874469Y1652054D01*
X39871686Y1655364D01*
X39869638Y1657185D01*
X39864358Y1662162D01*
X39844122Y1682395D01*
X39830755Y1695761D01*
X39830758Y1695764D01*
X39830737Y1695778D01*
X39828256Y1698259D01*
X39789428Y1737111D01*
X39787983Y1738581D01*
X39780988Y1745816D01*
X39779512Y1746993D01*
X39554868Y1971600D01*
X39521380Y2032918D01*
X39522768Y2091376D01*
X39531700Y2124708D01*
X39531700Y2256492D01*
X39497592Y2383786D01*
X39431700Y2497914D01*
X39338514Y2591100D01*
X39224386Y2656992D01*
X39097092Y2691100D01*
X38965308Y2691100D01*
X38838014Y2656992D01*
X38723886Y2591100D01*
X38630700Y2497914D01*
X38597754Y2440850D01*
X38564808Y2383787D01*
X38530700Y2256491D01*
X38530700Y2124708D01*
X38564808Y1997412D01*
X38630700Y1883286D01*
X38630702Y1883283D01*
X38723883Y1790102D01*
X38723886Y1790100D01*
X38838012Y1724208D01*
X38965308Y1690100D01*
X39005765Y1690100D01*
X39072804Y1670415D01*
X39093435Y1653791D01*
X39128688Y1618543D01*
X39155974Y1591262D01*
X39189463Y1529941D01*
X39184483Y1460249D01*
X39155979Y1415894D01*
X37496976Y-243108D01*
X35841103Y-1898981D01*
X35779780Y-1932466D01*
X35753422Y-1935300D01*
X35628008Y-1935300D01*
X35500712Y-1969408D01*
X35386586Y-2035300D01*
X35386583Y-2035302D01*
X35293402Y-2128483D01*
X35293400Y-2128486D01*
X35227508Y-2242612D01*
X35196539Y-2358192D01*
X35193400Y-2369908D01*
X35193400Y-2501692D01*
X35199387Y-2524037D01*
X35227508Y-2628987D01*
X35230576Y-2634300D01*
X35293400Y-2743114D01*
X35386586Y-2836300D01*
X35500714Y-2902192D01*
X35523979Y-2908425D01*
X35583638Y-2944790D01*
X35614167Y-3007637D01*
X35605872Y-3077013D01*
X35561387Y-3130891D01*
X35494835Y-3152165D01*
X35491884Y-3152200D01*
X31493699Y-3152200D01*
X31468810Y-3162510D01*
X31424307Y-3180944D01*
X31392441Y-3194143D01*
X31392440Y-3194143D01*
X31392438Y-3194145D01*
X29182404Y-5404181D01*
X29121081Y-5437666D01*
X29094723Y-5440500D01*
X29081908Y-5440500D01*
X28954612Y-5474608D01*
X28840486Y-5540500D01*
X28840483Y-5540502D01*
X28747302Y-5633683D01*
X28747300Y-5633686D01*
X28681408Y-5747812D01*
X28647300Y-5875108D01*
X24587662Y-5875108D01*
X24580992Y-5850214D01*
X24515100Y-5736086D01*
X24426419Y-5647405D01*
X24392934Y-5586082D01*
X24390100Y-5559724D01*
X24390100Y-5226277D01*
X24409785Y-5159238D01*
X24426419Y-5138596D01*
X24619118Y-4945897D01*
X24839499Y-4725515D01*
X24900820Y-4692032D01*
X24970511Y-4697016D01*
X25026445Y-4738887D01*
X25034565Y-4751197D01*
X25072767Y-4817364D01*
X25103800Y-4871114D01*
X25196986Y-4964300D01*
X25311114Y-5030192D01*
X25438408Y-5064300D01*
X25438410Y-5064300D01*
X25570190Y-5064300D01*
X25570192Y-5064300D01*
X25697486Y-5030192D01*
X25811614Y-4964300D01*
X25904800Y-4871114D01*
X25970692Y-4756986D01*
X26004800Y-4629692D01*
X26004800Y-4497908D01*
X25999870Y-4479508D01*
X27829100Y-4479508D01*
X27829100Y-4611291D01*
X27863208Y-4738587D01*
X27896154Y-4795650D01*
X27929100Y-4852714D01*
X28022286Y-4945900D01*
X28136414Y-5011792D01*
X28263708Y-5045900D01*
X28263710Y-5045900D01*
X28395490Y-5045900D01*
X28395492Y-5045900D01*
X28522786Y-5011792D01*
X28636914Y-4945900D01*
X28730100Y-4852714D01*
X28795992Y-4738586D01*
X28830100Y-4611292D01*
X28830100Y-4479508D01*
X28795992Y-4352214D01*
X28730100Y-4238086D01*
X28636914Y-4144900D01*
X28554656Y-4097408D01*
X28522787Y-4079008D01*
X28459139Y-4061954D01*
X28395492Y-4044900D01*
X28263708Y-4044900D01*
X28136412Y-4079008D01*
X28022286Y-4144900D01*
X28022283Y-4144902D01*
X27929102Y-4238083D01*
X27929100Y-4238086D01*
X27863208Y-4352212D01*
X27829100Y-4479508D01*
X25999870Y-4479508D01*
X25970692Y-4370614D01*
X25904800Y-4256486D01*
X25811614Y-4163300D01*
X25757864Y-4132267D01*
X25691697Y-4094065D01*
X25643482Y-4043497D01*
X25630260Y-3974890D01*
X25656228Y-3910025D01*
X25666009Y-3899005D01*
X28162406Y-1402608D01*
X30089600Y-1402608D01*
X30089600Y-1534392D01*
X30102760Y-1583507D01*
X30123708Y-1661687D01*
X30142040Y-1693438D01*
X30189600Y-1775814D01*
X30282786Y-1869000D01*
X30396914Y-1934892D01*
X30524208Y-1969000D01*
X30524210Y-1969000D01*
X30655990Y-1969000D01*
X30655992Y-1969000D01*
X30783286Y-1934892D01*
X30897414Y-1869000D01*
X30990600Y-1775814D01*
X31056492Y-1661686D01*
X31090600Y-1534392D01*
X31090600Y-1402608D01*
X31056492Y-1275314D01*
X30990600Y-1161186D01*
X30897414Y-1068000D01*
X30819500Y-1023016D01*
X30783287Y-1002108D01*
X30719639Y-985054D01*
X30655992Y-968000D01*
X30524208Y-968000D01*
X30396912Y-1002108D01*
X30282786Y-1068000D01*
X30282783Y-1068002D01*
X30189602Y-1161183D01*
X30189600Y-1161186D01*
X30123708Y-1275312D01*
X30092630Y-1391300D01*
X30089600Y-1402608D01*
X28162406Y-1402608D01*
X28326679Y-1238335D01*
X28388000Y-1204852D01*
X28446447Y-1206242D01*
X28483608Y-1216200D01*
X28483612Y-1216200D01*
X28615390Y-1216200D01*
X28615392Y-1216200D01*
X28742686Y-1182092D01*
X28856814Y-1116200D01*
X28950000Y-1023014D01*
X29015892Y-908886D01*
X29050000Y-781592D01*
X29050000Y-649808D01*
X29015892Y-522514D01*
X28950000Y-408386D01*
X28856814Y-315200D01*
X28795522Y-279813D01*
X28742687Y-249308D01*
X28644946Y-223119D01*
X28615392Y-215200D01*
X28483608Y-215200D01*
X28356312Y-249308D01*
X28242186Y-315200D01*
X28242183Y-315202D01*
X28149002Y-408383D01*
X28149000Y-408386D01*
X28083108Y-522512D01*
X28049000Y-649808D01*
X28049000Y-685422D01*
X28029315Y-752461D01*
X28012681Y-773103D01*
X23958542Y-4827243D01*
X23881044Y-4904740D01*
X23839100Y-5005999D01*
X23839100Y-5559724D01*
X23819415Y-5626763D01*
X23802781Y-5647405D01*
X23714102Y-5736083D01*
X23714100Y-5736086D01*
X23648208Y-5850212D01*
X23614100Y-5977508D01*
X23614100Y-6083323D01*
X23594415Y-6150362D01*
X23541611Y-6196117D01*
X23472453Y-6206061D01*
X23408897Y-6177036D01*
X23402419Y-6171004D01*
X21124653Y-3893238D01*
X21091168Y-3831915D01*
X21096152Y-3762223D01*
X21138024Y-3706290D01*
X21150334Y-3698170D01*
X21156183Y-3694792D01*
X21156186Y-3694792D01*
X21270314Y-3628900D01*
X21363500Y-3535714D01*
X21429392Y-3421586D01*
X21463500Y-3294292D01*
X21463500Y-3162508D01*
X21429392Y-3035214D01*
X21423730Y-3025408D01*
X21378904Y-2947767D01*
X21363500Y-2921086D01*
X21270314Y-2827900D01*
X21211754Y-2794090D01*
X21156187Y-2762008D01*
X21085668Y-2743113D01*
X21028892Y-2727900D01*
X20897108Y-2727900D01*
X20769812Y-2762008D01*
X20714245Y-2794090D01*
X20646345Y-2810562D01*
X20580318Y-2787709D01*
X20537128Y-2732787D01*
X20530487Y-2663234D01*
X20532460Y-2654653D01*
X20548500Y-2594792D01*
X20548500Y-2569300D01*
X20568185Y-2502261D01*
X20620989Y-2456506D01*
X20672500Y-2445300D01*
X20736590Y-2445300D01*
X20736592Y-2445300D01*
X20863886Y-2411192D01*
X20978014Y-2345300D01*
X21071200Y-2252114D01*
X21137092Y-2137986D01*
X21171200Y-2010692D01*
X21171200Y-1878908D01*
X21156999Y-1825908D01*
X21664500Y-1825908D01*
X21664500Y-1957692D01*
X21668900Y-1974112D01*
X21698608Y-2084987D01*
X21708089Y-2101408D01*
X21764500Y-2199114D01*
X21857686Y-2292300D01*
X21971814Y-2358192D01*
X22099108Y-2392300D01*
X22099110Y-2392300D01*
X22230890Y-2392300D01*
X22230892Y-2392300D01*
X22358186Y-2358192D01*
X22472314Y-2292300D01*
X22565500Y-2199114D01*
X22631392Y-2084986D01*
X22665500Y-1957692D01*
X22665500Y-1845808D01*
X23199000Y-1845808D01*
X23199000Y-1977592D01*
X23207869Y-2010691D01*
X23233108Y-2104887D01*
X23252218Y-2137986D01*
X23299000Y-2219014D01*
X23392186Y-2312200D01*
X23480013Y-2362907D01*
X23503168Y-2376276D01*
X23506314Y-2378092D01*
X23633608Y-2412200D01*
X23633610Y-2412200D01*
X23765390Y-2412200D01*
X23765392Y-2412200D01*
X23892686Y-2378092D01*
X24006814Y-2312200D01*
X24100000Y-2219014D01*
X24165892Y-2104886D01*
X24200000Y-1977592D01*
X24200000Y-1845808D01*
X24165892Y-1718514D01*
X24100000Y-1604386D01*
X24006814Y-1511200D01*
X23949750Y-1478254D01*
X23892687Y-1445308D01*
X23818417Y-1425408D01*
X23765392Y-1411200D01*
X23633608Y-1411200D01*
X23506312Y-1445308D01*
X23392186Y-1511200D01*
X23392183Y-1511202D01*
X23299002Y-1604383D01*
X23299000Y-1604386D01*
X23233108Y-1718512D01*
X23217754Y-1775816D01*
X23199000Y-1845808D01*
X22665500Y-1845808D01*
X22665500Y-1825908D01*
X22631392Y-1698614D01*
X22565500Y-1584486D01*
X22472314Y-1491300D01*
X22390908Y-1444300D01*
X22358187Y-1425408D01*
X22273094Y-1402608D01*
X22230892Y-1391300D01*
X22099108Y-1391300D01*
X21971812Y-1425408D01*
X21857686Y-1491300D01*
X21857683Y-1491302D01*
X21764502Y-1584483D01*
X21764500Y-1584486D01*
X21698608Y-1698612D01*
X21677922Y-1775816D01*
X21664500Y-1825908D01*
X21156999Y-1825908D01*
X21137092Y-1751614D01*
X21071200Y-1637486D01*
X20978014Y-1544300D01*
X20920683Y-1511200D01*
X20863887Y-1478408D01*
X20800239Y-1461354D01*
X20736592Y-1444300D01*
X20604808Y-1444300D01*
X20477512Y-1478408D01*
X20363386Y-1544300D01*
X20363383Y-1544302D01*
X20270202Y-1637483D01*
X20270200Y-1637486D01*
X20204308Y-1751612D01*
X20170200Y-1878908D01*
X20170200Y-1904400D01*
X20150515Y-1971439D01*
X20097711Y-2017194D01*
X20046200Y-2028400D01*
X19982108Y-2028400D01*
X19854812Y-2062508D01*
X19740686Y-2128400D01*
X19740683Y-2128402D01*
X19647502Y-2221583D01*
X19647500Y-2221586D01*
X19581608Y-2335712D01*
X19561384Y-2411191D01*
X19547500Y-2463008D01*
X19547500Y-2594792D01*
X19558086Y-2634300D01*
X19581608Y-2722087D01*
X19604657Y-2762008D01*
X19647500Y-2836214D01*
X19647502Y-2836216D01*
X19736181Y-2924895D01*
X19769666Y-2986218D01*
X19772500Y-3012576D01*
X19772500Y-3261000D01*
X19814257Y-3361808D01*
X19814293Y-3361895D01*
X19814443Y-3362259D01*
X22648302Y-6196117D01*
X25459043Y-9006858D01*
X25536542Y-9084357D01*
X25637800Y-9126300D01*
X25637801Y-9126300D01*
X30774399Y-9126300D01*
X30774400Y-9126300D01*
X30875658Y-9084357D01*
X30953157Y-9006858D01*
X30953156Y-9006858D01*
X31011725Y-8948289D01*
X32644597Y-7315419D01*
X32705920Y-7281934D01*
X32732278Y-7279100D01*
X36973816Y-7279100D01*
X37040855Y-7298785D01*
X37086610Y-7351589D01*
X37096554Y-7420747D01*
X37067529Y-7484303D01*
X37035817Y-7510487D01*
X36930486Y-7571300D01*
X36930483Y-7571302D01*
X36837302Y-7664483D01*
X36837300Y-7664486D01*
X36771408Y-7778612D01*
X36749976Y-7858600D01*
X36737300Y-7905908D01*
X36737300Y-8037692D01*
X36744862Y-8065914D01*
X36771408Y-8164987D01*
X36784240Y-8187212D01*
X36837300Y-8279114D01*
X36930486Y-8372300D01*
X37044614Y-8438192D01*
X37171908Y-8472300D01*
X37171910Y-8472300D01*
X37303690Y-8472300D01*
X37303692Y-8472300D01*
X37430986Y-8438192D01*
X37545114Y-8372300D01*
X37633795Y-8283619D01*
X37695118Y-8250134D01*
X37721476Y-8247300D01*
X38667311Y-8247300D01*
X38734350Y-8266985D01*
X38780105Y-8319789D01*
X38790049Y-8388947D01*
X38761024Y-8452503D01*
X38729311Y-8478687D01*
X38705389Y-8492498D01*
X38705383Y-8492502D01*
X38612202Y-8585683D01*
X38612200Y-8585686D01*
X38546308Y-8699812D01*
X38535968Y-8738404D01*
X38512200Y-8827108D01*
X38512200Y-8958892D01*
X38519294Y-8985368D01*
X38546308Y-9086187D01*
X38569467Y-9126299D01*
X38612200Y-9200314D01*
X38705386Y-9293500D01*
X38819514Y-9359392D01*
X38851329Y-9367916D01*
X38910989Y-9404280D01*
X38941519Y-9467127D01*
X38933225Y-9536502D01*
X38888740Y-9590381D01*
X38834064Y-9610801D01*
X38500000Y-9651036D01*
X38000000Y-9711257D01*
X37999999Y-9711257D01*
X37500000Y-9771477D01*
X36500000Y-9891917D01*
X35999999Y-9952136D01*
X36000000Y-9952137D01*
X35500000Y-10012358D01*
X35499999Y-10012358D01*
X35000000Y-10072578D01*
X34500000Y-10132798D01*
X33999999Y-10193017D01*
X34000000Y-10193018D01*
X33500000Y-10253239D01*
X33499999Y-10253239D01*
X33000000Y-10313459D01*
X32000000Y-10433899D01*
X31499999Y-10494118D01*
X31500000Y-10494119D01*
X31000000Y-10554340D01*
X30999999Y-10554340D01*
X30500000Y-10614560D01*
X30000000Y-10674780D01*
X29499999Y-10734999D01*
X29500000Y-10735000D01*
X29000000Y-10795221D01*
X28999999Y-10795221D01*
X28500000Y-10855441D01*
X28000000Y-10915661D01*
X27499999Y-10975880D01*
X27500000Y-10975881D01*
X27000000Y-11036102D01*
X26999999Y-11036102D01*
X26500000Y-11096322D01*
X25500000Y-11216762D01*
X24999999Y-11276981D01*
X25000000Y-11276982D01*
X24500000Y-11337203D01*
X24499999Y-11337203D01*
X24000000Y-11397423D01*
X23500000Y-11457643D01*
X22999999Y-11517862D01*
X23000000Y-11517863D01*
X22500000Y-11578084D01*
X22499999Y-11578084D01*
X22000000Y-11638304D01*
X21000000Y-11758744D01*
X20499999Y-11818963D01*
X20500000Y-11818964D01*
X20000000Y-11879185D01*
X19999999Y-11879185D01*
X19500000Y-11939405D01*
X19000000Y-11999625D01*
X18499999Y-12059844D01*
X18500000Y-12059845D01*
X18000000Y-12120066D01*
X17999999Y-12120066D01*
X17500000Y-12180286D01*
X17000000Y-12240506D01*
X16499999Y-12300725D01*
X16500000Y-12300726D01*
X16000000Y-12360947D01*
X15999999Y-12360947D01*
X15500000Y-12421167D01*
X15136885Y-12464900D01*
X15067973Y-12453373D01*
X15016232Y-12406419D01*
X14998070Y-12343525D01*
X14994942Y-12120066D01*
X14912366Y-6220608D01*
X18212600Y-6220608D01*
X18212600Y-6352391D01*
X18246708Y-6479687D01*
X18267916Y-6516419D01*
X18312600Y-6593814D01*
X18405786Y-6687000D01*
X18519914Y-6752892D01*
X18647208Y-6787000D01*
X18647210Y-6787000D01*
X18778990Y-6787000D01*
X18778992Y-6787000D01*
X18906286Y-6752892D01*
X19020414Y-6687000D01*
X19113600Y-6593814D01*
X19179492Y-6479686D01*
X19213600Y-6352392D01*
X19213600Y-6220608D01*
X19179492Y-6093314D01*
X19113600Y-5979186D01*
X19020414Y-5886000D01*
X18954274Y-5847814D01*
X18906287Y-5820108D01*
X18842639Y-5803054D01*
X18778992Y-5786000D01*
X18647208Y-5786000D01*
X18519912Y-5820108D01*
X18405786Y-5886000D01*
X18405783Y-5886002D01*
X18312602Y-5979183D01*
X18312600Y-5979186D01*
X18246708Y-6093312D01*
X18212600Y-6220608D01*
X14912366Y-6220608D01*
X14901924Y-5474608D01*
X20355700Y-5474608D01*
X20355700Y-5606392D01*
X20362860Y-5633112D01*
X20389808Y-5733687D01*
X20405236Y-5760408D01*
X20455700Y-5847814D01*
X20548886Y-5941000D01*
X20615021Y-5979183D01*
X20660405Y-6005386D01*
X20663014Y-6006892D01*
X20790308Y-6041000D01*
X20790310Y-6041000D01*
X20922090Y-6041000D01*
X20922092Y-6041000D01*
X21049386Y-6006892D01*
X21163514Y-5941000D01*
X21256700Y-5847814D01*
X21322592Y-5733686D01*
X21356700Y-5606392D01*
X21356700Y-5474608D01*
X21322592Y-5347314D01*
X21256700Y-5233186D01*
X21163514Y-5140000D01*
X21106450Y-5107054D01*
X21049387Y-5074108D01*
X20944111Y-5045900D01*
X20922092Y-5040000D01*
X20790308Y-5040000D01*
X20663012Y-5074108D01*
X20548886Y-5140000D01*
X20548883Y-5140002D01*
X20455702Y-5233183D01*
X20455700Y-5233186D01*
X20389808Y-5347312D01*
X20372905Y-5410398D01*
X20355700Y-5474608D01*
X14901924Y-5474608D01*
X14868251Y-3068908D01*
X18453700Y-3068908D01*
X18453700Y-3200692D01*
X18469859Y-3261000D01*
X18487808Y-3327987D01*
X18520754Y-3385050D01*
X18553700Y-3442114D01*
X18646886Y-3535300D01*
X18761014Y-3601192D01*
X18888308Y-3635300D01*
X18888310Y-3635300D01*
X19020090Y-3635300D01*
X19020092Y-3635300D01*
X19147386Y-3601192D01*
X19261514Y-3535300D01*
X19354700Y-3442114D01*
X19420592Y-3327986D01*
X19454700Y-3200692D01*
X19454700Y-3068908D01*
X19420592Y-2941614D01*
X19354700Y-2827486D01*
X19261514Y-2734300D01*
X19204450Y-2701354D01*
X19147387Y-2668408D01*
X19082328Y-2650976D01*
X19020092Y-2634300D01*
X18888308Y-2634300D01*
X18761012Y-2668408D01*
X18646886Y-2734300D01*
X18646883Y-2734302D01*
X18553702Y-2827483D01*
X18553700Y-2827486D01*
X18487808Y-2941612D01*
X18464875Y-3027202D01*
X18453700Y-3068908D01*
X14868251Y-3068908D01*
X14830542Y-374890D01*
X14820783Y322291D01*
X29658100Y322291D01*
X29658100Y190508D01*
X29692208Y63212D01*
X29736136Y-12871D01*
X29758100Y-50914D01*
X29851286Y-144100D01*
X29965414Y-209992D01*
X30092708Y-244100D01*
X30092710Y-244100D01*
X30224490Y-244100D01*
X30224492Y-244100D01*
X30351786Y-209992D01*
X30465914Y-144100D01*
X30559100Y-50914D01*
X30624992Y63214D01*
X30659100Y190508D01*
X30659100Y322292D01*
X30624992Y449586D01*
X30559100Y563714D01*
X30465914Y656900D01*
X30351786Y722792D01*
X30224492Y756900D01*
X30092708Y756900D01*
X29965414Y722792D01*
X29851286Y656900D01*
X29758100Y563714D01*
X29737480Y527999D01*
X29692208Y449587D01*
X29658100Y322291D01*
X14820783Y322291D01*
X14820694Y328684D01*
X14812572Y908912D01*
X14812355Y924391D01*
X34544400Y924391D01*
X34544400Y792608D01*
X34578508Y665312D01*
X34644400Y551186D01*
X34644402Y551183D01*
X34737583Y458002D01*
X34737586Y458000D01*
X34851712Y392108D01*
X34979008Y358000D01*
X35110791Y358000D01*
X35110792Y358000D01*
X35174439Y375054D01*
X35238087Y392108D01*
X35300253Y428000D01*
X35352214Y458000D01*
X35445400Y551186D01*
X35511018Y664839D01*
X35511291Y665312D01*
X35511292Y665314D01*
X35545400Y792608D01*
X35545400Y924392D01*
X35511292Y1051686D01*
X35445400Y1165814D01*
X35352214Y1259000D01*
X35238086Y1324892D01*
X35110792Y1359000D01*
X34979008Y1359000D01*
X34851714Y1324892D01*
X34737586Y1259000D01*
X34644400Y1165814D01*
X34624853Y1131958D01*
X34578508Y1051687D01*
X34544400Y924391D01*
X14812355Y924391D01*
X14780283Y3215691D01*
X21242600Y3215691D01*
X21242600Y3083908D01*
X21276708Y2956612D01*
X21342600Y2842486D01*
X21342602Y2842483D01*
X21435783Y2749302D01*
X21435786Y2749300D01*
X21549912Y2683408D01*
X21677208Y2649300D01*
X21808991Y2649300D01*
X21808992Y2649300D01*
X21872639Y2666354D01*
X21936287Y2683408D01*
X21993350Y2716354D01*
X22050414Y2749300D01*
X22143600Y2842486D01*
X22209492Y2956614D01*
X22243600Y3083908D01*
X22243600Y3215692D01*
X22209492Y3342986D01*
X22143600Y3457114D01*
X22050414Y3550300D01*
X21936286Y3616192D01*
X21808992Y3650300D01*
X21677208Y3650300D01*
X21549914Y3616192D01*
X21435786Y3550300D01*
X21342600Y3457114D01*
X21316257Y3411486D01*
X21276708Y3342987D01*
X21242600Y3215691D01*
X14780283Y3215691D01*
X14742858Y5889428D01*
X39549499Y5889428D01*
X39574497Y5763761D01*
X39574499Y5763755D01*
X39623533Y5645375D01*
X39623538Y5645366D01*
X39694723Y5538831D01*
X39694726Y5538827D01*
X39785327Y5448226D01*
X39785331Y5448223D01*
X39891866Y5377038D01*
X39891875Y5377033D01*
X40010255Y5327999D01*
X40010261Y5327997D01*
X40135929Y5303000D01*
X40135931Y5303000D01*
X40264071Y5303000D01*
X40389738Y5327997D01*
X40389744Y5327999D01*
X40508124Y5377033D01*
X40508133Y5377038D01*
X40614668Y5448223D01*
X40614672Y5448226D01*
X40705273Y5538827D01*
X40705276Y5538831D01*
X40776461Y5645366D01*
X40776466Y5645375D01*
X40803286Y5710124D01*
X40825501Y5763756D01*
X40848070Y5877213D01*
X40850500Y5889428D01*
X42549499Y5889428D01*
X42574497Y5763761D01*
X42574499Y5763755D01*
X42623533Y5645375D01*
X42623538Y5645366D01*
X42694723Y5538831D01*
X42694726Y5538827D01*
X42785327Y5448226D01*
X42785331Y5448223D01*
X42891866Y5377038D01*
X42891875Y5377033D01*
X43010255Y5327999D01*
X43010261Y5327997D01*
X43135929Y5303000D01*
X43135931Y5303000D01*
X43264071Y5303000D01*
X43389738Y5327997D01*
X43389744Y5327999D01*
X43508124Y5377033D01*
X43508133Y5377038D01*
X43614668Y5448223D01*
X43614672Y5448226D01*
X43705273Y5538827D01*
X43705276Y5538831D01*
X43776461Y5645366D01*
X43776466Y5645375D01*
X43803286Y5710124D01*
X43825501Y5763756D01*
X43848070Y5877213D01*
X43850500Y5889428D01*
X43850500Y6017571D01*
X43825502Y6143238D01*
X43825501Y6143244D01*
X43776465Y6261627D01*
X43705276Y6368169D01*
X43614669Y6458776D01*
X43508127Y6529965D01*
X43389744Y6579001D01*
X43348615Y6587182D01*
X43264071Y6604000D01*
X43264069Y6604000D01*
X43135931Y6604000D01*
X43135929Y6604000D01*
X43010261Y6579002D01*
X43010256Y6579001D01*
X42918692Y6541074D01*
X42891875Y6529966D01*
X42891866Y6529961D01*
X42785331Y6458776D01*
X42785327Y6458773D01*
X42694726Y6368172D01*
X42694723Y6368168D01*
X42623538Y6261633D01*
X42623533Y6261624D01*
X42574499Y6143244D01*
X42574497Y6143238D01*
X42549500Y6017571D01*
X42549500Y5889428D01*
X42549499Y5889428D01*
X40850500Y5889428D01*
X40850500Y6017571D01*
X40825502Y6143238D01*
X40825501Y6143244D01*
X40776465Y6261627D01*
X40705276Y6368169D01*
X40614669Y6458776D01*
X40508127Y6529965D01*
X40389744Y6579001D01*
X40348615Y6587182D01*
X40264071Y6604000D01*
X40264069Y6604000D01*
X40135931Y6604000D01*
X40135929Y6604000D01*
X40010261Y6579002D01*
X40010256Y6579001D01*
X39918692Y6541074D01*
X39891875Y6529966D01*
X39891866Y6529961D01*
X39785331Y6458776D01*
X39785327Y6458773D01*
X39694726Y6368172D01*
X39694723Y6368168D01*
X39623538Y6261633D01*
X39623533Y6261624D01*
X39574499Y6143244D01*
X39574497Y6143238D01*
X39549500Y6017571D01*
X39549500Y5889428D01*
X39549499Y5889428D01*
X14742858Y5889428D01*
X14733466Y6560391D01*
X17909700Y6560391D01*
X17909700Y6428608D01*
X17943808Y6301312D01*
X18009700Y6187186D01*
X18009702Y6187183D01*
X18102883Y6094002D01*
X18102886Y6094000D01*
X18217012Y6028108D01*
X18344308Y5994000D01*
X18476091Y5994000D01*
X18476092Y5994000D01*
X18564061Y6017571D01*
X18603387Y6028108D01*
X18660450Y6061054D01*
X18717514Y6094000D01*
X18810700Y6187186D01*
X18876592Y6301314D01*
X18910700Y6428608D01*
X18910700Y6560392D01*
X18876592Y6687686D01*
X18810700Y6801814D01*
X18717514Y6895000D01*
X18603386Y6960892D01*
X18476092Y6995000D01*
X18344308Y6995000D01*
X18217014Y6960892D01*
X18102886Y6895000D01*
X18009700Y6801814D01*
X17976754Y6744750D01*
X17943808Y6687687D01*
X17943808Y6687686D01*
X17914687Y6579002D01*
X17909700Y6560391D01*
X14733466Y6560391D01*
X14651983Y12381739D01*
X14670727Y12449046D01*
X14722886Y12495535D01*
X14790798Y12506583D01*
X15149999Y12463321D01*
G37*
G04 #@! TD.AperFunction*
G04 #@! TA.AperFunction,Conductor*
G36*
X39188121Y-6462985D02*
G01*
X39228469Y-6505299D01*
X39231063Y-6509792D01*
X39294700Y-6620014D01*
X39387886Y-6713200D01*
X39387887Y-6713201D01*
X39387889Y-6713202D01*
X39462218Y-6756116D01*
X39510434Y-6806683D01*
X39523656Y-6875290D01*
X39497688Y-6940155D01*
X39487899Y-6951184D01*
X38779104Y-7659981D01*
X38717781Y-7693466D01*
X38691423Y-7696300D01*
X37721476Y-7696300D01*
X37654437Y-7676615D01*
X37633795Y-7659981D01*
X37545116Y-7571302D01*
X37545114Y-7571300D01*
X37439782Y-7510486D01*
X37391568Y-7459920D01*
X37378346Y-7391312D01*
X37404314Y-7326448D01*
X37461228Y-7285920D01*
X37501784Y-7279100D01*
X37580399Y-7279100D01*
X37580400Y-7279100D01*
X37681658Y-7237157D01*
X37759157Y-7159658D01*
X37759156Y-7159658D01*
X37817725Y-7101089D01*
X38439197Y-6479619D01*
X38500520Y-6446134D01*
X38526878Y-6443300D01*
X39121082Y-6443300D01*
X39188121Y-6462985D01*
G37*
G04 #@! TD.AperFunction*
G04 #@! TD*
M02*
