G04 #@! TF.GenerationSoftware,KiCad,Pcbnew,10.0.6*
G04 #@! TF.CreationDate,2026-09-16T08:51:03+03:00*
G04 #@! TF.ProjectId,wherewatch-carrier,77686572-6577-4617-9463-682d63617272,rev?*
G04 #@! TF.SameCoordinates,Original*
G04 #@! TF.FileFunction,Copper,L4,Bot*
G04 #@! TF.FilePolarity,Positive*
%FSLAX46Y46*%
G04 Gerber Fmt 4.6, Leading zero omitted, Abs format (unit mm)*
G04 Created by KiCad (PCBNEW 10.0.6) date 2026-09-16 08:51:03*
%MOMM*%
%LPD*%
G01*
G04 APERTURE LIST*
G04 Aperture macros list*
%AMRoundRect*
0 Rectangle with rounded corners*
0 $1 Rounding radius*
0 $2 $3 $4 $5 $6 $7 $8 $9 X,Y pos of 4 corners*
0 Add a 4 corners polygon primitive as box body*
4,1,4,$2,$3,$4,$5,$6,$7,$8,$9,$2,$3,0*
0 Add four circle primitives for the rounded corners*
1,1,$1+$1,$2,$3*
1,1,$1+$1,$4,$5*
1,1,$1+$1,$6,$7*
1,1,$1+$1,$8,$9*
0 Add four rect primitives between the rounded corners*
20,1,$1+$1,$2,$3,$4,$5,0*
20,1,$1+$1,$4,$5,$6,$7,0*
20,1,$1+$1,$6,$7,$8,$9,0*
20,1,$1+$1,$8,$9,$2,$3,0*%
G04 Aperture macros list end*
G04 #@! TA.AperFunction,SMDPad,CuDef*
%ADD10R,1.700000X1.000000*%
G04 #@! TD*
G04 #@! TA.AperFunction,SMDPad,CuDef*
%ADD11RoundRect,0.147500X-0.147500X-0.172500X0.147500X-0.172500X0.147500X0.172500X-0.147500X0.172500X0*%
G04 #@! TD*
G04 #@! TA.AperFunction,SMDPad,CuDef*
%ADD12RoundRect,0.250000X-0.275000X-0.250000X0.275000X-0.250000X0.275000X0.250000X-0.275000X0.250000X0*%
G04 #@! TD*
G04 #@! TA.AperFunction,SMDPad,CuDef*
%ADD13RoundRect,0.250000X-0.850000X-0.275000X0.850000X-0.275000X0.850000X0.275000X-0.850000X0.275000X0*%
G04 #@! TD*
G04 #@! TA.AperFunction,SMDPad,CuDef*
%ADD14RoundRect,0.225000X-0.225000X-0.250000X0.225000X-0.250000X0.225000X0.250000X-0.225000X0.250000X0*%
G04 #@! TD*
G04 #@! TA.AperFunction,SMDPad,CuDef*
%ADD15RoundRect,0.135000X-0.135000X-0.185000X0.135000X-0.185000X0.135000X0.185000X-0.135000X0.185000X0*%
G04 #@! TD*
G04 #@! TA.AperFunction,SMDPad,CuDef*
%ADD16R,0.600000X1.524000*%
G04 #@! TD*
G04 #@! TA.AperFunction,SMDPad,CuDef*
%ADD17R,1.200000X0.700000*%
G04 #@! TD*
G04 #@! TA.AperFunction,SMDPad,CuDef*
%ADD18RoundRect,0.150000X-0.587500X-0.150000X0.587500X-0.150000X0.587500X0.150000X-0.587500X0.150000X0*%
G04 #@! TD*
G04 #@! TA.AperFunction,SMDPad,CuDef*
%ADD19RoundRect,0.062500X-0.350000X-0.062500X0.350000X-0.062500X0.350000X0.062500X-0.350000X0.062500X0*%
G04 #@! TD*
G04 #@! TA.AperFunction,SMDPad,CuDef*
%ADD20RoundRect,0.062500X-0.062500X-0.350000X0.062500X-0.350000X0.062500X0.350000X-0.062500X0.350000X0*%
G04 #@! TD*
G04 #@! TA.AperFunction,HeatsinkPad*
%ADD21R,1.230000X1.230000*%
G04 #@! TD*
G04 #@! TA.AperFunction,SMDPad,CuDef*
%ADD22RoundRect,0.140000X-0.140000X-0.170000X0.140000X-0.170000X0.140000X0.170000X-0.140000X0.170000X0*%
G04 #@! TD*
G04 #@! TA.AperFunction,SMDPad,CuDef*
%ADD23RoundRect,0.250000X-0.250000X-1.500000X0.250000X-1.500000X0.250000X1.500000X-0.250000X1.500000X0*%
G04 #@! TD*
G04 #@! TA.AperFunction,SMDPad,CuDef*
%ADD24RoundRect,0.250001X-0.499999X-1.449999X0.499999X-1.449999X0.499999X1.449999X-0.499999X1.449999X0*%
G04 #@! TD*
G04 #@! TA.AperFunction,SMDPad,CuDef*
%ADD25RoundRect,0.135000X0.185000X-0.135000X0.185000X0.135000X-0.185000X0.135000X-0.185000X-0.135000X0*%
G04 #@! TD*
G04 #@! TA.AperFunction,SMDPad,CuDef*
%ADD26RoundRect,0.087500X-0.225000X-0.087500X0.225000X-0.087500X0.225000X0.087500X-0.225000X0.087500X0*%
G04 #@! TD*
G04 #@! TA.AperFunction,SMDPad,CuDef*
%ADD27RoundRect,0.087500X-0.087500X-0.225000X0.087500X-0.225000X0.087500X0.225000X-0.087500X0.225000X0*%
G04 #@! TD*
G04 #@! TA.AperFunction,SMDPad,CuDef*
%ADD28RoundRect,0.225000X-0.225000X-0.375000X0.225000X-0.375000X0.225000X0.375000X-0.225000X0.375000X0*%
G04 #@! TD*
G04 #@! TA.AperFunction,ViaPad*
%ADD29C,0.600000*%
G04 #@! TD*
G04 #@! TA.AperFunction,Conductor*
%ADD30C,0.150000*%
G04 #@! TD*
G04 APERTURE END LIST*
D10*
G04 #@! TO.P,SW2,1*
G04 #@! TO.N,BTN*
X25550000Y-9700000D03*
X31850000Y-9700000D03*
G04 #@! TO.P,SW2,2*
G04 #@! TO.N,GND*
X25550000Y-5900000D03*
X31850000Y-5900000D03*
G04 #@! TD*
D11*
G04 #@! TO.P,L1,1*
G04 #@! TO.N,VCC_RF*
X46715000Y3600000D03*
G04 #@! TO.P,L1,2*
G04 #@! TO.N,GNSS_RF*
X47685000Y3600000D03*
G04 #@! TD*
D12*
G04 #@! TO.P,J3,1*
G04 #@! TO.N,GNSS_RF*
X46350000Y0D03*
D13*
G04 #@! TO.P,J3,2*
G04 #@! TO.N,GND*
X47875000Y1475000D03*
X47875000Y-1475000D03*
G04 #@! TD*
D14*
G04 #@! TO.P,C6,1*
G04 #@! TO.N,+3V3*
X34475000Y5500000D03*
G04 #@! TO.P,C6,2*
G04 #@! TO.N,GND*
X36025000Y5500000D03*
G04 #@! TD*
D15*
G04 #@! TO.P,R11,1*
G04 #@! TO.N,+3V3*
X35990000Y-6750000D03*
G04 #@! TO.P,R11,2*
G04 #@! TO.N,BTN*
X37010000Y-6750000D03*
G04 #@! TD*
D14*
G04 #@! TO.P,C1,1*
G04 #@! TO.N,+3V3*
X34475000Y3500000D03*
G04 #@! TO.P,C1,2*
G04 #@! TO.N,GND*
X36025000Y3500000D03*
G04 #@! TD*
D16*
G04 #@! TO.P,SW1,1*
G04 #@! TO.N,SW_G*
X39450000Y3703500D03*
G04 #@! TO.P,SW1,2*
G04 #@! TO.N,GND*
X42450000Y3703500D03*
G04 #@! TO.P,SW1,3*
G04 #@! TO.N,unconnected-(SW1-C-Pad3)*
X43950000Y3703500D03*
D17*
G04 #@! TO.P,SW1,4*
G04 #@! TO.N,N/C*
X38100000Y7103500D03*
X38100000Y4803500D03*
X45300000Y7103500D03*
X45300000Y4803500D03*
G04 #@! TD*
D15*
G04 #@! TO.P,R10,1*
G04 #@! TO.N,VBUS_DET*
X21240000Y-250000D03*
G04 #@! TO.P,R10,2*
G04 #@! TO.N,GND*
X22260000Y-250000D03*
G04 #@! TD*
G04 #@! TO.P,R5,1*
G04 #@! TO.N,+3V3*
X33740000Y-8000000D03*
G04 #@! TO.P,R5,2*
G04 #@! TO.N,SCL*
X34760000Y-8000000D03*
G04 #@! TD*
D18*
G04 #@! TO.P,Q3,1*
G04 #@! TO.N,VIB_IN_R*
X30562500Y-2450000D03*
G04 #@! TO.P,Q3,2*
G04 #@! TO.N,GND*
X30562500Y-550000D03*
G04 #@! TO.P,Q3,3*
G04 #@! TO.N,VIB_N*
X32437500Y-1500000D03*
G04 #@! TD*
D19*
G04 #@! TO.P,U4,1*
G04 #@! TO.N,I2S_DIN*
X25505000Y-3000000D03*
G04 #@! TO.P,U4,2*
G04 #@! TO.N,unconnected-(U4-GAIN_SLOT-Pad2)*
X25505000Y-2500000D03*
G04 #@! TO.P,U4,3*
G04 #@! TO.N,GND*
X25505000Y-2000000D03*
G04 #@! TO.P,U4,4*
G04 #@! TO.N,VBAT*
X25505000Y-1500000D03*
D20*
G04 #@! TO.P,U4,5*
G04 #@! TO.N,unconnected-(U4-NC-Pad5)*
X26192500Y-812500D03*
G04 #@! TO.P,U4,6*
G04 #@! TO.N,unconnected-(U4-NC-Pad6)*
X26692500Y-812500D03*
G04 #@! TO.P,U4,7*
G04 #@! TO.N,VBAT*
X27192500Y-812500D03*
G04 #@! TO.P,U4,8*
X27692500Y-812500D03*
D19*
G04 #@! TO.P,U4,9*
G04 #@! TO.N,SPK_P*
X28380000Y-1500000D03*
G04 #@! TO.P,U4,10*
G04 #@! TO.N,SPK_N*
X28380000Y-2000000D03*
G04 #@! TO.P,U4,11*
G04 #@! TO.N,GND*
X28380000Y-2500000D03*
G04 #@! TO.P,U4,12*
G04 #@! TO.N,unconnected-(U4-NC-Pad12)*
X28380000Y-3000000D03*
D20*
G04 #@! TO.P,U4,13*
G04 #@! TO.N,unconnected-(U4-NC-Pad13)*
X27692500Y-3687500D03*
G04 #@! TO.P,U4,14*
G04 #@! TO.N,I2S_LRCLK*
X27192500Y-3687500D03*
G04 #@! TO.P,U4,15*
G04 #@! TO.N,GND*
X26692500Y-3687500D03*
G04 #@! TO.P,U4,16*
G04 #@! TO.N,I2S_BCLK*
X26192500Y-3687500D03*
D21*
G04 #@! TO.P,U4,17*
G04 #@! TO.N,GND*
X26942500Y-2250000D03*
G04 #@! TD*
D22*
G04 #@! TO.P,C3,1*
G04 #@! TO.N,VBAT*
X34270000Y7000000D03*
G04 #@! TO.P,C3,2*
G04 #@! TO.N,GND*
X35230000Y7000000D03*
G04 #@! TD*
D15*
G04 #@! TO.P,R7,1*
G04 #@! TO.N,VBAT_SENSE*
X17740000Y-1000000D03*
G04 #@! TO.P,R7,2*
G04 #@! TO.N,GND*
X18760000Y-1000000D03*
G04 #@! TD*
D18*
G04 #@! TO.P,Q1,1*
G04 #@! TO.N,SW_G*
X35062500Y-200000D03*
G04 #@! TO.P,Q1,2*
G04 #@! TO.N,BAT_RAW*
X35062500Y1700000D03*
G04 #@! TO.P,Q1,3*
G04 #@! TO.N,VBAT*
X36937500Y750000D03*
G04 #@! TD*
D22*
G04 #@! TO.P,C4,1*
G04 #@! TO.N,VBAT_SENSE*
X15520000Y-1000000D03*
G04 #@! TO.P,C4,2*
G04 #@! TO.N,GND*
X16480000Y-1000000D03*
G04 #@! TD*
D15*
G04 #@! TO.P,R1,1*
G04 #@! TO.N,BAT_RAW*
X42990000Y2000000D03*
G04 #@! TO.P,R1,2*
G04 #@! TO.N,SW_G*
X44010000Y2000000D03*
G04 #@! TD*
D18*
G04 #@! TO.P,Q2,1*
G04 #@! TO.N,VBUS_DET*
X40812500Y-4450000D03*
G04 #@! TO.P,Q2,2*
G04 #@! TO.N,GND*
X40812500Y-2550000D03*
G04 #@! TO.P,Q2,3*
G04 #@! TO.N,SW_G*
X42687500Y-3500000D03*
G04 #@! TD*
D23*
G04 #@! TO.P,J4,1*
G04 #@! TO.N,+3V3*
X27700000Y2950000D03*
G04 #@! TO.P,J4,2*
G04 #@! TO.N,VIB_N*
X29700000Y2950000D03*
D24*
G04 #@! TO.P,J4,MP*
G04 #@! TO.N,N/C*
X25350000Y8700000D03*
X32050000Y8700000D03*
G04 #@! TD*
D25*
G04 #@! TO.P,R6,1*
G04 #@! TO.N,VBAT*
X23600000Y-810000D03*
G04 #@! TO.P,R6,2*
G04 #@! TO.N,VBAT_SENSE*
X23600000Y210000D03*
G04 #@! TD*
D23*
G04 #@! TO.P,J1,1*
G04 #@! TO.N,BAT_RAW*
X18200000Y4150000D03*
G04 #@! TO.P,J1,2*
G04 #@! TO.N,GND*
X20200000Y4150000D03*
D24*
G04 #@! TO.P,J1,MP*
G04 #@! TO.N,N/C*
X15850000Y9900000D03*
X22550000Y9900000D03*
G04 #@! TD*
D22*
G04 #@! TO.P,C5,1*
G04 #@! TO.N,+3V3*
X37020000Y-5000000D03*
G04 #@! TO.P,C5,2*
G04 #@! TO.N,GND*
X37980000Y-5000000D03*
G04 #@! TD*
D15*
G04 #@! TO.P,R9,1*
G04 #@! TO.N,GNSS_EN*
X33740000Y-9250000D03*
G04 #@! TO.P,R9,2*
G04 #@! TO.N,GND*
X34760000Y-9250000D03*
G04 #@! TD*
D26*
G04 #@! TO.P,U2,1*
G04 #@! TO.N,GND*
X39215000Y-750000D03*
G04 #@! TO.P,U2,2*
X39215000Y-250000D03*
G04 #@! TO.P,U2,3*
X39215000Y250000D03*
G04 #@! TO.P,U2,4*
G04 #@! TO.N,BTN*
X39215000Y750000D03*
D27*
G04 #@! TO.P,U2,5*
G04 #@! TO.N,+3V3*
X39877500Y912500D03*
G04 #@! TO.P,U2,6*
G04 #@! TO.N,GND*
X40377500Y912500D03*
G04 #@! TO.P,U2,7*
X40877500Y912500D03*
D26*
G04 #@! TO.P,U2,8*
G04 #@! TO.N,+3V3*
X41540000Y750000D03*
G04 #@! TO.P,U2,9*
G04 #@! TO.N,unconnected-(U2-INT2-Pad9)*
X41540000Y250000D03*
G04 #@! TO.P,U2,10*
G04 #@! TO.N,unconnected-(U2-NC-Pad10)*
X41540000Y-250000D03*
G04 #@! TO.P,U2,11*
G04 #@! TO.N,unconnected-(U2-NC-Pad11)*
X41540000Y-750000D03*
D27*
G04 #@! TO.P,U2,12*
G04 #@! TO.N,+3V3*
X40877500Y-912500D03*
G04 #@! TO.P,U2,13*
G04 #@! TO.N,SCL*
X40377500Y-912500D03*
G04 #@! TO.P,U2,14*
G04 #@! TO.N,SDA*
X39877500Y-912500D03*
G04 #@! TD*
D23*
G04 #@! TO.P,J5,1*
G04 #@! TO.N,SPK_P*
X18200000Y-9850000D03*
G04 #@! TO.P,J5,2*
G04 #@! TO.N,SPK_N*
X20200000Y-9850000D03*
D24*
G04 #@! TO.P,J5,MP*
G04 #@! TO.N,N/C*
X15850000Y-4100000D03*
X22550000Y-4100000D03*
G04 #@! TD*
D28*
G04 #@! TO.P,D1,1*
G04 #@! TO.N,+3V3*
X34622500Y-3000000D03*
G04 #@! TO.P,D1,2*
G04 #@! TO.N,VIB_N*
X37922500Y-3000000D03*
G04 #@! TD*
D25*
G04 #@! TO.P,R3,1*
G04 #@! TO.N,VIB_IN*
X20000000Y-1210000D03*
G04 #@! TO.P,R3,2*
G04 #@! TO.N,VIB_IN_R*
X20000000Y-190000D03*
G04 #@! TD*
D14*
G04 #@! TO.P,C2,1*
G04 #@! TO.N,VBAT*
X33975000Y-5250000D03*
G04 #@! TO.P,C2,2*
G04 #@! TO.N,GND*
X35525000Y-5250000D03*
G04 #@! TD*
D15*
G04 #@! TO.P,R8,1*
G04 #@! TO.N,VIB_IN_R*
X19490000Y1000000D03*
G04 #@! TO.P,R8,2*
G04 #@! TO.N,GND*
X20510000Y1000000D03*
G04 #@! TD*
G04 #@! TO.P,R4,1*
G04 #@! TO.N,+3V3*
X33740000Y-6750000D03*
G04 #@! TO.P,R4,2*
G04 #@! TO.N,SDA*
X34760000Y-6750000D03*
G04 #@! TD*
G04 #@! TO.P,R2,1*
G04 #@! TO.N,VBUS*
X29990000Y-4000000D03*
G04 #@! TO.P,R2,2*
G04 #@! TO.N,VBUS_DET*
X31010000Y-4000000D03*
G04 #@! TD*
D29*
G04 #@! TO.N,+3V3*
X42548700Y-309000D03*
X39031200Y2190600D03*
X35693900Y-2435800D03*
G04 #@! TO.N,GND*
X46399999Y5999999D03*
X40799999Y3199999D03*
X41967100Y2537600D03*
X49199999Y-2400000D03*
X37000000Y5500000D03*
X21199999Y10200000D03*
X39215000Y-1562500D03*
X43599999Y7399999D03*
X49199999Y3199999D03*
X28199999Y7399999D03*
X42199999Y-8000000D03*
X28199999Y8799999D03*
X36040000Y7000000D03*
X36599999Y7399999D03*
X42199999Y-6600000D03*
X21199999Y4599999D03*
X47799999Y-6600000D03*
X21199999Y7399999D03*
X44999999Y-5200000D03*
X38950000Y-6800000D03*
X49199999Y-3800000D03*
X35651900Y2599200D03*
X19799999Y7399999D03*
X18400000Y8799999D03*
X46399999Y-6600000D03*
X38790000Y-5000000D03*
X43599999Y-6600000D03*
X19799999Y8799999D03*
X42199999Y7399999D03*
X28380000Y-3692500D03*
X35792800Y4400000D03*
X44999999Y-1000000D03*
X26900000Y-5900000D03*
X49199999Y-5200000D03*
X43599999Y-8000000D03*
X43599999Y-5200000D03*
X49199999Y4599999D03*
X26692500Y-4600000D03*
X19799999Y10200000D03*
X18397700Y937100D03*
X35580000Y-9250000D03*
X44999999Y3199999D03*
X23999999Y10200000D03*
X19073800Y-1757600D03*
X17000000Y-10800000D03*
X40799999Y7399999D03*
X29687500Y-1425000D03*
X36599999Y8799999D03*
X29599999Y8799999D03*
X35199999Y8799999D03*
X27079500Y5411800D03*
X18400000Y10200000D03*
X48185800Y-4400000D03*
X47799999Y5999999D03*
X30602800Y-6416600D03*
X44999999Y-6600000D03*
X37999999Y8799999D03*
X19339000Y6228700D03*
X46399999Y-5200000D03*
X40527500Y250000D03*
X40377500Y1725000D03*
X21199999Y5999999D03*
X44999999Y-3800000D03*
X41452000Y1487000D03*
X30837200Y3682200D03*
X39399999Y7399999D03*
X47799999Y-5200000D03*
X26799999Y10200000D03*
X21610000Y1000000D03*
X18400000Y7399999D03*
X29599999Y7399999D03*
X22260000Y-1070000D03*
X45412800Y-2200000D03*
X21199999Y8799999D03*
X49475000Y1475000D03*
X33799999Y8799999D03*
X15600000Y-10800000D03*
X35151900Y-4349200D03*
X42050000Y-2550000D03*
X44999999Y5999999D03*
X49475000Y-1475000D03*
G04 #@! TO.N,SCL*
X37237800Y-7971800D03*
X18713100Y-6286500D03*
X43260300Y-2167300D03*
G04 #@! TO.N,SDA*
X39012700Y-8893000D03*
X20856200Y-5540500D03*
G04 #@! TO.N,GNSS_EN*
X20048000Y-2528900D03*
X39695200Y-6312700D03*
G04 #@! TO.N,GNSS_RF*
X48424700Y-3091300D03*
G04 #@! TO.N,VCC_RF*
X44879300Y27500D03*
G04 #@! TO.N,VBAT_SENSE*
X18410200Y6494500D03*
G04 #@! TO.N,BTN*
X37785400Y-5826300D03*
X30407600Y-8259100D03*
G04 #@! TO.N,VIB_IN*
X18954200Y-3134800D03*
G04 #@! TO.N,I2S_BCLK*
X25504300Y-4563800D03*
G04 #@! TO.N,I2S_LRCLK*
X28329600Y-4545400D03*
G04 #@! TO.N,I2S_DIN*
X23699500Y-1911700D03*
G04 #@! TO.N,VBUS*
X30158600Y256400D03*
G04 #@! TO.N,VBAT*
X22165000Y-1891800D03*
X29990400Y-5810900D03*
G04 #@! TO.N,VBUS_DET*
X20963000Y-3228400D03*
X40801000Y-3427700D03*
X29147800Y-5941000D03*
G04 #@! TO.N,VIB_IN_R*
X20670700Y-1944800D03*
X30590100Y-1468500D03*
G04 #@! TO.N,SPK_P*
X24114600Y-6043400D03*
X28549500Y-715700D03*
G04 #@! TO.N,BAT_RAW*
X21743100Y3149800D03*
X42472400Y1066600D03*
X35044900Y858500D03*
G04 #@! TD*
G04 #@! TO.N,+3V3*
D30*
X42548700Y122000D02*
X41920700Y750000D01*
X27700000Y2950000D02*
X27700000Y2433400D01*
X31409100Y-1090900D02*
X31409100Y-1859100D01*
X27700000Y2433400D02*
X29211100Y922300D01*
X33681000Y4294000D02*
X34475000Y3500000D01*
X31409100Y-1859100D02*
X32550000Y-3000000D01*
X32550000Y-3000000D02*
X34622500Y-3000000D01*
X42548700Y-586600D02*
X42548700Y-309000D01*
X37020000Y-5720000D02*
X37020000Y-5000000D01*
X39877500Y1344300D02*
X39877500Y912500D01*
X35074900Y-3054800D02*
X35693900Y-2435800D01*
X30445200Y920800D02*
X31602900Y-236900D01*
X35990000Y-6750000D02*
X37020000Y-5720000D01*
X39031200Y2190600D02*
X39877500Y1344300D01*
X35060300Y-3040300D02*
X35074900Y-3054800D01*
X29218400Y4984400D02*
X33681000Y4984400D01*
X33740000Y-8000000D02*
X33740000Y-6750000D01*
X29211100Y922300D02*
X30114800Y922300D01*
X34622500Y-3000000D02*
X34662800Y-3040300D01*
X42548700Y-309000D02*
X42548700Y122000D01*
X30114800Y922300D02*
X30116300Y920800D01*
X35379800Y-6139800D02*
X34350200Y-6139800D01*
X34196600Y5500000D02*
X33681000Y4984400D01*
X41100200Y-1207200D02*
X41928100Y-1207200D01*
X40877500Y-984500D02*
X41100200Y-1207200D01*
X34662800Y-3040300D02*
X35060300Y-3040300D01*
X35074900Y-3054800D02*
X37020000Y-5000000D01*
X27700000Y2950000D02*
X27700000Y3466000D01*
X41920700Y750000D02*
X41540000Y750000D01*
X40877500Y-912500D02*
X40877500Y-984500D01*
X27700000Y3466000D02*
X29218400Y4984400D01*
X30116300Y920800D02*
X30445200Y920800D01*
X35990000Y-6750000D02*
X35379800Y-6139800D01*
X34350200Y-6139800D02*
X33740000Y-6750000D01*
X33681000Y4984400D02*
X33681000Y4294000D01*
X34475000Y5500000D02*
X34196600Y5500000D01*
X31602900Y-236900D02*
X31602900Y-897100D01*
X31602900Y-897100D02*
X31409100Y-1090900D01*
X41928100Y-1207200D02*
X42548700Y-586600D01*
G04 #@! TO.N,SCL*
X34760000Y-8000000D02*
X34788200Y-7971800D01*
X40377500Y-1249800D02*
X40377500Y-912500D01*
X42714000Y-1621000D02*
X40748700Y-1621000D01*
X43260300Y-2167300D02*
X42714000Y-1621000D01*
X34788200Y-7971800D02*
X37237800Y-7971800D01*
X40748700Y-1621000D02*
X40377500Y-1249800D01*
G04 #@! TO.N,SDA*
X40283500Y-6070200D02*
X39690500Y-5477200D01*
X39877500Y-912500D02*
X39877500Y-2143100D01*
X35373000Y-7363000D02*
X34760000Y-6750000D01*
X38726900Y-6203200D02*
X37567100Y-7363000D01*
X39877500Y-2143100D02*
X39794200Y-2226400D01*
X37567100Y-7363000D02*
X35373000Y-7363000D01*
X39794200Y-5373500D02*
X39690500Y-5477200D01*
X40283500Y-7622200D02*
X40283500Y-6070200D01*
X39690500Y-5477200D02*
X38964500Y-6203200D01*
X38964500Y-6203200D02*
X38726900Y-6203200D01*
X39012700Y-8893000D02*
X40283500Y-7622200D01*
X39794200Y-2226400D02*
X39794200Y-5373500D01*
G04 #@! TO.N,GNSS_EN*
X37967300Y-8652800D02*
X39695200Y-6924900D01*
X33740000Y-9250000D02*
X34337200Y-8652800D01*
X34337200Y-8652800D02*
X37967300Y-8652800D01*
X39695200Y-6924900D02*
X39695200Y-6312700D01*
G04 #@! TO.N,GNSS_RF*
X46350000Y-1882600D02*
X46350000Y0D01*
X47558700Y-3091300D02*
X46350000Y-1882600D01*
X48424700Y-3091300D02*
X47558700Y-3091300D01*
X46350000Y2265000D02*
X47685000Y3600000D01*
X46350000Y0D02*
X46350000Y2265000D01*
G04 #@! TO.N,VCC_RF*
X44879300Y1764300D02*
X44879300Y27500D01*
X46715000Y3600000D02*
X44879300Y1764300D01*
G04 #@! TO.N,VBAT_SENSE*
X17152800Y1152900D02*
X17152800Y-412800D01*
X17599000Y1599100D02*
X17152800Y1152900D01*
X17422300Y5876200D02*
X18040600Y6494500D01*
X17422300Y1775800D02*
X17422300Y5876200D01*
X17599000Y1599100D02*
X17422300Y1775800D01*
X18040600Y6494500D02*
X18410200Y6494500D01*
X23600000Y210000D02*
X22210900Y1599100D01*
X16107200Y-412800D02*
X17152800Y-412800D01*
X15520000Y-1000000D02*
X16107200Y-412800D01*
X22210900Y1599100D02*
X17599000Y1599100D01*
X17152800Y-412800D02*
X17740000Y-1000000D01*
G04 #@! TO.N,BTN*
X39376400Y-2841300D02*
X39376400Y-5258800D01*
X37785400Y-5974600D02*
X37785400Y-5826300D01*
X38563400Y-2028300D02*
X39376400Y-2841300D01*
X31850000Y-9700000D02*
X30723300Y-9700000D01*
X30407600Y-9384300D02*
X26992400Y-9384300D01*
X26992400Y-9384300D02*
X26676700Y-9700000D01*
X38808900Y-5826300D02*
X37785400Y-5826300D01*
X39376400Y-5258800D02*
X38808900Y-5826300D01*
X25550000Y-9700000D02*
X26676700Y-9700000D01*
X39215000Y750000D02*
X38818400Y750000D01*
X38563400Y495000D02*
X38563400Y-2028300D01*
X38818400Y750000D02*
X38563400Y495000D01*
X37010000Y-6750000D02*
X37785400Y-5974600D01*
X30407600Y-9384300D02*
X30723300Y-9700000D01*
X30407600Y-8259100D02*
X30407600Y-9384300D01*
G04 #@! TO.N,VIB_IN*
X20000000Y-1761400D02*
X18954200Y-2807200D01*
X20000000Y-1210000D02*
X20000000Y-1761400D01*
X18954200Y-2807200D02*
X18954200Y-3134800D01*
G04 #@! TO.N,I2S_BCLK*
X26192500Y-3875600D02*
X25504300Y-4563800D01*
X26192500Y-3687500D02*
X26192500Y-3875600D01*
G04 #@! TO.N,I2S_LRCLK*
X27192500Y-3687500D02*
X27192500Y-4135100D01*
X27602800Y-4545400D02*
X28329600Y-4545400D01*
X27192500Y-4135100D02*
X27602800Y-4545400D01*
G04 #@! TO.N,I2S_DIN*
X24787800Y-3000000D02*
X23699500Y-1911700D01*
X25505000Y-3000000D02*
X24787800Y-3000000D01*
G04 #@! TO.N,VBUS*
X29495300Y-3505300D02*
X29495300Y-2098800D01*
X29990000Y-4000000D02*
X29495300Y-3505300D01*
X29432300Y-733100D02*
X29432300Y-231200D01*
X29110800Y-1714300D02*
X29110800Y-1054600D01*
X29919900Y256400D02*
X30158600Y256400D01*
X29432300Y-231200D02*
X29919900Y256400D01*
X29110800Y-1054600D02*
X29432300Y-733100D01*
X29495300Y-2098800D02*
X29110800Y-1714300D01*
G04 #@! TO.N,VBAT*
X25505000Y-810000D02*
X25505000Y-588100D01*
X23600000Y-810000D02*
X25505000Y-810000D01*
X34250000Y-801400D02*
X34007600Y-559000D01*
X26441200Y348100D02*
X27192500Y-403300D01*
X35202600Y5968900D02*
X34586400Y6585100D01*
X26498900Y5665600D02*
X27418400Y6585100D01*
X35922700Y-801400D02*
X34250000Y-801400D01*
X34908200Y2747400D02*
X35202600Y3041800D01*
X30678000Y-5123300D02*
X29990400Y-5810900D01*
X36937500Y213400D02*
X35922700Y-801400D01*
X23600000Y-810000D02*
X22518200Y-1891800D01*
X27192500Y-812500D02*
X27692500Y-812500D01*
X34007600Y2065000D02*
X34690000Y2747400D01*
X27418400Y6585100D02*
X34270000Y6585100D01*
X33975000Y-5250000D02*
X33848300Y-5123300D01*
X34690000Y2747400D02*
X34908200Y2747400D01*
X35202600Y3041800D02*
X35202600Y5968900D01*
X25505000Y-588100D02*
X26441200Y348100D01*
X34586400Y6585100D02*
X34270000Y6585100D01*
X34270000Y6585100D02*
X34270000Y7000000D01*
X36937500Y750000D02*
X36937500Y213400D01*
X34007600Y-559000D02*
X34007600Y2065000D01*
X26441200Y348100D02*
X26498900Y405800D01*
X33848300Y-5123300D02*
X30678000Y-5123300D01*
X27192500Y-403300D02*
X27192500Y-812500D01*
X22518200Y-1891800D02*
X22165000Y-1891800D01*
X25505000Y-810000D02*
X25505000Y-1500000D01*
X26498900Y405800D02*
X26498900Y5665600D01*
G04 #@! TO.N,SW_G*
X35922700Y1143500D02*
X38482700Y3703500D01*
X39450000Y3703500D02*
X39450000Y4125900D01*
X42743200Y-3500000D02*
X44010000Y-2233200D01*
X38482700Y3703500D02*
X39450000Y3703500D01*
X35922700Y660200D02*
X35922700Y1143500D01*
X44010000Y-2233200D02*
X44010000Y2000000D01*
X40093400Y4769300D02*
X42908100Y4769300D01*
X39450000Y4125900D02*
X40093400Y4769300D01*
X35062500Y-200000D02*
X35922700Y660200D01*
X42687500Y-3500000D02*
X42743200Y-3500000D01*
X42908100Y4769300D02*
X43026700Y4650700D01*
X43026700Y2983300D02*
X44010000Y2000000D01*
X43026700Y4650700D02*
X43026700Y2983300D01*
G04 #@! TO.N,VBUS_DET*
X40812500Y-3439200D02*
X40801000Y-3427700D01*
X21240000Y-250000D02*
X21325500Y-335500D01*
X21325500Y-2865900D02*
X20963000Y-3228400D01*
X30923500Y-4000000D02*
X31010000Y-4000000D01*
X29147800Y-5941000D02*
X29147800Y-5775700D01*
X40812500Y-4450000D02*
X40812500Y-3439200D01*
X21325500Y-335500D02*
X21325500Y-2865900D01*
X29147800Y-5775700D02*
X30923500Y-4000000D01*
G04 #@! TO.N,VIB_IN_R*
X20670700Y-1944800D02*
X20670700Y-860700D01*
X19490000Y1000000D02*
X19490000Y320000D01*
X30562500Y-2450000D02*
X30590100Y-2422400D01*
X30590100Y-2422400D02*
X30590100Y-1468500D01*
X20670700Y-860700D02*
X20000000Y-190000D01*
X19490000Y320000D02*
X20000000Y-190000D01*
G04 #@! TO.N,VIB_N*
X36422500Y-1500000D02*
X32437500Y-1500000D01*
X37922500Y-3000000D02*
X36422500Y-1500000D01*
X32437500Y212500D02*
X29700000Y2950000D01*
X32437500Y-1500000D02*
X32437500Y212500D01*
G04 #@! TO.N,SPK_P*
X18200000Y-9339200D02*
X20805700Y-6733500D01*
X18200000Y-9850000D02*
X18200000Y-9339200D01*
X23424500Y-6733500D02*
X24114600Y-6043400D01*
X28380000Y-1500000D02*
X28380000Y-885200D01*
X28380000Y-885200D02*
X28549500Y-715700D01*
X20805700Y-6733500D02*
X23424500Y-6733500D01*
G04 #@! TO.N,SPK_N*
X26612400Y-7085200D02*
X29091100Y-4606500D01*
X28846400Y-2000000D02*
X28380000Y-2000000D01*
X20200000Y-9850000D02*
X22964800Y-7085200D01*
X29091100Y-2244700D02*
X28846400Y-2000000D01*
X29091100Y-4606500D02*
X29091100Y-2244700D01*
X22964800Y-7085200D02*
X26612400Y-7085200D01*
G04 #@! TO.N,BAT_RAW*
X42472400Y1066600D02*
X42990000Y1584200D01*
X35062500Y876100D02*
X35044900Y858500D01*
X20715600Y2122300D02*
X21743100Y3149800D01*
X42990000Y1584200D02*
X42990000Y2000000D01*
X35062500Y1700000D02*
X35062500Y876100D01*
X18200000Y4150000D02*
X18200000Y3649500D01*
X18200000Y3649500D02*
X19727200Y2122300D01*
X19727200Y2122300D02*
X20715600Y2122300D01*
G04 #@! TD*
G04 #@! TA.AperFunction,Conductor*
G04 #@! TO.N,GND*
G36*
X18962539Y1303915D02*
G01*
X19008294Y1251111D01*
X19019500Y1199600D01*
X19019500Y775683D01*
X19025931Y726828D01*
X19075935Y619595D01*
X19159597Y535933D01*
X19161629Y534511D01*
X19164053Y531477D01*
X19167267Y528264D01*
X19166908Y527905D01*
X19205251Y479931D01*
X19214500Y432940D01*
X19214500Y265199D01*
X19222379Y246179D01*
X19245028Y191500D01*
X19256033Y164933D01*
X19256444Y163940D01*
X19443181Y-22796D01*
X19476666Y-84119D01*
X19479500Y-110477D01*
X19479500Y-364316D01*
X19485931Y-413171D01*
X19535935Y-520404D01*
X19627267Y-611736D01*
X19624443Y-614559D01*
X19655183Y-653042D01*
X19662352Y-722542D01*
X19630808Y-784886D01*
X19627101Y-788098D01*
X19627267Y-788264D01*
X19535935Y-879595D01*
X19485931Y-986828D01*
X19479500Y-1035683D01*
X19479500Y-1384315D01*
X19485931Y-1433171D01*
X19535935Y-1540404D01*
X19595976Y-1600445D01*
X19629461Y-1661768D01*
X19624477Y-1731460D01*
X19595976Y-1775807D01*
X18993693Y-2378092D01*
X18798142Y-2573643D01*
X18777801Y-2593984D01*
X18720642Y-2651142D01*
X18714660Y-2665584D01*
X18670817Y-2719986D01*
X18662105Y-2725512D01*
X18646888Y-2734298D01*
X18646886Y-2734299D01*
X18553700Y-2827486D01*
X18487808Y-2941612D01*
X18457479Y-3054805D01*
X18453700Y-3068908D01*
X18453700Y-3200692D01*
X18465797Y-3245839D01*
X18487808Y-3327987D01*
X18507335Y-3361808D01*
X18553700Y-3442114D01*
X18646886Y-3535300D01*
X18761014Y-3601192D01*
X18888308Y-3635300D01*
X18888310Y-3635300D01*
X19020090Y-3635300D01*
X19020092Y-3635300D01*
X19147386Y-3601192D01*
X19261514Y-3535300D01*
X19354700Y-3442114D01*
X19420592Y-3327986D01*
X19454700Y-3200692D01*
X19454700Y-3068908D01*
X19420592Y-2941614D01*
X19417706Y-2936616D01*
X19390865Y-2890125D01*
X19374391Y-2822225D01*
X19397243Y-2756198D01*
X19410564Y-2740449D01*
X19411456Y-2739557D01*
X19472777Y-2706074D01*
X19542469Y-2711058D01*
X19598402Y-2752930D01*
X19606521Y-2765239D01*
X19639423Y-2822225D01*
X19647500Y-2836214D01*
X19740686Y-2929400D01*
X19829053Y-2980419D01*
X19854810Y-2995290D01*
X19854814Y-2995292D01*
X19982108Y-3029400D01*
X19982110Y-3029400D01*
X20113890Y-3029400D01*
X20113892Y-3029400D01*
X20241186Y-2995292D01*
X20296752Y-2963211D01*
X20364652Y-2946737D01*
X20430679Y-2969589D01*
X20473870Y-3024509D01*
X20480512Y-3094063D01*
X20478527Y-3102690D01*
X20462500Y-3162508D01*
X20462500Y-3294292D01*
X20474699Y-3339821D01*
X20496608Y-3421587D01*
X20519544Y-3461313D01*
X20562500Y-3535714D01*
X20655686Y-3628900D01*
X20769814Y-3694792D01*
X20897108Y-3728900D01*
X20897110Y-3728900D01*
X21028890Y-3728900D01*
X21028892Y-3728900D01*
X21156186Y-3694792D01*
X21270314Y-3628900D01*
X21363500Y-3535714D01*
X21368112Y-3527724D01*
X21418677Y-3479509D01*
X21487283Y-3466284D01*
X21552149Y-3492250D01*
X21592679Y-3549163D01*
X21599500Y-3589723D01*
X21599500Y-5438164D01*
X21599500Y-5438246D01*
X21599501Y-5604264D01*
X21601659Y-5627294D01*
X21601660Y-5627296D01*
X21602354Y-5634699D01*
X21647206Y-5762881D01*
X21647207Y-5762882D01*
X21727850Y-5872150D01*
X21837118Y-5952793D01*
X21965302Y-5997646D01*
X21965301Y-5997646D01*
X21969271Y-5998018D01*
X21995735Y-6000500D01*
X23104264Y-6000499D01*
X23134698Y-5997646D01*
X23262882Y-5952793D01*
X23372150Y-5872150D01*
X23407172Y-5824696D01*
X23462817Y-5782446D01*
X23532473Y-5776987D01*
X23594023Y-5810053D01*
X23627925Y-5871147D01*
X23626716Y-5930422D01*
X23614100Y-5977506D01*
X23614100Y-6102920D01*
X23594415Y-6169959D01*
X23577782Y-6190601D01*
X23491093Y-6277291D01*
X23389793Y-6378592D01*
X23346704Y-6421681D01*
X23285381Y-6455166D01*
X23259022Y-6458000D01*
X20750899Y-6458000D01*
X20731502Y-6466035D01*
X20682615Y-6486285D01*
X20682614Y-6486285D01*
X20649646Y-6499940D01*
X20649638Y-6499945D01*
X19022483Y-8127100D01*
X18961160Y-8160585D01*
X18891468Y-8155601D01*
X18835535Y-8113729D01*
X18835032Y-8113053D01*
X18832961Y-8110247D01*
X18772150Y-8027850D01*
X18662882Y-7947207D01*
X18662880Y-7947206D01*
X18534700Y-7902353D01*
X18504270Y-7899500D01*
X18504266Y-7899500D01*
X17895734Y-7899500D01*
X17895730Y-7899500D01*
X17865300Y-7902353D01*
X17865298Y-7902353D01*
X17737119Y-7947206D01*
X17737117Y-7947207D01*
X17627850Y-8027850D01*
X17547207Y-8137117D01*
X17547206Y-8137119D01*
X17502353Y-8265298D01*
X17502353Y-8265300D01*
X17499500Y-8295730D01*
X17499500Y-11404269D01*
X17502353Y-11434699D01*
X17502353Y-11434701D01*
X17542103Y-11548296D01*
X17547207Y-11562882D01*
X17627850Y-11672150D01*
X17737118Y-11752793D01*
X17779845Y-11767744D01*
X17865299Y-11797646D01*
X17895730Y-11800500D01*
X17895734Y-11800500D01*
X18504270Y-11800500D01*
X18534699Y-11797646D01*
X18534701Y-11797646D01*
X18598790Y-11775219D01*
X18662882Y-11752793D01*
X18772150Y-11672150D01*
X18852793Y-11562882D01*
X18889618Y-11457643D01*
X18897646Y-11434701D01*
X18897646Y-11434699D01*
X18900500Y-11404269D01*
X18900500Y-9079677D01*
X18920185Y-9012638D01*
X18936819Y-8991996D01*
X19287819Y-8640996D01*
X19349142Y-8607511D01*
X19418834Y-8612495D01*
X19474767Y-8654367D01*
X19499184Y-8719831D01*
X19499500Y-8728677D01*
X19499500Y-11404269D01*
X19502353Y-11434699D01*
X19502353Y-11434701D01*
X19542103Y-11548296D01*
X19547207Y-11562882D01*
X19627850Y-11672150D01*
X19663586Y-11698524D01*
X19669854Y-11703150D01*
X19712104Y-11758798D01*
X19717563Y-11828454D01*
X19684495Y-11890003D01*
X19623401Y-11923904D01*
X19611048Y-11926030D01*
X19526786Y-11936178D01*
X19500000Y-11939405D01*
X19000000Y-11999625D01*
X18499999Y-12059844D01*
X18500000Y-12059845D01*
X18000000Y-12120066D01*
X17999999Y-12120066D01*
X17500000Y-12180286D01*
X17000000Y-12240506D01*
X16499999Y-12300725D01*
X16500000Y-12300726D01*
X16000000Y-12360947D01*
X15999999Y-12360947D01*
X15500000Y-12421167D01*
X15136885Y-12464900D01*
X15067973Y-12453373D01*
X15016232Y-12406419D01*
X14998070Y-12343525D01*
X14994942Y-12120066D01*
X14912365Y-6220608D01*
X18212600Y-6220608D01*
X18212600Y-6352392D01*
X18217210Y-6369596D01*
X18246708Y-6479687D01*
X18270783Y-6521385D01*
X18312600Y-6593814D01*
X18405786Y-6687000D01*
X18519914Y-6752892D01*
X18647208Y-6787000D01*
X18647210Y-6787000D01*
X18778990Y-6787000D01*
X18778992Y-6787000D01*
X18906286Y-6752892D01*
X19020414Y-6687000D01*
X19113600Y-6593814D01*
X19179492Y-6479686D01*
X19213600Y-6352392D01*
X19213600Y-6220608D01*
X19179492Y-6093314D01*
X19113600Y-5979186D01*
X19020414Y-5886000D01*
X18954274Y-5847814D01*
X18906287Y-5820108D01*
X18832697Y-5800390D01*
X18778992Y-5786000D01*
X18647208Y-5786000D01*
X18519912Y-5820108D01*
X18405786Y-5886000D01*
X18405783Y-5886002D01*
X18312602Y-5979183D01*
X18312600Y-5979186D01*
X18246708Y-6093312D01*
X18215067Y-6211400D01*
X18212600Y-6220608D01*
X14912365Y-6220608D01*
X14909730Y-6032327D01*
X14928474Y-5965021D01*
X14980633Y-5918532D01*
X15049645Y-5907621D01*
X15107349Y-5930823D01*
X15137118Y-5952793D01*
X15265302Y-5997646D01*
X15265301Y-5997646D01*
X15269271Y-5998018D01*
X15295735Y-6000500D01*
X16404264Y-6000499D01*
X16434698Y-5997646D01*
X16562882Y-5952793D01*
X16672150Y-5872150D01*
X16752793Y-5762882D01*
X16797646Y-5634698D01*
X16800500Y-5604265D01*
X16800500Y-5474608D01*
X20355700Y-5474608D01*
X20355700Y-5606392D01*
X20363285Y-5634699D01*
X20389808Y-5733687D01*
X20406664Y-5762881D01*
X20455700Y-5847814D01*
X20548886Y-5941000D01*
X20647594Y-5997989D01*
X20658155Y-6004087D01*
X20663014Y-6006892D01*
X20790308Y-6041000D01*
X20790310Y-6041000D01*
X20922090Y-6041000D01*
X20922092Y-6041000D01*
X21049386Y-6006892D01*
X21163514Y-5941000D01*
X21256700Y-5847814D01*
X21322592Y-5733686D01*
X21356700Y-5606392D01*
X21356700Y-5474608D01*
X21322592Y-5347314D01*
X21256700Y-5233186D01*
X21163514Y-5140000D01*
X21082666Y-5093322D01*
X21049387Y-5074108D01*
X20942827Y-5045556D01*
X20922092Y-5040000D01*
X20790308Y-5040000D01*
X20663012Y-5074108D01*
X20548886Y-5140000D01*
X20548883Y-5140002D01*
X20455702Y-5233183D01*
X20455700Y-5233186D01*
X20389808Y-5347312D01*
X20370738Y-5418485D01*
X20355700Y-5474608D01*
X16800500Y-5474608D01*
X16800499Y-2595736D01*
X16797646Y-2565302D01*
X16752793Y-2437118D01*
X16672150Y-2327850D01*
X16562882Y-2247207D01*
X16562881Y-2247206D01*
X16434695Y-2202353D01*
X16434698Y-2202353D01*
X16404268Y-2199500D01*
X15295741Y-2199500D01*
X15265301Y-2202354D01*
X15265300Y-2202354D01*
X15137119Y-2247206D01*
X15053857Y-2308656D01*
X14988228Y-2332626D01*
X14920058Y-2317310D01*
X14870990Y-2267570D01*
X14856237Y-2210624D01*
X14844734Y-1388844D01*
X14863479Y-1321539D01*
X14915637Y-1275050D01*
X14984650Y-1264139D01*
X15048605Y-1292272D01*
X15081103Y-1334706D01*
X15096776Y-1368316D01*
X15181684Y-1453224D01*
X15290513Y-1503972D01*
X15340099Y-1510500D01*
X15699900Y-1510499D01*
X15749487Y-1503972D01*
X15858316Y-1453224D01*
X15943224Y-1368316D01*
X15993972Y-1259487D01*
X16000500Y-1209901D01*
X16000499Y-960476D01*
X16020183Y-893438D01*
X16036809Y-872806D01*
X16184998Y-724616D01*
X16246321Y-691134D01*
X16272678Y-688300D01*
X16987323Y-688300D01*
X17054362Y-707985D01*
X17075004Y-724619D01*
X17233181Y-882796D01*
X17266666Y-944119D01*
X17269500Y-970477D01*
X17269500Y-1224316D01*
X17275931Y-1273171D01*
X17275932Y-1273173D01*
X17325935Y-1380404D01*
X17409596Y-1464065D01*
X17516827Y-1514068D01*
X17565683Y-1520500D01*
X17565684Y-1520500D01*
X17914317Y-1520500D01*
X17930601Y-1518356D01*
X17963173Y-1514068D01*
X18070404Y-1464065D01*
X18154065Y-1380404D01*
X18204068Y-1273173D01*
X18210500Y-1224316D01*
X18210500Y-775684D01*
X18204068Y-726827D01*
X18154065Y-619596D01*
X18070404Y-535935D01*
X17963173Y-485932D01*
X17963171Y-485931D01*
X17963172Y-485931D01*
X17914317Y-479500D01*
X17914316Y-479500D01*
X17660477Y-479500D01*
X17593438Y-459815D01*
X17572801Y-443185D01*
X17464617Y-335001D01*
X17431134Y-273680D01*
X17428300Y-247322D01*
X17428300Y987422D01*
X17447985Y1054461D01*
X17464619Y1075103D01*
X17676797Y1287281D01*
X17738120Y1320766D01*
X17764478Y1323600D01*
X18895500Y1323600D01*
X18962539Y1303915D01*
G37*
G04 #@! TD.AperFunction*
G04 #@! TA.AperFunction,Conductor*
G36*
X33267539Y-5418485D02*
G01*
X33313294Y-5471289D01*
X33324500Y-5522800D01*
X33324500Y-5533493D01*
X33340279Y-5633121D01*
X33340280Y-5633124D01*
X33340281Y-5633126D01*
X33397288Y-5745008D01*
X33401473Y-5753221D01*
X33401476Y-5753225D01*
X33496774Y-5848523D01*
X33496778Y-5848526D01*
X33496780Y-5848528D01*
X33616874Y-5909719D01*
X33616876Y-5909719D01*
X33616878Y-5909720D01*
X33716507Y-5925500D01*
X33716512Y-5925500D01*
X33875522Y-5925500D01*
X33942561Y-5945185D01*
X33988316Y-5997989D01*
X33998260Y-6067147D01*
X33969235Y-6130703D01*
X33963203Y-6137181D01*
X33907203Y-6193181D01*
X33845880Y-6226666D01*
X33819522Y-6229500D01*
X33565683Y-6229500D01*
X33516828Y-6235931D01*
X33409595Y-6285935D01*
X33325935Y-6369595D01*
X33275931Y-6476828D01*
X33269500Y-6525683D01*
X33269500Y-6974316D01*
X33275931Y-7023171D01*
X33320684Y-7119143D01*
X33325935Y-7130404D01*
X33409596Y-7214065D01*
X33409598Y-7214066D01*
X33411623Y-7215484D01*
X33414044Y-7218513D01*
X33417267Y-7221736D01*
X33416907Y-7222095D01*
X33455248Y-7270061D01*
X33464500Y-7317059D01*
X33464500Y-7432940D01*
X33444815Y-7499979D01*
X33411629Y-7534511D01*
X33409597Y-7535933D01*
X33325935Y-7619595D01*
X33275931Y-7726828D01*
X33269500Y-7775683D01*
X33269500Y-8224316D01*
X33275931Y-8273171D01*
X33275932Y-8273173D01*
X33325935Y-8380404D01*
X33409596Y-8464065D01*
X33513718Y-8512618D01*
X33566157Y-8558790D01*
X33585309Y-8625984D01*
X33565093Y-8692865D01*
X33513718Y-8737381D01*
X33511526Y-8738404D01*
X33409595Y-8785935D01*
X33325935Y-8869595D01*
X33275931Y-8976828D01*
X33269500Y-9025683D01*
X33269500Y-9474316D01*
X33275931Y-9523171D01*
X33275932Y-9523173D01*
X33325935Y-9630404D01*
X33409596Y-9714065D01*
X33516827Y-9764068D01*
X33565683Y-9770500D01*
X33565684Y-9770500D01*
X33914317Y-9770500D01*
X33930601Y-9768356D01*
X33963173Y-9764068D01*
X34070404Y-9714065D01*
X34154065Y-9630404D01*
X34204068Y-9523173D01*
X34210500Y-9474316D01*
X34210500Y-9220477D01*
X34230185Y-9153438D01*
X34246814Y-9132800D01*
X34414998Y-8964616D01*
X34476320Y-8931134D01*
X34502678Y-8928300D01*
X38022099Y-8928300D01*
X38022100Y-8928300D01*
X38123358Y-8886357D01*
X38200857Y-8808858D01*
X38200856Y-8808858D01*
X38259425Y-8750289D01*
X38305611Y-8704102D01*
X38366932Y-8670619D01*
X38436624Y-8675603D01*
X38492557Y-8717475D01*
X38516974Y-8782939D01*
X38513067Y-8823870D01*
X38512200Y-8827103D01*
X38512200Y-8827108D01*
X38512200Y-8958892D01*
X38519142Y-8984800D01*
X38546308Y-9086187D01*
X38573218Y-9132795D01*
X38612200Y-9200314D01*
X38705386Y-9293500D01*
X38819514Y-9359392D01*
X38851329Y-9367916D01*
X38910989Y-9404280D01*
X38941519Y-9467127D01*
X38933225Y-9536502D01*
X38888740Y-9590381D01*
X38834064Y-9610801D01*
X38500000Y-9651036D01*
X38000000Y-9711257D01*
X37999999Y-9711257D01*
X37500000Y-9771477D01*
X36500000Y-9891917D01*
X35999999Y-9952136D01*
X36000000Y-9952137D01*
X35500000Y-10012358D01*
X35499999Y-10012358D01*
X35000000Y-10072578D01*
X34500000Y-10132798D01*
X33999999Y-10193017D01*
X34000000Y-10193018D01*
X33500000Y-10253239D01*
X33499999Y-10253239D01*
X33039327Y-10308722D01*
X32970415Y-10297195D01*
X32918674Y-10250241D01*
X32900500Y-10185612D01*
X32900500Y-9180249D01*
X32900499Y-9180247D01*
X32888868Y-9121770D01*
X32888867Y-9121769D01*
X32844552Y-9055447D01*
X32778230Y-9011132D01*
X32778229Y-9011131D01*
X32719752Y-8999500D01*
X32719748Y-8999500D01*
X30980252Y-8999500D01*
X30980247Y-8999500D01*
X30921770Y-9011131D01*
X30921769Y-9011132D01*
X30875991Y-9041721D01*
X30809314Y-9062599D01*
X30741934Y-9044115D01*
X30695243Y-8992136D01*
X30683100Y-8938619D01*
X30683100Y-8742776D01*
X30702785Y-8675737D01*
X30719419Y-8655095D01*
X30762019Y-8612495D01*
X30808100Y-8566414D01*
X30873992Y-8452286D01*
X30908100Y-8324992D01*
X30908100Y-8193208D01*
X30873992Y-8065914D01*
X30808100Y-7951786D01*
X30714914Y-7858600D01*
X30657850Y-7825654D01*
X30600787Y-7792708D01*
X30537139Y-7775654D01*
X30473492Y-7758600D01*
X30341708Y-7758600D01*
X30214412Y-7792708D01*
X30100286Y-7858600D01*
X30100283Y-7858602D01*
X30007102Y-7951783D01*
X30007100Y-7951786D01*
X29941208Y-8065912D01*
X29907100Y-8193208D01*
X29907100Y-8324991D01*
X29941208Y-8452287D01*
X29974154Y-8509350D01*
X30007100Y-8566414D01*
X30007102Y-8566416D01*
X30095781Y-8655095D01*
X30129266Y-8716418D01*
X30132100Y-8742776D01*
X30132100Y-8984800D01*
X30112415Y-9051839D01*
X30059611Y-9097594D01*
X30008100Y-9108800D01*
X26937598Y-9108800D01*
X26865999Y-9138458D01*
X26836339Y-9150743D01*
X26798771Y-9188311D01*
X26737448Y-9221795D01*
X26667756Y-9216810D01*
X26611823Y-9174938D01*
X26589473Y-9124815D01*
X26588867Y-9121769D01*
X26544552Y-9055447D01*
X26478230Y-9011132D01*
X26478229Y-9011131D01*
X26419752Y-8999500D01*
X26419748Y-8999500D01*
X24680252Y-8999500D01*
X24680247Y-8999500D01*
X24621770Y-9011131D01*
X24621769Y-9011132D01*
X24555447Y-9055447D01*
X24511132Y-9121769D01*
X24511131Y-9121770D01*
X24499500Y-9180247D01*
X24499500Y-10219752D01*
X24511131Y-10278229D01*
X24511132Y-10278230D01*
X24555447Y-10344552D01*
X24621769Y-10388867D01*
X24621770Y-10388868D01*
X24680247Y-10400499D01*
X24680250Y-10400500D01*
X24680252Y-10400500D01*
X26419750Y-10400500D01*
X26419751Y-10400499D01*
X26434568Y-10397552D01*
X26478229Y-10388868D01*
X26478229Y-10388867D01*
X26478231Y-10388867D01*
X26544552Y-10344552D01*
X26588867Y-10278231D01*
X26588867Y-10278229D01*
X26588868Y-10278229D01*
X26599763Y-10223451D01*
X26600500Y-10219748D01*
X26600500Y-10099500D01*
X26620185Y-10032461D01*
X26672989Y-9986706D01*
X26724500Y-9975500D01*
X26731499Y-9975500D01*
X26731500Y-9975500D01*
X26832758Y-9933557D01*
X26910257Y-9856058D01*
X26910256Y-9856058D01*
X27052251Y-9714064D01*
X27070199Y-9696117D01*
X27131523Y-9662633D01*
X27157879Y-9659800D01*
X30242123Y-9659800D01*
X30309162Y-9679485D01*
X30329802Y-9696117D01*
X30567241Y-9933557D01*
X30587207Y-9941827D01*
X30668500Y-9975500D01*
X30675500Y-9975500D01*
X30742539Y-9995185D01*
X30788294Y-10047989D01*
X30799500Y-10099500D01*
X30799500Y-10219752D01*
X30811131Y-10278229D01*
X30811132Y-10278230D01*
X30855448Y-10344553D01*
X30864953Y-10350904D01*
X30909759Y-10404516D01*
X30918466Y-10473841D01*
X30888312Y-10536868D01*
X30828869Y-10573588D01*
X30810891Y-10577116D01*
X30591684Y-10603517D01*
X30500000Y-10614560D01*
X30000000Y-10674780D01*
X29499999Y-10734999D01*
X29500000Y-10735000D01*
X29000000Y-10795221D01*
X28999999Y-10795221D01*
X28500000Y-10855441D01*
X28000000Y-10915661D01*
X27499999Y-10975880D01*
X27500000Y-10975881D01*
X27000000Y-11036102D01*
X26999999Y-11036102D01*
X26500000Y-11096322D01*
X25500000Y-11216762D01*
X24999999Y-11276981D01*
X25000000Y-11276982D01*
X24500000Y-11337203D01*
X24499999Y-11337203D01*
X24000000Y-11397423D01*
X23500000Y-11457643D01*
X22999999Y-11517862D01*
X23000000Y-11517863D01*
X22500000Y-11578084D01*
X22499999Y-11578084D01*
X22010736Y-11637011D01*
X22000000Y-11638304D01*
X21500000Y-11698524D01*
X21000000Y-11758744D01*
X20964920Y-11762969D01*
X20896008Y-11751440D01*
X20844268Y-11704485D01*
X20826128Y-11637011D01*
X20847346Y-11570441D01*
X20850292Y-11566269D01*
X20852793Y-11562882D01*
X20889618Y-11457643D01*
X20897646Y-11434701D01*
X20897646Y-11434699D01*
X20900500Y-11404269D01*
X20900500Y-9590477D01*
X20920185Y-9523438D01*
X20936819Y-9502796D01*
X23042597Y-7397019D01*
X23103920Y-7363534D01*
X23130278Y-7360700D01*
X26667199Y-7360700D01*
X26667200Y-7360700D01*
X26768458Y-7318757D01*
X26845957Y-7241258D01*
X26845956Y-7241258D01*
X26904525Y-7182689D01*
X26904524Y-7182689D01*
X28482594Y-5604620D01*
X28543915Y-5571137D01*
X28613607Y-5576121D01*
X28669540Y-5617993D01*
X28693957Y-5683457D01*
X28681833Y-5739187D01*
X28684520Y-5740300D01*
X28681409Y-5747811D01*
X28681408Y-5747813D01*
X28681408Y-5747814D01*
X28654614Y-5847813D01*
X28647300Y-5875108D01*
X28647300Y-6006891D01*
X28681408Y-6134187D01*
X28713979Y-6190601D01*
X28747300Y-6248314D01*
X28840486Y-6341500D01*
X28954614Y-6407392D01*
X29081908Y-6441500D01*
X29081910Y-6441500D01*
X29213690Y-6441500D01*
X29213692Y-6441500D01*
X29340986Y-6407392D01*
X29455114Y-6341500D01*
X29548300Y-6248314D01*
X29548302Y-6248309D01*
X29553756Y-6242856D01*
X29615079Y-6209371D01*
X29684771Y-6214355D01*
X29703431Y-6223146D01*
X29797214Y-6277292D01*
X29924508Y-6311400D01*
X29924510Y-6311400D01*
X30056290Y-6311400D01*
X30056292Y-6311400D01*
X30183586Y-6277292D01*
X30297714Y-6211400D01*
X30390900Y-6118214D01*
X30456792Y-6004086D01*
X30490900Y-5876792D01*
X30490900Y-5751377D01*
X30510585Y-5684338D01*
X30527219Y-5663696D01*
X30640116Y-5550800D01*
X30755797Y-5435119D01*
X30817120Y-5401634D01*
X30843478Y-5398800D01*
X33200500Y-5398800D01*
X33267539Y-5418485D01*
G37*
G04 #@! TD.AperFunction*
G04 #@! TA.AperFunction,Conductor*
G36*
X33144859Y10296012D02*
G01*
X33150000Y10295393D01*
X33649999Y10235173D01*
X33650000Y10235173D01*
X34150000Y10174952D01*
X34149999Y10174951D01*
X34650000Y10114732D01*
X35150000Y10054512D01*
X35649999Y9994292D01*
X35650000Y9994292D01*
X36150000Y9934071D01*
X36149999Y9934070D01*
X36650000Y9873851D01*
X37150000Y9813631D01*
X37649999Y9753411D01*
X37650000Y9753411D01*
X38150000Y9693190D01*
X38149999Y9693189D01*
X38650000Y9632970D01*
X39650000Y9512530D01*
X40149999Y9452310D01*
X40150000Y9452310D01*
X40650000Y9392089D01*
X40649999Y9392088D01*
X41150000Y9331869D01*
X41216808Y9323822D01*
X41636734Y9273246D01*
X41662615Y9267263D01*
X41999995Y9150000D01*
X42000000Y9149999D01*
X42792068Y9115417D01*
X42802844Y9114474D01*
X43583507Y9011697D01*
X43594160Y9009819D01*
X44362907Y8839393D01*
X44373357Y8836593D01*
X45124323Y8599814D01*
X45134488Y8596114D01*
X45861958Y8294786D01*
X45871762Y8290214D01*
X46570192Y7926634D01*
X46579560Y7921226D01*
X47243661Y7498147D01*
X47252522Y7491942D01*
X47877213Y7012599D01*
X47885500Y7005645D01*
X48466035Y6473684D01*
X48473684Y6466035D01*
X49005645Y5885500D01*
X49012599Y5877213D01*
X49491942Y5252522D01*
X49498147Y5243661D01*
X49921226Y4579559D01*
X49926634Y4570191D01*
X50290214Y3871762D01*
X50294786Y3861958D01*
X50596114Y3134488D01*
X50599814Y3124323D01*
X50836593Y2373357D01*
X50839393Y2362907D01*
X51009819Y1594160D01*
X51011697Y1583507D01*
X51114474Y802844D01*
X51115417Y792068D01*
X51149763Y5409D01*
X51149763Y-5409D01*
X51115417Y-792068D01*
X51114474Y-802844D01*
X51011697Y-1583507D01*
X51009819Y-1594160D01*
X50839393Y-2362907D01*
X50836593Y-2373357D01*
X50599814Y-3124323D01*
X50596114Y-3134488D01*
X50294786Y-3861958D01*
X50290214Y-3871762D01*
X49926634Y-4570191D01*
X49921226Y-4579559D01*
X49498147Y-5243661D01*
X49491942Y-5252522D01*
X49012599Y-5877213D01*
X49005645Y-5885500D01*
X48473684Y-6466035D01*
X48466035Y-6473684D01*
X47885500Y-7005645D01*
X47877213Y-7012599D01*
X47252522Y-7491942D01*
X47243661Y-7498147D01*
X46579560Y-7921226D01*
X46570192Y-7926634D01*
X45871762Y-8290214D01*
X45861958Y-8294786D01*
X45134488Y-8596114D01*
X45124323Y-8599814D01*
X44373357Y-8836593D01*
X44362907Y-8839393D01*
X43594160Y-9009819D01*
X43583507Y-9011697D01*
X42802844Y-9114474D01*
X42792068Y-9115417D01*
X42284168Y-9137592D01*
X42000000Y-9150000D01*
X41999999Y-9150000D01*
X41509129Y-9287163D01*
X41490586Y-9290848D01*
X41062685Y-9342385D01*
X41000000Y-9349935D01*
X40499999Y-9410154D01*
X40500000Y-9410155D01*
X40000000Y-9470376D01*
X39999999Y-9470376D01*
X39500000Y-9530596D01*
X39355206Y-9548034D01*
X39286293Y-9536507D01*
X39234553Y-9489553D01*
X39216412Y-9422079D01*
X39237629Y-9355509D01*
X39278378Y-9317538D01*
X39320014Y-9293500D01*
X39413200Y-9200314D01*
X39479092Y-9086186D01*
X39513200Y-8958892D01*
X39513200Y-8833476D01*
X39532885Y-8766437D01*
X39549519Y-8745795D01*
X39747111Y-8548203D01*
X40517058Y-7778258D01*
X40517058Y-7778256D01*
X40517060Y-7778255D01*
X40538361Y-7726827D01*
X40559000Y-7677000D01*
X40559000Y-7567400D01*
X40559000Y-6015400D01*
X40533068Y-5952793D01*
X40517060Y-5914144D01*
X40106019Y-5503103D01*
X40072534Y-5441780D01*
X40069700Y-5415422D01*
X40069700Y-5074500D01*
X40089385Y-5007461D01*
X40142189Y-4961706D01*
X40193700Y-4950500D01*
X41433261Y-4950500D01*
X41455971Y-4947191D01*
X41501393Y-4940573D01*
X41606483Y-4889198D01*
X41689198Y-4806483D01*
X41740573Y-4701393D01*
X41750500Y-4633260D01*
X41750500Y-4266740D01*
X41746057Y-4236249D01*
X41740573Y-4198608D01*
X41740573Y-4198607D01*
X41689198Y-4093517D01*
X41689196Y-4093515D01*
X41689196Y-4093514D01*
X41606485Y-4010803D01*
X41501391Y-3959426D01*
X41433261Y-3949500D01*
X41433260Y-3949500D01*
X41286376Y-3949500D01*
X41219337Y-3929815D01*
X41173582Y-3877011D01*
X41163638Y-3807853D01*
X41192663Y-3744297D01*
X41198695Y-3737819D01*
X41201500Y-3735014D01*
X41267392Y-3620886D01*
X41301500Y-3493592D01*
X41301500Y-3361808D01*
X41267392Y-3234514D01*
X41266839Y-3233557D01*
X41247864Y-3200691D01*
X41201500Y-3120386D01*
X41108314Y-3027200D01*
X41036088Y-2985500D01*
X40994187Y-2961308D01*
X40900850Y-2936299D01*
X40866892Y-2927200D01*
X40735108Y-2927200D01*
X40607812Y-2961308D01*
X40493686Y-3027200D01*
X40493683Y-3027202D01*
X40400502Y-3120383D01*
X40400500Y-3120386D01*
X40334608Y-3234512D01*
X40323626Y-3275498D01*
X40313954Y-3311599D01*
X40313475Y-3313385D01*
X40277110Y-3373046D01*
X40214263Y-3403575D01*
X40144887Y-3395280D01*
X40091010Y-3350795D01*
X40069735Y-3284243D01*
X40069700Y-3281292D01*
X40069700Y-2391877D01*
X40089385Y-2324838D01*
X40106019Y-2304196D01*
X40111057Y-2299158D01*
X40113898Y-2292300D01*
X40153000Y-2197900D01*
X40153000Y-1714277D01*
X40172685Y-1647238D01*
X40225489Y-1601483D01*
X40294647Y-1591539D01*
X40358203Y-1620564D01*
X40364674Y-1626589D01*
X40592641Y-1854557D01*
X40622295Y-1866839D01*
X40622297Y-1866841D01*
X40622298Y-1866841D01*
X40643270Y-1875527D01*
X40693900Y-1896500D01*
X42548523Y-1896500D01*
X42615562Y-1916185D01*
X42636204Y-1932819D01*
X42723481Y-2020096D01*
X42756966Y-2081419D01*
X42759800Y-2107777D01*
X42759800Y-2233192D01*
X42770551Y-2273314D01*
X42793908Y-2360487D01*
X42823148Y-2411131D01*
X42859800Y-2474614D01*
X42952986Y-2567800D01*
X43015513Y-2603900D01*
X43024021Y-2608812D01*
X43072237Y-2659379D01*
X43085460Y-2727986D01*
X43059492Y-2792851D01*
X43049703Y-2803880D01*
X42890404Y-2963181D01*
X42829081Y-2996666D01*
X42802722Y-2999500D01*
X42066739Y-2999500D01*
X41998608Y-3009426D01*
X41893514Y-3060803D01*
X41810803Y-3143514D01*
X41759426Y-3248608D01*
X41749500Y-3316739D01*
X41749500Y-3683260D01*
X41759426Y-3751391D01*
X41810803Y-3856485D01*
X41893514Y-3939196D01*
X41893515Y-3939196D01*
X41893517Y-3939198D01*
X41998607Y-3990573D01*
X42032673Y-3995536D01*
X42066739Y-4000500D01*
X42066740Y-4000500D01*
X43308261Y-4000500D01*
X43330971Y-3997191D01*
X43376393Y-3990573D01*
X43481483Y-3939198D01*
X43564198Y-3856483D01*
X43615573Y-3751393D01*
X43625500Y-3683260D01*
X43625500Y-3316740D01*
X43624751Y-3311602D01*
X43615573Y-3248607D01*
X43608216Y-3233558D01*
X43578487Y-3172747D01*
X43566728Y-3103876D01*
X43594071Y-3039579D01*
X43602196Y-3030618D01*
X44243558Y-2389258D01*
X44243558Y-2389256D01*
X44243560Y-2389255D01*
X44269967Y-2325500D01*
X44285500Y-2288000D01*
X44285500Y-2178400D01*
X44285500Y-385876D01*
X44305185Y-318837D01*
X44357989Y-273082D01*
X44427147Y-263138D01*
X44490703Y-292163D01*
X44497181Y-298195D01*
X44571986Y-373000D01*
X44686114Y-438892D01*
X44813408Y-473000D01*
X44813410Y-473000D01*
X44945190Y-473000D01*
X44945192Y-473000D01*
X45072486Y-438892D01*
X45186614Y-373000D01*
X45279800Y-279814D01*
X45345692Y-165686D01*
X45379800Y-38392D01*
X45379800Y93392D01*
X45345692Y220686D01*
X45279800Y334814D01*
X45191119Y423495D01*
X45157634Y484818D01*
X45154800Y511176D01*
X45154800Y1598823D01*
X45174485Y1665862D01*
X45191119Y1686504D01*
X45862819Y2358204D01*
X45924142Y2391689D01*
X45993834Y2386705D01*
X46049767Y2344833D01*
X46074184Y2279369D01*
X46074500Y2270523D01*
X46074500Y815091D01*
X46054815Y748052D01*
X46002011Y702297D01*
X45991455Y698050D01*
X45964849Y688740D01*
X45862118Y652793D01*
X45752850Y572150D01*
X45687495Y483596D01*
X45672207Y462882D01*
X45672206Y462880D01*
X45627353Y334701D01*
X45627353Y334699D01*
X45624500Y304269D01*
X45624500Y-304269D01*
X45627353Y-334699D01*
X45627353Y-334701D01*
X45671651Y-461294D01*
X45672207Y-462882D01*
X45752850Y-572150D01*
X45862118Y-652793D01*
X45904983Y-667792D01*
X45991455Y-698050D01*
X46048231Y-738771D01*
X46073978Y-803724D01*
X46074500Y-815090D01*
X46074500Y-1937400D01*
X46110882Y-2025233D01*
X46112194Y-2028399D01*
X46112193Y-2028399D01*
X46112436Y-2028985D01*
X46116443Y-2038658D01*
X47325143Y-3247358D01*
X47402642Y-3324857D01*
X47503900Y-3366800D01*
X47941024Y-3366800D01*
X48008063Y-3386485D01*
X48028705Y-3403119D01*
X48117386Y-3491800D01*
X48231514Y-3557692D01*
X48358808Y-3591800D01*
X48358810Y-3591800D01*
X48490590Y-3591800D01*
X48490592Y-3591800D01*
X48617886Y-3557692D01*
X48732014Y-3491800D01*
X48825200Y-3398614D01*
X48891092Y-3284486D01*
X48925200Y-3157192D01*
X48925200Y-3025408D01*
X48891092Y-2898114D01*
X48825200Y-2783986D01*
X48732014Y-2690800D01*
X48663325Y-2651142D01*
X48617887Y-2624908D01*
X48539482Y-2603900D01*
X48490592Y-2590800D01*
X48358808Y-2590800D01*
X48231512Y-2624908D01*
X48117386Y-2690800D01*
X48117383Y-2690802D01*
X48028705Y-2779481D01*
X47967382Y-2812966D01*
X47941024Y-2815800D01*
X47724177Y-2815800D01*
X47657138Y-2796115D01*
X47636496Y-2779481D01*
X46661819Y-1804804D01*
X46628334Y-1743481D01*
X46625500Y-1717123D01*
X46625500Y-815091D01*
X46645185Y-748052D01*
X46697989Y-702297D01*
X46708546Y-698049D01*
X46709697Y-697646D01*
X46709699Y-697646D01*
X46720047Y-694024D01*
X46789824Y-690464D01*
X46850452Y-725193D01*
X46882679Y-787186D01*
X46885000Y-811067D01*
X46885000Y-950000D01*
X48975000Y-950000D01*
X48975000Y950000D01*
X46885000Y950000D01*
X46885000Y811067D01*
X46865315Y744028D01*
X46812511Y698273D01*
X46743353Y688329D01*
X46720050Y694023D01*
X46709699Y697646D01*
X46709697Y697646D01*
X46708546Y698049D01*
X46651770Y738771D01*
X46626022Y803724D01*
X46625500Y815091D01*
X46625500Y2099522D01*
X46645185Y2166561D01*
X46661819Y2187203D01*
X47517797Y3043181D01*
X47579120Y3076666D01*
X47605478Y3079500D01*
X47865522Y3079500D01*
X47865528Y3079500D01*
X47923506Y3087947D01*
X47933171Y3089355D01*
X48037513Y3140365D01*
X48119634Y3222486D01*
X48119634Y3222487D01*
X48119636Y3222489D01*
X48170645Y3326830D01*
X48180500Y3394472D01*
X48180500Y3805528D01*
X48170645Y3873170D01*
X48119636Y3977511D01*
X48037511Y4059636D01*
X47933170Y4110645D01*
X47865528Y4120500D01*
X47504472Y4120500D01*
X47436830Y4110645D01*
X47332489Y4059636D01*
X47332487Y4059634D01*
X47332486Y4059634D01*
X47287681Y4014829D01*
X47226358Y3981344D01*
X47156666Y3986328D01*
X47112319Y4014829D01*
X47067513Y4059634D01*
X47067511Y4059636D01*
X46963170Y4110645D01*
X46895528Y4120500D01*
X46534472Y4120500D01*
X46466830Y4110645D01*
X46362489Y4059636D01*
X46362487Y4059634D01*
X46362486Y4059634D01*
X46280365Y3977513D01*
X46230000Y3874489D01*
X46229355Y3873170D01*
X46219500Y3805528D01*
X46219500Y3805522D01*
X46219500Y3545477D01*
X46199815Y3478438D01*
X46183181Y3457796D01*
X44692181Y1966796D01*
X44630858Y1933311D01*
X44561166Y1938295D01*
X44505233Y1980167D01*
X44480816Y2045631D01*
X44480500Y2054477D01*
X44480500Y2224316D01*
X44474068Y2273173D01*
X44424065Y2380404D01*
X44340404Y2464065D01*
X44246296Y2507948D01*
X44193858Y2554119D01*
X44174706Y2621312D01*
X44194921Y2688193D01*
X44248086Y2733528D01*
X44274510Y2741946D01*
X44328229Y2752632D01*
X44328230Y2752632D01*
X44394552Y2796947D01*
X44438867Y2863269D01*
X44438868Y2863270D01*
X44450499Y2921747D01*
X44450500Y2921749D01*
X44450500Y4149995D01*
X44470185Y4217034D01*
X44522989Y4262789D01*
X44592147Y4272733D01*
X44621429Y4264699D01*
X44680247Y4253000D01*
X44680252Y4253000D01*
X45919752Y4253000D01*
X45978229Y4264631D01*
X45978230Y4264632D01*
X46044552Y4308947D01*
X46088867Y4375269D01*
X46088868Y4375270D01*
X46100499Y4433747D01*
X46100500Y4433749D01*
X46100500Y5173250D01*
X46100499Y5173252D01*
X46088868Y5231729D01*
X46088867Y5231730D01*
X46088867Y5231731D01*
X46044552Y5298052D01*
X45978231Y5342367D01*
X45978229Y5342367D01*
X45978229Y5342368D01*
X45934568Y5351052D01*
X45919751Y5353999D01*
X45919751Y5354000D01*
X45919748Y5354000D01*
X44680252Y5354000D01*
X44680249Y5354000D01*
X44680247Y5353999D01*
X44621770Y5342368D01*
X44621769Y5342367D01*
X44555447Y5298052D01*
X44511132Y5231730D01*
X44511131Y5231729D01*
X44499500Y5173252D01*
X44499500Y4769004D01*
X44479815Y4701965D01*
X44427011Y4656210D01*
X44357853Y4646266D01*
X44328567Y4654300D01*
X44328231Y4654366D01*
X44328231Y4654367D01*
X44269751Y4665999D01*
X44269751Y4666000D01*
X44269748Y4666000D01*
X43630252Y4666000D01*
X43630249Y4666000D01*
X43630247Y4665999D01*
X43571770Y4654368D01*
X43571769Y4654367D01*
X43495293Y4603267D01*
X43492811Y4606981D01*
X43452558Y4585001D01*
X43382866Y4589985D01*
X43326933Y4631857D01*
X43302516Y4697321D01*
X43302229Y4705352D01*
X43302200Y4705497D01*
X43302200Y4705500D01*
X43298472Y4714500D01*
X43260258Y4806758D01*
X43064158Y5002857D01*
X42962900Y5044800D01*
X40038600Y5044800D01*
X39937342Y5002857D01*
X39937340Y5002855D01*
X39636804Y4702319D01*
X39575481Y4668834D01*
X39549123Y4666000D01*
X39130249Y4666000D01*
X39130247Y4665999D01*
X39059790Y4651985D01*
X39059565Y4653112D01*
X39002489Y4646973D01*
X38940009Y4678245D01*
X38904353Y4738332D01*
X38900500Y4769004D01*
X38900500Y5173250D01*
X38900499Y5173252D01*
X38888868Y5231729D01*
X38888867Y5231730D01*
X38888867Y5231731D01*
X38844552Y5298052D01*
X38778231Y5342367D01*
X38778229Y5342367D01*
X38778229Y5342368D01*
X38734568Y5351052D01*
X38719751Y5353999D01*
X38719751Y5354000D01*
X38719748Y5354000D01*
X37480252Y5354000D01*
X37480249Y5354000D01*
X37480247Y5353999D01*
X37421770Y5342368D01*
X37421769Y5342367D01*
X37355447Y5298052D01*
X37311132Y5231730D01*
X37311131Y5231729D01*
X37299500Y5173252D01*
X37299500Y4433747D01*
X37311131Y4375270D01*
X37311132Y4375269D01*
X37355447Y4308947D01*
X37421769Y4264632D01*
X37421770Y4264631D01*
X37480247Y4253000D01*
X37480252Y4253000D01*
X38719752Y4253000D01*
X38790210Y4267015D01*
X38790434Y4265888D01*
X38847520Y4272024D01*
X38909998Y4240748D01*
X38945649Y4180658D01*
X38949500Y4149995D01*
X38949500Y4103000D01*
X38929815Y4035961D01*
X38877011Y3990206D01*
X38825500Y3979000D01*
X38537500Y3979000D01*
X38427900Y3979000D01*
X38404957Y3969497D01*
X38326644Y3937060D01*
X38326642Y3937058D01*
X37183077Y2793492D01*
X36209887Y1820302D01*
X36148564Y1786817D01*
X36078872Y1791801D01*
X36022939Y1833673D01*
X35999503Y1890101D01*
X35990573Y1951393D01*
X35939198Y2056483D01*
X35856483Y2139198D01*
X35751393Y2190573D01*
X35693583Y2198996D01*
X35683261Y2200500D01*
X35683260Y2200500D01*
X34832078Y2200500D01*
X34765039Y2220185D01*
X34719284Y2272989D01*
X34709340Y2342147D01*
X34738365Y2405703D01*
X34744397Y2412181D01*
X34767797Y2435581D01*
X34829120Y2469066D01*
X34855478Y2471900D01*
X34963000Y2471900D01*
X35064258Y2513843D01*
X35141757Y2591342D01*
X35436157Y2885741D01*
X35456390Y2934588D01*
X35478100Y2987000D01*
X35478100Y5889428D01*
X39549499Y5889428D01*
X39574497Y5763761D01*
X39574499Y5763755D01*
X39623533Y5645375D01*
X39623538Y5645366D01*
X39694723Y5538831D01*
X39694726Y5538827D01*
X39785327Y5448226D01*
X39785331Y5448223D01*
X39891866Y5377038D01*
X39891875Y5377033D01*
X40010255Y5327999D01*
X40010261Y5327997D01*
X40135929Y5303000D01*
X40135931Y5303000D01*
X40264071Y5303000D01*
X40389738Y5327997D01*
X40389744Y5327999D01*
X40508124Y5377033D01*
X40508133Y5377038D01*
X40614668Y5448223D01*
X40614672Y5448226D01*
X40705273Y5538827D01*
X40705276Y5538831D01*
X40776461Y5645366D01*
X40776466Y5645375D01*
X40800859Y5704266D01*
X40825501Y5763756D01*
X40849246Y5883126D01*
X40850500Y5889428D01*
X42549499Y5889428D01*
X42574497Y5763761D01*
X42574499Y5763755D01*
X42623533Y5645375D01*
X42623538Y5645366D01*
X42694723Y5538831D01*
X42694726Y5538827D01*
X42785327Y5448226D01*
X42785331Y5448223D01*
X42891866Y5377038D01*
X42891875Y5377033D01*
X43010255Y5327999D01*
X43010261Y5327997D01*
X43135929Y5303000D01*
X43135931Y5303000D01*
X43264071Y5303000D01*
X43389738Y5327997D01*
X43389744Y5327999D01*
X43508124Y5377033D01*
X43508133Y5377038D01*
X43614668Y5448223D01*
X43614672Y5448226D01*
X43705273Y5538827D01*
X43705276Y5538831D01*
X43776461Y5645366D01*
X43776466Y5645375D01*
X43800859Y5704266D01*
X43825501Y5763756D01*
X43849246Y5883126D01*
X43850500Y5889428D01*
X43850500Y6017571D01*
X43825502Y6143238D01*
X43825501Y6143244D01*
X43776465Y6261627D01*
X43705276Y6368169D01*
X43614669Y6458776D01*
X43508127Y6529965D01*
X43389744Y6579001D01*
X43348615Y6587182D01*
X43264071Y6604000D01*
X43264069Y6604000D01*
X43135931Y6604000D01*
X43135929Y6604000D01*
X43010261Y6579002D01*
X43010256Y6579001D01*
X42918692Y6541074D01*
X42891875Y6529966D01*
X42891866Y6529961D01*
X42785331Y6458776D01*
X42785327Y6458773D01*
X42694726Y6368172D01*
X42694723Y6368168D01*
X42623538Y6261633D01*
X42623533Y6261624D01*
X42574499Y6143244D01*
X42574497Y6143238D01*
X42549500Y6017571D01*
X42549500Y5889428D01*
X42549499Y5889428D01*
X40850500Y5889428D01*
X40850500Y6017571D01*
X40825502Y6143238D01*
X40825501Y6143244D01*
X40776465Y6261627D01*
X40705276Y6368169D01*
X40614669Y6458776D01*
X40508127Y6529965D01*
X40389744Y6579001D01*
X40348615Y6587182D01*
X40264071Y6604000D01*
X40264069Y6604000D01*
X40135931Y6604000D01*
X40135929Y6604000D01*
X40010261Y6579002D01*
X40010256Y6579001D01*
X39918692Y6541074D01*
X39891875Y6529966D01*
X39891866Y6529961D01*
X39785331Y6458776D01*
X39785327Y6458773D01*
X39694726Y6368172D01*
X39694723Y6368168D01*
X39623538Y6261633D01*
X39623533Y6261624D01*
X39574499Y6143244D01*
X39574497Y6143238D01*
X39549500Y6017571D01*
X39549500Y5889428D01*
X39549499Y5889428D01*
X35478100Y5889428D01*
X35478100Y6023700D01*
X35462626Y6061056D01*
X35445596Y6102171D01*
X35443294Y6107726D01*
X35436157Y6124958D01*
X35436157Y6124959D01*
X34786817Y6774296D01*
X34753333Y6835619D01*
X34750499Y6861977D01*
X34750499Y7209894D01*
X34750499Y7209900D01*
X34743972Y7259487D01*
X34693224Y7368316D01*
X34608316Y7453224D01*
X34565366Y7473252D01*
X37299500Y7473252D01*
X37299500Y6733747D01*
X37311131Y6675270D01*
X37311132Y6675269D01*
X37355447Y6608947D01*
X37421769Y6564632D01*
X37421770Y6564631D01*
X37480247Y6553000D01*
X37480252Y6553000D01*
X38719752Y6553000D01*
X38778229Y6564631D01*
X38778230Y6564632D01*
X38844552Y6608947D01*
X38888867Y6675269D01*
X38888868Y6675270D01*
X38900499Y6733747D01*
X38900500Y6733749D01*
X38900500Y7473250D01*
X38900499Y7473252D01*
X44499500Y7473252D01*
X44499500Y6733747D01*
X44511131Y6675270D01*
X44511132Y6675269D01*
X44555447Y6608947D01*
X44621769Y6564632D01*
X44621770Y6564631D01*
X44680247Y6553000D01*
X44680252Y6553000D01*
X45919752Y6553000D01*
X45978229Y6564631D01*
X45978230Y6564632D01*
X46044552Y6608947D01*
X46088867Y6675269D01*
X46088868Y6675270D01*
X46100499Y6733747D01*
X46100500Y6733749D01*
X46100500Y7473250D01*
X46100499Y7473252D01*
X46088868Y7531729D01*
X46088867Y7531730D01*
X46088867Y7531731D01*
X46044552Y7598052D01*
X45978231Y7642367D01*
X45978229Y7642367D01*
X45978229Y7642368D01*
X45934568Y7651052D01*
X45919751Y7653999D01*
X45919751Y7654000D01*
X45919748Y7654000D01*
X44680252Y7654000D01*
X44680249Y7654000D01*
X44680247Y7653999D01*
X44621770Y7642368D01*
X44621769Y7642367D01*
X44555447Y7598052D01*
X44511132Y7531730D01*
X44511131Y7531729D01*
X44499500Y7473252D01*
X38900499Y7473252D01*
X38888868Y7531729D01*
X38888867Y7531730D01*
X38888867Y7531731D01*
X38844552Y7598052D01*
X38778231Y7642367D01*
X38778229Y7642367D01*
X38778229Y7642368D01*
X38734568Y7651052D01*
X38719751Y7653999D01*
X38719751Y7654000D01*
X38719748Y7654000D01*
X37480252Y7654000D01*
X37480249Y7654000D01*
X37480247Y7653999D01*
X37421770Y7642368D01*
X37421769Y7642367D01*
X37355447Y7598052D01*
X37311132Y7531730D01*
X37311131Y7531729D01*
X37299500Y7473252D01*
X34565366Y7473252D01*
X34499487Y7503972D01*
X34449901Y7510500D01*
X34090100Y7510499D01*
X34040513Y7503972D01*
X33931684Y7453224D01*
X33931683Y7453223D01*
X33846776Y7368316D01*
X33796027Y7259485D01*
X33789500Y7209902D01*
X33789500Y7209901D01*
X33789500Y7037118D01*
X33789501Y6984601D01*
X33769817Y6917561D01*
X33717013Y6871806D01*
X33665501Y6860600D01*
X33065290Y6860600D01*
X32998251Y6880285D01*
X32952496Y6933089D01*
X32942552Y7002247D01*
X32950906Y7027933D01*
X32949724Y7028347D01*
X32997646Y7165302D01*
X33000500Y7195735D01*
X33000499Y10173568D01*
X33020184Y10240607D01*
X33072988Y10286362D01*
X33139320Y10296679D01*
X33144859Y10296012D01*
G37*
G04 #@! TD.AperFunction*
G04 #@! TA.AperFunction,Conductor*
G36*
X39207186Y-6479332D02*
G01*
X39230079Y-6508088D01*
X39231063Y-6509792D01*
X39294700Y-6620014D01*
X39342739Y-6668053D01*
X39364904Y-6690218D01*
X39398388Y-6751542D01*
X39393403Y-6821233D01*
X39364903Y-6865580D01*
X37889504Y-8340981D01*
X37828181Y-8374466D01*
X37801823Y-8377300D01*
X37796387Y-8377300D01*
X37729348Y-8357615D01*
X37683593Y-8304811D01*
X37673649Y-8235653D01*
X37689000Y-8191299D01*
X37704191Y-8164987D01*
X37704192Y-8164986D01*
X37738300Y-8037692D01*
X37738300Y-7905908D01*
X37704192Y-7778614D01*
X37703986Y-7778258D01*
X37692637Y-7758600D01*
X37691690Y-7756961D01*
X37675218Y-7689062D01*
X37698070Y-7623035D01*
X37715473Y-7606144D01*
X37714522Y-7605193D01*
X38804696Y-6515019D01*
X38866019Y-6481534D01*
X38892377Y-6478700D01*
X39019299Y-6478700D01*
X39019300Y-6478700D01*
X39075239Y-6455528D01*
X39144706Y-6448059D01*
X39207186Y-6479332D01*
G37*
G04 #@! TD.AperFunction*
G04 #@! TA.AperFunction,Conductor*
G36*
X24908944Y-1105185D02*
G01*
X24954699Y-1157989D01*
X24964643Y-1227147D01*
X24945007Y-1278389D01*
X24935732Y-1292272D01*
X24907260Y-1334883D01*
X24907258Y-1334887D01*
X24892000Y-1411595D01*
X24892000Y-1588398D01*
X24907260Y-1665118D01*
X24907261Y-1665120D01*
X24940869Y-1715416D01*
X24965388Y-1752112D01*
X25052383Y-1810240D01*
X25052386Y-1810240D01*
X25052387Y-1810241D01*
X25077157Y-1815168D01*
X25129099Y-1825500D01*
X25880900Y-1825499D01*
X25957617Y-1810240D01*
X26044612Y-1752112D01*
X26102740Y-1665117D01*
X26117999Y-1588404D01*
X26118000Y-1588404D01*
X26118000Y-1549499D01*
X26137685Y-1482460D01*
X26190489Y-1436705D01*
X26242000Y-1425499D01*
X26280898Y-1425499D01*
X26280900Y-1425499D01*
X26357617Y-1410240D01*
X26373607Y-1399555D01*
X26440283Y-1378676D01*
X26507664Y-1397159D01*
X26511371Y-1399541D01*
X26515961Y-1402608D01*
X26527383Y-1410240D01*
X26527387Y-1410241D01*
X26550885Y-1414915D01*
X26604099Y-1425500D01*
X26780900Y-1425499D01*
X26857617Y-1410240D01*
X26873607Y-1399555D01*
X26940283Y-1378676D01*
X27007664Y-1397159D01*
X27011371Y-1399541D01*
X27015961Y-1402608D01*
X27027383Y-1410240D01*
X27027387Y-1410241D01*
X27050885Y-1414915D01*
X27104099Y-1425500D01*
X27280900Y-1425499D01*
X27357617Y-1410240D01*
X27373607Y-1399555D01*
X27440283Y-1378676D01*
X27507664Y-1397159D01*
X27511371Y-1399541D01*
X27515961Y-1402608D01*
X27527383Y-1410240D01*
X27527387Y-1410241D01*
X27550885Y-1414915D01*
X27604099Y-1425500D01*
X27642999Y-1425499D01*
X27710037Y-1445182D01*
X27755793Y-1497985D01*
X27767000Y-1549496D01*
X27767000Y-1588398D01*
X27782260Y-1665119D01*
X27792946Y-1681111D01*
X27813823Y-1747788D01*
X27795337Y-1815168D01*
X27792946Y-1818889D01*
X27782259Y-1834882D01*
X27767000Y-1911596D01*
X27767000Y-2088398D01*
X27782260Y-2165118D01*
X27782261Y-2165120D01*
X27806568Y-2201497D01*
X27840388Y-2252112D01*
X27927383Y-2310240D01*
X27927386Y-2310240D01*
X27927387Y-2310241D01*
X27937236Y-2312200D01*
X28004099Y-2325500D01*
X28691600Y-2325499D01*
X28758639Y-2345183D01*
X28804394Y-2397987D01*
X28815600Y-2449499D01*
X28815600Y-2550500D01*
X28795915Y-2617539D01*
X28743111Y-2663294D01*
X28691600Y-2674500D01*
X28004102Y-2674500D01*
X27927381Y-2689760D01*
X27927379Y-2689761D01*
X27840388Y-2747888D01*
X27782260Y-2834883D01*
X27782258Y-2834887D01*
X27767000Y-2911594D01*
X27767000Y-2950500D01*
X27747315Y-3017539D01*
X27694511Y-3063294D01*
X27643003Y-3074500D01*
X27604101Y-3074500D01*
X27527380Y-3089760D01*
X27511389Y-3100446D01*
X27444712Y-3121323D01*
X27377332Y-3102837D01*
X27373611Y-3100446D01*
X27357617Y-3089759D01*
X27280903Y-3074500D01*
X27104101Y-3074500D01*
X27027381Y-3089760D01*
X27027379Y-3089761D01*
X26940388Y-3147888D01*
X26882260Y-3234883D01*
X26882258Y-3234887D01*
X26867000Y-3311594D01*
X26867000Y-4063397D01*
X26872991Y-4093514D01*
X26882260Y-4140117D01*
X26882260Y-4140118D01*
X26882261Y-4140119D01*
X26912624Y-4185562D01*
X26924081Y-4206997D01*
X26948827Y-4266737D01*
X26948827Y-4266739D01*
X26948828Y-4266739D01*
X26956491Y-4285238D01*
X26958943Y-4291158D01*
X27446742Y-4778957D01*
X27548000Y-4820900D01*
X27657600Y-4820900D01*
X27845924Y-4820900D01*
X27912963Y-4840585D01*
X27933605Y-4857219D01*
X28022286Y-4945900D01*
X28097759Y-4989475D01*
X28145974Y-5040041D01*
X28159198Y-5108648D01*
X28133230Y-5173512D01*
X28123440Y-5184542D01*
X26534604Y-6773381D01*
X26473281Y-6806866D01*
X26446923Y-6809700D01*
X24037277Y-6809700D01*
X23970238Y-6790015D01*
X23924483Y-6737211D01*
X23914539Y-6668053D01*
X23943564Y-6604497D01*
X23949596Y-6598019D01*
X23967396Y-6580219D01*
X24028719Y-6546734D01*
X24055077Y-6543900D01*
X24180490Y-6543900D01*
X24180492Y-6543900D01*
X24307786Y-6509792D01*
X24421914Y-6443900D01*
X24515100Y-6350714D01*
X24580992Y-6236586D01*
X24615100Y-6109292D01*
X24615100Y-5977508D01*
X24580992Y-5850214D01*
X24580017Y-5848526D01*
X24552226Y-5800390D01*
X24515100Y-5736086D01*
X24421914Y-5642900D01*
X24364850Y-5609954D01*
X24307787Y-5577008D01*
X24209975Y-5550800D01*
X24180492Y-5542900D01*
X24048708Y-5542900D01*
X23921412Y-5577008D01*
X23807286Y-5642900D01*
X23807283Y-5642902D01*
X23708353Y-5741833D01*
X23705992Y-5739472D01*
X23662024Y-5771519D01*
X23592274Y-5775611D01*
X23531384Y-5741344D01*
X23498686Y-5679598D01*
X23498952Y-5642399D01*
X23496942Y-5642211D01*
X23499195Y-5618181D01*
X23500500Y-5604265D01*
X23500499Y-2595736D01*
X23497646Y-2565302D01*
X23497642Y-2565291D01*
X23496853Y-2561676D01*
X23497047Y-2558924D01*
X23496941Y-2557789D01*
X23497128Y-2557771D01*
X23501778Y-2491980D01*
X23543601Y-2436011D01*
X23609045Y-2411538D01*
X23631604Y-2412200D01*
X23759023Y-2412200D01*
X23826062Y-2431885D01*
X23846703Y-2448518D01*
X24287380Y-2889196D01*
X24631742Y-3233558D01*
X24631744Y-3233560D01*
X24710057Y-3265997D01*
X24733000Y-3275500D01*
X24962776Y-3275500D01*
X25029815Y-3295185D01*
X25031642Y-3296381D01*
X25052383Y-3310240D01*
X25052385Y-3310240D01*
X25052387Y-3310241D01*
X25069395Y-3313624D01*
X25129099Y-3325500D01*
X25743000Y-3325499D01*
X25810039Y-3345183D01*
X25855794Y-3397987D01*
X25867000Y-3449499D01*
X25867000Y-3760121D01*
X25847315Y-3827160D01*
X25830681Y-3847802D01*
X25651502Y-4026981D01*
X25590179Y-4060466D01*
X25563821Y-4063300D01*
X25438408Y-4063300D01*
X25311112Y-4097408D01*
X25196986Y-4163300D01*
X25196983Y-4163302D01*
X25103802Y-4256483D01*
X25103800Y-4256486D01*
X25037908Y-4370612D01*
X25034656Y-4382750D01*
X25003800Y-4497908D01*
X25003800Y-4629692D01*
X25009636Y-4651472D01*
X25037908Y-4756987D01*
X25050593Y-4778957D01*
X25103800Y-4871114D01*
X25196986Y-4964300D01*
X25311114Y-5030192D01*
X25438408Y-5064300D01*
X25438410Y-5064300D01*
X25570190Y-5064300D01*
X25570192Y-5064300D01*
X25697486Y-5030192D01*
X25811614Y-4964300D01*
X25904800Y-4871114D01*
X25970692Y-4756986D01*
X26004800Y-4629692D01*
X26004800Y-4504277D01*
X26024485Y-4437238D01*
X26041119Y-4416596D01*
X26120897Y-4336818D01*
X26182220Y-4303333D01*
X26208578Y-4300499D01*
X26280898Y-4300499D01*
X26280900Y-4300499D01*
X26357617Y-4285240D01*
X26444612Y-4227112D01*
X26502740Y-4140117D01*
X26518000Y-4063401D01*
X26517999Y-3311600D01*
X26502740Y-3234883D01*
X26502739Y-3234881D01*
X26502738Y-3234879D01*
X26466418Y-3180523D01*
X26444612Y-3147888D01*
X26357617Y-3089760D01*
X26357615Y-3089759D01*
X26357612Y-3089758D01*
X26280904Y-3074500D01*
X26280901Y-3074500D01*
X26241999Y-3074500D01*
X26174960Y-3054815D01*
X26129205Y-3002011D01*
X26117999Y-2950500D01*
X26117999Y-2911602D01*
X26117999Y-2911600D01*
X26102740Y-2834883D01*
X26102739Y-2834881D01*
X26102738Y-2834878D01*
X26092055Y-2818891D01*
X26071176Y-2752214D01*
X26089660Y-2684833D01*
X26092017Y-2681164D01*
X26102740Y-2665117D01*
X26118000Y-2588401D01*
X26117999Y-2411600D01*
X26102740Y-2334883D01*
X26102739Y-2334881D01*
X26102738Y-2334879D01*
X26078867Y-2299154D01*
X26044612Y-2247888D01*
X25957617Y-2189760D01*
X25957615Y-2189759D01*
X25957612Y-2189758D01*
X25880904Y-2174500D01*
X25129102Y-2174500D01*
X25052381Y-2189760D01*
X25052379Y-2189761D01*
X24965388Y-2247888D01*
X24907260Y-2334883D01*
X24907258Y-2334887D01*
X24892000Y-2411595D01*
X24892000Y-2415222D01*
X24891462Y-2417051D01*
X24891403Y-2417659D01*
X24891287Y-2417647D01*
X24872315Y-2482261D01*
X24819511Y-2528016D01*
X24750353Y-2537960D01*
X24686797Y-2508935D01*
X24680319Y-2502903D01*
X24236319Y-2058903D01*
X24202834Y-1997580D01*
X24200000Y-1971222D01*
X24200000Y-1845810D01*
X24200000Y-1845808D01*
X24165892Y-1718514D01*
X24100000Y-1604386D01*
X24006814Y-1511200D01*
X23926179Y-1464645D01*
X23877963Y-1414078D01*
X23864741Y-1345471D01*
X23890709Y-1280606D01*
X23935772Y-1244877D01*
X23980404Y-1224065D01*
X24064065Y-1140404D01*
X24064067Y-1140398D01*
X24065484Y-1138377D01*
X24068513Y-1135955D01*
X24071736Y-1132733D01*
X24072095Y-1133092D01*
X24120061Y-1094752D01*
X24167059Y-1085500D01*
X24841905Y-1085500D01*
X24908944Y-1105185D01*
G37*
G04 #@! TD.AperFunction*
G04 #@! TA.AperFunction,Conductor*
G36*
X31712064Y-2551679D02*
G01*
X32393938Y-3233555D01*
X32393939Y-3233555D01*
X32393941Y-3233557D01*
X32423595Y-3245839D01*
X32423597Y-3245841D01*
X32423598Y-3245841D01*
X32444570Y-3254527D01*
X32495200Y-3275500D01*
X33848000Y-3275500D01*
X33915039Y-3295185D01*
X33960794Y-3347989D01*
X33972000Y-3399500D01*
X33972000Y-3408493D01*
X33987779Y-3508121D01*
X33987780Y-3508124D01*
X33987781Y-3508126D01*
X34048972Y-3628220D01*
X34048973Y-3628221D01*
X34048976Y-3628225D01*
X34144274Y-3723523D01*
X34144278Y-3723526D01*
X34144280Y-3723528D01*
X34264374Y-3784719D01*
X34264376Y-3784719D01*
X34264378Y-3784720D01*
X34364007Y-3800500D01*
X34364012Y-3800500D01*
X34880993Y-3800500D01*
X34980621Y-3784720D01*
X34980621Y-3784719D01*
X34980626Y-3784719D01*
X35100720Y-3723528D01*
X35139673Y-3684575D01*
X35200996Y-3651089D01*
X35270687Y-3656073D01*
X35315038Y-3684575D01*
X36387393Y-4756986D01*
X36503184Y-4872783D01*
X36536667Y-4934107D01*
X36539500Y-4960462D01*
X36539500Y-5209894D01*
X36540772Y-5219560D01*
X36546028Y-5259487D01*
X36546029Y-5259489D01*
X36546029Y-5259490D01*
X36592855Y-5359908D01*
X36596776Y-5368316D01*
X36641264Y-5412804D01*
X36681683Y-5453223D01*
X36687363Y-5457200D01*
X36730990Y-5511775D01*
X36738187Y-5581273D01*
X36706667Y-5643629D01*
X36703925Y-5646459D01*
X36157204Y-6193181D01*
X36095881Y-6226666D01*
X36069523Y-6229500D01*
X35910477Y-6229500D01*
X35843438Y-6209815D01*
X35822796Y-6193181D01*
X35535859Y-5906244D01*
X35535858Y-5906243D01*
X35511286Y-5896065D01*
X35511283Y-5896063D01*
X35511282Y-5896063D01*
X35434602Y-5864300D01*
X35434600Y-5864300D01*
X34694279Y-5864300D01*
X34627240Y-5844615D01*
X34581485Y-5791811D01*
X34571541Y-5722653D01*
X34583792Y-5684009D01*
X34609719Y-5633126D01*
X34609721Y-5633114D01*
X34625500Y-5533493D01*
X34625500Y-4966506D01*
X34609720Y-4866878D01*
X34609719Y-4866876D01*
X34609719Y-4866874D01*
X34548528Y-4746780D01*
X34548526Y-4746778D01*
X34548523Y-4746774D01*
X34453225Y-4651476D01*
X34453221Y-4651473D01*
X34453220Y-4651472D01*
X34333126Y-4590281D01*
X34333124Y-4590280D01*
X34333121Y-4590279D01*
X34233493Y-4574500D01*
X34233488Y-4574500D01*
X33716512Y-4574500D01*
X33716507Y-4574500D01*
X33616878Y-4590279D01*
X33496778Y-4651473D01*
X33496774Y-4651476D01*
X33401476Y-4746774D01*
X33401471Y-4746781D01*
X33384498Y-4780094D01*
X33336524Y-4830891D01*
X33274013Y-4847800D01*
X30764676Y-4847800D01*
X30697637Y-4828115D01*
X30651882Y-4775311D01*
X30641938Y-4706153D01*
X30670963Y-4642597D01*
X30676995Y-4636119D01*
X30756295Y-4556819D01*
X30817618Y-4523334D01*
X30843976Y-4520500D01*
X31184317Y-4520500D01*
X31202721Y-4518077D01*
X31233173Y-4514068D01*
X31340404Y-4464065D01*
X31424065Y-4380404D01*
X31474068Y-4273173D01*
X31480500Y-4224316D01*
X31480500Y-3775684D01*
X31474068Y-3726827D01*
X31424065Y-3619596D01*
X31340404Y-3535935D01*
X31233173Y-3485932D01*
X31233171Y-3485931D01*
X31233172Y-3485931D01*
X31184317Y-3479500D01*
X31184316Y-3479500D01*
X30835684Y-3479500D01*
X30835683Y-3479500D01*
X30786828Y-3485931D01*
X30679595Y-3535935D01*
X30588264Y-3627267D01*
X30585440Y-3624443D01*
X30546958Y-3655183D01*
X30477458Y-3662352D01*
X30415114Y-3630808D01*
X30411901Y-3627101D01*
X30411736Y-3627267D01*
X30320404Y-3535935D01*
X30302800Y-3527726D01*
X30213173Y-3485932D01*
X30213171Y-3485931D01*
X30213172Y-3485931D01*
X30164317Y-3479500D01*
X30164316Y-3479500D01*
X29910478Y-3479500D01*
X29843439Y-3459815D01*
X29822794Y-3443178D01*
X29807116Y-3427499D01*
X29773633Y-3366175D01*
X29770800Y-3339821D01*
X29770800Y-3068969D01*
X29790485Y-3001930D01*
X29843289Y-2956175D01*
X29912443Y-2946231D01*
X29941740Y-2950500D01*
X29941743Y-2950500D01*
X31183261Y-2950500D01*
X31209087Y-2946737D01*
X31251393Y-2940573D01*
X31356483Y-2889198D01*
X31439198Y-2806483D01*
X31490573Y-2701393D01*
X31500500Y-2633260D01*
X31500500Y-2633258D01*
X31500708Y-2630394D01*
X31501051Y-2629475D01*
X31501147Y-2628820D01*
X31501289Y-2628840D01*
X31525188Y-2564953D01*
X31581162Y-2523136D01*
X31650859Y-2518219D01*
X31712064Y-2551679D01*
G37*
G04 #@! TD.AperFunction*
G04 #@! TA.AperFunction,Conductor*
G36*
X36324062Y-1795185D02*
G01*
X36344704Y-1811819D01*
X37235681Y-2702796D01*
X37269166Y-2764119D01*
X37272000Y-2790477D01*
X37272000Y-3408493D01*
X37287779Y-3508121D01*
X37287780Y-3508124D01*
X37287781Y-3508126D01*
X37348972Y-3628220D01*
X37348973Y-3628221D01*
X37348976Y-3628225D01*
X37444274Y-3723523D01*
X37444278Y-3723526D01*
X37444280Y-3723528D01*
X37564374Y-3784719D01*
X37564376Y-3784719D01*
X37564378Y-3784720D01*
X37664007Y-3800500D01*
X37664012Y-3800500D01*
X38180993Y-3800500D01*
X38280621Y-3784720D01*
X38280621Y-3784719D01*
X38280626Y-3784719D01*
X38400720Y-3723528D01*
X38496028Y-3628220D01*
X38557219Y-3508126D01*
X38559521Y-3493591D01*
X38573000Y-3408493D01*
X38573000Y-2726877D01*
X38592685Y-2659838D01*
X38645489Y-2614083D01*
X38714647Y-2604139D01*
X38778203Y-2633164D01*
X38784681Y-2639196D01*
X39064581Y-2919096D01*
X39098066Y-2980419D01*
X39100900Y-3006777D01*
X39100900Y-5093322D01*
X39081215Y-5160361D01*
X39064581Y-5181003D01*
X38731104Y-5514481D01*
X38669781Y-5547966D01*
X38643423Y-5550800D01*
X38269076Y-5550800D01*
X38202037Y-5531115D01*
X38181395Y-5514481D01*
X38092716Y-5425802D01*
X38092714Y-5425800D01*
X38035650Y-5392854D01*
X37978587Y-5359908D01*
X37904067Y-5339941D01*
X37851292Y-5325800D01*
X37719508Y-5325800D01*
X37719506Y-5325800D01*
X37655929Y-5342835D01*
X37586079Y-5341172D01*
X37528217Y-5302008D01*
X37500714Y-5237779D01*
X37500860Y-5213992D01*
X37500235Y-5213951D01*
X37500499Y-5209908D01*
X37500500Y-5209901D01*
X37500499Y-4790100D01*
X37493972Y-4740513D01*
X37443224Y-4631684D01*
X37358316Y-4546776D01*
X37249487Y-4496028D01*
X37249485Y-4496027D01*
X37249486Y-4496027D01*
X37199902Y-4489500D01*
X37199901Y-4489500D01*
X36950496Y-4489500D01*
X36883457Y-4469815D01*
X36862813Y-4453179D01*
X36169790Y-3760121D01*
X35557678Y-3147978D01*
X35524195Y-3086655D01*
X35529181Y-3016964D01*
X35571054Y-2961031D01*
X35636519Y-2936616D01*
X35645362Y-2936300D01*
X35759790Y-2936300D01*
X35759792Y-2936300D01*
X35887086Y-2902192D01*
X36001214Y-2836300D01*
X36094400Y-2743114D01*
X36160292Y-2628986D01*
X36194400Y-2501692D01*
X36194400Y-2369908D01*
X36160292Y-2242614D01*
X36094400Y-2128486D01*
X36001214Y-2035300D01*
X35952000Y-2006886D01*
X35903786Y-1956319D01*
X35890564Y-1887712D01*
X35916532Y-1822848D01*
X35973446Y-1782320D01*
X36014002Y-1775500D01*
X36257023Y-1775500D01*
X36324062Y-1795185D01*
G37*
G04 #@! TD.AperFunction*
G04 #@! TA.AperFunction,Conductor*
G36*
X28758639Y-3345184D02*
G01*
X28804394Y-3397988D01*
X28815600Y-3449499D01*
X28815600Y-4033290D01*
X28795915Y-4100329D01*
X28743111Y-4146084D01*
X28673953Y-4156028D01*
X28629600Y-4140677D01*
X28522789Y-4079009D01*
X28522786Y-4079008D01*
X28395492Y-4044900D01*
X28263708Y-4044900D01*
X28263706Y-4044900D01*
X28174091Y-4068912D01*
X28104242Y-4067249D01*
X28046379Y-4028086D01*
X28018876Y-3963857D01*
X28017999Y-3949151D01*
X28017999Y-3449498D01*
X28037684Y-3382460D01*
X28090488Y-3336705D01*
X28141999Y-3325499D01*
X28691600Y-3325499D01*
X28758639Y-3345184D01*
G37*
G04 #@! TD.AperFunction*
G04 #@! TA.AperFunction,Conductor*
G36*
X42694239Y4474115D02*
G01*
X42739994Y4421311D01*
X42751200Y4369800D01*
X42751200Y2928500D01*
X42762396Y2901473D01*
X42768912Y2885742D01*
X42768912Y2885741D01*
X42793142Y2827242D01*
X42889023Y2731362D01*
X42922507Y2670039D01*
X42917523Y2600347D01*
X42875651Y2544414D01*
X42817524Y2520742D01*
X42815686Y2520500D01*
X42815684Y2520500D01*
X42766827Y2514068D01*
X42659596Y2464065D01*
X42659595Y2464064D01*
X42575935Y2380404D01*
X42525931Y2273171D01*
X42519500Y2224316D01*
X42519500Y1775683D01*
X42525931Y1726830D01*
X42526230Y1725806D01*
X42526227Y1724579D01*
X42527170Y1717421D01*
X42526213Y1717295D01*
X42526096Y1655936D01*
X42488208Y1597231D01*
X42424597Y1568328D01*
X42407186Y1567100D01*
X42406508Y1567100D01*
X42279214Y1532992D01*
X42279212Y1532991D01*
X42276590Y1531477D01*
X42165086Y1467100D01*
X42071900Y1373914D01*
X42045333Y1327899D01*
X42006008Y1259787D01*
X41972212Y1133656D01*
X41935847Y1073995D01*
X41873000Y1043466D01*
X41828245Y1044132D01*
X41808787Y1048001D01*
X41786175Y1052500D01*
X41293826Y1052499D01*
X41231111Y1040025D01*
X41159994Y992506D01*
X41112475Y921389D01*
X41112475Y921388D01*
X41112473Y921384D01*
X41100000Y858677D01*
X41100000Y641327D01*
X41112475Y578609D01*
X41112477Y578605D01*
X41118971Y568887D01*
X41139847Y502209D01*
X41121361Y434830D01*
X41118970Y431110D01*
X41112475Y421390D01*
X41112473Y421384D01*
X41100000Y358677D01*
X41100000Y141327D01*
X41112475Y78609D01*
X41112476Y78607D01*
X41118969Y68891D01*
X41139847Y2213D01*
X41121362Y-65167D01*
X41118972Y-68887D01*
X41112475Y-78610D01*
X41112473Y-78615D01*
X41100000Y-141322D01*
X41100000Y-348500D01*
X41080315Y-415539D01*
X41027511Y-461294D01*
X40976001Y-472500D01*
X40768827Y-472500D01*
X40706109Y-484975D01*
X40706105Y-484977D01*
X40696387Y-491471D01*
X40629709Y-512347D01*
X40562330Y-493861D01*
X40558610Y-491470D01*
X40548890Y-484975D01*
X40548884Y-484973D01*
X40486177Y-472500D01*
X40268827Y-472500D01*
X40206109Y-484975D01*
X40206105Y-484977D01*
X40196387Y-491471D01*
X40129709Y-512347D01*
X40062330Y-493861D01*
X40058610Y-491470D01*
X40048890Y-484975D01*
X40048884Y-484973D01*
X39986177Y-472500D01*
X39768827Y-472500D01*
X39706110Y-484975D01*
X39634993Y-532495D01*
X39587475Y-603611D01*
X39587473Y-603615D01*
X39575000Y-666322D01*
X39575000Y-1158671D01*
X39587475Y-1221390D01*
X39592148Y-1232670D01*
X39588136Y-1234331D01*
X39601979Y-1278472D01*
X39602000Y-1280741D01*
X39602000Y-1977623D01*
X39582315Y-2044662D01*
X39565681Y-2065304D01*
X39560644Y-2070340D01*
X39560643Y-2070341D01*
X39560643Y-2070342D01*
X39556159Y-2081167D01*
X39518700Y-2171599D01*
X39518700Y-2294622D01*
X39499015Y-2361661D01*
X39446211Y-2407416D01*
X39377053Y-2417360D01*
X39313497Y-2388335D01*
X39307019Y-2382303D01*
X38875219Y-1950503D01*
X38841734Y-1889180D01*
X38838900Y-1862822D01*
X38838900Y323500D01*
X38858585Y390539D01*
X38911389Y436294D01*
X38962900Y447500D01*
X39461171Y447500D01*
X39523890Y459975D01*
X39523891Y459976D01*
X39564818Y487322D01*
X39631496Y508199D01*
X39698876Y489714D01*
X39702594Y487325D01*
X39706111Y484975D01*
X39706115Y484973D01*
X39768822Y472500D01*
X39768825Y472500D01*
X39986172Y472500D01*
X40048889Y484975D01*
X40120006Y532494D01*
X40167525Y603611D01*
X40180000Y666325D01*
X40179999Y1158674D01*
X40167525Y1221389D01*
X40167523Y1221391D01*
X40162852Y1232670D01*
X40166863Y1234331D01*
X40153021Y1278472D01*
X40153000Y1280741D01*
X40153000Y1399098D01*
X40153000Y1399100D01*
X40111057Y1500358D01*
X40033558Y1577857D01*
X39568018Y2043395D01*
X39534534Y2104718D01*
X39531700Y2131076D01*
X39531700Y2256490D01*
X39531700Y2256492D01*
X39497592Y2383786D01*
X39431700Y2497914D01*
X39400295Y2529319D01*
X39366810Y2590642D01*
X39371794Y2660334D01*
X39413666Y2716267D01*
X39479130Y2740684D01*
X39487976Y2741000D01*
X39769752Y2741000D01*
X39828229Y2752631D01*
X39828230Y2752632D01*
X39894552Y2796947D01*
X39938867Y2863269D01*
X39938868Y2863270D01*
X39950499Y2921747D01*
X39950500Y2921749D01*
X39950500Y4185423D01*
X39970185Y4252462D01*
X39986819Y4273104D01*
X40171196Y4457481D01*
X40232519Y4490966D01*
X40258877Y4493800D01*
X42627200Y4493800D01*
X42694239Y4474115D01*
G37*
G04 #@! TD.AperFunction*
G04 #@! TA.AperFunction,Conductor*
G36*
X30798890Y164933D02*
G01*
X30837759Y138625D01*
X31291081Y-314696D01*
X31324566Y-376019D01*
X31327400Y-402377D01*
X31327400Y-731621D01*
X31307715Y-798660D01*
X31291082Y-819301D01*
X31253042Y-857342D01*
X31253042Y-857343D01*
X31175543Y-934842D01*
X31164925Y-960477D01*
X31128926Y-1047384D01*
X31126871Y-1046532D01*
X31101989Y-1094094D01*
X31041270Y-1128664D01*
X30971501Y-1124920D01*
X30925081Y-1095667D01*
X30897416Y-1068002D01*
X30897414Y-1068000D01*
X30840182Y-1034957D01*
X30783287Y-1002108D01*
X30719639Y-985054D01*
X30655992Y-968000D01*
X30524208Y-968000D01*
X30396912Y-1002108D01*
X30282786Y-1068000D01*
X30282783Y-1068002D01*
X30189602Y-1161183D01*
X30189600Y-1161186D01*
X30123708Y-1275312D01*
X30094501Y-1384316D01*
X30089600Y-1402608D01*
X30089600Y-1534392D01*
X30116960Y-1636503D01*
X30123709Y-1661688D01*
X30123709Y-1661689D01*
X30182490Y-1763500D01*
X30198963Y-1831400D01*
X30176111Y-1897427D01*
X30121189Y-1940618D01*
X30075103Y-1949500D01*
X29941739Y-1949500D01*
X29873607Y-1959426D01*
X29873605Y-1959427D01*
X29867127Y-1962594D01*
X29798253Y-1974351D01*
X29733957Y-1947006D01*
X29724989Y-1938873D01*
X29422619Y-1636503D01*
X29389134Y-1575180D01*
X29386300Y-1548822D01*
X29386300Y-1220077D01*
X29405985Y-1153038D01*
X29422619Y-1132396D01*
X29520058Y-1034957D01*
X29665858Y-889158D01*
X29665858Y-889156D01*
X29665860Y-889155D01*
X29700344Y-805900D01*
X29707800Y-787900D01*
X29707800Y-678300D01*
X29707800Y-396677D01*
X29727485Y-329638D01*
X29744113Y-309001D01*
X29820607Y-232507D01*
X29881926Y-199025D01*
X29951618Y-204009D01*
X29957868Y-206955D01*
X29957900Y-206880D01*
X29965409Y-209989D01*
X29965414Y-209992D01*
X30092708Y-244100D01*
X30092710Y-244100D01*
X30224490Y-244100D01*
X30224492Y-244100D01*
X30351786Y-209992D01*
X30465914Y-144100D01*
X30559100Y-50914D01*
X30624992Y63214D01*
X30630303Y83038D01*
X30666667Y142697D01*
X30729514Y173227D01*
X30798890Y164933D01*
G37*
G04 #@! TD.AperFunction*
G04 #@! TA.AperFunction,Conductor*
G36*
X22112462Y1303915D02*
G01*
X22133104Y1287281D01*
X23043181Y377203D01*
X23076666Y315880D01*
X23079500Y289522D01*
X23079500Y35683D01*
X23085931Y-13171D01*
X23135935Y-120404D01*
X23227267Y-211736D01*
X23224443Y-214559D01*
X23255183Y-253042D01*
X23262352Y-322542D01*
X23230808Y-384886D01*
X23227101Y-388098D01*
X23227267Y-388264D01*
X23135935Y-479595D01*
X23085931Y-586828D01*
X23079500Y-635683D01*
X23079500Y-889522D01*
X23059815Y-956561D01*
X23043181Y-977203D01*
X22575585Y-1444798D01*
X22514262Y-1478283D01*
X22444570Y-1473299D01*
X22425904Y-1464504D01*
X22358189Y-1425409D01*
X22358186Y-1425408D01*
X22230892Y-1391300D01*
X22099108Y-1391300D01*
X21971812Y-1425408D01*
X21857686Y-1491300D01*
X21857683Y-1491302D01*
X21812681Y-1536305D01*
X21751358Y-1569790D01*
X21681666Y-1564806D01*
X21625733Y-1522934D01*
X21601316Y-1457470D01*
X21601000Y-1448624D01*
X21601000Y-734831D01*
X21620685Y-667792D01*
X21637319Y-647150D01*
X21643143Y-641326D01*
X21654065Y-630404D01*
X21704068Y-523173D01*
X21710500Y-474316D01*
X21710500Y-25684D01*
X21704068Y23173D01*
X21654065Y130404D01*
X21570404Y214065D01*
X21463173Y264068D01*
X21431787Y268200D01*
X21414317Y270500D01*
X21414316Y270500D01*
X21065684Y270500D01*
X21065683Y270500D01*
X21048213Y268200D01*
X21016827Y264068D01*
X20909596Y214065D01*
X20909595Y214064D01*
X20825935Y130404D01*
X20775931Y23171D01*
X20769500Y-25683D01*
X20769500Y-270523D01*
X20749815Y-337562D01*
X20697011Y-383317D01*
X20627853Y-393261D01*
X20564297Y-364236D01*
X20557819Y-358204D01*
X20556819Y-357204D01*
X20523334Y-295881D01*
X20520500Y-269523D01*
X20520500Y-15683D01*
X20514068Y33171D01*
X20514068Y33173D01*
X20464065Y140404D01*
X20380404Y224065D01*
X20273173Y274068D01*
X20242858Y278059D01*
X20224317Y280500D01*
X20224316Y280500D01*
X19970477Y280500D01*
X19903438Y300185D01*
X19882796Y316819D01*
X19829723Y369892D01*
X19796238Y431215D01*
X19801222Y500907D01*
X19829723Y545254D01*
X19904064Y619595D01*
X19904065Y619596D01*
X19954068Y726827D01*
X19960500Y775684D01*
X19960500Y1199600D01*
X19980185Y1266639D01*
X20032989Y1312394D01*
X20084500Y1323600D01*
X22045423Y1323600D01*
X22112462Y1303915D01*
G37*
G04 #@! TD.AperFunction*
G04 #@! TA.AperFunction,Conductor*
G36*
X33348539Y4689215D02*
G01*
X33394294Y4636411D01*
X33405500Y4584900D01*
X33405500Y4239197D01*
X33429732Y4180699D01*
X33429731Y4180698D01*
X33447441Y4137944D01*
X33447444Y4137940D01*
X33788181Y3797203D01*
X33821666Y3735880D01*
X33824500Y3709522D01*
X33824500Y3216506D01*
X33840279Y3116878D01*
X33901473Y2996778D01*
X33901476Y2996774D01*
X33996774Y2901476D01*
X33996778Y2901473D01*
X33996780Y2901472D01*
X34112546Y2842486D01*
X34116880Y2840278D01*
X34126160Y2837263D01*
X34125613Y2835580D01*
X34178244Y2810629D01*
X34215174Y2751316D01*
X34214174Y2681454D01*
X34183390Y2630406D01*
X34017050Y2464065D01*
X33851542Y2298557D01*
X33774043Y2221058D01*
X33748704Y2159884D01*
X33732100Y2119800D01*
X33732100Y-613802D01*
X33771533Y-708999D01*
X33774043Y-715058D01*
X33774044Y-715060D01*
X34071803Y-1012819D01*
X34105288Y-1074142D01*
X34100304Y-1143834D01*
X34058432Y-1199767D01*
X33992968Y-1224184D01*
X33984122Y-1224500D01*
X33431193Y-1224500D01*
X33364154Y-1204815D01*
X33319793Y-1154961D01*
X33314197Y-1143515D01*
X33231485Y-1060803D01*
X33126391Y-1009426D01*
X33058261Y-999500D01*
X33058260Y-999500D01*
X32837000Y-999500D01*
X32769961Y-979815D01*
X32724206Y-927011D01*
X32713000Y-875500D01*
X32713000Y267299D01*
X32712626Y268202D01*
X32712627Y268202D01*
X32712623Y268209D01*
X32671058Y368558D01*
X30436818Y2602796D01*
X30403334Y2664119D01*
X30400500Y2690477D01*
X30400500Y4504269D01*
X30397646Y4534699D01*
X30397645Y4534703D01*
X30394411Y4543948D01*
X30390850Y4613727D01*
X30425581Y4674353D01*
X30487575Y4706579D01*
X30511453Y4708900D01*
X33281500Y4708900D01*
X33348539Y4689215D01*
G37*
G04 #@! TD.AperFunction*
G04 #@! TA.AperFunction,Conductor*
G36*
X15149999Y12463321D02*
G01*
X15649998Y12403101D01*
X15649999Y12403101D01*
X16149999Y12342880D01*
X16149998Y12342879D01*
X17150000Y12222440D01*
X17650000Y12162220D01*
X18149999Y12102000D01*
X18150000Y12102000D01*
X18650000Y12041779D01*
X18649999Y12041778D01*
X19150000Y11981559D01*
X19650000Y11921339D01*
X20149999Y11861119D01*
X20150000Y11861119D01*
X20650000Y11800898D01*
X20649999Y11800897D01*
X21150000Y11740678D01*
X21213886Y11732983D01*
X21533630Y11694473D01*
X21597834Y11666914D01*
X21636947Y11609017D01*
X21638549Y11539166D01*
X21635844Y11530409D01*
X21602353Y11434697D01*
X21599500Y11404268D01*
X21599500Y8395741D01*
X21602354Y8365301D01*
X21602354Y8365300D01*
X21647206Y8237118D01*
X21727850Y8127850D01*
X21837118Y8047206D01*
X21965304Y8002353D01*
X21965301Y8002353D01*
X21995731Y7999500D01*
X21995735Y7999500D01*
X23104258Y7999500D01*
X23134698Y8002354D01*
X23134699Y8002354D01*
X23262881Y8047206D01*
X23291506Y8068332D01*
X23372150Y8127850D01*
X23452793Y8237118D01*
X23497646Y8365302D01*
X23500500Y8395735D01*
X23500499Y10204268D01*
X24399500Y10204268D01*
X24399500Y7195741D01*
X24402354Y7165301D01*
X24402354Y7165300D01*
X24447206Y7037118D01*
X24527850Y6927850D01*
X24637118Y6847206D01*
X24765304Y6802353D01*
X24765301Y6802353D01*
X24795731Y6799500D01*
X24795735Y6799500D01*
X25904258Y6799500D01*
X25934698Y6802354D01*
X25934699Y6802354D01*
X26062881Y6847206D01*
X26107701Y6880285D01*
X26172150Y6927850D01*
X26252793Y7037118D01*
X26297646Y7165302D01*
X26300500Y7195735D01*
X26300499Y10204264D01*
X26297646Y10234698D01*
X26252793Y10362882D01*
X26172150Y10472150D01*
X26062882Y10552793D01*
X25934698Y10597646D01*
X25904265Y10600500D01*
X24795736Y10600499D01*
X24765302Y10597646D01*
X24637118Y10552793D01*
X24527850Y10472150D01*
X24504302Y10440243D01*
X24447206Y10362881D01*
X24402353Y10234697D01*
X24399500Y10204268D01*
X23500499Y10204268D01*
X23500499Y11317752D01*
X23520184Y11384791D01*
X23572988Y11430546D01*
X23639320Y11440863D01*
X23644859Y11440196D01*
X23650000Y11439577D01*
X24150000Y11379357D01*
X24649999Y11319137D01*
X24650000Y11319137D01*
X25150000Y11258916D01*
X25149999Y11258915D01*
X25650000Y11198696D01*
X26150000Y11138476D01*
X26649999Y11078256D01*
X26650000Y11078256D01*
X27150000Y11018035D01*
X27149999Y11018034D01*
X27650000Y10957815D01*
X28650000Y10837375D01*
X29149999Y10777155D01*
X29150000Y10777155D01*
X29650000Y10716934D01*
X29649999Y10716933D01*
X30150000Y10656714D01*
X30650000Y10596494D01*
X30749965Y10584454D01*
X31054439Y10547783D01*
X31118643Y10520224D01*
X31157756Y10462327D01*
X31159358Y10392476D01*
X31149242Y10366732D01*
X31147206Y10362880D01*
X31102353Y10234697D01*
X31099500Y10204268D01*
X31099500Y7195741D01*
X31102354Y7165301D01*
X31102354Y7165300D01*
X31150276Y7028347D01*
X31147430Y7027351D01*
X31158262Y6974068D01*
X31132954Y6908943D01*
X31076455Y6867838D01*
X31034710Y6860600D01*
X27363600Y6860600D01*
X27291999Y6830941D01*
X27262341Y6818657D01*
X27262339Y6818655D01*
X27262338Y6818655D01*
X26568644Y6124959D01*
X26342842Y5899157D01*
X26265343Y5821658D01*
X26229324Y5734701D01*
X26223400Y5720400D01*
X26223400Y571277D01*
X26203715Y504238D01*
X26187085Y483601D01*
X25776864Y73379D01*
X25271444Y-432040D01*
X25271442Y-432043D01*
X25260709Y-457955D01*
X25216867Y-512357D01*
X25150573Y-534421D01*
X25146149Y-534500D01*
X24167059Y-534500D01*
X24100020Y-514815D01*
X24065484Y-481623D01*
X24064066Y-479598D01*
X24064065Y-479596D01*
X23980404Y-395935D01*
X23972733Y-388264D01*
X23975561Y-385435D01*
X23944843Y-347023D01*
X23937635Y-277526D01*
X23969143Y-215165D01*
X23972903Y-211906D01*
X23972733Y-211736D01*
X24008070Y-176399D01*
X24064065Y-120404D01*
X24114068Y-13173D01*
X24120169Y33171D01*
X24120500Y35683D01*
X24120500Y384316D01*
X24114551Y429504D01*
X24114068Y433173D01*
X24064065Y540404D01*
X23980404Y624065D01*
X23873173Y674068D01*
X23848744Y677284D01*
X23824317Y680500D01*
X23824316Y680500D01*
X23570478Y680500D01*
X23503439Y700185D01*
X23482797Y716819D01*
X23207110Y992506D01*
X22366958Y1832657D01*
X22361692Y1834838D01*
X22348988Y1840101D01*
X22348988Y1840100D01*
X22265700Y1874600D01*
X22265699Y1874600D01*
X21156877Y1874600D01*
X21089838Y1894285D01*
X21044083Y1947089D01*
X21034139Y2016247D01*
X21063164Y2079803D01*
X21069196Y2086281D01*
X21302716Y2319800D01*
X21595897Y2612981D01*
X21657220Y2646466D01*
X21683578Y2649300D01*
X21808991Y2649300D01*
X21808992Y2649300D01*
X21891874Y2671508D01*
X21936287Y2683408D01*
X22010251Y2726112D01*
X22050414Y2749300D01*
X22143600Y2842486D01*
X22209492Y2956614D01*
X22243600Y3083908D01*
X22243600Y3215692D01*
X22209492Y3342986D01*
X22143600Y3457114D01*
X22050414Y3550300D01*
X21936286Y3616192D01*
X21808992Y3650300D01*
X21677208Y3650300D01*
X21549914Y3616192D01*
X21435786Y3550300D01*
X21342600Y3457114D01*
X21316257Y3411486D01*
X21276708Y3342987D01*
X21266262Y3304000D01*
X21244421Y3222486D01*
X21242600Y3215691D01*
X21242600Y3090277D01*
X21222915Y3023238D01*
X21206284Y3002600D01*
X20919952Y2716267D01*
X20637804Y2434119D01*
X20576481Y2400634D01*
X20550123Y2397800D01*
X19892677Y2397800D01*
X19825638Y2417485D01*
X19804996Y2434119D01*
X18936819Y3302296D01*
X18903334Y3363619D01*
X18900500Y3389977D01*
X18900500Y5704269D01*
X18897646Y5734699D01*
X18897646Y5734701D01*
X18867217Y5821659D01*
X18852793Y5862882D01*
X18772150Y5972150D01*
X18772146Y5972152D01*
X18771588Y5972712D01*
X18771170Y5973476D01*
X18766632Y5979626D01*
X18767473Y5980247D01*
X18738103Y6034035D01*
X18743087Y6103727D01*
X18771588Y6148074D01*
X18810697Y6187183D01*
X18810700Y6187186D01*
X18876592Y6301314D01*
X18910700Y6428608D01*
X18910700Y6560392D01*
X18876592Y6687686D01*
X18810700Y6801814D01*
X18717514Y6895000D01*
X18603386Y6960892D01*
X18476092Y6995000D01*
X18344308Y6995000D01*
X18217014Y6960892D01*
X18102886Y6895000D01*
X18102883Y6894997D01*
X18009700Y6801814D01*
X18005273Y6796045D01*
X17954353Y6756974D01*
X17916170Y6741158D01*
X17884541Y6728057D01*
X17266242Y6109757D01*
X17188743Y6032258D01*
X17164078Y5972712D01*
X17146800Y5931000D01*
X17146800Y1720997D01*
X17169127Y1667097D01*
X17176596Y1597628D01*
X17145321Y1535148D01*
X17142266Y1531982D01*
X16996742Y1386457D01*
X16919243Y1308958D01*
X16889485Y1237117D01*
X16877300Y1207700D01*
X16877300Y-13300D01*
X16857615Y-80339D01*
X16804811Y-126094D01*
X16753300Y-137300D01*
X16052399Y-137300D01*
X16019796Y-150805D01*
X15983871Y-165686D01*
X15983869Y-165687D01*
X15951141Y-179242D01*
X15677202Y-453181D01*
X15615879Y-486666D01*
X15589521Y-489500D01*
X15340105Y-489500D01*
X15325141Y-491470D01*
X15290513Y-496028D01*
X15290511Y-496029D01*
X15290509Y-496029D01*
X15181683Y-546776D01*
X15096774Y-631685D01*
X15070581Y-687856D01*
X15024408Y-740295D01*
X14957214Y-759446D01*
X14890333Y-739229D01*
X14845000Y-686063D01*
X14834213Y-637191D01*
X14710757Y8182800D01*
X14729502Y8250106D01*
X14781660Y8296595D01*
X14850672Y8307506D01*
X14914628Y8279373D01*
X14944372Y8242481D01*
X14947205Y8237120D01*
X15027850Y8127850D01*
X15137118Y8047206D01*
X15265304Y8002353D01*
X15265301Y8002353D01*
X15295731Y7999500D01*
X15295735Y7999500D01*
X16404258Y7999500D01*
X16434698Y8002354D01*
X16434699Y8002354D01*
X16562881Y8047206D01*
X16591506Y8068332D01*
X16672150Y8127850D01*
X16752793Y8237118D01*
X16797646Y8365302D01*
X16800500Y8395735D01*
X16800499Y11404264D01*
X16797646Y11434698D01*
X16752793Y11562882D01*
X16672150Y11672150D01*
X16562882Y11752793D01*
X16434698Y11797646D01*
X16404265Y11800500D01*
X15295736Y11800499D01*
X15265302Y11797646D01*
X15137118Y11752793D01*
X15027850Y11672150D01*
X15023986Y11666914D01*
X14947206Y11562881D01*
X14905591Y11443950D01*
X14864869Y11387173D01*
X14799916Y11361426D01*
X14731355Y11374882D01*
X14680952Y11423269D01*
X14664561Y11483168D01*
X14651983Y12381739D01*
X14670727Y12449046D01*
X14722886Y12495535D01*
X14790798Y12506583D01*
X15149999Y12463321D01*
G37*
G04 #@! TD.AperFunction*
G04 #@! TA.AperFunction,Conductor*
G36*
X33975528Y6289915D02*
G01*
X34021283Y6237111D01*
X34031227Y6167953D01*
X34002202Y6104397D01*
X33996170Y6097919D01*
X33901476Y6003225D01*
X33901473Y6003221D01*
X33901472Y6003220D01*
X33840281Y5883126D01*
X33840280Y5883124D01*
X33840279Y5883121D01*
X33824500Y5783493D01*
X33824500Y5568877D01*
X33804815Y5501838D01*
X33788181Y5481196D01*
X33603204Y5296219D01*
X33541881Y5262734D01*
X33515523Y5259900D01*
X29163600Y5259900D01*
X29078138Y5224500D01*
X29062342Y5217957D01*
X29062340Y5217955D01*
X28520275Y4675890D01*
X28458952Y4642405D01*
X28389260Y4647389D01*
X28333327Y4689261D01*
X28333040Y4689646D01*
X28272150Y4772150D01*
X28162882Y4852793D01*
X28061800Y4888163D01*
X28034700Y4897646D01*
X28004270Y4900500D01*
X28004266Y4900500D01*
X27395734Y4900500D01*
X27395730Y4900500D01*
X27365300Y4897646D01*
X27365298Y4897646D01*
X27269163Y4864006D01*
X27237118Y4852793D01*
X27127850Y4772150D01*
X27066642Y4689215D01*
X27047207Y4662882D01*
X27047206Y4662880D01*
X27015441Y4572101D01*
X26974719Y4515325D01*
X26909767Y4489578D01*
X26841205Y4503035D01*
X26790802Y4551422D01*
X26774400Y4613056D01*
X26774400Y5500122D01*
X26794085Y5567161D01*
X26810719Y5587803D01*
X27496197Y6273281D01*
X27557520Y6306766D01*
X27583878Y6309600D01*
X33908489Y6309600D01*
X33975528Y6289915D01*
G37*
G04 #@! TD.AperFunction*
G04 #@! TD*
M02*
