G04 #@! TF.GenerationSoftware,KiCad,Pcbnew,10.0.6*
G04 #@! TF.CreationDate,2026-09-16T08:51:03+03:00*
G04 #@! TF.ProjectId,wherewatch-carrier,77686572-6577-4617-9463-682d63617272,rev?*
G04 #@! TF.SameCoordinates,Original*
G04 #@! TF.FileFunction,Paste,Bot*
G04 #@! TF.FilePolarity,Positive*
%FSLAX46Y46*%
G04 Gerber Fmt 4.6, Leading zero omitted, Abs format (unit mm)*
G04 Created by KiCad (PCBNEW 10.0.6) date 2026-09-16 08:51:03*
%MOMM*%
%LPD*%
G01*
G04 APERTURE LIST*
G04 Aperture macros list*
%AMRoundRect*
0 Rectangle with rounded corners*
0 $1 Rounding radius*
0 $2 $3 $4 $5 $6 $7 $8 $9 X,Y pos of 4 corners*
0 Add a 4 corners polygon primitive as box body*
4,1,4,$2,$3,$4,$5,$6,$7,$8,$9,$2,$3,0*
0 Add four circle primitives for the rounded corners*
1,1,$1+$1,$2,$3*
1,1,$1+$1,$4,$5*
1,1,$1+$1,$6,$7*
1,1,$1+$1,$8,$9*
0 Add four rect primitives between the rounded corners*
20,1,$1+$1,$2,$3,$4,$5,0*
20,1,$1+$1,$4,$5,$6,$7,0*
20,1,$1+$1,$6,$7,$8,$9,0*
20,1,$1+$1,$8,$9,$2,$3,0*%
G04 Aperture macros list end*
%ADD10R,1.700000X1.000000*%
%ADD11RoundRect,0.147500X-0.147500X-0.172500X0.147500X-0.172500X0.147500X0.172500X-0.147500X0.172500X0*%
%ADD12RoundRect,0.250000X-0.275000X-0.250000X0.275000X-0.250000X0.275000X0.250000X-0.275000X0.250000X0*%
%ADD13RoundRect,0.250000X-0.850000X-0.275000X0.850000X-0.275000X0.850000X0.275000X-0.850000X0.275000X0*%
%ADD14RoundRect,0.225000X-0.225000X-0.250000X0.225000X-0.250000X0.225000X0.250000X-0.225000X0.250000X0*%
%ADD15RoundRect,0.135000X-0.135000X-0.185000X0.135000X-0.185000X0.135000X0.185000X-0.135000X0.185000X0*%
%ADD16R,0.600000X1.524000*%
%ADD17R,1.200000X0.700000*%
%ADD18RoundRect,0.150000X-0.587500X-0.150000X0.587500X-0.150000X0.587500X0.150000X-0.587500X0.150000X0*%
%ADD19RoundRect,0.125000X-0.125000X-0.125000X0.125000X-0.125000X0.125000X0.125000X-0.125000X0.125000X0*%
%ADD20RoundRect,0.062500X-0.350000X-0.062500X0.350000X-0.062500X0.350000X0.062500X-0.350000X0.062500X0*%
%ADD21RoundRect,0.062500X-0.062500X-0.350000X0.062500X-0.350000X0.062500X0.350000X-0.062500X0.350000X0*%
%ADD22RoundRect,0.140000X-0.140000X-0.170000X0.140000X-0.170000X0.140000X0.170000X-0.140000X0.170000X0*%
%ADD23RoundRect,0.250000X-0.250000X-1.500000X0.250000X-1.500000X0.250000X1.500000X-0.250000X1.500000X0*%
%ADD24RoundRect,0.250001X-0.499999X-1.449999X0.499999X-1.449999X0.499999X1.449999X-0.499999X1.449999X0*%
%ADD25RoundRect,0.135000X0.185000X-0.135000X0.185000X0.135000X-0.185000X0.135000X-0.185000X-0.135000X0*%
%ADD26RoundRect,0.087500X-0.225000X-0.087500X0.225000X-0.087500X0.225000X0.087500X-0.225000X0.087500X0*%
%ADD27RoundRect,0.087500X-0.087500X-0.225000X0.087500X-0.225000X0.087500X0.225000X-0.087500X0.225000X0*%
%ADD28RoundRect,0.225000X-0.225000X-0.375000X0.225000X-0.375000X0.225000X0.375000X-0.225000X0.375000X0*%
G04 APERTURE END LIST*
D10*
G04 #@! TO.C,SW2*
X25550000Y-9700000D03*
X31850000Y-9700000D03*
X25550000Y-5900000D03*
X31850000Y-5900000D03*
G04 #@! TD*
D11*
G04 #@! TO.C,L1*
X46715000Y3600000D03*
X47685000Y3600000D03*
G04 #@! TD*
D12*
G04 #@! TO.C,J3*
X46350000Y0D03*
D13*
X47875000Y1475000D03*
X47875000Y-1475000D03*
G04 #@! TD*
D14*
G04 #@! TO.C,C6*
X34475000Y5500000D03*
X36025000Y5500000D03*
G04 #@! TD*
D15*
G04 #@! TO.C,R11*
X35990000Y-6750000D03*
X37010000Y-6750000D03*
G04 #@! TD*
D14*
G04 #@! TO.C,C1*
X34475000Y3500000D03*
X36025000Y3500000D03*
G04 #@! TD*
D16*
G04 #@! TO.C,SW1*
X39450000Y3703500D03*
X42450000Y3703500D03*
X43950000Y3703500D03*
D17*
X38100000Y7103500D03*
X38100000Y4803500D03*
X45300000Y7103500D03*
X45300000Y4803500D03*
G04 #@! TD*
D15*
G04 #@! TO.C,R10*
X21240000Y-250000D03*
X22260000Y-250000D03*
G04 #@! TD*
G04 #@! TO.C,R5*
X33740000Y-8000000D03*
X34760000Y-8000000D03*
G04 #@! TD*
D18*
G04 #@! TO.C,Q3*
X30562500Y-2450000D03*
X30562500Y-550000D03*
X32437500Y-1500000D03*
G04 #@! TD*
D19*
G04 #@! TO.C,U4*
X26632500Y-1940000D03*
X26632500Y-2560000D03*
X27252500Y-1940000D03*
X27252500Y-2560000D03*
D20*
X25505000Y-3000000D03*
X25505000Y-2500000D03*
X25505000Y-2000000D03*
X25505000Y-1500000D03*
D21*
X26192500Y-812500D03*
X26692500Y-812500D03*
X27192500Y-812500D03*
X27692500Y-812500D03*
D20*
X28380000Y-1500000D03*
X28380000Y-2000000D03*
X28380000Y-2500000D03*
X28380000Y-3000000D03*
D21*
X27692500Y-3687500D03*
X27192500Y-3687500D03*
X26692500Y-3687500D03*
X26192500Y-3687500D03*
G04 #@! TD*
D22*
G04 #@! TO.C,C3*
X34270000Y7000000D03*
X35230000Y7000000D03*
G04 #@! TD*
D15*
G04 #@! TO.C,R7*
X17740000Y-1000000D03*
X18760000Y-1000000D03*
G04 #@! TD*
D18*
G04 #@! TO.C,Q1*
X35062500Y-200000D03*
X35062500Y1700000D03*
X36937500Y750000D03*
G04 #@! TD*
D22*
G04 #@! TO.C,C4*
X15520000Y-1000000D03*
X16480000Y-1000000D03*
G04 #@! TD*
D15*
G04 #@! TO.C,R1*
X42990000Y2000000D03*
X44010000Y2000000D03*
G04 #@! TD*
D18*
G04 #@! TO.C,Q2*
X40812500Y-4450000D03*
X40812500Y-2550000D03*
X42687500Y-3500000D03*
G04 #@! TD*
D23*
G04 #@! TO.C,J4*
X27700000Y2950000D03*
X29700000Y2950000D03*
D24*
X25350000Y8700000D03*
X32050000Y8700000D03*
G04 #@! TD*
D25*
G04 #@! TO.C,R6*
X23600000Y-810000D03*
X23600000Y210000D03*
G04 #@! TD*
D23*
G04 #@! TO.C,J1*
X18200000Y4150000D03*
X20200000Y4150000D03*
D24*
X15850000Y9900000D03*
X22550000Y9900000D03*
G04 #@! TD*
D22*
G04 #@! TO.C,C5*
X37020000Y-5000000D03*
X37980000Y-5000000D03*
G04 #@! TD*
D15*
G04 #@! TO.C,R9*
X33740000Y-9250000D03*
X34760000Y-9250000D03*
G04 #@! TD*
D26*
G04 #@! TO.C,U2*
X39215000Y-750000D03*
X39215000Y-250000D03*
X39215000Y250000D03*
X39215000Y750000D03*
D27*
X39877500Y912500D03*
X40377500Y912500D03*
X40877500Y912500D03*
D26*
X41540000Y750000D03*
X41540000Y250000D03*
X41540000Y-250000D03*
X41540000Y-750000D03*
D27*
X40877500Y-912500D03*
X40377500Y-912500D03*
X39877500Y-912500D03*
G04 #@! TD*
D23*
G04 #@! TO.C,J5*
X18200000Y-9850000D03*
X20200000Y-9850000D03*
D24*
X15850000Y-4100000D03*
X22550000Y-4100000D03*
G04 #@! TD*
D28*
G04 #@! TO.C,D1*
X34622500Y-3000000D03*
X37922500Y-3000000D03*
G04 #@! TD*
D25*
G04 #@! TO.C,R3*
X20000000Y-1210000D03*
X20000000Y-190000D03*
G04 #@! TD*
D14*
G04 #@! TO.C,C2*
X33975000Y-5250000D03*
X35525000Y-5250000D03*
G04 #@! TD*
D15*
G04 #@! TO.C,R8*
X19490000Y1000000D03*
X20510000Y1000000D03*
G04 #@! TD*
G04 #@! TO.C,R4*
X33740000Y-6750000D03*
X34760000Y-6750000D03*
G04 #@! TD*
G04 #@! TO.C,R2*
X29990000Y-4000000D03*
X31010000Y-4000000D03*
G04 #@! TD*
M02*
