G04 #@! TF.GenerationSoftware,KiCad,Pcbnew,10.0.6*
G04 #@! TF.CreationDate,2026-09-16T08:51:03+03:00*
G04 #@! TF.ProjectId,wherewatch-carrier,77686572-6577-4617-9463-682d63617272,rev?*
G04 #@! TF.SameCoordinates,Original*
G04 #@! TF.FileFunction,Copper,L3,Inr*
G04 #@! TF.FilePolarity,Positive*
%FSLAX46Y46*%
G04 Gerber Fmt 4.6, Leading zero omitted, Abs format (unit mm)*
G04 Created by KiCad (PCBNEW 10.0.6) date 2026-09-16 08:51:03*
%MOMM*%
%LPD*%
G01*
G04 APERTURE LIST*
G04 #@! TA.AperFunction,ViaPad*
%ADD10C,0.600000*%
G04 #@! TD*
G04 #@! TA.AperFunction,Conductor*
%ADD11C,0.150000*%
G04 #@! TD*
G04 APERTURE END LIST*
D10*
G04 #@! TO.N,+3V3*
X42548700Y-309000D03*
X39031200Y2190600D03*
X35693900Y-2435800D03*
G04 #@! TO.N,GND*
X46399999Y5999999D03*
X40799999Y3199999D03*
X41967100Y2537600D03*
X49199999Y-2400000D03*
X37000000Y5500000D03*
X21199999Y10200000D03*
X39215000Y-1562500D03*
X43599999Y7399999D03*
X49199999Y3199999D03*
X28199999Y7399999D03*
X42199999Y-8000000D03*
X28199999Y8799999D03*
X36040000Y7000000D03*
X36599999Y7399999D03*
X42199999Y-6600000D03*
X21199999Y4599999D03*
X47799999Y-6600000D03*
X21199999Y7399999D03*
X44999999Y-5200000D03*
X38950000Y-6800000D03*
X49199999Y-3800000D03*
X35651900Y2599200D03*
X19799999Y7399999D03*
X18400000Y8799999D03*
X46399999Y-6600000D03*
X38790000Y-5000000D03*
X43599999Y-6600000D03*
X19799999Y8799999D03*
X42199999Y7399999D03*
X28380000Y-3692500D03*
X35792800Y4400000D03*
X44999999Y-1000000D03*
X26900000Y-5900000D03*
X49199999Y-5200000D03*
X43599999Y-8000000D03*
X43599999Y-5200000D03*
X49199999Y4599999D03*
X26692500Y-4600000D03*
X19799999Y10200000D03*
X18397700Y937100D03*
X35580000Y-9250000D03*
X44999999Y3199999D03*
X23999999Y10200000D03*
X19073800Y-1757600D03*
X17000000Y-10800000D03*
X40799999Y7399999D03*
X29687500Y-1425000D03*
X36599999Y8799999D03*
X29599999Y8799999D03*
X35199999Y8799999D03*
X27079500Y5411800D03*
X18400000Y10200000D03*
X48185800Y-4400000D03*
X47799999Y5999999D03*
X30602800Y-6416600D03*
X44999999Y-6600000D03*
X37999999Y8799999D03*
X19339000Y6228700D03*
X46399999Y-5200000D03*
X40527500Y250000D03*
X40377500Y1725000D03*
X21199999Y5999999D03*
X44999999Y-3800000D03*
X41452000Y1487000D03*
X30837200Y3682200D03*
X39399999Y7399999D03*
X47799999Y-5200000D03*
X26799999Y10200000D03*
X21610000Y1000000D03*
X18400000Y7399999D03*
X29599999Y7399999D03*
X22260000Y-1070000D03*
X45412800Y-2200000D03*
X21199999Y8799999D03*
X49475000Y1475000D03*
X33799999Y8799999D03*
X15600000Y-10800000D03*
X35151900Y-4349200D03*
X42050000Y-2550000D03*
X44999999Y5999999D03*
X49475000Y-1475000D03*
G04 #@! TO.N,SCL*
X37237800Y-7971800D03*
X18713100Y-6286500D03*
X43260300Y-2167300D03*
G04 #@! TO.N,SDA*
X39012700Y-8893000D03*
X20856200Y-5540500D03*
G04 #@! TO.N,GNSS_EN*
X20048000Y-2528900D03*
X39695200Y-6312700D03*
G04 #@! TO.N,GNSS_RF*
X48424700Y-3091300D03*
G04 #@! TO.N,VCC_RF*
X44879300Y27500D03*
G04 #@! TO.N,VBAT_SENSE*
X18410200Y6494500D03*
G04 #@! TO.N,BTN*
X37785400Y-5826300D03*
X30407600Y-8259100D03*
G04 #@! TO.N,VIB_IN*
X18954200Y-3134800D03*
G04 #@! TO.N,I2S_BCLK*
X25504300Y-4563800D03*
G04 #@! TO.N,I2S_LRCLK*
X28329600Y-4545400D03*
G04 #@! TO.N,I2S_DIN*
X23699500Y-1911700D03*
G04 #@! TO.N,VBUS*
X30158600Y256400D03*
G04 #@! TO.N,VBAT*
X22165000Y-1891800D03*
X29990400Y-5810900D03*
G04 #@! TO.N,VBUS_DET*
X20963000Y-3228400D03*
X40801000Y-3427700D03*
X29147800Y-5941000D03*
G04 #@! TO.N,VIB_IN_R*
X20670700Y-1944800D03*
X30590100Y-1468500D03*
G04 #@! TO.N,SPK_P*
X24114600Y-6043400D03*
X28549500Y-715700D03*
G04 #@! TO.N,BAT_RAW*
X21743100Y3149800D03*
X42472400Y1066600D03*
X35044900Y858500D03*
G04 #@! TD*
G04 #@! TO.N,SCL*
D11*
X36667300Y-7401300D02*
X37237800Y-7971800D01*
X18713100Y-6286500D02*
X19827900Y-7401300D01*
X19827900Y-7401300D02*
X36667300Y-7401300D01*
G04 #@! TO.N,SDA*
X39012700Y-8893000D02*
X37140400Y-7020700D01*
X22336400Y-7020700D02*
X20856200Y-5540500D01*
X37140400Y-7020700D02*
X22336400Y-7020700D01*
G04 #@! TO.N,VBAT*
X22165000Y-1891800D02*
X23714800Y-3441600D01*
X23714800Y-3441600D02*
X26349800Y-3441600D01*
X29364700Y-5185200D02*
X29990400Y-5810900D01*
X26349800Y-3441600D02*
X28093400Y-5185200D01*
X28093400Y-5185200D02*
X29364700Y-5185200D01*
G04 #@! TO.N,VBUS_DET*
X29147800Y-5941000D02*
X28228200Y-5941000D01*
X28228200Y-5941000D02*
X27603500Y-5316300D01*
X27603500Y-5316300D02*
X23050900Y-5316300D01*
X23050900Y-5316300D02*
X20963000Y-3228400D01*
G04 #@! TO.N,VIB_IN_R*
X28970300Y-2020300D02*
X30038300Y-2020300D01*
X27443300Y-493300D02*
X28970300Y-2020300D01*
X20670700Y-1944800D02*
X20670700Y-1835800D01*
X30038300Y-2020300D02*
X30590100Y-1468500D01*
X20670700Y-1835800D02*
X22013200Y-493300D01*
X22013200Y-493300D02*
X27443300Y-493300D01*
G04 #@! TO.N,BAT_RAW*
X35044900Y887600D02*
X35044900Y858500D01*
X42293400Y887600D02*
X35044900Y887600D01*
X35044900Y887600D02*
X24005300Y887600D01*
X42472400Y1066600D02*
X42293400Y887600D01*
X24005300Y887600D02*
X21743100Y3149800D01*
G04 #@! TD*
G04 #@! TA.AperFunction,Conductor*
G04 #@! TO.N,GND*
G36*
X15149999Y12463321D02*
G01*
X15649998Y12403101D01*
X15649999Y12403101D01*
X16149999Y12342880D01*
X16149998Y12342879D01*
X17150000Y12222440D01*
X17650000Y12162220D01*
X18149999Y12102000D01*
X18150000Y12102000D01*
X18650000Y12041779D01*
X18649999Y12041778D01*
X19150000Y11981559D01*
X19650000Y11921339D01*
X20149999Y11861119D01*
X20150000Y11861119D01*
X20650000Y11800898D01*
X20649999Y11800897D01*
X21150000Y11740678D01*
X21650000Y11680458D01*
X22149999Y11620238D01*
X22150000Y11620238D01*
X22650000Y11560017D01*
X22649999Y11560016D01*
X23150000Y11499797D01*
X24150000Y11379357D01*
X24649999Y11319137D01*
X24650000Y11319137D01*
X25150000Y11258916D01*
X25149999Y11258915D01*
X25650000Y11198696D01*
X26150000Y11138476D01*
X26649999Y11078256D01*
X26650000Y11078256D01*
X27150000Y11018035D01*
X27149999Y11018034D01*
X27650000Y10957815D01*
X28650000Y10837375D01*
X29149999Y10777155D01*
X29150000Y10777155D01*
X29650000Y10716934D01*
X29649999Y10716933D01*
X30150000Y10656714D01*
X30650000Y10596494D01*
X31149999Y10536274D01*
X31150000Y10536274D01*
X31650000Y10476053D01*
X31649999Y10476052D01*
X32150000Y10415833D01*
X33150000Y10295393D01*
X33649999Y10235173D01*
X33650000Y10235173D01*
X34150000Y10174952D01*
X34149999Y10174951D01*
X34650000Y10114732D01*
X35150000Y10054512D01*
X35649999Y9994292D01*
X35650000Y9994292D01*
X36150000Y9934071D01*
X36149999Y9934070D01*
X36650000Y9873851D01*
X37150000Y9813631D01*
X37649999Y9753411D01*
X37650000Y9753411D01*
X38150000Y9693190D01*
X38149999Y9693189D01*
X38650000Y9632970D01*
X39650000Y9512530D01*
X40149999Y9452310D01*
X40150000Y9452310D01*
X40650000Y9392089D01*
X40649999Y9392088D01*
X41150000Y9331869D01*
X41216808Y9323822D01*
X41636734Y9273246D01*
X41662615Y9267263D01*
X41999995Y9150000D01*
X42000000Y9149999D01*
X42792068Y9115417D01*
X42802844Y9114474D01*
X43583507Y9011697D01*
X43594160Y9009819D01*
X44362907Y8839393D01*
X44373357Y8836593D01*
X45124323Y8599814D01*
X45134488Y8596114D01*
X45861958Y8294786D01*
X45871762Y8290214D01*
X46570192Y7926634D01*
X46579560Y7921226D01*
X47243661Y7498147D01*
X47252522Y7491942D01*
X47877213Y7012599D01*
X47885500Y7005645D01*
X48466035Y6473684D01*
X48473684Y6466035D01*
X49005645Y5885500D01*
X49012599Y5877213D01*
X49491942Y5252522D01*
X49498147Y5243661D01*
X49921226Y4579559D01*
X49926634Y4570191D01*
X50290214Y3871762D01*
X50294786Y3861958D01*
X50596114Y3134488D01*
X50599814Y3124323D01*
X50836593Y2373357D01*
X50839393Y2362907D01*
X51009819Y1594160D01*
X51011697Y1583507D01*
X51114474Y802844D01*
X51115417Y792068D01*
X51149763Y5409D01*
X51149763Y-5409D01*
X51115417Y-792068D01*
X51114474Y-802844D01*
X51011697Y-1583507D01*
X51009819Y-1594160D01*
X50839393Y-2362907D01*
X50836593Y-2373357D01*
X50599814Y-3124323D01*
X50596114Y-3134488D01*
X50294786Y-3861958D01*
X50290214Y-3871762D01*
X49926634Y-4570191D01*
X49921226Y-4579559D01*
X49498147Y-5243661D01*
X49491942Y-5252522D01*
X49012599Y-5877213D01*
X49005645Y-5885500D01*
X48473684Y-6466035D01*
X48466035Y-6473684D01*
X47885500Y-7005645D01*
X47877213Y-7012599D01*
X47252522Y-7491942D01*
X47243661Y-7498147D01*
X46579560Y-7921226D01*
X46570192Y-7926634D01*
X45871762Y-8290214D01*
X45861958Y-8294786D01*
X45134488Y-8596114D01*
X45124323Y-8599814D01*
X44373357Y-8836593D01*
X44362907Y-8839393D01*
X43594160Y-9009819D01*
X43583507Y-9011697D01*
X42802844Y-9114474D01*
X42792068Y-9115417D01*
X42284168Y-9137592D01*
X42000000Y-9150000D01*
X41999999Y-9150000D01*
X41509129Y-9287163D01*
X41490586Y-9290848D01*
X41062685Y-9342385D01*
X41000000Y-9349935D01*
X40499999Y-9410154D01*
X40500000Y-9410155D01*
X40000000Y-9470376D01*
X39999999Y-9470376D01*
X39500000Y-9530596D01*
X39355206Y-9548034D01*
X39286293Y-9536507D01*
X39234553Y-9489553D01*
X39216412Y-9422079D01*
X39237629Y-9355509D01*
X39278378Y-9317538D01*
X39320014Y-9293500D01*
X39413200Y-9200314D01*
X39479092Y-9086186D01*
X39513200Y-8958892D01*
X39513200Y-8827108D01*
X39479092Y-8699814D01*
X39413200Y-8585686D01*
X39320014Y-8492500D01*
X39250363Y-8452287D01*
X39205887Y-8426608D01*
X39114073Y-8402007D01*
X39078592Y-8392500D01*
X38953178Y-8392500D01*
X38886139Y-8372815D01*
X38865497Y-8356181D01*
X37296457Y-6787142D01*
X37277023Y-6779093D01*
X37277022Y-6779092D01*
X37195202Y-6745200D01*
X37195200Y-6745200D01*
X24362822Y-6745200D01*
X24295783Y-6725515D01*
X24250028Y-6672711D01*
X24240084Y-6603553D01*
X24269109Y-6539997D01*
X24300822Y-6513813D01*
X24324748Y-6499998D01*
X24421914Y-6443900D01*
X24515100Y-6350714D01*
X24580992Y-6236586D01*
X24615100Y-6109292D01*
X24615100Y-5977508D01*
X24580992Y-5850214D01*
X24579608Y-5847816D01*
X24539184Y-5777800D01*
X24522711Y-5709900D01*
X24545563Y-5643873D01*
X24600484Y-5600683D01*
X24646571Y-5591800D01*
X27438023Y-5591800D01*
X27505062Y-5611485D01*
X27525704Y-5628119D01*
X28072138Y-6174555D01*
X28072139Y-6174555D01*
X28072141Y-6174557D01*
X28101795Y-6186839D01*
X28101797Y-6186841D01*
X28101798Y-6186841D01*
X28122770Y-6195527D01*
X28173400Y-6216500D01*
X28664124Y-6216500D01*
X28731163Y-6236185D01*
X28751805Y-6252819D01*
X28840486Y-6341500D01*
X28954614Y-6407392D01*
X29081908Y-6441500D01*
X29081910Y-6441500D01*
X29213690Y-6441500D01*
X29213692Y-6441500D01*
X29340986Y-6407392D01*
X29455114Y-6341500D01*
X29548300Y-6248314D01*
X29548302Y-6248309D01*
X29553756Y-6242856D01*
X29615079Y-6209371D01*
X29684771Y-6214355D01*
X29703431Y-6223146D01*
X29797214Y-6277292D01*
X29924508Y-6311400D01*
X29924510Y-6311400D01*
X30056290Y-6311400D01*
X30056292Y-6311400D01*
X30183586Y-6277292D01*
X30297714Y-6211400D01*
X30390900Y-6118214D01*
X30456792Y-6004086D01*
X30490900Y-5876792D01*
X30490900Y-5760408D01*
X37284900Y-5760408D01*
X37284900Y-5892191D01*
X37319008Y-6019487D01*
X37331429Y-6041000D01*
X37384900Y-6133614D01*
X37478086Y-6226800D01*
X37592214Y-6292692D01*
X37719508Y-6326800D01*
X37719510Y-6326800D01*
X37851290Y-6326800D01*
X37851292Y-6326800D01*
X37978586Y-6292692D01*
X38058059Y-6246808D01*
X39194700Y-6246808D01*
X39194700Y-6378592D01*
X39197188Y-6387876D01*
X39228808Y-6505887D01*
X39248502Y-6539997D01*
X39294700Y-6620014D01*
X39387886Y-6713200D01*
X39502014Y-6779092D01*
X39629308Y-6813200D01*
X39629310Y-6813200D01*
X39761090Y-6813200D01*
X39761092Y-6813200D01*
X39888386Y-6779092D01*
X40002514Y-6713200D01*
X40095700Y-6620014D01*
X40161592Y-6505886D01*
X40195700Y-6378592D01*
X40195700Y-6246808D01*
X40161592Y-6119514D01*
X40160841Y-6118214D01*
X40146464Y-6093312D01*
X40095700Y-6005386D01*
X40002514Y-5912200D01*
X39941182Y-5876790D01*
X39888387Y-5846308D01*
X39790605Y-5820108D01*
X39761092Y-5812200D01*
X39629308Y-5812200D01*
X39502012Y-5846308D01*
X39387886Y-5912200D01*
X39387883Y-5912202D01*
X39294702Y-6005383D01*
X39294700Y-6005386D01*
X39228808Y-6119512D01*
X39220371Y-6151000D01*
X39194700Y-6246808D01*
X38058059Y-6246808D01*
X38092714Y-6226800D01*
X38185900Y-6133614D01*
X38251792Y-6019486D01*
X38285900Y-5892192D01*
X38285900Y-5760408D01*
X38251792Y-5633114D01*
X38185900Y-5518986D01*
X38092714Y-5425800D01*
X38035650Y-5392854D01*
X37978587Y-5359908D01*
X37914939Y-5342854D01*
X37851292Y-5325800D01*
X37719508Y-5325800D01*
X37592212Y-5359908D01*
X37478086Y-5425800D01*
X37478083Y-5425802D01*
X37384902Y-5518983D01*
X37384900Y-5518986D01*
X37319008Y-5633112D01*
X37284900Y-5760408D01*
X30490900Y-5760408D01*
X30490900Y-5745008D01*
X30456792Y-5617714D01*
X30390900Y-5503586D01*
X30297714Y-5410400D01*
X30210260Y-5359908D01*
X30183587Y-5344508D01*
X30091773Y-5319907D01*
X30056292Y-5310400D01*
X29930878Y-5310400D01*
X29863839Y-5290715D01*
X29843197Y-5274081D01*
X29520758Y-4951643D01*
X29517733Y-4950390D01*
X29506893Y-4945900D01*
X29506892Y-4945899D01*
X29419500Y-4909700D01*
X28910693Y-4909700D01*
X28843654Y-4890015D01*
X28797899Y-4837211D01*
X28787955Y-4768053D01*
X28794015Y-4745959D01*
X28795989Y-4738590D01*
X28795992Y-4738586D01*
X28830100Y-4611292D01*
X28830100Y-4479508D01*
X28795992Y-4352214D01*
X28730100Y-4238086D01*
X28636914Y-4144900D01*
X28554656Y-4097408D01*
X28522787Y-4079008D01*
X28459139Y-4061954D01*
X28395492Y-4044900D01*
X28263708Y-4044900D01*
X28136412Y-4079008D01*
X28022286Y-4144900D01*
X28022283Y-4144902D01*
X27929102Y-4238083D01*
X27929095Y-4238092D01*
X27865977Y-4347414D01*
X27815410Y-4395629D01*
X27746802Y-4408851D01*
X27681938Y-4382883D01*
X27670910Y-4373094D01*
X27226015Y-3928199D01*
X26659623Y-3361808D01*
X40300500Y-3361808D01*
X40300500Y-3493592D01*
X40311787Y-3535716D01*
X40334608Y-3620887D01*
X40342929Y-3635299D01*
X40400500Y-3735014D01*
X40493686Y-3828200D01*
X40607814Y-3894092D01*
X40735108Y-3928200D01*
X40735110Y-3928200D01*
X40866890Y-3928200D01*
X40866892Y-3928200D01*
X40994186Y-3894092D01*
X41108314Y-3828200D01*
X41201500Y-3735014D01*
X41267392Y-3620886D01*
X41301500Y-3493592D01*
X41301500Y-3361808D01*
X41267392Y-3234514D01*
X41201500Y-3120386D01*
X41108314Y-3027200D01*
X41105210Y-3025408D01*
X47924200Y-3025408D01*
X47924200Y-3157192D01*
X47935855Y-3200690D01*
X47958308Y-3284487D01*
X47983423Y-3327986D01*
X48024200Y-3398614D01*
X48117386Y-3491800D01*
X48231514Y-3557692D01*
X48358808Y-3591800D01*
X48358810Y-3591800D01*
X48490590Y-3591800D01*
X48490592Y-3591800D01*
X48617886Y-3557692D01*
X48732014Y-3491800D01*
X48825200Y-3398614D01*
X48891092Y-3284486D01*
X48925200Y-3157192D01*
X48925200Y-3025408D01*
X48891092Y-2898114D01*
X48825200Y-2783986D01*
X48732014Y-2690800D01*
X48669326Y-2654607D01*
X48617887Y-2624908D01*
X48505490Y-2594792D01*
X48490592Y-2590800D01*
X48358808Y-2590800D01*
X48231512Y-2624908D01*
X48117386Y-2690800D01*
X48117383Y-2690802D01*
X48024202Y-2783983D01*
X48024200Y-2783986D01*
X47958308Y-2898112D01*
X47932270Y-2995289D01*
X47924200Y-3025408D01*
X41105210Y-3025408D01*
X41051250Y-2994254D01*
X40994187Y-2961308D01*
X40900850Y-2936299D01*
X40866892Y-2927200D01*
X40735108Y-2927200D01*
X40607812Y-2961308D01*
X40493686Y-3027200D01*
X40493683Y-3027202D01*
X40400502Y-3120383D01*
X40400500Y-3120386D01*
X40334608Y-3234512D01*
X40313235Y-3314280D01*
X40300500Y-3361808D01*
X26659623Y-3361808D01*
X26505858Y-3208043D01*
X26488111Y-3200692D01*
X26404600Y-3166100D01*
X23880278Y-3166100D01*
X23813239Y-3146415D01*
X23792597Y-3129781D01*
X22701819Y-2039003D01*
X22668334Y-1977680D01*
X22665500Y-1951322D01*
X22665500Y-1845808D01*
X23199000Y-1845808D01*
X23199000Y-1977592D01*
X23207869Y-2010691D01*
X23233108Y-2104887D01*
X23246735Y-2128489D01*
X23299000Y-2219014D01*
X23392186Y-2312200D01*
X23506314Y-2378092D01*
X23633608Y-2412200D01*
X23633610Y-2412200D01*
X23765390Y-2412200D01*
X23765392Y-2412200D01*
X23892686Y-2378092D01*
X23906861Y-2369908D01*
X35193400Y-2369908D01*
X35193400Y-2501692D01*
X35199387Y-2524037D01*
X35227508Y-2628987D01*
X35230576Y-2634300D01*
X35293400Y-2743114D01*
X35386586Y-2836300D01*
X35500714Y-2902192D01*
X35628008Y-2936300D01*
X35628010Y-2936300D01*
X35759790Y-2936300D01*
X35759792Y-2936300D01*
X35887086Y-2902192D01*
X36001214Y-2836300D01*
X36094400Y-2743114D01*
X36160292Y-2628986D01*
X36194400Y-2501692D01*
X36194400Y-2369908D01*
X36160292Y-2242614D01*
X36094400Y-2128486D01*
X36067322Y-2101408D01*
X42759800Y-2101408D01*
X42759800Y-2233191D01*
X42793908Y-2360487D01*
X42812275Y-2392299D01*
X42859800Y-2474614D01*
X42952986Y-2567800D01*
X43067114Y-2633692D01*
X43194408Y-2667800D01*
X43194410Y-2667800D01*
X43326190Y-2667800D01*
X43326192Y-2667800D01*
X43453486Y-2633692D01*
X43567614Y-2567800D01*
X43660800Y-2474614D01*
X43726692Y-2360486D01*
X43760800Y-2233192D01*
X43760800Y-2101408D01*
X43726692Y-1974114D01*
X43723739Y-1969000D01*
X43713533Y-1951322D01*
X43660800Y-1859986D01*
X43567614Y-1766800D01*
X43485269Y-1719258D01*
X43453487Y-1700908D01*
X43376116Y-1680177D01*
X43326192Y-1666800D01*
X43194408Y-1666800D01*
X43067112Y-1700908D01*
X42952986Y-1766800D01*
X42952983Y-1766802D01*
X42859802Y-1859983D01*
X42859800Y-1859986D01*
X42793908Y-1974112D01*
X42759800Y-2101408D01*
X36067322Y-2101408D01*
X36001214Y-2035300D01*
X35944150Y-2002354D01*
X35887087Y-1969408D01*
X35819587Y-1951322D01*
X35759792Y-1935300D01*
X35628008Y-1935300D01*
X35500712Y-1969408D01*
X35386586Y-2035300D01*
X35386583Y-2035302D01*
X35293402Y-2128483D01*
X35293400Y-2128486D01*
X35227508Y-2242612D01*
X35196539Y-2358192D01*
X35193400Y-2369908D01*
X23906861Y-2369908D01*
X24006814Y-2312200D01*
X24100000Y-2219014D01*
X24165892Y-2104886D01*
X24200000Y-1977592D01*
X24200000Y-1845808D01*
X24165892Y-1718514D01*
X24100000Y-1604386D01*
X24006814Y-1511200D01*
X23949750Y-1478254D01*
X23892687Y-1445308D01*
X23818417Y-1425408D01*
X23765392Y-1411200D01*
X23633608Y-1411200D01*
X23506312Y-1445308D01*
X23392186Y-1511200D01*
X23392183Y-1511202D01*
X23299002Y-1604383D01*
X23299000Y-1604386D01*
X23233108Y-1718512D01*
X23199000Y-1845808D01*
X22665500Y-1845808D01*
X22665500Y-1825910D01*
X22665500Y-1825908D01*
X22631392Y-1698614D01*
X22565500Y-1584486D01*
X22472314Y-1491300D01*
X22390908Y-1444300D01*
X22358187Y-1425408D01*
X22273094Y-1402608D01*
X22230892Y-1391300D01*
X22099108Y-1391300D01*
X21971812Y-1425408D01*
X21857686Y-1491300D01*
X21857683Y-1491302D01*
X21764502Y-1584483D01*
X21764500Y-1584486D01*
X21698608Y-1698612D01*
X21677922Y-1775816D01*
X21664500Y-1825908D01*
X21664500Y-1957692D01*
X21678701Y-2010690D01*
X21698608Y-2084987D01*
X21729208Y-2137986D01*
X21764500Y-2199114D01*
X21857686Y-2292300D01*
X21971814Y-2358192D01*
X22099108Y-2392300D01*
X22099110Y-2392300D01*
X22224523Y-2392300D01*
X22291562Y-2411985D01*
X22312204Y-2428619D01*
X23558738Y-3675155D01*
X23558739Y-3675155D01*
X23558741Y-3675157D01*
X23588395Y-3687439D01*
X23588397Y-3687441D01*
X23588398Y-3687441D01*
X23606143Y-3694791D01*
X23660000Y-3717100D01*
X26184323Y-3717100D01*
X26251362Y-3736785D01*
X26272004Y-3753419D01*
X27347703Y-4829119D01*
X27381188Y-4890442D01*
X27376204Y-4960134D01*
X27334332Y-5016067D01*
X27268868Y-5040484D01*
X27260022Y-5040800D01*
X26021606Y-5040800D01*
X25954567Y-5021115D01*
X25908812Y-4968311D01*
X25898868Y-4899153D01*
X25914219Y-4854799D01*
X25924374Y-4837211D01*
X25970692Y-4756986D01*
X26004800Y-4629692D01*
X26004800Y-4497908D01*
X25970692Y-4370614D01*
X25904800Y-4256486D01*
X25811614Y-4163300D01*
X25754550Y-4130354D01*
X25697487Y-4097408D01*
X25628816Y-4079008D01*
X25570192Y-4063300D01*
X25438408Y-4063300D01*
X25311112Y-4097408D01*
X25196986Y-4163300D01*
X25196983Y-4163302D01*
X25103802Y-4256483D01*
X25103800Y-4256486D01*
X25037908Y-4370612D01*
X25008730Y-4479508D01*
X25003800Y-4497908D01*
X25003800Y-4629692D01*
X25020854Y-4693339D01*
X25037908Y-4756987D01*
X25094381Y-4854799D01*
X25110854Y-4922700D01*
X25088002Y-4988727D01*
X25033081Y-5031917D01*
X24986994Y-5040800D01*
X23216378Y-5040800D01*
X23149339Y-5021115D01*
X23128697Y-5004481D01*
X21499819Y-3375603D01*
X21466334Y-3314280D01*
X21463500Y-3287922D01*
X21463500Y-3162510D01*
X21463500Y-3162508D01*
X21429392Y-3035214D01*
X21423730Y-3025408D01*
X21391503Y-2969589D01*
X21363500Y-2921086D01*
X21270314Y-2827900D01*
X21211754Y-2794090D01*
X21156187Y-2762008D01*
X21085668Y-2743113D01*
X21028892Y-2727900D01*
X20897108Y-2727900D01*
X20769812Y-2762008D01*
X20714245Y-2794090D01*
X20646345Y-2810562D01*
X20580318Y-2787709D01*
X20537128Y-2732787D01*
X20530487Y-2663234D01*
X20532460Y-2654653D01*
X20548500Y-2594792D01*
X20548500Y-2569300D01*
X20568185Y-2502261D01*
X20620989Y-2456506D01*
X20672500Y-2445300D01*
X20736590Y-2445300D01*
X20736592Y-2445300D01*
X20863886Y-2411192D01*
X20978014Y-2345300D01*
X21071200Y-2252114D01*
X21137092Y-2137986D01*
X21171200Y-2010692D01*
X21171200Y-1878908D01*
X21157186Y-1826607D01*
X21158849Y-1756758D01*
X21189280Y-1706834D01*
X21404813Y-1491302D01*
X21828115Y-1068000D01*
X22090997Y-805119D01*
X22152320Y-771634D01*
X22178678Y-768800D01*
X27277823Y-768800D01*
X27344862Y-788485D01*
X27365504Y-805119D01*
X28814238Y-2253855D01*
X28814239Y-2253855D01*
X28814241Y-2253857D01*
X28843895Y-2266139D01*
X28843897Y-2266141D01*
X28843898Y-2266141D01*
X28864870Y-2274827D01*
X28915500Y-2295800D01*
X28915503Y-2295800D01*
X30093099Y-2295800D01*
X30093100Y-2295800D01*
X30194358Y-2253857D01*
X30271857Y-2176358D01*
X30442895Y-2005318D01*
X30504218Y-1971834D01*
X30530576Y-1969000D01*
X30655990Y-1969000D01*
X30655992Y-1969000D01*
X30783286Y-1934892D01*
X30897414Y-1869000D01*
X30990600Y-1775814D01*
X31056492Y-1661686D01*
X31090600Y-1534392D01*
X31090600Y-1402608D01*
X31056492Y-1275314D01*
X30990600Y-1161186D01*
X30897414Y-1068000D01*
X30819500Y-1023016D01*
X30783287Y-1002108D01*
X30719639Y-985054D01*
X30655992Y-968000D01*
X30524208Y-968000D01*
X30396912Y-1002108D01*
X30282786Y-1068000D01*
X30282783Y-1068002D01*
X30189602Y-1161183D01*
X30189600Y-1161186D01*
X30123708Y-1275312D01*
X30089600Y-1402608D01*
X30089600Y-1528022D01*
X30069915Y-1595061D01*
X30053285Y-1615699D01*
X29960502Y-1708482D01*
X29899182Y-1741966D01*
X29872823Y-1744800D01*
X29135778Y-1744800D01*
X29068739Y-1725115D01*
X29048097Y-1708481D01*
X28716860Y-1377244D01*
X28683375Y-1315921D01*
X28688359Y-1246229D01*
X28730231Y-1190296D01*
X28742541Y-1182176D01*
X28778901Y-1161183D01*
X28856814Y-1116200D01*
X28950000Y-1023014D01*
X29015892Y-908886D01*
X29050000Y-781592D01*
X29050000Y-649808D01*
X29015892Y-522514D01*
X28950000Y-408386D01*
X28856814Y-315200D01*
X28795522Y-279813D01*
X28742687Y-249308D01*
X28679039Y-232254D01*
X28615392Y-215200D01*
X28483608Y-215200D01*
X28356312Y-249308D01*
X28242186Y-315200D01*
X28242183Y-315202D01*
X28149002Y-408383D01*
X28149000Y-408386D01*
X28083023Y-522660D01*
X28032455Y-570875D01*
X27963848Y-584097D01*
X27898983Y-558129D01*
X27887960Y-548345D01*
X27599358Y-259743D01*
X27583004Y-252969D01*
X27583003Y-252968D01*
X27498100Y-217800D01*
X22068000Y-217800D01*
X21958400Y-217800D01*
X21958398Y-217800D01*
X21958396Y-217801D01*
X21857144Y-259739D01*
X21857142Y-259741D01*
X20708904Y-1407981D01*
X20647581Y-1441466D01*
X20621223Y-1444300D01*
X20604808Y-1444300D01*
X20477512Y-1478408D01*
X20363386Y-1544300D01*
X20363383Y-1544302D01*
X20270202Y-1637483D01*
X20270200Y-1637486D01*
X20204308Y-1751612D01*
X20170200Y-1878908D01*
X20170200Y-1904400D01*
X20150515Y-1971439D01*
X20097711Y-2017194D01*
X20046200Y-2028400D01*
X19982108Y-2028400D01*
X19854812Y-2062508D01*
X19740686Y-2128400D01*
X19740683Y-2128402D01*
X19647502Y-2221583D01*
X19647500Y-2221586D01*
X19581608Y-2335712D01*
X19561384Y-2411191D01*
X19547500Y-2463008D01*
X19547500Y-2594792D01*
X19557923Y-2633691D01*
X19581608Y-2722087D01*
X19604657Y-2762008D01*
X19647500Y-2836214D01*
X19740686Y-2929400D01*
X19839521Y-2986463D01*
X19854810Y-2995290D01*
X19854814Y-2995292D01*
X19982108Y-3029400D01*
X19982110Y-3029400D01*
X20113890Y-3029400D01*
X20113892Y-3029400D01*
X20241186Y-2995292D01*
X20296752Y-2963211D01*
X20364652Y-2946737D01*
X20430679Y-2969589D01*
X20473870Y-3024509D01*
X20480512Y-3094063D01*
X20478527Y-3102690D01*
X20462500Y-3162508D01*
X20462500Y-3294292D01*
X20472008Y-3329776D01*
X20496608Y-3421587D01*
X20508459Y-3442113D01*
X20562500Y-3535714D01*
X20655686Y-3628900D01*
X20769814Y-3694792D01*
X20897108Y-3728900D01*
X20897110Y-3728900D01*
X21022523Y-3728900D01*
X21089562Y-3748585D01*
X21110204Y-3765219D01*
X22894838Y-5549855D01*
X22894839Y-5549855D01*
X22894841Y-5549857D01*
X22924495Y-5562139D01*
X22924497Y-5562141D01*
X22924498Y-5562141D01*
X22945470Y-5570827D01*
X22996100Y-5591800D01*
X23582629Y-5591800D01*
X23649668Y-5611485D01*
X23695423Y-5664289D01*
X23705367Y-5733447D01*
X23690016Y-5777800D01*
X23648209Y-5850210D01*
X23648209Y-5850211D01*
X23648208Y-5850213D01*
X23648208Y-5850214D01*
X23614100Y-5977508D01*
X23614100Y-6109292D01*
X23625276Y-6151000D01*
X23648208Y-6236587D01*
X23654979Y-6248314D01*
X23714100Y-6350714D01*
X23807286Y-6443900D01*
X23869269Y-6479686D01*
X23928378Y-6513813D01*
X23976594Y-6564380D01*
X23989816Y-6632987D01*
X23963848Y-6697852D01*
X23906934Y-6738380D01*
X23866378Y-6745200D01*
X22501877Y-6745200D01*
X22434838Y-6725515D01*
X22414196Y-6708881D01*
X21393019Y-5687704D01*
X21359534Y-5626381D01*
X21356700Y-5600023D01*
X21356700Y-5474610D01*
X21356700Y-5474608D01*
X21322592Y-5347314D01*
X21256700Y-5233186D01*
X21163514Y-5140000D01*
X21106450Y-5107054D01*
X21049387Y-5074108D01*
X20985739Y-5057054D01*
X20922092Y-5040000D01*
X20790308Y-5040000D01*
X20663012Y-5074108D01*
X20548886Y-5140000D01*
X20548883Y-5140002D01*
X20455702Y-5233183D01*
X20455700Y-5233186D01*
X20389808Y-5347312D01*
X20355700Y-5474608D01*
X20355700Y-5606391D01*
X20389808Y-5733687D01*
X20405236Y-5760408D01*
X20455700Y-5847814D01*
X20548886Y-5941000D01*
X20615021Y-5979183D01*
X20660405Y-6005386D01*
X20663014Y-6006892D01*
X20790308Y-6041000D01*
X20790310Y-6041000D01*
X20915723Y-6041000D01*
X20982762Y-6060685D01*
X21003404Y-6077319D01*
X21840204Y-6914119D01*
X21873689Y-6975442D01*
X21868705Y-7045134D01*
X21826833Y-7101067D01*
X21761369Y-7125484D01*
X21752523Y-7125800D01*
X19993378Y-7125800D01*
X19926339Y-7106115D01*
X19905697Y-7089481D01*
X19249919Y-6433703D01*
X19216434Y-6372380D01*
X19213600Y-6346022D01*
X19213600Y-6220610D01*
X19213600Y-6220608D01*
X19179492Y-6093314D01*
X19113600Y-5979186D01*
X19020414Y-5886000D01*
X18954274Y-5847814D01*
X18906287Y-5820108D01*
X18842639Y-5803054D01*
X18778992Y-5786000D01*
X18647208Y-5786000D01*
X18519912Y-5820108D01*
X18405786Y-5886000D01*
X18405783Y-5886002D01*
X18312602Y-5979183D01*
X18312600Y-5979186D01*
X18246708Y-6093312D01*
X18212600Y-6220608D01*
X18212600Y-6352391D01*
X18246708Y-6479687D01*
X18266411Y-6513813D01*
X18312600Y-6593814D01*
X18405786Y-6687000D01*
X18519914Y-6752892D01*
X18647208Y-6787000D01*
X18647210Y-6787000D01*
X18772623Y-6787000D01*
X18839662Y-6806685D01*
X18860303Y-6823318D01*
X19671841Y-7634857D01*
X19696778Y-7645186D01*
X19773100Y-7676800D01*
X29982724Y-7676800D01*
X30049763Y-7696485D01*
X30095518Y-7749289D01*
X30105462Y-7818447D01*
X30076437Y-7882003D01*
X30070405Y-7888481D01*
X30007102Y-7951783D01*
X30007100Y-7951786D01*
X29941208Y-8065912D01*
X29907100Y-8193208D01*
X29907100Y-8324991D01*
X29941208Y-8452287D01*
X29964427Y-8492502D01*
X30007100Y-8566414D01*
X30100286Y-8659600D01*
X30214414Y-8725492D01*
X30341708Y-8759600D01*
X30341710Y-8759600D01*
X30473490Y-8759600D01*
X30473492Y-8759600D01*
X30600786Y-8725492D01*
X30714914Y-8659600D01*
X30808100Y-8566414D01*
X30873992Y-8452286D01*
X30908100Y-8324992D01*
X30908100Y-8193208D01*
X30873992Y-8065914D01*
X30808100Y-7951786D01*
X30744795Y-7888481D01*
X30711310Y-7827158D01*
X30716294Y-7757466D01*
X30758166Y-7701533D01*
X30823630Y-7677116D01*
X30832476Y-7676800D01*
X36501823Y-7676800D01*
X36568862Y-7696485D01*
X36589504Y-7713119D01*
X36700981Y-7824596D01*
X36734466Y-7885919D01*
X36737300Y-7912277D01*
X36737300Y-8037692D01*
X36744862Y-8065914D01*
X36771408Y-8164987D01*
X36782341Y-8183923D01*
X36837300Y-8279114D01*
X36930486Y-8372300D01*
X37044614Y-8438192D01*
X37171908Y-8472300D01*
X37171910Y-8472300D01*
X37303690Y-8472300D01*
X37303692Y-8472300D01*
X37430986Y-8438192D01*
X37545114Y-8372300D01*
X37638300Y-8279114D01*
X37693259Y-8183923D01*
X37743826Y-8135707D01*
X37812433Y-8122485D01*
X37877298Y-8148453D01*
X37888325Y-8158240D01*
X38475882Y-8745798D01*
X38509366Y-8807119D01*
X38512200Y-8833477D01*
X38512200Y-8958892D01*
X38519294Y-8985368D01*
X38546308Y-9086187D01*
X38575987Y-9137592D01*
X38612200Y-9200314D01*
X38705386Y-9293500D01*
X38819514Y-9359392D01*
X38851329Y-9367916D01*
X38910989Y-9404280D01*
X38941519Y-9467127D01*
X38933225Y-9536502D01*
X38888740Y-9590381D01*
X38834064Y-9610801D01*
X38500000Y-9651036D01*
X38000000Y-9711257D01*
X37999999Y-9711257D01*
X37500000Y-9771477D01*
X36500000Y-9891917D01*
X35999999Y-9952136D01*
X36000000Y-9952137D01*
X35500000Y-10012358D01*
X35499999Y-10012358D01*
X35000000Y-10072578D01*
X34500000Y-10132798D01*
X33999999Y-10193017D01*
X34000000Y-10193018D01*
X33500000Y-10253239D01*
X33499999Y-10253239D01*
X33000000Y-10313459D01*
X32000000Y-10433899D01*
X31499999Y-10494118D01*
X31500000Y-10494119D01*
X31000000Y-10554340D01*
X30999999Y-10554340D01*
X30500000Y-10614560D01*
X30000000Y-10674780D01*
X29499999Y-10734999D01*
X29500000Y-10735000D01*
X29000000Y-10795221D01*
X28999999Y-10795221D01*
X28500000Y-10855441D01*
X28000000Y-10915661D01*
X27499999Y-10975880D01*
X27500000Y-10975881D01*
X27000000Y-11036102D01*
X26999999Y-11036102D01*
X26500000Y-11096322D01*
X25500000Y-11216762D01*
X24999999Y-11276981D01*
X25000000Y-11276982D01*
X24500000Y-11337203D01*
X24499999Y-11337203D01*
X24000000Y-11397423D01*
X23500000Y-11457643D01*
X22999999Y-11517862D01*
X23000000Y-11517863D01*
X22500000Y-11578084D01*
X22499999Y-11578084D01*
X22000000Y-11638304D01*
X21000000Y-11758744D01*
X20499999Y-11818963D01*
X20500000Y-11818964D01*
X20000000Y-11879185D01*
X19999999Y-11879185D01*
X19500000Y-11939405D01*
X19000000Y-11999625D01*
X18499999Y-12059844D01*
X18500000Y-12059845D01*
X18000000Y-12120066D01*
X17999999Y-12120066D01*
X17500000Y-12180286D01*
X17000000Y-12240506D01*
X16499999Y-12300725D01*
X16500000Y-12300726D01*
X16000000Y-12360947D01*
X15999999Y-12360947D01*
X15500000Y-12421167D01*
X15136885Y-12464900D01*
X15067973Y-12453373D01*
X15016232Y-12406419D01*
X14998070Y-12343525D01*
X14994942Y-12120066D01*
X14868250Y-3068908D01*
X18453700Y-3068908D01*
X18453700Y-3200692D01*
X18470754Y-3264339D01*
X18487808Y-3327987D01*
X18488841Y-3329776D01*
X18553700Y-3442114D01*
X18646886Y-3535300D01*
X18761014Y-3601192D01*
X18888308Y-3635300D01*
X18888310Y-3635300D01*
X19020090Y-3635300D01*
X19020092Y-3635300D01*
X19147386Y-3601192D01*
X19261514Y-3535300D01*
X19354700Y-3442114D01*
X19420592Y-3327986D01*
X19454700Y-3200692D01*
X19454700Y-3068908D01*
X19420592Y-2941614D01*
X19413538Y-2929397D01*
X19408738Y-2921083D01*
X19354700Y-2827486D01*
X19261514Y-2734300D01*
X19204450Y-2701354D01*
X19147387Y-2668408D01*
X19083739Y-2651354D01*
X19020092Y-2634300D01*
X18888308Y-2634300D01*
X18761012Y-2668408D01*
X18646886Y-2734300D01*
X18646883Y-2734302D01*
X18553702Y-2827483D01*
X18553700Y-2827486D01*
X18487808Y-2941612D01*
X18464875Y-3027202D01*
X18453700Y-3068908D01*
X14868250Y-3068908D01*
X14780283Y3215691D01*
X21242600Y3215691D01*
X21242600Y3083908D01*
X21276708Y2956612D01*
X21342600Y2842486D01*
X21342602Y2842483D01*
X21435783Y2749302D01*
X21435786Y2749300D01*
X21549912Y2683408D01*
X21677208Y2649300D01*
X21802622Y2649300D01*
X21869661Y2629615D01*
X21890303Y2612981D01*
X23771743Y731542D01*
X23849240Y654044D01*
X23950499Y612100D01*
X23950500Y612100D01*
X29574154Y612100D01*
X29641193Y592415D01*
X29686948Y539611D01*
X29696892Y470453D01*
X29693929Y456007D01*
X29692208Y449587D01*
X29692208Y449586D01*
X29661455Y334813D01*
X29658100Y322291D01*
X29658100Y190508D01*
X29692208Y63212D01*
X29736136Y-12871D01*
X29758100Y-50914D01*
X29851286Y-144100D01*
X29965414Y-209992D01*
X30092708Y-244100D01*
X30092710Y-244100D01*
X30224490Y-244100D01*
X30224492Y-244100D01*
X30228194Y-243108D01*
X42048200Y-243108D01*
X42048200Y-374891D01*
X42082308Y-502187D01*
X42108955Y-548340D01*
X42148200Y-616314D01*
X42241386Y-709500D01*
X42355514Y-775392D01*
X42482808Y-809500D01*
X42482810Y-809500D01*
X42614590Y-809500D01*
X42614592Y-809500D01*
X42741886Y-775392D01*
X42856014Y-709500D01*
X42949200Y-616314D01*
X43015092Y-502186D01*
X43049200Y-374892D01*
X43049200Y-243108D01*
X43015092Y-115814D01*
X42949200Y-1686D01*
X42856014Y91500D01*
X42852739Y93391D01*
X44378800Y93391D01*
X44378800Y-38391D01*
X44412908Y-165687D01*
X44438488Y-209992D01*
X44478800Y-279814D01*
X44571986Y-373000D01*
X44686114Y-438892D01*
X44813408Y-473000D01*
X44813410Y-473000D01*
X44945190Y-473000D01*
X44945192Y-473000D01*
X45072486Y-438892D01*
X45186614Y-373000D01*
X45279800Y-279814D01*
X45345692Y-165686D01*
X45379800Y-38392D01*
X45379800Y93392D01*
X45345692Y220686D01*
X45279800Y334814D01*
X45186614Y428000D01*
X45072486Y493892D01*
X44945192Y528000D01*
X44813408Y528000D01*
X44686114Y493892D01*
X44571986Y428000D01*
X44478800Y334814D01*
X44445854Y277750D01*
X44412908Y220687D01*
X44378800Y93391D01*
X42852739Y93391D01*
X42741886Y157392D01*
X42614592Y191500D01*
X42482808Y191500D01*
X42355514Y157392D01*
X42241386Y91500D01*
X42241383Y91497D01*
X42148202Y-1683D01*
X42148200Y-1686D01*
X42082308Y-115812D01*
X42048200Y-243108D01*
X30228194Y-243108D01*
X30351786Y-209992D01*
X30465914Y-144100D01*
X30559100Y-50914D01*
X30624992Y63214D01*
X30659100Y190508D01*
X30659100Y322292D01*
X30624992Y449586D01*
X30624990Y449587D01*
X30623271Y456007D01*
X30624934Y525857D01*
X30664097Y583719D01*
X30728325Y611223D01*
X30743046Y612100D01*
X34537640Y612100D01*
X34604679Y592415D01*
X34638522Y556921D01*
X34639452Y557635D01*
X34644402Y551183D01*
X34737583Y458002D01*
X34737586Y458000D01*
X34851712Y392108D01*
X34979008Y358000D01*
X35110791Y358000D01*
X35110792Y358000D01*
X35174439Y375054D01*
X35238087Y392108D01*
X35300253Y428000D01*
X35352214Y458000D01*
X35445400Y551186D01*
X35445402Y551189D01*
X35450348Y557635D01*
X35451637Y556645D01*
X35495340Y598316D01*
X35552160Y612100D01*
X42225840Y612100D01*
X42273294Y602661D01*
X42279212Y600208D01*
X42279214Y600208D01*
X42279215Y600207D01*
X42279217Y600207D01*
X42406508Y566100D01*
X42538291Y566100D01*
X42538292Y566100D01*
X42636502Y592415D01*
X42665587Y600208D01*
X42722650Y633154D01*
X42779714Y666100D01*
X42872900Y759286D01*
X42938792Y873414D01*
X42972900Y1000708D01*
X42972900Y1132492D01*
X42938792Y1259786D01*
X42872900Y1373914D01*
X42779714Y1467100D01*
X42665586Y1532992D01*
X42538292Y1567100D01*
X42406508Y1567100D01*
X42279214Y1532992D01*
X42165086Y1467100D01*
X42071900Y1373914D01*
X42006009Y1259787D01*
X42006008Y1259786D01*
X42004728Y1255008D01*
X41968364Y1195347D01*
X41905518Y1164817D01*
X41884953Y1163100D01*
X35499477Y1163100D01*
X35432438Y1182785D01*
X35411796Y1199418D01*
X35411795Y1199419D01*
X35352214Y1259000D01*
X35238086Y1324892D01*
X35110792Y1359000D01*
X34979008Y1359000D01*
X34851714Y1324892D01*
X34737586Y1259000D01*
X34678005Y1199419D01*
X34678004Y1199418D01*
X34616680Y1165934D01*
X34590323Y1163100D01*
X24170777Y1163100D01*
X24103738Y1182785D01*
X24083096Y1199419D01*
X23602338Y1680177D01*
X23026023Y2256491D01*
X38530700Y2256491D01*
X38530700Y2124708D01*
X38564808Y1997412D01*
X38630700Y1883286D01*
X38630702Y1883283D01*
X38723883Y1790102D01*
X38723886Y1790100D01*
X38838012Y1724208D01*
X38965308Y1690100D01*
X39097091Y1690100D01*
X39097092Y1690100D01*
X39160739Y1707154D01*
X39224387Y1724208D01*
X39282442Y1757727D01*
X39338514Y1790100D01*
X39431700Y1883286D01*
X39497592Y1997414D01*
X39531700Y2124708D01*
X39531700Y2256492D01*
X39497592Y2383786D01*
X39431700Y2497914D01*
X39338514Y2591100D01*
X39224386Y2656992D01*
X39097092Y2691100D01*
X38965308Y2691100D01*
X38838014Y2656992D01*
X38723886Y2591100D01*
X38630700Y2497914D01*
X38597754Y2440850D01*
X38564808Y2383787D01*
X38530700Y2256491D01*
X23026023Y2256491D01*
X22279918Y3002595D01*
X22246434Y3063918D01*
X22243600Y3090276D01*
X22243600Y3215690D01*
X22243600Y3215692D01*
X22209492Y3342986D01*
X22143600Y3457114D01*
X22050414Y3550300D01*
X21936286Y3616192D01*
X21808992Y3650300D01*
X21677208Y3650300D01*
X21549914Y3616192D01*
X21435786Y3550300D01*
X21342600Y3457114D01*
X21316257Y3411486D01*
X21276708Y3342987D01*
X21242600Y3215691D01*
X14780283Y3215691D01*
X14742858Y5889428D01*
X39549499Y5889428D01*
X39574497Y5763761D01*
X39574499Y5763755D01*
X39623533Y5645375D01*
X39623538Y5645366D01*
X39694723Y5538831D01*
X39694726Y5538827D01*
X39785327Y5448226D01*
X39785331Y5448223D01*
X39891866Y5377038D01*
X39891875Y5377033D01*
X40010255Y5327999D01*
X40010261Y5327997D01*
X40135929Y5303000D01*
X40135931Y5303000D01*
X40264071Y5303000D01*
X40389738Y5327997D01*
X40389744Y5327999D01*
X40508124Y5377033D01*
X40508133Y5377038D01*
X40614668Y5448223D01*
X40614672Y5448226D01*
X40705273Y5538827D01*
X40705276Y5538831D01*
X40776461Y5645366D01*
X40776466Y5645375D01*
X40803286Y5710124D01*
X40825501Y5763756D01*
X40848070Y5877213D01*
X40850500Y5889428D01*
X42549499Y5889428D01*
X42574497Y5763761D01*
X42574499Y5763755D01*
X42623533Y5645375D01*
X42623538Y5645366D01*
X42694723Y5538831D01*
X42694726Y5538827D01*
X42785327Y5448226D01*
X42785331Y5448223D01*
X42891866Y5377038D01*
X42891875Y5377033D01*
X43010255Y5327999D01*
X43010261Y5327997D01*
X43135929Y5303000D01*
X43135931Y5303000D01*
X43264071Y5303000D01*
X43389738Y5327997D01*
X43389744Y5327999D01*
X43508124Y5377033D01*
X43508133Y5377038D01*
X43614668Y5448223D01*
X43614672Y5448226D01*
X43705273Y5538827D01*
X43705276Y5538831D01*
X43776461Y5645366D01*
X43776466Y5645375D01*
X43803286Y5710124D01*
X43825501Y5763756D01*
X43848070Y5877213D01*
X43850500Y5889428D01*
X43850500Y6017571D01*
X43825502Y6143238D01*
X43825501Y6143244D01*
X43776465Y6261627D01*
X43705276Y6368169D01*
X43614669Y6458776D01*
X43508127Y6529965D01*
X43389744Y6579001D01*
X43348615Y6587182D01*
X43264071Y6604000D01*
X43264069Y6604000D01*
X43135931Y6604000D01*
X43135929Y6604000D01*
X43010261Y6579002D01*
X43010256Y6579001D01*
X42918692Y6541074D01*
X42891875Y6529966D01*
X42891866Y6529961D01*
X42785331Y6458776D01*
X42785327Y6458773D01*
X42694726Y6368172D01*
X42694723Y6368168D01*
X42623538Y6261633D01*
X42623533Y6261624D01*
X42574499Y6143244D01*
X42574497Y6143238D01*
X42549500Y6017571D01*
X42549500Y5889428D01*
X42549499Y5889428D01*
X40850500Y5889428D01*
X40850500Y6017571D01*
X40825502Y6143238D01*
X40825501Y6143244D01*
X40776465Y6261627D01*
X40705276Y6368169D01*
X40614669Y6458776D01*
X40508127Y6529965D01*
X40389744Y6579001D01*
X40348615Y6587182D01*
X40264071Y6604000D01*
X40264069Y6604000D01*
X40135931Y6604000D01*
X40135929Y6604000D01*
X40010261Y6579002D01*
X40010256Y6579001D01*
X39918692Y6541074D01*
X39891875Y6529966D01*
X39891866Y6529961D01*
X39785331Y6458776D01*
X39785327Y6458773D01*
X39694726Y6368172D01*
X39694723Y6368168D01*
X39623538Y6261633D01*
X39623533Y6261624D01*
X39574499Y6143244D01*
X39574497Y6143238D01*
X39549500Y6017571D01*
X39549500Y5889428D01*
X39549499Y5889428D01*
X14742858Y5889428D01*
X14733466Y6560391D01*
X17909700Y6560391D01*
X17909700Y6428608D01*
X17943808Y6301312D01*
X18009700Y6187186D01*
X18009702Y6187183D01*
X18102883Y6094002D01*
X18102886Y6094000D01*
X18217012Y6028108D01*
X18344308Y5994000D01*
X18476091Y5994000D01*
X18476092Y5994000D01*
X18564061Y6017571D01*
X18603387Y6028108D01*
X18660450Y6061054D01*
X18717514Y6094000D01*
X18810700Y6187186D01*
X18876592Y6301314D01*
X18910700Y6428608D01*
X18910700Y6560392D01*
X18876592Y6687686D01*
X18810700Y6801814D01*
X18717514Y6895000D01*
X18603386Y6960892D01*
X18476092Y6995000D01*
X18344308Y6995000D01*
X18217014Y6960892D01*
X18102886Y6895000D01*
X18009700Y6801814D01*
X17976754Y6744750D01*
X17943808Y6687687D01*
X17943808Y6687686D01*
X17914687Y6579002D01*
X17909700Y6560391D01*
X14733466Y6560391D01*
X14651983Y12381739D01*
X14670727Y12449046D01*
X14722886Y12495535D01*
X14790798Y12506583D01*
X15149999Y12463321D01*
G37*
G04 #@! TD.AperFunction*
G04 #@! TD*
M02*
