M48
; DRILL file KiCad 10.0.6 date 2026-09-16T08:51:03
; FORMAT={-:-/ absolute / metric / decimal}
; #@! TF.CreationDate,2026-09-16T08:51:03+03:00
; #@! TF.GenerationSoftware,Kicad,Pcbnew,10.0.6
; #@! TF.FileFunction,Plated,1,4,PTH
FMAT,2
METRIC
; #@! TA.AperFunction,Plated,PTH,ViaDrill
T1C0.300
%
G90
G05
T1
X15.6Y-10.8
X17.0Y-10.8
X18.398Y0.937
X18.4Y10.2
X18.4Y8.8
X18.4Y7.4
X18.41Y6.494
X18.713Y-6.286
X18.954Y-3.135
X19.074Y-1.758
X19.339Y6.229
X19.8Y10.2
X19.8Y8.8
X19.8Y7.4
X20.048Y-2.529
X20.671Y-1.945
X20.856Y-5.54
X20.963Y-3.228
X21.2Y10.2
X21.2Y8.8
X21.2Y7.4
X21.2Y6.0
X21.2Y4.6
X21.61Y1.0
X21.743Y3.15
X22.165Y-1.892
X22.26Y-1.07
X23.7Y-1.912
X24.0Y10.2
X24.115Y-6.043
X25.504Y-4.564
X26.692Y-4.6
X26.8Y10.2
X26.9Y-5.9
X27.079Y5.412
X28.2Y8.8
X28.2Y7.4
X28.33Y-4.545
X28.38Y-3.692
X28.549Y-0.716
X29.148Y-5.941
X29.6Y8.8
X29.6Y7.4
X29.688Y-1.425
X29.99Y-5.811
X30.159Y0.256
X30.408Y-8.259
X30.59Y-1.468
X30.603Y-6.417
X30.837Y3.682
X33.8Y8.8
X35.045Y0.858
X35.152Y-4.349
X35.2Y8.8
X35.58Y-9.25
X35.652Y2.599
X35.694Y-2.436
X35.793Y4.4
X36.04Y7.0
X36.6Y8.8
X36.6Y7.4
X37.0Y5.5
X37.238Y-7.972
X37.785Y-5.826
X38.0Y8.8
X38.79Y-5.0
X38.95Y-6.8
X39.013Y-8.893
X39.031Y2.191
X39.215Y-1.562
X39.4Y7.4
X39.695Y-6.313
X40.377Y1.725
X40.527Y0.25
X40.8Y7.4
X40.8Y3.2
X40.801Y-3.428
X41.452Y1.487
X41.967Y2.538
X42.05Y-2.55
X42.2Y7.4
X42.2Y-6.6
X42.2Y-8.0
X42.472Y1.067
X42.549Y-0.309
X43.26Y-2.167
X43.6Y7.4
X43.6Y-5.2
X43.6Y-6.6
X43.6Y-8.0
X44.879Y0.028
X45.0Y6.0
X45.0Y3.2
X45.0Y-1.0
X45.0Y-3.8
X45.0Y-5.2
X45.0Y-6.6
X45.413Y-2.2
X46.4Y6.0
X46.4Y-5.2
X46.4Y-6.6
X47.8Y6.0
X47.8Y-5.2
X47.8Y-6.6
X48.186Y-4.4
X48.425Y-3.091
X49.2Y4.6
X49.2Y3.2
X49.2Y-2.4
X49.2Y-3.8
X49.2Y-5.2
X49.475Y1.475
X49.475Y-1.475
M30
