G04 #@! TF.GenerationSoftware,KiCad,Pcbnew,10.0.6*
G04 #@! TF.CreationDate,2026-09-16T10:43:09+03:00*
G04 #@! TF.ProjectId,wherewatch-carrier,77686572-6577-4617-9463-682d63617272,rev?*
G04 #@! TF.SameCoordinates,Original*
G04 #@! TF.FileFunction,Soldermask,Bot*
G04 #@! TF.FilePolarity,Negative*
%FSLAX46Y46*%
G04 Gerber Fmt 4.6, Leading zero omitted, Abs format (unit mm)*
G04 Created by KiCad (PCBNEW 10.0.6) date 2026-09-16 10:43:09*
%MOMM*%
%LPD*%
G01*
G04 APERTURE LIST*
G04 Aperture macros list*
%AMRoundRect*
0 Rectangle with rounded corners*
0 $1 Rounding radius*
0 $2 $3 $4 $5 $6 $7 $8 $9 X,Y pos of 4 corners*
0 Add a 4 corners polygon primitive as box body*
4,1,4,$2,$3,$4,$5,$6,$7,$8,$9,$2,$3,0*
0 Add four circle primitives for the rounded corners*
1,1,$1+$1,$2,$3*
1,1,$1+$1,$4,$5*
1,1,$1+$1,$6,$7*
1,1,$1+$1,$8,$9*
0 Add four rect primitives between the rounded corners*
20,1,$1+$1,$2,$3,$4,$5,0*
20,1,$1+$1,$4,$5,$6,$7,0*
20,1,$1+$1,$6,$7,$8,$9,0*
20,1,$1+$1,$8,$9,$2,$3,0*%
G04 Aperture macros list end*
%ADD10RoundRect,0.135000X0.185000X-0.135000X0.185000X0.135000X-0.185000X0.135000X-0.185000X-0.135000X0*%
%ADD11RoundRect,0.135000X-0.135000X-0.185000X0.135000X-0.185000X0.135000X0.185000X-0.135000X0.185000X0*%
%ADD12RoundRect,0.150000X-0.150000X-0.625000X0.150000X-0.625000X0.150000X0.625000X-0.150000X0.625000X0*%
%ADD13RoundRect,0.250000X-0.350000X-0.650000X0.350000X-0.650000X0.350000X0.650000X-0.350000X0.650000X0*%
%ADD14RoundRect,0.140000X-0.140000X-0.170000X0.140000X-0.170000X0.140000X0.170000X-0.140000X0.170000X0*%
%ADD15RoundRect,0.225000X-0.225000X-0.250000X0.225000X-0.250000X0.225000X0.250000X-0.225000X0.250000X0*%
%ADD16RoundRect,0.150000X-0.587500X-0.150000X0.587500X-0.150000X0.587500X0.150000X-0.587500X0.150000X0*%
%ADD17RoundRect,0.062500X-0.350000X-0.062500X0.350000X-0.062500X0.350000X0.062500X-0.350000X0.062500X0*%
%ADD18RoundRect,0.062500X-0.062500X-0.350000X0.062500X-0.350000X0.062500X0.350000X-0.062500X0.350000X0*%
%ADD19R,1.230000X1.230000*%
%ADD20RoundRect,0.087500X-0.225000X-0.087500X0.225000X-0.087500X0.225000X0.087500X-0.225000X0.087500X0*%
%ADD21RoundRect,0.087500X-0.087500X-0.225000X0.087500X-0.225000X0.087500X0.225000X-0.087500X0.225000X0*%
%ADD22RoundRect,0.250000X-0.275000X-0.250000X0.275000X-0.250000X0.275000X0.250000X-0.275000X0.250000X0*%
%ADD23RoundRect,0.250000X-0.850000X-0.275000X0.850000X-0.275000X0.850000X0.275000X-0.850000X0.275000X0*%
%ADD24RoundRect,0.225000X-0.225000X-0.375000X0.225000X-0.375000X0.225000X0.375000X-0.225000X0.375000X0*%
%ADD25R,1.700000X1.000000*%
%ADD26C,0.900000*%
%ADD27R,0.600000X1.524000*%
%ADD28R,1.200000X0.700000*%
G04 APERTURE END LIST*
G04 #@! TO.C,J3*
G36*
X46885000Y940000D02*
G01*
X48975000Y940000D01*
X48975000Y-940000D01*
X46885000Y-940000D01*
X46885000Y940000D01*
G37*
G04 #@! TD*
D10*
G04 #@! TO.C,R6*
X23600000Y-810000D03*
X23600000Y210000D03*
G04 #@! TD*
D11*
G04 #@! TO.C,R4*
X33740000Y-9500000D03*
X34760000Y-9500000D03*
G04 #@! TD*
D12*
G04 #@! TO.C,J5*
X18700000Y-9000000D03*
X19700000Y-9000000D03*
D13*
X17400000Y-5125000D03*
X21000000Y-5125000D03*
G04 #@! TD*
D14*
G04 #@! TO.C,C5*
X24020000Y2750000D03*
X24980000Y2750000D03*
G04 #@! TD*
D11*
G04 #@! TO.C,R1*
X42990000Y2000000D03*
X44010000Y2000000D03*
G04 #@! TD*
D15*
G04 #@! TO.C,C2*
X30225000Y-1000000D03*
X31775000Y-1000000D03*
G04 #@! TD*
D11*
G04 #@! TO.C,R7*
X18990000Y-2750000D03*
X20010000Y-2750000D03*
G04 #@! TD*
G04 #@! TO.C,R2*
X32240000Y500000D03*
X33260000Y500000D03*
G04 #@! TD*
D16*
G04 #@! TO.C,Q2*
X35062500Y-200000D03*
X35062500Y1700000D03*
X36937500Y750000D03*
G04 #@! TD*
D15*
G04 #@! TO.C,C6*
X30225000Y-3000000D03*
X31775000Y-3000000D03*
G04 #@! TD*
D17*
G04 #@! TO.C,U4*
X25505000Y-3000000D03*
X25505000Y-2500000D03*
X25505000Y-2000000D03*
X25505000Y-1500000D03*
D18*
X26192500Y-812500D03*
X26692500Y-812500D03*
X27192500Y-812500D03*
X27692500Y-812500D03*
D17*
X28380000Y-1500000D03*
X28380000Y-2000000D03*
X28380000Y-2500000D03*
X28380000Y-3000000D03*
D18*
X27692500Y-3687500D03*
X27192500Y-3687500D03*
X26692500Y-3687500D03*
X26192500Y-3687500D03*
D19*
X26942500Y-2250000D03*
G04 #@! TD*
D11*
G04 #@! TO.C,R8*
X21240000Y-750000D03*
X22260000Y-750000D03*
G04 #@! TD*
D12*
G04 #@! TO.C,J4*
X28200000Y3800000D03*
X29200000Y3800000D03*
D13*
X26900000Y7675000D03*
X30500000Y7675000D03*
G04 #@! TD*
D20*
G04 #@! TO.C,U2*
X39215000Y-750000D03*
X39215000Y-250000D03*
X39215000Y250000D03*
X39215000Y750000D03*
D21*
X39877500Y912500D03*
X40377500Y912500D03*
X40877500Y912500D03*
D20*
X41540000Y750000D03*
X41540000Y250000D03*
X41540000Y-250000D03*
X41540000Y-750000D03*
D21*
X40877500Y-912500D03*
X40377500Y-912500D03*
X39877500Y-912500D03*
G04 #@! TD*
D16*
G04 #@! TO.C,Q1*
X34312500Y4550000D03*
X34312500Y6450000D03*
X36187500Y5500000D03*
G04 #@! TD*
D22*
G04 #@! TO.C,J3*
X46350000Y0D03*
D23*
X47875000Y1475000D03*
X47875000Y-1475000D03*
G04 #@! TD*
D11*
G04 #@! TO.C,R9*
X22490000Y-2750000D03*
X23510000Y-2750000D03*
G04 #@! TD*
D16*
G04 #@! TO.C,Q3*
X16312500Y550000D03*
X16312500Y2450000D03*
X18187500Y1500000D03*
G04 #@! TD*
D11*
G04 #@! TO.C,R5*
X26740000Y750000D03*
X27760000Y750000D03*
G04 #@! TD*
G04 #@! TO.C,R11*
X21240000Y-11250000D03*
X22260000Y-11250000D03*
G04 #@! TD*
D15*
G04 #@! TO.C,C1*
X29225000Y1000000D03*
X30775000Y1000000D03*
G04 #@! TD*
D14*
G04 #@! TO.C,C4*
X16770000Y-2750000D03*
X17730000Y-2750000D03*
G04 #@! TD*
D11*
G04 #@! TO.C,R10*
X32240000Y1750000D03*
X33260000Y1750000D03*
G04 #@! TD*
D24*
G04 #@! TO.C,D1*
X32872500Y8750000D03*
X36172500Y8750000D03*
G04 #@! TD*
D12*
G04 #@! TO.C,J1*
X18700000Y5000000D03*
X19700000Y5000000D03*
D13*
X17400000Y8875000D03*
X21000000Y8875000D03*
G04 #@! TD*
D25*
G04 #@! TO.C,SW2*
X25550000Y-9700000D03*
X31850000Y-9700000D03*
X25550000Y-5900000D03*
X31850000Y-5900000D03*
G04 #@! TD*
D12*
G04 #@! TO.C,J6*
X35700000Y-7400000D03*
X36700000Y-7400000D03*
X37700000Y-7400000D03*
X38700000Y-7400000D03*
D13*
X34400000Y-3525000D03*
X40000000Y-3525000D03*
G04 #@! TD*
D14*
G04 #@! TO.C,C3*
X24520000Y1500000D03*
X25480000Y1500000D03*
G04 #@! TD*
D10*
G04 #@! TO.C,R3*
X20000000Y-1210000D03*
X20000000Y-190000D03*
G04 #@! TD*
D26*
G04 #@! TO.C,SW1*
X40200000Y5953500D03*
X43200000Y5953500D03*
D27*
X39450000Y3703500D03*
X42450000Y3703500D03*
X43950000Y3703500D03*
D28*
X38100000Y7103500D03*
X38100000Y4803500D03*
X45300000Y7103500D03*
X45300000Y4803500D03*
G04 #@! TD*
M02*
