G04 #@! TF.GenerationSoftware,KiCad,Pcbnew,10.0.6*
G04 #@! TF.CreationDate,2026-09-16T10:43:09+03:00*
G04 #@! TF.ProjectId,wherewatch-carrier,77686572-6577-4617-9463-682d63617272,rev?*
G04 #@! TF.SameCoordinates,Original*
G04 #@! TF.FileFunction,Legend,Top*
G04 #@! TF.FilePolarity,Positive*
%FSLAX46Y46*%
G04 Gerber Fmt 4.6, Leading zero omitted, Abs format (unit mm)*
G04 Created by KiCad (PCBNEW 10.0.6) date 2026-09-16 10:43:09*
%MOMM*%
%LPD*%
G01*
G04 APERTURE LIST*
G04 Aperture macros list*
%AMRoundRect*
0 Rectangle with rounded corners*
0 $1 Rounding radius*
0 $2 $3 $4 $5 $6 $7 $8 $9 X,Y pos of 4 corners*
0 Add a 4 corners polygon primitive as box body*
4,1,4,$2,$3,$4,$5,$6,$7,$8,$9,$2,$3,0*
0 Add four circle primitives for the rounded corners*
1,1,$1+$1,$2,$3*
1,1,$1+$1,$4,$5*
1,1,$1+$1,$6,$7*
1,1,$1+$1,$8,$9*
0 Add four rect primitives between the rounded corners*
20,1,$1+$1,$2,$3,$4,$5,0*
20,1,$1+$1,$4,$5,$6,$7,0*
20,1,$1+$1,$6,$7,$8,$9,0*
20,1,$1+$1,$8,$9,$2,$3,0*%
G04 Aperture macros list end*
%ADD10C,0.106680*%
%ADD11C,0.150000*%
%ADD12C,0.100000*%
%ADD13C,0.127000*%
%ADD14C,0.504000*%
%ADD15C,0.250000*%
%ADD16C,0.060000*%
%ADD17RoundRect,0.550800X-0.875000X-0.500000X0.875000X-0.500000X0.875000X0.500000X-0.875000X0.500000X0*%
%ADD18C,1.700000*%
%ADD19RoundRect,0.275000X0.975000X0.275000X-0.975000X0.275000X-0.975000X-0.275000X0.975000X-0.275000X0*%
%ADD20RoundRect,0.625000X-0.750000X-0.625000X0.750000X-0.625000X0.750000X0.625000X-0.750000X0.625000X0*%
%ADD21O,1.773000X0.700000*%
%ADD22RoundRect,0.147500X-0.147500X-0.172500X0.147500X-0.172500X0.147500X0.172500X-0.147500X0.172500X0*%
%ADD23C,0.900000*%
G04 APERTURE END LIST*
D10*
X22937950Y11039408D02*
X22937950Y10406102D01*
X22937950Y10406102D02*
X22975204Y10331595D01*
X22975204Y10331595D02*
X23012457Y10294342D01*
X23012457Y10294342D02*
X23086964Y10257088D01*
X23086964Y10257088D02*
X23235977Y10257088D01*
X23235977Y10257088D02*
X23310484Y10294342D01*
X23310484Y10294342D02*
X23347737Y10331595D01*
X23347737Y10331595D02*
X23384990Y10406102D01*
X23384990Y10406102D02*
X23384990Y11039408D01*
X24167310Y10257088D02*
X23720270Y10257088D01*
X23943790Y10257088D02*
X23943790Y11039408D01*
X23943790Y11039408D02*
X23869283Y10927648D01*
X23869283Y10927648D02*
X23794777Y10853142D01*
X23794777Y10853142D02*
X23720270Y10815888D01*
D11*
X32633119Y-761904D02*
X33442642Y-761904D01*
X33442642Y-761904D02*
X33537880Y-714285D01*
X33537880Y-714285D02*
X33585500Y-666666D01*
X33585500Y-666666D02*
X33633119Y-571428D01*
X33633119Y-571428D02*
X33633119Y-380952D01*
X33633119Y-380952D02*
X33585500Y-285714D01*
X33585500Y-285714D02*
X33537880Y-238095D01*
X33537880Y-238095D02*
X33442642Y-190476D01*
X33442642Y-190476D02*
X32633119Y-190476D01*
X32633119Y190476D02*
X32633119Y809523D01*
X32633119Y809523D02*
X33014071Y476190D01*
X33014071Y476190D02*
X33014071Y619047D01*
X33014071Y619047D02*
X33061690Y714285D01*
X33061690Y714285D02*
X33109309Y761904D01*
X33109309Y761904D02*
X33204547Y809523D01*
X33204547Y809523D02*
X33442642Y809523D01*
X33442642Y809523D02*
X33537880Y761904D01*
X33537880Y761904D02*
X33585500Y714285D01*
X33585500Y714285D02*
X33633119Y619047D01*
X33633119Y619047D02*
X33633119Y333333D01*
X33633119Y333333D02*
X33585500Y238095D01*
X33585500Y238095D02*
X33537880Y190476D01*
X49233333Y715180D02*
X48757143Y715180D01*
X48757143Y715180D02*
X48757143Y1715180D01*
X50090476Y715180D02*
X49519048Y715180D01*
X49804762Y715180D02*
X49804762Y1715180D01*
X49804762Y1715180D02*
X49709524Y1572323D01*
X49709524Y1572323D02*
X49614286Y1477085D01*
X49614286Y1477085D02*
X49519048Y1429466D01*
G04 #@! TO.C,U1*
D12*
X15569500Y-9193200D02*
X15569500Y7951800D01*
X17474500Y-11098200D02*
X31444500Y-11098200D01*
D13*
X19964500Y9856800D02*
X19968228Y10867072D01*
X20468228Y11366800D02*
X28463500Y11366800D01*
X28963500Y10866800D02*
X28963500Y9856800D01*
D12*
X31444500Y9856800D02*
X17474500Y9856800D01*
X33349500Y-9193200D02*
X33349500Y7951800D01*
X15569500Y7955800D02*
G75*
G02*
X17474500Y9860800I1905001J-1D01*
G01*
X17474500Y-11098200D02*
G75*
G02*
X15569500Y-9193200I0J1905000D01*
G01*
D13*
X19968228Y10867072D02*
G75*
G02*
X20468228Y11366802I500022J-292D01*
G01*
X28463500Y11366800D02*
G75*
G02*
X28963500Y10866800I0J-500000D01*
G01*
D12*
X31444500Y9856800D02*
G75*
G02*
X33349500Y7951800I0J-1905000D01*
G01*
X33349500Y-9193200D02*
G75*
G02*
X31444500Y-11098200I-1905000J0D01*
G01*
D14*
X15611500Y9440800D02*
G75*
G02*
X15107500Y9440800I-252000J0D01*
G01*
X15107500Y9440800D02*
G75*
G02*
X15611500Y9440800I252000J0D01*
G01*
X16828500Y8717800D02*
G75*
G02*
X16324500Y8717800I-252000J0D01*
G01*
X16324500Y8717800D02*
G75*
G02*
X16828500Y8717800I252000J0D01*
G01*
G04 #@! TO.C,U3*
D11*
X37059300Y5130000D02*
X37059300Y5130000D01*
X37059300Y5130000D02*
X46919300Y5130000D01*
X37059300Y4900000D02*
X37059300Y5130000D01*
X37059300Y-4900000D02*
X37059300Y-5130000D01*
X37059300Y-5130000D02*
X37059300Y-5130000D01*
X37059300Y-5130000D02*
X46919300Y-5130000D01*
X46919300Y5130000D02*
X46919300Y5130000D01*
X46919300Y5130000D02*
X46919300Y4900000D01*
X46919300Y-5130000D02*
X46919300Y-4900000D01*
X46919300Y-5130000D02*
X46919300Y-5130000D01*
D15*
X36079300Y4400000D02*
G75*
G02*
X35839300Y4400000I-120000J0D01*
G01*
X35839300Y4400000D02*
G75*
G02*
X36079300Y4400000I120000J0D01*
G01*
D16*
X37169300Y5050000D02*
G75*
G02*
X37109300Y5050000I-30000J0D01*
G01*
X37109300Y5050000D02*
G75*
G02*
X37169300Y5050000I30000J0D01*
G01*
G04 #@! TD*
%LPC*%
D17*
G04 #@! TO.C,U1*
X16404500Y6939800D03*
X16404500Y4399800D03*
X16404500Y1859800D03*
X16404500Y-680200D03*
X16404500Y-3220200D03*
X16404500Y-5760200D03*
X16404500Y-8300200D03*
X32569500Y-8300200D03*
X32569500Y-5760200D03*
X32569500Y-3220200D03*
X32569500Y-680200D03*
X32569500Y1859800D03*
X32569500Y4399800D03*
X32569500Y6939800D03*
D18*
X23189500Y7951800D03*
X25729500Y7951800D03*
X23189500Y5411800D03*
X25729500Y5411800D03*
X23189500Y2871800D03*
X25729500Y2871800D03*
X23189500Y331800D03*
X25729500Y331800D03*
D19*
X20014500Y-298200D03*
X20014500Y1606800D03*
D20*
X25579500Y-2680200D03*
G04 #@! TD*
D21*
G04 #@! TO.C,U3*
X37179300Y4400000D03*
X37179300Y3300000D03*
X37179300Y2200000D03*
X37179300Y1100000D03*
X37179300Y0D03*
X37179300Y-1100000D03*
X37179300Y-2200000D03*
X37179300Y-3300000D03*
X37179300Y-4400000D03*
X46799300Y-4400000D03*
X46799300Y-3300000D03*
X46799300Y-2200000D03*
X46799300Y-1100000D03*
X46799300Y0D03*
X46799300Y1100000D03*
X46799300Y2200000D03*
X46799300Y3300000D03*
X46799300Y4400000D03*
G04 #@! TD*
D22*
G04 #@! TO.C,L1*
X48915000Y0D03*
X49885000Y0D03*
G04 #@! TD*
D23*
G04 #@! TO.C,SW1*
X40200000Y5953500D03*
X43200000Y5953500D03*
G04 #@! TD*
%LPD*%
M02*
