G04 #@! TF.GenerationSoftware,KiCad,Pcbnew,10.0.6*
G04 #@! TF.CreationDate,2026-09-16T10:43:09+03:00*
G04 #@! TF.ProjectId,wherewatch-carrier,77686572-6577-4617-9463-682d63617272,rev?*
G04 #@! TF.SameCoordinates,Original*
G04 #@! TF.FileFunction,Copper,L2,Inr*
G04 #@! TF.FilePolarity,Positive*
%FSLAX46Y46*%
G04 Gerber Fmt 4.6, Leading zero omitted, Abs format (unit mm)*
G04 Created by KiCad (PCBNEW 10.0.6) date 2026-09-16 10:43:09*
%MOMM*%
%LPD*%
G01*
G04 APERTURE LIST*
G04 #@! TA.AperFunction,ViaPad*
%ADD10C,0.600000*%
G04 #@! TD*
G04 #@! TA.AperFunction,Conductor*
%ADD11C,0.150000*%
G04 #@! TD*
G04 APERTURE END LIST*
D10*
G04 #@! TO.N,VBAT_SENSE*
X21802500Y2760000D03*
G04 #@! TO.N,BTN*
X23143800Y-9581900D03*
X18577400Y3436600D03*
G04 #@! TO.N,GNSS_EN*
X21674800Y-2399300D03*
X38545100Y-2817500D03*
G04 #@! TO.N,VIB_IN*
X18367800Y-1664000D03*
G04 #@! TO.N,SDA*
X35822000Y-9204000D03*
X18883400Y-4840400D03*
G04 #@! TO.N,SCL*
X29024800Y-205700D03*
X38315900Y-5641300D03*
X40575200Y-1961100D03*
G04 #@! TO.N,GNSS_RX*
X28193200Y-7045400D03*
X35074800Y858700D03*
G04 #@! TO.N,I2S_BCLK*
X23832800Y-5989000D03*
G04 #@! TO.N,I2S_LRCLK*
X27987600Y-4683100D03*
G04 #@! TO.N,I2S_DIN*
X21802500Y438700D03*
G04 #@! TO.N,+3V3*
X38960300Y1962100D03*
X35733200Y-3488100D03*
X30345400Y2450300D03*
X41840400Y-1784200D03*
G04 #@! TO.N,GND*
X44999999Y-1000000D03*
X18400000Y-10800000D03*
X46399999Y-6600000D03*
X49199999Y-3800000D03*
X49475000Y-1475000D03*
X37999999Y5999999D03*
X28380000Y-3692500D03*
X40799999Y7399999D03*
X49199999Y3199999D03*
X40377500Y1725000D03*
X48185800Y-4400000D03*
X40527500Y250000D03*
X49199999Y-5200000D03*
X21764500Y1606800D03*
X35199999Y7399999D03*
X42199999Y7399999D03*
X39399999Y7399999D03*
X15600000Y-10800000D03*
X25399999Y10200000D03*
X42199999Y-5200000D03*
X43599999Y-6600000D03*
X28199999Y-8000000D03*
X28199999Y8799999D03*
X44999999Y399999D03*
X43599999Y-2400000D03*
X47799999Y-6600000D03*
X36700000Y-8675000D03*
X40799999Y3199999D03*
X49199999Y4599999D03*
X44999999Y5999999D03*
X40799999Y-6600000D03*
X44999999Y-6600000D03*
X28199999Y7399999D03*
X30602800Y-6416600D03*
X49475000Y1475000D03*
X26799999Y10200000D03*
X27079500Y5411800D03*
X40799999Y-8000000D03*
X45412800Y-2200000D03*
X26900000Y-5900000D03*
X29599999Y-6600000D03*
X34588900Y2843300D03*
X41967100Y2537600D03*
X19799999Y-10800000D03*
X42199999Y-6600000D03*
X19799999Y7399999D03*
X26692500Y-4600000D03*
X44999999Y-3800000D03*
X46399999Y5999999D03*
X42199999Y-3800000D03*
X19799999Y10200000D03*
X20830000Y-2750000D03*
X43599999Y-3800000D03*
X18656300Y-3676300D03*
X40799999Y-5200000D03*
X43599999Y-8000000D03*
X43599999Y-1000000D03*
X43599999Y399999D03*
X23999999Y10200000D03*
X30401900Y99200D03*
X46399999Y-5200000D03*
X36599999Y7399999D03*
X15600000Y10200000D03*
X29599999Y-8000000D03*
X44999999Y-5200000D03*
X39215000Y-1562500D03*
X15600000Y8799999D03*
X44999999Y3199999D03*
X41452000Y1487000D03*
X22599999Y-3800000D03*
X44999999Y1799999D03*
X47799999Y-5200000D03*
X20429549Y2653232D03*
X42199999Y-8000000D03*
X18400000Y7399999D03*
X30837200Y3682200D03*
X23510000Y-3570000D03*
X19799999Y-3800000D03*
X35792800Y4400000D03*
X43599999Y7399999D03*
X22573800Y-1507600D03*
X22599999Y10200000D03*
X20975000Y5000000D03*
X17000000Y-10800000D03*
X37999999Y8799999D03*
X43599999Y-5200000D03*
X47799999Y5999999D03*
X19799999Y8799999D03*
G04 #@! TO.N,VBUS*
X35399300Y2829200D03*
G04 #@! TO.N,VBAT*
X24504700Y-777000D03*
X34449500Y5374200D03*
G04 #@! TO.N,GNSS_RF*
X48424700Y-3091300D03*
G04 #@! TO.N,SPK_P*
X26161900Y-7693300D03*
X29687100Y-2002900D03*
G04 #@! TO.N,BAT_RAW*
X42472900Y1027800D03*
X29249100Y5989900D03*
X36104300Y6444300D03*
G04 #@! TD*
G04 #@! TO.N,BTN*
D11*
X23143800Y-9581900D02*
X22742800Y-9581900D01*
X17784300Y2643500D02*
X18577400Y3436600D01*
X17784300Y-4623400D02*
X17784300Y2643500D01*
X22742800Y-9581900D02*
X17784300Y-4623400D01*
G04 #@! TO.N,SCL*
X34836000Y1435400D02*
X32902900Y-497700D01*
X29316800Y-497700D02*
X29024800Y-205700D01*
X40387700Y-2148600D02*
X40575200Y-1961100D01*
X32902900Y-497700D02*
X29316800Y-497700D01*
X39126800Y-2148600D02*
X38897700Y-2148600D01*
X38897700Y-2148600D02*
X35313700Y1435400D01*
X38315900Y-5641300D02*
X39126800Y-4830400D01*
X39126800Y-2148600D02*
X40387700Y-2148600D01*
X35313700Y1435400D02*
X34836000Y1435400D01*
X39126800Y-4830400D02*
X39126800Y-2148600D01*
G04 #@! TO.N,GNSS_RX*
X35074800Y-163800D02*
X35074800Y858700D01*
X28193200Y-7045400D02*
X35074800Y-163800D01*
G04 #@! TO.N,+3V3*
X41840400Y-1784200D02*
X41746100Y-1784200D01*
X41746100Y-1784200D02*
X38960300Y1001600D01*
X38960300Y1001600D02*
X38960300Y1962100D01*
G04 #@! TO.N,VBAT*
X30655900Y5374200D02*
X34449500Y5374200D01*
X24504700Y-777000D02*
X30655900Y5374200D01*
G04 #@! TO.N,SPK_P*
X29687100Y-4168100D02*
X29687100Y-2002900D01*
X26161900Y-7693300D02*
X29687100Y-4168100D01*
G04 #@! TO.N,BAT_RAW*
X29331000Y6071800D02*
X29249100Y5989900D01*
X42355400Y910300D02*
X42472900Y1027800D01*
X39678600Y2209500D02*
X39678600Y1560700D01*
X35816300Y6156300D02*
X35816300Y6071800D01*
X39678600Y1560700D02*
X40329000Y910300D01*
X35816300Y6071800D02*
X29331000Y6071800D01*
X35816300Y6071800D02*
X39678600Y2209500D01*
X40329000Y910300D02*
X42355400Y910300D01*
X36104300Y6444300D02*
X35816300Y6156300D01*
G04 #@! TD*
G04 #@! TA.AperFunction,Conductor*
G04 #@! TO.N,GND*
G36*
X14734024Y12513420D02*
G01*
X15149998Y12463321D01*
X15149999Y12463321D01*
X15649999Y12403101D01*
X16149999Y12342880D01*
X16649999Y12282660D01*
X17150000Y12222440D01*
X18150000Y12102000D01*
X18650000Y12041779D01*
X20150000Y11861119D01*
X20650000Y11800898D01*
X22150000Y11620238D01*
X22650000Y11560017D01*
X24650000Y11319137D01*
X25150000Y11258916D01*
X26650000Y11078256D01*
X27150000Y11018035D01*
X29150000Y10777155D01*
X29650000Y10716934D01*
X31150000Y10536274D01*
X31650000Y10476053D01*
X33650000Y10235173D01*
X34150000Y10174952D01*
X35650000Y9994292D01*
X36150000Y9934071D01*
X37650000Y9753411D01*
X38150000Y9693190D01*
X40150000Y9452310D01*
X40650000Y9392089D01*
X41150000Y9331869D01*
X41642087Y9272602D01*
X41657530Y9269031D01*
X41785916Y9224408D01*
X41999996Y9150001D01*
X41999997Y9150000D01*
X42000000Y9150000D01*
X42412230Y9132001D01*
X42794251Y9115321D01*
X42800682Y9114758D01*
X43585678Y9011411D01*
X43592035Y9010290D01*
X44365040Y8838920D01*
X44371276Y8837249D01*
X45126400Y8599159D01*
X45132467Y8596951D01*
X45863973Y8293951D01*
X45869823Y8291223D01*
X46572134Y7925623D01*
X46577725Y7922395D01*
X47245501Y7496975D01*
X47250789Y7493272D01*
X47878934Y7011279D01*
X47883880Y7007130D01*
X48467644Y6472209D01*
X48472209Y6467644D01*
X49007130Y5883880D01*
X49011279Y5878934D01*
X49493272Y5250789D01*
X49496975Y5245501D01*
X49922395Y4577724D01*
X49925623Y4572133D01*
X50291223Y3869823D01*
X50293951Y3863973D01*
X50596951Y3132467D01*
X50599159Y3126400D01*
X50837249Y2371276D01*
X50838920Y2365040D01*
X51010290Y1592035D01*
X51011411Y1585678D01*
X51114758Y800682D01*
X51115321Y794251D01*
X51149859Y3228D01*
X51149859Y-3228D01*
X51115321Y-794251D01*
X51114758Y-800682D01*
X51011411Y-1585678D01*
X51010290Y-1592035D01*
X50838920Y-2365040D01*
X50837249Y-2371276D01*
X50599159Y-3126400D01*
X50596951Y-3132467D01*
X50293951Y-3863973D01*
X50291223Y-3869823D01*
X49925623Y-4572133D01*
X49922395Y-4577724D01*
X49496975Y-5245501D01*
X49493272Y-5250789D01*
X49011279Y-5878934D01*
X49007130Y-5883880D01*
X48472209Y-6467644D01*
X48467644Y-6472209D01*
X47883880Y-7007130D01*
X47878934Y-7011279D01*
X47250789Y-7493272D01*
X47245501Y-7496975D01*
X46577725Y-7922395D01*
X46572134Y-7925623D01*
X45869823Y-8291223D01*
X45863973Y-8293951D01*
X45132467Y-8596951D01*
X45126400Y-8599159D01*
X44371276Y-8837249D01*
X44365040Y-8838920D01*
X43592035Y-9010290D01*
X43585678Y-9011411D01*
X42800682Y-9114758D01*
X42794251Y-9115321D01*
X42000003Y-9149999D01*
X42000000Y-9150000D01*
X41505448Y-9288192D01*
X41494382Y-9290391D01*
X41000000Y-9349935D01*
X40500000Y-9410155D01*
X40000000Y-9470376D01*
X38500000Y-9651036D01*
X38000000Y-9711257D01*
X36000000Y-9952137D01*
X35500000Y-10012358D01*
X34000000Y-10193018D01*
X33500000Y-10253239D01*
X31500000Y-10494119D01*
X31000000Y-10554340D01*
X29500000Y-10735000D01*
X29000000Y-10795221D01*
X27500000Y-10975881D01*
X27000000Y-11036102D01*
X25000000Y-11276982D01*
X24500000Y-11337203D01*
X23000000Y-11517863D01*
X22500000Y-11578084D01*
X20500000Y-11818964D01*
X20000000Y-11879185D01*
X18500000Y-12059845D01*
X18000000Y-12120066D01*
X16500000Y-12300726D01*
X16000000Y-12360947D01*
X15500000Y-12421167D01*
X15081690Y-12471548D01*
X15027147Y-12456286D01*
X14999372Y-12406928D01*
X14998848Y-12399115D01*
X14994099Y-12059845D01*
X14787525Y2698300D01*
X17508800Y2698300D01*
X17508800Y-4678200D01*
X17548693Y-4774508D01*
X17550743Y-4779458D01*
X22509243Y-9737958D01*
X22586742Y-9815457D01*
X22688000Y-9857400D01*
X22688001Y-9857400D01*
X22695149Y-9858822D01*
X22694439Y-9862388D01*
X22734721Y-9879074D01*
X22741098Y-9886345D01*
X22743296Y-9889209D01*
X22743298Y-9889211D01*
X22743300Y-9889214D01*
X22836486Y-9982400D01*
X22950614Y-10048292D01*
X23077905Y-10082399D01*
X23077906Y-10082400D01*
X23077908Y-10082400D01*
X23209694Y-10082400D01*
X23209694Y-10082399D01*
X23336986Y-10048292D01*
X23451114Y-9982400D01*
X23544300Y-9889214D01*
X23610192Y-9775086D01*
X23644299Y-9647794D01*
X23644300Y-9647794D01*
X23644300Y-9516006D01*
X23644299Y-9516005D01*
X23610193Y-9388718D01*
X23610192Y-9388714D01*
X23544300Y-9274586D01*
X23451114Y-9181400D01*
X23396726Y-9149999D01*
X23376125Y-9138105D01*
X35321500Y-9138105D01*
X35321500Y-9269894D01*
X35355606Y-9397181D01*
X35355610Y-9397190D01*
X35382704Y-9444117D01*
X35421500Y-9511314D01*
X35514686Y-9604500D01*
X35628814Y-9670392D01*
X35756105Y-9704499D01*
X35756106Y-9704500D01*
X35756108Y-9704500D01*
X35887894Y-9704500D01*
X35887894Y-9704499D01*
X36015186Y-9670392D01*
X36129314Y-9604500D01*
X36222500Y-9511314D01*
X36288392Y-9397186D01*
X36322499Y-9269894D01*
X36322500Y-9269894D01*
X36322500Y-9138106D01*
X36322499Y-9138105D01*
X36288393Y-9010818D01*
X36288392Y-9010814D01*
X36222500Y-8896686D01*
X36129314Y-8803500D01*
X36016565Y-8738404D01*
X36015190Y-8737610D01*
X36015181Y-8737606D01*
X35887894Y-8703500D01*
X35887892Y-8703500D01*
X35756108Y-8703500D01*
X35756106Y-8703500D01*
X35628818Y-8737606D01*
X35628809Y-8737610D01*
X35514685Y-8803500D01*
X35421500Y-8896685D01*
X35355610Y-9010809D01*
X35355606Y-9010818D01*
X35321500Y-9138105D01*
X23376125Y-9138105D01*
X23336990Y-9115510D01*
X23336981Y-9115506D01*
X23209694Y-9081400D01*
X23209692Y-9081400D01*
X23077908Y-9081400D01*
X23077906Y-9081400D01*
X22950618Y-9115506D01*
X22950609Y-9115510D01*
X22836483Y-9181401D01*
X22832637Y-9184353D01*
X22831833Y-9183306D01*
X22784189Y-9203033D01*
X22731874Y-9181359D01*
X21177920Y-7627405D01*
X25661400Y-7627405D01*
X25661400Y-7759194D01*
X25695506Y-7886481D01*
X25695507Y-7886484D01*
X25695508Y-7886486D01*
X25761400Y-8000614D01*
X25854586Y-8093800D01*
X25968714Y-8159692D01*
X26096005Y-8193799D01*
X26096006Y-8193800D01*
X26096008Y-8193800D01*
X26227794Y-8193800D01*
X26227794Y-8193799D01*
X26355086Y-8159692D01*
X26469214Y-8093800D01*
X26562400Y-8000614D01*
X26628292Y-7886486D01*
X26662399Y-7759194D01*
X26662400Y-7759194D01*
X26662400Y-7627403D01*
X26661929Y-7623825D01*
X26676589Y-7569119D01*
X26682962Y-7561851D01*
X27265309Y-6979505D01*
X27692700Y-6979505D01*
X27692700Y-7111294D01*
X27726806Y-7238581D01*
X27726810Y-7238590D01*
X27792700Y-7352714D01*
X27885886Y-7445900D01*
X28000014Y-7511792D01*
X28127305Y-7545899D01*
X28127306Y-7545900D01*
X28127308Y-7545900D01*
X28259094Y-7545900D01*
X28259094Y-7545899D01*
X28386386Y-7511792D01*
X28500514Y-7445900D01*
X28593700Y-7352714D01*
X28659592Y-7238586D01*
X28693699Y-7111294D01*
X28693700Y-7111294D01*
X28693700Y-6979503D01*
X28693229Y-6975925D01*
X28707889Y-6921219D01*
X28714262Y-6913951D01*
X32206010Y-3422205D01*
X35232700Y-3422205D01*
X35232700Y-3553994D01*
X35266806Y-3681281D01*
X35266807Y-3681284D01*
X35266808Y-3681286D01*
X35332700Y-3795414D01*
X35425886Y-3888600D01*
X35540014Y-3954492D01*
X35667305Y-3988599D01*
X35667306Y-3988600D01*
X35667308Y-3988600D01*
X35799094Y-3988600D01*
X35799094Y-3988599D01*
X35926386Y-3954492D01*
X36040514Y-3888600D01*
X36133700Y-3795414D01*
X36199592Y-3681286D01*
X36233699Y-3553994D01*
X36233700Y-3553994D01*
X36233700Y-3422206D01*
X36233699Y-3422205D01*
X36205777Y-3317999D01*
X36199592Y-3294914D01*
X36133700Y-3180786D01*
X36040514Y-3087600D01*
X35932795Y-3025408D01*
X35926390Y-3021710D01*
X35926381Y-3021706D01*
X35799094Y-2987600D01*
X35799092Y-2987600D01*
X35667308Y-2987600D01*
X35667306Y-2987600D01*
X35540018Y-3021706D01*
X35540009Y-3021710D01*
X35425885Y-3087600D01*
X35332700Y-3180785D01*
X35266810Y-3294909D01*
X35266806Y-3294918D01*
X35232700Y-3422205D01*
X32206010Y-3422205D01*
X35308357Y-319859D01*
X35325860Y-277603D01*
X35327064Y-274696D01*
X35327064Y-274695D01*
X35350300Y-218600D01*
X35350300Y397294D01*
X35371974Y449620D01*
X35379239Y455993D01*
X35382109Y458196D01*
X35382111Y458198D01*
X35382114Y458200D01*
X35475300Y551386D01*
X35541192Y665514D01*
X35541193Y665520D01*
X35543046Y669992D01*
X35545509Y668971D01*
X35574755Y707119D01*
X35630904Y714536D01*
X35664108Y695375D01*
X38550158Y-2190674D01*
X38571832Y-2243000D01*
X38550158Y-2295326D01*
X38497832Y-2317000D01*
X38479206Y-2317000D01*
X38351918Y-2351106D01*
X38351909Y-2351110D01*
X38237785Y-2417000D01*
X38144600Y-2510185D01*
X38078710Y-2624309D01*
X38078706Y-2624318D01*
X38044600Y-2751605D01*
X38044600Y-2883394D01*
X38078706Y-3010681D01*
X38078710Y-3010690D01*
X38087208Y-3025408D01*
X38144600Y-3124814D01*
X38237786Y-3218000D01*
X38351914Y-3283892D01*
X38479205Y-3317999D01*
X38479206Y-3318000D01*
X38479208Y-3318000D01*
X38610994Y-3318000D01*
X38610994Y-3317999D01*
X38738286Y-3283892D01*
X38740297Y-3282731D01*
X38741456Y-3282578D01*
X38742771Y-3282034D01*
X38742916Y-3282385D01*
X38796450Y-3275336D01*
X38841384Y-3309812D01*
X38851300Y-3346815D01*
X38851300Y-4685631D01*
X38829626Y-4737957D01*
X38447353Y-5120229D01*
X38395027Y-5141903D01*
X38385376Y-5141271D01*
X38381795Y-5140800D01*
X38381792Y-5140800D01*
X38250008Y-5140800D01*
X38250006Y-5140800D01*
X38122718Y-5174906D01*
X38122709Y-5174910D01*
X38008585Y-5240800D01*
X37915400Y-5333985D01*
X37849510Y-5448109D01*
X37849506Y-5448118D01*
X37815400Y-5575405D01*
X37815400Y-5707194D01*
X37849506Y-5834481D01*
X37849507Y-5834484D01*
X37849508Y-5834486D01*
X37915400Y-5948614D01*
X38008586Y-6041800D01*
X38122714Y-6107692D01*
X38250005Y-6141799D01*
X38250006Y-6141800D01*
X38250008Y-6141800D01*
X38381794Y-6141800D01*
X38381794Y-6141799D01*
X38509086Y-6107692D01*
X38623214Y-6041800D01*
X38716400Y-5948614D01*
X38782292Y-5834486D01*
X38816399Y-5707194D01*
X38816400Y-5707194D01*
X38816400Y-5575411D01*
X38815929Y-5571837D01*
X38830582Y-5517128D01*
X38836961Y-5509853D01*
X39360358Y-4986458D01*
X39402300Y-4885200D01*
X39402300Y-4775600D01*
X39402300Y-3025405D01*
X47924200Y-3025405D01*
X47924200Y-3157194D01*
X47958306Y-3284481D01*
X47958310Y-3284490D01*
X47964331Y-3294918D01*
X48024200Y-3398614D01*
X48117386Y-3491800D01*
X48231514Y-3557692D01*
X48358805Y-3591799D01*
X48358806Y-3591800D01*
X48358808Y-3591800D01*
X48490594Y-3591800D01*
X48490594Y-3591799D01*
X48617886Y-3557692D01*
X48732014Y-3491800D01*
X48825200Y-3398614D01*
X48891092Y-3284486D01*
X48925199Y-3157194D01*
X48925200Y-3157194D01*
X48925200Y-3025406D01*
X48925199Y-3025405D01*
X48924208Y-3021708D01*
X48891092Y-2898114D01*
X48825200Y-2783986D01*
X48732014Y-2690800D01*
X48617890Y-2624910D01*
X48617881Y-2624906D01*
X48490594Y-2590800D01*
X48490592Y-2590800D01*
X48358808Y-2590800D01*
X48358806Y-2590800D01*
X48231518Y-2624906D01*
X48231509Y-2624910D01*
X48117385Y-2690800D01*
X48024200Y-2783985D01*
X47958310Y-2898109D01*
X47958306Y-2898118D01*
X47924200Y-3025405D01*
X39402300Y-3025405D01*
X39402300Y-2498100D01*
X39423974Y-2445774D01*
X39476300Y-2424100D01*
X40359613Y-2424100D01*
X40378766Y-2426621D01*
X40382011Y-2427490D01*
X40382014Y-2427492D01*
X40509308Y-2461600D01*
X40509309Y-2461600D01*
X40641094Y-2461600D01*
X40641094Y-2461599D01*
X40768386Y-2427492D01*
X40882514Y-2361600D01*
X40975700Y-2268414D01*
X41041592Y-2154286D01*
X41075699Y-2026994D01*
X41075700Y-2026994D01*
X41075700Y-1895206D01*
X41075699Y-1895205D01*
X41041593Y-1767918D01*
X41041592Y-1767914D01*
X40975700Y-1653786D01*
X40882514Y-1560600D01*
X40781709Y-1502400D01*
X40768390Y-1494710D01*
X40768381Y-1494706D01*
X40641094Y-1460600D01*
X40641092Y-1460600D01*
X40509308Y-1460600D01*
X40509306Y-1460600D01*
X40382018Y-1494706D01*
X40382009Y-1494710D01*
X40267885Y-1560600D01*
X40174700Y-1653785D01*
X40108810Y-1767909D01*
X40108808Y-1767913D01*
X40108808Y-1767914D01*
X40095319Y-1818253D01*
X40060842Y-1863186D01*
X40023842Y-1873100D01*
X39042468Y-1873100D01*
X38990142Y-1851426D01*
X38416215Y-1277499D01*
X35469758Y1668957D01*
X35368500Y1710900D01*
X34781200Y1710900D01*
X34710539Y1681631D01*
X34679941Y1668957D01*
X34679940Y1668956D01*
X32810459Y-200526D01*
X32758133Y-222200D01*
X29599300Y-222200D01*
X29546974Y-200526D01*
X29525300Y-148200D01*
X29525300Y-139806D01*
X29525299Y-139805D01*
X29501151Y-49684D01*
X29491192Y-12514D01*
X29425300Y101614D01*
X29332114Y194800D01*
X29217986Y260692D01*
X29168595Y273926D01*
X29090694Y294800D01*
X29090692Y294800D01*
X28958908Y294800D01*
X28958906Y294800D01*
X28846654Y264722D01*
X28831614Y260692D01*
X28717486Y194800D01*
X28717485Y194799D01*
X28624300Y101614D01*
X28558410Y-12509D01*
X28558406Y-12518D01*
X28524300Y-139805D01*
X28524300Y-271594D01*
X28558406Y-398881D01*
X28558410Y-398890D01*
X28624300Y-513014D01*
X28717486Y-606200D01*
X28831614Y-672092D01*
X28958905Y-706199D01*
X28958906Y-706200D01*
X28958908Y-706200D01*
X29090691Y-706200D01*
X29090692Y-706200D01*
X29090692Y-706199D01*
X29094269Y-705729D01*
X29148977Y-720388D01*
X29156254Y-726770D01*
X29160741Y-731257D01*
X29160740Y-731257D01*
X29190399Y-743541D01*
X29262000Y-773200D01*
X32957698Y-773200D01*
X32957700Y-773200D01*
X33058958Y-731257D01*
X33136457Y-653758D01*
X33136456Y-653758D01*
X33171417Y-618797D01*
X33171416Y-618797D01*
X34485512Y695296D01*
X34537838Y716970D01*
X34590164Y695296D01*
X34605119Y669399D01*
X34606553Y669993D01*
X34608408Y665512D01*
X34674300Y551385D01*
X34767490Y458196D01*
X34770361Y455993D01*
X34798669Y406938D01*
X34799300Y397294D01*
X34799300Y-19031D01*
X34777626Y-71357D01*
X28324654Y-6524329D01*
X28272328Y-6546003D01*
X28262678Y-6545371D01*
X28259097Y-6544900D01*
X28259092Y-6544900D01*
X28127308Y-6544900D01*
X28127306Y-6544900D01*
X28000018Y-6579006D01*
X28000009Y-6579010D01*
X27885885Y-6644900D01*
X27792700Y-6738085D01*
X27726810Y-6852209D01*
X27726806Y-6852218D01*
X27692700Y-6979505D01*
X27265309Y-6979505D01*
X29920658Y-4324158D01*
X29962600Y-4222900D01*
X29962600Y-4113300D01*
X29962600Y-2464304D01*
X29984274Y-2411978D01*
X29991556Y-2405593D01*
X29994412Y-2403401D01*
X29994411Y-2403401D01*
X29994414Y-2403400D01*
X30087600Y-2310214D01*
X30153492Y-2196086D01*
X30187599Y-2068794D01*
X30187600Y-2068794D01*
X30187600Y-1937006D01*
X30187599Y-1937005D01*
X30164668Y-1851426D01*
X30153492Y-1809714D01*
X30087600Y-1695586D01*
X29994414Y-1602400D01*
X29965451Y-1585678D01*
X29880290Y-1536510D01*
X29880281Y-1536506D01*
X29752994Y-1502400D01*
X29752992Y-1502400D01*
X29621208Y-1502400D01*
X29621206Y-1502400D01*
X29493918Y-1536506D01*
X29493909Y-1536510D01*
X29379785Y-1602400D01*
X29286600Y-1695585D01*
X29220710Y-1809709D01*
X29220706Y-1809718D01*
X29186600Y-1937005D01*
X29186600Y-2068794D01*
X29220706Y-2196081D01*
X29220710Y-2196090D01*
X29286600Y-2310214D01*
X29379787Y-2403401D01*
X29382644Y-2405593D01*
X29410966Y-2454640D01*
X29411600Y-2464304D01*
X29411600Y-4023332D01*
X29389926Y-4075658D01*
X28599749Y-4865834D01*
X28547423Y-4887508D01*
X28495097Y-4865834D01*
X28473423Y-4813508D01*
X28475945Y-4794354D01*
X28481264Y-4774506D01*
X28483255Y-4767071D01*
X28488100Y-4748993D01*
X28488100Y-4617206D01*
X28488099Y-4617205D01*
X28465559Y-4533085D01*
X28453992Y-4489914D01*
X28388100Y-4375786D01*
X28294914Y-4282600D01*
X28191511Y-4222900D01*
X28180790Y-4216710D01*
X28180781Y-4216706D01*
X28053494Y-4182600D01*
X28053492Y-4182600D01*
X27921708Y-4182600D01*
X27921706Y-4182600D01*
X27794418Y-4216706D01*
X27794409Y-4216710D01*
X27680285Y-4282600D01*
X27587100Y-4375785D01*
X27521210Y-4489909D01*
X27521206Y-4489918D01*
X27487100Y-4617205D01*
X27487100Y-4748994D01*
X27521206Y-4876281D01*
X27521210Y-4876290D01*
X27526355Y-4885201D01*
X27587100Y-4990414D01*
X27680286Y-5083600D01*
X27794414Y-5149492D01*
X27921705Y-5183599D01*
X27921706Y-5183600D01*
X27921708Y-5183600D01*
X28053493Y-5183600D01*
X28071571Y-5178755D01*
X28098855Y-5171445D01*
X28155007Y-5178837D01*
X28189486Y-5223769D01*
X28182094Y-5279922D01*
X28170334Y-5295249D01*
X26293354Y-7172229D01*
X26241028Y-7193903D01*
X26231378Y-7193271D01*
X26227797Y-7192800D01*
X26227792Y-7192800D01*
X26096008Y-7192800D01*
X26096006Y-7192800D01*
X25968718Y-7226906D01*
X25968709Y-7226910D01*
X25854585Y-7292800D01*
X25761400Y-7385985D01*
X25695510Y-7500109D01*
X25695506Y-7500118D01*
X25661400Y-7627405D01*
X21177920Y-7627405D01*
X19473620Y-5923105D01*
X23332300Y-5923105D01*
X23332300Y-6054894D01*
X23366406Y-6182181D01*
X23366407Y-6182184D01*
X23366408Y-6182186D01*
X23432300Y-6296314D01*
X23525486Y-6389500D01*
X23639614Y-6455392D01*
X23766905Y-6489499D01*
X23766906Y-6489500D01*
X23766908Y-6489500D01*
X23898694Y-6489500D01*
X23898694Y-6489499D01*
X24025986Y-6455392D01*
X24140114Y-6389500D01*
X24233300Y-6296314D01*
X24299192Y-6182186D01*
X24333299Y-6054894D01*
X24333300Y-6054894D01*
X24333300Y-5923106D01*
X24333299Y-5923105D01*
X24299193Y-5795818D01*
X24299192Y-5795814D01*
X24233300Y-5681686D01*
X24140114Y-5588500D01*
X24111253Y-5571837D01*
X24025990Y-5522610D01*
X24025981Y-5522606D01*
X23898694Y-5488500D01*
X23898692Y-5488500D01*
X23766908Y-5488500D01*
X23766906Y-5488500D01*
X23639618Y-5522606D01*
X23639609Y-5522610D01*
X23525485Y-5588500D01*
X23432300Y-5681685D01*
X23366410Y-5795809D01*
X23366406Y-5795818D01*
X23332300Y-5923105D01*
X19473620Y-5923105D01*
X18994277Y-5443762D01*
X18972603Y-5391436D01*
X18994277Y-5339110D01*
X19027447Y-5319958D01*
X19076586Y-5306792D01*
X19190714Y-5240900D01*
X19283900Y-5147714D01*
X19349792Y-5033586D01*
X19383899Y-4906294D01*
X19383900Y-4906294D01*
X19383900Y-4774506D01*
X19383899Y-4774505D01*
X19377063Y-4748994D01*
X19349792Y-4647214D01*
X19283900Y-4533086D01*
X19190714Y-4439900D01*
X19079664Y-4375785D01*
X19076590Y-4374010D01*
X19076581Y-4374006D01*
X18949294Y-4339900D01*
X18949292Y-4339900D01*
X18817508Y-4339900D01*
X18817506Y-4339900D01*
X18690218Y-4374006D01*
X18690209Y-4374010D01*
X18576085Y-4439900D01*
X18482900Y-4533085D01*
X18417010Y-4647209D01*
X18417007Y-4647217D01*
X18403841Y-4696350D01*
X18369362Y-4741283D01*
X18313209Y-4748674D01*
X18280037Y-4729522D01*
X18081474Y-4530959D01*
X18059800Y-4478633D01*
X18059800Y-2333405D01*
X21174300Y-2333405D01*
X21174300Y-2465194D01*
X21208406Y-2592481D01*
X21208407Y-2592484D01*
X21208408Y-2592486D01*
X21274300Y-2706614D01*
X21367486Y-2799800D01*
X21481614Y-2865692D01*
X21608905Y-2899799D01*
X21608906Y-2899800D01*
X21608908Y-2899800D01*
X21740694Y-2899800D01*
X21740694Y-2899799D01*
X21867986Y-2865692D01*
X21982114Y-2799800D01*
X22075300Y-2706614D01*
X22141192Y-2592486D01*
X22175299Y-2465194D01*
X22175300Y-2465194D01*
X22175300Y-2333406D01*
X22175299Y-2333405D01*
X22170903Y-2317000D01*
X22141192Y-2206114D01*
X22075300Y-2091986D01*
X21982114Y-1998800D01*
X21934507Y-1971314D01*
X21867990Y-1932910D01*
X21867981Y-1932906D01*
X21740694Y-1898800D01*
X21740692Y-1898800D01*
X21608908Y-1898800D01*
X21608906Y-1898800D01*
X21481618Y-1932906D01*
X21481609Y-1932910D01*
X21367485Y-1998800D01*
X21274300Y-2091985D01*
X21208410Y-2206109D01*
X21208406Y-2206118D01*
X21174300Y-2333405D01*
X18059800Y-2333405D01*
X18059800Y-2192276D01*
X18081474Y-2139950D01*
X18133800Y-2118276D01*
X18170801Y-2128191D01*
X18174607Y-2130388D01*
X18174614Y-2130392D01*
X18301905Y-2164499D01*
X18301906Y-2164500D01*
X18301908Y-2164500D01*
X18433694Y-2164500D01*
X18433694Y-2164499D01*
X18560986Y-2130392D01*
X18675114Y-2064500D01*
X18768300Y-1971314D01*
X18834192Y-1857186D01*
X18868299Y-1729894D01*
X18868300Y-1729894D01*
X18868300Y-1598106D01*
X18868299Y-1598105D01*
X18834193Y-1470818D01*
X18834192Y-1470814D01*
X18768300Y-1356686D01*
X18675114Y-1263500D01*
X18577600Y-1207200D01*
X18560990Y-1197610D01*
X18560981Y-1197606D01*
X18433694Y-1163500D01*
X18433692Y-1163500D01*
X18301908Y-1163500D01*
X18301906Y-1163500D01*
X18174618Y-1197606D01*
X18174607Y-1197611D01*
X18170795Y-1199812D01*
X18114641Y-1207200D01*
X18069711Y-1172718D01*
X18059800Y-1135723D01*
X18059800Y-711105D01*
X24004200Y-711105D01*
X24004200Y-842894D01*
X24038306Y-970181D01*
X24038307Y-970184D01*
X24038308Y-970186D01*
X24104200Y-1084314D01*
X24197386Y-1177500D01*
X24311514Y-1243392D01*
X24438805Y-1277499D01*
X24438806Y-1277500D01*
X24438808Y-1277500D01*
X24570594Y-1277500D01*
X24570594Y-1277499D01*
X24697886Y-1243392D01*
X24812014Y-1177500D01*
X24905200Y-1084314D01*
X24971092Y-970186D01*
X25005199Y-842894D01*
X25005200Y-842894D01*
X25005200Y-711103D01*
X25004729Y-707525D01*
X25019389Y-652819D01*
X25025762Y-645551D01*
X28187509Y2516194D01*
X29844900Y2516194D01*
X29844900Y2384405D01*
X29879006Y2257118D01*
X29879010Y2257109D01*
X29944900Y2142985D01*
X30038085Y2049800D01*
X30152209Y1983910D01*
X30152218Y1983906D01*
X30279505Y1949800D01*
X30279508Y1949800D01*
X30411294Y1949800D01*
X30538581Y1983906D01*
X30538584Y1983907D01*
X30538586Y1983908D01*
X30538587Y1983908D01*
X30538590Y1983910D01*
X30652714Y2049800D01*
X30745899Y2142985D01*
X30752999Y2155281D01*
X30811792Y2257114D01*
X30845899Y2384405D01*
X30845900Y2384406D01*
X30845900Y2516194D01*
X30811793Y2643481D01*
X30811792Y2643486D01*
X30745900Y2757614D01*
X30652714Y2850800D01*
X30575995Y2895094D01*
X34898800Y2895094D01*
X34898800Y2763305D01*
X34932906Y2636018D01*
X34932910Y2636009D01*
X34998800Y2521885D01*
X35091985Y2428700D01*
X35206109Y2362810D01*
X35206118Y2362806D01*
X35333405Y2328700D01*
X35333408Y2328700D01*
X35465194Y2328700D01*
X35592481Y2362806D01*
X35592484Y2362807D01*
X35592486Y2362808D01*
X35592487Y2362808D01*
X35592490Y2362810D01*
X35706614Y2428700D01*
X35799799Y2521885D01*
X35801042Y2524037D01*
X35865692Y2636014D01*
X35899799Y2763305D01*
X35899800Y2763306D01*
X35899800Y2895094D01*
X35865693Y3022381D01*
X35865692Y3022386D01*
X35799800Y3136514D01*
X35706614Y3229700D01*
X35592486Y3295592D01*
X35529679Y3312421D01*
X35465194Y3329700D01*
X35465192Y3329700D01*
X35333408Y3329700D01*
X35333406Y3329700D01*
X35221154Y3299622D01*
X35206114Y3295592D01*
X35091986Y3229700D01*
X35091985Y3229699D01*
X34998800Y3136514D01*
X34932910Y3022390D01*
X34932906Y3022381D01*
X34898800Y2895094D01*
X30575995Y2895094D01*
X30538586Y2916692D01*
X30464396Y2936571D01*
X30411294Y2950800D01*
X30411292Y2950800D01*
X30279508Y2950800D01*
X30279506Y2950800D01*
X30167254Y2920722D01*
X30152214Y2916692D01*
X30038086Y2850800D01*
X30038085Y2850799D01*
X29944900Y2757614D01*
X29879010Y2643490D01*
X29879006Y2643481D01*
X29844900Y2516194D01*
X28187509Y2516194D01*
X30748342Y5077026D01*
X30800668Y5098700D01*
X33988095Y5098700D01*
X34040421Y5077026D01*
X34046798Y5069755D01*
X34048996Y5066890D01*
X34142185Y4973700D01*
X34256309Y4907810D01*
X34256318Y4907806D01*
X34383605Y4873700D01*
X34383608Y4873700D01*
X34515394Y4873700D01*
X34642681Y4907806D01*
X34642684Y4907807D01*
X34642686Y4907808D01*
X34642687Y4907808D01*
X34642690Y4907810D01*
X34756814Y4973700D01*
X34849999Y5066885D01*
X34915889Y5181009D01*
X34915892Y5181014D01*
X34949999Y5308305D01*
X34950000Y5308306D01*
X34950000Y5440094D01*
X34915893Y5567381D01*
X34915892Y5567386D01*
X34850000Y5681514D01*
X34849999Y5681514D01*
X34847814Y5685300D01*
X34840421Y5741452D01*
X34874900Y5786386D01*
X34911900Y5796300D01*
X35671533Y5796300D01*
X35723859Y5774626D01*
X38915355Y2583128D01*
X38937029Y2530802D01*
X38915355Y2478476D01*
X38882183Y2459324D01*
X38767114Y2428492D01*
X38652986Y2362600D01*
X38652985Y2362599D01*
X38559800Y2269414D01*
X38493910Y2155290D01*
X38493906Y2155281D01*
X38459800Y2027994D01*
X38459800Y1896205D01*
X38493906Y1768918D01*
X38493910Y1768909D01*
X38559800Y1654785D01*
X38652990Y1561596D01*
X38655861Y1559393D01*
X38684169Y1510338D01*
X38684800Y1500694D01*
X38684800Y946800D01*
X38715891Y871741D01*
X38726742Y845543D01*
X41318226Y-1745941D01*
X41339900Y-1798267D01*
X41339900Y-1850094D01*
X41374006Y-1977381D01*
X41374007Y-1977384D01*
X41374008Y-1977386D01*
X41439900Y-2091514D01*
X41533086Y-2184700D01*
X41647214Y-2250592D01*
X41774505Y-2284699D01*
X41774506Y-2284700D01*
X41774508Y-2284700D01*
X41906294Y-2284700D01*
X41906294Y-2284699D01*
X42033586Y-2250592D01*
X42147714Y-2184700D01*
X42240900Y-2091514D01*
X42306792Y-1977386D01*
X42340899Y-1850094D01*
X42340900Y-1850094D01*
X42340900Y-1718306D01*
X42340899Y-1718305D01*
X42323611Y-1653786D01*
X42306792Y-1591014D01*
X42240900Y-1476886D01*
X42147714Y-1383700D01*
X42033590Y-1317810D01*
X42033581Y-1317806D01*
X41906294Y-1283700D01*
X41906292Y-1283700D01*
X41774508Y-1283700D01*
X41705917Y-1302077D01*
X41649764Y-1294683D01*
X41634440Y-1282924D01*
X39257474Y1094041D01*
X39235800Y1146367D01*
X39235800Y1500694D01*
X39239879Y1510542D01*
X39238679Y1521135D01*
X39252937Y1542067D01*
X39257474Y1553020D01*
X39261547Y1554707D01*
X39264739Y1559393D01*
X39267609Y1561596D01*
X39267611Y1561598D01*
X39267614Y1561600D01*
X39276775Y1570761D01*
X39329100Y1592435D01*
X39381426Y1570761D01*
X39403100Y1518435D01*
X39403100Y1505900D01*
X39439202Y1418743D01*
X39439202Y1418742D01*
X39445040Y1404646D01*
X39445042Y1404643D01*
X40172941Y676742D01*
X40172944Y676740D01*
X40274198Y634800D01*
X40274200Y634800D01*
X42132767Y634800D01*
X42169767Y624886D01*
X42279709Y561410D01*
X42279718Y561406D01*
X42407005Y527300D01*
X42407008Y527300D01*
X42538794Y527300D01*
X42666081Y561406D01*
X42666084Y561407D01*
X42666086Y561408D01*
X42666087Y561408D01*
X42666090Y561410D01*
X42780214Y627300D01*
X42873399Y720485D01*
X42888139Y746014D01*
X42939292Y834614D01*
X42973399Y961905D01*
X42973400Y961906D01*
X42973400Y1093694D01*
X42939293Y1220981D01*
X42939292Y1220986D01*
X42873400Y1335114D01*
X42780214Y1428300D01*
X42666086Y1494192D01*
X42605828Y1510338D01*
X42538794Y1528300D01*
X42538792Y1528300D01*
X42407008Y1528300D01*
X42407006Y1528300D01*
X42323409Y1505900D01*
X42279714Y1494192D01*
X42165586Y1428300D01*
X42165585Y1428299D01*
X42072400Y1335114D01*
X42007555Y1222800D01*
X41962621Y1188321D01*
X41943469Y1185800D01*
X40473768Y1185800D01*
X40421442Y1207474D01*
X39975774Y1653141D01*
X39954100Y1705467D01*
X39954100Y2264299D01*
X39954100Y2264300D01*
X39912157Y2365558D01*
X39834658Y2443057D01*
X36367148Y5910565D01*
X36345475Y5962890D01*
X36367149Y6015216D01*
X36369799Y6017567D01*
X39549500Y6017567D01*
X39549500Y5889432D01*
X39574497Y5763760D01*
X39574498Y5763757D01*
X39623533Y5645376D01*
X39694723Y5538831D01*
X39694725Y5538830D01*
X39785330Y5448225D01*
X39785331Y5448223D01*
X39891876Y5377033D01*
X40010257Y5327998D01*
X40010260Y5327997D01*
X40104726Y5309207D01*
X40135931Y5303000D01*
X40135933Y5303000D01*
X40264067Y5303000D01*
X40264069Y5303000D01*
X40299696Y5310086D01*
X40389739Y5327997D01*
X40389742Y5327998D01*
X40508123Y5377033D01*
X40508124Y5377033D01*
X40508127Y5377035D01*
X40614669Y5448224D01*
X40705276Y5538831D01*
X40776465Y5645373D01*
X40825501Y5763756D01*
X40850500Y5889431D01*
X40850500Y6017567D01*
X42549500Y6017567D01*
X42549500Y5889432D01*
X42574497Y5763760D01*
X42574498Y5763757D01*
X42623533Y5645376D01*
X42694723Y5538831D01*
X42694725Y5538830D01*
X42785330Y5448225D01*
X42785331Y5448223D01*
X42891876Y5377033D01*
X43010257Y5327998D01*
X43010260Y5327997D01*
X43104726Y5309207D01*
X43135931Y5303000D01*
X43135933Y5303000D01*
X43264067Y5303000D01*
X43264069Y5303000D01*
X43299696Y5310086D01*
X43389739Y5327997D01*
X43389742Y5327998D01*
X43508123Y5377033D01*
X43508124Y5377033D01*
X43508127Y5377035D01*
X43614669Y5448224D01*
X43705276Y5538831D01*
X43776465Y5645373D01*
X43825501Y5763756D01*
X43850500Y5889431D01*
X43850500Y6017569D01*
X43825501Y6143244D01*
X43776465Y6261627D01*
X43705276Y6368169D01*
X43614669Y6458776D01*
X43508127Y6529965D01*
X43389744Y6579001D01*
X43264069Y6604000D01*
X43135931Y6604000D01*
X43052903Y6587484D01*
X43010260Y6579002D01*
X43010258Y6579001D01*
X43010256Y6579001D01*
X42891873Y6529965D01*
X42785331Y6458776D01*
X42694724Y6368169D01*
X42623535Y6261627D01*
X42623533Y6261624D01*
X42623533Y6261623D01*
X42574498Y6143242D01*
X42574497Y6143239D01*
X42557104Y6055794D01*
X42550197Y6021070D01*
X42549500Y6017567D01*
X40850500Y6017567D01*
X40850500Y6017569D01*
X40825501Y6143244D01*
X40776465Y6261627D01*
X40705276Y6368169D01*
X40614669Y6458776D01*
X40508127Y6529965D01*
X40389744Y6579001D01*
X40264069Y6604000D01*
X40135931Y6604000D01*
X40052903Y6587484D01*
X40010260Y6579002D01*
X40010258Y6579001D01*
X40010256Y6579001D01*
X39891873Y6529965D01*
X39785331Y6458776D01*
X39694724Y6368169D01*
X39623535Y6261627D01*
X39623533Y6261624D01*
X39623533Y6261623D01*
X39574498Y6143242D01*
X39574497Y6143239D01*
X39557104Y6055794D01*
X39550197Y6021070D01*
X39549500Y6017567D01*
X36369799Y6017567D01*
X36373747Y6021070D01*
X36377904Y6024337D01*
X36411614Y6043800D01*
X36504800Y6136986D01*
X36570692Y6251114D01*
X36604799Y6378405D01*
X36604800Y6378406D01*
X36604800Y6510194D01*
X36570693Y6637481D01*
X36570692Y6637486D01*
X36504800Y6751614D01*
X36411614Y6844800D01*
X36297486Y6910692D01*
X36248095Y6923926D01*
X36170194Y6944800D01*
X36170192Y6944800D01*
X36038408Y6944800D01*
X36038406Y6944800D01*
X35926154Y6914722D01*
X35911114Y6910692D01*
X35796986Y6844800D01*
X35796985Y6844799D01*
X35703800Y6751614D01*
X35637910Y6637490D01*
X35637906Y6637481D01*
X35603800Y6510194D01*
X35603800Y6421300D01*
X35582126Y6368974D01*
X35529800Y6347300D01*
X29630166Y6347300D01*
X29577840Y6368974D01*
X29568406Y6378408D01*
X29556414Y6390400D01*
X29442286Y6456292D01*
X29392895Y6469526D01*
X29314994Y6490400D01*
X29314992Y6490400D01*
X29183208Y6490400D01*
X29183206Y6490400D01*
X29070954Y6460322D01*
X29055914Y6456292D01*
X28941786Y6390400D01*
X28941785Y6390399D01*
X28848600Y6297214D01*
X28782710Y6183090D01*
X28782706Y6183081D01*
X28748600Y6055794D01*
X28748600Y5924005D01*
X28782706Y5796718D01*
X28782710Y5796709D01*
X28848600Y5682585D01*
X28941785Y5589400D01*
X29055909Y5523510D01*
X29055918Y5523506D01*
X29183205Y5489400D01*
X29183208Y5489400D01*
X29314994Y5489400D01*
X29442281Y5523506D01*
X29442284Y5523507D01*
X29442286Y5523508D01*
X29442287Y5523508D01*
X29442290Y5523510D01*
X29556414Y5589400D01*
X29649599Y5682585D01*
X29660323Y5701158D01*
X29693891Y5759300D01*
X29738825Y5793779D01*
X29757977Y5796300D01*
X30586773Y5796300D01*
X30639099Y5774626D01*
X30660773Y5722300D01*
X30639099Y5669974D01*
X30607570Y5653121D01*
X30607833Y5652489D01*
X30601410Y5649828D01*
X30601211Y5649722D01*
X30601104Y5649700D01*
X30601100Y5649700D01*
X30545719Y5626759D01*
X30529501Y5620042D01*
X30529499Y5620041D01*
X30499841Y5607757D01*
X24636154Y-255929D01*
X24583828Y-277603D01*
X24574178Y-276971D01*
X24570597Y-276500D01*
X24570592Y-276500D01*
X24438808Y-276500D01*
X24438806Y-276500D01*
X24311518Y-310606D01*
X24311509Y-310610D01*
X24197385Y-376500D01*
X24104200Y-469685D01*
X24038310Y-583809D01*
X24038306Y-583818D01*
X24004200Y-711105D01*
X18059800Y-711105D01*
X18059800Y504594D01*
X21302000Y504594D01*
X21302000Y372805D01*
X21336106Y245518D01*
X21336110Y245509D01*
X21402000Y131385D01*
X21495185Y38200D01*
X21555759Y3228D01*
X21609314Y-27692D01*
X21736605Y-61799D01*
X21736606Y-61800D01*
X21736608Y-61800D01*
X21868394Y-61800D01*
X21868394Y-61799D01*
X21995686Y-27692D01*
X22109814Y38200D01*
X22203000Y131386D01*
X22268892Y245514D01*
X22302999Y372805D01*
X22303000Y372806D01*
X22303000Y504594D01*
X22282126Y582495D01*
X22268892Y631886D01*
X22203000Y746014D01*
X22109814Y839200D01*
X21995686Y905092D01*
X21946295Y918326D01*
X21868394Y939200D01*
X21868392Y939200D01*
X21736608Y939200D01*
X21736606Y939200D01*
X21624354Y909122D01*
X21609314Y905092D01*
X21495186Y839200D01*
X21495185Y839199D01*
X21402000Y746014D01*
X21336110Y631890D01*
X21336106Y631881D01*
X21302000Y504594D01*
X18059800Y504594D01*
X18059800Y2498732D01*
X18081474Y2551058D01*
X18356310Y2825894D01*
X21302000Y2825894D01*
X21302000Y2694105D01*
X21336106Y2566818D01*
X21336110Y2566809D01*
X21402000Y2452685D01*
X21495185Y2359500D01*
X21609309Y2293610D01*
X21609318Y2293606D01*
X21736605Y2259500D01*
X21736608Y2259500D01*
X21868394Y2259500D01*
X21995681Y2293606D01*
X21995684Y2293607D01*
X21995686Y2293608D01*
X21995687Y2293608D01*
X21995690Y2293610D01*
X22109814Y2359500D01*
X22202999Y2452685D01*
X22206832Y2459323D01*
X22268892Y2566814D01*
X22302999Y2694105D01*
X22303000Y2694106D01*
X22303000Y2825894D01*
X22273174Y2937204D01*
X22268892Y2953186D01*
X22203000Y3067314D01*
X22109814Y3160500D01*
X21995686Y3226392D01*
X21932177Y3243409D01*
X21868394Y3260500D01*
X21868392Y3260500D01*
X21736608Y3260500D01*
X21736606Y3260500D01*
X21624354Y3230422D01*
X21609314Y3226392D01*
X21495186Y3160500D01*
X21495185Y3160499D01*
X21402000Y3067314D01*
X21336110Y2953190D01*
X21336106Y2953181D01*
X21302000Y2825894D01*
X18356310Y2825894D01*
X18445946Y2915530D01*
X18498272Y2937204D01*
X18507931Y2936571D01*
X18511507Y2936100D01*
X18511508Y2936100D01*
X18511509Y2936100D01*
X18643294Y2936100D01*
X18770581Y2970206D01*
X18770584Y2970207D01*
X18770586Y2970208D01*
X18770587Y2970208D01*
X18770590Y2970210D01*
X18884714Y3036100D01*
X18977899Y3129285D01*
X18979737Y3132467D01*
X19043792Y3243414D01*
X19077899Y3370705D01*
X19077900Y3370706D01*
X19077900Y3502494D01*
X19043793Y3629781D01*
X19043792Y3629786D01*
X18977900Y3743914D01*
X18884714Y3837100D01*
X18770586Y3902992D01*
X18721195Y3916226D01*
X18643294Y3937100D01*
X18643292Y3937100D01*
X18511508Y3937100D01*
X18511506Y3937100D01*
X18399254Y3907022D01*
X18384214Y3902992D01*
X18270086Y3837100D01*
X18270085Y3837099D01*
X18176900Y3743914D01*
X18111010Y3629790D01*
X18111006Y3629781D01*
X18076900Y3502494D01*
X18076900Y3370706D01*
X18077371Y3367128D01*
X18062711Y3312421D01*
X18056336Y3305152D01*
X17628242Y2877057D01*
X17550743Y2799558D01*
X17508800Y2698300D01*
X14787525Y2698300D01*
X14651183Y12438916D01*
X14672123Y12491539D01*
X14724140Y12513944D01*
X14734024Y12513420D01*
G37*
G04 #@! TD.AperFunction*
G04 #@! TD*
M02*
