%TF.GenerationSoftware,KiCad,Pcbnew,10.0.6*%
%TF.CreationDate,2026-09-12T21:25:10+03:00*%
%TF.ProjectId,wherewatch-carrier,77686572-6577-4617-9463-682d63617272,rev?*%
%TF.SameCoordinates,Original*%
%TF.FileFunction,Soldermask,Top*%
%TF.FilePolarity,Negative*%
%FSLAX46Y46*%
G04 Gerber Fmt 4.6, Leading zero omitted, Abs format (unit mm)*
G04 Created by KiCad (PCBNEW 10.0.6) date 2026-09-12 21:25:10*
%MOMM*%
%LPD*%
G01*
G04 APERTURE LIST*
G04 Aperture macros list*
%AMRoundRect*
0 Rectangle with rounded corners*
0 $1 Rounding radius*
0 $2 $3 $4 $5 $6 $7 $8 $9 X,Y pos of 4 corners*
0 Add a 4 corners polygon primitive as box body*
4,1,4,$2,$3,$4,$5,$6,$7,$8,$9,$2,$3,0*
0 Add four circle primitives for the rounded corners*
1,1,$1+$1,$2,$3*
1,1,$1+$1,$4,$5*
1,1,$1+$1,$6,$7*
1,1,$1+$1,$8,$9*
0 Add four rect primitives between the rounded corners*
20,1,$1+$1,$2,$3,$4,$5,0*
20,1,$1+$1,$4,$5,$6,$7,0*
20,1,$1+$1,$6,$7,$8,$9,0*
20,1,$1+$1,$8,$9,$2,$3,0*%
G04 Aperture macros list end*
%ADD10RoundRect,0.147500X-0.147500X-0.172500X0.147500X-0.172500X0.147500X0.172500X-0.147500X0.172500X0*%
%ADD11RoundRect,0.150000X-0.587500X-0.150000X0.587500X-0.150000X0.587500X0.150000X-0.587500X0.150000X0*%
%ADD12RoundRect,0.225000X-0.225000X-0.375000X0.225000X-0.375000X0.225000X0.375000X-0.225000X0.375000X0*%
%ADD13RoundRect,0.550800X-0.875000X-0.500000X0.875000X-0.500000X0.875000X0.500000X-0.875000X0.500000X0*%
%ADD14C,1.700000*%
%ADD15RoundRect,0.275000X0.975000X0.275000X-0.975000X0.275000X-0.975000X-0.275000X0.975000X-0.275000X0*%
%ADD16RoundRect,0.625000X-0.750000X-0.625000X0.750000X-0.625000X0.750000X0.625000X-0.750000X0.625000X0*%
%ADD17O,1.773000X0.700000*%
%ADD18C,0.900000*%
G04 APERTURE END LIST*
D10*
%TO.C,L1*%
X48915000Y0D03*
X49885000Y0D03*
%TD*%
D11*
%TO.C,Q3*%
X35312500Y-6300000D03*
X35312500Y-8200000D03*
X37187500Y-7250000D03*
%TD*%
D12*
%TO.C,D1*%
X39372500Y-6750000D03*
X42672500Y-6750000D03*
%TD*%
D13*
%TO.C,U1*%
X16404500Y6939800D03*
X16404500Y4399800D03*
X16404500Y1859800D03*
X16404500Y-680200D03*
X16404500Y-3220200D03*
X16404500Y-5760200D03*
X16404500Y-8300200D03*
X32569500Y-8300200D03*
X32569500Y-5760200D03*
X32569500Y-3220200D03*
X32569500Y-680200D03*
X32569500Y1859800D03*
X32569500Y4399800D03*
X32569500Y6939800D03*
D14*
X23189500Y7951800D03*
X25729500Y7951800D03*
X23189500Y5411800D03*
X25729500Y5411800D03*
X23189500Y2871800D03*
X25729500Y2871800D03*
X23189500Y331800D03*
X25729500Y331800D03*
D15*
X20014500Y-298200D03*
X20014500Y1606800D03*
D16*
X25579500Y-2680200D03*
%TD*%
D17*
%TO.C,U3*%
X37179300Y4400000D03*
X37179300Y3300000D03*
X37179300Y2200000D03*
X37179300Y1100000D03*
X37179300Y0D03*
X37179300Y-1100000D03*
X37179300Y-2200000D03*
X37179300Y-3300000D03*
X37179300Y-4400000D03*
X46799300Y-4400000D03*
X46799300Y-3300000D03*
X46799300Y-2200000D03*
X46799300Y-1100000D03*
X46799300Y0D03*
X46799300Y1100000D03*
X46799300Y2200000D03*
X46799300Y3300000D03*
X46799300Y4400000D03*
%TD*%
D18*
%TO.C,SW1*%
X40200000Y5953500D03*
X43200000Y5953500D03*
%TD*%
M02*
