%TF.GenerationSoftware,KiCad,Pcbnew,10.0.6*%
%TF.CreationDate,2026-09-12T21:25:10+03:00*%
%TF.ProjectId,wherewatch-carrier,77686572-6577-4617-9463-682d63617272,rev?*%
%TF.SameCoordinates,Original*%
%TF.FileFunction,Legend,Top*%
%TF.FilePolarity,Positive*%
%FSLAX46Y46*%
G04 Gerber Fmt 4.6, Leading zero omitted, Abs format (unit mm)*
G04 Created by KiCad (PCBNEW 10.0.6) date 2026-09-12 21:25:10*
%MOMM*%
%LPD*%
G01*
G04 APERTURE LIST*
%ADD10C,0.150000*%
%ADD11C,0.106680*%
%ADD12C,0.120000*%
%ADD13C,0.100000*%
%ADD14C,0.127000*%
%ADD15C,0.504000*%
%ADD16C,0.250000*%
%ADD17C,0.060000*%
G04 APERTURE END LIST*
D10*
X49233333Y715180D02*
X48757143Y715180D01*
X48757143Y715180D02*
X48757143Y1715180D01*
X50090476Y715180D02*
X49519048Y715180D01*
X49804762Y715180D02*
X49804762Y1715180D01*
X49804762Y1715180D02*
X49709524Y1572323D01*
X49709524Y1572323D02*
X49614286Y1477085D01*
X49614286Y1477085D02*
X49519048Y1429466D01*
X36154761Y-5400057D02*
X36059523Y-5352438D01*
X36059523Y-5352438D02*
X35964285Y-5257200D01*
X35964285Y-5257200D02*
X35821428Y-5114342D01*
X35821428Y-5114342D02*
X35726190Y-5066723D01*
X35726190Y-5066723D02*
X35630952Y-5066723D01*
X35678571Y-5304819D02*
X35583333Y-5257200D01*
X35583333Y-5257200D02*
X35488095Y-5161961D01*
X35488095Y-5161961D02*
X35440476Y-4971485D01*
X35440476Y-4971485D02*
X35440476Y-4638152D01*
X35440476Y-4638152D02*
X35488095Y-4447676D01*
X35488095Y-4447676D02*
X35583333Y-4352438D01*
X35583333Y-4352438D02*
X35678571Y-4304819D01*
X35678571Y-4304819D02*
X35869047Y-4304819D01*
X35869047Y-4304819D02*
X35964285Y-4352438D01*
X35964285Y-4352438D02*
X36059523Y-4447676D01*
X36059523Y-4447676D02*
X36107142Y-4638152D01*
X36107142Y-4638152D02*
X36107142Y-4971485D01*
X36107142Y-4971485D02*
X36059523Y-5161961D01*
X36059523Y-5161961D02*
X35964285Y-5257200D01*
X35964285Y-5257200D02*
X35869047Y-5304819D01*
X35869047Y-5304819D02*
X35678571Y-5304819D01*
X36440476Y-4304819D02*
X37059523Y-4304819D01*
X37059523Y-4304819D02*
X36726190Y-4685771D01*
X36726190Y-4685771D02*
X36869047Y-4685771D01*
X36869047Y-4685771D02*
X36964285Y-4733390D01*
X36964285Y-4733390D02*
X37011904Y-4781009D01*
X37011904Y-4781009D02*
X37059523Y-4876247D01*
X37059523Y-4876247D02*
X37059523Y-5114342D01*
X37059523Y-5114342D02*
X37011904Y-5209580D01*
X37011904Y-5209580D02*
X36964285Y-5257200D01*
X36964285Y-5257200D02*
X36869047Y-5304819D01*
X36869047Y-5304819D02*
X36583333Y-5304819D01*
X36583333Y-5304819D02*
X36488095Y-5257200D01*
X36488095Y-5257200D02*
X36440476Y-5209580D01*
X40284405Y-5204819D02*
X40284405Y-4204819D01*
X40284405Y-4204819D02*
X40522500Y-4204819D01*
X40522500Y-4204819D02*
X40665357Y-4252438D01*
X40665357Y-4252438D02*
X40760595Y-4347676D01*
X40760595Y-4347676D02*
X40808214Y-4442914D01*
X40808214Y-4442914D02*
X40855833Y-4633390D01*
X40855833Y-4633390D02*
X40855833Y-4776247D01*
X40855833Y-4776247D02*
X40808214Y-4966723D01*
X40808214Y-4966723D02*
X40760595Y-5061961D01*
X40760595Y-5061961D02*
X40665357Y-5157200D01*
X40665357Y-5157200D02*
X40522500Y-5204819D01*
X40522500Y-5204819D02*
X40284405Y-5204819D01*
X41808214Y-5204819D02*
X41236786Y-5204819D01*
X41522500Y-5204819D02*
X41522500Y-4204819D01*
X41522500Y-4204819D02*
X41427262Y-4347676D01*
X41427262Y-4347676D02*
X41332024Y-4442914D01*
X41332024Y-4442914D02*
X41236786Y-4490533D01*
D11*
X22937950Y11039408D02*
X22937950Y10406102D01*
X22937950Y10406102D02*
X22975204Y10331595D01*
X22975204Y10331595D02*
X23012457Y10294342D01*
X23012457Y10294342D02*
X23086964Y10257088D01*
X23086964Y10257088D02*
X23235977Y10257088D01*
X23235977Y10257088D02*
X23310484Y10294342D01*
X23310484Y10294342D02*
X23347737Y10331595D01*
X23347737Y10331595D02*
X23384990Y10406102D01*
X23384990Y10406102D02*
X23384990Y11039408D01*
X24167310Y10257088D02*
X23720270Y10257088D01*
X23943790Y10257088D02*
X23943790Y11039408D01*
X23943790Y11039408D02*
X23869283Y10927648D01*
X23869283Y10927648D02*
X23794777Y10853142D01*
X23794777Y10853142D02*
X23720270Y10815888D01*
D10*
X32633119Y-761904D02*
X33442642Y-761904D01*
X33442642Y-761904D02*
X33537880Y-714285D01*
X33537880Y-714285D02*
X33585500Y-666666D01*
X33585500Y-666666D02*
X33633119Y-571428D01*
X33633119Y-571428D02*
X33633119Y-380952D01*
X33633119Y-380952D02*
X33585500Y-285714D01*
X33585500Y-285714D02*
X33537880Y-238095D01*
X33537880Y-238095D02*
X33442642Y-190476D01*
X33442642Y-190476D02*
X32633119Y-190476D01*
X32633119Y190476D02*
X32633119Y809523D01*
X32633119Y809523D02*
X33014071Y476190D01*
X33014071Y476190D02*
X33014071Y619047D01*
X33014071Y619047D02*
X33061690Y714285D01*
X33061690Y714285D02*
X33109309Y761904D01*
X33109309Y761904D02*
X33204547Y809523D01*
X33204547Y809523D02*
X33442642Y809523D01*
X33442642Y809523D02*
X33537880Y761904D01*
X33537880Y761904D02*
X33585500Y714285D01*
X33585500Y714285D02*
X33633119Y619047D01*
X33633119Y619047D02*
X33633119Y333333D01*
X33633119Y333333D02*
X33585500Y238095D01*
X33585500Y238095D02*
X33537880Y190476D01*
%TO.C,Q3*%
D12*
X35490000Y-5690000D02*
X37010000Y-5690000D01*
X35490000Y-5740000D02*
X35490000Y-5690000D01*
X35490000Y-7640000D02*
X35490000Y-6860000D01*
X35490000Y-8810000D02*
X35490000Y-8760000D01*
X37010000Y-5690000D02*
X37010000Y-6690000D01*
X37010000Y-7810000D02*
X37010000Y-8810000D01*
X37010000Y-8810000D02*
X35490000Y-8810000D01*
X34950000Y-6870000D02*
X35190000Y-7200000D01*
X34710000Y-7200000D01*
X34950000Y-6870000D01*
G36*
X35190000Y-7200000D02*
G01*
X34710000Y-7200000D01*
X34950000Y-6870000D01*
X35190000Y-7200000D01*
G37*
%TO.C,D1*%
X38662500Y-5750000D02*
X38662500Y-7750000D01*
X38662500Y-5750000D02*
X42672500Y-5750000D01*
X38662500Y-7750000D02*
X42672500Y-7750000D01*
%TO.C,U1*%
D13*
X15569500Y-9193200D02*
X15569500Y7951800D01*
X17474500Y-11098200D02*
X31444500Y-11098200D01*
D14*
X19964500Y9856800D02*
X19968228Y10867072D01*
X20468228Y11366800D02*
X28463500Y11366800D01*
X28963500Y10866800D02*
X28963500Y9856800D01*
D13*
X31444500Y9856800D02*
X17474500Y9856800D01*
X33349500Y-9193200D02*
X33349500Y7951800D01*
X15569500Y7955800D02*
G75*
G02*
X17474500Y9860800I1905001J-1D01*
G01*
X17474500Y-11098200D02*
G75*
G02*
X15569500Y-9193200I0J1905000D01*
G01*
D14*
X19968228Y10867072D02*
G75*
G02*
X20468228Y11366802I500022J-292D01*
G01*
X28463500Y11366800D02*
G75*
G02*
X28963500Y10866800I0J-500000D01*
G01*
D13*
X31444500Y9856800D02*
G75*
G02*
X33349500Y7951800I0J-1905000D01*
G01*
X33349500Y-9193200D02*
G75*
G02*
X31444500Y-11098200I-1905000J0D01*
G01*
D15*
X15611500Y9440800D02*
G75*
G02*
X15107500Y9440800I-252000J0D01*
G01*
X15107500Y9440800D02*
G75*
G02*
X15611500Y9440800I252000J0D01*
G01*
X16828500Y8717800D02*
G75*
G02*
X16324500Y8717800I-252000J0D01*
G01*
X16324500Y8717800D02*
G75*
G02*
X16828500Y8717800I252000J0D01*
G01*
%TO.C,U3*%
D10*
X37059300Y5130000D02*
X37059300Y5130000D01*
X37059300Y5130000D02*
X46919300Y5130000D01*
X37059300Y4900000D02*
X37059300Y5130000D01*
X37059300Y-4900000D02*
X37059300Y-5130000D01*
X37059300Y-5130000D02*
X37059300Y-5130000D01*
X37059300Y-5130000D02*
X46919300Y-5130000D01*
X46919300Y5130000D02*
X46919300Y5130000D01*
X46919300Y5130000D02*
X46919300Y4900000D01*
X46919300Y-5130000D02*
X46919300Y-4900000D01*
X46919300Y-5130000D02*
X46919300Y-5130000D01*
D16*
X36079300Y4400000D02*
G75*
G02*
X35839300Y4400000I-120000J0D01*
G01*
X35839300Y4400000D02*
G75*
G02*
X36079300Y4400000I120000J0D01*
G01*
D17*
X37169300Y5050000D02*
G75*
G02*
X37109300Y5050000I-30000J0D01*
G01*
X37109300Y5050000D02*
G75*
G02*
X37169300Y5050000I30000J0D01*
G01*
%TD*%
M02*
