%TF.GenerationSoftware,KiCad,Pcbnew,10.0.6*%
%TF.CreationDate,2026-09-12T21:25:10+03:00*%
%TF.ProjectId,wherewatch-carrier,77686572-6577-4617-9463-682d63617272,rev?*%
%TF.SameCoordinates,Original*%
%TF.FileFunction,Copper,L2,Inr*%
%TF.FilePolarity,Positive*%
%FSLAX46Y46*%
G04 Gerber Fmt 4.6, Leading zero omitted, Abs format (unit mm)*
G04 Created by KiCad (PCBNEW 10.0.6) date 2026-09-12 21:25:10*
%MOMM*%
%LPD*%
G01*
G04 APERTURE LIST*
%TA.AperFunction,ViaPad*%
%ADD10C,0.600000*%
%TD*%
%TA.AperFunction,Conductor*%
%ADD11C,0.150000*%
%TD*%
G04 APERTURE END LIST*
D10*
%TO.N,GNSS_RF*%
X48424700Y-3091300D03*
%TO.N,VIB_IN_R*%
X36417100Y-5536800D03*
X22235500Y1696800D03*
%TO.N,GND*%
X46399999Y-6600000D03*
X49475000Y1475000D03*
X21199999Y10200000D03*
X40527500Y250000D03*
X36040000Y8750000D03*
X49199999Y4599999D03*
X43800000Y-3550000D03*
X26692500Y-4600000D03*
X36040000Y7500000D03*
X43599999Y-1000000D03*
X19344800Y3223500D03*
X49199999Y3199999D03*
X43599999Y-2400000D03*
X36080000Y6250000D03*
X45412800Y-2200000D03*
X28199999Y7399999D03*
X43599999Y-8000000D03*
X47799999Y5999999D03*
X36700000Y-8675000D03*
X26799999Y10200000D03*
X37179200Y5786500D03*
X19339000Y6228700D03*
X22599999Y-9400000D03*
X28380000Y-3692500D03*
X49199999Y-3800000D03*
X46399999Y-5200000D03*
X35839800Y4420200D03*
X18400000Y8799999D03*
X18400000Y10200000D03*
X21610000Y1000000D03*
X30602800Y-6416600D03*
X47799999Y-6600000D03*
X30837200Y3682200D03*
X37999999Y8799999D03*
X42199999Y-2400000D03*
X35651900Y2599200D03*
X28199999Y8799999D03*
X43599999Y399999D03*
X44999999Y-6600000D03*
X19073800Y-1757600D03*
X15600000Y-10800000D03*
X27079500Y5411800D03*
X19799999Y10200000D03*
X19799999Y8799999D03*
X41452000Y1487000D03*
X47799999Y-5200000D03*
X17000000Y-10800000D03*
X48185800Y-4400000D03*
X23999999Y10200000D03*
X21199999Y8799999D03*
X44999999Y3199999D03*
X40377500Y1725000D03*
X49475000Y-1475000D03*
X41967100Y2537600D03*
X21199999Y3199999D03*
X26900000Y-5900000D03*
X29599999Y8799999D03*
X39215000Y-1562500D03*
X35786100Y-9343300D03*
X49199999Y-5200000D03*
%TO.N,VIB_N*%
X30510000Y775800D03*
X37779500Y-6068700D03*
%TO.N,+3V3*%
X29104800Y384200D03*
X36682600Y9418200D03*
X40831800Y3144400D03*
X41674900Y-1569100D03*
X35591800Y-4981100D03*
%TO.N,VBAT_SENSE*%
X24013500Y1466600D03*
X19438700Y7689700D03*
%TO.N,BTN*%
X18343000Y6914900D03*
X20533700Y-5241500D03*
%TO.N,GNSS_EN*%
X29400300Y5626600D03*
%TO.N,VIB_IN*%
X18343500Y-2804300D03*
%TO.N,SDA*%
X39528300Y-5287500D03*
X34859500Y-7295600D03*
%TO.N,SCL*%
X38007100Y-8988000D03*
X21268000Y-4044100D03*
%TO.N,GNSS_RX*%
X19144800Y-7621200D03*
X34833600Y-1046900D03*
%TO.N,I2S_BCLK*%
X29551700Y-6322400D03*
%TO.N,I2S_LRCLK*%
X29181000Y-4189300D03*
%TO.N,I2S_DIN*%
X24613200Y-759000D03*
%TO.N,VBUS*%
X27756300Y-5443100D03*
%TO.N,VBAT*%
X33395300Y9127800D03*
X27157800Y123900D03*
X29321700Y-3294400D03*
%TO.N,VBUS_DET*%
X30437300Y-5098700D03*
X41570800Y-6391800D03*
%TO.N,SPK_P*%
X28437100Y-829400D03*
X20627900Y-2375200D03*
%TO.N,SPK_N*%
X20436900Y-3910500D03*
X29421400Y-1636500D03*
%TO.N,BAT_RAW*%
X42464900Y1024800D03*
X36348000Y5350000D03*
%TD*%
%TO.N,VIB_IN_R*%
D11*
X36396100Y-5557800D02*
X34490600Y-5557800D01*
X27757000Y760400D02*
X23171900Y760400D01*
X29258600Y-325800D02*
X28843200Y-325800D01*
X28843200Y-325800D02*
X27757000Y760400D01*
X23171900Y760400D02*
X22235500Y1696800D01*
X36417100Y-5536800D02*
X36396100Y-5557800D01*
X34490600Y-5557800D02*
X29258600Y-325800D01*
%TO.N,VIB_N*%
X30935000Y775800D02*
X37779500Y-6068700D01*
X30510000Y775800D02*
X30935000Y775800D01*
%TO.N,+3V3*%
X36682600Y9418200D02*
X36682600Y7293600D01*
X36682600Y7293600D02*
X40831800Y3144400D01*
X29104800Y384200D02*
X34470100Y-4981100D01*
X34470100Y-4981100D02*
X35591800Y-4981100D01*
%TO.N,VBAT_SENSE*%
X24013500Y3114900D02*
X24013500Y1466600D01*
X19438700Y7689700D02*
X24013500Y3114900D01*
%TO.N,BTN*%
X19828800Y306400D02*
X18343000Y1792200D01*
X19828800Y-4536600D02*
X19828800Y306400D01*
X18343000Y1792200D02*
X18343000Y6914900D01*
X20533700Y-5241500D02*
X19828800Y-4536600D01*
%TO.N,SDA*%
X39528300Y-5287500D02*
X37520200Y-7295600D01*
X37520200Y-7295600D02*
X34859500Y-7295600D01*
%TO.N,SCL*%
X38007100Y-8988000D02*
X37060900Y-8041800D01*
X37060900Y-8041800D02*
X25265700Y-8041800D01*
X25265700Y-8041800D02*
X21268000Y-4044100D01*
%TO.N,VBAT*%
X27157800Y-1130500D02*
X27157800Y123900D01*
X29321700Y-3294400D02*
X27157800Y-1130500D01*
%TO.N,BAT_RAW*%
X36348000Y4837600D02*
X40275300Y910300D01*
X42350400Y910300D02*
X42464900Y1024800D01*
X40275300Y910300D02*
X42350400Y910300D01*
X36348000Y5350000D02*
X36348000Y4837600D01*
%TD*%
%TA.AperFunction,Conductor*%
%TO.N,GND*%
G36*
X15149999Y12463321D02*
G01*
X15649998Y12403101D01*
X15649999Y12403101D01*
X16149999Y12342880D01*
X16149998Y12342879D01*
X17150000Y12222440D01*
X17650000Y12162220D01*
X18149999Y12102000D01*
X18150000Y12102000D01*
X18650000Y12041779D01*
X18649999Y12041778D01*
X19150000Y11981559D01*
X19650000Y11921339D01*
X20149999Y11861119D01*
X20150000Y11861119D01*
X20650000Y11800898D01*
X20649999Y11800897D01*
X21150000Y11740678D01*
X21650000Y11680458D01*
X22149999Y11620238D01*
X22150000Y11620238D01*
X22650000Y11560017D01*
X22649999Y11560016D01*
X23150000Y11499797D01*
X24150000Y11379357D01*
X24649999Y11319137D01*
X24650000Y11319137D01*
X25150000Y11258916D01*
X25149999Y11258915D01*
X25650000Y11198696D01*
X26150000Y11138476D01*
X26649999Y11078256D01*
X26650000Y11078256D01*
X27150000Y11018035D01*
X27149999Y11018034D01*
X27650000Y10957815D01*
X28650000Y10837375D01*
X29149999Y10777155D01*
X29150000Y10777155D01*
X29650000Y10716934D01*
X29649999Y10716933D01*
X30150000Y10656714D01*
X30650000Y10596494D01*
X31149999Y10536274D01*
X31150000Y10536274D01*
X31650000Y10476053D01*
X31649999Y10476052D01*
X32150000Y10415833D01*
X33150000Y10295393D01*
X33649999Y10235173D01*
X33650000Y10235173D01*
X34150000Y10174952D01*
X34149999Y10174951D01*
X34650000Y10114732D01*
X35150000Y10054512D01*
X35649999Y9994292D01*
X35650000Y9994292D01*
X36150000Y9934071D01*
X36201441Y9927875D01*
X36265646Y9900315D01*
X36304758Y9842418D01*
X36306360Y9772567D01*
X36284989Y9729278D01*
X36282102Y9725516D01*
X36282100Y9725514D01*
X36282099Y9725512D01*
X36216208Y9611387D01*
X36182100Y9484091D01*
X36182100Y9352308D01*
X36216208Y9225012D01*
X36282100Y9110886D01*
X36282102Y9110883D01*
X36370781Y9022205D01*
X36404266Y8960882D01*
X36407100Y8934524D01*
X36407100Y7238799D01*
X36440071Y7159203D01*
X36440070Y7159202D01*
X36449041Y7137544D01*
X36449044Y7137540D01*
X40294981Y3291603D01*
X40328466Y3230280D01*
X40331300Y3203922D01*
X40331300Y3078508D01*
X40365408Y2951212D01*
X40431300Y2837086D01*
X40431302Y2837083D01*
X40524483Y2743902D01*
X40524486Y2743900D01*
X40638612Y2678008D01*
X40765908Y2643900D01*
X40897691Y2643900D01*
X40897692Y2643900D01*
X40961339Y2660954D01*
X41024987Y2678008D01*
X41082050Y2710954D01*
X41139114Y2743900D01*
X41232300Y2837086D01*
X41289363Y2935921D01*
X41298191Y2951212D01*
X41304774Y2975780D01*
X41332300Y3078508D01*
X41332300Y3210292D01*
X41298192Y3337586D01*
X41232300Y3451714D01*
X41139114Y3544900D01*
X41024986Y3610792D01*
X40897692Y3644900D01*
X40772276Y3644900D01*
X40705237Y3664585D01*
X40684595Y3681219D01*
X38909701Y5456113D01*
X38476386Y5889428D01*
X39549499Y5889428D01*
X39574497Y5763761D01*
X39574499Y5763755D01*
X39623533Y5645375D01*
X39623538Y5645366D01*
X39694723Y5538831D01*
X39694726Y5538827D01*
X39785327Y5448226D01*
X39785331Y5448223D01*
X39891866Y5377038D01*
X39891875Y5377033D01*
X40010255Y5327999D01*
X40010261Y5327997D01*
X40135929Y5303000D01*
X40135931Y5303000D01*
X40264071Y5303000D01*
X40389738Y5327997D01*
X40389744Y5327999D01*
X40508124Y5377033D01*
X40508133Y5377038D01*
X40614668Y5448223D01*
X40614672Y5448226D01*
X40705273Y5538827D01*
X40705276Y5538831D01*
X40776461Y5645366D01*
X40776466Y5645375D01*
X40790333Y5678854D01*
X40825501Y5763756D01*
X40835971Y5816392D01*
X40850500Y5889428D01*
X42549499Y5889428D01*
X42574497Y5763761D01*
X42574499Y5763755D01*
X42623533Y5645375D01*
X42623538Y5645366D01*
X42694723Y5538831D01*
X42694726Y5538827D01*
X42785327Y5448226D01*
X42785331Y5448223D01*
X42891866Y5377038D01*
X42891875Y5377033D01*
X43010255Y5327999D01*
X43010261Y5327997D01*
X43135929Y5303000D01*
X43135931Y5303000D01*
X43264071Y5303000D01*
X43389738Y5327997D01*
X43389744Y5327999D01*
X43508124Y5377033D01*
X43508133Y5377038D01*
X43614668Y5448223D01*
X43614672Y5448226D01*
X43705273Y5538827D01*
X43705276Y5538831D01*
X43776461Y5645366D01*
X43776466Y5645375D01*
X43790333Y5678854D01*
X43825501Y5763756D01*
X43835971Y5816392D01*
X43850500Y5889428D01*
X43850500Y6017571D01*
X43833682Y6102115D01*
X43825501Y6143244D01*
X43776465Y6261627D01*
X43705276Y6368169D01*
X43614669Y6458776D01*
X43508127Y6529965D01*
X43389744Y6579001D01*
X43348615Y6587182D01*
X43264071Y6604000D01*
X43264069Y6604000D01*
X43135931Y6604000D01*
X43135929Y6604000D01*
X43010261Y6579002D01*
X43010256Y6579001D01*
X42918692Y6541074D01*
X42891875Y6529966D01*
X42891866Y6529961D01*
X42785331Y6458776D01*
X42785327Y6458773D01*
X42694726Y6368172D01*
X42694723Y6368168D01*
X42623538Y6261633D01*
X42623533Y6261624D01*
X42574499Y6143244D01*
X42574497Y6143238D01*
X42549500Y6017571D01*
X42549500Y5889428D01*
X42549499Y5889428D01*
X40850500Y5889428D01*
X40850500Y6017571D01*
X40833682Y6102115D01*
X40825501Y6143244D01*
X40776465Y6261627D01*
X40705276Y6368169D01*
X40614669Y6458776D01*
X40508127Y6529965D01*
X40389744Y6579001D01*
X40348615Y6587182D01*
X40264071Y6604000D01*
X40264069Y6604000D01*
X40135931Y6604000D01*
X40135929Y6604000D01*
X40010261Y6579002D01*
X40010256Y6579001D01*
X39918692Y6541074D01*
X39891875Y6529966D01*
X39891866Y6529961D01*
X39785331Y6458776D01*
X39785327Y6458773D01*
X39694726Y6368172D01*
X39694723Y6368168D01*
X39623538Y6261633D01*
X39623533Y6261624D01*
X39574499Y6143244D01*
X39574497Y6143238D01*
X39549500Y6017571D01*
X39549500Y5889428D01*
X39549499Y5889428D01*
X38476386Y5889428D01*
X36994417Y7371397D01*
X36960934Y7432718D01*
X36958100Y7459076D01*
X36958100Y8934524D01*
X36977785Y9001563D01*
X36994419Y9022205D01*
X37083097Y9110883D01*
X37083100Y9110886D01*
X37148992Y9225014D01*
X37183100Y9352308D01*
X37183100Y9484092D01*
X37148992Y9611386D01*
X37147420Y9614107D01*
X37146792Y9616697D01*
X37145880Y9618900D01*
X37146223Y9619042D01*
X37130945Y9682005D01*
X37153793Y9748033D01*
X37208712Y9791227D01*
X37269632Y9799222D01*
X37649999Y9753411D01*
X37650000Y9753411D01*
X38150000Y9693190D01*
X38149999Y9693189D01*
X38650000Y9632970D01*
X39650000Y9512530D01*
X40149999Y9452310D01*
X40150000Y9452310D01*
X40650000Y9392089D01*
X40649999Y9392088D01*
X41150000Y9331869D01*
X41216808Y9323822D01*
X41636734Y9273246D01*
X41662615Y9267263D01*
X41999995Y9150000D01*
X42000000Y9149999D01*
X42792068Y9115417D01*
X42802844Y9114474D01*
X43583507Y9011697D01*
X43594160Y9009819D01*
X44362907Y8839393D01*
X44373357Y8836593D01*
X45124323Y8599814D01*
X45134488Y8596114D01*
X45861958Y8294786D01*
X45871762Y8290214D01*
X46570192Y7926634D01*
X46579560Y7921226D01*
X47243661Y7498147D01*
X47252522Y7491942D01*
X47877213Y7012599D01*
X47885500Y7005645D01*
X48466035Y6473684D01*
X48473684Y6466035D01*
X49005645Y5885500D01*
X49012599Y5877213D01*
X49491942Y5252522D01*
X49498147Y5243661D01*
X49921226Y4579559D01*
X49926634Y4570191D01*
X50290214Y3871762D01*
X50294786Y3861958D01*
X50596114Y3134488D01*
X50599814Y3124323D01*
X50836593Y2373357D01*
X50839393Y2362907D01*
X51009819Y1594160D01*
X51011697Y1583507D01*
X51114474Y802844D01*
X51115417Y792068D01*
X51149763Y5409D01*
X51149763Y-5409D01*
X51115417Y-792068D01*
X51114474Y-802844D01*
X51011697Y-1583507D01*
X51009819Y-1594160D01*
X50839393Y-2362907D01*
X50836593Y-2373357D01*
X50599814Y-3124323D01*
X50596114Y-3134488D01*
X50294786Y-3861958D01*
X50290214Y-3871762D01*
X49926634Y-4570191D01*
X49921226Y-4579559D01*
X49498147Y-5243661D01*
X49491942Y-5252522D01*
X49012599Y-5877213D01*
X49005645Y-5885500D01*
X48473684Y-6466035D01*
X48466035Y-6473684D01*
X47885500Y-7005645D01*
X47877213Y-7012599D01*
X47252522Y-7491942D01*
X47243661Y-7498147D01*
X46579560Y-7921226D01*
X46570192Y-7926634D01*
X45871762Y-8290214D01*
X45861958Y-8294786D01*
X45134488Y-8596114D01*
X45124323Y-8599814D01*
X44373357Y-8836593D01*
X44362907Y-8839393D01*
X43594160Y-9009819D01*
X43583507Y-9011697D01*
X42802844Y-9114474D01*
X42792068Y-9115417D01*
X42284168Y-9137592D01*
X42000000Y-9150000D01*
X41999999Y-9150000D01*
X41509129Y-9287163D01*
X41490586Y-9290848D01*
X41062685Y-9342385D01*
X41000000Y-9349935D01*
X40499999Y-9410154D01*
X40500000Y-9410155D01*
X40000000Y-9470376D01*
X39999999Y-9470376D01*
X39500000Y-9530596D01*
X39000000Y-9590816D01*
X38499999Y-9651036D01*
X38292452Y-9676033D01*
X38223540Y-9664506D01*
X38171799Y-9617552D01*
X38153658Y-9550079D01*
X38174875Y-9483509D01*
X38215625Y-9445536D01*
X38218083Y-9444117D01*
X38314414Y-9388500D01*
X38407600Y-9295314D01*
X38473492Y-9181186D01*
X38507600Y-9053892D01*
X38507600Y-8922108D01*
X38473492Y-8794814D01*
X38407600Y-8680686D01*
X38314414Y-8587500D01*
X38254927Y-8553155D01*
X38200287Y-8521608D01*
X38136639Y-8504554D01*
X38072992Y-8487500D01*
X37947577Y-8487500D01*
X37880538Y-8467815D01*
X37859896Y-8451181D01*
X37216959Y-7808244D01*
X37206803Y-7801458D01*
X37207992Y-7799678D01*
X37165976Y-7765817D01*
X37143913Y-7699522D01*
X37161194Y-7631823D01*
X37212333Y-7584214D01*
X37267834Y-7571100D01*
X37574999Y-7571100D01*
X37575000Y-7571100D01*
X37676258Y-7529157D01*
X37753757Y-7451658D01*
X37753756Y-7451658D01*
X37812325Y-7393089D01*
X37812324Y-7393089D01*
X38879506Y-6325908D01*
X41070300Y-6325908D01*
X41070300Y-6457692D01*
X41073383Y-6469197D01*
X41104408Y-6584987D01*
X41130231Y-6629713D01*
X41170300Y-6699114D01*
X41263486Y-6792300D01*
X41377614Y-6858192D01*
X41504908Y-6892300D01*
X41504910Y-6892300D01*
X41636690Y-6892300D01*
X41636692Y-6892300D01*
X41763986Y-6858192D01*
X41878114Y-6792300D01*
X41971300Y-6699114D01*
X42037192Y-6584986D01*
X42071300Y-6457692D01*
X42071300Y-6325908D01*
X42037192Y-6198614D01*
X41971300Y-6084486D01*
X41878114Y-5991300D01*
X41807698Y-5950645D01*
X41763987Y-5925408D01*
X41700339Y-5908354D01*
X41636692Y-5891300D01*
X41504908Y-5891300D01*
X41377612Y-5925408D01*
X41263486Y-5991300D01*
X41263483Y-5991302D01*
X41170302Y-6084483D01*
X41170300Y-6084486D01*
X41104408Y-6198612D01*
X41095971Y-6230100D01*
X41070300Y-6325908D01*
X38879506Y-6325908D01*
X39381096Y-5824319D01*
X39442419Y-5790834D01*
X39468777Y-5788000D01*
X39594190Y-5788000D01*
X39594192Y-5788000D01*
X39721486Y-5753892D01*
X39835614Y-5688000D01*
X39928800Y-5594814D01*
X39994692Y-5480686D01*
X40028800Y-5353392D01*
X40028800Y-5221608D01*
X39994692Y-5094314D01*
X39928800Y-4980186D01*
X39835614Y-4887000D01*
X39778550Y-4854054D01*
X39721487Y-4821108D01*
X39657839Y-4804054D01*
X39594192Y-4787000D01*
X39462408Y-4787000D01*
X39335112Y-4821108D01*
X39220986Y-4887000D01*
X39220983Y-4887002D01*
X39127802Y-4980183D01*
X39127800Y-4980186D01*
X39061908Y-5094312D01*
X39027800Y-5221608D01*
X39027800Y-5347021D01*
X39008115Y-5414060D01*
X38991481Y-5434702D01*
X38462166Y-5964016D01*
X38400843Y-5997501D01*
X38331151Y-5992517D01*
X38275218Y-5950645D01*
X38254711Y-5908429D01*
X38245892Y-5875514D01*
X38180000Y-5761386D01*
X38086814Y-5668200D01*
X38029750Y-5635254D01*
X37972687Y-5602308D01*
X37880873Y-5577707D01*
X37845392Y-5568200D01*
X37719978Y-5568200D01*
X37652939Y-5548515D01*
X37632297Y-5531881D01*
X35125824Y-3025408D01*
X47924200Y-3025408D01*
X47924200Y-3157192D01*
X47933801Y-3193023D01*
X47958308Y-3284487D01*
X47987233Y-3334585D01*
X48024200Y-3398614D01*
X48117386Y-3491800D01*
X48231514Y-3557692D01*
X48358808Y-3591800D01*
X48358810Y-3591800D01*
X48490590Y-3591800D01*
X48490592Y-3591800D01*
X48617886Y-3557692D01*
X48732014Y-3491800D01*
X48825200Y-3398614D01*
X48891092Y-3284486D01*
X48925200Y-3157192D01*
X48925200Y-3025408D01*
X48891092Y-2898114D01*
X48825200Y-2783986D01*
X48732014Y-2690800D01*
X48674950Y-2657854D01*
X48617887Y-2624908D01*
X48525300Y-2600100D01*
X48490592Y-2590800D01*
X48358808Y-2590800D01*
X48231512Y-2624908D01*
X48117386Y-2690800D01*
X48117383Y-2690802D01*
X48024202Y-2783983D01*
X48024200Y-2783986D01*
X47958308Y-2898112D01*
X47931681Y-2997487D01*
X47924200Y-3025408D01*
X35125824Y-3025408D01*
X33160978Y-1060562D01*
X33081424Y-981008D01*
X34333100Y-981008D01*
X34333100Y-1112792D01*
X34345615Y-1159499D01*
X34367208Y-1240087D01*
X34394038Y-1286557D01*
X34433100Y-1354214D01*
X34526286Y-1447400D01*
X34640414Y-1513292D01*
X34767708Y-1547400D01*
X34767710Y-1547400D01*
X34899490Y-1547400D01*
X34899492Y-1547400D01*
X35026786Y-1513292D01*
X35044252Y-1503208D01*
X41174400Y-1503208D01*
X41174400Y-1634992D01*
X41186507Y-1680177D01*
X41208508Y-1762287D01*
X41241454Y-1819350D01*
X41274400Y-1876414D01*
X41367586Y-1969600D01*
X41481714Y-2035492D01*
X41609008Y-2069600D01*
X41609010Y-2069600D01*
X41740790Y-2069600D01*
X41740792Y-2069600D01*
X41868086Y-2035492D01*
X41982214Y-1969600D01*
X42075400Y-1876414D01*
X42141292Y-1762286D01*
X42175400Y-1634992D01*
X42175400Y-1503208D01*
X42141292Y-1375914D01*
X42075400Y-1261786D01*
X41982214Y-1168600D01*
X41925150Y-1135654D01*
X41868087Y-1102708D01*
X41804439Y-1085654D01*
X41740792Y-1068600D01*
X41609008Y-1068600D01*
X41481712Y-1102708D01*
X41367586Y-1168600D01*
X41367583Y-1168602D01*
X41274402Y-1261783D01*
X41274400Y-1261786D01*
X41208508Y-1375912D01*
X41174400Y-1503208D01*
X35044252Y-1503208D01*
X35140914Y-1447400D01*
X35234100Y-1354214D01*
X35299992Y-1240086D01*
X35334100Y-1112792D01*
X35334100Y-981008D01*
X35299992Y-853714D01*
X35234100Y-739586D01*
X35140914Y-646400D01*
X35062799Y-601300D01*
X35026787Y-580508D01*
X34963139Y-563454D01*
X34899492Y-546400D01*
X34767708Y-546400D01*
X34640412Y-580508D01*
X34526286Y-646400D01*
X34526283Y-646402D01*
X34433102Y-739583D01*
X34433100Y-739586D01*
X34367208Y-853712D01*
X34340823Y-952186D01*
X34333100Y-981008D01*
X33081424Y-981008D01*
X31091059Y1009356D01*
X31091058Y1009357D01*
X31088197Y1010542D01*
X30989800Y1051300D01*
X30989795Y1051300D01*
X30977823Y1053682D01*
X30978250Y1055829D01*
X30926637Y1070985D01*
X30905995Y1087619D01*
X30885225Y1108389D01*
X30817314Y1176300D01*
X30703186Y1242192D01*
X30575892Y1276300D01*
X30444108Y1276300D01*
X30316814Y1242192D01*
X30202686Y1176300D01*
X30109500Y1083114D01*
X30091132Y1051300D01*
X30043608Y968987D01*
X30026554Y905339D01*
X30011885Y850591D01*
X30009500Y841691D01*
X30009500Y709908D01*
X30043608Y582612D01*
X30109500Y468486D01*
X30109502Y468483D01*
X30202683Y375302D01*
X30202686Y375300D01*
X30316812Y309408D01*
X30444108Y275300D01*
X30575891Y275300D01*
X30575892Y275300D01*
X30703186Y309408D01*
X30703188Y309409D01*
X30703189Y309409D01*
X30816423Y374785D01*
X30884323Y391258D01*
X30950350Y368406D01*
X30966104Y355079D01*
X35591890Y-4270706D01*
X35625375Y-4332029D01*
X35620391Y-4401721D01*
X35578519Y-4457654D01*
X35533126Y-4476141D01*
X35533758Y-4478497D01*
X35525909Y-4480600D01*
X35525908Y-4480600D01*
X35484609Y-4491666D01*
X35398612Y-4514708D01*
X35284486Y-4580600D01*
X35284483Y-4580602D01*
X35195805Y-4669281D01*
X35134482Y-4702766D01*
X35108124Y-4705600D01*
X34635577Y-4705600D01*
X34568538Y-4685915D01*
X34547896Y-4669281D01*
X29641619Y236995D01*
X29608134Y298318D01*
X29605300Y324676D01*
X29605300Y450090D01*
X29605300Y450092D01*
X29571192Y577386D01*
X29505300Y691514D01*
X29412114Y784700D01*
X29297986Y850592D01*
X29170692Y884700D01*
X29038908Y884700D01*
X28911614Y850592D01*
X28797486Y784700D01*
X28704300Y691514D01*
X28638408Y577386D01*
X28633323Y558408D01*
X28628743Y541314D01*
X28592378Y481654D01*
X28529531Y451125D01*
X28460155Y459420D01*
X28421290Y485724D01*
X27913058Y993957D01*
X27897967Y1000208D01*
X27811800Y1035900D01*
X27811799Y1035900D01*
X24557538Y1035900D01*
X24490499Y1055585D01*
X24444744Y1108389D01*
X24434800Y1177547D01*
X24450151Y1221900D01*
X24479890Y1273410D01*
X24479890Y1273411D01*
X24479892Y1273414D01*
X24514000Y1400708D01*
X24514000Y1532492D01*
X24479892Y1659786D01*
X24414000Y1773914D01*
X24325319Y1862595D01*
X24291834Y1923918D01*
X24289000Y1950276D01*
X24289000Y3169698D01*
X24289000Y3169700D01*
X24247057Y3270958D01*
X24247057Y3270959D01*
X21825524Y5692491D01*
X28899800Y5692491D01*
X28899800Y5560708D01*
X28933908Y5433412D01*
X28999800Y5319286D01*
X28999802Y5319283D01*
X29092983Y5226102D01*
X29092986Y5226100D01*
X29207112Y5160208D01*
X29334408Y5126100D01*
X29466191Y5126100D01*
X29466192Y5126100D01*
X29529839Y5143154D01*
X29593487Y5160208D01*
X29650550Y5193154D01*
X29707614Y5226100D01*
X29800800Y5319286D01*
X29856575Y5415891D01*
X35847500Y5415891D01*
X35847500Y5284108D01*
X35881608Y5156812D01*
X35947500Y5042686D01*
X35947502Y5042683D01*
X36036181Y4954005D01*
X36069666Y4892682D01*
X36072500Y4866324D01*
X36072500Y4782799D01*
X36114444Y4681540D01*
X40119240Y676744D01*
X40220499Y634800D01*
X40220500Y634800D01*
X42106174Y634800D01*
X42168173Y618187D01*
X42202698Y598254D01*
X42271712Y558408D01*
X42399008Y524300D01*
X42530791Y524300D01*
X42530792Y524300D01*
X42594439Y541354D01*
X42658087Y558408D01*
X42715150Y591354D01*
X42772214Y624300D01*
X42865400Y717486D01*
X42931292Y831614D01*
X42965400Y958908D01*
X42965400Y1090692D01*
X42931292Y1217986D01*
X42865400Y1332114D01*
X42772214Y1425300D01*
X42658086Y1491192D01*
X42530792Y1525300D01*
X42399008Y1525300D01*
X42271714Y1491192D01*
X42157586Y1425300D01*
X42064400Y1332114D01*
X42064398Y1332110D01*
X42015721Y1247800D01*
X41965154Y1199584D01*
X41908334Y1185800D01*
X40440777Y1185800D01*
X40373738Y1205485D01*
X40353096Y1222119D01*
X38574431Y3000784D01*
X36728194Y4847019D01*
X36694710Y4908342D01*
X36699694Y4978034D01*
X36728195Y5022381D01*
X36748497Y5042683D01*
X36748500Y5042686D01*
X36814392Y5156814D01*
X36848500Y5284108D01*
X36848500Y5415892D01*
X36814392Y5543186D01*
X36748500Y5657314D01*
X36655314Y5750500D01*
X36541186Y5816392D01*
X36413892Y5850500D01*
X36282108Y5850500D01*
X36154814Y5816392D01*
X36040686Y5750500D01*
X35947500Y5657314D01*
X35914554Y5600250D01*
X35881608Y5543187D01*
X35881608Y5543186D01*
X35852195Y5433412D01*
X35847500Y5415891D01*
X29856575Y5415891D01*
X29866692Y5433414D01*
X29900800Y5560708D01*
X29900800Y5692492D01*
X29866692Y5819786D01*
X29800800Y5933914D01*
X29707614Y6027100D01*
X29593486Y6092992D01*
X29466192Y6127100D01*
X29334408Y6127100D01*
X29207114Y6092992D01*
X29092986Y6027100D01*
X28999800Y5933914D01*
X28974118Y5889431D01*
X28933908Y5819787D01*
X28932998Y5816391D01*
X28904525Y5710124D01*
X28899800Y5692491D01*
X21825524Y5692491D01*
X21003614Y6514400D01*
X19975519Y7542495D01*
X19942034Y7603818D01*
X19939200Y7630176D01*
X19939200Y7755590D01*
X19939200Y7755592D01*
X19905092Y7882886D01*
X19839200Y7997014D01*
X19746014Y8090200D01*
X19631886Y8156092D01*
X19504592Y8190200D01*
X19372808Y8190200D01*
X19245514Y8156092D01*
X19131386Y8090200D01*
X19038200Y7997014D01*
X19005254Y7939950D01*
X18972308Y7882887D01*
X18938200Y7755591D01*
X18938200Y7623808D01*
X18972308Y7496512D01*
X19038200Y7382386D01*
X19038202Y7382383D01*
X19131383Y7289202D01*
X19131386Y7289200D01*
X19245512Y7223308D01*
X19372808Y7189200D01*
X19498222Y7189200D01*
X19565261Y7169515D01*
X19585903Y7152881D01*
X23701681Y3037103D01*
X23735166Y2975780D01*
X23738000Y2949422D01*
X23738000Y1950276D01*
X23718315Y1883237D01*
X23701681Y1862595D01*
X23613000Y1773914D01*
X23591919Y1737400D01*
X23547108Y1659787D01*
X23513000Y1532491D01*
X23513000Y1400708D01*
X23547109Y1273411D01*
X23547109Y1273410D01*
X23576849Y1221900D01*
X23593322Y1154000D01*
X23570469Y1087973D01*
X23515548Y1044782D01*
X23469462Y1035900D01*
X23337378Y1035900D01*
X23270339Y1055585D01*
X23249697Y1072219D01*
X22772319Y1549596D01*
X22738834Y1610919D01*
X22736000Y1637277D01*
X22736000Y1762690D01*
X22736000Y1762692D01*
X22701892Y1889986D01*
X22636000Y2004114D01*
X22542814Y2097300D01*
X22428686Y2163192D01*
X22301392Y2197300D01*
X22169608Y2197300D01*
X22042314Y2163192D01*
X21928186Y2097300D01*
X21835000Y2004114D01*
X21808190Y1957677D01*
X21769108Y1889987D01*
X21763752Y1869996D01*
X21738008Y1773916D01*
X21735000Y1762691D01*
X21735000Y1630908D01*
X21769108Y1503612D01*
X21835000Y1389486D01*
X21835002Y1389483D01*
X21928183Y1296302D01*
X21928186Y1296300D01*
X22042312Y1230408D01*
X22169608Y1196300D01*
X22295021Y1196300D01*
X22362060Y1176615D01*
X22382702Y1159981D01*
X23015844Y526839D01*
X23117096Y484901D01*
X23117098Y484900D01*
X23117100Y484900D01*
X23226700Y484900D01*
X26575340Y484900D01*
X26642379Y465215D01*
X26688134Y412411D01*
X26698078Y343253D01*
X26693084Y325051D01*
X26693512Y324937D01*
X26691408Y317087D01*
X26691408Y317086D01*
X26657968Y192284D01*
X26657300Y189791D01*
X26657300Y58008D01*
X26691408Y-69287D01*
X26724354Y-126350D01*
X26757300Y-183414D01*
X26757302Y-183416D01*
X26845981Y-272095D01*
X26879466Y-333418D01*
X26882300Y-359776D01*
X26882300Y-1185300D01*
X26905987Y-1242486D01*
X26905989Y-1242488D01*
X26924242Y-1286557D01*
X26924243Y-1286558D01*
X28784882Y-3147198D01*
X28818366Y-3208519D01*
X28821200Y-3234877D01*
X28821200Y-3360291D01*
X28855308Y-3487587D01*
X28868250Y-3510002D01*
X28921200Y-3601714D01*
X28921201Y-3601715D01*
X28925264Y-3608752D01*
X28923688Y-3609661D01*
X28945215Y-3665355D01*
X28931171Y-3733799D01*
X28883648Y-3783048D01*
X28873689Y-3788798D01*
X28873683Y-3788802D01*
X28780502Y-3881983D01*
X28780500Y-3881986D01*
X28714608Y-3996112D01*
X28680500Y-4123408D01*
X28680500Y-4255191D01*
X28714608Y-4382487D01*
X28731253Y-4411316D01*
X28780500Y-4496614D01*
X28873686Y-4589800D01*
X28987814Y-4655692D01*
X29115108Y-4689800D01*
X29115110Y-4689800D01*
X29246890Y-4689800D01*
X29246892Y-4689800D01*
X29374186Y-4655692D01*
X29488314Y-4589800D01*
X29581500Y-4496614D01*
X29647392Y-4382486D01*
X29681500Y-4255192D01*
X29681500Y-4123408D01*
X29647392Y-3996114D01*
X29581500Y-3881986D01*
X29581498Y-3881984D01*
X29577436Y-3874948D01*
X29579011Y-3874038D01*
X29557485Y-3818348D01*
X29571526Y-3749904D01*
X29619057Y-3700648D01*
X29629014Y-3694900D01*
X29722200Y-3601714D01*
X29788092Y-3487586D01*
X29822200Y-3360292D01*
X29822200Y-3228508D01*
X29788092Y-3101214D01*
X29722200Y-2987086D01*
X29629014Y-2893900D01*
X29568178Y-2858776D01*
X29514887Y-2828008D01*
X29423073Y-2803407D01*
X29387592Y-2793900D01*
X29262178Y-2793900D01*
X29195139Y-2774215D01*
X29174497Y-2757581D01*
X27469619Y-1052703D01*
X27436134Y-991380D01*
X27433300Y-965022D01*
X27433300Y-359776D01*
X27452985Y-292737D01*
X27469619Y-272095D01*
X27483214Y-258500D01*
X27558300Y-183414D01*
X27624192Y-69286D01*
X27658300Y58008D01*
X27658300Y170122D01*
X27677985Y237161D01*
X27730789Y282916D01*
X27799947Y292860D01*
X27863503Y263835D01*
X27869981Y257803D01*
X28068846Y58938D01*
X28287259Y-159475D01*
X28320744Y-220797D01*
X28315760Y-290488D01*
X28273889Y-346422D01*
X28247036Y-361714D01*
X28243918Y-363005D01*
X28129786Y-428900D01*
X28129783Y-428902D01*
X28036602Y-522083D01*
X28036600Y-522086D01*
X27970708Y-636212D01*
X27936600Y-763508D01*
X27936600Y-895291D01*
X27970708Y-1022587D01*
X27997274Y-1068600D01*
X28036600Y-1136714D01*
X28129786Y-1229900D01*
X28243914Y-1295792D01*
X28371208Y-1329900D01*
X28371210Y-1329900D01*
X28502990Y-1329900D01*
X28502992Y-1329900D01*
X28630286Y-1295792D01*
X28744414Y-1229900D01*
X28837600Y-1136714D01*
X28903492Y-1022586D01*
X28937600Y-895292D01*
X28937600Y-763508D01*
X28935961Y-757391D01*
X28937624Y-687544D01*
X28976786Y-629682D01*
X29041014Y-602177D01*
X29055736Y-601300D01*
X29093123Y-601300D01*
X29160162Y-620985D01*
X29180804Y-637619D01*
X29467504Y-924319D01*
X29500989Y-985642D01*
X29496005Y-1055334D01*
X29454133Y-1111267D01*
X29388669Y-1135684D01*
X29379823Y-1136000D01*
X29355508Y-1136000D01*
X29228212Y-1170108D01*
X29114086Y-1236000D01*
X29114083Y-1236002D01*
X29020902Y-1329183D01*
X29020900Y-1329186D01*
X28955008Y-1443312D01*
X28920900Y-1570608D01*
X28920900Y-1702391D01*
X28955008Y-1829687D01*
X28980997Y-1874700D01*
X29020900Y-1943814D01*
X29114086Y-2037000D01*
X29228214Y-2102892D01*
X29355508Y-2137000D01*
X29355510Y-2137000D01*
X29487290Y-2137000D01*
X29487292Y-2137000D01*
X29614586Y-2102892D01*
X29728714Y-2037000D01*
X29821900Y-1943814D01*
X29887792Y-1829686D01*
X29921900Y-1702392D01*
X29921900Y-1678077D01*
X29941585Y-1611038D01*
X29994389Y-1565283D01*
X30063547Y-1555339D01*
X30127103Y-1584364D01*
X30133581Y-1590396D01*
X34334538Y-5791355D01*
X34334539Y-5791355D01*
X34334541Y-5791357D01*
X34364195Y-5803639D01*
X34364197Y-5803641D01*
X34364198Y-5803641D01*
X34385170Y-5812327D01*
X34435800Y-5833300D01*
X35954423Y-5833300D01*
X36021462Y-5852985D01*
X36042104Y-5869618D01*
X36109786Y-5937300D01*
X36223914Y-6003192D01*
X36351208Y-6037300D01*
X36351210Y-6037300D01*
X36482990Y-6037300D01*
X36482992Y-6037300D01*
X36610286Y-6003192D01*
X36724414Y-5937300D01*
X36817600Y-5844114D01*
X36864067Y-5763630D01*
X36914634Y-5715415D01*
X36983241Y-5702192D01*
X37048106Y-5728161D01*
X37059131Y-5737946D01*
X37242682Y-5921497D01*
X37276166Y-5982819D01*
X37279000Y-6009177D01*
X37279000Y-6134591D01*
X37313108Y-6261887D01*
X37346054Y-6318950D01*
X37379000Y-6376014D01*
X37472186Y-6469200D01*
X37586314Y-6535092D01*
X37619230Y-6543911D01*
X37678889Y-6580276D01*
X37709418Y-6643123D01*
X37701123Y-6712499D01*
X37674817Y-6751366D01*
X37442402Y-6983782D01*
X37381082Y-7017266D01*
X37354723Y-7020100D01*
X35343176Y-7020100D01*
X35276137Y-7000415D01*
X35255495Y-6983781D01*
X35166816Y-6895102D01*
X35166814Y-6895100D01*
X35102886Y-6858191D01*
X35052687Y-6829208D01*
X34989039Y-6812154D01*
X34925392Y-6795100D01*
X34793608Y-6795100D01*
X34666312Y-6829208D01*
X34552186Y-6895100D01*
X34552183Y-6895102D01*
X34459002Y-6988283D01*
X34459000Y-6988286D01*
X34393108Y-7102412D01*
X34359000Y-7229708D01*
X34359000Y-7361491D01*
X34393108Y-7488787D01*
X34415100Y-7526877D01*
X34445944Y-7580301D01*
X34462417Y-7648199D01*
X34439565Y-7714226D01*
X34384644Y-7757417D01*
X34338557Y-7766300D01*
X25431178Y-7766300D01*
X25364139Y-7746615D01*
X25343497Y-7729981D01*
X23870024Y-6256508D01*
X29051200Y-6256508D01*
X29051200Y-6388291D01*
X29085308Y-6515587D01*
X29101661Y-6543911D01*
X29151200Y-6629714D01*
X29244386Y-6722900D01*
X29358514Y-6788792D01*
X29485808Y-6822900D01*
X29485810Y-6822900D01*
X29617590Y-6822900D01*
X29617592Y-6822900D01*
X29744886Y-6788792D01*
X29859014Y-6722900D01*
X29952200Y-6629714D01*
X30018092Y-6515586D01*
X30052200Y-6388292D01*
X30052200Y-6256508D01*
X30018092Y-6129214D01*
X29952200Y-6015086D01*
X29859014Y-5921900D01*
X29781614Y-5877213D01*
X29744887Y-5856008D01*
X29681239Y-5838954D01*
X29617592Y-5821900D01*
X29485808Y-5821900D01*
X29358512Y-5856008D01*
X29244386Y-5921900D01*
X29244383Y-5921902D01*
X29151202Y-6015083D01*
X29151200Y-6015086D01*
X29085308Y-6129212D01*
X29051200Y-6256508D01*
X23870024Y-6256508D01*
X22990724Y-5377208D01*
X27255800Y-5377208D01*
X27255800Y-5508991D01*
X27289908Y-5636287D01*
X27308335Y-5668202D01*
X27355800Y-5750414D01*
X27448986Y-5843600D01*
X27521559Y-5885500D01*
X27561267Y-5908426D01*
X27563114Y-5909492D01*
X27690408Y-5943600D01*
X27690410Y-5943600D01*
X27822190Y-5943600D01*
X27822192Y-5943600D01*
X27949486Y-5909492D01*
X28063614Y-5843600D01*
X28156800Y-5750414D01*
X28222692Y-5636286D01*
X28256800Y-5508992D01*
X28256800Y-5377208D01*
X28222692Y-5249914D01*
X28156800Y-5135786D01*
X28063614Y-5042600D01*
X28046654Y-5032808D01*
X29936800Y-5032808D01*
X29936800Y-5164592D01*
X29939752Y-5175608D01*
X29970908Y-5291887D01*
X29979860Y-5307392D01*
X30036800Y-5406014D01*
X30129986Y-5499200D01*
X30244114Y-5565092D01*
X30371408Y-5599200D01*
X30371410Y-5599200D01*
X30503190Y-5599200D01*
X30503192Y-5599200D01*
X30630486Y-5565092D01*
X30744614Y-5499200D01*
X30837800Y-5406014D01*
X30903692Y-5291886D01*
X30937800Y-5164592D01*
X30937800Y-5032808D01*
X30903692Y-4905514D01*
X30837800Y-4791386D01*
X30744614Y-4698200D01*
X30670988Y-4655692D01*
X30630487Y-4632308D01*
X30566839Y-4615254D01*
X30503192Y-4598200D01*
X30371408Y-4598200D01*
X30244112Y-4632308D01*
X30129986Y-4698200D01*
X30129983Y-4698202D01*
X30036802Y-4791383D01*
X30036800Y-4791386D01*
X29970908Y-4905512D01*
X29936800Y-5032808D01*
X28046654Y-5032808D01*
X27961479Y-4983632D01*
X27949487Y-4976708D01*
X27885839Y-4959654D01*
X27822192Y-4942600D01*
X27690408Y-4942600D01*
X27563112Y-4976708D01*
X27448986Y-5042600D01*
X27448983Y-5042602D01*
X27355802Y-5135783D01*
X27355800Y-5135786D01*
X27289908Y-5249912D01*
X27255800Y-5377208D01*
X22990724Y-5377208D01*
X21804819Y-4191303D01*
X21771334Y-4129980D01*
X21768500Y-4103622D01*
X21768500Y-3978210D01*
X21768500Y-3978208D01*
X21734392Y-3850914D01*
X21668500Y-3736786D01*
X21575314Y-3643600D01*
X21502764Y-3601713D01*
X21461187Y-3577708D01*
X21397539Y-3560654D01*
X21333892Y-3543600D01*
X21202108Y-3543600D01*
X21074812Y-3577708D01*
X20990546Y-3626359D01*
X20922646Y-3642831D01*
X20856619Y-3619978D01*
X20840866Y-3606652D01*
X20744216Y-3510002D01*
X20744214Y-3510000D01*
X20687150Y-3477054D01*
X20630087Y-3444108D01*
X20550107Y-3422678D01*
X20502792Y-3410000D01*
X20371008Y-3410000D01*
X20260393Y-3439639D01*
X20190543Y-3437976D01*
X20132681Y-3398813D01*
X20105177Y-3334585D01*
X20104300Y-3319864D01*
X20104300Y-2858776D01*
X20123985Y-2791737D01*
X20176789Y-2745982D01*
X20245947Y-2736038D01*
X20309503Y-2765063D01*
X20315981Y-2771095D01*
X20320586Y-2775700D01*
X20434714Y-2841592D01*
X20562008Y-2875700D01*
X20562010Y-2875700D01*
X20693790Y-2875700D01*
X20693792Y-2875700D01*
X20821086Y-2841592D01*
X20935214Y-2775700D01*
X21028400Y-2682514D01*
X21094292Y-2568386D01*
X21128400Y-2441092D01*
X21128400Y-2309308D01*
X21094292Y-2182014D01*
X21028400Y-2067886D01*
X20935214Y-1974700D01*
X20878150Y-1941754D01*
X20821087Y-1908808D01*
X20756954Y-1891624D01*
X20693792Y-1874700D01*
X20562008Y-1874700D01*
X20434712Y-1908808D01*
X20320586Y-1974700D01*
X20320583Y-1974702D01*
X20315981Y-1979305D01*
X20254658Y-2012790D01*
X20184966Y-2007806D01*
X20129033Y-1965934D01*
X20104616Y-1900470D01*
X20104300Y-1891624D01*
X20104300Y-693108D01*
X24112700Y-693108D01*
X24112700Y-824891D01*
X24146808Y-952187D01*
X24166124Y-985642D01*
X24212700Y-1066314D01*
X24305886Y-1159500D01*
X24420014Y-1225392D01*
X24547308Y-1259500D01*
X24547310Y-1259500D01*
X24679090Y-1259500D01*
X24679092Y-1259500D01*
X24806386Y-1225392D01*
X24920514Y-1159500D01*
X25013700Y-1066314D01*
X25079592Y-952186D01*
X25113700Y-824892D01*
X25113700Y-693108D01*
X25079592Y-565814D01*
X25013700Y-451686D01*
X24920514Y-358500D01*
X24863450Y-325554D01*
X24806387Y-292608D01*
X24729830Y-272095D01*
X24679092Y-258500D01*
X24547308Y-258500D01*
X24420012Y-292608D01*
X24305886Y-358500D01*
X24305883Y-358502D01*
X24212702Y-451683D01*
X24212700Y-451686D01*
X24146808Y-565812D01*
X24112700Y-693108D01*
X20104300Y-693108D01*
X20104300Y361198D01*
X20104300Y361200D01*
X20077749Y425300D01*
X20075299Y431214D01*
X20062360Y462452D01*
X20062358Y462458D01*
X18654818Y1869996D01*
X18621334Y1931319D01*
X18618500Y1957677D01*
X18618500Y6431224D01*
X18638185Y6498263D01*
X18654819Y6518905D01*
X18743497Y6607583D01*
X18743500Y6607586D01*
X18809392Y6721714D01*
X18843500Y6849008D01*
X18843500Y6980792D01*
X18809392Y7108086D01*
X18743500Y7222214D01*
X18650314Y7315400D01*
X18536186Y7381292D01*
X18408892Y7415400D01*
X18277108Y7415400D01*
X18149814Y7381292D01*
X18035686Y7315400D01*
X17942500Y7222214D01*
X17912074Y7169515D01*
X17876608Y7108087D01*
X17876608Y7108086D01*
X17847892Y7000913D01*
X17842500Y6980791D01*
X17842500Y6849008D01*
X17876608Y6721712D01*
X17942500Y6607586D01*
X17942502Y6607583D01*
X18031181Y6518905D01*
X18064666Y6457582D01*
X18067500Y6431224D01*
X18067500Y1737397D01*
X18085710Y1693437D01*
X18085709Y1693436D01*
X18109441Y1636144D01*
X18109444Y1636140D01*
X19516981Y228603D01*
X19550466Y167280D01*
X19553300Y140922D01*
X19553300Y-4591400D01*
X19579931Y-4655692D01*
X19595243Y-4692658D01*
X19996882Y-5094297D01*
X20030366Y-5155619D01*
X20033200Y-5181977D01*
X20033200Y-5307392D01*
X20045525Y-5353390D01*
X20067308Y-5434687D01*
X20067317Y-5434702D01*
X20133200Y-5548814D01*
X20226386Y-5642000D01*
X20340514Y-5707892D01*
X20467808Y-5742000D01*
X20467810Y-5742000D01*
X20599590Y-5742000D01*
X20599592Y-5742000D01*
X20726886Y-5707892D01*
X20841014Y-5642000D01*
X20934200Y-5548814D01*
X21000092Y-5434686D01*
X21034200Y-5307392D01*
X21034200Y-5175608D01*
X21000092Y-5048314D01*
X20934200Y-4934186D01*
X20841014Y-4841000D01*
X20783950Y-4808054D01*
X20726887Y-4775108D01*
X20635073Y-4750507D01*
X20599592Y-4741000D01*
X20474178Y-4741000D01*
X20407139Y-4721315D01*
X20386497Y-4704681D01*
X20304497Y-4622681D01*
X20271012Y-4561358D01*
X20275996Y-4491666D01*
X20317868Y-4435733D01*
X20383332Y-4411316D01*
X20392178Y-4411000D01*
X20502790Y-4411000D01*
X20502792Y-4411000D01*
X20630086Y-4376892D01*
X20714352Y-4328240D01*
X20782252Y-4311768D01*
X20848279Y-4334620D01*
X20864033Y-4347947D01*
X20867500Y-4351414D01*
X20960686Y-4444600D01*
X21074814Y-4510492D01*
X21202108Y-4544600D01*
X21202110Y-4544600D01*
X21327523Y-4544600D01*
X21394562Y-4564285D01*
X21415204Y-4580919D01*
X25109642Y-8275358D01*
X25109644Y-8275360D01*
X25187957Y-8307797D01*
X25210900Y-8317300D01*
X25320500Y-8317300D01*
X36895423Y-8317300D01*
X36962462Y-8336985D01*
X36983104Y-8353619D01*
X37470281Y-8840796D01*
X37503766Y-8902119D01*
X37506600Y-8928477D01*
X37506600Y-9053891D01*
X37540708Y-9181187D01*
X37573654Y-9238250D01*
X37606600Y-9295314D01*
X37699786Y-9388500D01*
X37813914Y-9454392D01*
X37912972Y-9480934D01*
X37972631Y-9517298D01*
X38003160Y-9580144D01*
X37994866Y-9649520D01*
X37950381Y-9703398D01*
X37895705Y-9723818D01*
X37616173Y-9757485D01*
X37500000Y-9771477D01*
X36500000Y-9891917D01*
X35999999Y-9952136D01*
X36000000Y-9952137D01*
X35500000Y-10012358D01*
X35499999Y-10012358D01*
X35000000Y-10072578D01*
X34500000Y-10132798D01*
X33999999Y-10193017D01*
X34000000Y-10193018D01*
X33500000Y-10253239D01*
X33499999Y-10253239D01*
X33000000Y-10313459D01*
X32000000Y-10433899D01*
X31499999Y-10494118D01*
X31500000Y-10494119D01*
X31000000Y-10554340D01*
X30999999Y-10554340D01*
X30500000Y-10614560D01*
X30000000Y-10674780D01*
X29499999Y-10734999D01*
X29500000Y-10735000D01*
X29000000Y-10795221D01*
X28999999Y-10795221D01*
X28500000Y-10855441D01*
X28000000Y-10915661D01*
X27499999Y-10975880D01*
X27500000Y-10975881D01*
X27000000Y-11036102D01*
X26999999Y-11036102D01*
X26500000Y-11096322D01*
X25500000Y-11216762D01*
X24999999Y-11276981D01*
X25000000Y-11276982D01*
X24500000Y-11337203D01*
X24499999Y-11337203D01*
X24000000Y-11397423D01*
X23500000Y-11457643D01*
X22999999Y-11517862D01*
X23000000Y-11517863D01*
X22500000Y-11578084D01*
X22499999Y-11578084D01*
X22000000Y-11638304D01*
X21000000Y-11758744D01*
X20499999Y-11818963D01*
X20500000Y-11818964D01*
X20000000Y-11879185D01*
X19999999Y-11879185D01*
X19500000Y-11939405D01*
X19000000Y-11999625D01*
X18499999Y-12059844D01*
X18500000Y-12059845D01*
X18000000Y-12120066D01*
X17999999Y-12120066D01*
X17500000Y-12180286D01*
X17000000Y-12240506D01*
X16499999Y-12300725D01*
X16500000Y-12300726D01*
X16000000Y-12360947D01*
X15999999Y-12360947D01*
X15500000Y-12421167D01*
X15136885Y-12464900D01*
X15067973Y-12453373D01*
X15016232Y-12406419D01*
X14998070Y-12343525D01*
X14994099Y-12059845D01*
X14951424Y-9010990D01*
X14931048Y-7555308D01*
X18644300Y-7555308D01*
X18644300Y-7687092D01*
X18655792Y-7729981D01*
X18678408Y-7814387D01*
X18711354Y-7871450D01*
X18744300Y-7928514D01*
X18837486Y-8021700D01*
X18951614Y-8087592D01*
X19078908Y-8121700D01*
X19078910Y-8121700D01*
X19210690Y-8121700D01*
X19210692Y-8121700D01*
X19337986Y-8087592D01*
X19452114Y-8021700D01*
X19545300Y-7928514D01*
X19611192Y-7814386D01*
X19645300Y-7687092D01*
X19645300Y-7555308D01*
X19611192Y-7428014D01*
X19545300Y-7313886D01*
X19452114Y-7220700D01*
X19395050Y-7187754D01*
X19337987Y-7154808D01*
X19274339Y-7137754D01*
X19210692Y-7120700D01*
X19078908Y-7120700D01*
X18951612Y-7154808D01*
X18837486Y-7220700D01*
X18837483Y-7220702D01*
X18744302Y-7313883D01*
X18744300Y-7313886D01*
X18678408Y-7428012D01*
X18659616Y-7498147D01*
X18644300Y-7555308D01*
X14931048Y-7555308D01*
X14930959Y-7548916D01*
X14899584Y-5307391D01*
X14863625Y-2738408D01*
X17843000Y-2738408D01*
X17843000Y-2870192D01*
X17849353Y-2893902D01*
X17877108Y-2997487D01*
X17893229Y-3025408D01*
X17943000Y-3111614D01*
X18036186Y-3204800D01*
X18150314Y-3270692D01*
X18277608Y-3304800D01*
X18277610Y-3304800D01*
X18409390Y-3304800D01*
X18409392Y-3304800D01*
X18536686Y-3270692D01*
X18650814Y-3204800D01*
X18744000Y-3111614D01*
X18809892Y-2997486D01*
X18844000Y-2870192D01*
X18844000Y-2738408D01*
X18809892Y-2611114D01*
X18744000Y-2496986D01*
X18650814Y-2403800D01*
X18593750Y-2370854D01*
X18536687Y-2337908D01*
X18473039Y-2320854D01*
X18409392Y-2303800D01*
X18277608Y-2303800D01*
X18150312Y-2337908D01*
X18036186Y-2403800D01*
X18036183Y-2403802D01*
X17943002Y-2496983D01*
X17943000Y-2496986D01*
X17877108Y-2611112D01*
X17857976Y-2682516D01*
X17843000Y-2738408D01*
X14863625Y-2738408D01*
X14696607Y9193691D01*
X32894800Y9193691D01*
X32894800Y9061908D01*
X32928908Y8934612D01*
X32994800Y8820486D01*
X32994802Y8820483D01*
X33087983Y8727302D01*
X33087986Y8727300D01*
X33202112Y8661408D01*
X33329408Y8627300D01*
X33461191Y8627300D01*
X33461192Y8627300D01*
X33524839Y8644354D01*
X33588487Y8661408D01*
X33645550Y8694354D01*
X33702614Y8727300D01*
X33795800Y8820486D01*
X33861692Y8934614D01*
X33895800Y9061908D01*
X33895800Y9193692D01*
X33861692Y9320986D01*
X33795800Y9435114D01*
X33702614Y9528300D01*
X33588486Y9594192D01*
X33461192Y9628300D01*
X33329408Y9628300D01*
X33202114Y9594192D01*
X33087986Y9528300D01*
X32994800Y9435114D01*
X32969959Y9392088D01*
X32928908Y9320987D01*
X32894800Y9193691D01*
X14696607Y9193691D01*
X14651983Y12381739D01*
X14670727Y12449046D01*
X14722886Y12495535D01*
X14790798Y12506583D01*
X15149999Y12463321D01*
G37*
%TD.AperFunction*%
%TD*%
M02*
