%TF.GenerationSoftware,KiCad,Pcbnew,10.0.6*%
%TF.CreationDate,2026-09-12T21:25:10+03:00*%
%TF.ProjectId,wherewatch-carrier,77686572-6577-4617-9463-682d63617272,rev?*%
%TF.SameCoordinates,Original*%
%TF.FileFunction,Profile,NP*%
%FSLAX46Y46*%
G04 Gerber Fmt 4.6, Leading zero omitted, Abs format (unit mm)*
G04 Created by KiCad (PCBNEW 10.0.6) date 2026-09-12 21:25:10*
%MOMM*%
%LPD*%
G01*
G04 APERTURE LIST*
%TA.AperFunction,Profile*%
%ADD10C,0.100000*%
%TD*%
G04 APERTURE END LIST*
D10*
X14200000Y13027739D02*
X14700000Y12967519D01*
X15200000Y12907299D01*
X15700000Y12847079D01*
X16200000Y12786858D01*
X16700000Y12726638D01*
X17200000Y12666418D01*
X17700000Y12606198D01*
X18200000Y12545978D01*
X18700000Y12485757D01*
X19200000Y12425537D01*
X19700000Y12365317D01*
X20200000Y12305097D01*
X20700000Y12244876D01*
X21200000Y12184656D01*
X21700000Y12124436D01*
X22200000Y12064216D01*
X22700000Y12003995D01*
X23200000Y11943775D01*
X23700000Y11883555D01*
X24200000Y11823335D01*
X24700000Y11763115D01*
X25200000Y11702894D01*
X25700000Y11642674D01*
X26200000Y11582454D01*
X26700000Y11522234D01*
X27200000Y11462013D01*
X27700000Y11401793D01*
X28200000Y11341573D01*
X28700000Y11281353D01*
X29200000Y11221133D01*
X29700000Y11160912D01*
X30200000Y11100692D01*
X30700000Y11040472D01*
X31200000Y10980252D01*
X31700000Y10920031D01*
X32200000Y10859811D01*
X32700000Y10799591D01*
X33200000Y10739371D01*
X33700000Y10679150D01*
X34200000Y10618930D01*
X34700000Y10558710D01*
X35200000Y10498490D01*
X35700000Y10438270D01*
X36200000Y10378049D01*
X36700000Y10317829D01*
X37200000Y10257609D01*
X37700000Y10197389D01*
X38200000Y10137168D01*
X38700000Y10076948D01*
X39200000Y10016728D01*
X39700000Y9956508D01*
X40200000Y9896288D01*
X40700000Y9836067D01*
X41200000Y9775847D01*
X41700000Y9715627D01*
X42000000Y9600000D01*
X42836695Y9563469D01*
X43667022Y9454154D01*
X44484662Y9272887D01*
X45283393Y9021049D01*
X46057135Y8700554D01*
X46800000Y8313843D01*
X47506333Y7863859D01*
X48170761Y7354026D01*
X48788225Y6788225D01*
X49354026Y6170761D01*
X49863859Y5506333D01*
X50313843Y4799999D01*
X50700554Y4057135D01*
X51021049Y3283393D01*
X51272887Y2484662D01*
X51454154Y1667022D01*
X51563469Y836695D01*
X51600000Y0D01*
X51563469Y-836695D01*
X51454154Y-1667022D01*
X51272887Y-2484662D01*
X51021049Y-3283393D01*
X50700554Y-4057135D01*
X50313843Y-4799999D01*
X49863859Y-5506333D01*
X49354026Y-6170761D01*
X48788225Y-6788225D01*
X48170761Y-7354026D01*
X47506333Y-7863859D01*
X46800000Y-8313843D01*
X46057135Y-8700554D01*
X45283393Y-9021049D01*
X44484662Y-9272887D01*
X43667022Y-9454154D01*
X42836695Y-9563469D01*
X42000000Y-9600000D01*
X41500000Y-9739715D01*
X41000000Y-9799935D01*
X40500000Y-9860155D01*
X40000000Y-9920376D01*
X39500000Y-9980596D01*
X39000000Y-10040816D01*
X38500000Y-10101036D01*
X38000000Y-10161257D01*
X37500000Y-10221477D01*
X37000000Y-10281697D01*
X36500000Y-10341917D01*
X36000000Y-10402137D01*
X35500000Y-10462358D01*
X35000000Y-10522578D01*
X34500000Y-10582798D01*
X34000000Y-10643018D01*
X33500000Y-10703239D01*
X33000000Y-10763459D01*
X32500000Y-10823679D01*
X32000000Y-10883899D01*
X31500000Y-10944119D01*
X31000000Y-11004340D01*
X30500000Y-11064560D01*
X30000000Y-11124780D01*
X29500000Y-11185000D01*
X29000000Y-11245221D01*
X28500000Y-11305441D01*
X28000000Y-11365661D01*
X27500000Y-11425881D01*
X27000000Y-11486102D01*
X26500000Y-11546322D01*
X26000000Y-11606542D01*
X25500000Y-11666762D01*
X25000000Y-11726982D01*
X24500000Y-11787203D01*
X24000000Y-11847423D01*
X23500000Y-11907643D01*
X23000000Y-11967863D01*
X22500000Y-12028084D01*
X22000000Y-12088304D01*
X21500000Y-12148524D01*
X21000000Y-12208744D01*
X20500000Y-12268964D01*
X20000000Y-12329185D01*
X19500000Y-12389405D01*
X19000000Y-12449625D01*
X18500000Y-12509845D01*
X18000000Y-12570066D01*
X17500000Y-12630286D01*
X17000000Y-12690506D01*
X16500000Y-12750726D01*
X16000000Y-12810947D01*
X15500000Y-12871167D01*
X15000000Y-12931387D01*
X14500000Y-12991607D01*
X14200000Y13027739D01*
M02*
