%TF.GenerationSoftware,KiCad,Pcbnew,10.0.6*%
%TF.CreationDate,2026-09-12T21:25:10+03:00*%
%TF.ProjectId,wherewatch-carrier,77686572-6577-4617-9463-682d63617272,rev?*%
%TF.SameCoordinates,Original*%
%TF.FileFunction,Copper,L4,Bot*%
%TF.FilePolarity,Positive*%
%FSLAX46Y46*%
G04 Gerber Fmt 4.6, Leading zero omitted, Abs format (unit mm)*
G04 Created by KiCad (PCBNEW 10.0.6) date 2026-09-12 21:25:10*
%MOMM*%
%LPD*%
G01*
G04 APERTURE LIST*
G04 Aperture macros list*
%AMRoundRect*
0 Rectangle with rounded corners*
0 $1 Rounding radius*
0 $2 $3 $4 $5 $6 $7 $8 $9 X,Y pos of 4 corners*
0 Add a 4 corners polygon primitive as box body*
4,1,4,$2,$3,$4,$5,$6,$7,$8,$9,$2,$3,0*
0 Add four circle primitives for the rounded corners*
1,1,$1+$1,$2,$3*
1,1,$1+$1,$4,$5*
1,1,$1+$1,$6,$7*
1,1,$1+$1,$8,$9*
0 Add four rect primitives between the rounded corners*
20,1,$1+$1,$2,$3,$4,$5,0*
20,1,$1+$1,$4,$5,$6,$7,0*
20,1,$1+$1,$6,$7,$8,$9,0*
20,1,$1+$1,$8,$9,$2,$3,0*%
G04 Aperture macros list end*
%TA.AperFunction,SMDPad,CuDef*%
%ADD10RoundRect,0.135000X-0.135000X-0.185000X0.135000X-0.185000X0.135000X0.185000X-0.135000X0.185000X0*%
%TD*%
%TA.AperFunction,SMDPad,CuDef*%
%ADD11RoundRect,0.250000X-0.250000X-1.500000X0.250000X-1.500000X0.250000X1.500000X-0.250000X1.500000X0*%
%TD*%
%TA.AperFunction,SMDPad,CuDef*%
%ADD12RoundRect,0.250001X-0.499999X-1.449999X0.499999X-1.449999X0.499999X1.449999X-0.499999X1.449999X0*%
%TD*%
%TA.AperFunction,SMDPad,CuDef*%
%ADD13RoundRect,0.225000X-0.225000X-0.250000X0.225000X-0.250000X0.225000X0.250000X-0.225000X0.250000X0*%
%TD*%
%TA.AperFunction,SMDPad,CuDef*%
%ADD14R,1.700000X1.000000*%
%TD*%
%TA.AperFunction,SMDPad,CuDef*%
%ADD15RoundRect,0.140000X-0.140000X-0.170000X0.140000X-0.170000X0.140000X0.170000X-0.140000X0.170000X0*%
%TD*%
%TA.AperFunction,SMDPad,CuDef*%
%ADD16RoundRect,0.150000X-0.587500X-0.150000X0.587500X-0.150000X0.587500X0.150000X-0.587500X0.150000X0*%
%TD*%
%TA.AperFunction,SMDPad,CuDef*%
%ADD17RoundRect,0.087500X-0.225000X-0.087500X0.225000X-0.087500X0.225000X0.087500X-0.225000X0.087500X0*%
%TD*%
%TA.AperFunction,SMDPad,CuDef*%
%ADD18RoundRect,0.087500X-0.087500X-0.225000X0.087500X-0.225000X0.087500X0.225000X-0.087500X0.225000X0*%
%TD*%
%TA.AperFunction,SMDPad,CuDef*%
%ADD19RoundRect,0.135000X0.185000X-0.135000X0.185000X0.135000X-0.185000X0.135000X-0.185000X-0.135000X0*%
%TD*%
%TA.AperFunction,SMDPad,CuDef*%
%ADD20RoundRect,0.250000X-0.275000X-0.250000X0.275000X-0.250000X0.275000X0.250000X-0.275000X0.250000X0*%
%TD*%
%TA.AperFunction,SMDPad,CuDef*%
%ADD21RoundRect,0.250000X-0.850000X-0.275000X0.850000X-0.275000X0.850000X0.275000X-0.850000X0.275000X0*%
%TD*%
%TA.AperFunction,SMDPad,CuDef*%
%ADD22R,0.600000X1.524000*%
%TD*%
%TA.AperFunction,SMDPad,CuDef*%
%ADD23R,1.200000X0.700000*%
%TD*%
%TA.AperFunction,SMDPad,CuDef*%
%ADD24RoundRect,0.062500X-0.350000X-0.062500X0.350000X-0.062500X0.350000X0.062500X-0.350000X0.062500X0*%
%TD*%
%TA.AperFunction,SMDPad,CuDef*%
%ADD25RoundRect,0.062500X-0.062500X-0.350000X0.062500X-0.350000X0.062500X0.350000X-0.062500X0.350000X0*%
%TD*%
%TA.AperFunction,HeatsinkPad*%
%ADD26R,1.230000X1.230000*%
%TD*%
%TA.AperFunction,SMDPad,CuDef*%
%ADD27RoundRect,0.150000X-0.150000X-0.625000X0.150000X-0.625000X0.150000X0.625000X-0.150000X0.625000X0*%
%TD*%
%TA.AperFunction,SMDPad,CuDef*%
%ADD28RoundRect,0.250000X-0.350000X-0.650000X0.350000X-0.650000X0.350000X0.650000X-0.350000X0.650000X0*%
%TD*%
%TA.AperFunction,ViaPad*%
%ADD29C,0.600000*%
%TD*%
%TA.AperFunction,Conductor*%
%ADD30C,0.150000*%
%TD*%
G04 APERTURE END LIST*
D10*
%TO.P,R8,1*%
%TO.N,VIB_IN_R*%
X19490000Y1000000D03*
%TO.P,R8,2*%
%TO.N,GND*%
X20510000Y1000000D03*
%TD*%
D11*
%TO.P,J4,1*%
%TO.N,+3V3*%
X27700000Y2950000D03*
%TO.P,J4,2*%
%TO.N,VIB_N*%
X29700000Y2950000D03*
D12*
%TO.P,J4,MP*%
%TO.N,N/C*%
X25350000Y8700000D03*
X32050000Y8700000D03*
%TD*%
D13*
%TO.P,C2,1*%
%TO.N,VBAT*%
X30225000Y-2500000D03*
%TO.P,C2,2*%
%TO.N,GND*%
X31775000Y-2500000D03*
%TD*%
D14*
%TO.P,SW2,1*%
%TO.N,BTN*%
X25550000Y-9700000D03*
X31850000Y-9700000D03*
%TO.P,SW2,2*%
%TO.N,GND*%
X25550000Y-5900000D03*
X31850000Y-5900000D03*
%TD*%
D10*
%TO.P,R10,1*%
%TO.N,VBUS_DET*%
X34240000Y6250000D03*
%TO.P,R10,2*%
%TO.N,GND*%
X35260000Y6250000D03*
%TD*%
D15*
%TO.P,C5,1*%
%TO.N,+3V3*%
X34270000Y8750000D03*
%TO.P,C5,2*%
%TO.N,GND*%
X35230000Y8750000D03*
%TD*%
D11*
%TO.P,J5,1*%
%TO.N,SPK_P*%
X18200000Y-9850000D03*
%TO.P,J5,2*%
%TO.N,SPK_N*%
X20200000Y-9850000D03*
D12*
%TO.P,J5,MP*%
%TO.N,N/C*%
X15850000Y-4100000D03*
X22550000Y-4100000D03*
%TD*%
D16*
%TO.P,Q1,1*%
%TO.N,SW_G*%
X35062500Y-200000D03*
%TO.P,Q1,2*%
%TO.N,BAT_RAW*%
X35062500Y1700000D03*
%TO.P,Q1,3*%
%TO.N,VBAT*%
X36937500Y750000D03*
%TD*%
D13*
%TO.P,C6,1*%
%TO.N,+3V3*%
X34475000Y3500000D03*
%TO.P,C6,2*%
%TO.N,GND*%
X36025000Y3500000D03*
%TD*%
D10*
%TO.P,R1,1*%
%TO.N,BAT_RAW*%
X42990000Y2000000D03*
%TO.P,R1,2*%
%TO.N,SW_G*%
X44010000Y2000000D03*
%TD*%
%TO.P,R5,1*%
%TO.N,+3V3*%
X21240000Y-1000000D03*
%TO.P,R5,2*%
%TO.N,SCL*%
X22260000Y-1000000D03*
%TD*%
%TO.P,R4,1*%
%TO.N,+3V3*%
X33740000Y-9500000D03*
%TO.P,R4,2*%
%TO.N,SDA*%
X34760000Y-9500000D03*
%TD*%
D17*
%TO.P,U2,1*%
%TO.N,GND*%
X39215000Y-750000D03*
%TO.P,U2,2*%
X39215000Y-250000D03*
%TO.P,U2,3*%
X39215000Y250000D03*
%TO.P,U2,4*%
%TO.N,BTN*%
X39215000Y750000D03*
D18*
%TO.P,U2,5*%
%TO.N,+3V3*%
X39877500Y912500D03*
%TO.P,U2,6*%
%TO.N,GND*%
X40377500Y912500D03*
%TO.P,U2,7*%
X40877500Y912500D03*
D17*
%TO.P,U2,8*%
%TO.N,+3V3*%
X41540000Y750000D03*
%TO.P,U2,9*%
%TO.N,unconnected-(U2-INT2-Pad9)*%
X41540000Y250000D03*
%TO.P,U2,10*%
%TO.N,unconnected-(U2-NC-Pad10)*%
X41540000Y-250000D03*
%TO.P,U2,11*%
%TO.N,unconnected-(U2-NC-Pad11)*%
X41540000Y-750000D03*
D18*
%TO.P,U2,12*%
%TO.N,+3V3*%
X40877500Y-912500D03*
%TO.P,U2,13*%
%TO.N,SCL*%
X40377500Y-912500D03*
%TO.P,U2,14*%
%TO.N,SDA*%
X39877500Y-912500D03*
%TD*%
D10*
%TO.P,R7,1*%
%TO.N,VBAT_SENSE*%
X17740000Y-1000000D03*
%TO.P,R7,2*%
%TO.N,GND*%
X18760000Y-1000000D03*
%TD*%
D19*
%TO.P,R3,1*%
%TO.N,VIB_IN*%
X20000000Y-1210000D03*
%TO.P,R3,2*%
%TO.N,VIB_IN_R*%
X20000000Y-190000D03*
%TD*%
D10*
%TO.P,R2,1*%
%TO.N,VBUS*%
X29990000Y-4000000D03*
%TO.P,R2,2*%
%TO.N,VBUS_DET*%
X31010000Y-4000000D03*
%TD*%
D20*
%TO.P,J3,1*%
%TO.N,GNSS_RF*%
X46350000Y0D03*
D21*
%TO.P,J3,2*%
%TO.N,GND*%
X47875000Y1475000D03*
X47875000Y-1475000D03*
%TD*%
D16*
%TO.P,Q2,1*%
%TO.N,VBUS_DET*%
X42562500Y-5450000D03*
%TO.P,Q2,2*%
%TO.N,GND*%
X42562500Y-3550000D03*
%TO.P,Q2,3*%
%TO.N,SW_G*%
X44437500Y-4500000D03*
%TD*%
D22*
%TO.P,SW1,1*%
%TO.N,SW_G*%
X39450000Y3703500D03*
%TO.P,SW1,2*%
%TO.N,GND*%
X42450000Y3703500D03*
%TO.P,SW1,3*%
%TO.N,unconnected-(SW1-C-Pad3)*%
X43950000Y3703500D03*
D23*
%TO.P,SW1,4*%
%TO.N,N/C*%
X38100000Y7103500D03*
X38100000Y4803500D03*
X45300000Y7103500D03*
X45300000Y4803500D03*
%TD*%
D10*
%TO.P,R11,1*%
%TO.N,+3V3*%
X17240000Y250000D03*
%TO.P,R11,2*%
%TO.N,BTN*%
X18260000Y250000D03*
%TD*%
D24*
%TO.P,U4,1*%
%TO.N,I2S_DIN*%
X25505000Y-3000000D03*
%TO.P,U4,2*%
%TO.N,unconnected-(U4-GAIN_SLOT-Pad2)*%
X25505000Y-2500000D03*
%TO.P,U4,3*%
%TO.N,GND*%
X25505000Y-2000000D03*
%TO.P,U4,4*%
%TO.N,VBAT*%
X25505000Y-1500000D03*
D25*
%TO.P,U4,5*%
%TO.N,unconnected-(U4-NC-Pad5)*%
X26192500Y-812500D03*
%TO.P,U4,6*%
%TO.N,unconnected-(U4-NC-Pad6)*%
X26692500Y-812500D03*
%TO.P,U4,7*%
%TO.N,VBAT*%
X27192500Y-812500D03*
%TO.P,U4,8*%
X27692500Y-812500D03*
D24*
%TO.P,U4,9*%
%TO.N,SPK_P*%
X28380000Y-1500000D03*
%TO.P,U4,10*%
%TO.N,SPK_N*%
X28380000Y-2000000D03*
%TO.P,U4,11*%
%TO.N,GND*%
X28380000Y-2500000D03*
%TO.P,U4,12*%
%TO.N,unconnected-(U4-NC-Pad12)*%
X28380000Y-3000000D03*
D25*
%TO.P,U4,13*%
%TO.N,unconnected-(U4-NC-Pad13)*%
X27692500Y-3687500D03*
%TO.P,U4,14*%
%TO.N,I2S_LRCLK*%
X27192500Y-3687500D03*
%TO.P,U4,15*%
%TO.N,GND*%
X26692500Y-3687500D03*
%TO.P,U4,16*%
%TO.N,I2S_BCLK*%
X26192500Y-3687500D03*
D26*
%TO.P,U4,17*%
%TO.N,GND*%
X26942500Y-2250000D03*
%TD*%
D11*
%TO.P,J1,1*%
%TO.N,BAT_RAW*%
X18200000Y4150000D03*
%TO.P,J1,2*%
%TO.N,GND*%
X20200000Y4150000D03*
D12*
%TO.P,J1,MP*%
%TO.N,N/C*%
X15850000Y9900000D03*
X22550000Y9900000D03*
%TD*%
D27*
%TO.P,J6,1*%
%TO.N,+3V3*%
X35700000Y-7400000D03*
%TO.P,J6,2*%
%TO.N,GND*%
X36700000Y-7400000D03*
%TO.P,J6,3*%
%TO.N,SCL*%
X37700000Y-7400000D03*
%TO.P,J6,4*%
%TO.N,SDA*%
X38700000Y-7400000D03*
D28*
%TO.P,J6,MP*%
%TO.N,N/C*%
X34400000Y-3525000D03*
X40000000Y-3525000D03*
%TD*%
D19*
%TO.P,R6,1*%
%TO.N,VBAT*%
X23600000Y-810000D03*
%TO.P,R6,2*%
%TO.N,VBAT_SENSE*%
X23600000Y210000D03*
%TD*%
D15*
%TO.P,C3,1*%
%TO.N,VBAT*%
X34270000Y7500000D03*
%TO.P,C3,2*%
%TO.N,GND*%
X35230000Y7500000D03*
%TD*%
D10*
%TO.P,R9,1*%
%TO.N,GNSS_EN*%
X34240000Y5000000D03*
%TO.P,R9,2*%
%TO.N,GND*%
X35260000Y5000000D03*
%TD*%
D13*
%TO.P,C1,1*%
%TO.N,+3V3*%
X30225000Y-500000D03*
%TO.P,C1,2*%
%TO.N,GND*%
X31775000Y-500000D03*
%TD*%
D15*
%TO.P,C4,1*%
%TO.N,VBAT_SENSE*%
X15520000Y-1000000D03*
%TO.P,C4,2*%
%TO.N,GND*%
X16480000Y-1000000D03*
%TD*%
D29*
%TO.N,GNSS_RF*%
X48424700Y-3091300D03*
%TO.N,VIB_IN_R*%
X36417100Y-5536800D03*
X22235500Y1696800D03*
%TO.N,GND*%
X46399999Y-6600000D03*
X49475000Y1475000D03*
X21199999Y10200000D03*
X40527500Y250000D03*
X36040000Y8750000D03*
X49199999Y4599999D03*
X43800000Y-3550000D03*
X26692500Y-4600000D03*
X36040000Y7500000D03*
X43599999Y-1000000D03*
X19344800Y3223500D03*
X49199999Y3199999D03*
X43599999Y-2400000D03*
X36080000Y6250000D03*
X45412800Y-2200000D03*
X28199999Y7399999D03*
X43599999Y-8000000D03*
X47799999Y5999999D03*
X36700000Y-8675000D03*
X26799999Y10200000D03*
X37179200Y5786500D03*
X19339000Y6228700D03*
X22599999Y-9400000D03*
X28380000Y-3692500D03*
X49199999Y-3800000D03*
X46399999Y-5200000D03*
X35839800Y4420200D03*
X18400000Y8799999D03*
X18400000Y10200000D03*
X21610000Y1000000D03*
X30602800Y-6416600D03*
X47799999Y-6600000D03*
X30837200Y3682200D03*
X37999999Y8799999D03*
X42199999Y-2400000D03*
X35651900Y2599200D03*
X28199999Y8799999D03*
X43599999Y399999D03*
X44999999Y-6600000D03*
X19073800Y-1757600D03*
X15600000Y-10800000D03*
X27079500Y5411800D03*
X19799999Y10200000D03*
X19799999Y8799999D03*
X41452000Y1487000D03*
X47799999Y-5200000D03*
X17000000Y-10800000D03*
X48185800Y-4400000D03*
X23999999Y10200000D03*
X21199999Y8799999D03*
X44999999Y3199999D03*
X40377500Y1725000D03*
X49475000Y-1475000D03*
X41967100Y2537600D03*
X21199999Y3199999D03*
X26900000Y-5900000D03*
X29599999Y8799999D03*
X39215000Y-1562500D03*
X35786100Y-9343300D03*
X49199999Y-5200000D03*
%TO.N,VIB_N*%
X30510000Y775800D03*
X37779500Y-6068700D03*
%TO.N,+3V3*%
X29104800Y384200D03*
X36682600Y9418200D03*
X40831800Y3144400D03*
X41674900Y-1569100D03*
X35591800Y-4981100D03*
%TO.N,VBAT_SENSE*%
X24013500Y1466600D03*
X19438700Y7689700D03*
%TO.N,BTN*%
X18343000Y6914900D03*
X20533700Y-5241500D03*
%TO.N,GNSS_EN*%
X29400300Y5626600D03*
%TO.N,VIB_IN*%
X18343500Y-2804300D03*
%TO.N,SDA*%
X39528300Y-5287500D03*
X34859500Y-7295600D03*
%TO.N,SCL*%
X38007100Y-8988000D03*
X21268000Y-4044100D03*
%TO.N,GNSS_RX*%
X19144800Y-7621200D03*
X34833600Y-1046900D03*
%TO.N,I2S_BCLK*%
X29551700Y-6322400D03*
%TO.N,I2S_LRCLK*%
X29181000Y-4189300D03*
%TO.N,I2S_DIN*%
X24613200Y-759000D03*
%TO.N,VBUS*%
X27756300Y-5443100D03*
%TO.N,VBAT*%
X33395300Y9127800D03*
X27157800Y123900D03*
X29321700Y-3294400D03*
%TO.N,VBUS_DET*%
X30437300Y-5098700D03*
X41570800Y-6391800D03*
%TO.N,SPK_P*%
X28437100Y-829400D03*
X20627900Y-2375200D03*
%TO.N,SPK_N*%
X20436900Y-3910500D03*
X29421400Y-1636500D03*
%TO.N,BAT_RAW*%
X42464900Y1024800D03*
X36348000Y5350000D03*
%TD*%
%TO.N,GNSS_RF*%
D30*
X47558700Y-3091300D02*
X46351500Y-1884100D01*
X46351500Y-1500D02*
X46350000Y0D01*
X46351500Y-1884100D02*
X46351500Y-1500D01*
X48424700Y-3091300D02*
X47558700Y-3091300D01*
%TO.N,VIB_IN_R*%
X19490000Y320000D02*
X19490000Y1000000D01*
X22235500Y1696800D02*
X22235500Y772900D01*
X21272600Y-190000D02*
X20000000Y-190000D01*
X20000000Y-190000D02*
X19490000Y320000D01*
X22235500Y772900D02*
X21272600Y-190000D01*
%TO.N,VIB_N*%
X29700000Y2950000D02*
X29700000Y1585800D01*
X29700000Y1585800D02*
X30510000Y775800D01*
%TO.N,+3V3*%
X41674900Y-1569100D02*
X41445900Y-1569100D01*
X27700000Y2051600D02*
X22914200Y2051600D01*
X29104800Y384200D02*
X27700000Y1789000D01*
X27700000Y2950000D02*
X27700000Y2051600D01*
X29989000Y-500000D02*
X29104800Y384200D01*
X18564500Y-348500D02*
X18880100Y-32900D01*
X41674900Y-1569100D02*
X42143300Y-1100700D01*
X21519800Y1922900D02*
X21891500Y2294600D01*
X17240000Y250000D02*
X17838500Y-348500D01*
X22914200Y2051600D02*
X22888900Y2026300D01*
X18880100Y-32900D02*
X18880100Y1354200D01*
X41901700Y750000D02*
X41540000Y750000D01*
X39800800Y2113400D02*
X40831800Y3144400D01*
X30225000Y-500000D02*
X34225000Y3500000D01*
X39877500Y1337700D02*
X39800800Y1414400D01*
X34270000Y8750000D02*
X34938200Y9418200D01*
X41445900Y-1569100D02*
X40877500Y-1000700D01*
X27700000Y1789000D02*
X27700000Y2051600D01*
X39800800Y1414400D02*
X39800800Y2113400D01*
X39877500Y912500D02*
X39877500Y1337700D01*
X35591800Y-6672400D02*
X34664200Y-6672400D01*
X34938200Y9418200D02*
X36682600Y9418200D01*
X42143300Y-1100700D02*
X42143300Y508400D01*
X22620600Y2294600D02*
X22888900Y2026300D01*
X21891500Y2294600D02*
X22620600Y2294600D01*
X34664200Y-6672400D02*
X33740000Y-7596600D01*
X34225000Y3500000D02*
X34475000Y3500000D01*
X35591800Y-6672400D02*
X35591800Y-7291800D01*
X19448800Y1922900D02*
X21519800Y1922900D01*
X42143300Y508400D02*
X41901700Y750000D01*
X33740000Y-7596600D02*
X33740000Y-9500000D01*
X22888900Y648900D02*
X22888900Y2026300D01*
X21240000Y-1000000D02*
X22888900Y648900D01*
X18880100Y1354200D02*
X19448800Y1922900D01*
X35591800Y-7291800D02*
X35700000Y-7400000D01*
X30225000Y-500000D02*
X29989000Y-500000D01*
X17838500Y-348500D02*
X18564500Y-348500D01*
X40877500Y-1000700D02*
X40877500Y-912500D01*
X35591800Y-4981100D02*
X35591800Y-6672400D01*
%TO.N,VBAT_SENSE*%
X24013400Y623400D02*
X24013400Y1466600D01*
X16671800Y-347200D02*
X17087200Y-347200D01*
X17087200Y-347200D02*
X17740000Y-1000000D01*
X19438700Y7689700D02*
X18248600Y7689700D01*
X23600000Y210000D02*
X24013400Y623400D01*
X24013400Y1466600D02*
X24013500Y1466600D01*
X16172800Y-347200D02*
X16671800Y-347200D01*
X16671800Y6112900D02*
X16671800Y-347200D01*
X18248600Y7689700D02*
X16671800Y6112900D01*
X15520000Y-1000000D02*
X16172800Y-347200D01*
%TO.N,BTN*%
X31850000Y-9700000D02*
X32976700Y-9700000D01*
X32976700Y-6747300D02*
X37403300Y-2320700D01*
X24423300Y-9131100D02*
X20533700Y-5241500D01*
X18343000Y6914900D02*
X17391100Y5963000D01*
X31850000Y-9700000D02*
X25550000Y-9700000D01*
X38866300Y750000D02*
X39215000Y750000D01*
X37403300Y-2320700D02*
X37403300Y-713000D01*
X25550000Y-9700000D02*
X24423300Y-9700000D01*
X24423300Y-9700000D02*
X24423300Y-9131100D01*
X17391100Y5963000D02*
X17391100Y1118900D01*
X37403300Y-713000D02*
X38866300Y750000D01*
X17391100Y1118900D02*
X18260000Y250000D01*
X32976700Y-9700000D02*
X32976700Y-6747300D01*
%TO.N,GNSS_EN*%
X30026900Y5000000D02*
X29400300Y5626600D01*
X34240000Y5000000D02*
X30026900Y5000000D01*
%TO.N,VIB_IN*%
X18893300Y-2804200D02*
X18343500Y-2804200D01*
X20000000Y-1697500D02*
X18893300Y-2804200D01*
X18343500Y-2804200D02*
X18343500Y-2804300D01*
X20000000Y-1210000D02*
X20000000Y-1697500D01*
%TO.N,SDA*%
X34859500Y-9400500D02*
X34760000Y-9500000D01*
X39877500Y-912500D02*
X39877500Y-1773600D01*
X38700000Y-5701600D02*
X39114100Y-5287500D01*
X38700000Y-7400000D02*
X38700000Y-5701600D01*
X39114100Y-2537000D02*
X39114100Y-5287500D01*
X34859500Y-7295600D02*
X34859500Y-9400500D01*
X39114100Y-5287500D02*
X39528300Y-5287500D01*
X39877500Y-1773600D02*
X39114100Y-2537000D01*
%TO.N,SCL*%
X39019400Y-8471200D02*
X38007100Y-8471200D01*
X40377500Y-912500D02*
X40377500Y-1722600D01*
X37700000Y-7400000D02*
X37700000Y-8164100D01*
X40377500Y-1722600D02*
X40877900Y-2223000D01*
X21268000Y-4044100D02*
X21268000Y-1992000D01*
X40845000Y-6645600D02*
X39019400Y-8471200D01*
X40877900Y-2223000D02*
X40877900Y-4440500D01*
X37700000Y-8164100D02*
X38007100Y-8471200D01*
X40845000Y-4473400D02*
X40845000Y-6645600D01*
X21268000Y-1992000D02*
X22260000Y-1000000D01*
X40877900Y-4440500D02*
X40845000Y-4473400D01*
X38007100Y-8471200D02*
X38007100Y-8988000D01*
%TO.N,I2S_BCLK*%
X24422200Y-5193300D02*
X25928000Y-3687500D01*
X29551700Y-6322400D02*
X29189300Y-6684800D01*
X24422200Y-6548800D02*
X24422200Y-5193300D01*
X24558200Y-6684800D02*
X24422200Y-6548800D01*
X25928000Y-3687500D02*
X26192500Y-3687500D01*
X29189300Y-6684800D02*
X24558200Y-6684800D01*
%TO.N,I2S_LRCLK*%
X28986400Y-4383900D02*
X27441300Y-4383900D01*
X29181000Y-4189300D02*
X28986400Y-4383900D01*
X27192500Y-4135100D02*
X27192500Y-3687500D01*
X27441300Y-4383900D02*
X27192500Y-4135100D01*
%TO.N,I2S_DIN*%
X25505000Y-3000000D02*
X25110600Y-3000000D01*
X25110600Y-3000000D02*
X24613200Y-2502600D01*
X24613200Y-2502600D02*
X24613200Y-759000D01*
%TO.N,VBUS*%
X29990000Y-4253800D02*
X28800700Y-5443100D01*
X28800700Y-5443100D02*
X27756300Y-5443100D01*
X29990000Y-4000000D02*
X29990000Y-4253800D01*
%TO.N,VBAT*%
X34232500Y750000D02*
X36937500Y750000D01*
X34270000Y7500000D02*
X33395300Y8374700D01*
X23600000Y-810000D02*
X24233600Y-176400D01*
X26933300Y-100600D02*
X26933200Y-100600D01*
X29430600Y-3294400D02*
X30225000Y-2500000D01*
X25401400Y-666900D02*
X25505000Y-770600D01*
X29321700Y-3294400D02*
X29430600Y-3294400D01*
X31225000Y-1500000D02*
X31982500Y-1500000D01*
X31982500Y-1500000D02*
X34232500Y750000D01*
X27192500Y-812500D02*
X27692500Y-812500D01*
X24233600Y-176400D02*
X24910800Y-176400D01*
X26933300Y-100600D02*
X27157800Y123900D01*
X26933200Y-100600D02*
X25967700Y-100600D01*
X27192500Y-812500D02*
X27192500Y-359900D01*
X30225000Y-2500000D02*
X31225000Y-1500000D01*
X27192500Y-359900D02*
X26933300Y-100600D01*
X33395300Y8374700D02*
X33395300Y9127800D01*
X25505000Y-770600D02*
X25505000Y-1500000D01*
X25967700Y-100600D02*
X25401400Y-666900D01*
X24910800Y-176400D02*
X25401400Y-666900D01*
%TO.N,VBUS_DET*%
X39224600Y6886700D02*
X38814700Y6476800D01*
X31010000Y-4526000D02*
X30437300Y-5098700D01*
X45532800Y-1099800D02*
X45532800Y1633800D01*
X38814700Y6476800D02*
X36815200Y6476800D01*
X34848500Y6858500D02*
X34240000Y6250000D01*
X45532800Y1633800D02*
X46194800Y2295800D01*
X42562500Y-5450000D02*
X44897000Y-5450000D01*
X36815200Y6476800D02*
X36433500Y6858500D01*
X41570800Y-6391800D02*
X41620700Y-6391800D01*
X44101300Y6886700D02*
X39224600Y6886700D01*
X46194800Y5309500D02*
X45467100Y6037200D01*
X41620700Y-6391800D02*
X42562500Y-5450000D01*
X44950800Y6037200D02*
X44101300Y6886700D01*
X44897000Y-5450000D02*
X45999800Y-4347200D01*
X36433500Y6858500D02*
X34848500Y6858500D01*
X46194800Y2295800D02*
X46194800Y5309500D01*
X45999800Y-1566800D02*
X45532800Y-1099800D01*
X45467100Y6037200D02*
X44950800Y6037200D01*
X31010000Y-4000000D02*
X31010000Y-4526000D01*
X45999800Y-4347200D02*
X45999800Y-1566800D01*
%TO.N,SPK_P*%
X28437100Y-829400D02*
X28380000Y-886500D01*
X18200000Y-4803100D02*
X20627900Y-2375200D01*
X18200000Y-9850000D02*
X18200000Y-4803100D01*
X28380000Y-886500D02*
X28380000Y-1500000D01*
%TO.N,SPK_N*%
X29057900Y-2000000D02*
X28380000Y-2000000D01*
X29421400Y-1636500D02*
X29057900Y-2000000D01*
X20436900Y-3910500D02*
X19957000Y-4390400D01*
X19957000Y-9607000D02*
X20200000Y-9850000D01*
X19957000Y-4390400D02*
X19957000Y-9607000D01*
%TO.N,SW_G*%
X44010000Y2000000D02*
X44437500Y1572500D01*
X42920400Y4742200D02*
X43228300Y4434300D01*
X37374100Y-200000D02*
X38975200Y1401100D01*
X39450000Y3703500D02*
X39450000Y2664800D01*
X39450000Y4742200D02*
X42920400Y4742200D01*
X44437500Y1572500D02*
X44437500Y-4500000D01*
X38975200Y1401100D02*
X38975200Y2190000D01*
X35062500Y-200000D02*
X37374100Y-200000D01*
X39450000Y3703500D02*
X39450000Y4742200D01*
X38975200Y2190000D02*
X39450000Y2664800D01*
X43228300Y2781700D02*
X44010000Y2000000D01*
X43228300Y4434300D02*
X43228300Y2781700D01*
%TO.N,BAT_RAW*%
X35611100Y1700000D02*
X35062500Y1700000D01*
X42464900Y1024800D02*
X42990000Y1549900D01*
X22387900Y6579900D02*
X32947400Y6579900D01*
X36758700Y2847600D02*
X35611100Y1700000D01*
X22151100Y6816700D02*
X22387900Y6579900D01*
X32947400Y6579900D02*
X33892900Y5634400D01*
X36348000Y5350000D02*
X36109100Y5111100D01*
X19085600Y6816700D02*
X22151100Y6816700D01*
X36109100Y5111100D02*
X36758700Y4461400D01*
X42990000Y1549900D02*
X42990000Y2000000D01*
X35585700Y5634400D02*
X36109100Y5111100D01*
X36758700Y4461400D02*
X36758700Y2847600D01*
X33892900Y5634400D02*
X35585700Y5634400D01*
X18200000Y4150000D02*
X18200000Y5931100D01*
X18200000Y5931100D02*
X19085600Y6816700D01*
%TD*%
%TA.AperFunction,Conductor*%
%TO.N,GND*%
G36*
X19360803Y59136D02*
G01*
X19367281Y53104D01*
X19443181Y-22796D01*
X19476666Y-84119D01*
X19479500Y-110477D01*
X19479500Y-364316D01*
X19485931Y-413171D01*
X19535935Y-520404D01*
X19627267Y-611736D01*
X19624443Y-614559D01*
X19655183Y-653042D01*
X19662352Y-722542D01*
X19630808Y-784886D01*
X19627101Y-788098D01*
X19627267Y-788264D01*
X19535935Y-879595D01*
X19485931Y-986828D01*
X19479500Y-1035683D01*
X19479500Y-1384316D01*
X19485931Y-1433171D01*
X19535935Y-1540404D01*
X19564026Y-1568495D01*
X19597511Y-1629818D01*
X19592527Y-1699510D01*
X19564026Y-1743857D01*
X18865130Y-2442754D01*
X18803807Y-2476239D01*
X18734116Y-2471255D01*
X18689768Y-2442754D01*
X18650816Y-2403802D01*
X18650814Y-2403800D01*
X18593750Y-2370854D01*
X18536687Y-2337908D01*
X18433430Y-2310241D01*
X18409392Y-2303800D01*
X18277608Y-2303800D01*
X18150312Y-2337908D01*
X18036186Y-2403800D01*
X18036183Y-2403802D01*
X17943002Y-2496983D01*
X17943000Y-2496986D01*
X17877108Y-2611112D01*
X17856035Y-2689760D01*
X17843000Y-2738408D01*
X17843000Y-2870192D01*
X17851440Y-2901689D01*
X17877108Y-2997487D01*
X17910054Y-3054550D01*
X17943000Y-3111614D01*
X18036186Y-3204800D01*
X18150314Y-3270692D01*
X18277608Y-3304800D01*
X18277610Y-3304800D01*
X18409390Y-3304800D01*
X18409392Y-3304800D01*
X18536686Y-3270692D01*
X18650814Y-3204800D01*
X18739596Y-3116018D01*
X18800920Y-3082534D01*
X18827277Y-3079700D01*
X18948099Y-3079700D01*
X18948100Y-3079700D01*
X19049358Y-3037757D01*
X19126857Y-2960258D01*
X19126856Y-2960258D01*
X19185425Y-2901689D01*
X19928132Y-2158983D01*
X19989452Y-2125500D01*
X20059144Y-2130484D01*
X20115077Y-2172356D01*
X20139494Y-2237820D01*
X20135585Y-2278757D01*
X20127400Y-2309308D01*
X20127400Y-2309310D01*
X20127400Y-2434721D01*
X20107715Y-2501760D01*
X20091081Y-2522402D01*
X18043942Y-4569543D01*
X17966444Y-4647040D01*
X17966443Y-4647041D01*
X17966443Y-4647042D01*
X17961324Y-4659400D01*
X17924500Y-4748299D01*
X17924500Y-7793656D01*
X17904815Y-7860695D01*
X17852011Y-7906450D01*
X17841456Y-7910697D01*
X17737117Y-7947207D01*
X17627850Y-8027850D01*
X17547207Y-8137117D01*
X17547206Y-8137119D01*
X17502353Y-8265298D01*
X17502353Y-8265300D01*
X17499500Y-8295730D01*
X17499500Y-11404269D01*
X17502353Y-11434699D01*
X17502353Y-11434701D01*
X17542103Y-11548296D01*
X17547207Y-11562882D01*
X17627850Y-11672150D01*
X17737118Y-11752793D01*
X17779845Y-11767744D01*
X17865299Y-11797646D01*
X17895730Y-11800500D01*
X17895734Y-11800500D01*
X18504270Y-11800500D01*
X18534699Y-11797646D01*
X18534701Y-11797646D01*
X18598790Y-11775219D01*
X18662882Y-11752793D01*
X18772150Y-11672150D01*
X18852793Y-11562882D01*
X18889618Y-11457643D01*
X18897646Y-11434701D01*
X18897646Y-11434699D01*
X18900500Y-11404269D01*
X18900500Y-8295730D01*
X18897646Y-8265305D01*
X18897646Y-8265301D01*
X18897643Y-8265294D01*
X18896515Y-8260123D01*
X18901441Y-8190427D01*
X18943265Y-8134458D01*
X19008708Y-8109985D01*
X19049747Y-8113886D01*
X19078908Y-8121700D01*
X19078911Y-8121700D01*
X19210690Y-8121700D01*
X19210692Y-8121700D01*
X19337986Y-8087592D01*
X19337993Y-8087587D01*
X19345500Y-8084480D01*
X19346683Y-8087336D01*
X19400316Y-8074299D01*
X19466353Y-8097120D01*
X19509570Y-8152020D01*
X19516244Y-8221571D01*
X19511516Y-8239114D01*
X19502353Y-8265299D01*
X19502353Y-8265300D01*
X19499500Y-8295730D01*
X19499500Y-11404269D01*
X19502353Y-11434699D01*
X19502353Y-11434701D01*
X19542103Y-11548296D01*
X19547207Y-11562882D01*
X19627850Y-11672150D01*
X19663586Y-11698524D01*
X19669854Y-11703150D01*
X19712104Y-11758798D01*
X19717563Y-11828454D01*
X19684495Y-11890003D01*
X19623401Y-11923904D01*
X19611048Y-11926030D01*
X19526786Y-11936178D01*
X19500000Y-11939405D01*
X19000000Y-11999625D01*
X18499999Y-12059844D01*
X18500000Y-12059845D01*
X18000000Y-12120066D01*
X17999999Y-12120066D01*
X17500000Y-12180286D01*
X17000000Y-12240506D01*
X16499999Y-12300725D01*
X16500000Y-12300726D01*
X16000000Y-12360947D01*
X15999999Y-12360947D01*
X15500000Y-12421167D01*
X15136885Y-12464900D01*
X15067973Y-12453373D01*
X15016232Y-12406419D01*
X14998070Y-12343526D01*
X14994942Y-12120066D01*
X14909730Y-6032327D01*
X14928474Y-5965021D01*
X14980633Y-5918532D01*
X15049645Y-5907621D01*
X15107349Y-5930823D01*
X15137118Y-5952793D01*
X15265302Y-5997646D01*
X15265301Y-5997646D01*
X15269271Y-5998018D01*
X15295735Y-6000500D01*
X16404264Y-6000499D01*
X16434698Y-5997646D01*
X16562882Y-5952793D01*
X16672150Y-5872150D01*
X16752793Y-5762882D01*
X16797646Y-5634698D01*
X16800500Y-5604265D01*
X16800499Y-2595736D01*
X16797646Y-2565302D01*
X16752793Y-2437118D01*
X16672150Y-2327850D01*
X16563805Y-2247888D01*
X16562881Y-2247206D01*
X16434695Y-2202353D01*
X16434698Y-2202353D01*
X16404268Y-2199500D01*
X15295741Y-2199500D01*
X15265301Y-2202354D01*
X15265300Y-2202354D01*
X15137119Y-2247206D01*
X15053857Y-2308656D01*
X14988228Y-2332626D01*
X14920058Y-2317310D01*
X14870990Y-2267570D01*
X14856237Y-2210624D01*
X14844734Y-1388844D01*
X14863479Y-1321539D01*
X14915637Y-1275050D01*
X14984650Y-1264139D01*
X15048605Y-1292272D01*
X15081103Y-1334706D01*
X15096776Y-1368316D01*
X15181684Y-1453224D01*
X15290513Y-1503972D01*
X15340099Y-1510500D01*
X15699900Y-1510499D01*
X15749487Y-1503972D01*
X15858316Y-1453224D01*
X15943224Y-1368316D01*
X15993972Y-1259487D01*
X16000500Y-1209901D01*
X16000499Y-960476D01*
X16020183Y-893438D01*
X16036809Y-872805D01*
X16250598Y-659016D01*
X16311920Y-625534D01*
X16338278Y-622700D01*
X16617000Y-622700D01*
X16726600Y-622700D01*
X16921723Y-622700D01*
X16988762Y-642385D01*
X17009404Y-659019D01*
X17233181Y-882796D01*
X17266666Y-944119D01*
X17269500Y-970477D01*
X17269500Y-1224316D01*
X17275931Y-1273171D01*
X17275932Y-1273173D01*
X17325935Y-1380404D01*
X17409596Y-1464065D01*
X17516827Y-1514068D01*
X17565683Y-1520500D01*
X17565684Y-1520500D01*
X17914317Y-1520500D01*
X17930601Y-1518356D01*
X17963173Y-1514068D01*
X18070404Y-1464065D01*
X18154065Y-1380404D01*
X18204068Y-1273173D01*
X18210500Y-1224316D01*
X18210500Y-775684D01*
X18208986Y-764185D01*
X18219751Y-695152D01*
X18266130Y-642895D01*
X18331925Y-624000D01*
X18619299Y-624000D01*
X18619300Y-624000D01*
X18720558Y-582057D01*
X18798057Y-504558D01*
X18798056Y-504558D01*
X19113658Y-188958D01*
X19155600Y-87700D01*
X19155600Y-34577D01*
X19175285Y32462D01*
X19228089Y78217D01*
X19297247Y88161D01*
X19360803Y59136D01*
G37*
%TD.AperFunction*%
%TA.AperFunction,Conductor*%
G36*
X20388580Y-5720771D02*
G01*
X20467808Y-5742000D01*
X20467810Y-5742000D01*
X20593223Y-5742000D01*
X20660262Y-5761685D01*
X20680904Y-5778319D01*
X24111481Y-9208896D01*
X24144966Y-9270219D01*
X24147800Y-9296577D01*
X24147800Y-9754800D01*
X24189743Y-9856058D01*
X24267242Y-9933557D01*
X24368500Y-9975500D01*
X24375500Y-9975500D01*
X24442539Y-9995185D01*
X24488294Y-10047989D01*
X24499500Y-10099500D01*
X24499500Y-10219752D01*
X24511131Y-10278229D01*
X24511132Y-10278230D01*
X24555447Y-10344552D01*
X24621769Y-10388867D01*
X24621770Y-10388868D01*
X24680247Y-10400499D01*
X24680250Y-10400500D01*
X24680252Y-10400500D01*
X26419750Y-10400500D01*
X26419751Y-10400499D01*
X26434568Y-10397552D01*
X26478229Y-10388868D01*
X26478229Y-10388867D01*
X26478231Y-10388867D01*
X26544552Y-10344552D01*
X26588867Y-10278231D01*
X26588867Y-10278229D01*
X26588868Y-10278229D01*
X26599763Y-10223451D01*
X26600500Y-10219748D01*
X26600500Y-10099500D01*
X26620185Y-10032461D01*
X26672989Y-9986706D01*
X26724500Y-9975500D01*
X30675500Y-9975500D01*
X30742539Y-9995185D01*
X30788294Y-10047989D01*
X30799500Y-10099500D01*
X30799500Y-10219752D01*
X30811131Y-10278229D01*
X30811132Y-10278230D01*
X30855448Y-10344553D01*
X30864953Y-10350904D01*
X30909759Y-10404516D01*
X30918466Y-10473841D01*
X30888312Y-10536868D01*
X30828869Y-10573588D01*
X30810891Y-10577116D01*
X30591684Y-10603517D01*
X30500000Y-10614560D01*
X30000000Y-10674780D01*
X29499999Y-10734999D01*
X29500000Y-10735000D01*
X29000000Y-10795221D01*
X28999999Y-10795221D01*
X28500000Y-10855441D01*
X28000000Y-10915661D01*
X27499999Y-10975880D01*
X27500000Y-10975881D01*
X27000000Y-11036102D01*
X26999999Y-11036102D01*
X26500000Y-11096322D01*
X25500000Y-11216762D01*
X24999999Y-11276981D01*
X25000000Y-11276982D01*
X24500000Y-11337203D01*
X24499999Y-11337203D01*
X24000000Y-11397423D01*
X23500000Y-11457643D01*
X22999999Y-11517862D01*
X23000000Y-11517863D01*
X22500000Y-11578084D01*
X22499999Y-11578084D01*
X22010736Y-11637011D01*
X22000000Y-11638304D01*
X21500000Y-11698524D01*
X21000000Y-11758744D01*
X20964920Y-11762969D01*
X20896008Y-11751440D01*
X20844268Y-11704485D01*
X20826128Y-11637011D01*
X20847346Y-11570441D01*
X20850292Y-11566269D01*
X20852793Y-11562882D01*
X20889618Y-11457643D01*
X20897646Y-11434701D01*
X20897646Y-11434699D01*
X20900500Y-11404269D01*
X20900500Y-8295730D01*
X20897646Y-8265300D01*
X20897646Y-8265298D01*
X20852793Y-8137119D01*
X20852792Y-8137117D01*
X20850830Y-8134458D01*
X20772150Y-8027850D01*
X20662882Y-7947207D01*
X20662880Y-7947206D01*
X20534700Y-7902353D01*
X20504270Y-7899500D01*
X20504266Y-7899500D01*
X20356500Y-7899500D01*
X20289461Y-7879815D01*
X20243706Y-7827011D01*
X20232500Y-7775500D01*
X20232500Y-5840549D01*
X20252185Y-5773510D01*
X20304989Y-5727755D01*
X20374147Y-5717811D01*
X20388580Y-5720771D01*
G37*
%TD.AperFunction*%
%TA.AperFunction,Conductor*%
G36*
X42821961Y4447015D02*
G01*
X42842604Y4430381D01*
X42916482Y4356502D01*
X42949966Y4295178D01*
X42952800Y4268821D01*
X42952800Y2726897D01*
X42967275Y2691955D01*
X42974745Y2622485D01*
X42943471Y2560006D01*
X42883383Y2524352D01*
X42852715Y2520500D01*
X42815683Y2520500D01*
X42791255Y2517284D01*
X42766827Y2514068D01*
X42659596Y2464065D01*
X42659595Y2464064D01*
X42575935Y2380404D01*
X42525931Y2273171D01*
X42519500Y2224316D01*
X42519500Y1775683D01*
X42525931Y1726828D01*
X42537647Y1701705D01*
X42548139Y1632628D01*
X42519619Y1568844D01*
X42461143Y1530604D01*
X42425265Y1525300D01*
X42399008Y1525300D01*
X42271714Y1491192D01*
X42157586Y1425300D01*
X42064400Y1332114D01*
X42043723Y1296300D01*
X41998508Y1217987D01*
X41975725Y1132957D01*
X41939360Y1073296D01*
X41876513Y1042767D01*
X41831758Y1043433D01*
X41810436Y1047674D01*
X41786175Y1052500D01*
X41293826Y1052499D01*
X41231111Y1040025D01*
X41159994Y992506D01*
X41112475Y921389D01*
X41112475Y921388D01*
X41112473Y921384D01*
X41100000Y858677D01*
X41100000Y641327D01*
X41112475Y578609D01*
X41112477Y578605D01*
X41118971Y568887D01*
X41139847Y502209D01*
X41121361Y434830D01*
X41118970Y431110D01*
X41112475Y421390D01*
X41112473Y421384D01*
X41100000Y358677D01*
X41100000Y141327D01*
X41112475Y78612D01*
X41112476Y78607D01*
X41118969Y68891D01*
X41139847Y2213D01*
X41121362Y-65167D01*
X41118972Y-68887D01*
X41112475Y-78610D01*
X41112473Y-78615D01*
X41100000Y-141322D01*
X41100000Y-348500D01*
X41080315Y-415539D01*
X41027511Y-461294D01*
X40976001Y-472500D01*
X40768827Y-472500D01*
X40706109Y-484975D01*
X40706105Y-484977D01*
X40696387Y-491471D01*
X40629709Y-512347D01*
X40562330Y-493861D01*
X40558610Y-491470D01*
X40548890Y-484975D01*
X40548884Y-484973D01*
X40486177Y-472500D01*
X40268827Y-472500D01*
X40206109Y-484975D01*
X40206105Y-484977D01*
X40196387Y-491471D01*
X40129709Y-512347D01*
X40062330Y-493861D01*
X40058610Y-491470D01*
X40048890Y-484975D01*
X40048884Y-484973D01*
X39986177Y-472500D01*
X39768827Y-472500D01*
X39706110Y-484975D01*
X39683446Y-500119D01*
X39653087Y-520405D01*
X39634993Y-532495D01*
X39587475Y-603611D01*
X39587473Y-603615D01*
X39575000Y-666322D01*
X39575000Y-1158671D01*
X39587475Y-1221390D01*
X39592148Y-1232670D01*
X39588136Y-1234331D01*
X39601979Y-1278472D01*
X39602000Y-1280741D01*
X39602000Y-1608122D01*
X39582315Y-1675161D01*
X39565681Y-1695803D01*
X38958042Y-2303443D01*
X38880544Y-2380940D01*
X38838600Y-2482199D01*
X38838600Y-5122023D01*
X38818915Y-5189062D01*
X38802281Y-5209704D01*
X38466444Y-5545540D01*
X38466443Y-5545541D01*
X38466443Y-5545542D01*
X38465637Y-5547489D01*
X38424500Y-5646799D01*
X38424500Y-5722098D01*
X38404815Y-5789137D01*
X38352011Y-5834892D01*
X38282853Y-5844836D01*
X38219297Y-5815811D01*
X38193113Y-5784099D01*
X38191736Y-5781714D01*
X38180000Y-5761386D01*
X38086814Y-5668200D01*
X38019115Y-5629114D01*
X37972687Y-5602308D01*
X37909039Y-5585254D01*
X37845392Y-5568200D01*
X37713608Y-5568200D01*
X37586312Y-5602308D01*
X37472186Y-5668200D01*
X37472183Y-5668202D01*
X37379002Y-5761383D01*
X37379000Y-5761386D01*
X37313108Y-5875512D01*
X37281313Y-5994176D01*
X37279000Y-6002808D01*
X37279000Y-6134592D01*
X37283129Y-6150003D01*
X37313109Y-6261888D01*
X37313109Y-6261889D01*
X37358622Y-6340720D01*
X37375095Y-6408620D01*
X37352242Y-6474647D01*
X37338917Y-6490401D01*
X37260802Y-6568516D01*
X37209426Y-6673608D01*
X37199500Y-6741739D01*
X37199500Y-8058260D01*
X37209426Y-8126391D01*
X37260803Y-8231485D01*
X37343514Y-8314196D01*
X37343515Y-8314196D01*
X37343517Y-8314198D01*
X37448607Y-8365573D01*
X37481933Y-8370428D01*
X37545432Y-8399570D01*
X37551736Y-8405451D01*
X37629104Y-8482819D01*
X37662589Y-8544142D01*
X37657605Y-8613834D01*
X37629106Y-8658180D01*
X37606600Y-8680686D01*
X37540708Y-8794812D01*
X37506600Y-8922108D01*
X37506600Y-9053891D01*
X37540708Y-9181187D01*
X37556706Y-9208896D01*
X37606600Y-9295314D01*
X37699786Y-9388500D01*
X37813914Y-9454392D01*
X37912972Y-9480934D01*
X37972631Y-9517298D01*
X38003160Y-9580144D01*
X37994866Y-9649520D01*
X37950381Y-9703398D01*
X37895705Y-9723818D01*
X37638467Y-9754800D01*
X37500000Y-9771477D01*
X36500000Y-9891917D01*
X35999999Y-9952136D01*
X36000000Y-9952137D01*
X35500000Y-10012358D01*
X35499999Y-10012358D01*
X35310970Y-10035124D01*
X35242058Y-10023597D01*
X35190317Y-9976643D01*
X35172176Y-9909170D01*
X35183759Y-9859614D01*
X35224068Y-9773173D01*
X35230500Y-9724316D01*
X35230500Y-9275684D01*
X35224068Y-9226827D01*
X35174065Y-9119596D01*
X35171319Y-9116850D01*
X35168402Y-9111509D01*
X35167843Y-9110710D01*
X35167932Y-9110647D01*
X35137834Y-9055527D01*
X35135000Y-9029169D01*
X35135000Y-8405044D01*
X35154685Y-8338005D01*
X35207489Y-8292250D01*
X35276647Y-8282306D01*
X35334723Y-8308828D01*
X35335153Y-8308227D01*
X35338253Y-8310440D01*
X35340203Y-8311331D01*
X35342512Y-8313481D01*
X35343513Y-8314195D01*
X35343514Y-8314195D01*
X35343517Y-8314198D01*
X35448607Y-8365573D01*
X35481922Y-8370427D01*
X35516739Y-8375500D01*
X35516740Y-8375500D01*
X35883261Y-8375500D01*
X35918078Y-8370427D01*
X35951393Y-8365573D01*
X36056483Y-8314198D01*
X36139198Y-8231483D01*
X36190573Y-8126393D01*
X36200500Y-8058260D01*
X36200500Y-6741740D01*
X36190573Y-6673607D01*
X36139198Y-6568517D01*
X36139196Y-6568515D01*
X36139196Y-6568514D01*
X36056485Y-6485803D01*
X36022523Y-6469200D01*
X35951393Y-6434427D01*
X35951392Y-6434426D01*
X35942742Y-6430198D01*
X35943728Y-6428180D01*
X35896448Y-6396843D01*
X35868325Y-6332883D01*
X35867300Y-6316973D01*
X35867300Y-5994176D01*
X35886985Y-5927137D01*
X35939789Y-5881382D01*
X36008947Y-5871438D01*
X36072503Y-5900463D01*
X36078981Y-5906495D01*
X36109786Y-5937300D01*
X36188833Y-5982938D01*
X36219249Y-6000499D01*
X36223914Y-6003192D01*
X36351208Y-6037300D01*
X36351210Y-6037300D01*
X36482990Y-6037300D01*
X36482992Y-6037300D01*
X36610286Y-6003192D01*
X36724414Y-5937300D01*
X36817600Y-5844114D01*
X36883492Y-5729986D01*
X36917600Y-5602692D01*
X36917600Y-5470908D01*
X36883492Y-5343614D01*
X36817600Y-5229486D01*
X36724414Y-5136300D01*
X36667350Y-5103354D01*
X36610287Y-5070408D01*
X36522895Y-5046992D01*
X36482992Y-5036300D01*
X36351208Y-5036300D01*
X36248393Y-5063849D01*
X36178543Y-5062186D01*
X36120681Y-5023023D01*
X36093177Y-4958795D01*
X36092300Y-4944074D01*
X36092300Y-4915210D01*
X36092300Y-4915208D01*
X36058192Y-4787914D01*
X35992300Y-4673786D01*
X35899114Y-4580600D01*
X35806966Y-4527398D01*
X35758750Y-4476831D01*
X35745528Y-4408224D01*
X35771496Y-4343359D01*
X35781277Y-4332338D01*
X37636858Y-2476758D01*
X37636858Y-2476756D01*
X37636860Y-2476755D01*
X37658635Y-2424184D01*
X37678800Y-2375500D01*
X37678800Y-2265900D01*
X37678800Y-878477D01*
X37698485Y-811438D01*
X37715119Y-790796D01*
X38917097Y411181D01*
X38978420Y444666D01*
X39004778Y447500D01*
X39461171Y447500D01*
X39523890Y459975D01*
X39523891Y459976D01*
X39564818Y487322D01*
X39631496Y508199D01*
X39698876Y489714D01*
X39702594Y487325D01*
X39706111Y484975D01*
X39706115Y484973D01*
X39768822Y472500D01*
X39768825Y472500D01*
X39986172Y472500D01*
X40048889Y484975D01*
X40049788Y485576D01*
X40120006Y532494D01*
X40167525Y603611D01*
X40180000Y666325D01*
X40179999Y1158674D01*
X40167525Y1221389D01*
X40167523Y1221391D01*
X40162852Y1232670D01*
X40166863Y1234331D01*
X40153021Y1278472D01*
X40153000Y1280741D01*
X40153000Y1392498D01*
X40153000Y1392500D01*
X40112120Y1491192D01*
X40111057Y1493759D01*
X40111053Y1493762D01*
X40104273Y1503912D01*
X40105701Y1504866D01*
X40079134Y1553520D01*
X40076300Y1579878D01*
X40076300Y1947922D01*
X40095985Y2014961D01*
X40112619Y2035603D01*
X40684597Y2607581D01*
X40745920Y2641066D01*
X40772278Y2643900D01*
X40897691Y2643900D01*
X40897692Y2643900D01*
X40961339Y2660954D01*
X41024987Y2678008D01*
X41121149Y2733528D01*
X41139114Y2743900D01*
X41232300Y2837086D01*
X41298192Y2951214D01*
X41332300Y3078508D01*
X41332300Y3210292D01*
X41298192Y3337586D01*
X41232300Y3451714D01*
X41139114Y3544900D01*
X41024986Y3610792D01*
X40897692Y3644900D01*
X40765908Y3644900D01*
X40638614Y3610792D01*
X40524486Y3544900D01*
X40431300Y3451714D01*
X40414536Y3422678D01*
X40365408Y3337587D01*
X40331300Y3210291D01*
X40331300Y3084877D01*
X40311615Y3017838D01*
X40294984Y2997200D01*
X40162179Y2864395D01*
X40100858Y2830911D01*
X40031166Y2835895D01*
X39975233Y2877767D01*
X39950816Y2943231D01*
X39950500Y2952077D01*
X39950500Y4342700D01*
X39970185Y4409739D01*
X40022989Y4455494D01*
X40074500Y4466700D01*
X42754922Y4466700D01*
X42821961Y4447015D01*
G37*
%TD.AperFunction*%
%TA.AperFunction,Conductor*%
G36*
X37649999Y9753411D02*
G01*
X37650000Y9753411D01*
X38150000Y9693190D01*
X38149999Y9693189D01*
X38650000Y9632970D01*
X39650000Y9512530D01*
X40149999Y9452310D01*
X40150000Y9452310D01*
X40650000Y9392089D01*
X40649999Y9392088D01*
X41150000Y9331869D01*
X41216808Y9323822D01*
X41636734Y9273246D01*
X41662615Y9267263D01*
X41999995Y9150000D01*
X42000000Y9149999D01*
X42792068Y9115417D01*
X42802844Y9114474D01*
X43583507Y9011697D01*
X43594160Y9009819D01*
X44362907Y8839393D01*
X44373357Y8836593D01*
X45124323Y8599814D01*
X45134488Y8596114D01*
X45861958Y8294786D01*
X45871762Y8290214D01*
X46570192Y7926634D01*
X46579560Y7921226D01*
X47243661Y7498147D01*
X47252522Y7491942D01*
X47877213Y7012599D01*
X47885500Y7005645D01*
X48466035Y6473684D01*
X48473684Y6466035D01*
X49005645Y5885500D01*
X49012599Y5877213D01*
X49491942Y5252522D01*
X49498147Y5243661D01*
X49921226Y4579559D01*
X49926634Y4570191D01*
X50290214Y3871762D01*
X50294786Y3861958D01*
X50596114Y3134488D01*
X50599814Y3124323D01*
X50836593Y2373357D01*
X50839393Y2362907D01*
X51009819Y1594160D01*
X51011697Y1583507D01*
X51114474Y802844D01*
X51115417Y792068D01*
X51149763Y5409D01*
X51149763Y-5409D01*
X51115417Y-792068D01*
X51114474Y-802844D01*
X51011697Y-1583507D01*
X51009819Y-1594160D01*
X50839393Y-2362907D01*
X50836593Y-2373357D01*
X50599814Y-3124323D01*
X50596114Y-3134488D01*
X50294786Y-3861958D01*
X50290214Y-3871762D01*
X49926634Y-4570191D01*
X49921226Y-4579559D01*
X49498147Y-5243661D01*
X49491942Y-5252522D01*
X49012599Y-5877213D01*
X49005645Y-5885500D01*
X48473684Y-6466035D01*
X48466035Y-6473684D01*
X47885500Y-7005645D01*
X47877213Y-7012599D01*
X47252522Y-7491942D01*
X47243661Y-7498147D01*
X46579560Y-7921226D01*
X46570192Y-7926634D01*
X45871762Y-8290214D01*
X45861958Y-8294786D01*
X45134488Y-8596114D01*
X45124323Y-8599814D01*
X44373357Y-8836593D01*
X44362907Y-8839393D01*
X43594160Y-9009819D01*
X43583507Y-9011697D01*
X42802844Y-9114474D01*
X42792068Y-9115417D01*
X42284168Y-9137592D01*
X42000000Y-9150000D01*
X41999999Y-9150000D01*
X41509129Y-9287163D01*
X41490586Y-9290848D01*
X41062685Y-9342385D01*
X41000000Y-9349935D01*
X40499999Y-9410154D01*
X40500000Y-9410155D01*
X40000000Y-9470376D01*
X39999999Y-9470376D01*
X39500000Y-9530596D01*
X39000000Y-9590816D01*
X38499999Y-9651036D01*
X38292452Y-9676033D01*
X38223540Y-9664506D01*
X38171799Y-9617552D01*
X38153658Y-9550079D01*
X38174875Y-9483509D01*
X38215625Y-9445536D01*
X38218083Y-9444117D01*
X38314414Y-9388500D01*
X38407600Y-9295314D01*
X38473492Y-9181186D01*
X38507600Y-9053892D01*
X38507600Y-8922108D01*
X38502424Y-8902790D01*
X38504087Y-8832944D01*
X38543249Y-8775082D01*
X38607477Y-8747577D01*
X38622199Y-8746700D01*
X39074199Y-8746700D01*
X39074200Y-8746700D01*
X39175458Y-8704757D01*
X39252957Y-8627258D01*
X39252956Y-8627258D01*
X39311525Y-8568689D01*
X40409343Y-7470872D01*
X41087194Y-6793023D01*
X41090171Y-6796000D01*
X41126034Y-6766023D01*
X41195358Y-6757307D01*
X41258389Y-6787455D01*
X41263218Y-6792032D01*
X41263486Y-6792300D01*
X41377614Y-6858192D01*
X41504908Y-6892300D01*
X41504910Y-6892300D01*
X41636690Y-6892300D01*
X41636692Y-6892300D01*
X41763986Y-6858192D01*
X41878114Y-6792300D01*
X41971300Y-6699114D01*
X42037192Y-6584986D01*
X42071300Y-6457692D01*
X42071300Y-6382177D01*
X42090985Y-6315138D01*
X42107619Y-6294496D01*
X42415297Y-5986819D01*
X42476620Y-5953334D01*
X42502978Y-5950500D01*
X43183261Y-5950500D01*
X43205971Y-5947191D01*
X43251393Y-5940573D01*
X43356483Y-5889198D01*
X43439198Y-5806483D01*
X43444793Y-5795039D01*
X43491921Y-5743457D01*
X43556193Y-5725500D01*
X44951799Y-5725500D01*
X44951800Y-5725500D01*
X45053058Y-5683557D01*
X45130557Y-5606058D01*
X45130556Y-5606058D01*
X45189125Y-5547489D01*
X46233358Y-4503258D01*
X46233358Y-4503256D01*
X46233360Y-4503255D01*
X46270398Y-4413834D01*
X46275300Y-4402000D01*
X46275300Y-4292400D01*
X46275300Y-2496877D01*
X46294985Y-2429838D01*
X46347789Y-2384083D01*
X46416947Y-2374139D01*
X46480503Y-2403164D01*
X46486978Y-2409193D01*
X46947975Y-2870191D01*
X47402642Y-3324858D01*
X47402644Y-3324860D01*
X47460156Y-3348681D01*
X47503900Y-3366800D01*
X47941024Y-3366800D01*
X48008063Y-3386485D01*
X48028705Y-3403119D01*
X48117386Y-3491800D01*
X48212311Y-3546605D01*
X48222758Y-3552637D01*
X48231514Y-3557692D01*
X48358808Y-3591800D01*
X48358810Y-3591800D01*
X48490590Y-3591800D01*
X48490592Y-3591800D01*
X48617886Y-3557692D01*
X48732014Y-3491800D01*
X48825200Y-3398614D01*
X48891092Y-3284486D01*
X48925200Y-3157192D01*
X48925200Y-3025408D01*
X48891092Y-2898114D01*
X48825200Y-2783986D01*
X48732014Y-2690800D01*
X48674950Y-2657854D01*
X48617887Y-2624908D01*
X48509032Y-2595741D01*
X48490592Y-2590800D01*
X48358808Y-2590800D01*
X48231512Y-2624908D01*
X48117386Y-2690800D01*
X48117383Y-2690802D01*
X48028705Y-2779481D01*
X47967382Y-2812966D01*
X47941024Y-2815800D01*
X47724178Y-2815800D01*
X47657139Y-2796115D01*
X47636497Y-2779481D01*
X46663319Y-1806303D01*
X46629834Y-1744980D01*
X46627000Y-1718622D01*
X46627000Y-814566D01*
X46646685Y-747527D01*
X46699489Y-701772D01*
X46710042Y-697525D01*
X46720047Y-694024D01*
X46789826Y-690464D01*
X46850453Y-725194D01*
X46882679Y-787188D01*
X46885000Y-811067D01*
X46885000Y-950000D01*
X48975000Y-950000D01*
X48975000Y950000D01*
X46885000Y950000D01*
X46885000Y811067D01*
X46865315Y744028D01*
X46812511Y698273D01*
X46743353Y688329D01*
X46720042Y694026D01*
X46709699Y697646D01*
X46699554Y698597D01*
X46679270Y700500D01*
X46679266Y700500D01*
X46020734Y700500D01*
X46020730Y700500D01*
X45990301Y697646D01*
X45973256Y691682D01*
X45903477Y688119D01*
X45842849Y722848D01*
X45810622Y784841D01*
X45808300Y808723D01*
X45808300Y1468322D01*
X45827985Y1535361D01*
X45844619Y1556003D01*
X46428355Y2139739D01*
X46428357Y2139741D01*
X46446010Y2182359D01*
X46470300Y2241000D01*
X46470300Y5364300D01*
X46433268Y5453702D01*
X46428357Y5465559D01*
X45623158Y6270757D01*
X45614309Y6274422D01*
X45614304Y6274426D01*
X45614304Y6274424D01*
X45521900Y6312700D01*
X45517702Y6314439D01*
X45463299Y6358281D01*
X45441235Y6424575D01*
X45458515Y6492275D01*
X45509653Y6539884D01*
X45565156Y6553000D01*
X45919752Y6553000D01*
X45978229Y6564631D01*
X45978230Y6564632D01*
X46044552Y6608947D01*
X46088867Y6675269D01*
X46088868Y6675270D01*
X46100499Y6733747D01*
X46100500Y6733749D01*
X46100500Y7473250D01*
X46100499Y7473252D01*
X46088868Y7531729D01*
X46088867Y7531730D01*
X46088867Y7531731D01*
X46044552Y7598052D01*
X45978231Y7642367D01*
X45978229Y7642367D01*
X45978229Y7642368D01*
X45934568Y7651052D01*
X45919751Y7653999D01*
X45919751Y7654000D01*
X45919748Y7654000D01*
X44680252Y7654000D01*
X44680249Y7654000D01*
X44680247Y7653999D01*
X44621770Y7642368D01*
X44621769Y7642367D01*
X44555447Y7598052D01*
X44511132Y7531730D01*
X44511131Y7531729D01*
X44499500Y7473252D01*
X44499500Y7177477D01*
X44479815Y7110438D01*
X44427011Y7064683D01*
X44357853Y7054739D01*
X44294297Y7083764D01*
X44287819Y7089796D01*
X44285415Y7092200D01*
X44257358Y7120257D01*
X44233566Y7130112D01*
X44156100Y7162200D01*
X39169800Y7162200D01*
X39115498Y7139707D01*
X39071949Y7121668D01*
X39002481Y7114202D01*
X38940003Y7145478D01*
X38904351Y7205567D01*
X38900500Y7236231D01*
X38900500Y7473250D01*
X38900499Y7473252D01*
X38888868Y7531729D01*
X38888867Y7531730D01*
X38888867Y7531731D01*
X38844552Y7598052D01*
X38778231Y7642367D01*
X38778229Y7642367D01*
X38778229Y7642368D01*
X38734568Y7651052D01*
X38719751Y7653999D01*
X38719751Y7654000D01*
X38719748Y7654000D01*
X37480252Y7654000D01*
X37480249Y7654000D01*
X37480247Y7653999D01*
X37421770Y7642368D01*
X37421769Y7642367D01*
X37355447Y7598052D01*
X37311132Y7531730D01*
X37311131Y7531729D01*
X37299500Y7473252D01*
X37299500Y6876300D01*
X37279815Y6809261D01*
X37227011Y6763506D01*
X37175500Y6752300D01*
X36980678Y6752300D01*
X36913639Y6771985D01*
X36892997Y6788619D01*
X36589561Y7092055D01*
X36589559Y7092055D01*
X36589558Y7092057D01*
X36589213Y7092200D01*
X36488300Y7134000D01*
X34871344Y7134000D01*
X34804305Y7153685D01*
X34758550Y7206489D01*
X34748405Y7274185D01*
X34748579Y7275513D01*
X34750500Y7290099D01*
X34750499Y7709900D01*
X34743972Y7759487D01*
X34693224Y7868316D01*
X34608316Y7953224D01*
X34499487Y8003972D01*
X34499480Y8003972D01*
X34492686Y8005954D01*
X34433833Y8043613D01*
X34404683Y8107111D01*
X34414490Y8176289D01*
X34460141Y8229183D01*
X34492690Y8244047D01*
X34499487Y8246028D01*
X34608316Y8296776D01*
X34693223Y8381683D01*
X34693224Y8381684D01*
X34743972Y8490513D01*
X34750500Y8540099D01*
X34750499Y8789521D01*
X34770183Y8856560D01*
X34786818Y8877202D01*
X35015997Y9106381D01*
X35077320Y9139866D01*
X35103678Y9142700D01*
X36198924Y9142700D01*
X36265963Y9123015D01*
X36286605Y9106381D01*
X36375283Y9017702D01*
X36375286Y9017700D01*
X36489412Y8951808D01*
X36616708Y8917700D01*
X36748491Y8917700D01*
X36748492Y8917700D01*
X36812139Y8934754D01*
X36875787Y8951808D01*
X36938888Y8988240D01*
X36989914Y9017700D01*
X37083100Y9110886D01*
X37148992Y9225014D01*
X37183100Y9352308D01*
X37183100Y9484092D01*
X37148992Y9611386D01*
X37147420Y9614107D01*
X37146792Y9616697D01*
X37145880Y9618900D01*
X37146223Y9619042D01*
X37130945Y9682005D01*
X37153793Y9748033D01*
X37208712Y9791227D01*
X37269632Y9799222D01*
X37649999Y9753411D01*
G37*
%TD.AperFunction*%
%TA.AperFunction,Conductor*%
G36*
X22998834Y266704D02*
G01*
X23054767Y224832D01*
X23079184Y159368D01*
X23079500Y150522D01*
X23079500Y35683D01*
X23085931Y-13171D01*
X23135935Y-120404D01*
X23227267Y-211736D01*
X23224443Y-214559D01*
X23255183Y-253042D01*
X23262352Y-322542D01*
X23230808Y-384886D01*
X23227101Y-388098D01*
X23227267Y-388264D01*
X23135935Y-479595D01*
X23085931Y-586828D01*
X23079500Y-635683D01*
X23079500Y-984316D01*
X23085931Y-1033171D01*
X23106885Y-1078107D01*
X23135935Y-1140404D01*
X23219596Y-1224065D01*
X23326827Y-1274068D01*
X23375683Y-1280500D01*
X23375684Y-1280500D01*
X23824317Y-1280500D01*
X23840601Y-1278356D01*
X23873173Y-1274068D01*
X23980404Y-1224065D01*
X24064065Y-1140404D01*
X24064066Y-1140401D01*
X24070288Y-1131517D01*
X24073486Y-1133756D01*
X24106186Y-1096592D01*
X24173372Y-1077415D01*
X24240261Y-1097605D01*
X24260116Y-1113730D01*
X24301381Y-1154995D01*
X24334866Y-1216318D01*
X24337700Y-1242676D01*
X24337700Y-2557400D01*
X24360629Y-2612754D01*
X24379643Y-2658658D01*
X24379644Y-2658659D01*
X24941226Y-3220241D01*
X24956647Y-3239031D01*
X24965385Y-3252109D01*
X24965386Y-3252110D01*
X24965388Y-3252112D01*
X25052383Y-3310240D01*
X25052386Y-3310240D01*
X25052387Y-3310241D01*
X25090741Y-3317870D01*
X25129099Y-3325500D01*
X25601023Y-3325499D01*
X25668061Y-3345183D01*
X25713816Y-3397987D01*
X25723760Y-3467146D01*
X25694735Y-3530702D01*
X25688703Y-3537180D01*
X24266142Y-4959743D01*
X24188644Y-5037240D01*
X24188643Y-5037241D01*
X24188643Y-5037242D01*
X24186424Y-5042600D01*
X24165004Y-5094312D01*
X24146700Y-5138500D01*
X24146700Y-6603600D01*
X24175698Y-6673607D01*
X24180236Y-6684561D01*
X24180235Y-6684561D01*
X24188642Y-6704856D01*
X24188642Y-6704857D01*
X24188643Y-6704858D01*
X24324643Y-6840858D01*
X24402142Y-6918357D01*
X24503400Y-6960300D01*
X24503401Y-6960300D01*
X29244099Y-6960300D01*
X29244100Y-6960300D01*
X29345358Y-6918357D01*
X29404496Y-6859219D01*
X29465819Y-6825734D01*
X29492177Y-6822900D01*
X29617590Y-6822900D01*
X29617592Y-6822900D01*
X29744886Y-6788792D01*
X29859014Y-6722900D01*
X29952200Y-6629714D01*
X30018092Y-6515586D01*
X30052200Y-6388292D01*
X30052200Y-6256508D01*
X30018092Y-6129214D01*
X29952200Y-6015086D01*
X29859014Y-5921900D01*
X29781614Y-5877213D01*
X29744887Y-5856008D01*
X29666079Y-5834892D01*
X29617592Y-5821900D01*
X29485808Y-5821900D01*
X29358512Y-5856008D01*
X29244386Y-5921900D01*
X29244383Y-5921902D01*
X29151202Y-6015083D01*
X29151200Y-6015086D01*
X29085308Y-6129212D01*
X29051200Y-6256508D01*
X29051200Y-6285300D01*
X29031515Y-6352339D01*
X28978711Y-6398094D01*
X28927200Y-6409300D01*
X24821700Y-6409300D01*
X24754661Y-6389615D01*
X24708906Y-6336811D01*
X24697700Y-6285300D01*
X24697700Y-5358777D01*
X24717385Y-5291738D01*
X24734019Y-5271096D01*
X25244553Y-4760562D01*
X25771516Y-4233598D01*
X25832837Y-4200115D01*
X25902529Y-4205099D01*
X25929029Y-4222130D01*
X25930234Y-4220327D01*
X25940387Y-4227111D01*
X25940388Y-4227112D01*
X26027383Y-4285240D01*
X26027386Y-4285240D01*
X26027387Y-4285241D01*
X26057134Y-4291158D01*
X26104099Y-4300500D01*
X26280900Y-4300499D01*
X26357617Y-4285240D01*
X26444612Y-4227112D01*
X26502740Y-4140117D01*
X26518000Y-4063401D01*
X26517999Y-3311600D01*
X26502740Y-3234883D01*
X26502739Y-3234881D01*
X26502738Y-3234879D01*
X26464955Y-3178334D01*
X26444612Y-3147888D01*
X26357617Y-3089760D01*
X26357615Y-3089759D01*
X26357612Y-3089758D01*
X26280904Y-3074500D01*
X26280901Y-3074500D01*
X26241999Y-3074500D01*
X26174960Y-3054815D01*
X26129205Y-3002011D01*
X26117999Y-2950500D01*
X26117999Y-2911602D01*
X26117999Y-2911600D01*
X26102740Y-2834883D01*
X26102739Y-2834881D01*
X26102738Y-2834878D01*
X26092055Y-2818891D01*
X26071176Y-2752214D01*
X26089660Y-2684833D01*
X26092017Y-2681164D01*
X26102740Y-2665117D01*
X26118000Y-2588401D01*
X26117999Y-2411600D01*
X26102740Y-2334883D01*
X26102739Y-2334881D01*
X26102738Y-2334879D01*
X26073069Y-2290477D01*
X26044612Y-2247888D01*
X25957617Y-2189760D01*
X25957615Y-2189759D01*
X25957612Y-2189758D01*
X25880904Y-2174500D01*
X25129102Y-2174500D01*
X25091327Y-2182014D01*
X25052383Y-2189760D01*
X25052382Y-2189760D01*
X25040405Y-2192143D01*
X25039728Y-2188740D01*
X24990655Y-2194005D01*
X24928183Y-2162715D01*
X24892545Y-2102618D01*
X24888700Y-2071980D01*
X24888700Y-1928019D01*
X24908385Y-1860980D01*
X24961189Y-1815225D01*
X25030347Y-1805281D01*
X25040369Y-1808031D01*
X25040404Y-1807858D01*
X25109824Y-1821666D01*
X25129099Y-1825500D01*
X25880900Y-1825499D01*
X25957617Y-1810240D01*
X26044612Y-1752112D01*
X26102740Y-1665117D01*
X26117999Y-1588404D01*
X26118000Y-1588404D01*
X26118000Y-1549499D01*
X26137685Y-1482460D01*
X26190489Y-1436705D01*
X26242000Y-1425499D01*
X26280898Y-1425499D01*
X26280900Y-1425499D01*
X26357617Y-1410240D01*
X26373607Y-1399555D01*
X26440283Y-1378676D01*
X26507664Y-1397159D01*
X26511371Y-1399541D01*
X26526216Y-1409460D01*
X26527383Y-1410240D01*
X26527387Y-1410241D01*
X26565741Y-1417870D01*
X26604099Y-1425500D01*
X26780900Y-1425499D01*
X26857617Y-1410240D01*
X26873607Y-1399555D01*
X26940283Y-1378676D01*
X27007664Y-1397159D01*
X27011371Y-1399541D01*
X27026216Y-1409460D01*
X27027383Y-1410240D01*
X27027387Y-1410241D01*
X27065741Y-1417870D01*
X27104099Y-1425500D01*
X27280900Y-1425499D01*
X27357617Y-1410240D01*
X27373607Y-1399555D01*
X27440283Y-1378676D01*
X27507664Y-1397159D01*
X27511371Y-1399541D01*
X27526216Y-1409460D01*
X27527383Y-1410240D01*
X27527387Y-1410241D01*
X27565741Y-1417870D01*
X27604099Y-1425500D01*
X27642999Y-1425499D01*
X27710037Y-1445182D01*
X27755793Y-1497985D01*
X27767000Y-1549496D01*
X27767000Y-1588398D01*
X27782260Y-1665119D01*
X27792946Y-1681111D01*
X27813823Y-1747788D01*
X27795337Y-1815168D01*
X27792946Y-1818889D01*
X27782259Y-1834882D01*
X27767000Y-1911596D01*
X27767000Y-2088398D01*
X27782260Y-2165118D01*
X27782261Y-2165120D01*
X27807140Y-2202353D01*
X27840388Y-2252112D01*
X27927383Y-2310240D01*
X27927386Y-2310240D01*
X27927387Y-2310241D01*
X27962926Y-2317310D01*
X28004099Y-2325500D01*
X28755900Y-2325499D01*
X28832617Y-2310240D01*
X28832618Y-2310238D01*
X28832621Y-2310238D01*
X28853332Y-2296399D01*
X28920009Y-2275520D01*
X28922224Y-2275500D01*
X29112699Y-2275500D01*
X29112700Y-2275500D01*
X29213958Y-2233557D01*
X29274196Y-2173319D01*
X29335519Y-2139834D01*
X29361877Y-2137000D01*
X29450500Y-2137000D01*
X29517539Y-2156685D01*
X29563294Y-2209489D01*
X29574500Y-2261000D01*
X29574500Y-2682382D01*
X29554815Y-2749421D01*
X29502011Y-2795176D01*
X29432853Y-2805120D01*
X29418410Y-2802157D01*
X29387592Y-2793900D01*
X29255808Y-2793900D01*
X29128514Y-2828008D01*
X29128513Y-2828008D01*
X29128511Y-2828009D01*
X29128506Y-2828010D01*
X29116972Y-2834670D01*
X29049072Y-2851140D01*
X28983045Y-2828286D01*
X28951874Y-2796172D01*
X28951836Y-2796115D01*
X28919612Y-2747888D01*
X28832617Y-2689760D01*
X28832615Y-2689759D01*
X28832612Y-2689758D01*
X28755904Y-2674500D01*
X28004102Y-2674500D01*
X27927381Y-2689760D01*
X27927379Y-2689761D01*
X27840388Y-2747888D01*
X27782260Y-2834883D01*
X27782258Y-2834887D01*
X27767000Y-2911594D01*
X27767000Y-2950500D01*
X27747315Y-3017539D01*
X27694511Y-3063294D01*
X27643003Y-3074500D01*
X27604101Y-3074500D01*
X27527380Y-3089760D01*
X27511389Y-3100446D01*
X27444712Y-3121323D01*
X27377332Y-3102837D01*
X27373611Y-3100446D01*
X27357617Y-3089759D01*
X27280903Y-3074500D01*
X27104101Y-3074500D01*
X27027381Y-3089760D01*
X27027379Y-3089761D01*
X26940388Y-3147888D01*
X26882260Y-3234883D01*
X26882258Y-3234887D01*
X26867000Y-3311594D01*
X26867000Y-4063397D01*
X26872036Y-4088715D01*
X26882260Y-4140117D01*
X26882260Y-4140118D01*
X26882261Y-4140119D01*
X26912624Y-4185562D01*
X26924081Y-4206996D01*
X26929140Y-4219208D01*
X26941381Y-4248761D01*
X26945751Y-4259309D01*
X26945751Y-4259311D01*
X26945752Y-4259311D01*
X26945752Y-4259312D01*
X26958943Y-4291158D01*
X27285241Y-4617457D01*
X27314211Y-4629456D01*
X27314213Y-4629458D01*
X27314214Y-4629458D01*
X27386497Y-4659399D01*
X27386498Y-4659399D01*
X27386500Y-4659400D01*
X28895423Y-4659400D01*
X28962462Y-4679085D01*
X29008217Y-4731889D01*
X29018161Y-4801047D01*
X28989136Y-4864603D01*
X28983104Y-4871081D01*
X28722904Y-5131281D01*
X28661581Y-5164766D01*
X28635223Y-5167600D01*
X28239976Y-5167600D01*
X28172937Y-5147915D01*
X28152295Y-5131281D01*
X28063616Y-5042602D01*
X28063614Y-5042600D01*
X27990695Y-5000500D01*
X27949487Y-4976708D01*
X27882633Y-4958795D01*
X27822192Y-4942600D01*
X27690408Y-4942600D01*
X27563112Y-4976708D01*
X27448986Y-5042600D01*
X27448983Y-5042602D01*
X27355802Y-5135783D01*
X27355800Y-5135786D01*
X27289908Y-5249912D01*
X27255830Y-5377095D01*
X27255800Y-5377208D01*
X27255800Y-5508992D01*
X27266110Y-5547470D01*
X27289908Y-5636287D01*
X27308335Y-5668202D01*
X27355800Y-5750414D01*
X27448986Y-5843600D01*
X27563114Y-5909492D01*
X27690408Y-5943600D01*
X27690410Y-5943600D01*
X27822190Y-5943600D01*
X27822192Y-5943600D01*
X27949486Y-5909492D01*
X28063614Y-5843600D01*
X28152295Y-5754919D01*
X28213618Y-5721434D01*
X28239976Y-5718600D01*
X28855499Y-5718600D01*
X28855500Y-5718600D01*
X28956758Y-5676657D01*
X29034257Y-5599158D01*
X29034256Y-5599158D01*
X29092825Y-5540589D01*
X29732625Y-4900789D01*
X29793948Y-4867305D01*
X29863640Y-4872289D01*
X29919573Y-4914161D01*
X29943990Y-4979625D01*
X29940081Y-5020562D01*
X29936800Y-5032808D01*
X29936800Y-5164592D01*
X29948024Y-5206482D01*
X29970908Y-5291887D01*
X29995113Y-5333811D01*
X30036800Y-5406014D01*
X30129986Y-5499200D01*
X30244114Y-5565092D01*
X30371408Y-5599200D01*
X30371410Y-5599200D01*
X30503190Y-5599200D01*
X30503192Y-5599200D01*
X30630486Y-5565092D01*
X30744614Y-5499200D01*
X30837800Y-5406014D01*
X30903692Y-5291886D01*
X30937800Y-5164592D01*
X30937800Y-5039177D01*
X30957485Y-4972138D01*
X30974119Y-4951496D01*
X31084615Y-4841000D01*
X31243557Y-4682059D01*
X31266984Y-4625500D01*
X31285500Y-4580800D01*
X31285500Y-4567059D01*
X31305185Y-4500020D01*
X31338377Y-4465484D01*
X31340398Y-4464067D01*
X31340404Y-4464065D01*
X31424065Y-4380404D01*
X31474068Y-4273173D01*
X31480500Y-4224316D01*
X31480500Y-3775684D01*
X31480348Y-3774533D01*
X31474068Y-3726828D01*
X31474068Y-3726827D01*
X31424065Y-3619596D01*
X31340404Y-3535935D01*
X31233173Y-3485932D01*
X31233171Y-3485931D01*
X31233172Y-3485931D01*
X31184317Y-3479500D01*
X31184316Y-3479500D01*
X30835684Y-3479500D01*
X30835683Y-3479500D01*
X30786828Y-3485931D01*
X30679595Y-3535935D01*
X30588264Y-3627267D01*
X30585440Y-3624443D01*
X30546958Y-3655183D01*
X30477458Y-3662352D01*
X30415114Y-3630808D01*
X30411901Y-3627101D01*
X30411736Y-3627267D01*
X30320404Y-3535935D01*
X30299019Y-3525963D01*
X30213173Y-3485932D01*
X30213171Y-3485931D01*
X30213172Y-3485931D01*
X30164317Y-3479500D01*
X30164316Y-3479500D01*
X29946200Y-3479500D01*
X29879161Y-3459815D01*
X29833406Y-3407011D01*
X29822200Y-3355500D01*
X29822200Y-3343777D01*
X29841885Y-3276738D01*
X29858519Y-3256096D01*
X29902796Y-3211819D01*
X29964119Y-3178334D01*
X29990477Y-3175500D01*
X30483493Y-3175500D01*
X30583121Y-3159720D01*
X30583121Y-3159719D01*
X30583126Y-3159719D01*
X30703220Y-3098528D01*
X30798528Y-3003220D01*
X30859719Y-2883126D01*
X30859720Y-2883121D01*
X30875500Y-2783493D01*
X30875500Y-2290477D01*
X30895185Y-2223438D01*
X30911819Y-2202796D01*
X31302797Y-1811819D01*
X31364120Y-1778334D01*
X31390478Y-1775500D01*
X32037299Y-1775500D01*
X32037300Y-1775500D01*
X32138558Y-1733557D01*
X32216057Y-1656058D01*
X32216056Y-1656058D01*
X32274625Y-1597489D01*
X33912820Y40704D01*
X33974142Y74189D01*
X34043834Y69205D01*
X34099767Y27333D01*
X34124184Y-38131D01*
X34124500Y-46977D01*
X34124500Y-383260D01*
X34134426Y-451391D01*
X34185803Y-556485D01*
X34268514Y-639196D01*
X34268515Y-639196D01*
X34268517Y-639198D01*
X34322720Y-665696D01*
X34374301Y-712823D01*
X34392216Y-780357D01*
X34375649Y-839092D01*
X34367208Y-853711D01*
X34352363Y-909116D01*
X34333100Y-981008D01*
X34333100Y-1112792D01*
X34362983Y-1224316D01*
X34367208Y-1240085D01*
X34367207Y-1240085D01*
X34395056Y-1288321D01*
X34433100Y-1354214D01*
X34526286Y-1447400D01*
X34640414Y-1513292D01*
X34767708Y-1547400D01*
X34767710Y-1547400D01*
X34899490Y-1547400D01*
X34899492Y-1547400D01*
X35026786Y-1513292D01*
X35140914Y-1447400D01*
X35234100Y-1354214D01*
X35299992Y-1240086D01*
X35334100Y-1112792D01*
X35334100Y-981008D01*
X35300763Y-856591D01*
X35302426Y-786743D01*
X35341589Y-728881D01*
X35405817Y-701377D01*
X35420538Y-700500D01*
X35683261Y-700500D01*
X35719965Y-695152D01*
X35751393Y-690573D01*
X35856483Y-639198D01*
X35939198Y-556483D01*
X35942408Y-549917D01*
X35944793Y-545039D01*
X35991921Y-493457D01*
X36056193Y-475500D01*
X37017897Y-475500D01*
X37084936Y-495185D01*
X37130691Y-547989D01*
X37140635Y-617147D01*
X37132458Y-646952D01*
X37127801Y-658194D01*
X37127800Y-658201D01*
X37127800Y-2155222D01*
X37108115Y-2222261D01*
X37091481Y-2242903D01*
X35412181Y-3922203D01*
X35350858Y-3955688D01*
X35281166Y-3950704D01*
X35225233Y-3908832D01*
X35200816Y-3843368D01*
X35200500Y-3834522D01*
X35200500Y-2820730D01*
X35197646Y-2790300D01*
X35197646Y-2790298D01*
X35157126Y-2674501D01*
X35152793Y-2662118D01*
X35072150Y-2552850D01*
X34962882Y-2472207D01*
X34962880Y-2472206D01*
X34834700Y-2427353D01*
X34804270Y-2424500D01*
X34804266Y-2424500D01*
X33995734Y-2424500D01*
X33995730Y-2424500D01*
X33965300Y-2427353D01*
X33965298Y-2427353D01*
X33837119Y-2472206D01*
X33837117Y-2472207D01*
X33727850Y-2552850D01*
X33647207Y-2662117D01*
X33647206Y-2662119D01*
X33602353Y-2790298D01*
X33602353Y-2790300D01*
X33599500Y-2820730D01*
X33599500Y-4229269D01*
X33602353Y-4259699D01*
X33602353Y-4259701D01*
X33642144Y-4373413D01*
X33647207Y-4387882D01*
X33727850Y-4497150D01*
X33837118Y-4577793D01*
X33879845Y-4592744D01*
X33965299Y-4622646D01*
X33995730Y-4625500D01*
X33995734Y-4625500D01*
X34409523Y-4625500D01*
X34476562Y-4645185D01*
X34522317Y-4697989D01*
X34532261Y-4767147D01*
X34503236Y-4830703D01*
X34497204Y-4837181D01*
X32743144Y-6591240D01*
X32701200Y-6692499D01*
X32701200Y-8875500D01*
X32681515Y-8942539D01*
X32628711Y-8988294D01*
X32577200Y-8999500D01*
X30980247Y-8999500D01*
X30921770Y-9011131D01*
X30921769Y-9011132D01*
X30855447Y-9055447D01*
X30811132Y-9121769D01*
X30811131Y-9121770D01*
X30799500Y-9180247D01*
X30799500Y-9300500D01*
X30779815Y-9367539D01*
X30727011Y-9413294D01*
X30675500Y-9424500D01*
X26724500Y-9424500D01*
X26657461Y-9404815D01*
X26611706Y-9352011D01*
X26600500Y-9300500D01*
X26600500Y-9180249D01*
X26600499Y-9180247D01*
X26588868Y-9121770D01*
X26588867Y-9121769D01*
X26544552Y-9055447D01*
X26478230Y-9011132D01*
X26478229Y-9011131D01*
X26419752Y-8999500D01*
X26419748Y-8999500D01*
X24732678Y-8999500D01*
X24665639Y-8979815D01*
X24644997Y-8963181D01*
X23282938Y-7601122D01*
X21893140Y-6211325D01*
X21859656Y-6150003D01*
X21864640Y-6080311D01*
X21906512Y-6024378D01*
X21971976Y-5999961D01*
X21992407Y-6000187D01*
X21995735Y-6000500D01*
X23104264Y-6000499D01*
X23134698Y-5997646D01*
X23262882Y-5952793D01*
X23372150Y-5872150D01*
X23452793Y-5762882D01*
X23497646Y-5634698D01*
X23500500Y-5604265D01*
X23500499Y-2595736D01*
X23497646Y-2565302D01*
X23452793Y-2437118D01*
X23372150Y-2327850D01*
X23263805Y-2247888D01*
X23262881Y-2247206D01*
X23134695Y-2202353D01*
X23134698Y-2202353D01*
X23104268Y-2199500D01*
X21995741Y-2199500D01*
X21965301Y-2202354D01*
X21965300Y-2202354D01*
X21837118Y-2247206D01*
X21837115Y-2247208D01*
X21741133Y-2318046D01*
X21675504Y-2342017D01*
X21607334Y-2326701D01*
X21558266Y-2276961D01*
X21543500Y-2218276D01*
X21543500Y-2157477D01*
X21563185Y-2090438D01*
X21579819Y-2069796D01*
X22092796Y-1556819D01*
X22154119Y-1523334D01*
X22180477Y-1520500D01*
X22434317Y-1520500D01*
X22450601Y-1518356D01*
X22483173Y-1514068D01*
X22590404Y-1464065D01*
X22674065Y-1380404D01*
X22724068Y-1273173D01*
X22730500Y-1224316D01*
X22730500Y-775684D01*
X22724068Y-726827D01*
X22674065Y-619596D01*
X22590404Y-535935D01*
X22483173Y-485932D01*
X22483171Y-485931D01*
X22432473Y-479257D01*
X22368576Y-450991D01*
X22330105Y-392666D01*
X22329274Y-322802D01*
X22360975Y-268639D01*
X22867819Y238203D01*
X22929142Y271688D01*
X22998834Y266704D01*
G37*
%TD.AperFunction*%
%TA.AperFunction,Conductor*%
G36*
X43584886Y1630808D02*
G01*
X43588098Y1627101D01*
X43588264Y1627267D01*
X43679595Y1535935D01*
X43786829Y1485931D01*
X43786827Y1485931D01*
X43835683Y1479500D01*
X43835684Y1479500D01*
X44038000Y1479500D01*
X44105039Y1459815D01*
X44150794Y1407011D01*
X44162000Y1355500D01*
X44162000Y-3875500D01*
X44142315Y-3942539D01*
X44089511Y-3988294D01*
X44038000Y-3999500D01*
X43816739Y-3999500D01*
X43748608Y-4009426D01*
X43643514Y-4060803D01*
X43560803Y-4143514D01*
X43509426Y-4248608D01*
X43499500Y-4316739D01*
X43499500Y-4683260D01*
X43509426Y-4751391D01*
X43560803Y-4856485D01*
X43643515Y-4939197D01*
X43651878Y-4945168D01*
X43651119Y-4946229D01*
X43694898Y-4986227D01*
X43712812Y-5053761D01*
X43691371Y-5120260D01*
X43637382Y-5164610D01*
X43588855Y-5174500D01*
X43556193Y-5174500D01*
X43489154Y-5154815D01*
X43444793Y-5104961D01*
X43439197Y-5093515D01*
X43356485Y-5010803D01*
X43251391Y-4959426D01*
X43183261Y-4949500D01*
X43183260Y-4949500D01*
X41941740Y-4949500D01*
X41941739Y-4949500D01*
X41873608Y-4959426D01*
X41768514Y-5010803D01*
X41685803Y-5093514D01*
X41634426Y-5198608D01*
X41624500Y-5266739D01*
X41624500Y-5633260D01*
X41634426Y-5701392D01*
X41634426Y-5701393D01*
X41640023Y-5712841D01*
X41651781Y-5781714D01*
X41624437Y-5846011D01*
X41566673Y-5885318D01*
X41528622Y-5891300D01*
X41504908Y-5891300D01*
X41377614Y-5925408D01*
X41377613Y-5925408D01*
X41377611Y-5925409D01*
X41377610Y-5925409D01*
X41306500Y-5966465D01*
X41238600Y-5982938D01*
X41172573Y-5960085D01*
X41129382Y-5905164D01*
X41120500Y-5859078D01*
X41120500Y-4599393D01*
X41129939Y-4551940D01*
X41133757Y-4542723D01*
X41153400Y-4495300D01*
X41153400Y-4385700D01*
X41153400Y-2168200D01*
X41152123Y-2165118D01*
X41120896Y-2089729D01*
X41112558Y-2069600D01*
X41111457Y-2066942D01*
X41111457Y-2066941D01*
X40689319Y-1644803D01*
X40655834Y-1583480D01*
X40653000Y-1557122D01*
X40653000Y-1476499D01*
X40672685Y-1409460D01*
X40725489Y-1363705D01*
X40776995Y-1352499D01*
X40788324Y-1352499D01*
X40855361Y-1372184D01*
X40876003Y-1388818D01*
X41170019Y-1682834D01*
X41202112Y-1738419D01*
X41208507Y-1762284D01*
X41208507Y-1762285D01*
X41233062Y-1804815D01*
X41274400Y-1876414D01*
X41367586Y-1969600D01*
X41481714Y-2035492D01*
X41609008Y-2069600D01*
X41609010Y-2069600D01*
X41740790Y-2069600D01*
X41740792Y-2069600D01*
X41868086Y-2035492D01*
X41982214Y-1969600D01*
X42075400Y-1876414D01*
X42141292Y-1762286D01*
X42175400Y-1634992D01*
X42175400Y-1509577D01*
X42195085Y-1442538D01*
X42211719Y-1421896D01*
X42269910Y-1363705D01*
X42376858Y-1256758D01*
X42376858Y-1256756D01*
X42376860Y-1256755D01*
X42404609Y-1189760D01*
X42418800Y-1155500D01*
X42418800Y-1045900D01*
X42418800Y400811D01*
X42438485Y467850D01*
X42491289Y513605D01*
X42526612Y523750D01*
X42530792Y524300D01*
X42658087Y558408D01*
X42719906Y594100D01*
X42772214Y624300D01*
X42865400Y717486D01*
X42931292Y831614D01*
X42965400Y958908D01*
X42965400Y1084322D01*
X42985085Y1151361D01*
X43001719Y1172003D01*
X43223560Y1393844D01*
X43254867Y1469428D01*
X43298707Y1523832D01*
X43317022Y1534357D01*
X43320401Y1535933D01*
X43320402Y1535933D01*
X43411736Y1627267D01*
X43414559Y1624443D01*
X43453042Y1655183D01*
X43522542Y1662352D01*
X43584886Y1630808D01*
G37*
%TD.AperFunction*%
%TA.AperFunction,Conductor*%
G36*
X44621429Y4264699D02*
G01*
X44680247Y4253000D01*
X44680252Y4253000D01*
X45795300Y4253000D01*
X45862339Y4233315D01*
X45908094Y4180511D01*
X45919300Y4129000D01*
X45919300Y2461277D01*
X45899615Y2394238D01*
X45882981Y2373596D01*
X45376742Y1867357D01*
X45299243Y1789858D01*
X45257300Y1688600D01*
X45257300Y-1154600D01*
X45291018Y-1236002D01*
X45292710Y-1240085D01*
X45292709Y-1240085D01*
X45299241Y-1255855D01*
X45299244Y-1255859D01*
X45687981Y-1644596D01*
X45721466Y-1705919D01*
X45724300Y-1732277D01*
X45724300Y-4181722D01*
X45704615Y-4248761D01*
X45687985Y-4269398D01*
X45629143Y-4328241D01*
X45583971Y-4373413D01*
X45522648Y-4406897D01*
X45452956Y-4401913D01*
X45397023Y-4360041D01*
X45373587Y-4303612D01*
X45365573Y-4248607D01*
X45314198Y-4143517D01*
X45314196Y-4143515D01*
X45314196Y-4143514D01*
X45231485Y-4060803D01*
X45126391Y-4009426D01*
X45058261Y-3999500D01*
X45058260Y-3999500D01*
X44837000Y-3999500D01*
X44769961Y-3979815D01*
X44724206Y-3927011D01*
X44713000Y-3875500D01*
X44713000Y1627298D01*
X44712999Y1627302D01*
X44680496Y1705771D01*
X44680496Y1705772D01*
X44671774Y1726827D01*
X44671057Y1728558D01*
X44671057Y1728559D01*
X44516817Y1882797D01*
X44483334Y1944118D01*
X44480500Y1970477D01*
X44480500Y2224316D01*
X44478304Y2240997D01*
X44474068Y2273173D01*
X44424065Y2380404D01*
X44340404Y2464065D01*
X44246296Y2507948D01*
X44193858Y2554119D01*
X44174706Y2621312D01*
X44194921Y2688193D01*
X44248086Y2733528D01*
X44274510Y2741946D01*
X44328229Y2752632D01*
X44328230Y2752632D01*
X44394552Y2796947D01*
X44438867Y2863269D01*
X44438868Y2863270D01*
X44450499Y2921747D01*
X44450500Y2921749D01*
X44450500Y4149995D01*
X44470185Y4217034D01*
X44522989Y4262789D01*
X44592147Y4272733D01*
X44621429Y4264699D01*
G37*
%TD.AperFunction*%
%TA.AperFunction,Conductor*%
G36*
X28733487Y-3330420D02*
G01*
X28750956Y-3330316D01*
X28766317Y-3340060D01*
X28783768Y-3345184D01*
X28795205Y-3358383D01*
X28809958Y-3367741D01*
X28829215Y-3397318D01*
X28833727Y-3407045D01*
X28855308Y-3487586D01*
X28921200Y-3601714D01*
X28926482Y-3606996D01*
X28934130Y-3623482D01*
X28944485Y-3692580D01*
X28915838Y-3756307D01*
X28883648Y-3783048D01*
X28873689Y-3788798D01*
X28873683Y-3788802D01*
X28780502Y-3881983D01*
X28780500Y-3881986D01*
X28714608Y-3996112D01*
X28711905Y-4006198D01*
X28709147Y-4016494D01*
X28672784Y-4076153D01*
X28609937Y-4106683D01*
X28589373Y-4108400D01*
X28142000Y-4108400D01*
X28074961Y-4088715D01*
X28029206Y-4035911D01*
X28018000Y-3984400D01*
X28018000Y-3717314D01*
X28017999Y-3449498D01*
X28037683Y-3382460D01*
X28090487Y-3336705D01*
X28141999Y-3325499D01*
X28716729Y-3325499D01*
X28733487Y-3330420D01*
G37*
%TD.AperFunction*%
%TA.AperFunction,Conductor*%
G36*
X35487284Y5339215D02*
G01*
X35507916Y5322590D01*
X35557343Y5273173D01*
X35918305Y4912277D01*
X35918320Y4912263D01*
X36446888Y4383614D01*
X36480368Y4322288D01*
X36483200Y4295939D01*
X36483200Y3013077D01*
X36463515Y2946038D01*
X36446881Y2925396D01*
X35758304Y2236819D01*
X35696981Y2203334D01*
X35670623Y2200500D01*
X34441739Y2200500D01*
X34407938Y2195575D01*
X34373607Y2190573D01*
X34268517Y2139198D01*
X34268515Y2139196D01*
X34268514Y2139196D01*
X34185803Y2056485D01*
X34134426Y1951391D01*
X34124500Y1883260D01*
X34124500Y1516739D01*
X34134426Y1448608D01*
X34185803Y1343514D01*
X34268515Y1260802D01*
X34276878Y1254832D01*
X34276119Y1253770D01*
X34319898Y1213773D01*
X34337812Y1146239D01*
X34316371Y1079740D01*
X34262382Y1035390D01*
X34213855Y1025500D01*
X34177700Y1025500D01*
X34160827Y1018511D01*
X34076444Y983560D01*
X34076442Y983558D01*
X32972481Y-120404D01*
X31904704Y-1188181D01*
X31843381Y-1221666D01*
X31817023Y-1224500D01*
X31279800Y-1224500D01*
X31170200Y-1224500D01*
X31170198Y-1224500D01*
X31170196Y-1224501D01*
X31068944Y-1266439D01*
X30547202Y-1788181D01*
X30485879Y-1821666D01*
X30459521Y-1824500D01*
X30045900Y-1824500D01*
X29978861Y-1804815D01*
X29933106Y-1752011D01*
X29921900Y-1700500D01*
X29921900Y-1570610D01*
X29921900Y-1570608D01*
X29887792Y-1443314D01*
X29883976Y-1436705D01*
X29839670Y-1359964D01*
X29823197Y-1292064D01*
X29846049Y-1226037D01*
X29900970Y-1182847D01*
X29961575Y-1176044D01*
X29961648Y-1175118D01*
X29966455Y-1175496D01*
X29966474Y-1175494D01*
X29966512Y-1175500D01*
X29966513Y-1175500D01*
X30483493Y-1175500D01*
X30583121Y-1159720D01*
X30583121Y-1159719D01*
X30583126Y-1159719D01*
X30703220Y-1098528D01*
X30798528Y-1003220D01*
X30859719Y-883126D01*
X30860278Y-879595D01*
X30875500Y-783493D01*
X30875500Y-290477D01*
X30895185Y-223438D01*
X30911819Y-202796D01*
X33945866Y2831250D01*
X34007189Y2864735D01*
X34076881Y2859751D01*
X34089841Y2854054D01*
X34116871Y2840281D01*
X34116875Y2840280D01*
X34216507Y2824500D01*
X34216512Y2824500D01*
X34733493Y2824500D01*
X34833121Y2840279D01*
X34833124Y2840280D01*
X34833126Y2840281D01*
X34953220Y2901472D01*
X34953221Y2901473D01*
X34953225Y2901476D01*
X35048523Y2996774D01*
X35048526Y2996778D01*
X35048528Y2996780D01*
X35109719Y3116874D01*
X35112509Y3134488D01*
X35125500Y3216506D01*
X35125500Y3783493D01*
X35109720Y3883121D01*
X35109719Y3883121D01*
X35109719Y3883126D01*
X35048528Y4003220D01*
X34953220Y4098528D01*
X34833126Y4159719D01*
X34833121Y4159719D01*
X34833121Y4159720D01*
X34733493Y4175500D01*
X34733488Y4175500D01*
X34216512Y4175500D01*
X34216507Y4175500D01*
X34116878Y4159720D01*
X34116876Y4159719D01*
X34116874Y4159719D01*
X33996780Y4098528D01*
X33996778Y4098526D01*
X33996774Y4098523D01*
X33901476Y4003225D01*
X33901473Y4003221D01*
X33901472Y4003220D01*
X33840281Y3883126D01*
X33840280Y3883124D01*
X33840279Y3883121D01*
X33824500Y3783493D01*
X33824500Y3540477D01*
X33804815Y3473438D01*
X33788181Y3452796D01*
X31197569Y862184D01*
X31136246Y828699D01*
X31066554Y833683D01*
X31010621Y875555D01*
X30990116Y917764D01*
X30976392Y968986D01*
X30910500Y1083114D01*
X30817314Y1176300D01*
X30703186Y1242192D01*
X30575892Y1276300D01*
X30524500Y1276300D01*
X30457461Y1295985D01*
X30411706Y1348789D01*
X30400500Y1400300D01*
X30400500Y4504269D01*
X30397646Y4534698D01*
X30397213Y4535935D01*
X30388952Y4559546D01*
X30385391Y4629325D01*
X30420120Y4689952D01*
X30482113Y4722179D01*
X30505994Y4724500D01*
X33698021Y4724500D01*
X33765060Y4704815D01*
X33810402Y4652905D01*
X33815841Y4641242D01*
X33825935Y4619595D01*
X33909595Y4535935D01*
X34016829Y4485931D01*
X34016827Y4485931D01*
X34065683Y4479500D01*
X34065684Y4479500D01*
X34414317Y4479500D01*
X34463171Y4485931D01*
X34570404Y4535935D01*
X34654064Y4619595D01*
X34654065Y4619596D01*
X34704068Y4726827D01*
X34710500Y4775684D01*
X34710500Y5224316D01*
X34710499Y5224317D01*
X34710338Y5226784D01*
X34710500Y5227508D01*
X34710500Y5228375D01*
X34710694Y5228375D01*
X34725592Y5294968D01*
X34775288Y5344081D01*
X34834072Y5358900D01*
X35420245Y5358900D01*
X35487284Y5339215D01*
G37*
%TD.AperFunction*%
%TA.AperFunction,Conductor*%
G36*
X15149999Y12463321D02*
G01*
X15649998Y12403101D01*
X15649999Y12403101D01*
X16149999Y12342880D01*
X16149998Y12342879D01*
X17150000Y12222440D01*
X17650000Y12162220D01*
X18149999Y12102000D01*
X18150000Y12102000D01*
X18650000Y12041779D01*
X18649999Y12041778D01*
X19150000Y11981559D01*
X19650000Y11921339D01*
X20149999Y11861119D01*
X20150000Y11861119D01*
X20650000Y11800898D01*
X20649999Y11800897D01*
X21150000Y11740678D01*
X21213886Y11732983D01*
X21533630Y11694473D01*
X21597834Y11666914D01*
X21636947Y11609017D01*
X21638549Y11539166D01*
X21635844Y11530409D01*
X21602353Y11434697D01*
X21599500Y11404268D01*
X21599500Y8395741D01*
X21602354Y8365301D01*
X21602354Y8365300D01*
X21647206Y8237118D01*
X21727850Y8127850D01*
X21837118Y8047206D01*
X21965304Y8002353D01*
X21965301Y8002353D01*
X21995731Y7999500D01*
X21995735Y7999500D01*
X23104258Y7999500D01*
X23134698Y8002354D01*
X23134699Y8002354D01*
X23262881Y8047206D01*
X23308022Y8080522D01*
X23372150Y8127850D01*
X23452793Y8237118D01*
X23497646Y8365302D01*
X23500500Y8395735D01*
X23500499Y11317752D01*
X23520184Y11384791D01*
X23572987Y11430546D01*
X23639320Y11440863D01*
X23644859Y11440196D01*
X23650000Y11439577D01*
X24150000Y11379357D01*
X24649999Y11319137D01*
X24650000Y11319137D01*
X25150000Y11258916D01*
X25149999Y11258915D01*
X25650000Y11198696D01*
X26150000Y11138476D01*
X26649999Y11078256D01*
X26650000Y11078256D01*
X27150000Y11018035D01*
X27149999Y11018034D01*
X27650000Y10957815D01*
X28650000Y10837375D01*
X29149999Y10777155D01*
X29150000Y10777155D01*
X29650000Y10716934D01*
X29649999Y10716933D01*
X30150000Y10656714D01*
X30650000Y10596494D01*
X30749965Y10584454D01*
X31054439Y10547783D01*
X31118643Y10520224D01*
X31157756Y10462327D01*
X31159358Y10392476D01*
X31149242Y10366732D01*
X31147206Y10362880D01*
X31102353Y10234697D01*
X31099500Y10204268D01*
X31099500Y7195741D01*
X31102354Y7165301D01*
X31102354Y7165300D01*
X31150276Y7028347D01*
X31149006Y7027902D01*
X31161012Y6968880D01*
X31135711Y6903752D01*
X31079215Y6862642D01*
X31037459Y6855400D01*
X26362541Y6855400D01*
X26295502Y6875085D01*
X26249747Y6927889D01*
X26239803Y6997047D01*
X26249959Y7028264D01*
X26249724Y7028347D01*
X26297646Y7165302D01*
X26299887Y7189200D01*
X26300500Y7195735D01*
X26300499Y10204264D01*
X26297646Y10234698D01*
X26252793Y10362882D01*
X26172150Y10472150D01*
X26062882Y10552793D01*
X25934698Y10597646D01*
X25904265Y10600500D01*
X24795736Y10600499D01*
X24765302Y10597646D01*
X24637118Y10552793D01*
X24527850Y10472150D01*
X24504302Y10440243D01*
X24447206Y10362881D01*
X24402353Y10234697D01*
X24399500Y10204268D01*
X24399500Y7195741D01*
X24402354Y7165301D01*
X24402354Y7165300D01*
X24450276Y7028347D01*
X24449006Y7027902D01*
X24461012Y6968880D01*
X24435711Y6903752D01*
X24379215Y6862642D01*
X24337459Y6855400D01*
X22553378Y6855400D01*
X22486339Y6875085D01*
X22465701Y6891714D01*
X22307158Y7050257D01*
X22280592Y7061261D01*
X22205900Y7092200D01*
X19848376Y7092200D01*
X19781337Y7111885D01*
X19735582Y7164689D01*
X19725638Y7233847D01*
X19754663Y7297403D01*
X19760695Y7303881D01*
X19839197Y7382383D01*
X19839200Y7382386D01*
X19905092Y7496514D01*
X19939200Y7623808D01*
X19939200Y7755592D01*
X19905092Y7882886D01*
X19839200Y7997014D01*
X19746014Y8090200D01*
X19631886Y8156092D01*
X19504592Y8190200D01*
X19372808Y8190200D01*
X19245514Y8156092D01*
X19131386Y8090200D01*
X19131383Y8090197D01*
X19042705Y8001519D01*
X18981382Y7968034D01*
X18955024Y7965200D01*
X18193800Y7965200D01*
X18092542Y7923257D01*
X16515742Y6346457D01*
X16438243Y6268958D01*
X16410218Y6201300D01*
X16396300Y6167700D01*
X16396300Y52300D01*
X16376615Y-14739D01*
X16323811Y-60494D01*
X16272300Y-71700D01*
X16227600Y-71700D01*
X16118000Y-71700D01*
X16117998Y-71700D01*
X16117996Y-71701D01*
X16016744Y-113639D01*
X15677202Y-453181D01*
X15615879Y-486666D01*
X15589521Y-489500D01*
X15340105Y-489500D01*
X15325141Y-491470D01*
X15290513Y-496028D01*
X15290511Y-496029D01*
X15290509Y-496029D01*
X15181683Y-546776D01*
X15096774Y-631685D01*
X15070581Y-687856D01*
X15024408Y-740295D01*
X14957214Y-759446D01*
X14890333Y-739229D01*
X14845000Y-686063D01*
X14834213Y-637191D01*
X14710757Y8182800D01*
X14729502Y8250106D01*
X14781660Y8296595D01*
X14850672Y8307506D01*
X14914628Y8279373D01*
X14944372Y8242481D01*
X14947205Y8237120D01*
X15027850Y8127850D01*
X15137118Y8047206D01*
X15265304Y8002353D01*
X15265301Y8002353D01*
X15295731Y7999500D01*
X15295735Y7999500D01*
X16404258Y7999500D01*
X16434698Y8002354D01*
X16434699Y8002354D01*
X16562881Y8047206D01*
X16608022Y8080522D01*
X16672150Y8127850D01*
X16752793Y8237118D01*
X16797646Y8365302D01*
X16800500Y8395735D01*
X16800499Y11404264D01*
X16797646Y11434698D01*
X16752793Y11562882D01*
X16672150Y11672150D01*
X16562882Y11752793D01*
X16434698Y11797646D01*
X16404265Y11800500D01*
X15295736Y11800499D01*
X15265302Y11797646D01*
X15137118Y11752793D01*
X15027850Y11672150D01*
X15023986Y11666914D01*
X14947206Y11562881D01*
X14905591Y11443950D01*
X14864869Y11387173D01*
X14799916Y11361426D01*
X14731355Y11374882D01*
X14680952Y11423269D01*
X14664561Y11483168D01*
X14651983Y12381739D01*
X14670727Y12449046D01*
X14722886Y12495535D01*
X14790798Y12506583D01*
X15149999Y12463321D01*
G37*
%TD.AperFunction*%
%TA.AperFunction,Conductor*%
G36*
X21716314Y1627640D02*
G01*
X21751593Y1568978D01*
X21769028Y1503912D01*
X21769109Y1503612D01*
X21835000Y1389486D01*
X21835002Y1389483D01*
X21923681Y1300805D01*
X21957166Y1239482D01*
X21960000Y1213124D01*
X21960000Y938377D01*
X21940315Y871338D01*
X21923681Y850696D01*
X21194804Y121819D01*
X21133481Y88334D01*
X21107123Y85500D01*
X20567059Y85500D01*
X20500020Y105185D01*
X20465484Y138377D01*
X20464067Y140398D01*
X20464065Y140404D01*
X20380404Y224065D01*
X20273173Y274068D01*
X20248744Y277284D01*
X20224317Y280500D01*
X20224316Y280500D01*
X19970477Y280500D01*
X19903438Y300185D01*
X19882796Y316819D01*
X19829723Y369892D01*
X19796238Y431215D01*
X19801222Y500907D01*
X19829723Y545254D01*
X19904064Y619595D01*
X19904065Y619596D01*
X19954068Y726827D01*
X19960500Y775684D01*
X19960500Y1224316D01*
X19954068Y1273173D01*
X19904065Y1380404D01*
X19848750Y1435719D01*
X19815265Y1497042D01*
X19820249Y1566734D01*
X19862121Y1622667D01*
X19927585Y1647084D01*
X19936431Y1647400D01*
X21574600Y1647400D01*
X21584365Y1651445D01*
X21653835Y1658914D01*
X21716314Y1627640D01*
G37*
%TD.AperFunction*%
%TA.AperFunction,Conductor*%
G36*
X22052662Y6521515D02*
G01*
X22073298Y6504885D01*
X22103869Y6474316D01*
X22231841Y6346342D01*
X22231846Y6346339D01*
X22333096Y6304401D01*
X22333098Y6304400D01*
X22333100Y6304400D01*
X22442700Y6304400D01*
X29110509Y6304400D01*
X29177548Y6284715D01*
X29223303Y6231911D01*
X29233247Y6162753D01*
X29204222Y6099197D01*
X29172509Y6073013D01*
X29092986Y6027100D01*
X28999800Y5933914D01*
X28985935Y5909899D01*
X28933908Y5819787D01*
X28926291Y5791358D01*
X28904525Y5710124D01*
X28899800Y5692491D01*
X28899800Y5560708D01*
X28933908Y5433412D01*
X28999800Y5319286D01*
X28999802Y5319283D01*
X29092983Y5226102D01*
X29092986Y5226100D01*
X29184524Y5173250D01*
X29207114Y5160208D01*
X29292804Y5137247D01*
X29333351Y5126383D01*
X29393011Y5090018D01*
X29423540Y5027170D01*
X29415245Y4957795D01*
X29370760Y4903917D01*
X29342212Y4889567D01*
X29237118Y4852793D01*
X29127850Y4772150D01*
X29058545Y4678245D01*
X29047207Y4662882D01*
X29047206Y4662880D01*
X29002353Y4534701D01*
X29002353Y4534699D01*
X28999500Y4504269D01*
X28999500Y1395730D01*
X29002353Y1365300D01*
X29002353Y1365298D01*
X29047206Y1237119D01*
X29047207Y1237117D01*
X29127849Y1127850D01*
X29139574Y1119197D01*
X29154110Y1108468D01*
X29196360Y1052823D01*
X29201819Y983167D01*
X29168752Y921618D01*
X29107658Y887716D01*
X29080476Y884700D01*
X29045277Y884700D01*
X28978238Y904385D01*
X28957596Y921019D01*
X28436819Y1441796D01*
X28403334Y1503119D01*
X28400500Y1529477D01*
X28400500Y4504269D01*
X28397646Y4534699D01*
X28397646Y4534701D01*
X28368630Y4617622D01*
X28352793Y4662882D01*
X28272150Y4772150D01*
X28162882Y4852793D01*
X28057788Y4889567D01*
X28034700Y4897646D01*
X28004270Y4900500D01*
X28004266Y4900500D01*
X27395734Y4900500D01*
X27395730Y4900500D01*
X27365300Y4897646D01*
X27365298Y4897646D01*
X27269980Y4864292D01*
X27237118Y4852793D01*
X27127850Y4772150D01*
X27058545Y4678245D01*
X27047207Y4662882D01*
X27047206Y4662880D01*
X27002353Y4534701D01*
X27002353Y4534699D01*
X26999500Y4504269D01*
X26999500Y2451100D01*
X26979815Y2384061D01*
X26927011Y2338306D01*
X26875500Y2327100D01*
X23029078Y2327100D01*
X22962039Y2346785D01*
X22941397Y2363419D01*
X22910578Y2394238D01*
X22776658Y2528157D01*
X22770195Y2530834D01*
X22754601Y2537294D01*
X22754601Y2537293D01*
X22675400Y2570100D01*
X21836700Y2570100D01*
X21783692Y2548143D01*
X21735441Y2528157D01*
X21570704Y2363419D01*
X21442004Y2234719D01*
X21380681Y2201234D01*
X21354323Y2198400D01*
X19394000Y2198400D01*
X19322399Y2168741D01*
X19292741Y2156457D01*
X19292739Y2156455D01*
X19292738Y2156455D01*
X18864844Y1728559D01*
X18724042Y1587757D01*
X18646543Y1510258D01*
X18621006Y1448607D01*
X18604600Y1409000D01*
X18604600Y889476D01*
X18584915Y822437D01*
X18532111Y776682D01*
X18464415Y766537D01*
X18434316Y770500D01*
X18434314Y770500D01*
X18180478Y770500D01*
X18113439Y790185D01*
X18092797Y806819D01*
X17702919Y1196696D01*
X17669434Y1258019D01*
X17666600Y1284377D01*
X17666600Y2097120D01*
X17686285Y2164159D01*
X17739089Y2209914D01*
X17808247Y2219858D01*
X17831554Y2214162D01*
X17865302Y2202353D01*
X17865300Y2202353D01*
X17895730Y2199500D01*
X17895734Y2199500D01*
X18504270Y2199500D01*
X18534699Y2202353D01*
X18534701Y2202353D01*
X18662880Y2247206D01*
X18662882Y2247207D01*
X18698065Y2273173D01*
X18772150Y2327850D01*
X18852793Y2437118D01*
X18877577Y2507947D01*
X18897646Y2565298D01*
X18897646Y2565300D01*
X18900500Y2595730D01*
X18900500Y5704269D01*
X18897646Y5734699D01*
X18897646Y5734701D01*
X18875219Y5798790D01*
X18852793Y5862882D01*
X18818093Y5909899D01*
X18775437Y5967697D01*
X18751466Y6033326D01*
X18766782Y6101496D01*
X18787526Y6129011D01*
X18956096Y6297580D01*
X19163397Y6504881D01*
X19224720Y6538366D01*
X19251078Y6541200D01*
X21985623Y6541200D01*
X22052662Y6521515D01*
G37*
%TD.AperFunction*%
%TA.AperFunction,Conductor*%
G36*
X39705431Y6591515D02*
G01*
X39751186Y6538711D01*
X39761130Y6469553D01*
X39732105Y6405997D01*
X39726073Y6399519D01*
X39694726Y6368172D01*
X39694723Y6368168D01*
X39623538Y6261633D01*
X39623533Y6261624D01*
X39574499Y6143244D01*
X39574497Y6143238D01*
X39549500Y6017571D01*
X39549500Y5889431D01*
X39574497Y5763761D01*
X39574499Y5763755D01*
X39623533Y5645375D01*
X39623538Y5645366D01*
X39694723Y5538831D01*
X39694726Y5538827D01*
X39785327Y5448226D01*
X39785331Y5448223D01*
X39891866Y5377038D01*
X39891875Y5377033D01*
X40010255Y5327999D01*
X40010261Y5327997D01*
X40135929Y5303000D01*
X40135931Y5303000D01*
X40264071Y5303000D01*
X40389738Y5327997D01*
X40389744Y5327999D01*
X40508124Y5377033D01*
X40508133Y5377038D01*
X40614668Y5448223D01*
X40614672Y5448226D01*
X40705273Y5538827D01*
X40705276Y5538831D01*
X40776461Y5645366D01*
X40776466Y5645375D01*
X40790333Y5678854D01*
X40825501Y5763756D01*
X40850500Y5889431D01*
X40850500Y6017569D01*
X40847251Y6033900D01*
X40830312Y6119058D01*
X40825501Y6143244D01*
X40776465Y6261627D01*
X40705276Y6368169D01*
X40693707Y6379738D01*
X40673927Y6399519D01*
X40640442Y6460842D01*
X40645426Y6530534D01*
X40687298Y6586467D01*
X40752762Y6610884D01*
X40761608Y6611200D01*
X42638392Y6611200D01*
X42705431Y6591515D01*
X42751186Y6538711D01*
X42761130Y6469553D01*
X42732105Y6405997D01*
X42726073Y6399519D01*
X42694726Y6368172D01*
X42694723Y6368168D01*
X42623538Y6261633D01*
X42623533Y6261624D01*
X42574499Y6143244D01*
X42574497Y6143238D01*
X42549500Y6017571D01*
X42549500Y5889431D01*
X42574497Y5763761D01*
X42574499Y5763755D01*
X42623533Y5645375D01*
X42623538Y5645366D01*
X42694723Y5538831D01*
X42694726Y5538827D01*
X42785327Y5448226D01*
X42785331Y5448223D01*
X42891866Y5377038D01*
X42891875Y5377033D01*
X43010255Y5327999D01*
X43010261Y5327997D01*
X43135929Y5303000D01*
X43135931Y5303000D01*
X43264071Y5303000D01*
X43389738Y5327997D01*
X43389744Y5327999D01*
X43508124Y5377033D01*
X43508133Y5377038D01*
X43614668Y5448223D01*
X43614672Y5448226D01*
X43705273Y5538827D01*
X43705276Y5538831D01*
X43776461Y5645366D01*
X43776466Y5645375D01*
X43790333Y5678854D01*
X43825501Y5763756D01*
X43850500Y5889431D01*
X43850500Y6017569D01*
X43847251Y6033900D01*
X43830312Y6119058D01*
X43825501Y6143244D01*
X43776465Y6261627D01*
X43705276Y6368169D01*
X43693707Y6379738D01*
X43673927Y6399519D01*
X43640442Y6460842D01*
X43645426Y6530534D01*
X43687298Y6586467D01*
X43752762Y6610884D01*
X43761608Y6611200D01*
X43935823Y6611200D01*
X44002862Y6591515D01*
X44023504Y6574881D01*
X44794739Y5803643D01*
X44824399Y5791358D01*
X44895998Y5761700D01*
X44896000Y5761700D01*
X45301623Y5761700D01*
X45368662Y5742015D01*
X45389304Y5725381D01*
X45549004Y5565681D01*
X45582489Y5504358D01*
X45577505Y5434666D01*
X45535633Y5378733D01*
X45470169Y5354316D01*
X45461323Y5354000D01*
X44680249Y5354000D01*
X44680247Y5353999D01*
X44621770Y5342368D01*
X44621769Y5342367D01*
X44555447Y5298052D01*
X44511132Y5231730D01*
X44511131Y5231729D01*
X44499500Y5173252D01*
X44499500Y4769004D01*
X44479815Y4701965D01*
X44427011Y4656210D01*
X44357853Y4646266D01*
X44328567Y4654300D01*
X44328231Y4654366D01*
X44328231Y4654367D01*
X44269751Y4665999D01*
X44269751Y4666000D01*
X44269748Y4666000D01*
X43630252Y4666000D01*
X43630249Y4666000D01*
X43630247Y4665999D01*
X43571770Y4654368D01*
X43571768Y4654367D01*
X43552126Y4641242D01*
X43485449Y4620363D01*
X43418069Y4638847D01*
X43395556Y4656658D01*
X43076458Y4975757D01*
X42975200Y5017700D01*
X39504800Y5017700D01*
X39395200Y5017700D01*
X39293942Y4975757D01*
X39216443Y4898258D01*
X39202374Y4864292D01*
X39174500Y4797000D01*
X39174500Y4776565D01*
X39154815Y4709526D01*
X39102011Y4663771D01*
X39074688Y4654947D01*
X39071769Y4654367D01*
X39071768Y4654366D01*
X39059782Y4651983D01*
X39059557Y4653111D01*
X39002489Y4646973D01*
X38940009Y4678245D01*
X38904353Y4738332D01*
X38900500Y4769004D01*
X38900500Y5173250D01*
X38900499Y5173252D01*
X38888868Y5231729D01*
X38888867Y5231730D01*
X38888867Y5231731D01*
X38844552Y5298052D01*
X38778231Y5342367D01*
X38778229Y5342367D01*
X38778229Y5342368D01*
X38734568Y5351052D01*
X38719751Y5353999D01*
X38719751Y5354000D01*
X38719748Y5354000D01*
X37480252Y5354000D01*
X37480249Y5354000D01*
X37480247Y5353999D01*
X37421770Y5342368D01*
X37421769Y5342367D01*
X37355447Y5298052D01*
X37311132Y5231730D01*
X37311131Y5231729D01*
X37299500Y5173252D01*
X37299500Y4433747D01*
X37311131Y4375270D01*
X37311132Y4375269D01*
X37355447Y4308947D01*
X37421769Y4264632D01*
X37421770Y4264631D01*
X37480247Y4253000D01*
X37480252Y4253000D01*
X38719752Y4253000D01*
X38790210Y4267015D01*
X38790434Y4265888D01*
X38847520Y4272024D01*
X38909998Y4240748D01*
X38945649Y4180658D01*
X38949500Y4149995D01*
X38949500Y2921747D01*
X38961131Y2863270D01*
X38961132Y2863269D01*
X39005449Y2796944D01*
X39011311Y2791083D01*
X39044794Y2729759D01*
X39039807Y2660067D01*
X39011308Y2615724D01*
X38909653Y2514068D01*
X38819142Y2423557D01*
X38741643Y2346058D01*
X38722255Y2299251D01*
X38699700Y2244800D01*
X38699700Y1566577D01*
X38680015Y1499538D01*
X38663381Y1478896D01*
X38081059Y896574D01*
X38019736Y863089D01*
X37950044Y868073D01*
X37894111Y909945D01*
X37870675Y966374D01*
X37865573Y1001393D01*
X37814198Y1106483D01*
X37731483Y1189198D01*
X37626393Y1240573D01*
X37574705Y1248104D01*
X37558261Y1250500D01*
X37558260Y1250500D01*
X36316740Y1250500D01*
X36316739Y1250500D01*
X36300295Y1248104D01*
X36248607Y1240573D01*
X36143517Y1189198D01*
X36143515Y1189196D01*
X36143514Y1189196D01*
X36060802Y1106484D01*
X36055207Y1095039D01*
X36008079Y1043457D01*
X35943807Y1025500D01*
X35911145Y1025500D01*
X35844106Y1045185D01*
X35798351Y1097989D01*
X35788407Y1167147D01*
X35817432Y1230703D01*
X35848361Y1254497D01*
X35848122Y1254832D01*
X35856484Y1260802D01*
X35939196Y1343514D01*
X35939196Y1343515D01*
X35939198Y1343517D01*
X35990573Y1448607D01*
X35997994Y1499538D01*
X36000500Y1516739D01*
X36000500Y1648422D01*
X36020185Y1715461D01*
X36036819Y1736103D01*
X36992254Y2691538D01*
X36992257Y2691541D01*
X37008087Y2729759D01*
X37012742Y2740996D01*
X37012744Y2741002D01*
X37034199Y2792797D01*
X37034200Y2792801D01*
X37034200Y4467467D01*
X37034201Y4485248D01*
X37034204Y4516179D01*
X37034202Y4516181D01*
X37034203Y4516204D01*
X37034191Y4516263D01*
X37033668Y4517484D01*
X37012819Y4567818D01*
X37012816Y4567825D01*
X37003484Y4590359D01*
X36993249Y4615073D01*
X36992258Y4617622D01*
X36992225Y4617672D01*
X36989395Y4620320D01*
X36953317Y4656397D01*
X36953309Y4656405D01*
X36907756Y4701965D01*
X36745453Y4864292D01*
X36711974Y4925617D01*
X36716964Y4995309D01*
X36745461Y5039647D01*
X36748497Y5042683D01*
X36748500Y5042686D01*
X36814392Y5156814D01*
X36848500Y5284108D01*
X36848500Y5415892D01*
X36814392Y5543186D01*
X36748500Y5657314D01*
X36655314Y5750500D01*
X36541186Y5816392D01*
X36413892Y5850500D01*
X36282108Y5850500D01*
X36154814Y5816392D01*
X36040686Y5750500D01*
X36040683Y5750497D01*
X36037639Y5747453D01*
X36034438Y5745705D01*
X36034240Y5745553D01*
X36034216Y5745584D01*
X35976316Y5713968D01*
X35906624Y5718952D01*
X35862286Y5747443D01*
X35806077Y5803643D01*
X35777997Y5831718D01*
X35777993Y5831720D01*
X35743730Y5865984D01*
X35741673Y5868141D01*
X35741620Y5868177D01*
X35737784Y5869608D01*
X35689922Y5889428D01*
X35689916Y5889433D01*
X35689916Y5889431D01*
X35640500Y5909900D01*
X35640495Y5909900D01*
X35640478Y5909903D01*
X35640474Y5909905D01*
X35590656Y5909900D01*
X34834500Y5909900D01*
X34767461Y5929585D01*
X34721706Y5982389D01*
X34710500Y6033900D01*
X34710500Y6279523D01*
X34730185Y6346562D01*
X34746819Y6367204D01*
X34926296Y6546681D01*
X34987619Y6580166D01*
X35013977Y6583000D01*
X36268023Y6583000D01*
X36335062Y6563315D01*
X36355704Y6546681D01*
X36659138Y6243245D01*
X36659146Y6243240D01*
X36670593Y6238499D01*
X36670594Y6238499D01*
X36760397Y6201300D01*
X36760400Y6201300D01*
X38869500Y6201300D01*
X38970758Y6243243D01*
X39048257Y6320742D01*
X39174292Y6446777D01*
X39302397Y6574881D01*
X39307698Y6577775D01*
X39311083Y6582782D01*
X39338012Y6594328D01*
X39363720Y6608366D01*
X39373104Y6609375D01*
X39375299Y6610316D01*
X39380687Y6610190D01*
X39390078Y6611200D01*
X39638392Y6611200D01*
X39705431Y6591515D01*
G37*
%TD.AperFunction*%
%TD*%
M02*
