M48
; DRILL file KiCad 10.0.6 date 2026-09-12T21:25:10
; FORMAT={-:-/ absolute / metric / decimal}
; #@! TF.CreationDate,2026-09-12T21:25:10+03:00
; #@! TF.GenerationSoftware,Kicad,Pcbnew,10.0.6
; #@! TF.FileFunction,Plated,1,4,PTH
FMAT,2
METRIC
; #@! TA.AperFunction,Plated,PTH,ViaDrill
T1C0.300
%
G90
G05
T1
X15.6Y-10.8
X17.0Y-10.8
X18.343Y6.915
X18.343Y-2.804
X18.4Y10.2
X18.4Y8.8
X19.074Y-1.758
X19.145Y-7.621
X19.339Y6.229
X19.345Y3.224
X19.439Y7.69
X19.8Y10.2
X19.8Y8.8
X20.437Y-3.91
X20.534Y-5.241
X20.628Y-2.375
X21.2Y10.2
X21.2Y8.8
X21.2Y3.2
X21.268Y-4.044
X21.61Y1.0
X22.235Y1.697
X22.6Y-9.4
X24.0Y10.2
X24.014Y1.467
X24.613Y-0.759
X26.692Y-4.6
X26.8Y10.2
X26.9Y-5.9
X27.079Y5.412
X27.158Y0.124
X27.756Y-5.443
X28.2Y8.8
X28.2Y7.4
X28.38Y-3.692
X28.437Y-0.829
X29.105Y0.384
X29.181Y-4.189
X29.322Y-3.294
X29.4Y5.627
X29.421Y-1.636
X29.552Y-6.322
X29.6Y8.8
X30.437Y-5.099
X30.51Y0.776
X30.603Y-6.417
X30.837Y3.682
X33.395Y9.128
X34.834Y-1.047
X34.859Y-7.296
X35.592Y-4.981
X35.652Y2.599
X35.786Y-9.343
X35.84Y4.42
X36.04Y8.75
X36.04Y7.5
X36.08Y6.25
X36.348Y5.35
X36.417Y-5.537
X36.683Y9.418
X36.7Y-8.675
X37.179Y5.786
X37.779Y-6.069
X38.0Y8.8
X38.007Y-8.988
X39.215Y-1.562
X39.528Y-5.287
X40.377Y1.725
X40.527Y0.25
X40.832Y3.144
X41.452Y1.487
X41.571Y-6.392
X41.675Y-1.569
X41.967Y2.538
X42.2Y-2.4
X42.465Y1.025
X43.6Y0.4
X43.6Y-1.0
X43.6Y-2.4
X43.6Y-8.0
X43.8Y-3.55
X45.0Y3.2
X45.0Y-6.6
X45.413Y-2.2
X46.4Y-5.2
X46.4Y-6.6
X47.8Y6.0
X47.8Y-5.2
X47.8Y-6.6
X48.186Y-4.4
X48.425Y-3.091
X49.2Y4.6
X49.2Y3.2
X49.2Y-3.8
X49.2Y-5.2
X49.475Y1.475
X49.475Y-1.475
M30
