%TF.GenerationSoftware,KiCad,Pcbnew,10.0.6*%
%TF.CreationDate,2026-09-12T21:25:10+03:00*%
%TF.ProjectId,wherewatch-carrier,77686572-6577-4617-9463-682d63617272,rev?*%
%TF.SameCoordinates,Original*%
%TF.FileFunction,Legend,Bot*%
%TF.FilePolarity,Positive*%
%FSLAX46Y46*%
G04 Gerber Fmt 4.6, Leading zero omitted, Abs format (unit mm)*
G04 Created by KiCad (PCBNEW 10.0.6) date 2026-09-12 21:25:10*
%MOMM*%
%LPD*%
G01*
G04 APERTURE LIST*
%ADD10C,0.150000*%
%ADD11C,0.120000*%
%ADD12C,0.250000*%
%ADD13C,0.060000*%
G04 APERTURE END LIST*
D10*
X20166666Y-624819D02*
X20499999Y-148628D01*
X20738094Y-624819D02*
X20738094Y375180D01*
X20738094Y375180D02*
X20357142Y375180D01*
X20357142Y375180D02*
X20261904Y327561D01*
X20261904Y327561D02*
X20214285Y279942D01*
X20214285Y279942D02*
X20166666Y184704D01*
X20166666Y184704D02*
X20166666Y41847D01*
X20166666Y41847D02*
X20214285Y-53390D01*
X20214285Y-53390D02*
X20261904Y-101009D01*
X20261904Y-101009D02*
X20357142Y-148628D01*
X20357142Y-148628D02*
X20738094Y-148628D01*
X19595237Y-53390D02*
X19690475Y-5771D01*
X19690475Y-5771D02*
X19738094Y41847D01*
X19738094Y41847D02*
X19785713Y137085D01*
X19785713Y137085D02*
X19785713Y184704D01*
X19785713Y184704D02*
X19738094Y279942D01*
X19738094Y279942D02*
X19690475Y327561D01*
X19690475Y327561D02*
X19595237Y375180D01*
X19595237Y375180D02*
X19404761Y375180D01*
X19404761Y375180D02*
X19309523Y327561D01*
X19309523Y327561D02*
X19261904Y279942D01*
X19261904Y279942D02*
X19214285Y184704D01*
X19214285Y184704D02*
X19214285Y137085D01*
X19214285Y137085D02*
X19261904Y41847D01*
X19261904Y41847D02*
X19309523Y-5771D01*
X19309523Y-5771D02*
X19404761Y-53390D01*
X19404761Y-53390D02*
X19595237Y-53390D01*
X19595237Y-53390D02*
X19690475Y-101009D01*
X19690475Y-101009D02*
X19738094Y-148628D01*
X19738094Y-148628D02*
X19785713Y-243866D01*
X19785713Y-243866D02*
X19785713Y-434342D01*
X19785713Y-434342D02*
X19738094Y-529580D01*
X19738094Y-529580D02*
X19690475Y-577200D01*
X19690475Y-577200D02*
X19595237Y-624819D01*
X19595237Y-624819D02*
X19404761Y-624819D01*
X19404761Y-624819D02*
X19309523Y-577200D01*
X19309523Y-577200D02*
X19261904Y-529580D01*
X19261904Y-529580D02*
X19214285Y-434342D01*
X19214285Y-434342D02*
X19214285Y-243866D01*
X19214285Y-243866D02*
X19261904Y-148628D01*
X19261904Y-148628D02*
X19309523Y-101009D01*
X19309523Y-101009D02*
X19404761Y-53390D01*
X29033333Y545180D02*
X29033333Y-169104D01*
X29033333Y-169104D02*
X29080952Y-311961D01*
X29080952Y-311961D02*
X29176190Y-407200D01*
X29176190Y-407200D02*
X29319047Y-454819D01*
X29319047Y-454819D02*
X29414285Y-454819D01*
X28128571Y211847D02*
X28128571Y-454819D01*
X28366666Y592800D02*
X28604761Y-121485D01*
X28604761Y-121485D02*
X27985714Y-121485D01*
X31166666Y-4289580D02*
X31214285Y-4337200D01*
X31214285Y-4337200D02*
X31357142Y-4384819D01*
X31357142Y-4384819D02*
X31452380Y-4384819D01*
X31452380Y-4384819D02*
X31595237Y-4337200D01*
X31595237Y-4337200D02*
X31690475Y-4241961D01*
X31690475Y-4241961D02*
X31738094Y-4146723D01*
X31738094Y-4146723D02*
X31785713Y-3956247D01*
X31785713Y-3956247D02*
X31785713Y-3813390D01*
X31785713Y-3813390D02*
X31738094Y-3622914D01*
X31738094Y-3622914D02*
X31690475Y-3527676D01*
X31690475Y-3527676D02*
X31595237Y-3432438D01*
X31595237Y-3432438D02*
X31452380Y-3384819D01*
X31452380Y-3384819D02*
X31357142Y-3384819D01*
X31357142Y-3384819D02*
X31214285Y-3432438D01*
X31214285Y-3432438D02*
X31166666Y-3480057D01*
X30785713Y-3480057D02*
X30738094Y-3432438D01*
X30738094Y-3432438D02*
X30642856Y-3384819D01*
X30642856Y-3384819D02*
X30404761Y-3384819D01*
X30404761Y-3384819D02*
X30309523Y-3432438D01*
X30309523Y-3432438D02*
X30261904Y-3480057D01*
X30261904Y-3480057D02*
X30214285Y-3575295D01*
X30214285Y-3575295D02*
X30214285Y-3670533D01*
X30214285Y-3670533D02*
X30261904Y-3813390D01*
X30261904Y-3813390D02*
X30833332Y-4384819D01*
X30833332Y-4384819D02*
X30214285Y-4384819D01*
X30033332Y-11957200D02*
X29890475Y-12004819D01*
X29890475Y-12004819D02*
X29652380Y-12004819D01*
X29652380Y-12004819D02*
X29557142Y-11957200D01*
X29557142Y-11957200D02*
X29509523Y-11909580D01*
X29509523Y-11909580D02*
X29461904Y-11814342D01*
X29461904Y-11814342D02*
X29461904Y-11719104D01*
X29461904Y-11719104D02*
X29509523Y-11623866D01*
X29509523Y-11623866D02*
X29557142Y-11576247D01*
X29557142Y-11576247D02*
X29652380Y-11528628D01*
X29652380Y-11528628D02*
X29842856Y-11481009D01*
X29842856Y-11481009D02*
X29938094Y-11433390D01*
X29938094Y-11433390D02*
X29985713Y-11385771D01*
X29985713Y-11385771D02*
X30033332Y-11290533D01*
X30033332Y-11290533D02*
X30033332Y-11195295D01*
X30033332Y-11195295D02*
X29985713Y-11100057D01*
X29985713Y-11100057D02*
X29938094Y-11052438D01*
X29938094Y-11052438D02*
X29842856Y-11004819D01*
X29842856Y-11004819D02*
X29604761Y-11004819D01*
X29604761Y-11004819D02*
X29461904Y-11052438D01*
X29128570Y-11004819D02*
X28890475Y-12004819D01*
X28890475Y-12004819D02*
X28699999Y-11290533D01*
X28699999Y-11290533D02*
X28509523Y-12004819D01*
X28509523Y-12004819D02*
X28271428Y-11004819D01*
X27938094Y-11100057D02*
X27890475Y-11052438D01*
X27890475Y-11052438D02*
X27795237Y-11004819D01*
X27795237Y-11004819D02*
X27557142Y-11004819D01*
X27557142Y-11004819D02*
X27461904Y-11052438D01*
X27461904Y-11052438D02*
X27414285Y-11100057D01*
X27414285Y-11100057D02*
X27366666Y-11195295D01*
X27366666Y-11195295D02*
X27366666Y-11290533D01*
X27366666Y-11290533D02*
X27414285Y-11433390D01*
X27414285Y-11433390D02*
X27985713Y-12004819D01*
X27985713Y-12004819D02*
X27366666Y-12004819D01*
X35392857Y4625180D02*
X35726190Y5101371D01*
X35964285Y4625180D02*
X35964285Y5625180D01*
X35964285Y5625180D02*
X35583333Y5625180D01*
X35583333Y5625180D02*
X35488095Y5577561D01*
X35488095Y5577561D02*
X35440476Y5529942D01*
X35440476Y5529942D02*
X35392857Y5434704D01*
X35392857Y5434704D02*
X35392857Y5291847D01*
X35392857Y5291847D02*
X35440476Y5196609D01*
X35440476Y5196609D02*
X35488095Y5148990D01*
X35488095Y5148990D02*
X35583333Y5101371D01*
X35583333Y5101371D02*
X35964285Y5101371D01*
X34440476Y4625180D02*
X35011904Y4625180D01*
X34726190Y4625180D02*
X34726190Y5625180D01*
X34726190Y5625180D02*
X34821428Y5482323D01*
X34821428Y5482323D02*
X34916666Y5387085D01*
X34916666Y5387085D02*
X35011904Y5339466D01*
X33821428Y5625180D02*
X33726190Y5625180D01*
X33726190Y5625180D02*
X33630952Y5577561D01*
X33630952Y5577561D02*
X33583333Y5529942D01*
X33583333Y5529942D02*
X33535714Y5434704D01*
X33535714Y5434704D02*
X33488095Y5244228D01*
X33488095Y5244228D02*
X33488095Y5006133D01*
X33488095Y5006133D02*
X33535714Y4815657D01*
X33535714Y4815657D02*
X33583333Y4720419D01*
X33583333Y4720419D02*
X33630952Y4672800D01*
X33630952Y4672800D02*
X33726190Y4625180D01*
X33726190Y4625180D02*
X33821428Y4625180D01*
X33821428Y4625180D02*
X33916666Y4672800D01*
X33916666Y4672800D02*
X33964285Y4720419D01*
X33964285Y4720419D02*
X34011904Y4815657D01*
X34011904Y4815657D02*
X34059523Y5006133D01*
X34059523Y5006133D02*
X34059523Y5244228D01*
X34059523Y5244228D02*
X34011904Y5434704D01*
X34011904Y5434704D02*
X33964285Y5529942D01*
X33964285Y5529942D02*
X33916666Y5577561D01*
X33916666Y5577561D02*
X33821428Y5625180D01*
X34916666Y7230419D02*
X34964285Y7182800D01*
X34964285Y7182800D02*
X35107142Y7135180D01*
X35107142Y7135180D02*
X35202380Y7135180D01*
X35202380Y7135180D02*
X35345237Y7182800D01*
X35345237Y7182800D02*
X35440475Y7278038D01*
X35440475Y7278038D02*
X35488094Y7373276D01*
X35488094Y7373276D02*
X35535713Y7563752D01*
X35535713Y7563752D02*
X35535713Y7706609D01*
X35535713Y7706609D02*
X35488094Y7897085D01*
X35488094Y7897085D02*
X35440475Y7992323D01*
X35440475Y7992323D02*
X35345237Y8087561D01*
X35345237Y8087561D02*
X35202380Y8135180D01*
X35202380Y8135180D02*
X35107142Y8135180D01*
X35107142Y8135180D02*
X34964285Y8087561D01*
X34964285Y8087561D02*
X34916666Y8039942D01*
X34011904Y8135180D02*
X34488094Y8135180D01*
X34488094Y8135180D02*
X34535713Y7658990D01*
X34535713Y7658990D02*
X34488094Y7706609D01*
X34488094Y7706609D02*
X34392856Y7754228D01*
X34392856Y7754228D02*
X34154761Y7754228D01*
X34154761Y7754228D02*
X34059523Y7706609D01*
X34059523Y7706609D02*
X34011904Y7658990D01*
X34011904Y7658990D02*
X33964285Y7563752D01*
X33964285Y7563752D02*
X33964285Y7325657D01*
X33964285Y7325657D02*
X34011904Y7230419D01*
X34011904Y7230419D02*
X34059523Y7182800D01*
X34059523Y7182800D02*
X34154761Y7135180D01*
X34154761Y7135180D02*
X34392856Y7135180D01*
X34392856Y7135180D02*
X34488094Y7182800D01*
X34488094Y7182800D02*
X34535713Y7230419D01*
X19533333Y-12254819D02*
X19533333Y-12969104D01*
X19533333Y-12969104D02*
X19580952Y-13111961D01*
X19580952Y-13111961D02*
X19676190Y-13207200D01*
X19676190Y-13207200D02*
X19819047Y-13254819D01*
X19819047Y-13254819D02*
X19914285Y-13254819D01*
X18580952Y-12254819D02*
X19057142Y-12254819D01*
X19057142Y-12254819D02*
X19104761Y-12731009D01*
X19104761Y-12731009D02*
X19057142Y-12683390D01*
X19057142Y-12683390D02*
X18961904Y-12635771D01*
X18961904Y-12635771D02*
X18723809Y-12635771D01*
X18723809Y-12635771D02*
X18628571Y-12683390D01*
X18628571Y-12683390D02*
X18580952Y-12731009D01*
X18580952Y-12731009D02*
X18533333Y-12826247D01*
X18533333Y-12826247D02*
X18533333Y-13064342D01*
X18533333Y-13064342D02*
X18580952Y-13159580D01*
X18580952Y-13159580D02*
X18628571Y-13207200D01*
X18628571Y-13207200D02*
X18723809Y-13254819D01*
X18723809Y-13254819D02*
X18961904Y-13254819D01*
X18961904Y-13254819D02*
X19057142Y-13207200D01*
X19057142Y-13207200D02*
X19104761Y-13159580D01*
X36095238Y-2200057D02*
X36190476Y-2152438D01*
X36190476Y-2152438D02*
X36285714Y-2057200D01*
X36285714Y-2057200D02*
X36428571Y-1914342D01*
X36428571Y-1914342D02*
X36523809Y-1866723D01*
X36523809Y-1866723D02*
X36619047Y-1866723D01*
X36571428Y-2104819D02*
X36666666Y-2057200D01*
X36666666Y-2057200D02*
X36761904Y-1961961D01*
X36761904Y-1961961D02*
X36809523Y-1771485D01*
X36809523Y-1771485D02*
X36809523Y-1438152D01*
X36809523Y-1438152D02*
X36761904Y-1247676D01*
X36761904Y-1247676D02*
X36666666Y-1152438D01*
X36666666Y-1152438D02*
X36571428Y-1104819D01*
X36571428Y-1104819D02*
X36380952Y-1104819D01*
X36380952Y-1104819D02*
X36285714Y-1152438D01*
X36285714Y-1152438D02*
X36190476Y-1247676D01*
X36190476Y-1247676D02*
X36142857Y-1438152D01*
X36142857Y-1438152D02*
X36142857Y-1771485D01*
X36142857Y-1771485D02*
X36190476Y-1961961D01*
X36190476Y-1961961D02*
X36285714Y-2057200D01*
X36285714Y-2057200D02*
X36380952Y-2104819D01*
X36380952Y-2104819D02*
X36571428Y-2104819D01*
X35190476Y-2104819D02*
X35761904Y-2104819D01*
X35476190Y-2104819D02*
X35476190Y-1104819D01*
X35476190Y-1104819D02*
X35571428Y-1247676D01*
X35571428Y-1247676D02*
X35666666Y-1342914D01*
X35666666Y-1342914D02*
X35761904Y-1390533D01*
X35416666Y1710419D02*
X35464285Y1662800D01*
X35464285Y1662800D02*
X35607142Y1615180D01*
X35607142Y1615180D02*
X35702380Y1615180D01*
X35702380Y1615180D02*
X35845237Y1662800D01*
X35845237Y1662800D02*
X35940475Y1758038D01*
X35940475Y1758038D02*
X35988094Y1853276D01*
X35988094Y1853276D02*
X36035713Y2043752D01*
X36035713Y2043752D02*
X36035713Y2186609D01*
X36035713Y2186609D02*
X35988094Y2377085D01*
X35988094Y2377085D02*
X35940475Y2472323D01*
X35940475Y2472323D02*
X35845237Y2567561D01*
X35845237Y2567561D02*
X35702380Y2615180D01*
X35702380Y2615180D02*
X35607142Y2615180D01*
X35607142Y2615180D02*
X35464285Y2567561D01*
X35464285Y2567561D02*
X35416666Y2519942D01*
X34559523Y2615180D02*
X34749999Y2615180D01*
X34749999Y2615180D02*
X34845237Y2567561D01*
X34845237Y2567561D02*
X34892856Y2519942D01*
X34892856Y2519942D02*
X34988094Y2377085D01*
X34988094Y2377085D02*
X35035713Y2186609D01*
X35035713Y2186609D02*
X35035713Y1805657D01*
X35035713Y1805657D02*
X34988094Y1710419D01*
X34988094Y1710419D02*
X34940475Y1662800D01*
X34940475Y1662800D02*
X34845237Y1615180D01*
X34845237Y1615180D02*
X34654761Y1615180D01*
X34654761Y1615180D02*
X34559523Y1662800D01*
X34559523Y1662800D02*
X34511904Y1710419D01*
X34511904Y1710419D02*
X34464285Y1805657D01*
X34464285Y1805657D02*
X34464285Y2043752D01*
X34464285Y2043752D02*
X34511904Y2138990D01*
X34511904Y2138990D02*
X34559523Y2186609D01*
X34559523Y2186609D02*
X34654761Y2234228D01*
X34654761Y2234228D02*
X34845237Y2234228D01*
X34845237Y2234228D02*
X34940475Y2186609D01*
X34940475Y2186609D02*
X34988094Y2138990D01*
X34988094Y2138990D02*
X35035713Y2043752D01*
X43666666Y375180D02*
X43999999Y851371D01*
X44238094Y375180D02*
X44238094Y1375180D01*
X44238094Y1375180D02*
X43857142Y1375180D01*
X43857142Y1375180D02*
X43761904Y1327561D01*
X43761904Y1327561D02*
X43714285Y1279942D01*
X43714285Y1279942D02*
X43666666Y1184704D01*
X43666666Y1184704D02*
X43666666Y1041847D01*
X43666666Y1041847D02*
X43714285Y946609D01*
X43714285Y946609D02*
X43761904Y898990D01*
X43761904Y898990D02*
X43857142Y851371D01*
X43857142Y851371D02*
X44238094Y851371D01*
X42714285Y375180D02*
X43285713Y375180D01*
X42999999Y375180D02*
X42999999Y1375180D01*
X42999999Y1375180D02*
X43095237Y1232323D01*
X43095237Y1232323D02*
X43190475Y1137085D01*
X43190475Y1137085D02*
X43285713Y1089466D01*
X21916666Y-2624819D02*
X22249999Y-2148628D01*
X22488094Y-2624819D02*
X22488094Y-1624819D01*
X22488094Y-1624819D02*
X22107142Y-1624819D01*
X22107142Y-1624819D02*
X22011904Y-1672438D01*
X22011904Y-1672438D02*
X21964285Y-1720057D01*
X21964285Y-1720057D02*
X21916666Y-1815295D01*
X21916666Y-1815295D02*
X21916666Y-1958152D01*
X21916666Y-1958152D02*
X21964285Y-2053390D01*
X21964285Y-2053390D02*
X22011904Y-2101009D01*
X22011904Y-2101009D02*
X22107142Y-2148628D01*
X22107142Y-2148628D02*
X22488094Y-2148628D01*
X21011904Y-1624819D02*
X21488094Y-1624819D01*
X21488094Y-1624819D02*
X21535713Y-2101009D01*
X21535713Y-2101009D02*
X21488094Y-2053390D01*
X21488094Y-2053390D02*
X21392856Y-2005771D01*
X21392856Y-2005771D02*
X21154761Y-2005771D01*
X21154761Y-2005771D02*
X21059523Y-2053390D01*
X21059523Y-2053390D02*
X21011904Y-2101009D01*
X21011904Y-2101009D02*
X20964285Y-2196247D01*
X20964285Y-2196247D02*
X20964285Y-2434342D01*
X20964285Y-2434342D02*
X21011904Y-2529580D01*
X21011904Y-2529580D02*
X21059523Y-2577200D01*
X21059523Y-2577200D02*
X21154761Y-2624819D01*
X21154761Y-2624819D02*
X21392856Y-2624819D01*
X21392856Y-2624819D02*
X21488094Y-2577200D01*
X21488094Y-2577200D02*
X21535713Y-2529580D01*
X34416666Y-11124819D02*
X34749999Y-10648628D01*
X34988094Y-11124819D02*
X34988094Y-10124819D01*
X34988094Y-10124819D02*
X34607142Y-10124819D01*
X34607142Y-10124819D02*
X34511904Y-10172438D01*
X34511904Y-10172438D02*
X34464285Y-10220057D01*
X34464285Y-10220057D02*
X34416666Y-10315295D01*
X34416666Y-10315295D02*
X34416666Y-10458152D01*
X34416666Y-10458152D02*
X34464285Y-10553390D01*
X34464285Y-10553390D02*
X34511904Y-10601009D01*
X34511904Y-10601009D02*
X34607142Y-10648628D01*
X34607142Y-10648628D02*
X34988094Y-10648628D01*
X33559523Y-10458152D02*
X33559523Y-11124819D01*
X33797618Y-10077200D02*
X34035713Y-10791485D01*
X34035713Y-10791485D02*
X33416666Y-10791485D01*
X41139404Y-1654819D02*
X41139404Y-2464342D01*
X41139404Y-2464342D02*
X41091785Y-2559580D01*
X41091785Y-2559580D02*
X41044166Y-2607200D01*
X41044166Y-2607200D02*
X40948928Y-2654819D01*
X40948928Y-2654819D02*
X40758452Y-2654819D01*
X40758452Y-2654819D02*
X40663214Y-2607200D01*
X40663214Y-2607200D02*
X40615595Y-2559580D01*
X40615595Y-2559580D02*
X40567976Y-2464342D01*
X40567976Y-2464342D02*
X40567976Y-1654819D01*
X40139404Y-1750057D02*
X40091785Y-1702438D01*
X40091785Y-1702438D02*
X39996547Y-1654819D01*
X39996547Y-1654819D02*
X39758452Y-1654819D01*
X39758452Y-1654819D02*
X39663214Y-1702438D01*
X39663214Y-1702438D02*
X39615595Y-1750057D01*
X39615595Y-1750057D02*
X39567976Y-1845295D01*
X39567976Y-1845295D02*
X39567976Y-1940533D01*
X39567976Y-1940533D02*
X39615595Y-2083390D01*
X39615595Y-2083390D02*
X40187023Y-2654819D01*
X40187023Y-2654819D02*
X39567976Y-2654819D01*
X18416666Y-2624819D02*
X18749999Y-2148628D01*
X18988094Y-2624819D02*
X18988094Y-1624819D01*
X18988094Y-1624819D02*
X18607142Y-1624819D01*
X18607142Y-1624819D02*
X18511904Y-1672438D01*
X18511904Y-1672438D02*
X18464285Y-1720057D01*
X18464285Y-1720057D02*
X18416666Y-1815295D01*
X18416666Y-1815295D02*
X18416666Y-1958152D01*
X18416666Y-1958152D02*
X18464285Y-2053390D01*
X18464285Y-2053390D02*
X18511904Y-2101009D01*
X18511904Y-2101009D02*
X18607142Y-2148628D01*
X18607142Y-2148628D02*
X18988094Y-2148628D01*
X18083332Y-1624819D02*
X17416666Y-1624819D01*
X17416666Y-1624819D02*
X17845237Y-2624819D01*
X21624819Y-533333D02*
X21148628Y-200000D01*
X21624819Y38094D02*
X20624819Y38094D01*
X20624819Y38094D02*
X20624819Y-342857D01*
X20624819Y-342857D02*
X20672438Y-438095D01*
X20672438Y-438095D02*
X20720057Y-485714D01*
X20720057Y-485714D02*
X20815295Y-533333D01*
X20815295Y-533333D02*
X20958152Y-533333D01*
X20958152Y-533333D02*
X21053390Y-485714D01*
X21053390Y-485714D02*
X21101009Y-438095D01*
X21101009Y-438095D02*
X21148628Y-342857D01*
X21148628Y-342857D02*
X21148628Y38094D01*
X20624819Y-866667D02*
X20624819Y-1485714D01*
X20624819Y-1485714D02*
X21005771Y-1152381D01*
X21005771Y-1152381D02*
X21005771Y-1295238D01*
X21005771Y-1295238D02*
X21053390Y-1390476D01*
X21053390Y-1390476D02*
X21101009Y-1438095D01*
X21101009Y-1438095D02*
X21196247Y-1485714D01*
X21196247Y-1485714D02*
X21434342Y-1485714D01*
X21434342Y-1485714D02*
X21529580Y-1438095D01*
X21529580Y-1438095D02*
X21577200Y-1390476D01*
X21577200Y-1390476D02*
X21624819Y-1295238D01*
X21624819Y-1295238D02*
X21624819Y-1009524D01*
X21624819Y-1009524D02*
X21577200Y-914286D01*
X21577200Y-914286D02*
X21529580Y-866667D01*
X30666666Y-5624819D02*
X30999999Y-5148628D01*
X31238094Y-5624819D02*
X31238094Y-4624819D01*
X31238094Y-4624819D02*
X30857142Y-4624819D01*
X30857142Y-4624819D02*
X30761904Y-4672438D01*
X30761904Y-4672438D02*
X30714285Y-4720057D01*
X30714285Y-4720057D02*
X30666666Y-4815295D01*
X30666666Y-4815295D02*
X30666666Y-4958152D01*
X30666666Y-4958152D02*
X30714285Y-5053390D01*
X30714285Y-5053390D02*
X30761904Y-5101009D01*
X30761904Y-5101009D02*
X30857142Y-5148628D01*
X30857142Y-5148628D02*
X31238094Y-5148628D01*
X30285713Y-4720057D02*
X30238094Y-4672438D01*
X30238094Y-4672438D02*
X30142856Y-4624819D01*
X30142856Y-4624819D02*
X29904761Y-4624819D01*
X29904761Y-4624819D02*
X29809523Y-4672438D01*
X29809523Y-4672438D02*
X29761904Y-4720057D01*
X29761904Y-4720057D02*
X29714285Y-4815295D01*
X29714285Y-4815295D02*
X29714285Y-4910533D01*
X29714285Y-4910533D02*
X29761904Y-5053390D01*
X29761904Y-5053390D02*
X30333332Y-5624819D01*
X30333332Y-5624819D02*
X29714285Y-5624819D01*
X48208333Y-2654819D02*
X48208333Y-3369104D01*
X48208333Y-3369104D02*
X48255952Y-3511961D01*
X48255952Y-3511961D02*
X48351190Y-3607200D01*
X48351190Y-3607200D02*
X48494047Y-3654819D01*
X48494047Y-3654819D02*
X48589285Y-3654819D01*
X47827380Y-2654819D02*
X47208333Y-2654819D01*
X47208333Y-2654819D02*
X47541666Y-3035771D01*
X47541666Y-3035771D02*
X47398809Y-3035771D01*
X47398809Y-3035771D02*
X47303571Y-3083390D01*
X47303571Y-3083390D02*
X47255952Y-3131009D01*
X47255952Y-3131009D02*
X47208333Y-3226247D01*
X47208333Y-3226247D02*
X47208333Y-3464342D01*
X47208333Y-3464342D02*
X47255952Y-3559580D01*
X47255952Y-3559580D02*
X47303571Y-3607200D01*
X47303571Y-3607200D02*
X47398809Y-3654819D01*
X47398809Y-3654819D02*
X47684523Y-3654819D01*
X47684523Y-3654819D02*
X47779761Y-3607200D01*
X47779761Y-3607200D02*
X47827380Y-3559580D01*
X43595238Y-7450057D02*
X43690476Y-7402438D01*
X43690476Y-7402438D02*
X43785714Y-7307200D01*
X43785714Y-7307200D02*
X43928571Y-7164342D01*
X43928571Y-7164342D02*
X44023809Y-7116723D01*
X44023809Y-7116723D02*
X44119047Y-7116723D01*
X44071428Y-7354819D02*
X44166666Y-7307200D01*
X44166666Y-7307200D02*
X44261904Y-7211961D01*
X44261904Y-7211961D02*
X44309523Y-7021485D01*
X44309523Y-7021485D02*
X44309523Y-6688152D01*
X44309523Y-6688152D02*
X44261904Y-6497676D01*
X44261904Y-6497676D02*
X44166666Y-6402438D01*
X44166666Y-6402438D02*
X44071428Y-6354819D01*
X44071428Y-6354819D02*
X43880952Y-6354819D01*
X43880952Y-6354819D02*
X43785714Y-6402438D01*
X43785714Y-6402438D02*
X43690476Y-6497676D01*
X43690476Y-6497676D02*
X43642857Y-6688152D01*
X43642857Y-6688152D02*
X43642857Y-7021485D01*
X43642857Y-7021485D02*
X43690476Y-7211961D01*
X43690476Y-7211961D02*
X43785714Y-7307200D01*
X43785714Y-7307200D02*
X43880952Y-7354819D01*
X43880952Y-7354819D02*
X44071428Y-7354819D01*
X43261904Y-6450057D02*
X43214285Y-6402438D01*
X43214285Y-6402438D02*
X43119047Y-6354819D01*
X43119047Y-6354819D02*
X42880952Y-6354819D01*
X42880952Y-6354819D02*
X42785714Y-6402438D01*
X42785714Y-6402438D02*
X42738095Y-6450057D01*
X42738095Y-6450057D02*
X42690476Y-6545295D01*
X42690476Y-6545295D02*
X42690476Y-6640533D01*
X42690476Y-6640533D02*
X42738095Y-6783390D01*
X42738095Y-6783390D02*
X43309523Y-7354819D01*
X43309523Y-7354819D02*
X42690476Y-7354819D01*
X43033332Y-703700D02*
X42890475Y-751319D01*
X42890475Y-751319D02*
X42652380Y-751319D01*
X42652380Y-751319D02*
X42557142Y-703700D01*
X42557142Y-703700D02*
X42509523Y-656080D01*
X42509523Y-656080D02*
X42461904Y-560842D01*
X42461904Y-560842D02*
X42461904Y-465604D01*
X42461904Y-465604D02*
X42509523Y-370366D01*
X42509523Y-370366D02*
X42557142Y-322747D01*
X42557142Y-322747D02*
X42652380Y-275128D01*
X42652380Y-275128D02*
X42842856Y-227509D01*
X42842856Y-227509D02*
X42938094Y-179890D01*
X42938094Y-179890D02*
X42985713Y-132271D01*
X42985713Y-132271D02*
X43033332Y-37033D01*
X43033332Y-37033D02*
X43033332Y58204D01*
X43033332Y58204D02*
X42985713Y153442D01*
X42985713Y153442D02*
X42938094Y201061D01*
X42938094Y201061D02*
X42842856Y248680D01*
X42842856Y248680D02*
X42604761Y248680D01*
X42604761Y248680D02*
X42461904Y201061D01*
X42128570Y248680D02*
X41890475Y-751319D01*
X41890475Y-751319D02*
X41699999Y-37033D01*
X41699999Y-37033D02*
X41509523Y-751319D01*
X41509523Y-751319D02*
X41271428Y248680D01*
X40366666Y-751319D02*
X40938094Y-751319D01*
X40652380Y-751319D02*
X40652380Y248680D01*
X40652380Y248680D02*
X40747618Y105823D01*
X40747618Y105823D02*
X40842856Y10585D01*
X40842856Y10585D02*
X40938094Y-37033D01*
X18392857Y-1374819D02*
X18726190Y-898628D01*
X18964285Y-1374819D02*
X18964285Y-374819D01*
X18964285Y-374819D02*
X18583333Y-374819D01*
X18583333Y-374819D02*
X18488095Y-422438D01*
X18488095Y-422438D02*
X18440476Y-470057D01*
X18440476Y-470057D02*
X18392857Y-565295D01*
X18392857Y-565295D02*
X18392857Y-708152D01*
X18392857Y-708152D02*
X18440476Y-803390D01*
X18440476Y-803390D02*
X18488095Y-851009D01*
X18488095Y-851009D02*
X18583333Y-898628D01*
X18583333Y-898628D02*
X18964285Y-898628D01*
X17440476Y-1374819D02*
X18011904Y-1374819D01*
X17726190Y-1374819D02*
X17726190Y-374819D01*
X17726190Y-374819D02*
X17821428Y-517676D01*
X17821428Y-517676D02*
X17916666Y-612914D01*
X17916666Y-612914D02*
X18011904Y-660533D01*
X16488095Y-1374819D02*
X17059523Y-1374819D01*
X16773809Y-1374819D02*
X16773809Y-374819D01*
X16773809Y-374819D02*
X16869047Y-517676D01*
X16869047Y-517676D02*
X16964285Y-612914D01*
X16964285Y-612914D02*
X17059523Y-660533D01*
X27704404Y-4504819D02*
X27704404Y-5314342D01*
X27704404Y-5314342D02*
X27656785Y-5409580D01*
X27656785Y-5409580D02*
X27609166Y-5457200D01*
X27609166Y-5457200D02*
X27513928Y-5504819D01*
X27513928Y-5504819D02*
X27323452Y-5504819D01*
X27323452Y-5504819D02*
X27228214Y-5457200D01*
X27228214Y-5457200D02*
X27180595Y-5409580D01*
X27180595Y-5409580D02*
X27132976Y-5314342D01*
X27132976Y-5314342D02*
X27132976Y-4504819D01*
X26228214Y-4838152D02*
X26228214Y-5504819D01*
X26466309Y-4457200D02*
X26704404Y-5171485D01*
X26704404Y-5171485D02*
X26085357Y-5171485D01*
X19533333Y1745180D02*
X19533333Y1030895D01*
X19533333Y1030895D02*
X19580952Y888038D01*
X19580952Y888038D02*
X19676190Y792800D01*
X19676190Y792800D02*
X19819047Y745180D01*
X19819047Y745180D02*
X19914285Y745180D01*
X18533333Y745180D02*
X19104761Y745180D01*
X18819047Y745180D02*
X18819047Y1745180D01*
X18819047Y1745180D02*
X18914285Y1602323D01*
X18914285Y1602323D02*
X19009523Y1507085D01*
X19009523Y1507085D02*
X19104761Y1459466D01*
X37533333Y-8834819D02*
X37533333Y-9549104D01*
X37533333Y-9549104D02*
X37580952Y-9691961D01*
X37580952Y-9691961D02*
X37676190Y-9787200D01*
X37676190Y-9787200D02*
X37819047Y-9834819D01*
X37819047Y-9834819D02*
X37914285Y-9834819D01*
X36628571Y-8834819D02*
X36819047Y-8834819D01*
X36819047Y-8834819D02*
X36914285Y-8882438D01*
X36914285Y-8882438D02*
X36961904Y-8930057D01*
X36961904Y-8930057D02*
X37057142Y-9072914D01*
X37057142Y-9072914D02*
X37104761Y-9263390D01*
X37104761Y-9263390D02*
X37104761Y-9644342D01*
X37104761Y-9644342D02*
X37057142Y-9739580D01*
X37057142Y-9739580D02*
X37009523Y-9787200D01*
X37009523Y-9787200D02*
X36914285Y-9834819D01*
X36914285Y-9834819D02*
X36723809Y-9834819D01*
X36723809Y-9834819D02*
X36628571Y-9787200D01*
X36628571Y-9787200D02*
X36580952Y-9739580D01*
X36580952Y-9739580D02*
X36533333Y-9644342D01*
X36533333Y-9644342D02*
X36533333Y-9406247D01*
X36533333Y-9406247D02*
X36580952Y-9311009D01*
X36580952Y-9311009D02*
X36628571Y-9263390D01*
X36628571Y-9263390D02*
X36723809Y-9215771D01*
X36723809Y-9215771D02*
X36914285Y-9215771D01*
X36914285Y-9215771D02*
X37009523Y-9263390D01*
X37009523Y-9263390D02*
X37057142Y-9311009D01*
X37057142Y-9311009D02*
X37104761Y-9406247D01*
X25224819Y-133333D02*
X24748628Y199999D01*
X25224819Y438094D02*
X24224819Y438094D01*
X24224819Y438094D02*
X24224819Y57142D01*
X24224819Y57142D02*
X24272438Y-38095D01*
X24272438Y-38095D02*
X24320057Y-85714D01*
X24320057Y-85714D02*
X24415295Y-133333D01*
X24415295Y-133333D02*
X24558152Y-133333D01*
X24558152Y-133333D02*
X24653390Y-85714D01*
X24653390Y-85714D02*
X24701009Y-38095D01*
X24701009Y-38095D02*
X24748628Y57142D01*
X24748628Y57142D02*
X24748628Y438094D01*
X24224819Y-990476D02*
X24224819Y-800000D01*
X24224819Y-800000D02*
X24272438Y-704762D01*
X24272438Y-704762D02*
X24320057Y-657143D01*
X24320057Y-657143D02*
X24462914Y-561905D01*
X24462914Y-561905D02*
X24653390Y-514286D01*
X24653390Y-514286D02*
X25034342Y-514286D01*
X25034342Y-514286D02*
X25129580Y-561905D01*
X25129580Y-561905D02*
X25177200Y-609524D01*
X25177200Y-609524D02*
X25224819Y-704762D01*
X25224819Y-704762D02*
X25224819Y-895238D01*
X25224819Y-895238D02*
X25177200Y-990476D01*
X25177200Y-990476D02*
X25129580Y-1038095D01*
X25129580Y-1038095D02*
X25034342Y-1085714D01*
X25034342Y-1085714D02*
X24796247Y-1085714D01*
X24796247Y-1085714D02*
X24701009Y-1038095D01*
X24701009Y-1038095D02*
X24653390Y-990476D01*
X24653390Y-990476D02*
X24605771Y-895238D01*
X24605771Y-895238D02*
X24605771Y-704762D01*
X24605771Y-704762D02*
X24653390Y-609524D01*
X24653390Y-609524D02*
X24701009Y-561905D01*
X24701009Y-561905D02*
X24796247Y-514286D01*
X34916666Y5980419D02*
X34964285Y5932800D01*
X34964285Y5932800D02*
X35107142Y5885180D01*
X35107142Y5885180D02*
X35202380Y5885180D01*
X35202380Y5885180D02*
X35345237Y5932800D01*
X35345237Y5932800D02*
X35440475Y6028038D01*
X35440475Y6028038D02*
X35488094Y6123276D01*
X35488094Y6123276D02*
X35535713Y6313752D01*
X35535713Y6313752D02*
X35535713Y6456609D01*
X35535713Y6456609D02*
X35488094Y6647085D01*
X35488094Y6647085D02*
X35440475Y6742323D01*
X35440475Y6742323D02*
X35345237Y6837561D01*
X35345237Y6837561D02*
X35202380Y6885180D01*
X35202380Y6885180D02*
X35107142Y6885180D01*
X35107142Y6885180D02*
X34964285Y6837561D01*
X34964285Y6837561D02*
X34916666Y6789942D01*
X34583332Y6885180D02*
X33964285Y6885180D01*
X33964285Y6885180D02*
X34297618Y6504228D01*
X34297618Y6504228D02*
X34154761Y6504228D01*
X34154761Y6504228D02*
X34059523Y6456609D01*
X34059523Y6456609D02*
X34011904Y6408990D01*
X34011904Y6408990D02*
X33964285Y6313752D01*
X33964285Y6313752D02*
X33964285Y6075657D01*
X33964285Y6075657D02*
X34011904Y5980419D01*
X34011904Y5980419D02*
X34059523Y5932800D01*
X34059523Y5932800D02*
X34154761Y5885180D01*
X34154761Y5885180D02*
X34440475Y5885180D01*
X34440475Y5885180D02*
X34535713Y5932800D01*
X34535713Y5932800D02*
X34583332Y5980419D01*
X34916666Y3375180D02*
X35249999Y3851371D01*
X35488094Y3375180D02*
X35488094Y4375180D01*
X35488094Y4375180D02*
X35107142Y4375180D01*
X35107142Y4375180D02*
X35011904Y4327561D01*
X35011904Y4327561D02*
X34964285Y4279942D01*
X34964285Y4279942D02*
X34916666Y4184704D01*
X34916666Y4184704D02*
X34916666Y4041847D01*
X34916666Y4041847D02*
X34964285Y3946609D01*
X34964285Y3946609D02*
X35011904Y3898990D01*
X35011904Y3898990D02*
X35107142Y3851371D01*
X35107142Y3851371D02*
X35488094Y3851371D01*
X34440475Y3375180D02*
X34249999Y3375180D01*
X34249999Y3375180D02*
X34154761Y3422800D01*
X34154761Y3422800D02*
X34107142Y3470419D01*
X34107142Y3470419D02*
X34011904Y3613276D01*
X34011904Y3613276D02*
X33964285Y3803752D01*
X33964285Y3803752D02*
X33964285Y4184704D01*
X33964285Y4184704D02*
X34011904Y4279942D01*
X34011904Y4279942D02*
X34059523Y4327561D01*
X34059523Y4327561D02*
X34154761Y4375180D01*
X34154761Y4375180D02*
X34345237Y4375180D01*
X34345237Y4375180D02*
X34440475Y4327561D01*
X34440475Y4327561D02*
X34488094Y4279942D01*
X34488094Y4279942D02*
X34535713Y4184704D01*
X34535713Y4184704D02*
X34535713Y3946609D01*
X34535713Y3946609D02*
X34488094Y3851371D01*
X34488094Y3851371D02*
X34440475Y3803752D01*
X34440475Y3803752D02*
X34345237Y3756133D01*
X34345237Y3756133D02*
X34154761Y3756133D01*
X34154761Y3756133D02*
X34059523Y3803752D01*
X34059523Y3803752D02*
X34011904Y3851371D01*
X34011904Y3851371D02*
X33964285Y3946609D01*
X31166666Y-2289580D02*
X31214285Y-2337200D01*
X31214285Y-2337200D02*
X31357142Y-2384819D01*
X31357142Y-2384819D02*
X31452380Y-2384819D01*
X31452380Y-2384819D02*
X31595237Y-2337200D01*
X31595237Y-2337200D02*
X31690475Y-2241961D01*
X31690475Y-2241961D02*
X31738094Y-2146723D01*
X31738094Y-2146723D02*
X31785713Y-1956247D01*
X31785713Y-1956247D02*
X31785713Y-1813390D01*
X31785713Y-1813390D02*
X31738094Y-1622914D01*
X31738094Y-1622914D02*
X31690475Y-1527676D01*
X31690475Y-1527676D02*
X31595237Y-1432438D01*
X31595237Y-1432438D02*
X31452380Y-1384819D01*
X31452380Y-1384819D02*
X31357142Y-1384819D01*
X31357142Y-1384819D02*
X31214285Y-1432438D01*
X31214285Y-1432438D02*
X31166666Y-1480057D01*
X30214285Y-2384819D02*
X30785713Y-2384819D01*
X30499999Y-2384819D02*
X30499999Y-1384819D01*
X30499999Y-1384819D02*
X30595237Y-1527676D01*
X30595237Y-1527676D02*
X30690475Y-1622914D01*
X30690475Y-1622914D02*
X30785713Y-1670533D01*
X16166666Y-2519580D02*
X16214285Y-2567200D01*
X16214285Y-2567200D02*
X16357142Y-2614819D01*
X16357142Y-2614819D02*
X16452380Y-2614819D01*
X16452380Y-2614819D02*
X16595237Y-2567200D01*
X16595237Y-2567200D02*
X16690475Y-2471961D01*
X16690475Y-2471961D02*
X16738094Y-2376723D01*
X16738094Y-2376723D02*
X16785713Y-2186247D01*
X16785713Y-2186247D02*
X16785713Y-2043390D01*
X16785713Y-2043390D02*
X16738094Y-1852914D01*
X16738094Y-1852914D02*
X16690475Y-1757676D01*
X16690475Y-1757676D02*
X16595237Y-1662438D01*
X16595237Y-1662438D02*
X16452380Y-1614819D01*
X16452380Y-1614819D02*
X16357142Y-1614819D01*
X16357142Y-1614819D02*
X16214285Y-1662438D01*
X16214285Y-1662438D02*
X16166666Y-1710057D01*
X15309523Y-1948152D02*
X15309523Y-2614819D01*
X15547618Y-1567200D02*
X15785713Y-2281485D01*
X15785713Y-2281485D02*
X15166666Y-2281485D01*
%TO.C,R8*%
D11*
X19846359Y1380000D02*
X20153641Y1380000D01*
X19846359Y620000D02*
X20153641Y620000D01*
%TO.C,J4*%
X24640000Y6740000D02*
X24640000Y2490000D01*
X24640000Y2490000D02*
X25660000Y2490000D01*
X25660000Y4090000D02*
X26940000Y4090000D01*
X25660000Y2490000D02*
X25660000Y4090000D01*
X26360000Y10310000D02*
X31040000Y10310000D01*
X26940000Y4090000D02*
X26940000Y1200000D01*
X31740000Y4090000D02*
X30460000Y4090000D01*
X31740000Y2490000D02*
X31740000Y4090000D01*
X32760000Y6740000D02*
X32760000Y2490000D01*
X32760000Y2490000D02*
X31740000Y2490000D01*
%TO.C,C2*%
X30859420Y-1990000D02*
X31140580Y-1990000D01*
X30859420Y-3010000D02*
X31140580Y-3010000D01*
%TO.C,SW2*%
X25950000Y-8800000D02*
X25950000Y-6800000D01*
X27000000Y-5500000D02*
X27450000Y-5050000D01*
X27000000Y-10100000D02*
X27450000Y-10550000D01*
X27450000Y-5050000D02*
X29950000Y-5050000D01*
X27450000Y-10550000D02*
X29950000Y-10550000D01*
X30400000Y-5500000D02*
X29950000Y-5050000D01*
X30400000Y-10100000D02*
X29950000Y-10550000D01*
X31450000Y-8800000D02*
X31450000Y-6800000D01*
%TO.C,R10*%
X34596359Y6630000D02*
X34903641Y6630000D01*
X34596359Y5870000D02*
X34903641Y5870000D01*
%TO.C,C5*%
X34642164Y9110000D02*
X34857836Y9110000D01*
X34642164Y8390000D02*
X34857836Y8390000D01*
%TO.C,J5*%
X15140000Y-6060000D02*
X15140000Y-10310000D01*
X15140000Y-10310000D02*
X16160000Y-10310000D01*
X16160000Y-8710000D02*
X17440000Y-8710000D01*
X16160000Y-10310000D02*
X16160000Y-8710000D01*
X16860000Y-2490000D02*
X21540000Y-2490000D01*
X17440000Y-8710000D02*
X17440000Y-11600000D01*
X22240000Y-8710000D02*
X20960000Y-8710000D01*
X22240000Y-10310000D02*
X22240000Y-8710000D01*
X23260000Y-6060000D02*
X23260000Y-10310000D01*
X23260000Y-10310000D02*
X22240000Y-10310000D01*
%TO.C,Q1*%
X35240000Y2310000D02*
X35240000Y2260000D01*
X35240000Y1140000D02*
X35240000Y360000D01*
X35240000Y-760000D02*
X35240000Y-810000D01*
X35240000Y-810000D02*
X36760000Y-810000D01*
X36760000Y2310000D02*
X35240000Y2310000D01*
X36760000Y1310000D02*
X36760000Y2310000D01*
X36760000Y-810000D02*
X36760000Y190000D01*
X34700000Y370000D02*
X34940000Y700000D01*
X34460000Y700000D01*
X34700000Y370000D01*
G36*
X34700000Y370000D02*
G01*
X34460000Y700000D01*
X34940000Y700000D01*
X34700000Y370000D01*
G37*
%TO.C,C6*%
X35109420Y4010000D02*
X35390580Y4010000D01*
X35109420Y2990000D02*
X35390580Y2990000D01*
%TO.C,R1*%
X43346359Y2380000D02*
X43653641Y2380000D01*
X43346359Y1620000D02*
X43653641Y1620000D01*
%TO.C,R5*%
X21596359Y-620000D02*
X21903641Y-620000D01*
X21596359Y-1380000D02*
X21903641Y-1380000D01*
%TO.C,R4*%
X34096359Y-9120000D02*
X34403641Y-9120000D01*
X34096359Y-9880000D02*
X34403641Y-9880000D01*
%TO.C,U2*%
X38767500Y1360000D02*
X38767500Y1185000D01*
X38767500Y-1185000D02*
X38767500Y-1360000D01*
X38767500Y-1360000D02*
X39442500Y-1360000D01*
X39442500Y1360000D02*
X38767500Y1360000D01*
X41312500Y-1360000D02*
X41987500Y-1360000D01*
X41987500Y1360000D02*
X41312500Y1360000D01*
X41987500Y1185000D02*
X41987500Y1360000D01*
X41987500Y-1360000D02*
X41987500Y-1185000D01*
X38637500Y-750000D02*
X38307500Y-510000D01*
X38307500Y-990000D01*
X38637500Y-750000D01*
G36*
X38637500Y-750000D02*
G01*
X38307500Y-990000D01*
X38307500Y-510000D01*
X38637500Y-750000D01*
G37*
%TO.C,R7*%
X18096359Y-620000D02*
X18403641Y-620000D01*
X18096359Y-1380000D02*
X18403641Y-1380000D01*
%TO.C,R3*%
X19620000Y-853641D02*
X19620000Y-546359D01*
X20380000Y-853641D02*
X20380000Y-546359D01*
%TO.C,R2*%
X30346359Y-3620000D02*
X30653641Y-3620000D01*
X30346359Y-4380000D02*
X30653641Y-4380000D01*
%TO.C,J3*%
X46515000Y1400000D02*
X46515000Y760000D01*
X46515000Y-760000D02*
X45885000Y-760000D01*
X46515000Y-1400000D02*
X46515000Y-760000D01*
X49235000Y-1350000D02*
X49235000Y1350000D01*
%TO.C,Q2*%
X42740000Y-2940000D02*
X42740000Y-2990000D01*
X42740000Y-4110000D02*
X42740000Y-4890000D01*
X42740000Y-6010000D02*
X42740000Y-6060000D01*
X42740000Y-6060000D02*
X44260000Y-6060000D01*
X44260000Y-2940000D02*
X42740000Y-2940000D01*
X44260000Y-3940000D02*
X44260000Y-2940000D01*
X44260000Y-6060000D02*
X44260000Y-5060000D01*
X42200000Y-4880000D02*
X42440000Y-4550000D01*
X41960000Y-4550000D01*
X42200000Y-4880000D01*
G36*
X42200000Y-4880000D02*
G01*
X41960000Y-4550000D01*
X42440000Y-4550000D01*
X42200000Y-4880000D01*
G37*
%TO.C,SW1*%
D12*
X38300000Y5343500D02*
X38300000Y6543500D01*
X38950000Y7353500D02*
X44450000Y7353500D01*
X40200000Y4453500D02*
X41700000Y4453500D01*
X41850000Y8933500D02*
X43130000Y8933500D01*
X41850000Y7333500D02*
X41850000Y8933500D01*
X43130000Y8933500D02*
X43130000Y7333500D01*
X44470000Y4453500D02*
X44460000Y4453500D01*
X45100000Y5343500D02*
X45100000Y6543500D01*
D13*
X37730000Y3543500D02*
G75*
G02*
X37670000Y3543500I-30000J0D01*
G01*
X37670000Y3543500D02*
G75*
G02*
X37730000Y3543500I30000J0D01*
G01*
%TO.C,R11*%
D11*
X17596359Y630000D02*
X17903641Y630000D01*
X17596359Y-130000D02*
X17903641Y-130000D01*
%TO.C,U4*%
X25332500Y-640000D02*
X25332500Y-1115000D01*
X25332500Y-3385000D02*
X25332500Y-3860000D01*
X25332500Y-3860000D02*
X25807500Y-3860000D01*
X25807500Y-640000D02*
X25332500Y-640000D01*
X28077500Y-3860000D02*
X28552500Y-3860000D01*
X28552500Y-640000D02*
X28077500Y-640000D01*
X28552500Y-1115000D02*
X28552500Y-640000D01*
X28552500Y-3860000D02*
X28552500Y-3385000D01*
X24822500Y-3000000D02*
X24492500Y-2760000D01*
X24492500Y-3240000D01*
X24822500Y-3000000D01*
G36*
X24822500Y-3000000D02*
G01*
X24492500Y-3240000D01*
X24492500Y-2760000D01*
X24822500Y-3000000D01*
G37*
%TO.C,J1*%
X15140000Y7940000D02*
X15140000Y3690000D01*
X15140000Y3690000D02*
X16160000Y3690000D01*
X16160000Y5290000D02*
X17440000Y5290000D01*
X16160000Y3690000D02*
X16160000Y5290000D01*
X16860000Y11510000D02*
X21540000Y11510000D01*
X17440000Y5290000D02*
X17440000Y2400000D01*
X22240000Y5290000D02*
X20960000Y5290000D01*
X22240000Y3690000D02*
X22240000Y5290000D01*
X23260000Y7940000D02*
X23260000Y3690000D01*
X23260000Y3690000D02*
X22240000Y3690000D01*
%TO.C,J6*%
X34090000Y-4685000D02*
X34090000Y-7185000D01*
X34090000Y-7185000D02*
X35140000Y-7185000D01*
X35140000Y-7185000D02*
X35140000Y-8175000D01*
X35260000Y-2715000D02*
X39140000Y-2715000D01*
X40310000Y-4685000D02*
X40310000Y-7185000D01*
X40310000Y-7185000D02*
X39260000Y-7185000D01*
%TO.C,R6*%
X23220000Y-453641D02*
X23220000Y-146359D01*
X23980000Y-453641D02*
X23980000Y-146359D01*
%TO.C,C3*%
X34642164Y7860000D02*
X34857836Y7860000D01*
X34642164Y7140000D02*
X34857836Y7140000D01*
%TO.C,R9*%
X34596359Y5380000D02*
X34903641Y5380000D01*
X34596359Y4620000D02*
X34903641Y4620000D01*
%TO.C,C1*%
X30859420Y10000D02*
X31140580Y10000D01*
X30859420Y-1010000D02*
X31140580Y-1010000D01*
%TO.C,C4*%
X15892164Y-640000D02*
X16107836Y-640000D01*
X15892164Y-1360000D02*
X16107836Y-1360000D01*
%TD*%
M02*
